<svg xmlns="http://www.w3.org/2000/svg" xmlns:xlink="http://www.w3.org/1999/xlink" id="Layer_1" x="0" y="0" version="1.1" viewBox="0 0 176.7 43.3" xml:space="preserve" style="enable-background:new 0 0 176.7 43.3"><style type="text/css">.st0{fill:#fff}</style><polygon points="8.7 34.7 8.7 17.4 0 17.4 0 43.3 26 43.3 26 34.7" class="st0"/><polygon points="43.2 .1 0 .1 0 13.1 8.7 13.1 8.7 8.8 34.6 8.8 34.6 34.7 30.3 34.7 30.3 43.3 43.2 43.3" class="st0"/><path d="M51.9,0h13.3v32.2h19.1v11.1H51.9V0z" class="st0"/><path d="M92.9,0h33.5v11.1h-20.1v5.4h17.3v10.3h-17.3v16.5H92.9V0z" class="st0"/><path d="M146.1,20.3L131.9,0.1h15.6l6.5,11.7l6.4-11.7h14.7l-13.8,20.3l15.4,22.8h-16l-7.4-12.9l-7.6,12.9h-15.2	L146.1,20.3z" class="st0"/></svg>