<svg xmlns="http://www.w3.org/2000/svg" id="icon" version="1.1" viewBox="0 0 62.362 62.362"><defs><style>.st0{fill:#fff}</style></defs><path d="M31.315 62.362C13.483 62.362 0 47.59 0 31.315 0 12.633 15.557 0 31.08 0c18.602 0 31.282 15.34 31.282 30.947 0 19.05-15.657 31.415-31.047 31.415" style="fill:#da291c"/><circle cx="19.11" cy="19.11" r="1.63" class="st0"/><circle cx="43.252" cy="19.11" r="1.63" class="st0"/><path d="M21.815 18.157c2.64-1.904 5.87-3.04 9.366-3.04s6.726 1.136 9.366 3.04a2.88 2.88 0 0 1 1.29-1.54 17.97 17.97 0 0 0-21.311 0 2.88 2.88 0 0 1 1.29 1.54" class="st0"/><circle cx="19.18" cy="43.321" r="1.63" class="st0"/><circle cx="43.214" cy="43.289" r="1.63" class="st0"/><path d="M44.176 40.587a2.88 2.88 0 0 1 1.535 1.294 17.96 17.96 0 0 0 3.534-10.7c0-3.99-1.31-7.666-3.5-10.655a2.88 2.88 0 0 1-1.54 1.29 15.96 15.96 0 0 1 3.04 9.365c0 3.514-1.148 6.758-3.07 9.406m-25.985.023c-.65.24-1.2.71-1.53 1.31-2.23-3-3.54-6.71-3.54-10.74 0-3.99 1.31-7.66 3.5-10.65.34.59.88 1.05 1.54 1.29a15.9 15.9 0 0 0-3.04 9.36c0 3.52 1.14 6.78 3.07 9.43m23.6 5.17a17.96 17.96 0 0 1-10.61 3.46c-3.95 0-7.6-1.27-10.57-3.42.59-.34 1.06-.89 1.29-1.55 2.62 1.87 5.82 2.97 9.28 2.97 3.48 0 6.69-1.12 9.33-3 .23.65.69 1.2 1.28 1.54" class="st0"/></svg>