<svg xmlns="http://www.w3.org/2000/svg" id="Ebene_2" version="1.1" viewBox="0 0 62.362 62.362"><defs><style>.st0{fill:#fff}</style></defs><path d="M31.315 62.362C13.483 62.362 0 47.59 0 31.315 0 12.633 15.557 0 31.08 0c18.602 0 31.282 15.34 31.282 30.947 0 19.05-15.657 31.415-31.047 31.415" style="fill:#da291c"/><path d="M37.31 35.513H25.052a2.81 2.81 0 0 1-2.808-2.809v-8.786a2.81 2.81 0 0 1 2.808-2.809H37.31a2.81 2.81 0 0 1 2.808 2.809v8.786a2.81 2.81 0 0 1-2.808 2.809M25.052 22.359c-.86 0-1.558.7-1.558 1.559v8.786c0 .86.699 1.559 1.558 1.559H37.31c.859 0 1.558-.7 1.558-1.559v-8.786c0-.86-.7-1.559-1.559-1.559zM33.99 37.71h-5.616a.625.625 0 0 1 0-1.25h5.615a.626.626 0 0 1 0 1.25" class="st0"/><path d="M31.21 52.655c-3.137 0-16.52-9.85-16.52-21.35 0-6.485.23-10.944.422-13.542.157-2.133 1.961-3.804 4.107-3.804h23.925c2.145 0 3.949 1.67 4.106 3.804.192 2.602.42 7.063.42 13.542 0 11.5-13.334 21.35-16.46 21.35M19.22 15.96a2.12 2.12 0 0 0-2.112 1.951c-.19 2.565-.416 6.97-.416 13.395 0 10.655 12.822 19.271 14.52 19.35 1.69-.079 14.46-8.697 14.46-19.35 0-6.418-.226-10.826-.415-13.395a2.12 2.12 0 0 0-2.112-1.951z" class="st0"/></svg>