<?xml version="1.0" encoding="utf-8"?>
<!-- Generator: Adobe Illustrator 27.5.0, SVG Export Plug-In . SVG Version: 6.00 Build 0)  -->
<svg version="1.1" id="Layer_1" xmlns="http://www.w3.org/2000/svg" xmlns:xlink="http://www.w3.org/1999/xlink" x="0px" y="0px"
	 viewBox="0 0 469.9 148" style="enable-background:new 0 0 469.9 148;" xml:space="preserve">
<style type="text/css">
	.st0{fill-rule:evenodd;clip-rule:evenodd;fill:#4A86E8;}
	.st1{fill:none;stroke:#000000;stroke-linejoin:round;stroke-miterlimit:10;}
	.st2{fill-rule:evenodd;clip-rule:evenodd;fill:#595959;}
	.st3{fill-rule:evenodd;clip-rule:evenodd;fill-opacity:0;}
	.st4{fill:none;stroke:#C0C0C0;stroke-linejoin:round;stroke-miterlimit:10;stroke-dasharray:4,3;}
	.st5{fill:#FFFFFF;}
	.st6{fill:#212121;}
	.st7{fill-rule:evenodd;clip-rule:evenodd;fill:#00B39F;}
	.st8{fill:none;stroke:#212121;stroke-linejoin:round;stroke-miterlimit:10;}
	.st9{fill:none;stroke:#00B39F;stroke-linejoin:round;stroke-miterlimit:10;stroke-dasharray:4,3;}
	.st10{fill:none;stroke:#FFE599;stroke-linejoin:round;stroke-miterlimit:10;stroke-dasharray:4,3;}
	.st11{fill:none;stroke:#FFE599;stroke-linejoin:round;stroke-miterlimit:10;}
	.st12{fill-rule:evenodd;clip-rule:evenodd;fill:#FFE599;stroke:#FFE599;stroke-miterlimit:10;}
	.st13{fill-rule:evenodd;clip-rule:evenodd;fill:#FFE599;}
	.st14{fill:none;stroke:#00B39F;stroke-linejoin:round;stroke-miterlimit:10;}
	.st15{fill-rule:evenodd;clip-rule:evenodd;fill:#00B39F;stroke:#00B39F;stroke-miterlimit:10;}
	.st16{fill:none;stroke:#674EA7;stroke-linejoin:round;stroke-miterlimit:10;}
	.st17{fill-rule:evenodd;clip-rule:evenodd;fill:#674EA7;stroke:#674EA7;stroke-miterlimit:10;}
	.st18{fill:none;stroke:#CCCCCC;stroke-linejoin:round;stroke-miterlimit:10;}
	.st19{fill-rule:evenodd;clip-rule:evenodd;fill:#CCCCCC;stroke:#CCCCCC;stroke-miterlimit:10;}
	.st20{fill:none;stroke:#674EA7;stroke-linejoin:round;stroke-miterlimit:10;stroke-dasharray:4,3;}
</style>
<g>
	<path class="st0" d="M89.3,84.6h296.6v62.9H89.3V84.6z"/>
	<path class="st1" d="M89.3,84.6h296.6v62.9H89.3V84.6z"/>
	<path class="st2" d="M89.5,0.5h296.6v62.9H89.5V0.5z"/>
	<path class="st1" d="M89.5,0.5h296.6v62.9H89.5V0.5z"/>
	<path class="st3" d="M101.2,91.9h124.9v48.4H101.2V91.9z"/>
	<path class="st4" d="M101.2,91.9h124.9v48.4H101.2V91.9z"/>
	<path class="st5" d="M113.2,105.7c1,0,1.7,0.2,2.1,0.6c0.5,0.4,0.7,0.9,0.7,1.6c0,0.3-0.1,0.6-0.2,0.9c-0.1,0.3-0.3,0.5-0.5,0.8
		c-0.2,0.2-0.6,0.4-0.9,0.5c-0.4,0.1-0.8,0.2-1.4,0.2h-0.9v3h-0.9v-7.6H113.2z M113.1,106.5h-1v3.1h0.8c0.5,0,0.9-0.1,1.2-0.2
		c0.3-0.1,0.6-0.3,0.7-0.5c0.2-0.2,0.2-0.6,0.2-0.9c0-0.5-0.2-0.9-0.5-1.1C114.3,106.6,113.8,106.5,113.1,106.5z M122.4,110.5
		c0,0.5-0.1,0.9-0.2,1.2c-0.1,0.4-0.3,0.7-0.5,0.9c-0.2,0.2-0.5,0.4-0.8,0.6c-0.3,0.1-0.7,0.2-1.1,0.2c-0.4,0-0.7-0.1-1-0.2
		c-0.3-0.1-0.6-0.3-0.8-0.6c-0.2-0.3-0.4-0.6-0.5-0.9s-0.2-0.8-0.2-1.2c0-0.6,0.1-1.2,0.3-1.6c0.2-0.4,0.5-0.8,0.9-1
		c0.4-0.2,0.9-0.4,1.4-0.4c0.5,0,1,0.1,1.4,0.4c0.4,0.2,0.7,0.6,0.9,1S122.4,109.8,122.4,110.5z M118,110.5c0,0.5,0.1,0.9,0.2,1.2
		s0.3,0.6,0.6,0.8s0.6,0.3,1,0.3c0.4,0,0.7-0.1,1-0.3c0.3-0.2,0.5-0.4,0.6-0.8s0.2-0.7,0.2-1.2s-0.1-0.8-0.2-1.2
		c-0.1-0.3-0.3-0.6-0.6-0.8c-0.2-0.2-0.6-0.3-1-0.3c-0.6,0-1,0.2-1.3,0.6C118.2,109.2,118,109.8,118,110.5z M124.8,113.3h-0.9v-8.1
		h0.9V113.3z M127.4,107.6v5.7h-0.9v-5.7H127.4z M127,105.5c0.1,0,0.3,0,0.4,0.1s0.2,0.2,0.2,0.4c0,0.2-0.1,0.3-0.2,0.4
		s-0.2,0.1-0.4,0.1c-0.2,0-0.3,0-0.4-0.1c-0.1-0.1-0.1-0.2-0.1-0.4c0-0.2,0-0.3,0.1-0.4C126.7,105.5,126.9,105.5,127,105.5z
		 M131.5,113.4c-0.5,0-1-0.1-1.4-0.3c-0.4-0.2-0.7-0.5-0.9-1c-0.2-0.4-0.3-1-0.3-1.6c0-0.7,0.1-1.3,0.3-1.7s0.5-0.8,1-1
		c0.4-0.2,0.9-0.3,1.4-0.3c0.3,0,0.6,0,0.8,0.1c0.3,0.1,0.5,0.1,0.7,0.2l-0.2,0.7c-0.2-0.1-0.4-0.1-0.6-0.2s-0.4-0.1-0.6-0.1
		c-0.4,0-0.7,0.1-1,0.2c-0.3,0.2-0.5,0.4-0.6,0.8c-0.1,0.3-0.2,0.7-0.2,1.2c0,0.5,0.1,0.9,0.2,1.2c0.1,0.3,0.3,0.6,0.6,0.8
		c0.2,0.2,0.6,0.2,0.9,0.2c0.3,0,0.6,0,0.8-0.1c0.2-0.1,0.5-0.2,0.7-0.2v0.8c-0.2,0.1-0.4,0.2-0.7,0.2
		C132.1,113.4,131.9,113.4,131.5,113.4z M133.5,107.6h0.9l1.3,3.3c0.1,0.2,0.1,0.4,0.2,0.6c0.1,0.2,0.1,0.3,0.2,0.5
		c0.1,0.2,0.1,0.3,0.1,0.5h0c0-0.2,0.1-0.4,0.2-0.7s0.2-0.6,0.3-0.9l1.2-3.3h0.9l-2.5,6.5c-0.1,0.3-0.3,0.6-0.5,0.9
		c-0.2,0.3-0.4,0.5-0.6,0.6c-0.2,0.1-0.6,0.2-0.9,0.2c-0.2,0-0.3,0-0.4,0c-0.1,0-0.2,0-0.3-0.1v-0.7c0.1,0,0.2,0,0.3,0
		c0.1,0,0.2,0,0.3,0c0.2,0,0.4,0,0.6-0.1c0.2-0.1,0.3-0.2,0.4-0.3c0.1-0.2,0.2-0.3,0.3-0.6l0.3-0.8L133.5,107.6z"/>
	<path class="st5" d="M117.2,122.4c0,0.9-0.2,1.6-0.5,2.1s-0.8,1-1.4,1.3c-0.6,0.3-1.3,0.4-2.1,0.4h-2.1v-7.6h2.3
		c0.8,0,1.4,0.1,2,0.4c0.6,0.3,1,0.7,1.3,1.3C117.1,120.9,117.2,121.6,117.2,122.4z M116.3,122.5c0-0.7-0.1-1.2-0.3-1.7
		c-0.2-0.4-0.6-0.8-1-1s-1-0.3-1.6-0.3h-1.3v6.1h1.1c1.1,0,1.8-0.3,2.4-0.8C116,124.3,116.3,123.5,116.3,122.5z M121,120.5
		c0.5,0,0.9,0.1,1.2,0.3c0.4,0.2,0.6,0.5,0.8,0.9c0.2,0.4,0.3,0.8,0.3,1.4v0.5h-3.9c0,0.7,0.2,1.2,0.5,1.5c0.3,0.3,0.8,0.5,1.4,0.5
		c0.4,0,0.7,0,1-0.1c0.3-0.1,0.6-0.2,0.9-0.3v0.8c-0.3,0.1-0.6,0.2-0.9,0.3c-0.3,0.1-0.6,0.1-1,0.1c-0.5,0-1-0.1-1.4-0.3
		c-0.4-0.2-0.7-0.6-1-1c-0.2-0.4-0.3-1-0.3-1.6c0-0.6,0.1-1.1,0.3-1.6c0.2-0.4,0.5-0.8,0.9-1C120,120.6,120.5,120.5,121,120.5z
		 M121,121.2c-0.5,0-0.8,0.2-1.1,0.5c-0.3,0.3-0.4,0.7-0.5,1.3h3c0-0.3-0.1-0.6-0.2-0.9c-0.1-0.3-0.3-0.5-0.5-0.6
		C121.6,121.3,121.3,121.2,121,121.2z M127.3,121.3h-1.4v5H125v-5h-1v-0.4l1-0.3v-0.4c0-0.5,0.1-0.9,0.2-1.2
		c0.1-0.3,0.4-0.5,0.6-0.7c0.3-0.1,0.6-0.2,1-0.2c0.2,0,0.4,0,0.6,0.1c0.2,0,0.3,0.1,0.5,0.1l-0.2,0.7c-0.1,0-0.2-0.1-0.4-0.1
		c-0.1,0-0.3,0-0.4,0c-0.3,0-0.6,0.1-0.7,0.3c-0.2,0.2-0.2,0.5-0.2,1v0.4h1.4V121.3z M129.2,120.6v5.7h-0.9v-5.7H129.2z
		 M128.8,118.5c0.1,0,0.3,0,0.4,0.1c0.1,0.1,0.2,0.2,0.2,0.4c0,0.2-0.1,0.3-0.2,0.4c-0.1,0.1-0.2,0.1-0.4,0.1c-0.2,0-0.3,0-0.4-0.1
		c-0.1-0.1-0.1-0.2-0.1-0.4c0-0.2,0-0.3,0.1-0.4C128.5,118.5,128.7,118.5,128.8,118.5z M133.8,120.5c0.7,0,1.2,0.2,1.5,0.5
		c0.4,0.3,0.5,0.9,0.5,1.6v3.7H135v-3.7c0-0.5-0.1-0.8-0.3-1.1c-0.2-0.2-0.6-0.4-1-0.4c-0.6,0-1.1,0.2-1.3,0.5
		c-0.2,0.4-0.4,0.9-0.4,1.5v3h-0.9v-5.7h0.7l0.1,0.8h0c0.1-0.2,0.3-0.4,0.5-0.5s0.4-0.2,0.6-0.3S133.5,120.5,133.8,120.5z
		 M138.5,120.6v5.7h-0.9v-5.7H138.5z M138,118.5c0.1,0,0.3,0,0.4,0.1s0.2,0.2,0.2,0.4c0,0.2-0.1,0.3-0.2,0.4s-0.2,0.1-0.4,0.1
		c-0.2,0-0.3,0-0.4-0.1c-0.1-0.1-0.1-0.2-0.1-0.4c0-0.2,0-0.3,0.1-0.4C137.8,118.5,137.9,118.5,138,118.5z M142.1,125.7
		c0.1,0,0.3,0,0.4,0c0.1,0,0.3-0.1,0.4-0.1v0.7c-0.1,0.1-0.2,0.1-0.4,0.1c-0.2,0-0.3,0-0.5,0c-0.3,0-0.6-0.1-0.8-0.2
		c-0.2-0.1-0.4-0.3-0.6-0.5c-0.1-0.2-0.2-0.6-0.2-1v-3.4h-0.8v-0.4l0.8-0.3l0.3-1.2h0.5v1.3h1.7v0.7h-1.7v3.4c0,0.4,0.1,0.6,0.2,0.8
		C141.6,125.6,141.8,125.7,142.1,125.7z M145,120.6v5.7h-0.9v-5.7H145z M144.5,118.5c0.1,0,0.3,0,0.4,0.1c0.1,0.1,0.2,0.2,0.2,0.4
		c0,0.2-0.1,0.3-0.2,0.4c-0.1,0.1-0.2,0.1-0.4,0.1c-0.2,0-0.3,0-0.4-0.1c-0.1-0.1-0.1-0.2-0.1-0.4c0-0.2,0-0.3,0.1-0.4
		C144.2,118.5,144.4,118.5,144.5,118.5z M151.7,123.5c0,0.5-0.1,0.9-0.2,1.2c-0.1,0.4-0.3,0.7-0.5,0.9c-0.2,0.2-0.5,0.4-0.8,0.6
		c-0.3,0.1-0.7,0.2-1.1,0.2c-0.4,0-0.7-0.1-1-0.2c-0.3-0.1-0.6-0.3-0.8-0.6c-0.2-0.3-0.4-0.6-0.5-0.9c-0.1-0.4-0.2-0.8-0.2-1.2
		c0-0.6,0.1-1.2,0.3-1.6c0.2-0.4,0.5-0.8,0.9-1c0.4-0.2,0.9-0.4,1.4-0.4c0.5,0,1,0.1,1.4,0.4c0.4,0.2,0.7,0.6,0.9,1
		C151.6,122.3,151.7,122.8,151.7,123.5z M147.3,123.5c0,0.5,0.1,0.9,0.2,1.2c0.1,0.3,0.3,0.6,0.6,0.8c0.3,0.2,0.6,0.3,1,0.3
		c0.4,0,0.7-0.1,1-0.3c0.3-0.2,0.5-0.4,0.6-0.8c0.1-0.3,0.2-0.7,0.2-1.2c0-0.5-0.1-0.8-0.2-1.2c-0.1-0.3-0.3-0.6-0.6-0.8
		c-0.2-0.2-0.6-0.3-1-0.3c-0.6,0-1,0.2-1.3,0.6C147.5,122.2,147.3,122.8,147.3,123.5z M155.9,120.5c0.7,0,1.2,0.2,1.5,0.5
		c0.4,0.3,0.5,0.9,0.5,1.6v3.7h-0.9v-3.7c0-0.5-0.1-0.8-0.3-1.1c-0.2-0.2-0.6-0.4-1-0.4c-0.6,0-1.1,0.2-1.3,0.5
		c-0.2,0.4-0.4,0.9-0.4,1.5v3h-0.9v-5.7h0.7l0.1,0.8h0c0.1-0.2,0.3-0.4,0.5-0.5c0.2-0.1,0.4-0.2,0.6-0.3
		C155.4,120.5,155.6,120.5,155.9,120.5z M163.4,124.8c0,0.4-0.1,0.7-0.3,0.9c-0.2,0.2-0.4,0.4-0.8,0.6c-0.3,0.1-0.7,0.2-1.2,0.2
		c-0.4,0-0.8,0-1-0.1c-0.3-0.1-0.5-0.2-0.8-0.3v-0.8c0.2,0.1,0.5,0.2,0.8,0.3c0.3,0.1,0.7,0.1,1,0.1c0.5,0,0.8-0.1,1.1-0.2
		c0.2-0.2,0.3-0.4,0.3-0.7c0-0.2,0-0.3-0.1-0.4c-0.1-0.1-0.2-0.2-0.4-0.4c-0.2-0.1-0.5-0.2-0.9-0.4c-0.4-0.1-0.7-0.3-1-0.4
		c-0.3-0.1-0.5-0.3-0.6-0.5c-0.1-0.2-0.2-0.5-0.2-0.8c0-0.5,0.2-0.8,0.6-1.1c0.4-0.3,0.9-0.4,1.5-0.4c0.3,0,0.7,0,1,0.1
		c0.3,0.1,0.6,0.2,0.8,0.3l-0.3,0.7c-0.2-0.1-0.5-0.2-0.8-0.2c-0.3-0.1-0.5-0.1-0.8-0.1c-0.4,0-0.7,0.1-0.9,0.2
		c-0.2,0.1-0.3,0.3-0.3,0.5c0,0.2,0,0.3,0.1,0.4c0.1,0.1,0.3,0.2,0.5,0.3c0.2,0.1,0.5,0.2,0.9,0.3c0.4,0.1,0.7,0.3,0.9,0.4
		c0.3,0.1,0.5,0.3,0.6,0.5C163.3,124.2,163.4,124.4,163.4,124.8z"/>
	<path class="st3" d="M34,34.9h42.2v42H34V34.9z"/>
	<path class="st6" d="M41.2,52.8v-6.7H42v6.7H41.2z M49.1,47.8c0.6,0,1,0.1,1.2,0.4c0.3,0.3,0.4,0.7,0.4,1.4v3.3H50v-3.2
		c0-0.4-0.1-0.7-0.3-0.9c-0.2-0.2-0.4-0.3-0.8-0.3c-0.5,0-0.8,0.1-1,0.4s-0.3,0.7-0.3,1.2v2.8h-0.8v-3.2c0-0.3,0-0.5-0.1-0.7
		c-0.1-0.2-0.2-0.3-0.3-0.4s-0.3-0.1-0.6-0.1c-0.3,0-0.6,0.1-0.8,0.2c-0.2,0.1-0.3,0.3-0.4,0.6c-0.1,0.3-0.1,0.6-0.1,1v2.6h-0.8v-5
		h0.6l0.1,0.7h0c0.1-0.2,0.2-0.3,0.4-0.4c0.2-0.1,0.3-0.2,0.5-0.3c0.2-0.1,0.4-0.1,0.6-0.1c0.4,0,0.7,0.1,1,0.2
		c0.3,0.1,0.4,0.3,0.6,0.6h0c0.2-0.3,0.4-0.5,0.7-0.6C48.5,47.8,48.8,47.8,49.1,47.8z M54.7,47.8c0.6,0,1.1,0.2,1.5,0.6
		c0.4,0.4,0.6,1.1,0.6,1.9c0,0.6-0.1,1.1-0.3,1.4c-0.2,0.4-0.4,0.7-0.7,0.9c-0.3,0.2-0.7,0.3-1.1,0.3c-0.3,0-0.5,0-0.7-0.1
		c-0.2-0.1-0.4-0.2-0.5-0.3c-0.1-0.1-0.2-0.2-0.3-0.4H53c0,0.1,0,0.3,0,0.4c0,0.2,0,0.3,0,0.4v2h-0.8v-7.2H53l0.1,0.7h0
		c0.1-0.2,0.2-0.3,0.3-0.4c0.1-0.1,0.3-0.2,0.5-0.3C54.2,47.8,54.4,47.8,54.7,47.8z M54.6,48.4c-0.4,0-0.6,0.1-0.8,0.2
		c-0.2,0.1-0.4,0.3-0.5,0.6c-0.1,0.3-0.1,0.6-0.1,1v0.1c0,0.4,0,0.8,0.1,1.1c0.1,0.3,0.2,0.5,0.5,0.7s0.5,0.2,0.9,0.2
		c0.3,0,0.6-0.1,0.8-0.2c0.2-0.2,0.4-0.4,0.5-0.7c0.1-0.3,0.2-0.6,0.2-1c0-0.6-0.1-1.1-0.3-1.4C55.4,48.6,55,48.4,54.6,48.4z
		 M62.3,50.3c0,0.4-0.1,0.8-0.2,1.1c-0.1,0.3-0.3,0.6-0.5,0.8c-0.2,0.2-0.4,0.4-0.7,0.5c-0.3,0.1-0.6,0.2-1,0.2
		c-0.3,0-0.6-0.1-0.9-0.2c-0.3-0.1-0.5-0.3-0.7-0.5c-0.2-0.2-0.4-0.5-0.5-0.8c-0.1-0.3-0.2-0.7-0.2-1.1c0-0.6,0.1-1,0.3-1.4
		s0.5-0.7,0.8-0.9s0.8-0.3,1.2-0.3c0.4,0,0.8,0.1,1.2,0.3c0.3,0.2,0.6,0.5,0.8,0.9C62.2,49.3,62.3,49.8,62.3,50.3z M58.5,50.3
		c0,0.4,0.1,0.7,0.2,1c0.1,0.3,0.3,0.5,0.5,0.7c0.2,0.2,0.5,0.2,0.9,0.2c0.3,0,0.6-0.1,0.8-0.2c0.2-0.2,0.4-0.4,0.5-0.7
		c0.1-0.3,0.2-0.7,0.2-1c0-0.4-0.1-0.8-0.2-1c-0.1-0.3-0.3-0.5-0.5-0.7c-0.2-0.2-0.5-0.2-0.8-0.2c-0.5,0-0.9,0.2-1.2,0.5
		C58.7,49.2,58.5,49.7,58.5,50.3z M65.9,47.8c0.1,0,0.2,0,0.3,0c0.1,0,0.2,0,0.3,0l-0.1,0.7c-0.1,0-0.2,0-0.3,0c-0.1,0-0.2,0-0.3,0
		c-0.2,0-0.4,0-0.6,0.1c-0.2,0.1-0.3,0.2-0.5,0.3c-0.1,0.1-0.2,0.3-0.3,0.5c-0.1,0.2-0.1,0.4-0.1,0.7v2.7h-0.8v-5h0.6l0.1,0.9h0
		c0.1-0.2,0.2-0.3,0.4-0.5c0.1-0.2,0.3-0.3,0.5-0.4C65.5,47.8,65.7,47.8,65.9,47.8z M69.1,52.3c0.1,0,0.2,0,0.4,0
		c0.1,0,0.2,0,0.3-0.1v0.6c-0.1,0-0.2,0.1-0.4,0.1c-0.2,0-0.3,0-0.5,0c-0.3,0-0.5,0-0.7-0.1c-0.2-0.1-0.4-0.2-0.5-0.5
		c-0.1-0.2-0.2-0.5-0.2-0.9v-3h-0.7v-0.4l0.7-0.3l0.3-1.1h0.5v1.2h1.5v0.6h-1.5v2.9c0,0.3,0.1,0.5,0.2,0.7S68.8,52.3,69.1,52.3z"/>
	<path class="st6" d="M51.6,64l-0.8-2.1h-2.7L47.3,64h-0.8l2.6-6.7h0.7l2.6,6.7H51.6z M50.5,61.2l-0.8-2.1c0-0.1,0-0.1-0.1-0.3
		c0-0.1-0.1-0.2-0.1-0.4c0-0.1-0.1-0.2-0.1-0.3c0,0.1-0.1,0.2-0.1,0.4c0,0.1-0.1,0.2-0.1,0.3s-0.1,0.2-0.1,0.3l-0.8,2.1H50.5z
		 M55.5,59c0.6,0,1.1,0.2,1.5,0.6c0.4,0.4,0.6,1.1,0.6,1.9c0,0.6-0.1,1.1-0.3,1.4c-0.2,0.4-0.4,0.7-0.7,0.9
		c-0.3,0.2-0.7,0.3-1.1,0.3c-0.3,0-0.5,0-0.7-0.1c-0.2-0.1-0.4-0.2-0.5-0.3c-0.1-0.1-0.2-0.2-0.3-0.4h-0.1c0,0.1,0,0.3,0,0.4
		c0,0.2,0,0.3,0,0.4v2h-0.8v-7.2h0.6l0.1,0.7h0c0.1-0.2,0.2-0.3,0.3-0.4c0.1-0.1,0.3-0.2,0.5-0.3C55,59,55.3,59,55.5,59z M55.4,59.6
		c-0.4,0-0.6,0.1-0.8,0.2s-0.4,0.3-0.5,0.6c-0.1,0.3-0.1,0.6-0.1,1v0.1c0,0.4,0,0.8,0.1,1.1c0.1,0.3,0.2,0.5,0.5,0.7
		s0.5,0.2,0.9,0.2c0.3,0,0.6-0.1,0.8-0.2s0.4-0.4,0.5-0.7c0.1-0.3,0.2-0.6,0.2-1c0-0.6-0.1-1.1-0.3-1.4
		C56.2,59.8,55.9,59.6,55.4,59.6z M61.2,59c0.6,0,1.1,0.2,1.5,0.6c0.4,0.4,0.6,1.1,0.6,1.9c0,0.6-0.1,1.1-0.3,1.4
		c-0.2,0.4-0.4,0.7-0.7,0.9c-0.3,0.2-0.7,0.3-1.1,0.3c-0.3,0-0.5,0-0.7-0.1c-0.2-0.1-0.4-0.2-0.5-0.3c-0.1-0.1-0.2-0.2-0.3-0.4h-0.1
		c0,0.1,0,0.3,0,0.4c0,0.2,0,0.3,0,0.4v2h-0.8v-7.2h0.6l0.1,0.7h0c0.1-0.2,0.2-0.3,0.3-0.4c0.1-0.1,0.3-0.2,0.5-0.3
		C60.7,59,61,59,61.2,59z M61.1,59.6c-0.4,0-0.6,0.1-0.8,0.2c-0.2,0.1-0.4,0.3-0.5,0.6c-0.1,0.3-0.1,0.6-0.1,1v0.1
		c0,0.4,0,0.8,0.1,1.1c0.1,0.3,0.2,0.5,0.5,0.7s0.5,0.2,0.9,0.2c0.3,0,0.6-0.1,0.8-0.2c0.2-0.2,0.4-0.4,0.5-0.7
		c0.1-0.3,0.2-0.6,0.2-1c0-0.6-0.1-1.1-0.3-1.4C61.9,59.8,61.6,59.6,61.1,59.6z"/>
	<g>
		<g transform="matrix(1.0 0.0 0.0 1.0 0.0 2.0)">
			<g id="g24b46b86645_0_0.2">
				<path class="st3" d="M11.3,26.8v26.8"/>
				<path class="st1" d="M11.3,26.8v26.8"/>
			</g>
		</g>
	</g>
	<g id="g24b46b86645_0_0.2_00000114773457323907400430000017940043477578710925_">
		<path class="st3" d="M11.3,24.8v26.8"/>
		<path class="st1" d="M11.3,24.8v26.8"/>
	</g>
	<g>
		<g transform="matrix(1.0 0.0 0.0 1.0 0.0 2.0)">
			<g id="g24b46b86645_0_0.3">
				<path class="st3" d="M12.1,35.6l-7.6,4"/>
				<path class="st1" d="M12.1,35.6l-7.6,4"/>
			</g>
		</g>
	</g>
	<g>
		<g transform="matrix(1.0 0.0 0.0 1.0 0.0 2.0)">
			<g id="g24b46b86645_0_0.4">
				<path class="st7" d="M0.5,16.9L0.5,16.9C0.5,11.4,5.3,7,11.3,7l0,0c6,0,10.8,4.4,10.8,9.9l0,0c0,5.5-4.8,9.9-10.8,9.9l0,0
					C5.3,26.8,0.5,22.4,0.5,16.9z"/>
				<path class="st1" d="M0.5,16.9L0.5,16.9C0.5,11.4,5.3,7,11.3,7l0,0c6,0,10.8,4.4,10.8,9.9l0,0c0,5.5-4.8,9.9-10.8,9.9l0,0
					C5.3,26.8,0.5,22.4,0.5,16.9z"/>
			</g>
		</g>
	</g>
	<g>
		<g transform="matrix(1.0 0.0 0.0 1.0 0.0 2.0)">
			<g id="g24b46b86645_0_0.5">
				<path class="st3" d="M12.6,36.1l7.2,3.8"/>
				<path class="st1" d="M12.6,36.1l7.2,3.8"/>
			</g>
		</g>
	</g>
	<g>
		<g transform="matrix(1.0 0.0 0.0 1.0 0.0 2.000000000000038)">
			<g id="g24b46b86645_0_0.6">
				<path class="st3" d="M11.2,54.3l-7.6,4"/>
				<path class="st1" d="M11.2,54.3l-7.6,4"/>
			</g>
		</g>
	</g>
	<g>
		<g transform="matrix(1.0 0.0 0.0 1.0 0.0 1.9999999999999618)">
			<g id="g24b46b86645_0_0.7">
				<path class="st3" d="M11.7,54.8l7.2,3.8"/>
				<path class="st1" d="M11.7,54.8l7.2,3.8"/>
			</g>
		</g>
	</g>
	<path class="st7" d="M34,26.5h31.3V21l11,11l-11,11v-5.5H34V26.5z"/>
	<path class="st8" d="M34,26.5h31.3V21l11,11l-11,11v-5.5H34V26.5z"/>
	<path d="M47.2,33.4c0,0.3-0.1,0.5-0.2,0.7s-0.3,0.3-0.6,0.4c-0.2,0.1-0.6,0.1-0.9,0.1c-0.3,0-0.5,0-0.8-0.1c-0.2,0-0.4-0.1-0.6-0.2
		v-0.6c0.2,0.1,0.4,0.2,0.6,0.2c0.2,0.1,0.5,0.1,0.7,0.1c0.4,0,0.6-0.1,0.8-0.2c0.2-0.1,0.2-0.3,0.2-0.5c0-0.1,0-0.2-0.1-0.3
		c-0.1-0.1-0.2-0.2-0.3-0.3c-0.2-0.1-0.4-0.2-0.6-0.3c-0.3-0.1-0.5-0.2-0.7-0.3c-0.2-0.1-0.4-0.2-0.5-0.4c-0.1-0.1-0.2-0.3-0.2-0.6
		c0-0.4,0.1-0.6,0.4-0.8c0.3-0.2,0.7-0.3,1.2-0.3c0.3,0,0.5,0,0.7,0.1c0.2,0.1,0.4,0.1,0.6,0.2l-0.2,0.5c-0.2-0.1-0.4-0.1-0.6-0.2
		c-0.2-0.1-0.4-0.1-0.6-0.1c-0.3,0-0.5,0.1-0.7,0.2c-0.2,0.1-0.2,0.2-0.2,0.4c0,0.1,0,0.2,0.1,0.3c0.1,0.1,0.2,0.2,0.4,0.2
		c0.2,0.1,0.4,0.2,0.7,0.3c0.3,0.1,0.5,0.2,0.7,0.3c0.2,0.1,0.3,0.2,0.5,0.4C47.2,33,47.2,33.2,47.2,33.4z M49.7,34.2
		c0.1,0,0.2,0,0.3,0c0.1,0,0.2,0,0.3-0.1v0.5c-0.1,0-0.2,0.1-0.3,0.1c-0.1,0-0.3,0-0.4,0c-0.2,0-0.4,0-0.6-0.1
		c-0.2-0.1-0.3-0.2-0.5-0.4c-0.1-0.2-0.2-0.5-0.2-0.8v-2.5h-0.6v-0.3l0.6-0.2l0.3-0.9H49v1h1.2v0.5H49v2.5c0,0.3,0.1,0.5,0.2,0.6
		C49.3,34.1,49.5,34.2,49.7,34.2z M52.7,30.3c0.5,0,0.9,0.1,1.1,0.3c0.2,0.2,0.4,0.6,0.4,1.1v2.9h-0.5L53.7,34h0
		c-0.1,0.2-0.3,0.3-0.4,0.4c-0.1,0.1-0.3,0.2-0.5,0.2c-0.2,0.1-0.4,0.1-0.6,0.1c-0.3,0-0.5,0-0.7-0.1c-0.2-0.1-0.4-0.2-0.5-0.4
		c-0.1-0.2-0.2-0.4-0.2-0.7c0-0.4,0.2-0.8,0.5-1c0.3-0.2,0.9-0.4,1.5-0.4l0.7,0v-0.3c0-0.4-0.1-0.6-0.2-0.8
		c-0.2-0.1-0.4-0.2-0.7-0.2c-0.2,0-0.4,0-0.6,0.1c-0.2,0.1-0.4,0.1-0.6,0.2l-0.2-0.5c0.2-0.1,0.4-0.2,0.7-0.2
		C52.2,30.3,52.5,30.3,52.7,30.3z M53.6,32.5l-0.7,0c-0.5,0-0.9,0.1-1.1,0.3c-0.2,0.1-0.3,0.4-0.3,0.6c0,0.2,0.1,0.4,0.2,0.5
		c0.1,0.1,0.3,0.2,0.6,0.2c0.4,0,0.7-0.1,0.9-0.3c0.2-0.2,0.4-0.5,0.4-1V32.5z M57.5,30.3c0.1,0,0.2,0,0.3,0c0.1,0,0.2,0,0.2,0
		L58,30.9c-0.1,0-0.1,0-0.2,0c-0.1,0-0.2,0-0.2,0c-0.2,0-0.3,0-0.5,0.1c-0.1,0.1-0.3,0.2-0.4,0.3c-0.1,0.1-0.2,0.3-0.3,0.5
		c-0.1,0.2-0.1,0.4-0.1,0.6v2.3h-0.7v-4.3h0.5l0.1,0.8h0c0.1-0.2,0.2-0.3,0.3-0.4c0.1-0.1,0.3-0.2,0.4-0.3
		C57.1,30.3,57.3,30.3,57.5,30.3z M60.2,34.2c0.1,0,0.2,0,0.3,0c0.1,0,0.2,0,0.3-0.1v0.5c-0.1,0-0.2,0.1-0.3,0.1c-0.1,0-0.3,0-0.4,0
		c-0.2,0-0.4,0-0.6-0.1c-0.2-0.1-0.3-0.2-0.5-0.4c-0.1-0.2-0.2-0.5-0.2-0.8v-2.5h-0.6v-0.3l0.6-0.2l0.3-0.9h0.4v1h1.2v0.5h-1.2v2.5
		c0,0.3,0.1,0.5,0.2,0.6C59.9,34.1,60,34.2,60.2,34.2z"/>
	<path class="st3" d="M101.2,7.1h124.9v48.4H101.2V7.1z"/>
	<path class="st9" d="M101.2,7.1h124.9v48.4H101.2V7.1z"/>
	<path class="st5" d="M117.2,24.7c0,0.9-0.2,1.6-0.5,2.1s-0.8,1-1.4,1.3c-0.6,0.3-1.3,0.4-2.1,0.4h-2.1v-7.6h2.3
		c0.8,0,1.4,0.1,2,0.4c0.6,0.3,1,0.7,1.3,1.3C117.1,23.2,117.2,23.8,117.2,24.7z M116.3,24.7c0-0.7-0.1-1.2-0.3-1.7
		c-0.2-0.4-0.6-0.8-1-1s-1-0.3-1.6-0.3h-1.3v6.1h1.1c1.1,0,1.8-0.3,2.4-0.8C116,26.5,116.3,25.7,116.3,24.7z M121,22.7
		c0.5,0,0.9,0.1,1.2,0.3c0.4,0.2,0.6,0.5,0.8,0.9c0.2,0.4,0.3,0.8,0.3,1.4v0.5h-3.9c0,0.7,0.2,1.2,0.5,1.5c0.3,0.3,0.8,0.5,1.4,0.5
		c0.4,0,0.7,0,1-0.1c0.3-0.1,0.6-0.2,0.9-0.3v0.8c-0.3,0.1-0.6,0.2-0.9,0.3c-0.3,0.1-0.6,0.1-1,0.1c-0.5,0-1-0.1-1.4-0.3
		c-0.4-0.2-0.7-0.6-1-1c-0.2-0.4-0.3-1-0.3-1.6c0-0.6,0.1-1.1,0.3-1.6c0.2-0.4,0.5-0.8,0.9-1C120,22.8,120.5,22.7,121,22.7z
		 M121,23.4c-0.5,0-0.8,0.2-1.1,0.5c-0.3,0.3-0.4,0.7-0.5,1.3h3c0-0.3-0.1-0.6-0.2-0.9c-0.1-0.3-0.3-0.5-0.5-0.6
		C121.6,23.5,121.3,23.4,121,23.4z M128.5,27c0,0.4-0.1,0.7-0.3,0.9c-0.2,0.2-0.4,0.4-0.8,0.6c-0.3,0.1-0.7,0.2-1.2,0.2
		c-0.4,0-0.8,0-1-0.1c-0.3-0.1-0.5-0.2-0.8-0.3v-0.8c0.2,0.1,0.5,0.2,0.8,0.3c0.3,0.1,0.7,0.1,1,0.1c0.5,0,0.8-0.1,1.1-0.2
		c0.2-0.2,0.3-0.4,0.3-0.7c0-0.2,0-0.3-0.1-0.4c-0.1-0.1-0.2-0.2-0.4-0.4c-0.2-0.1-0.5-0.2-0.9-0.4c-0.4-0.1-0.7-0.3-1-0.4
		c-0.3-0.1-0.5-0.3-0.6-0.5c-0.1-0.2-0.2-0.5-0.2-0.8c0-0.5,0.2-0.8,0.6-1.1c0.4-0.3,0.9-0.4,1.5-0.4c0.3,0,0.7,0,1,0.1
		c0.3,0.1,0.6,0.2,0.8,0.3l-0.3,0.7c-0.2-0.1-0.5-0.2-0.8-0.2c-0.3-0.1-0.5-0.1-0.8-0.1c-0.4,0-0.7,0.1-0.9,0.2
		c-0.2,0.1-0.3,0.3-0.3,0.5c0,0.2,0,0.3,0.1,0.4c0.1,0.1,0.3,0.2,0.5,0.3c0.2,0.1,0.5,0.2,0.9,0.3c0.4,0.1,0.7,0.3,0.9,0.4
		c0.3,0.1,0.5,0.3,0.6,0.5C128.4,26.4,128.5,26.7,128.5,27z M130.7,22.8v5.7h-0.9v-5.7H130.7z M130.3,20.7c0.1,0,0.3,0,0.4,0.1
		c0.1,0.1,0.2,0.2,0.2,0.4c0,0.2-0.1,0.3-0.2,0.4c-0.1,0.1-0.2,0.1-0.4,0.1c-0.2,0-0.3,0-0.4-0.1c-0.1-0.1-0.1-0.2-0.1-0.4
		c0-0.2,0-0.3,0.1-0.4C130,20.7,130.2,20.7,130.3,20.7z M134.1,31.1c-0.8,0-1.3-0.1-1.7-0.4c-0.4-0.3-0.6-0.7-0.6-1.2
		c0-0.4,0.1-0.7,0.3-0.9c0.2-0.2,0.5-0.4,1-0.5c-0.2-0.1-0.3-0.2-0.4-0.3c-0.1-0.1-0.2-0.3-0.2-0.5c0-0.2,0.1-0.4,0.2-0.5
		c0.1-0.2,0.3-0.3,0.5-0.5c-0.3-0.1-0.5-0.3-0.7-0.6c-0.2-0.3-0.3-0.6-0.3-1c0-0.4,0.1-0.8,0.2-1c0.2-0.3,0.4-0.5,0.8-0.7
		c0.3-0.2,0.7-0.2,1.2-0.2c0.1,0,0.2,0,0.3,0c0.1,0,0.2,0,0.3,0c0.1,0,0.2,0,0.2,0h2v0.6l-1.1,0.1c0.1,0.1,0.2,0.3,0.3,0.5
		c0.1,0.2,0.1,0.4,0.1,0.6c0,0.6-0.2,1-0.6,1.4c-0.4,0.3-0.9,0.5-1.6,0.5c-0.2,0-0.3,0-0.5,0c-0.2,0.1-0.3,0.2-0.4,0.3
		c-0.1,0.1-0.1,0.2-0.1,0.4c0,0.1,0,0.2,0.1,0.3c0.1,0.1,0.2,0.1,0.3,0.1c0.1,0,0.3,0,0.5,0h1c0.6,0,1.1,0.1,1.4,0.4
		c0.3,0.3,0.5,0.6,0.5,1.1c0,0.6-0.3,1.1-0.8,1.4C135.8,30.9,135.1,31.1,134.1,31.1z M134.2,30.4c0.5,0,0.9-0.1,1.2-0.2
		c0.3-0.1,0.5-0.2,0.7-0.4c0.2-0.2,0.2-0.4,0.2-0.6c0-0.2-0.1-0.4-0.2-0.5c-0.1-0.1-0.3-0.2-0.5-0.2c-0.2,0-0.4-0.1-0.7-0.1h-1
		c-0.3,0-0.5,0-0.7,0.1c-0.2,0.1-0.3,0.2-0.4,0.4c-0.1,0.2-0.1,0.3-0.1,0.6c0,0.3,0.1,0.5,0.4,0.7C133.3,30.3,133.7,30.4,134.2,30.4
		z M134.4,25.9c0.4,0,0.7-0.1,0.9-0.3c0.2-0.2,0.3-0.5,0.3-0.9c0-0.4-0.1-0.7-0.3-1c-0.2-0.2-0.5-0.3-0.9-0.3
		c-0.4,0-0.7,0.1-0.9,0.3c-0.2,0.2-0.3,0.5-0.3,1c0,0.4,0.1,0.7,0.3,0.9C133.7,25.8,134,25.9,134.4,25.9z M141,22.7
		c0.7,0,1.2,0.2,1.5,0.5c0.4,0.3,0.5,0.9,0.5,1.6v3.7h-0.9v-3.7c0-0.5-0.1-0.8-0.3-1.1c-0.2-0.2-0.6-0.4-1-0.4
		c-0.6,0-1.1,0.2-1.3,0.5c-0.2,0.4-0.4,0.9-0.4,1.5v3h-0.9v-5.7h0.7l0.1,0.8h0c0.1-0.2,0.3-0.4,0.5-0.5c0.2-0.1,0.4-0.2,0.6-0.3
		C140.5,22.8,140.8,22.7,141,22.7z"/>
	<path class="st5" d="M114.5,34.6c-0.4,0-0.8,0.1-1.1,0.2c-0.3,0.1-0.6,0.4-0.9,0.6c-0.2,0.3-0.4,0.6-0.5,1s-0.2,0.8-0.2,1.3
		c0,0.6,0.1,1.2,0.3,1.7c0.2,0.5,0.5,0.8,0.9,1.1c0.4,0.2,0.9,0.4,1.5,0.4c0.3,0,0.7,0,1-0.1c0.3-0.1,0.6-0.1,0.9-0.2v0.8
		c-0.3,0.1-0.6,0.2-0.9,0.2c-0.3,0.1-0.7,0.1-1.1,0.1c-0.8,0-1.4-0.2-1.9-0.5c-0.5-0.3-0.9-0.8-1.2-1.4c-0.2-0.6-0.4-1.3-0.4-2.1
		c0-0.6,0.1-1.1,0.2-1.6c0.2-0.5,0.4-0.9,0.7-1.2c0.3-0.4,0.7-0.6,1.1-0.8c0.5-0.2,1-0.3,1.6-0.3c0.4,0,0.8,0,1.1,0.1
		c0.4,0.1,0.7,0.2,1,0.3l-0.4,0.8c-0.2-0.1-0.5-0.2-0.8-0.3C115.1,34.6,114.8,34.6,114.5,34.6z M122.7,38.7c0,0.5-0.1,0.9-0.2,1.2
		c-0.1,0.4-0.3,0.7-0.5,0.9c-0.2,0.2-0.5,0.4-0.8,0.6c-0.3,0.1-0.7,0.2-1.1,0.2c-0.4,0-0.7-0.1-1-0.2c-0.3-0.1-0.6-0.3-0.8-0.6
		c-0.2-0.3-0.4-0.6-0.5-0.9s-0.2-0.8-0.2-1.2c0-0.6,0.1-1.2,0.3-1.6c0.2-0.4,0.5-0.8,0.9-1c0.4-0.2,0.9-0.4,1.4-0.4
		c0.5,0,1,0.1,1.4,0.4c0.4,0.2,0.7,0.6,0.9,1S122.7,38,122.7,38.7z M118.3,38.7c0,0.5,0.1,0.9,0.2,1.2s0.3,0.6,0.6,0.8
		s0.6,0.3,1,0.3s0.7-0.1,1-0.3c0.3-0.2,0.5-0.4,0.6-0.8s0.2-0.7,0.2-1.2s-0.1-0.8-0.2-1.2c-0.1-0.3-0.3-0.6-0.6-0.8
		c-0.2-0.2-0.6-0.3-1-0.3c-0.6,0-1,0.2-1.3,0.6C118.5,37.4,118.3,38,118.3,38.7z M126.9,35.7c0.7,0,1.2,0.2,1.5,0.5
		c0.4,0.3,0.5,0.9,0.5,1.6v3.7h-0.9v-3.7c0-0.5-0.1-0.8-0.3-1.1c-0.2-0.2-0.6-0.4-1-0.4c-0.6,0-1.1,0.2-1.3,0.5
		c-0.2,0.4-0.4,0.9-0.4,1.5v3h-0.9v-5.7h0.7l0.1,0.8h0c0.1-0.2,0.3-0.4,0.5-0.5s0.4-0.2,0.6-0.3S126.6,35.7,126.9,35.7z M133.3,36.5
		h-1.4v5H131v-5h-1v-0.4l1-0.3v-0.4c0-0.5,0.1-0.9,0.2-1.2c0.1-0.3,0.4-0.5,0.6-0.7c0.3-0.1,0.6-0.2,1-0.2c0.2,0,0.4,0,0.6,0.1
		c0.2,0,0.3,0.1,0.5,0.1l-0.2,0.7c-0.1,0-0.2-0.1-0.4-0.1c-0.1,0-0.3,0-0.4,0c-0.3,0-0.6,0.1-0.7,0.3c-0.2,0.2-0.2,0.5-0.2,1v0.4
		h1.4V36.5z M135.2,35.8v5.7h-0.9v-5.7H135.2z M134.7,33.7c0.1,0,0.3,0,0.4,0.1s0.2,0.2,0.2,0.4c0,0.2-0.1,0.3-0.2,0.4
		s-0.2,0.1-0.4,0.1c-0.2,0-0.3,0-0.4-0.1c-0.1-0.1-0.1-0.2-0.1-0.4c0-0.2,0-0.3,0.1-0.4C134.5,33.7,134.6,33.7,134.7,33.7z
		 M138.6,44.1c-0.8,0-1.3-0.1-1.7-0.4s-0.6-0.7-0.6-1.2c0-0.4,0.1-0.7,0.3-0.9c0.2-0.2,0.5-0.4,1-0.5c-0.2-0.1-0.3-0.2-0.4-0.3
		c-0.1-0.1-0.2-0.3-0.2-0.5c0-0.2,0.1-0.4,0.2-0.5c0.1-0.2,0.3-0.3,0.5-0.5c-0.3-0.1-0.5-0.3-0.7-0.6c-0.2-0.3-0.3-0.6-0.3-1
		c0-0.4,0.1-0.8,0.2-1c0.2-0.3,0.4-0.5,0.8-0.7c0.3-0.2,0.7-0.2,1.2-0.2c0.1,0,0.2,0,0.3,0c0.1,0,0.2,0,0.3,0c0.1,0,0.2,0,0.2,0h2
		v0.6l-1.1,0.1c0.1,0.1,0.2,0.3,0.3,0.5c0.1,0.2,0.1,0.4,0.1,0.6c0,0.6-0.2,1-0.6,1.4c-0.4,0.3-0.9,0.5-1.6,0.5c-0.2,0-0.3,0-0.5,0
		c-0.2,0.1-0.3,0.2-0.4,0.3c-0.1,0.1-0.1,0.2-0.1,0.4c0,0.1,0,0.2,0.1,0.3c0.1,0.1,0.2,0.1,0.3,0.1s0.3,0,0.5,0h1
		c0.6,0,1.1,0.1,1.4,0.4c0.3,0.3,0.5,0.6,0.5,1.1c0,0.6-0.3,1.1-0.8,1.4C140.3,43.9,139.6,44.1,138.6,44.1z M138.6,43.4
		c0.5,0,0.9-0.1,1.2-0.2c0.3-0.1,0.5-0.2,0.7-0.4c0.2-0.2,0.2-0.4,0.2-0.6c0-0.2-0.1-0.4-0.2-0.5c-0.1-0.1-0.3-0.2-0.5-0.2
		c-0.2,0-0.4-0.1-0.7-0.1h-1c-0.3,0-0.5,0-0.7,0.1c-0.2,0.1-0.3,0.2-0.4,0.4c-0.1,0.2-0.1,0.3-0.1,0.6c0,0.3,0.1,0.5,0.4,0.7
		C137.8,43.3,138.1,43.4,138.6,43.4z M138.8,38.9c0.4,0,0.7-0.1,0.9-0.3c0.2-0.2,0.3-0.5,0.3-0.9c0-0.4-0.1-0.7-0.3-1
		c-0.2-0.2-0.5-0.3-0.9-0.3c-0.4,0-0.7,0.1-0.9,0.3c-0.2,0.2-0.3,0.5-0.3,1c0,0.4,0.1,0.7,0.3,0.9C138.1,38.8,138.4,38.9,138.8,38.9
		z M147.5,35.8v5.7h-0.7l-0.1-0.8h0c-0.1,0.2-0.3,0.4-0.5,0.5s-0.4,0.2-0.6,0.3c-0.2,0.1-0.5,0.1-0.7,0.1c-0.4,0-0.8-0.1-1.1-0.2
		c-0.3-0.1-0.5-0.4-0.7-0.7c-0.2-0.3-0.2-0.7-0.2-1.2v-3.7h0.9v3.7c0,0.5,0.1,0.8,0.3,1.1c0.2,0.2,0.5,0.3,1,0.3
		c0.4,0,0.8-0.1,1-0.2c0.3-0.2,0.4-0.4,0.5-0.7c0.1-0.3,0.2-0.7,0.2-1.1v-3H147.5z M151.9,35.7c0.1,0,0.2,0,0.4,0c0.1,0,0.2,0,0.3,0
		l-0.1,0.8c-0.1,0-0.2,0-0.3,0c-0.1,0-0.2,0-0.3,0c-0.2,0-0.4,0-0.7,0.1c-0.2,0.1-0.4,0.2-0.5,0.4c-0.1,0.2-0.3,0.4-0.4,0.6
		c-0.1,0.2-0.1,0.5-0.1,0.8v3.1h-0.9v-5.7h0.7l0.1,1h0c0.1-0.2,0.3-0.4,0.4-0.6c0.2-0.2,0.4-0.3,0.6-0.4S151.6,35.7,151.9,35.7z
		 M155.8,35.7c0.7,0,1.2,0.2,1.5,0.5c0.3,0.3,0.5,0.8,0.5,1.5v3.9h-0.6l-0.2-0.8h0c-0.2,0.2-0.3,0.4-0.5,0.5
		c-0.2,0.1-0.4,0.2-0.6,0.3s-0.5,0.1-0.8,0.1c-0.3,0-0.7-0.1-0.9-0.2s-0.5-0.3-0.6-0.5c-0.2-0.2-0.2-0.6-0.2-0.9
		c0-0.6,0.2-1,0.7-1.3c0.5-0.3,1.1-0.5,2.1-0.5l1,0v-0.3c0-0.5-0.1-0.8-0.3-1s-0.5-0.3-0.9-0.3c-0.3,0-0.6,0-0.9,0.1
		s-0.5,0.2-0.8,0.3l-0.3-0.7c0.3-0.1,0.6-0.2,0.9-0.3S155.4,35.7,155.8,35.7z M157,38.7l-0.9,0c-0.7,0-1.2,0.1-1.5,0.3
		c-0.3,0.2-0.4,0.5-0.4,0.9c0,0.3,0.1,0.6,0.3,0.7s0.5,0.2,0.8,0.2c0.5,0,0.9-0.1,1.2-0.4s0.5-0.7,0.5-1.3V38.7z M161.4,40.9
		c0.1,0,0.3,0,0.4,0c0.1,0,0.3-0.1,0.4-0.1v0.7c-0.1,0.1-0.2,0.1-0.4,0.1c-0.2,0-0.3,0-0.5,0c-0.3,0-0.6-0.1-0.8-0.2
		c-0.2-0.1-0.4-0.3-0.6-0.5c-0.1-0.2-0.2-0.6-0.2-1v-3.4h-0.8v-0.4l0.8-0.3l0.3-1.2h0.5v1.3h1.7v0.7h-1.7v3.4c0,0.4,0.1,0.6,0.2,0.8
		C160.9,40.8,161.2,40.9,161.4,40.9z M168.3,38.7c0,0.5-0.1,0.9-0.2,1.2c-0.1,0.4-0.3,0.7-0.5,0.9c-0.2,0.2-0.5,0.4-0.8,0.6
		c-0.3,0.1-0.7,0.2-1.1,0.2c-0.4,0-0.7-0.1-1-0.2c-0.3-0.1-0.6-0.3-0.8-0.6c-0.2-0.3-0.4-0.6-0.5-0.9c-0.1-0.4-0.2-0.8-0.2-1.2
		c0-0.6,0.1-1.2,0.3-1.6c0.2-0.4,0.5-0.8,0.9-1c0.4-0.2,0.9-0.4,1.4-0.4c0.5,0,1,0.1,1.4,0.4c0.4,0.2,0.7,0.6,0.9,1
		C168.2,37.5,168.3,38,168.3,38.7z M164,38.7c0,0.5,0.1,0.9,0.2,1.2c0.1,0.3,0.3,0.6,0.6,0.8c0.3,0.2,0.6,0.3,1,0.3
		c0.4,0,0.7-0.1,1-0.3c0.3-0.2,0.5-0.4,0.6-0.8c0.1-0.3,0.2-0.7,0.2-1.2c0-0.5-0.1-0.8-0.2-1.2c-0.1-0.3-0.3-0.6-0.6-0.8
		c-0.2-0.2-0.6-0.3-1-0.3c-0.6,0-1,0.2-1.3,0.6C164.1,37.4,164,38,164,38.7z M172.4,35.7c0.1,0,0.2,0,0.4,0c0.1,0,0.2,0,0.3,0
		l-0.1,0.8c-0.1,0-0.2,0-0.3,0c-0.1,0-0.2,0-0.3,0c-0.2,0-0.4,0-0.7,0.1c-0.2,0.1-0.4,0.2-0.5,0.4c-0.1,0.2-0.3,0.4-0.4,0.6
		c-0.1,0.2-0.1,0.5-0.1,0.8v3.1h-0.9v-5.7h0.7l0.1,1h0c0.1-0.2,0.3-0.4,0.4-0.6c0.2-0.2,0.4-0.3,0.6-0.4
		C171.9,35.8,172.1,35.7,172.4,35.7z"/>
	<path class="st3" d="M252.5,6.7h122.9v48.4H252.5V6.7z"/>
	<path class="st10" d="M252.5,6.7h122.9v48.4H252.5V6.7z"/>
	<path class="st5" d="M266.8,29.2h-4.2v-7.6h4.2v0.8h-3.4v2.5h3.2v0.8h-3.2v2.8h3.4V29.2z M269.7,26.3l-2-2.8h1l1.5,2.2l1.5-2.2h1
		l-2,2.8l2.1,2.9h-1l-1.6-2.3l-1.6,2.3h-1L269.7,26.3z M275.7,28.6c0.1,0,0.3,0,0.4,0c0.1,0,0.3-0.1,0.4-0.1v0.7
		c-0.1,0.1-0.2,0.1-0.4,0.1c-0.2,0-0.3,0-0.5,0c-0.3,0-0.6-0.1-0.8-0.2c-0.2-0.1-0.4-0.3-0.6-0.5c-0.1-0.2-0.2-0.6-0.2-1v-3.4h-0.8
		v-0.4l0.8-0.3l0.3-1.2h0.5v1.3h1.7v0.7h-1.7v3.4c0,0.4,0.1,0.6,0.2,0.8C275.3,28.5,275.5,28.6,275.7,28.6z M279.9,23.4
		c0.5,0,0.9,0.1,1.2,0.3c0.4,0.2,0.6,0.5,0.8,0.9c0.2,0.4,0.3,0.8,0.3,1.4v0.5h-3.9c0,0.7,0.2,1.2,0.5,1.5c0.3,0.3,0.8,0.5,1.4,0.5
		c0.4,0,0.7,0,1-0.1c0.3-0.1,0.6-0.2,0.9-0.3v0.8c-0.3,0.1-0.6,0.2-0.9,0.3s-0.6,0.1-1,0.1c-0.5,0-1-0.1-1.4-0.3
		c-0.4-0.2-0.7-0.6-1-1c-0.2-0.4-0.3-1-0.3-1.6c0-0.6,0.1-1.1,0.3-1.6c0.2-0.4,0.5-0.8,0.9-1C278.9,23.5,279.4,23.4,279.9,23.4z
		 M279.9,24.1c-0.5,0-0.8,0.2-1.1,0.5c-0.3,0.3-0.4,0.7-0.5,1.3h3c0-0.3-0.1-0.6-0.2-0.9c-0.1-0.3-0.3-0.5-0.5-0.6
		C280.5,24.2,280.2,24.1,279.9,24.1z M286.4,23.4c0.7,0,1.2,0.2,1.5,0.5c0.4,0.3,0.5,0.9,0.5,1.6v3.7h-0.9v-3.7
		c0-0.5-0.1-0.8-0.3-1.1c-0.2-0.2-0.6-0.4-1-0.4c-0.6,0-1.1,0.2-1.3,0.5c-0.2,0.4-0.4,0.9-0.4,1.5v3h-0.9v-5.7h0.7l0.1,0.8h0
		c0.1-0.2,0.3-0.4,0.5-0.5c0.2-0.1,0.4-0.2,0.6-0.3C285.9,23.4,286.1,23.4,286.4,23.4z M293.9,27.6c0,0.4-0.1,0.7-0.3,0.9
		c-0.2,0.2-0.4,0.4-0.8,0.6c-0.3,0.1-0.7,0.2-1.2,0.2c-0.4,0-0.8,0-1-0.1c-0.3-0.1-0.5-0.2-0.8-0.3v-0.8c0.2,0.1,0.5,0.2,0.8,0.3
		c0.3,0.1,0.7,0.1,1,0.1c0.5,0,0.8-0.1,1.1-0.2c0.2-0.2,0.3-0.4,0.3-0.7c0-0.2,0-0.3-0.1-0.4c-0.1-0.1-0.2-0.2-0.4-0.4
		c-0.2-0.1-0.5-0.2-0.9-0.4c-0.4-0.1-0.7-0.3-1-0.4c-0.3-0.1-0.5-0.3-0.6-0.5c-0.1-0.2-0.2-0.5-0.2-0.8c0-0.5,0.2-0.8,0.6-1.1
		c0.4-0.3,0.9-0.4,1.5-0.4c0.3,0,0.7,0,1,0.1c0.3,0.1,0.6,0.2,0.8,0.3l-0.3,0.7c-0.2-0.1-0.5-0.2-0.8-0.2c-0.3-0.1-0.5-0.1-0.8-0.1
		c-0.4,0-0.7,0.1-0.9,0.2c-0.2,0.1-0.3,0.3-0.3,0.5c0,0.2,0,0.3,0.1,0.4c0.1,0.1,0.3,0.2,0.5,0.3c0.2,0.1,0.5,0.2,0.9,0.3
		c0.4,0.1,0.7,0.3,0.9,0.4c0.3,0.1,0.5,0.3,0.6,0.5C293.8,27.1,293.9,27.3,293.9,27.6z M296.2,23.5v5.7h-0.9v-5.7H296.2z
		 M295.7,21.4c0.1,0,0.3,0,0.4,0.1c0.1,0.1,0.2,0.2,0.2,0.4c0,0.2-0.1,0.3-0.2,0.4c-0.1,0.1-0.2,0.1-0.4,0.1c-0.2,0-0.3,0-0.4-0.1
		c-0.1-0.1-0.1-0.2-0.1-0.4c0-0.2,0-0.3,0.1-0.4C295.5,21.4,295.6,21.4,295.7,21.4z M302.9,26.3c0,0.5-0.1,0.9-0.2,1.2
		c-0.1,0.4-0.3,0.7-0.5,0.9c-0.2,0.2-0.5,0.4-0.8,0.6c-0.3,0.1-0.7,0.2-1.1,0.2c-0.4,0-0.7-0.1-1-0.2c-0.3-0.1-0.6-0.3-0.8-0.6
		c-0.2-0.3-0.4-0.6-0.5-0.9c-0.1-0.4-0.2-0.8-0.2-1.2c0-0.6,0.1-1.2,0.3-1.6c0.2-0.4,0.5-0.8,0.9-1c0.4-0.2,0.9-0.4,1.4-0.4
		c0.5,0,1,0.1,1.4,0.4c0.4,0.2,0.7,0.6,0.9,1S302.9,25.7,302.9,26.3z M298.6,26.3c0,0.5,0.1,0.9,0.2,1.2c0.1,0.3,0.3,0.6,0.6,0.8
		s0.6,0.3,1,0.3s0.7-0.1,1-0.3c0.3-0.2,0.5-0.4,0.6-0.8c0.1-0.3,0.2-0.7,0.2-1.2c0-0.5-0.1-0.8-0.2-1.2c-0.1-0.3-0.3-0.6-0.6-0.8
		c-0.2-0.2-0.6-0.3-1-0.3c-0.6,0-1,0.2-1.3,0.6C298.7,25.1,298.6,25.6,298.6,26.3z M307.1,23.4c0.7,0,1.2,0.2,1.5,0.5
		c0.4,0.3,0.5,0.9,0.5,1.6v3.7h-0.9v-3.7c0-0.5-0.1-0.8-0.3-1.1c-0.2-0.2-0.6-0.4-1-0.4c-0.6,0-1.1,0.2-1.3,0.5
		c-0.2,0.4-0.4,0.9-0.4,1.5v3h-0.9v-5.7h0.7l0.1,0.8h0c0.1-0.2,0.3-0.4,0.5-0.5c0.2-0.1,0.4-0.2,0.6-0.3
		C306.6,23.4,306.8,23.4,307.1,23.4z"/>
	<path class="st5" d="M261.9,38.4c0-0.5,0-1,0.1-1.5c0.1-0.5,0.3-1,0.5-1.4c0.2-0.4,0.5-0.9,0.8-1.2h0.7c-0.4,0.6-0.8,1.2-1,1.9
		c-0.2,0.7-0.3,1.4-0.3,2.2c0,0.5,0,1,0.1,1.4c0.1,0.5,0.3,0.9,0.5,1.4c0.2,0.4,0.4,0.8,0.7,1.2h-0.7c-0.3-0.4-0.6-0.8-0.8-1.2
		c-0.2-0.4-0.3-0.9-0.5-1.4C261.9,39.4,261.9,38.9,261.9,38.4z M267,35.8c0.4,0,0.8,0.1,1.1,0.3s0.5,0.5,0.7,0.8
		c0.2,0.3,0.2,0.7,0.2,1.2v0.5h-3.5c0,0.6,0.2,1,0.4,1.3s0.7,0.5,1.2,0.5c0.3,0,0.6,0,0.8-0.1c0.2-0.1,0.5-0.1,0.8-0.2v0.7
		c-0.2,0.1-0.5,0.2-0.8,0.2s-0.5,0.1-0.9,0.1c-0.5,0-0.9-0.1-1.3-0.3c-0.4-0.2-0.6-0.5-0.8-0.9c-0.2-0.4-0.3-0.8-0.3-1.4
		s0.1-1,0.3-1.4c0.2-0.4,0.4-0.7,0.8-0.9C266.1,36,266.5,35.8,267,35.8z M266.9,36.5c-0.4,0-0.7,0.1-1,0.4c-0.2,0.3-0.4,0.6-0.4,1.1
		h2.6c0-0.3,0-0.6-0.1-0.8c-0.1-0.2-0.2-0.4-0.4-0.5C267.5,36.5,267.2,36.5,266.9,36.5z M270.2,40.5c0-0.2,0.1-0.4,0.2-0.5
		c0.1-0.1,0.2-0.1,0.4-0.1c0.2,0,0.3,0,0.4,0.1c0.1,0.1,0.2,0.2,0.2,0.5c0,0.2-0.1,0.4-0.2,0.5c-0.1,0.1-0.2,0.1-0.4,0.1
		c-0.1,0-0.3,0-0.4-0.1C270.2,40.8,270.2,40.7,270.2,40.5z M274.1,43.2c-0.7,0-1.2-0.1-1.5-0.4c-0.4-0.2-0.5-0.6-0.5-1
		c0-0.3,0.1-0.6,0.3-0.8c0.2-0.2,0.5-0.4,0.8-0.4c-0.1-0.1-0.2-0.2-0.3-0.3s-0.1-0.3-0.1-0.4c0-0.2,0-0.3,0.1-0.5
		c0.1-0.1,0.3-0.3,0.5-0.4c-0.3-0.1-0.5-0.3-0.6-0.5c-0.2-0.3-0.2-0.6-0.2-0.9c0-0.4,0.1-0.7,0.2-0.9c0.2-0.2,0.4-0.4,0.7-0.6
		s0.6-0.2,1-0.2c0.1,0,0.2,0,0.3,0c0.1,0,0.2,0,0.3,0c0.1,0,0.2,0,0.2,0h1.7v0.5l-0.9,0.1c0.1,0.1,0.2,0.3,0.2,0.4s0.1,0.3,0.1,0.5
		c0,0.5-0.2,0.9-0.5,1.2c-0.3,0.3-0.8,0.4-1.4,0.4c-0.1,0-0.3,0-0.4,0c-0.1,0.1-0.3,0.2-0.3,0.3c-0.1,0.1-0.1,0.2-0.1,0.3
		c0,0.1,0,0.2,0.1,0.2c0.1,0.1,0.2,0.1,0.3,0.1c0.1,0,0.2,0,0.4,0h0.9c0.5,0,1,0.1,1.2,0.3c0.3,0.2,0.4,0.6,0.4,1
		c0,0.6-0.2,1-0.7,1.3C275.6,43,275,43.2,274.1,43.2z M274.2,42.6c0.4,0,0.7,0,1-0.1c0.3-0.1,0.5-0.2,0.6-0.4
		c0.1-0.2,0.2-0.3,0.2-0.5c0-0.2,0-0.3-0.1-0.5c-0.1-0.1-0.2-0.2-0.4-0.2c-0.2,0-0.4-0.1-0.6-0.1h-0.9c-0.2,0-0.4,0-0.6,0.1
		c-0.2,0.1-0.3,0.2-0.4,0.3s-0.1,0.3-0.1,0.5c0,0.3,0.1,0.5,0.3,0.6C273.4,42.5,273.7,42.6,274.2,42.6z M274.3,38.6
		c0.4,0,0.6-0.1,0.8-0.3c0.2-0.2,0.3-0.5,0.3-0.8c0-0.4-0.1-0.7-0.3-0.8s-0.5-0.3-0.8-0.3c-0.4,0-0.6,0.1-0.8,0.3
		c-0.2,0.2-0.3,0.5-0.3,0.8c0,0.3,0.1,0.6,0.3,0.8C273.7,38.5,274,38.6,274.3,38.6z M277.7,40.5c0-0.2,0.1-0.4,0.2-0.5
		c0.1-0.1,0.2-0.1,0.4-0.1c0.2,0,0.3,0,0.4,0.1c0.1,0.1,0.2,0.2,0.2,0.5c0,0.2-0.1,0.4-0.2,0.5s-0.2,0.1-0.4,0.1
		c-0.1,0-0.3,0-0.4-0.1S277.7,40.7,277.7,40.5z M285.7,40.9l-2.2-5.9h0c0,0.1,0,0.3,0,0.5c0,0.2,0,0.4,0,0.6c0,0.2,0,0.4,0,0.6v4.2
		h-0.7v-6.7h1.2l2.1,5.5h0l2.1-5.5h1.1v6.7h-0.8v-4.3c0-0.2,0-0.4,0-0.6c0-0.2,0-0.4,0-0.6c0-0.2,0-0.3,0-0.5h0l-2.3,5.9H285.7z
		 M293,35.8c0.4,0,0.8,0.1,1.1,0.3s0.5,0.5,0.7,0.8c0.2,0.3,0.2,0.7,0.2,1.2v0.5h-3.5c0,0.6,0.2,1,0.4,1.3s0.7,0.5,1.2,0.5
		c0.3,0,0.6,0,0.8-0.1c0.2-0.1,0.5-0.1,0.8-0.2v0.7c-0.2,0.1-0.5,0.2-0.8,0.2s-0.5,0.1-0.9,0.1c-0.5,0-0.9-0.1-1.3-0.3
		c-0.4-0.2-0.6-0.5-0.8-0.9c-0.2-0.4-0.3-0.8-0.3-1.4s0.1-1,0.3-1.4c0.2-0.4,0.4-0.7,0.8-0.9C292.1,36,292.5,35.8,293,35.8z
		 M293,36.5c-0.4,0-0.7,0.1-1,0.4c-0.2,0.3-0.4,0.6-0.4,1.1h2.6c0-0.3,0-0.6-0.1-0.8c-0.1-0.2-0.2-0.4-0.4-0.5
		C293.5,36.5,293.3,36.5,293,36.5z M299.5,39.6c0,0.3-0.1,0.6-0.2,0.8c-0.2,0.2-0.4,0.4-0.7,0.5c-0.3,0.1-0.6,0.2-1,0.2
		c-0.4,0-0.7,0-0.9-0.1c-0.2-0.1-0.5-0.1-0.7-0.2V40c0.2,0.1,0.5,0.2,0.7,0.3c0.3,0.1,0.6,0.1,0.9,0.1c0.4,0,0.7-0.1,0.9-0.2
		c0.2-0.1,0.3-0.3,0.3-0.6c0-0.1,0-0.3-0.1-0.4c-0.1-0.1-0.2-0.2-0.4-0.3c-0.2-0.1-0.4-0.2-0.8-0.3c-0.3-0.1-0.6-0.2-0.8-0.4
		c-0.2-0.1-0.4-0.3-0.5-0.4c-0.1-0.2-0.2-0.4-0.2-0.7c0-0.4,0.2-0.8,0.5-1c0.3-0.2,0.8-0.3,1.4-0.3c0.3,0,0.6,0,0.8,0.1
		c0.3,0.1,0.5,0.1,0.8,0.2l-0.3,0.6c-0.2-0.1-0.4-0.2-0.7-0.2c-0.2-0.1-0.5-0.1-0.7-0.1c-0.3,0-0.6,0.1-0.8,0.2s-0.3,0.3-0.3,0.5
		c0,0.2,0,0.3,0.1,0.4c0.1,0.1,0.2,0.2,0.4,0.3c0.2,0.1,0.4,0.2,0.8,0.3s0.6,0.2,0.8,0.4c0.2,0.1,0.4,0.3,0.5,0.5
		C299.5,39.1,299.5,39.3,299.5,39.6z M301.5,33.8V36c0,0.1,0,0.2,0,0.4c0,0.1,0,0.2,0,0.3h0c0.1-0.2,0.2-0.3,0.4-0.4
		c0.2-0.1,0.3-0.2,0.5-0.3c0.2-0.1,0.4-0.1,0.6-0.1c0.4,0,0.7,0.1,1,0.2c0.3,0.1,0.5,0.3,0.6,0.6c0.1,0.3,0.2,0.6,0.2,1v3.2h-0.7
		v-3.2c0-0.4-0.1-0.7-0.3-0.9c-0.2-0.2-0.5-0.3-0.9-0.3c-0.4,0-0.7,0.1-0.9,0.2s-0.4,0.4-0.5,0.6c-0.1,0.3-0.1,0.6-0.1,1v2.6h-0.8
		v-7.1H301.5z M309.5,40.9l-2.2-5.9h0c0,0.1,0,0.3,0,0.5s0,0.4,0,0.6c0,0.2,0,0.4,0,0.6v4.2h-0.7v-6.7h1.2l2.1,5.5h0l2.1-5.5h1.1
		v6.7h-0.8v-4.3c0-0.2,0-0.4,0-0.6c0-0.2,0-0.4,0-0.6s0-0.3,0-0.5h0l-2.3,5.9H309.5z M316.7,35.8c0.6,0,1,0.1,1.3,0.4
		c0.3,0.3,0.4,0.7,0.4,1.3v3.4h-0.5l-0.2-0.7h0c-0.1,0.2-0.3,0.3-0.4,0.5c-0.1,0.1-0.3,0.2-0.5,0.3c-0.2,0.1-0.4,0.1-0.7,0.1
		c-0.3,0-0.6-0.1-0.8-0.2c-0.2-0.1-0.4-0.3-0.6-0.5c-0.1-0.2-0.2-0.5-0.2-0.8c0-0.5,0.2-0.9,0.6-1.1c0.4-0.3,1-0.4,1.8-0.4l0.9,0
		v-0.3c0-0.4-0.1-0.7-0.3-0.9s-0.4-0.3-0.8-0.3c-0.3,0-0.5,0-0.8,0.1c-0.2,0.1-0.5,0.2-0.7,0.3l-0.2-0.6c0.2-0.1,0.5-0.2,0.8-0.3
		C316.1,35.9,316.4,35.8,316.7,35.8z M317.7,38.5l-0.8,0c-0.6,0-1.1,0.1-1.3,0.3c-0.2,0.2-0.4,0.4-0.4,0.8c0,0.3,0.1,0.5,0.2,0.6
		c0.2,0.1,0.4,0.2,0.7,0.2c0.4,0,0.8-0.1,1.1-0.4c0.3-0.2,0.4-0.6,0.4-1.1V38.5z M322.4,35.8c0.6,0,1.1,0.2,1.5,0.6
		c0.4,0.4,0.6,1.1,0.6,1.9c0,0.6-0.1,1.1-0.3,1.4c-0.2,0.4-0.4,0.7-0.7,0.9c-0.3,0.2-0.7,0.3-1.1,0.3c-0.3,0-0.5,0-0.7-0.1
		c-0.2-0.1-0.4-0.2-0.5-0.3c-0.1-0.1-0.2-0.2-0.3-0.4h-0.1c0,0.1,0,0.3,0,0.4c0,0.2,0,0.3,0,0.4v2H320v-7.2h0.6l0.1,0.7h0
		c0.1-0.2,0.2-0.3,0.3-0.4c0.1-0.1,0.3-0.2,0.5-0.3C321.9,35.9,322.1,35.8,322.4,35.8z M322.3,36.5c-0.4,0-0.6,0.1-0.8,0.2
		c-0.2,0.1-0.4,0.3-0.5,0.6c-0.1,0.3-0.1,0.6-0.1,1v0.1c0,0.4,0,0.8,0.1,1.1c0.1,0.3,0.2,0.5,0.5,0.7s0.5,0.2,0.9,0.2
		c0.3,0,0.6-0.1,0.8-0.2c0.2-0.2,0.4-0.4,0.5-0.7c0.1-0.3,0.2-0.6,0.2-1c0-0.6-0.1-1.1-0.3-1.4C323.1,36.7,322.7,36.5,322.3,36.5z
		 M327.3,38.4c0,0.5-0.1,1-0.2,1.5c-0.1,0.5-0.2,0.9-0.5,1.4c-0.2,0.4-0.5,0.8-0.8,1.2h-0.7c0.3-0.4,0.5-0.8,0.7-1.2
		c0.2-0.4,0.3-0.9,0.4-1.4c0.1-0.5,0.2-1,0.2-1.4c0-0.5-0.1-1-0.2-1.5c-0.1-0.5-0.2-0.9-0.4-1.4c-0.2-0.4-0.4-0.9-0.7-1.2h0.7
		c0.3,0.4,0.6,0.8,0.8,1.2c0.2,0.4,0.4,0.9,0.5,1.4C327.3,37.4,327.3,37.9,327.3,38.4z"/>
	<path class="st3" d="M252.5,31l-26.4,0.3"/>
	<path class="st11" d="M252.5,31l-20.4,0.2"/>
	<path class="st12" d="M232,29.6l-4.5,1.7l4.6,1.6L232,29.6z"/>
	<g>
		<g transform="matrix(1.0 0.0 0.0 1.0 0.0 2.0)">
			<g id="g24b46b86645_0_0.9">
				<path class="st13" d="M334,15.8h32.5v27.3c-16.2,0-16.2,10.4-32.5,4.5V15.8z"/>
				<path class="st8" d="M334,15.8h32.5v27.3c-16.2,0-16.2,10.4-32.5,4.5V15.8z"/>
				<path d="M339.7,29.9c-0.4,0-0.7-0.2-1-0.5c-0.2-0.3-0.4-0.8-0.4-1.4c0-0.6,0.1-1.1,0.4-1.4c0.3-0.3,0.6-0.5,1-0.5
					c0.2,0,0.3,0,0.5,0.1c0.1,0,0.2,0.1,0.3,0.2c0.1,0.1,0.2,0.2,0.2,0.3h0c0-0.1,0-0.2-0.1-0.3c0-0.1,0-0.3,0-0.4v-1.2h1v5.1H341
					l-0.2-0.5h0c-0.1,0.1-0.1,0.2-0.2,0.3c-0.1,0.1-0.2,0.2-0.3,0.2C340,29.9,339.9,29.9,339.7,29.9z M340,29.1
					c0.3,0,0.5-0.1,0.6-0.2c0.1-0.2,0.2-0.4,0.2-0.8V28c0-0.4-0.1-0.6-0.2-0.8c-0.1-0.2-0.3-0.3-0.6-0.3c-0.2,0-0.4,0.1-0.5,0.3
					s-0.2,0.5-0.2,0.8c0,0.4,0.1,0.6,0.2,0.8C339.6,29,339.8,29.1,340,29.1z M344.2,26.1c0.3,0,0.6,0.1,0.9,0.2
					c0.2,0.1,0.4,0.3,0.6,0.6c0.1,0.2,0.2,0.5,0.2,0.9v0.5h-2.3c0,0.3,0.1,0.5,0.2,0.7c0.2,0.2,0.4,0.2,0.7,0.2c0.2,0,0.5,0,0.6-0.1
					c0.2-0.1,0.4-0.1,0.6-0.2v0.8c-0.2,0.1-0.4,0.1-0.6,0.2c-0.2,0-0.4,0.1-0.7,0.1c-0.4,0-0.7-0.1-1-0.2c-0.3-0.1-0.5-0.3-0.7-0.6
					c-0.2-0.3-0.2-0.6-0.2-1c0-0.4,0.1-0.8,0.2-1c0.1-0.3,0.3-0.5,0.6-0.6C343.6,26.2,343.9,26.1,344.2,26.1z M344.3,26.8
					c-0.2,0-0.4,0.1-0.5,0.2s-0.2,0.3-0.2,0.6h1.4c0-0.1,0-0.3-0.1-0.4c-0.1-0.1-0.1-0.2-0.2-0.3C344.5,26.8,344.4,26.8,344.3,26.8z
					 M349.2,28.7c0,0.2-0.1,0.5-0.2,0.6c-0.1,0.2-0.3,0.3-0.5,0.4c-0.2,0.1-0.5,0.1-0.9,0.1c-0.2,0-0.5,0-0.7,0
					c-0.2,0-0.4-0.1-0.5-0.2v-0.8c0.2,0.1,0.4,0.2,0.6,0.2c0.2,0.1,0.4,0.1,0.6,0.1c0.2,0,0.3,0,0.4-0.1c0.1-0.1,0.1-0.1,0.1-0.2
					c0-0.1,0-0.1-0.1-0.2c0-0.1-0.1-0.1-0.2-0.2c-0.1-0.1-0.3-0.1-0.5-0.2c-0.2-0.1-0.4-0.2-0.6-0.3c-0.1-0.1-0.3-0.2-0.3-0.3
					c-0.1-0.1-0.1-0.3-0.1-0.5c0-0.3,0.1-0.6,0.4-0.8c0.3-0.2,0.6-0.3,1-0.3c0.2,0,0.4,0,0.6,0.1c0.2,0,0.4,0.1,0.6,0.2l-0.3,0.7
					c-0.2-0.1-0.3-0.1-0.5-0.2c-0.2-0.1-0.3-0.1-0.5-0.1c-0.1,0-0.3,0-0.3,0.1c-0.1,0-0.1,0.1-0.1,0.2c0,0.1,0,0.1,0,0.2
					c0,0,0.1,0.1,0.2,0.1c0.1,0.1,0.3,0.1,0.5,0.2c0.2,0.1,0.4,0.2,0.5,0.3c0.2,0.1,0.3,0.2,0.4,0.3
					C349.2,28.3,349.2,28.5,349.2,28.7z M351,26.2v3.6h-1v-3.6H351z M350.5,24.7c0.1,0,0.3,0,0.4,0.1c0.1,0.1,0.2,0.2,0.2,0.4
					s-0.1,0.3-0.2,0.4c-0.1,0.1-0.2,0.1-0.4,0.1s-0.3,0-0.4-0.1c-0.1-0.1-0.2-0.2-0.2-0.4s0.1-0.3,0.2-0.4
					C350.2,24.8,350.3,24.7,350.5,24.7z M353.1,31.4c-0.5,0-0.9-0.1-1.2-0.3c-0.3-0.2-0.4-0.4-0.4-0.7c0-0.2,0.1-0.4,0.2-0.5
					c0.1-0.1,0.3-0.2,0.6-0.3c-0.1-0.1-0.2-0.1-0.3-0.2c-0.1-0.1-0.1-0.2-0.1-0.3c0-0.1,0-0.2,0.1-0.3c0.1-0.1,0.2-0.2,0.3-0.3
					c-0.2-0.1-0.3-0.2-0.5-0.4c-0.1-0.2-0.2-0.4-0.2-0.6c0-0.3,0.1-0.5,0.2-0.7c0.1-0.2,0.3-0.3,0.5-0.4c0.2-0.1,0.5-0.2,0.8-0.2
					c0.1,0,0.2,0,0.2,0c0.1,0,0.2,0,0.2,0c0.1,0,0.1,0,0.2,0h1.3v0.5l-0.6,0.1c0.1,0.1,0.1,0.2,0.1,0.3c0,0.1,0,0.2,0,0.3
					c0,0.4-0.1,0.7-0.4,0.9c-0.3,0.2-0.6,0.3-1.1,0.3c-0.1,0-0.2,0-0.3,0c-0.1,0-0.1,0.1-0.1,0.1c0,0,0,0.1,0,0.1
					c0,0.1,0,0.1,0.1,0.1c0,0,0.1,0.1,0.2,0.1c0.1,0,0.2,0,0.3,0h0.6c0.4,0,0.7,0.1,0.9,0.3c0.2,0.2,0.3,0.4,0.3,0.8
					c0,0.4-0.2,0.7-0.5,1C354.3,31.3,353.7,31.4,353.1,31.4z M353.1,30.8c0.2,0,0.4,0,0.6-0.1c0.2,0,0.3-0.1,0.4-0.2
					c0.1-0.1,0.1-0.2,0.1-0.3c0-0.1,0-0.2-0.1-0.2c-0.1-0.1-0.1-0.1-0.2-0.1c-0.1,0-0.2,0-0.4,0H353c-0.1,0-0.2,0-0.3,0
					c-0.1,0-0.2,0.1-0.2,0.2c-0.1,0.1-0.1,0.2-0.1,0.2c0,0.1,0.1,0.2,0.2,0.3C352.7,30.7,352.9,30.8,353.1,30.8z M353.3,28
					c0.2,0,0.3-0.1,0.4-0.2c0.1-0.1,0.1-0.3,0.1-0.5c0-0.2,0-0.4-0.1-0.5c-0.1-0.1-0.2-0.2-0.4-0.2c-0.2,0-0.3,0.1-0.4,0.2
					c-0.1,0.1-0.1,0.3-0.1,0.5c0,0.2,0,0.4,0.1,0.5C353,28,353.1,28,353.3,28z M357.8,26.1c0.4,0,0.7,0.1,0.9,0.3
					c0.2,0.2,0.4,0.5,0.4,1v2.4h-1v-2.1c0-0.3-0.1-0.5-0.2-0.6c-0.1-0.1-0.2-0.2-0.4-0.2c-0.3,0-0.5,0.1-0.6,0.3
					c-0.1,0.2-0.2,0.5-0.2,0.9v1.7h-1v-3.6h0.8l0.1,0.5h0.1c0.1-0.1,0.2-0.2,0.3-0.3c0.1-0.1,0.3-0.1,0.4-0.2
					C357.6,26.1,357.7,26.1,357.8,26.1z"/>
				<path d="M340.6,34.9h-0.9v2.9h-1v-2.9h-0.5v-0.5l0.5-0.3v-0.3c0-0.3,0.1-0.5,0.2-0.7c0.1-0.2,0.3-0.3,0.5-0.4
					c0.2-0.1,0.4-0.1,0.7-0.1c0.2,0,0.4,0,0.5,0c0.2,0,0.3,0.1,0.4,0.1l-0.2,0.7c-0.1,0-0.2,0-0.2-0.1c-0.1,0-0.2,0-0.3,0
					c-0.1,0-0.2,0-0.3,0.1c-0.1,0.1-0.1,0.2-0.1,0.3v0.2h0.9V34.9z M342.1,34.2v3.6h-1v-3.6H342.1z M341.6,32.7c0.1,0,0.3,0,0.4,0.1
					c0.1,0.1,0.2,0.2,0.2,0.4s-0.1,0.3-0.2,0.4c-0.1,0.1-0.2,0.1-0.4,0.1c-0.1,0-0.3,0-0.4-0.1c-0.1-0.1-0.2-0.2-0.2-0.4
					s0.1-0.3,0.2-0.4C341.3,32.8,341.5,32.7,341.6,32.7z M344.1,37.8h-1v-5.1h1V37.8z M346.7,34.1c0.3,0,0.6,0.1,0.9,0.2
					c0.2,0.1,0.4,0.3,0.6,0.6c0.1,0.2,0.2,0.5,0.2,0.9v0.5H346c0,0.3,0.1,0.5,0.2,0.7c0.2,0.2,0.4,0.2,0.7,0.2c0.2,0,0.5,0,0.6-0.1
					c0.2-0.1,0.4-0.1,0.6-0.2v0.8c-0.2,0.1-0.4,0.1-0.6,0.2c-0.2,0-0.4,0.1-0.7,0.1c-0.4,0-0.7-0.1-1-0.2c-0.3-0.1-0.5-0.3-0.7-0.6
					c-0.2-0.3-0.2-0.6-0.2-1c0-0.4,0.1-0.8,0.2-1c0.1-0.3,0.3-0.5,0.6-0.6C346,34.2,346.3,34.1,346.7,34.1z M346.7,34.8
					c-0.2,0-0.4,0.1-0.5,0.2s-0.2,0.3-0.2,0.6h1.4c0-0.1,0-0.3-0.1-0.4c-0.1-0.1-0.1-0.2-0.2-0.3C347,34.8,346.8,34.8,346.7,34.8z"
					/>
			</g>
		</g>
	</g>
	<path class="st3" d="M386.1,36.5h64.8v38.8h-64.8V36.5z"/>
	<path class="st6" d="M406.3,48c-0.3,0-0.6,0.1-0.8,0.2s-0.5,0.3-0.6,0.5s-0.3,0.5-0.4,0.8c-0.1,0.3-0.1,0.6-0.1,1
		c0,0.5,0.1,0.9,0.2,1.2c0.2,0.4,0.4,0.6,0.7,0.8c0.3,0.2,0.7,0.3,1.1,0.3c0.3,0,0.5,0,0.7-0.1c0.2-0.1,0.4-0.1,0.7-0.2V53
		c-0.2,0.1-0.4,0.1-0.7,0.2c-0.2,0-0.5,0.1-0.8,0.1c-0.6,0-1.1-0.1-1.5-0.4s-0.7-0.6-0.9-1c-0.2-0.4-0.3-1-0.3-1.6
		c0-0.4,0.1-0.8,0.2-1.2c0.1-0.4,0.3-0.7,0.5-0.9s0.5-0.5,0.9-0.6c0.3-0.1,0.7-0.2,1.2-0.2c0.3,0,0.6,0,0.8,0.1
		c0.3,0.1,0.5,0.1,0.7,0.2l-0.3,0.6c-0.2-0.1-0.4-0.2-0.6-0.2C406.7,48,406.5,48,406.3,48z M412.4,51c0,0.4,0,0.7-0.1,1
		c-0.1,0.3-0.2,0.5-0.4,0.7c-0.2,0.2-0.4,0.3-0.6,0.4c-0.2,0.1-0.5,0.1-0.8,0.1c-0.3,0-0.5,0-0.8-0.1c-0.2-0.1-0.4-0.2-0.6-0.4
		c-0.2-0.2-0.3-0.4-0.4-0.7c-0.1-0.3-0.1-0.6-0.1-1c0-0.5,0.1-0.9,0.2-1.2c0.2-0.3,0.4-0.6,0.7-0.8c0.3-0.2,0.7-0.3,1.1-0.3
		c0.4,0,0.7,0.1,1,0.3c0.3,0.2,0.5,0.4,0.7,0.8C412.4,50.2,412.4,50.6,412.4,51z M409.2,51c0,0.3,0,0.6,0.1,0.9
		c0.1,0.2,0.2,0.4,0.4,0.6c0.2,0.1,0.4,0.2,0.7,0.2c0.3,0,0.5-0.1,0.7-0.2c0.2-0.1,0.3-0.3,0.4-0.6c0.1-0.3,0.1-0.6,0.1-0.9
		c0-0.3,0-0.6-0.1-0.9c-0.1-0.2-0.2-0.4-0.4-0.6c-0.2-0.1-0.4-0.2-0.7-0.2c-0.4,0-0.8,0.1-1,0.4C409.3,50.1,409.2,50.5,409.2,51z
		 M415.6,48.8c0.5,0,0.9,0.1,1.1,0.4s0.4,0.6,0.4,1.2v2.8h-0.6v-2.8c0-0.4-0.1-0.6-0.2-0.8c-0.2-0.2-0.4-0.3-0.7-0.3
		c-0.5,0-0.8,0.1-1,0.4c-0.2,0.3-0.3,0.6-0.3,1.2v2.2h-0.6v-4.3h0.5l0.1,0.6h0c0.1-0.1,0.2-0.3,0.3-0.4c0.1-0.1,0.3-0.2,0.5-0.2
		C415.2,48.8,415.4,48.8,415.6,48.8z M420.5,48.8c0.5,0,0.9,0.1,1.1,0.4s0.4,0.6,0.4,1.2v2.8h-0.6v-2.8c0-0.4-0.1-0.6-0.2-0.8
		c-0.2-0.2-0.4-0.3-0.7-0.3c-0.5,0-0.8,0.1-1,0.4c-0.2,0.3-0.3,0.6-0.3,1.2v2.2h-0.6v-4.3h0.5l0.1,0.6h0c0.1-0.1,0.2-0.3,0.3-0.4
		c0.1-0.1,0.3-0.2,0.5-0.2C420.1,48.8,420.3,48.8,420.5,48.8z M425,48.8c0.4,0,0.7,0.1,0.9,0.2c0.3,0.2,0.5,0.4,0.6,0.7
		c0.1,0.3,0.2,0.6,0.2,1v0.4h-3c0,0.5,0.1,0.9,0.4,1.1c0.2,0.3,0.6,0.4,1,0.4c0.3,0,0.5,0,0.7-0.1c0.2-0.1,0.4-0.1,0.7-0.2V53
		c-0.2,0.1-0.4,0.2-0.7,0.2c-0.2,0.1-0.5,0.1-0.8,0.1c-0.4,0-0.8-0.1-1.1-0.2c-0.3-0.2-0.5-0.4-0.7-0.7c-0.2-0.3-0.2-0.7-0.2-1.2
		c0-0.5,0.1-0.9,0.2-1.2c0.2-0.3,0.4-0.6,0.7-0.8C424.3,48.9,424.7,48.8,425,48.8z M425,49.4c-0.3,0-0.6,0.1-0.8,0.3
		c-0.2,0.2-0.3,0.5-0.4,0.9h2.3c0-0.2,0-0.5-0.1-0.7c-0.1-0.2-0.2-0.3-0.3-0.5C425.5,49.4,425.3,49.4,425,49.4z M429.6,53.3
		c-0.4,0-0.7-0.1-1-0.2c-0.3-0.2-0.5-0.4-0.7-0.7c-0.2-0.3-0.2-0.7-0.2-1.2c0-0.5,0.1-0.9,0.2-1.3c0.2-0.3,0.4-0.6,0.7-0.7
		s0.7-0.2,1-0.2c0.2,0,0.4,0,0.6,0.1s0.4,0.1,0.5,0.2l-0.2,0.5c-0.1-0.1-0.3-0.1-0.5-0.1c-0.2,0-0.3-0.1-0.5-0.1
		c-0.3,0-0.6,0.1-0.8,0.2c-0.2,0.1-0.3,0.3-0.4,0.6c-0.1,0.2-0.1,0.5-0.1,0.9c0,0.3,0,0.6,0.1,0.9c0.1,0.2,0.2,0.4,0.4,0.6
		c0.2,0.1,0.4,0.2,0.7,0.2c0.2,0,0.4,0,0.6-0.1c0.2-0.1,0.4-0.1,0.5-0.2V53c-0.1,0.1-0.3,0.1-0.5,0.2S429.8,53.3,429.6,53.3z
		 M433.1,52.7c0.1,0,0.2,0,0.3,0c0.1,0,0.2,0,0.3-0.1v0.5c-0.1,0-0.2,0.1-0.3,0.1s-0.3,0-0.4,0c-0.2,0-0.4,0-0.6-0.1
		c-0.2-0.1-0.3-0.2-0.5-0.4c-0.1-0.2-0.2-0.5-0.2-0.8v-2.5h-0.6v-0.3l0.6-0.2l0.3-0.9h0.4v1h1.2v0.5h-1.2v2.5c0,0.3,0.1,0.5,0.2,0.6
		S432.9,52.7,433.1,52.7z"/>
	<path class="st6" d="M397.7,57.6c-0.3,0-0.6,0.1-0.8,0.2c-0.2,0.1-0.5,0.3-0.6,0.5c-0.2,0.2-0.3,0.5-0.4,0.8
		c-0.1,0.3-0.1,0.6-0.1,1c0,0.5,0.1,0.9,0.2,1.2c0.2,0.4,0.4,0.6,0.7,0.8c0.3,0.2,0.7,0.3,1.1,0.3c0.3,0,0.5,0,0.7-0.1
		c0.2-0.1,0.4-0.1,0.7-0.2v0.6c-0.2,0.1-0.4,0.1-0.7,0.2c-0.2,0-0.5,0.1-0.8,0.1c-0.6,0-1.1-0.1-1.5-0.4c-0.4-0.2-0.7-0.6-0.9-1
		c-0.2-0.4-0.3-1-0.3-1.6c0-0.4,0.1-0.8,0.2-1.2c0.1-0.4,0.3-0.7,0.5-0.9c0.2-0.3,0.5-0.5,0.9-0.6c0.3-0.1,0.7-0.2,1.2-0.2
		c0.3,0,0.6,0,0.8,0.1c0.3,0.1,0.5,0.1,0.7,0.2l-0.3,0.6c-0.2-0.1-0.4-0.2-0.6-0.2C398.2,57.6,398,57.6,397.7,57.6z M403.9,60.6
		c0,0.4,0,0.7-0.1,1c-0.1,0.3-0.2,0.5-0.4,0.7c-0.2,0.2-0.4,0.3-0.6,0.4c-0.2,0.1-0.5,0.1-0.8,0.1c-0.3,0-0.5,0-0.8-0.1
		c-0.2-0.1-0.4-0.2-0.6-0.4c-0.2-0.2-0.3-0.4-0.4-0.7c-0.1-0.3-0.1-0.6-0.1-1c0-0.5,0.1-0.9,0.2-1.2c0.2-0.3,0.4-0.6,0.7-0.8
		c0.3-0.2,0.7-0.3,1.1-0.3c0.4,0,0.7,0.1,1,0.3c0.3,0.2,0.5,0.4,0.7,0.8C403.8,59.8,403.9,60.2,403.9,60.6z M400.7,60.6
		c0,0.3,0,0.6,0.1,0.9c0.1,0.2,0.2,0.4,0.4,0.6c0.2,0.1,0.4,0.2,0.7,0.2c0.3,0,0.5-0.1,0.7-0.2c0.2-0.1,0.3-0.3,0.4-0.6
		c0.1-0.3,0.1-0.6,0.1-0.9c0-0.3,0-0.6-0.1-0.9c-0.1-0.2-0.2-0.4-0.4-0.6c-0.2-0.1-0.4-0.2-0.7-0.2c-0.4,0-0.8,0.1-1,0.4
		C400.8,59.7,400.7,60.1,400.7,60.6z M409.7,58.4c0.5,0,0.8,0.1,1.1,0.4c0.2,0.2,0.4,0.6,0.4,1.2v2.8h-0.6V60c0-0.3-0.1-0.6-0.2-0.8
		c-0.1-0.2-0.4-0.3-0.7-0.3c-0.4,0-0.7,0.1-0.9,0.4c-0.2,0.2-0.3,0.6-0.3,1.1v2.4h-0.6V60c0-0.2,0-0.4-0.1-0.6
		c-0.1-0.2-0.2-0.3-0.3-0.3c-0.1-0.1-0.3-0.1-0.5-0.1c-0.3,0-0.5,0.1-0.7,0.2c-0.2,0.1-0.3,0.3-0.4,0.5c-0.1,0.2-0.1,0.5-0.1,0.8
		v2.3H405v-4.3h0.5l0.1,0.6h0c0.1-0.2,0.2-0.3,0.3-0.4c0.1-0.1,0.3-0.2,0.4-0.2c0.2-0.1,0.3-0.1,0.5-0.1c0.3,0,0.6,0.1,0.8,0.2
		c0.2,0.1,0.4,0.3,0.5,0.5h0c0.1-0.2,0.3-0.4,0.6-0.5C409.1,58.5,409.4,58.4,409.7,58.4z M414.4,58.4c0.5,0,1,0.2,1.3,0.5
		c0.3,0.4,0.5,0.9,0.5,1.7c0,0.5-0.1,0.9-0.2,1.2c-0.1,0.3-0.4,0.6-0.6,0.8c-0.3,0.2-0.6,0.2-0.9,0.2c-0.2,0-0.4,0-0.6-0.1
		c-0.2-0.1-0.3-0.1-0.4-0.2c-0.1-0.1-0.2-0.2-0.3-0.3h0c0,0.1,0,0.2,0,0.4c0,0.1,0,0.3,0,0.4v1.8h-0.7v-6.2h0.5l0.1,0.6h0
		c0.1-0.1,0.2-0.2,0.3-0.3c0.1-0.1,0.3-0.2,0.4-0.3C414,58.5,414.2,58.4,414.4,58.4z M414.3,59c-0.3,0-0.5,0.1-0.7,0.2
		c-0.2,0.1-0.3,0.3-0.4,0.5c-0.1,0.2-0.1,0.5-0.1,0.9v0.1c0,0.4,0,0.7,0.1,0.9c0.1,0.2,0.2,0.4,0.4,0.6c0.2,0.1,0.4,0.2,0.8,0.2
		c0.3,0,0.5-0.1,0.7-0.2c0.2-0.1,0.3-0.3,0.4-0.6c0.1-0.3,0.1-0.6,0.1-0.9c0-0.5-0.1-0.9-0.3-1.2C415,59.1,414.7,59,414.3,59z
		 M421,60.6c0,0.4,0,0.7-0.1,1c-0.1,0.3-0.2,0.5-0.4,0.7c-0.2,0.2-0.4,0.3-0.6,0.4c-0.2,0.1-0.5,0.1-0.8,0.1c-0.3,0-0.5,0-0.8-0.1
		c-0.2-0.1-0.4-0.2-0.6-0.4c-0.2-0.2-0.3-0.4-0.4-0.7c-0.1-0.3-0.1-0.6-0.1-1c0-0.5,0.1-0.9,0.2-1.2c0.2-0.3,0.4-0.6,0.7-0.8
		c0.3-0.2,0.7-0.3,1.1-0.3c0.4,0,0.7,0.1,1,0.3c0.3,0.2,0.5,0.4,0.7,0.8C420.9,59.8,421,60.2,421,60.6z M417.8,60.6
		c0,0.3,0,0.6,0.1,0.9c0.1,0.2,0.2,0.4,0.4,0.6c0.2,0.1,0.4,0.2,0.7,0.2c0.3,0,0.5-0.1,0.7-0.2c0.2-0.1,0.3-0.3,0.4-0.6
		c0.1-0.3,0.1-0.6,0.1-0.9c0-0.3,0-0.6-0.1-0.9c-0.1-0.2-0.2-0.4-0.4-0.6c-0.2-0.1-0.4-0.2-0.7-0.2c-0.4,0-0.8,0.1-1,0.4
		C417.9,59.7,417.8,60.1,417.8,60.6z M424.2,58.4c0.5,0,0.9,0.1,1.1,0.4s0.4,0.6,0.4,1.2v2.8h-0.6V60c0-0.4-0.1-0.6-0.2-0.8
		c-0.2-0.2-0.4-0.3-0.7-0.3c-0.5,0-0.8,0.1-1,0.4c-0.2,0.3-0.3,0.6-0.3,1.2v2.2h-0.6v-4.3h0.5l0.1,0.6h0c0.1-0.1,0.2-0.3,0.3-0.4
		c0.1-0.1,0.3-0.2,0.5-0.2C423.8,58.4,424,58.4,424.2,58.4z M428.7,58.4c0.4,0,0.7,0.1,0.9,0.2c0.3,0.2,0.5,0.4,0.6,0.7
		c0.1,0.3,0.2,0.6,0.2,1v0.4h-3c0,0.5,0.1,0.9,0.4,1.1c0.2,0.3,0.6,0.4,1,0.4c0.3,0,0.5,0,0.7-0.1c0.2-0.1,0.4-0.1,0.7-0.2v0.6
		c-0.2,0.1-0.4,0.2-0.7,0.2c-0.2,0.1-0.5,0.1-0.8,0.1c-0.4,0-0.8-0.1-1.1-0.2c-0.3-0.2-0.5-0.4-0.7-0.7c-0.2-0.3-0.2-0.7-0.2-1.2
		c0-0.5,0.1-0.9,0.2-1.2c0.2-0.3,0.4-0.6,0.7-0.8C428,58.5,428.3,58.4,428.7,58.4z M428.7,59c-0.3,0-0.6,0.1-0.8,0.3
		c-0.2,0.2-0.3,0.5-0.4,0.9h2.3c0-0.2,0-0.5-0.1-0.7c-0.1-0.2-0.2-0.3-0.3-0.5C429.1,59,428.9,59,428.7,59z M433.6,58.4
		c0.5,0,0.9,0.1,1.1,0.4s0.4,0.6,0.4,1.2v2.8h-0.6V60c0-0.4-0.1-0.6-0.2-0.8c-0.2-0.2-0.4-0.3-0.7-0.3c-0.5,0-0.8,0.1-1,0.4
		c-0.2,0.3-0.3,0.6-0.3,1.2v2.2h-0.6v-4.3h0.5l0.1,0.6h0c0.1-0.1,0.2-0.3,0.3-0.4c0.1-0.1,0.3-0.2,0.5-0.2
		C433.2,58.4,433.4,58.4,433.6,58.4z M437.8,62.3c0.1,0,0.2,0,0.3,0c0.1,0,0.2,0,0.3-0.1v0.5c-0.1,0-0.2,0.1-0.3,0.1
		c-0.1,0-0.3,0-0.4,0c-0.2,0-0.4,0-0.6-0.1c-0.2-0.1-0.3-0.2-0.5-0.4c-0.1-0.2-0.2-0.5-0.2-0.8V59h-0.6v-0.3l0.6-0.2l0.3-0.9h0.4v1
		h1.2V59h-1.2v2.5c0,0.3,0.1,0.5,0.2,0.6C437.5,62.3,437.6,62.3,437.8,62.3z M442.1,61.6c0,0.3-0.1,0.5-0.2,0.7s-0.3,0.3-0.6,0.4
		c-0.2,0.1-0.6,0.1-0.9,0.1c-0.3,0-0.5,0-0.8-0.1c-0.2,0-0.4-0.1-0.6-0.2V62c0.2,0.1,0.4,0.2,0.6,0.2c0.2,0.1,0.5,0.1,0.7,0.1
		c0.4,0,0.6-0.1,0.8-0.2c0.2-0.1,0.2-0.3,0.2-0.5c0-0.1,0-0.2-0.1-0.3c-0.1-0.1-0.2-0.2-0.3-0.3c-0.2-0.1-0.4-0.2-0.6-0.3
		c-0.3-0.1-0.5-0.2-0.7-0.3c-0.2-0.1-0.4-0.2-0.5-0.4c-0.1-0.1-0.2-0.3-0.2-0.6c0-0.4,0.1-0.6,0.4-0.8c0.3-0.2,0.7-0.3,1.2-0.3
		c0.3,0,0.5,0,0.7,0.1c0.2,0.1,0.4,0.1,0.6,0.2l-0.2,0.5c-0.2-0.1-0.4-0.1-0.6-0.2c-0.2-0.1-0.4-0.1-0.6-0.1c-0.3,0-0.5,0.1-0.7,0.2
		c-0.2,0.1-0.2,0.2-0.2,0.4c0,0.1,0,0.2,0.1,0.3c0.1,0.1,0.2,0.2,0.4,0.2c0.2,0.1,0.4,0.2,0.7,0.3c0.3,0.1,0.5,0.2,0.7,0.3
		c0.2,0.1,0.3,0.2,0.5,0.4C442,61.2,442.1,61.4,442.1,61.6z"/>
	<path class="st13" d="M439.6,26.5h-31.3V21l-11,11l11,11v-5.5h31.3V26.5z"/>
	<path class="st8" d="M439.6,26.5h-31.3V21l-11,11l11,11v-5.5h31.3V26.5z"/>
	<path d="M416,33.4c0,0.3-0.1,0.5-0.2,0.7s-0.3,0.3-0.6,0.4c-0.2,0.1-0.6,0.1-0.9,0.1c-0.3,0-0.5,0-0.8-0.1c-0.2,0-0.4-0.1-0.6-0.2
		v-0.6c0.2,0.1,0.4,0.2,0.6,0.2c0.2,0.1,0.5,0.1,0.7,0.1c0.4,0,0.6-0.1,0.8-0.2c0.2-0.1,0.2-0.3,0.2-0.5c0-0.1,0-0.2-0.1-0.3
		c-0.1-0.1-0.2-0.2-0.3-0.3s-0.4-0.2-0.6-0.3c-0.3-0.1-0.5-0.2-0.7-0.3s-0.4-0.2-0.5-0.4c-0.1-0.1-0.2-0.3-0.2-0.6
		c0-0.4,0.1-0.6,0.4-0.8c0.3-0.2,0.7-0.3,1.2-0.3c0.3,0,0.5,0,0.7,0.1c0.2,0.1,0.4,0.1,0.6,0.2l-0.2,0.5c-0.2-0.1-0.4-0.1-0.6-0.2
		s-0.4-0.1-0.6-0.1c-0.3,0-0.5,0.1-0.7,0.2c-0.2,0.1-0.2,0.2-0.2,0.4c0,0.1,0,0.2,0.1,0.3c0.1,0.1,0.2,0.2,0.4,0.2s0.4,0.2,0.7,0.3
		c0.3,0.1,0.5,0.2,0.7,0.3c0.2,0.1,0.3,0.2,0.5,0.4S416,33.2,416,33.4z M418.5,34.2c0.1,0,0.2,0,0.3,0c0.1,0,0.2,0,0.3-0.1v0.5
		c-0.1,0-0.2,0.1-0.3,0.1s-0.3,0-0.4,0c-0.2,0-0.4,0-0.6-0.1c-0.2-0.1-0.3-0.2-0.5-0.4c-0.1-0.2-0.2-0.5-0.2-0.8v-2.5h-0.6v-0.3
		l0.6-0.2l0.3-0.9h0.4v1h1.2v0.5h-1.2v2.5c0,0.3,0.1,0.5,0.2,0.6S418.3,34.2,418.5,34.2z M421.5,30.3c0.5,0,0.9,0.1,1.1,0.3
		s0.4,0.6,0.4,1.1v2.9h-0.5l-0.1-0.6h0c-0.1,0.2-0.3,0.3-0.4,0.4c-0.1,0.1-0.3,0.2-0.5,0.2c-0.2,0.1-0.4,0.1-0.6,0.1
		c-0.3,0-0.5,0-0.7-0.1c-0.2-0.1-0.4-0.2-0.5-0.4c-0.1-0.2-0.2-0.4-0.2-0.7c0-0.4,0.2-0.8,0.5-1c0.3-0.2,0.9-0.4,1.5-0.4l0.7,0v-0.3
		c0-0.4-0.1-0.6-0.2-0.8s-0.4-0.2-0.7-0.2c-0.2,0-0.4,0-0.6,0.1c-0.2,0.1-0.4,0.1-0.6,0.2l-0.2-0.5c0.2-0.1,0.4-0.2,0.7-0.2
		S421.3,30.3,421.5,30.3z M422.4,32.5l-0.7,0c-0.5,0-0.9,0.1-1.1,0.3c-0.2,0.1-0.3,0.4-0.3,0.6c0,0.2,0.1,0.4,0.2,0.5
		s0.3,0.2,0.6,0.2c0.4,0,0.7-0.1,0.9-0.3c0.2-0.2,0.4-0.5,0.4-1V32.5z M426.3,30.3c0.1,0,0.2,0,0.3,0s0.2,0,0.2,0l-0.1,0.6
		c-0.1,0-0.1,0-0.2,0c-0.1,0-0.2,0-0.2,0c-0.2,0-0.3,0-0.5,0.1c-0.1,0.1-0.3,0.2-0.4,0.3c-0.1,0.1-0.2,0.3-0.3,0.5
		c-0.1,0.2-0.1,0.4-0.1,0.6v2.3h-0.7v-4.3h0.5l0.1,0.8h0c0.1-0.2,0.2-0.3,0.3-0.4c0.1-0.1,0.3-0.2,0.4-0.3
		C425.9,30.3,426.1,30.3,426.3,30.3z M429,34.2c0.1,0,0.2,0,0.3,0c0.1,0,0.2,0,0.3-0.1v0.5c-0.1,0-0.2,0.1-0.3,0.1s-0.3,0-0.4,0
		c-0.2,0-0.4,0-0.6-0.1c-0.2-0.1-0.3-0.2-0.5-0.4c-0.1-0.2-0.2-0.5-0.2-0.8v-2.5h-0.6v-0.3l0.6-0.2l0.3-0.9h0.4v1h1.2v0.5h-1.2v2.5
		c0,0.3,0.1,0.5,0.2,0.6S428.8,34.2,429,34.2z"/>
	<g>
		<g transform="matrix(1.0 0.0 0.0 1.0 0.0 2.0)">
			<g id="g24b46b86645_0_0.10">
				<path class="st3" d="M458.6,28v26.8"/>
				<path class="st1" d="M458.6,28v26.8"/>
			</g>
		</g>
	</g>
	<g id="g24b46b86645_0_0.10_00000052801217433928820640000011333418307633319315_">
		<path class="st3" d="M458.6,26v26.8"/>
		<path class="st1" d="M458.6,26v26.8"/>
	</g>
	<g>
		<g transform="matrix(1.0 0.0 0.0 1.0 0.0 2.0)">
			<g id="g24b46b86645_0_0.11">
				<path class="st3" d="M459.3,36.8l-7.6,4"/>
				<path class="st1" d="M459.3,36.8l-7.6,4"/>
			</g>
		</g>
	</g>
	<g>
		<g transform="matrix(1.0 0.0 0.0 1.0 0.0 2.0)">
			<g id="g24b46b86645_0_0.12">
				<path class="st7" d="M447.8,18L447.8,18c0-5.5,4.8-9.9,10.8-9.9l0,0c6,0,10.8,4.4,10.8,9.9l0,0c0,5.5-4.8,9.9-10.8,9.9l0,0
					C452.6,28,447.8,23.5,447.8,18z"/>
				<path class="st1" d="M447.8,18L447.8,18c0-5.5,4.8-9.9,10.8-9.9l0,0c6,0,10.8,4.4,10.8,9.9l0,0c0,5.5-4.8,9.9-10.8,9.9l0,0
					C452.6,28,447.8,23.5,447.8,18z"/>
			</g>
		</g>
	</g>
	<g>
		<g transform="matrix(1.0 0.0 0.0 1.0 0.0 2.0)">
			<g id="g24b46b86645_0_0.13">
				<path class="st3" d="M459.8,37.2l7.2,3.8"/>
				<path class="st1" d="M459.8,37.2l7.2,3.8"/>
			</g>
		</g>
	</g>
	<g>
		<g transform="matrix(1.0 0.0 0.0 1.0 0.0 2.000000000000038)">
			<g id="g24b46b86645_0_0.14">
				<path class="st3" d="M458.5,55.5l-7.6,4"/>
				<path class="st1" d="M458.5,55.5l-7.6,4"/>
			</g>
		</g>
	</g>
	<g>
		<g transform="matrix(1.0 0.0 0.0 1.0 0.0 1.9999999999999618)">
			<g id="g24b46b86645_0_0.15">
				<path class="st3" d="M459,55.9l7.2,3.8"/>
				<path class="st1" d="M459,55.9l7.2,3.8"/>
			</g>
		</g>
	</g>
	<path class="st3" d="M163.6,55.5l-0.5,36.3"/>
	<path class="st14" d="M163.6,55.5l-0.4,30.3"/>
	<path class="st15" d="M161.5,85.8l1.6,4.6l1.7-4.5L161.5,85.8z"/>
	<path class="st3" d="M314.5,91.9L314,55.2"/>
	<path class="st16" d="M314.5,91.9l-0.5-30.7"/>
	<path class="st17" d="M315.7,61.2l-1.7-4.5l-1.6,4.6L315.7,61.2z"/>
	<g>
		<g transform="matrix(1.0 0.0 0.0 1.0 0.0 2.0)">
			<g id="g24b46b86645_0_0.16">
				<path class="st3" d="M179.4,14.6h37.4V52h-37.4V14.6z"/>
				<g transform="matrix(0.04090341207349081 0.0 0.0 0.04090288713910761 402.6023509186352 298.2044551181102)">
					<g>
						<defs>
							<rect id="SVGID_1_" x="-5017.7" y="-6495.4" width="37.4" height="37.3"/>
						</defs>
						<clipPath id="SVGID_00000163066856020214201170000009003532881432376503_">
							<use xlink:href="#SVGID_1_"  style="overflow:visible;"/>
						</clipPath>
						<g style="clip-path:url(#SVGID_00000163066856020214201170000009003532881432376503_);enable-background:new    ;">
							
								<image style="overflow:visible;" width="914" height="913" xlink:href="977DE42212D3108B.png"  transform="matrix(1 0 0 1 -5456.002 -6933.2134)">
							</image>
						</g>
					</g>
				</g>
			</g>
		</g>
	</g>
	<g>
		<g transform="matrix(1.0 0.0 0.0 1.0 0.0 2.0)">
			<g id="g24b46b86645_0_0.18">
				<path class="st3" d="M333.5,99.4h37.4v37.4h-37.4V99.4z"/>
				<g transform="matrix(0.061087926509186354 0.0 0.0 0.061087926509186354 556.7060325459317 382.97112440944886)">
					<g>
						<defs>
							<rect id="SVGID_00000081616018896516108410000011400399008152577711_" x="-3365.9" y="-4355" width="37.4" height="37.4"/>
						</defs>
						<clipPath id="SVGID_00000095317754724641413750000001133590155491692720_">
							<use xlink:href="#SVGID_00000081616018896516108410000011400399008152577711_"  style="overflow:visible;"/>
						</clipPath>
						<g style="clip-path:url(#SVGID_00000095317754724641413750000001133590155491692720_);enable-background:new    ;">
							
								<image style="overflow:visible;" width="612" height="612" xlink:href="977DE42212D31089.png"  transform="matrix(1 0 0 1 -3653.2029 -4642.3066)">
							</image>
						</g>
					</g>
				</g>
			</g>
		</g>
	</g>
	<g>
		<g transform="matrix(1.0 0.0 0.0 1.0 0.0 2.0)">
			<g id="g24b46b86645_0_0.20">
				<path class="st3" d="M177,96.9h42.2v42.4H177V96.9z"/>
				<g transform="matrix(0.023451443569553806 0.0 0.0 0.0234498687664042 400.17573989501307 380.4535018372703)">
					<g>
						<defs>
							
								<rect id="SVGID_00000090290701416493398650000001690623216258030252_" x="-8636.9" y="-11210.1" width="42.2" height="42.4"/>
						</defs>
						<clipPath id="SVGID_00000029010551281422937840000013637187440798963118_">
							<use xlink:href="#SVGID_00000090290701416493398650000001690623216258030252_"  style="overflow:visible;"/>
						</clipPath>
						<g style="clip-path:url(#SVGID_00000029010551281422937840000013637187440798963118_);enable-background:new    ;">
							
								<image style="overflow:visible;" width="1801" height="1809" xlink:href="977DE42212D3108F.png"  transform="matrix(1 0 0 1 -9516.3047 -12093.3574)">
							</image>
						</g>
					</g>
				</g>
			</g>
		</g>
	</g>
	<path class="st3" d="M226.1,116.1h26.4"/>
	<path class="st18" d="M226.1,116.1h20.4"/>
	<path class="st19" d="M246.5,117.7l4.5-1.7l-4.5-1.7V117.7z"/>
	<path class="st20" d="M252.5,91.9h124.1v48.4H252.5V91.9z"/>
</g>
<path class="st5" d="M264.5,105.7c1,0,1.7,0.2,2.1,0.6c0.5,0.4,0.7,0.9,0.7,1.6c0,0.3-0.1,0.6-0.2,0.9c-0.1,0.3-0.3,0.5-0.5,0.8
	c-0.2,0.2-0.6,0.4-0.9,0.5c-0.4,0.1-0.8,0.2-1.4,0.2h-0.9v3h-0.9v-7.6H264.5z M264.4,106.5h-1v3.1h0.8c0.5,0,0.9-0.1,1.2-0.2
	c0.3-0.1,0.6-0.3,0.7-0.5c0.2-0.2,0.2-0.6,0.2-0.9c0-0.5-0.2-0.9-0.5-1.1C265.6,106.6,265.1,106.5,264.4,106.5z M273.7,110.5
	c0,0.5-0.1,0.9-0.2,1.2c-0.1,0.4-0.3,0.7-0.5,0.9c-0.2,0.2-0.5,0.4-0.8,0.6c-0.3,0.1-0.7,0.2-1.1,0.2c-0.4,0-0.7-0.1-1-0.2
	c-0.3-0.1-0.6-0.3-0.8-0.6c-0.2-0.3-0.4-0.6-0.5-0.9c-0.1-0.4-0.2-0.8-0.2-1.2c0-0.6,0.1-1.2,0.3-1.6c0.2-0.4,0.5-0.8,0.9-1
	c0.4-0.2,0.9-0.4,1.4-0.4c0.5,0,1,0.1,1.4,0.4c0.4,0.2,0.7,0.6,0.9,1S273.7,109.8,273.7,110.5z M269.4,110.5c0,0.5,0.1,0.9,0.2,1.2
	c0.1,0.3,0.3,0.6,0.6,0.8s0.6,0.3,1,0.3c0.4,0,0.7-0.1,1-0.3c0.3-0.2,0.5-0.4,0.6-0.8c0.1-0.3,0.2-0.7,0.2-1.2
	c0-0.5-0.1-0.8-0.2-1.2c-0.1-0.3-0.3-0.6-0.6-0.8c-0.2-0.2-0.6-0.3-1-0.3c-0.6,0-1,0.2-1.3,0.6C269.5,109.2,269.4,109.8,269.4,110.5
	z M276.1,113.3h-0.9v-8.1h0.9V113.3z M278.8,107.6v5.7h-0.9v-5.7H278.8z M278.4,105.5c0.1,0,0.3,0,0.4,0.1c0.1,0.1,0.2,0.2,0.2,0.4
	c0,0.2-0.1,0.3-0.2,0.4c-0.1,0.1-0.2,0.1-0.4,0.1c-0.2,0-0.3,0-0.4-0.1c-0.1-0.1-0.1-0.2-0.1-0.4c0-0.2,0-0.3,0.1-0.4
	C278.1,105.5,278.2,105.5,278.4,105.5z M282.9,113.4c-0.5,0-1-0.1-1.4-0.3c-0.4-0.2-0.7-0.5-0.9-1c-0.2-0.4-0.3-1-0.3-1.6
	c0-0.7,0.1-1.3,0.3-1.7c0.2-0.4,0.5-0.8,1-1c0.4-0.2,0.9-0.3,1.4-0.3c0.3,0,0.6,0,0.8,0.1c0.3,0.1,0.5,0.1,0.7,0.2l-0.2,0.7
	c-0.2-0.1-0.4-0.1-0.6-0.2c-0.2-0.1-0.4-0.1-0.6-0.1c-0.4,0-0.7,0.1-1,0.2c-0.3,0.2-0.5,0.4-0.6,0.8c-0.1,0.3-0.2,0.7-0.2,1.2
	c0,0.5,0.1,0.9,0.2,1.2c0.1,0.3,0.3,0.6,0.6,0.8c0.2,0.2,0.6,0.2,0.9,0.2c0.3,0,0.6,0,0.8-0.1c0.2-0.1,0.5-0.2,0.7-0.2v0.8
	c-0.2,0.1-0.4,0.2-0.7,0.2C283.5,113.4,283.2,113.4,282.9,113.4z M284.8,107.6h0.9l1.3,3.3c0.1,0.2,0.1,0.4,0.2,0.6
	c0.1,0.2,0.1,0.3,0.2,0.5c0.1,0.2,0.1,0.3,0.1,0.5h0c0-0.2,0.1-0.4,0.2-0.7s0.2-0.6,0.3-0.9l1.2-3.3h0.9l-2.5,6.5
	c-0.1,0.3-0.3,0.6-0.5,0.9c-0.2,0.3-0.4,0.5-0.6,0.6c-0.2,0.1-0.6,0.2-0.9,0.2c-0.2,0-0.3,0-0.4,0c-0.1,0-0.2,0-0.3-0.1v-0.7
	c0.1,0,0.2,0,0.3,0c0.1,0,0.2,0,0.3,0c0.2,0,0.4,0,0.6-0.1c0.2-0.1,0.3-0.2,0.4-0.3c0.1-0.2,0.2-0.3,0.3-0.6l0.3-0.8L284.8,107.6z"
	/>
<path class="st5" d="M266.8,126.3h-4.2v-7.6h4.2v0.8h-3.4v2.5h3.2v0.8h-3.2v2.8h3.4V126.3z M269.6,126.3l-2.2-5.7h0.9l1.3,3.5
	c0.1,0.2,0.2,0.5,0.2,0.8c0.1,0.3,0.2,0.5,0.2,0.7h0c0-0.2,0.1-0.4,0.2-0.7c0.1-0.3,0.2-0.6,0.3-0.8l1.2-3.5h0.9l-2.2,5.7H269.6z
	 M275.8,120.5c0.7,0,1.2,0.2,1.5,0.5c0.3,0.3,0.5,0.8,0.5,1.5v3.9h-0.6l-0.2-0.8h0c-0.2,0.2-0.3,0.4-0.5,0.5
	c-0.2,0.1-0.4,0.2-0.6,0.3c-0.2,0.1-0.5,0.1-0.8,0.1c-0.3,0-0.7-0.1-0.9-0.2s-0.5-0.3-0.6-0.5c-0.2-0.2-0.2-0.6-0.2-0.9
	c0-0.6,0.2-1,0.7-1.3c0.5-0.3,1.1-0.5,2.1-0.5l1,0v-0.3c0-0.5-0.1-0.8-0.3-1c-0.2-0.2-0.5-0.3-0.9-0.3c-0.3,0-0.6,0-0.9,0.1
	c-0.3,0.1-0.5,0.2-0.8,0.3l-0.3-0.7c0.3-0.1,0.6-0.2,0.9-0.3S275.4,120.5,275.8,120.5z M276.9,123.5l-0.9,0c-0.7,0-1.2,0.1-1.5,0.3
	c-0.3,0.2-0.4,0.5-0.4,0.9c0,0.3,0.1,0.6,0.3,0.7s0.5,0.2,0.8,0.2c0.5,0,0.9-0.1,1.2-0.4s0.5-0.7,0.5-1.3V123.5z M280.4,126.3h-0.9
	v-8.1h0.9V126.3z M287,120.6v5.7h-0.7l-0.1-0.8h0c-0.1,0.2-0.3,0.4-0.5,0.5c-0.2,0.1-0.4,0.2-0.6,0.3c-0.2,0.1-0.5,0.1-0.7,0.1
	c-0.4,0-0.8-0.1-1.1-0.2c-0.3-0.1-0.5-0.4-0.7-0.7c-0.2-0.3-0.2-0.7-0.2-1.2v-3.7h0.9v3.7c0,0.5,0.1,0.8,0.3,1.1
	c0.2,0.2,0.5,0.3,1,0.3c0.4,0,0.8-0.1,1-0.2c0.3-0.2,0.4-0.4,0.5-0.7c0.1-0.3,0.2-0.7,0.2-1.1v-3H287z M290.9,120.5
	c0.7,0,1.2,0.2,1.5,0.5c0.3,0.3,0.5,0.8,0.5,1.5v3.9h-0.6l-0.2-0.8h0c-0.2,0.2-0.3,0.4-0.5,0.5c-0.2,0.1-0.4,0.2-0.6,0.3
	c-0.2,0.1-0.5,0.1-0.8,0.1c-0.3,0-0.7-0.1-0.9-0.2c-0.3-0.1-0.5-0.3-0.6-0.5c-0.2-0.2-0.2-0.6-0.2-0.9c0-0.6,0.2-1,0.7-1.3
	c0.5-0.3,1.1-0.5,2.1-0.5l1,0v-0.3c0-0.5-0.1-0.8-0.3-1c-0.2-0.2-0.5-0.3-0.9-0.3c-0.3,0-0.6,0-0.9,0.1c-0.3,0.1-0.5,0.2-0.8,0.3
	L289,121c0.3-0.1,0.6-0.2,0.9-0.3C290.2,120.6,290.6,120.5,290.9,120.5z M292.1,123.5l-0.9,0c-0.7,0-1.2,0.1-1.5,0.3
	c-0.3,0.2-0.4,0.5-0.4,0.9c0,0.3,0.1,0.6,0.3,0.7c0.2,0.2,0.5,0.2,0.8,0.2c0.5,0,0.9-0.1,1.2-0.4c0.3-0.3,0.5-0.7,0.5-1.3V123.5z
	 M296.6,125.7c0.1,0,0.3,0,0.4,0c0.1,0,0.3-0.1,0.4-0.1v0.7c-0.1,0.1-0.2,0.1-0.4,0.1c-0.2,0-0.3,0-0.5,0c-0.3,0-0.6-0.1-0.8-0.2
	c-0.2-0.1-0.4-0.3-0.6-0.5s-0.2-0.6-0.2-1v-3.4H294v-0.4l0.8-0.3l0.3-1.2h0.5v1.3h1.7v0.7h-1.7v3.4c0,0.4,0.1,0.6,0.2,0.8
	C296.1,125.6,296.3,125.7,296.6,125.7z M299.4,120.6v5.7h-0.9v-5.7H299.4z M299,118.5c0.1,0,0.3,0,0.4,0.1s0.2,0.2,0.2,0.4
	c0,0.2-0.1,0.3-0.2,0.4s-0.2,0.1-0.4,0.1c-0.2,0-0.3,0-0.4-0.1c-0.1-0.1-0.1-0.2-0.1-0.4c0-0.2,0-0.3,0.1-0.4
	C298.7,118.5,298.8,118.5,299,118.5z M306.1,123.5c0,0.5-0.1,0.9-0.2,1.2c-0.1,0.4-0.3,0.7-0.5,0.9c-0.2,0.2-0.5,0.4-0.8,0.6
	c-0.3,0.1-0.7,0.2-1.1,0.2c-0.4,0-0.7-0.1-1-0.2c-0.3-0.1-0.6-0.3-0.8-0.6c-0.2-0.3-0.4-0.6-0.5-0.9c-0.1-0.4-0.2-0.8-0.2-1.2
	c0-0.6,0.1-1.2,0.3-1.6c0.2-0.4,0.5-0.8,0.9-1c0.4-0.2,0.9-0.4,1.4-0.4c0.5,0,1,0.1,1.4,0.4c0.4,0.2,0.7,0.6,0.9,1
	S306.1,122.8,306.1,123.5z M301.8,123.5c0,0.5,0.1,0.9,0.2,1.2c0.1,0.3,0.3,0.6,0.6,0.8s0.6,0.3,1,0.3c0.4,0,0.7-0.1,1-0.3
	c0.3-0.2,0.5-0.4,0.6-0.8c0.1-0.3,0.2-0.7,0.2-1.2c0-0.5-0.1-0.8-0.2-1.2c-0.1-0.3-0.3-0.6-0.6-0.8c-0.2-0.2-0.6-0.3-1-0.3
	c-0.6,0-1,0.2-1.3,0.6C301.9,122.2,301.8,122.8,301.8,123.5z M310.3,120.5c0.7,0,1.2,0.2,1.5,0.5c0.4,0.3,0.5,0.9,0.5,1.6v3.7h-0.9
	v-3.7c0-0.5-0.1-0.8-0.3-1.1c-0.2-0.2-0.6-0.4-1-0.4c-0.6,0-1.1,0.2-1.3,0.5c-0.2,0.4-0.4,0.9-0.4,1.5v3h-0.9v-5.7h0.7l0.1,0.8h0
	c0.1-0.2,0.3-0.4,0.5-0.5c0.2-0.1,0.4-0.2,0.6-0.3C309.8,120.5,310,120.5,310.3,120.5z"/>
</svg>
