<svg xmlns="http://www.w3.org/2000/svg" width="25" height="25" fill="#3C494F" viewBox="0 0 50 50"><path d="M 28.90625 1.96875 C 28.863281 1.976563 28.820313 1.988281 28.78125 2 L 11.5 2 C 9.585938 2 8 3.558594 8 5.46875 L 8 43.90625 C 8 46.160156 9.867188 48 12.125 48 L 37.875 48 C 40.132813 48 42 46.160156 42 43.90625 L 42 15.1875 C 42.027344 15.054688 42.027344 14.914063 42 14.78125 L 42 14.5 C 42.007813 14.234375 41.90625 13.972656 41.71875 13.78125 L 30.21875 2.28125 C 30.027344 2.09375 29.765625 1.992188 29.5 2 L 29.1875 2 C 29.097656 1.976563 29 1.964844 28.90625 1.96875 Z M 11.5 4 L 28 4 L 28 12.34375 C 28 14.355469 29.644531 16 31.65625 16 L 40 16 L 40 43.90625 C 40 45.074219 39.054688 46 37.875 46 L 12.125 46 C 10.945313 46 10 45.074219 10 43.90625 L 10 5.46875 C 10 4.644531 10.660156 4 11.5 4 Z M 30 4.9375 L 39.0625 14 L 31.65625 14 C 30.722656 14 30 13.277344 30 12.34375 Z M 18.9375 22 C 17.328125 22 16 23.324219 16 24.9375 L 16 37.0625 C 16 38.675781 17.324219 40 18.9375 40 L 31.0625 40 C 32.675781 40 34 38.675781 34 37.0625 L 34 24.9375 C 34 23.328125 32.675781 22 31.0625 22 Z M 18.9375 24 L 31.0625 24 C 31.59375 24 32 24.40625 32 24.9375 L 32 26 L 18 26 L 18 24.9375 C 18 24.40625 18.40625 24 18.9375 24 Z M 18 28 L 32 28 L 32 34 L 18 34 Z M 18 36 L 32 36 L 32 37.0625 C 32 37.59375 31.59375 38 31.0625 38 L 18.9375 38 C 18.40625 38 18 37.59375 18 37.0625 Z"/></svg>