<?xml version="1.0" encoding="utf-8"?>
<!-- Generator: Adobe Illustrator 26.0.2, SVG Export Plug-In . SVG Version: 6.00 Build 0)  -->
<svg version="1.1" id="Layer_1" xmlns="http://www.w3.org/2000/svg" xmlns:xlink="http://www.w3.org/1999/xlink" x="0px" y="0px"
	 viewBox="0 0 375.5 394.5" style="enable-background:new 0 0 375.5 394.5;" xml:space="preserve">
<g>
	<path d="M187.1,37.4c27,0,50.2,15.2,62,37.9l8.5-4.7v54c0,12.8,10.4,22.7,22.7,22.7h1.9l0-12.3h-0.5c-6.2,0-11.4-5.2-11.4-11.4
		V63.5l20.4-10.9L187.1,0L83.4,54.9l41.2,21.3C136.4,53,159.6,37.4,187.1,37.4L187.1,37.4z"/>
	<path d="M187.1,49.3c-32.2,0-58.7,26.5-58.7,59.2c0,32.7,26,59.2,58.7,59.2c32.2,0,58.7-26.5,58.7-59.2
		C245.8,75.8,219.3,49.3,187.1,49.3L187.1,49.3z"/>
	<path d="M368.4,324.9l-86.2-119.8c0,0-11.4-21.8-37.9-22.7H130.2c-27,0.9-37.9,22.7-37.9,22.7L5.7,324.9C1.9,330.1,0,336.7,0,343.8
		c0,18.5,15.2,33.6,33.6,33.6h46.9v8.5c0,4.7,3.8,8.5,8.5,8.5h197.5c4.7,0,8.5-3.8,8.5-8.5v-8.5h46.9c18.5,0,33.6-15.2,33.6-33.6
		C374.1,336.7,372.2,330.1,368.4,324.9L368.4,324.9z M294.1,376.5H80V247.7c0-5.7,4.7-9.9,9.9-9.9h194.2c5.7,0,9.9,4.7,9.9,9.9
		L294.1,376.5z"/>
	<path d="M187.1,286.5c-12.3,0-22.7,9.9-22.7,22.7c0,12.8,9.9,22.7,22.7,22.7c12.3,0,22.7-10.4,22.7-22.7
		C209.8,296.9,199.4,286.5,187.1,286.5L187.1,286.5z"/>
</g>
</svg>
