<?xml version="1.0" standalone="no"?>
<!DOCTYPE svg PUBLIC "-//W3C//DTD SVG 20010904//EN"
 "http://www.w3.org/TR/2001/REC-SVG-20010904/DTD/svg10.dtd">
<svg version="1.0" xmlns="http://www.w3.org/2000/svg"
 width="800.000000pt" height="200.000000pt" viewBox="0 0 800.000000 200.000000"
 preserveAspectRatio="xMidYMid meet">

<g transform="translate(0.000000,200.000000) scale(0.100000,-0.100000)"
fill="#000000" stroke="none">
<path d="M6365 1740 l260 -260 427 0 428 0 0 -428 0 -427 260 -260 260 -260 0
948 0 947 -947 0 -948 0 260 -260z"/>
<path d="M350 1088 c-173 -430 -323 -801 -332 -825 l-18 -43 219 0 218 0 33
88 c18 48 46 122 62 165 l30 77 368 0 368 0 68 -165 68 -165 223 0 222 0 -32
73 c-18 39 -183 411 -367 825 l-334 752 -241 0 -240 0 -315 -782z m699 57 c67
-159 121 -296 121 -302 0 -10 -57 -13 -250 -13 -137 0 -250 2 -250 4 0 3 199
532 230 611 11 28 13 28 20 10 5 -11 63 -150 129 -310z"/>
<path d="M2070 1045 l0 -825 205 0 205 0 2 514 3 514 223 -259 c196 -228 226
-259 251 -259 26 0 57 32 253 260 l223 259 3 -514 2 -515 205 0 205 0 0 825 0
825 -182 -1 -183 0 -155 -181 c-85 -99 -204 -236 -263 -304 l-108 -124 -262
302 -263 303 -182 3 -182 2 0 -825z"/>
<path d="M4160 1046 l0 -826 398 0 c219 0 436 5 482 10 256 32 477 139 595
287 60 75 120 198 146 298 31 115 31 336 0 450 -80 299 -283 492 -606 577 -75
20 -110 22 -547 25 l-468 4 0 -825z m824 509 c250 -44 396 -230 396 -502 0
-167 -41 -284 -134 -381 -109 -114 -198 -142 -468 -149 l-198 -5 0 526 0 526
163 0 c94 -1 195 -7 241 -15z"/>
<path d="M6358 1103 l-268 -268 0 -373 0 -372 373 0 372 0 270 270 270 270
-372 0 -373 0 -2 370 -3 370 -267 -267z"/>
</g>
</svg>
