<svg width="36" height="44" viewBox="0 0 36 44" fill="none" xmlns="http://www.w3.org/2000/svg">
<path d="M29.3765 0.334373C32.6672 0.334373 35.3348 3.00201 35.3348 6.29271V37.7056C35.3348 40.9963 32.6672 43.6639 29.3765 43.6639H6.6263C3.3356 43.6639 0.667969 40.9963 0.667969 37.7056V6.29271C0.667969 3.56501 2.50089 1.26541 5.00227 0.558386L5.00049 4.12645C4.34313 4.6206 3.91797 5.407 3.91797 6.29271V37.7056C3.91797 39.2013 5.13053 40.4139 6.6263 40.4139H29.3765C30.8723 40.4139 32.0848 39.2013 32.0848 37.7056V6.29271C32.0848 4.79694 30.8723 3.58437 29.3765 3.58437L24.5013 3.58325V0.333252L29.3765 0.334373ZM22.3348 0.333252V17.9675C22.3348 19.5863 20.6028 20.1941 19.5416 19.6238L19.3617 19.5108L14.7554 16.7257L10.2529 19.4371C9.1702 20.2186 7.37038 19.7388 7.18392 18.2287L7.16818 17.9675V0.333252H22.3348ZM19.0848 3.58325H10.4182V15.5503L13.8269 13.494C14.3996 13.1946 15.0924 13.189 15.5976 13.4424L19.0848 15.5518V3.58325Z" fill="#00B39F"/>
</svg>