<svg width="52" height="52" viewBox="0 0 52 52" fill="none" xmlns="http://www.w3.org/2000/svg">
<path d="M17.5 28C18.8807 28 20 26.8807 20 25.5C20 24.1193 18.8807 23 17.5 23C16.1193 23 15 24.1193 15 25.5C15 26.8807 16.1193 28 17.5 28ZM28.5 25.5C28.5 26.8807 27.3807 28 26 28C24.6193 28 23.5 26.8807 23.5 25.5C23.5 24.1193 24.6193 23 26 23C27.3807 23 28.5 24.1193 28.5 25.5ZM34.5 28C35.8807 28 37 26.8807 37 25.5C37 24.1193 35.8807 23 34.5 23C33.1193 23 32 24.1193 32 25.5C32 26.8807 33.1193 28 34.5 28ZM20 33.5C20 34.8807 18.8807 36 17.5 36C16.1193 36 15 34.8807 15 33.5C15 32.1193 16.1193 31 17.5 31C18.8807 31 20 32.1193 20 33.5ZM26 36C27.3807 36 28.5 34.8807 28.5 33.5C28.5 32.1193 27.3807 31 26 31C24.6193 31 23.5 32.1193 23.5 33.5C23.5 34.8807 24.6193 36 26 36ZM8 14.25C8 10.7982 10.7982 8 14.25 8H37.75C41.2018 8 44 10.7982 44 14.25V37.75C44 41.2018 41.2018 44 37.75 44H14.25C10.7982 44 8 41.2018 8 37.75V14.25ZM14.25 10.5C12.1789 10.5 10.5 12.1789 10.5 14.25V16H41.5V14.25C41.5 12.1789 39.8211 10.5 37.75 10.5H14.25ZM10.5 37.75C10.5 39.8211 12.1789 41.5 14.25 41.5H37.75C39.8211 41.5 41.5 39.8211 41.5 37.75V18.5H10.5V37.75Z" fill="#00B39F"/>
</svg>