<svg width="52" height="52" viewBox="0 0 52 52" fill="none" xmlns="http://www.w3.org/2000/svg">
<path d="M27.0846 22.2083C27.0846 21.3108 27.8122 20.5833 28.7096 20.5833H36.293C37.1904 20.5833 37.918 21.3108 37.918 22.2083C37.918 23.1057 37.1904 23.8333 36.293 23.8333H28.7096C27.8122 23.8333 27.0846 23.1057 27.0846 22.2083ZM28.7098 32.4999C27.8123 32.4999 27.0848 33.2275 27.0848 34.1249C27.0848 35.0224 27.8123 35.7499 28.7098 35.7499H36.2928C37.1903 35.7499 37.9178 35.0224 37.9178 34.1249C37.9178 33.2275 37.1903 32.4999 36.2928 32.4999H28.7098ZM23.3587 21.1906C23.9933 20.556 23.9933 19.5271 23.3587 18.8925C22.7241 18.2579 21.6952 18.2579 21.0606 18.8925L17.8763 22.0768L16.8587 21.0592C16.2241 20.4246 15.1952 20.4246 14.5606 21.0592C13.926 21.6938 13.926 22.7227 14.5606 23.3573L16.7273 25.524C17.3619 26.1586 18.3907 26.1586 19.0253 25.524L23.3587 21.1906ZM23.3587 30.8092C23.9933 31.4438 23.9933 32.4727 23.3587 33.1073L19.0253 37.4406C18.3907 38.0752 17.3619 38.0752 16.7273 37.4406L14.5606 35.274C13.926 34.6394 13.926 33.6105 14.5606 32.9759C15.1952 32.3413 16.2241 32.3413 16.8587 32.9759L17.8763 33.9935L21.0606 30.8092C21.6952 30.1746 22.7241 30.1746 23.3587 30.8092ZM34.655 8.84966C34.4714 6.3247 32.3647 4.33325 29.793 4.33325H22.2096C19.7008 4.33325 17.6345 6.22848 17.3645 8.66537L13.543 8.66659C10.8506 8.66659 8.66797 10.8492 8.66797 13.5416V42.7916C8.66797 45.484 10.8506 47.6666 13.543 47.6666H38.4596C41.152 47.6666 43.3346 45.484 43.3346 42.7916V13.5416C43.3346 10.8492 41.152 8.66659 38.4596 8.66659L34.6381 8.66537C34.6448 8.72647 34.6505 8.7879 34.655 8.84966ZM34.6567 8.87448L34.668 9.20825C34.668 9.09607 34.6642 8.98477 34.6567 8.87448ZM22.2096 14.0833H29.793C31.483 14.0833 32.9722 13.2232 33.8468 11.9169L38.4596 11.9166C39.3571 11.9166 40.0846 12.6441 40.0846 13.5416V42.7916C40.0846 43.689 39.3571 44.4166 38.4596 44.4166H13.543C12.6455 44.4166 11.918 43.689 11.918 42.7916V13.5416C11.918 12.6441 12.6455 11.9166 13.543 11.9166L18.1558 11.917C19.0304 13.2233 20.5196 14.0833 22.2096 14.0833ZM22.2096 7.58325H29.793C30.6904 7.58325 31.418 8.31079 31.418 9.20825C31.418 10.1057 30.6904 10.8333 29.793 10.8333H22.2096C21.3122 10.8333 20.5846 10.1057 20.5846 9.20825C20.5846 8.31079 21.3122 7.58325 22.2096 7.58325Z" fill="#00B39F"/>
</svg>