<?xml version="1.0" encoding="utf-8"?>
<svg version="1.1" xmlns="http://www.w3.org/2000/svg" xmlns:xlink="http://www.w3.org/1999/xlink" x="0px" y="0px"
	 viewBox="0 0 595.3 841.9" style="enable-background:new 0 0 595.3 841.9;" xml:space="preserve">
<style type="text/css">
	.st0{display:none;}
	.st1{fill:none;stroke:#326CE5;stroke-width:3.3317;stroke-miterlimit:10;}
	.st2{fill:#326CE5;}
	.st3{fill:#FFFFFF;}
	.st4{fill:none;stroke:#326CE5;stroke-width:2.014;stroke-miterlimit:10;}
	.st5{fill:none;stroke:#326CE5;stroke-width:1.9139;stroke-miterlimit:10;}
	.st6{fill:#326CE5;}
	.st7{fill:none;stroke:#326CE5;stroke-width:3.6218;stroke-miterlimit:10;}
	.st8{fill:#326CE5;stroke:#326CE5;stroke-width:4.3352;stroke-miterlimit:10;}
	.st9{fill:none;stroke:#326CE5;stroke-width:0.6942;stroke-miterlimit:10;}
	.st10{fill:none;stroke:#326CE5;stroke-width:0.6596;stroke-miterlimit:10;}
	.st11{font-family:'Poppins-Regular';}
	.st12{font-size:12.6842px;}
</style>
<g id="Layer_1" class="st0">
</g>
<g id="Layer_2">
	<g>
		<path class="st1" d="M505.3,514.2H105.4c-6.9,0-12.5-5.6-12.5-12.5V367.1c0-6.9,5.6-12.5,12.5-12.5h399.9
			c6.9,0,12.5,5.6,12.5,12.5v134.6C517.8,508.6,512.1,514.2,505.3,514.2z"/>
		<path class="st2" d="M176.8,412.2L144,466.8c-7,11.6,1.4,26.5,15,26.5h65.7c13.6,0,22-14.8,15-26.5l-32.8-54.5
			C199.9,401,183.6,401,176.8,412.2z"/>
		<path class="st3" d="M191.3,430.6l-19.4,8.7c-0.9,0.4-1.6,1.2-1.8,2.2l-4.7,19.3c-0.2,1,0,2.1,0.7,2.9l13.3,15.6
			c0.6,0.7,1.5,1.2,2.5,1.2h21.6c1,0,1.9-0.4,2.5-1.2l13.3-15.6c0.7-0.8,0.9-1.9,0.7-2.9l-4.7-19.3c-0.2-1-0.9-1.8-1.8-2.2
			l-19.4-8.7C193.1,430.3,192.1,430.3,191.3,430.6z"/>
		<g>
			<ellipse class="st4" cx="192.6" cy="457.2" rx="14.2" ry="13.9"/>
			<ellipse class="st5" cx="192.6" cy="457.2" rx="3.4" ry="3.3"/>
			<path class="st2" d="M209.7,461.5c-0.5-0.1-1.2-0.2-2-0.4c-2-0.4-3.6-0.6-4.1-0.7c-3.4-0.5-8.3-0.3-9.4-0.3c0.3-0.3,0.9-1,1.1-2
				c0.3-1.4-0.1-2.5-0.2-2.8c0.7,0.3,5,2.4,8.7,3.2c1.9,0.4,4.2,0.7,4.2,0.7c0.8,0.1,1.5,0.1,2,0.2c0.5,0.3,0.7,0.9,0.6,1.4
				C210.4,461.3,209.8,461.5,209.7,461.5z"/>
			<path class="st2" d="M200.5,473.1c-0.3-0.4-0.6-1.1-1.1-1.8c-1.1-1.8-2-3.2-2.2-3.6c-2-2.9-5.3-6.6-6.1-7.4c0.4,0,1.3,0,2.2-0.5
				c1.2-0.7,1.8-1.7,1.9-2.1c0.2,0.8,1.6,5.4,3.5,8.8c1,1.7,2.3,3.7,2.3,3.7c0.5,0.7,0.9,1.2,1.2,1.6c0.1,0.6-0.2,1.2-0.6,1.4
				C201,473.5,200.5,473.1,200.5,473.1z"/>
			<path class="st2" d="M185.6,473.9c0.2-0.5,0.4-1.2,0.7-2c0.7-2,1.2-3.5,1.3-4c1-3.4,1.7-8.4,1.8-9.5c0.2,0.3,0.8,1,1.8,1.5
				c1.3,0.6,2.4,0.3,2.8,0.2c-0.4,0.6-3.1,4.7-4.5,8.3c-0.7,1.9-1.3,4.2-1.3,4.2c-0.2,0.8-0.4,1.5-0.5,1.9c-0.4,0.5-1,0.6-1.4,0.4
				C185.7,474.6,185.6,474,185.6,473.9z"/>
			<path class="st2" d="M175.3,461.9c0.5-0.1,1.2-0.4,2-0.6c1.9-0.6,3.5-1.2,3.9-1.4c3.3-1.2,7.5-3.7,8.4-4.3
				c-0.1,0.4-0.3,1.3,0,2.3c0.3,1.4,1.2,2.2,1.5,2.4c-0.8,0-5.5,0.3-9.2,1.4c-1.9,0.6-4,1.4-4,1.4c-0.7,0.3-1.4,0.6-1.8,0.8
				c-0.6,0-1.1-0.4-1.2-1C174.8,462.4,175.3,462,175.3,461.9z"/>
			<path class="st2" d="M176.5,448.9c0.4,0.2,1.1,0.6,1.8,1c1.8,1,3.2,1.9,3.6,2.1c3,1.9,6.6,5.2,7.5,5.9c0-0.4,0-1.3,0.4-2.3
				c0.6-1.3,1.6-1.9,1.9-2.1c-0.7-0.2-5.3-1.4-8.7-3.2c-1.7-0.9-3.7-2.2-3.7-2.2c-0.7-0.4-1.2-0.8-1.6-1.1c-0.6-0.1-1.1,0.2-1.3,0.7
				C176.1,448.3,176.5,448.9,176.5,448.9z"/>
			<path class="st2" d="M207.6,447.6c-0.4,0.3-1,0.7-1.7,1.2c-1.7,1.2-3,2.1-3.4,2.4c-2.8,2.1-6.2,5.7-7,6.5c0-0.4-0.1-1.3-0.6-2.3
				c-0.7-1.2-1.7-1.7-2.1-1.9c0.7-0.3,5.2-1.8,8.4-3.9c1.7-1.1,3.5-2.5,3.5-2.5c0.6-0.5,1.2-0.9,1.5-1.3c0.6-0.1,1.1,0.1,1.4,0.6
				C208,446.9,207.6,447.5,207.6,447.6z"/>
			<path class="st2" d="M193.6,439.1c0,0.5-0.1,1.3-0.1,2.1c-0.1,2.1-0.1,3.7,0,4.2c0,3.6,0.9,8.5,1.1,9.6c-0.3-0.2-1.1-0.7-2.1-0.8
				c-1.4-0.1-2.4,0.4-2.7,0.6c0.2-0.8,1.6-5.4,1.8-9.3c0.1-2,0-4.4,0-4.4c0-0.8-0.1-1.5-0.1-2c0.2-0.6,0.8-0.9,1.3-0.8
				C193.4,438.5,193.6,439.1,193.6,439.1z"/>
		</g>
		<g>
			<path class="st6" d="M329.1,374.2h-59.3c-4.1,0-7.4-3.3-7.4-7.4v-23.7c0-4.5,3.7-8.2,8.2-8.2h58.5c0.8,0,1.5,0.7,1.5,1.5v36.2
				C330.6,373.5,330,374.2,329.1,374.2z"/>
			<path class="st6" d="M358.9,351.1c-9.1-5.2-18.3-10.3-27.4-15.5c-2.5-1.5-5.7,0.3-5.7,3.1v32c0,2.8,3.2,4.6,5.7,3.1
				c9.3-5.1,18.6-10.1,27.8-15.2c1.4-0.8,2.3-2.3,2.2-3.9C361.4,353.1,360.4,351.7,358.9,351.1z"/>
		</g>
		<path class="st7" d="M401.6,389.9l-39.8,28.8c-5.4,3.9-7.6,10.8-5.5,17l15.2,46.5c2,6.3,7.9,10.5,14.5,10.5h49.3
			c6.6,0,12.4-4.2,14.5-10.5l15.2-46.5c2-6.3-0.2-13.2-5.5-17l-39.8-28.8C414.1,386.1,406.9,386.1,401.6,389.9z"/>
		<ellipse class="st8" cx="456.4" cy="463" rx="12.6" ry="12.3"/>
		<path class="st3" d="M456.1,453.8l-6.5,3c-0.3,0.1-0.5,0.4-0.6,0.8l-1.6,6.8c-0.1,0.3,0,0.7,0.2,1l4.5,5.4
			c0.2,0.3,0.5,0.4,0.9,0.4h7.2c0.3,0,0.7-0.2,0.9-0.4l4.5-5.4c0.2-0.3,0.3-0.6,0.2-1l-1.6-6.8c-0.1-0.3-0.3-0.6-0.6-0.8l-6.5-3
			C456.7,453.7,456.4,453.7,456.1,453.8z"/>
		<g>
			<ellipse transform="matrix(0.9824 -0.1869 0.1869 0.9824 -78.5062 93.4984)" class="st9" cx="456.5" cy="463" rx="4.9" ry="4.8"/>
			<ellipse transform="matrix(1 -1.834831e-03 1.834831e-03 1 -0.8488 0.8384)" class="st10" cx="456.5" cy="463" rx="1.2" ry="1.1"/>
			<path class="st2" d="M462.3,464.9c-0.2,0-0.4-0.1-0.7-0.2c-0.7-0.2-1.2-0.3-1.4-0.3c-1.2-0.2-2.8-0.3-3.2-0.3
				c0.1-0.1,0.3-0.3,0.4-0.7c0.1-0.5,0-0.9,0-1c0.2,0.1,1.7,0.9,2.9,1.3c0.6,0.2,1.4,0.3,1.4,0.3c0.3,0,0.5,0.1,0.7,0.1
				c0.2,0.1,0.2,0.3,0.2,0.5C462.5,464.8,462.3,464.9,462.3,464.9z"/>
			<path class="st2" d="M458.8,468.7c-0.1-0.2-0.2-0.4-0.3-0.7c-0.3-0.6-0.6-1.1-0.7-1.3c-0.6-1.1-1.7-2.4-1.9-2.7
				c0.1,0,0.4,0,0.8-0.1c0.4-0.2,0.6-0.6,0.7-0.7c0.1,0.3,0.4,1.9,1,3.1c0.3,0.6,0.7,1.3,0.7,1.3c0.1,0.2,0.3,0.4,0.4,0.6
				c0,0.2-0.1,0.4-0.2,0.5C459,468.8,458.8,468.7,458.8,468.7z"/>
			<path class="st2" d="M453.8,468.7c0.1-0.2,0.2-0.4,0.3-0.7c0.3-0.7,0.5-1.2,0.5-1.4c0.4-1.2,0.7-2.9,0.8-3.2
				c0.1,0.1,0.3,0.4,0.6,0.5c0.4,0.2,0.8,0.2,0.9,0.1c-0.2,0.2-1.2,1.6-1.7,2.8c-0.3,0.6-0.5,1.4-0.5,1.4c-0.1,0.3-0.2,0.5-0.2,0.7
				c-0.1,0.2-0.3,0.2-0.5,0.1C453.8,468.9,453.8,468.7,453.8,468.7z"/>
			<path class="st2" d="M450.5,464.3c0.2,0,0.4-0.1,0.7-0.2c0.7-0.2,1.2-0.3,1.4-0.4c1.1-0.4,2.6-1.1,3-1.3c0,0.1-0.1,0.4-0.1,0.8
				c0.1,0.5,0.4,0.8,0.5,0.9c-0.3,0-1.9,0-3.2,0.3c-0.7,0.2-1.4,0.4-1.4,0.4c-0.3,0.1-0.5,0.2-0.6,0.2c-0.2,0-0.4-0.2-0.4-0.4
				C450.3,464.5,450.5,464.3,450.5,464.3z"/>
			<path class="st2" d="M451.2,459.8c0.1,0.1,0.4,0.2,0.6,0.4c0.6,0.4,1,0.7,1.2,0.8c1,0.7,2.2,1.9,2.4,2.2c0-0.1,0-0.5,0.2-0.8
				c0.2-0.4,0.6-0.6,0.7-0.7c-0.2-0.1-1.8-0.6-2.9-1.3c-0.6-0.4-1.2-0.8-1.2-0.8c-0.2-0.2-0.4-0.3-0.5-0.4c-0.2,0-0.4,0-0.5,0.2
				C451.1,459.6,451.2,459.8,451.2,459.8z"/>
			<path class="st2" d="M461.8,460c-0.2,0.1-0.4,0.2-0.6,0.4c-0.6,0.4-1.1,0.7-1.2,0.8c-1,0.7-2.2,1.9-2.5,2.1c0-0.1,0-0.5-0.1-0.8
				c-0.2-0.4-0.6-0.6-0.7-0.7c0.3-0.1,1.8-0.5,3-1.2c0.6-0.3,1.2-0.8,1.2-0.8c0.2-0.2,0.4-0.3,0.5-0.4c0.2,0,0.4,0.1,0.5,0.2
				C462,459.8,461.9,460,461.8,460z"/>
			<path class="st2" d="M457.3,456.8c0,0.2,0,0.4-0.1,0.7c-0.1,0.7-0.1,1.3-0.1,1.5c-0.1,1.2,0.1,3,0.2,3.3
				c-0.1-0.1-0.4-0.3-0.7-0.3c-0.5-0.1-0.8,0.1-0.9,0.2c0.1-0.3,0.7-1.8,0.8-3.2c0.1-0.7,0.1-1.5,0.1-1.5c0-0.3,0-0.5,0-0.7
				c0.1-0.2,0.3-0.3,0.5-0.3C457.2,456.6,457.3,456.8,457.3,456.8z"/>
		</g>
		<text transform="matrix(1.0096 0 0 1 274.1777 360.3428)" class="st3 st11 st12">app:nginx</text>
	</g>
</g>
</svg>