<svg id="Layer_1" data-name="Layer 1" xmlns="http://www.w3.org/2000/svg" viewBox="0 0 1015.94 276.99"><title>service-mesh-patterns-side</title><path d="M187.89,45.23a91.36,91.36,0,0,1,13.92,25.08c4.39,11.62,6.39,23.72,3.89,36-3.37,16.46-13,28.06-29.1,33.63-6.26,2.16-12.73,3-19.21.32a8.79,8.79,0,0,1-2.47-1.34,16.31,16.31,0,0,1-4.09,10.4,8.92,8.92,0,0,1,2.65-.76,24.67,24.67,0,0,1,2.7-.37A70,70,0,0,0,181,141.87a91.94,91.94,0,0,0,30.95-24.37,83.77,83.77,0,0,0,12.3-19,105.75,105.75,0,0,0,8.68-32,130.14,130.14,0,0,0-.14-28.32c-.23-2.27-1.2-3.21-3.26-3.58-5.27-.93-10.53-2-15.7-3.24-13.53-3.28-27.17-6.05-40.73-9.21-4.82-1.12-9.66-2.13-14.49-3.2,3.55,3.38,7.36,6.16,11,9.1C176.17,33.26,182.62,38.62,187.89,45.23Z" fill="#00b39f"/><path d="M39,162.48C43.12,145,50,129,64.15,117.25c12.9-10.74,27.51-14.09,43.62-8.52,8.12,2.82,15.09,7.36,18.79,15.63a9.23,9.23,0,0,1,.79,2.31,16.2,16.2,0,0,1,9.22-4.37c-.21-.14-.43-.3-.67-.49-5-4-9.65-8.31-15.39-11.23-20.42-10.41-41.87-11.75-63.66-6.2-23.11,5.89-41,19.9-55.65,38.36-1.64,2.06-1.51,3.4-.16,5.5C12.42,165.91,23.68,183.68,35,201.4c1.49,2.35,3.05,4.66,5.09,7.76.22-5.23-.89-9.41-1.48-13.61C37.05,184.49,36.35,173.48,39,162.48Z" fill="#00d3a9"/><path d="M73.77,39.75a214.51,214.51,0,0,1,23.72-2.62c7.21-.4,14.25,1,21.22,2.84,16.5,4.32,31.31,11.56,42.16,25.21,10.36,13,12.85,27.66,7.29,43.34-2.84,8-7.65,14.66-15.85,18.28a4.86,4.86,0,0,1-1.85.48,16.26,16.26,0,0,1,4.38,9.56,13,13,0,0,1,1.25-1.68c6-7.15,11.45-14.65,14.57-23.6a93.31,93.31,0,0,0,5-36.6,89.3,89.3,0,0,0-9-34.93C159,24.57,148,11.84,134.5,1.14c-2-1.6-3.47-1.41-5.57-.07C111.59,12.23,94.14,23.23,76.77,34.33c-2.7,1.73-5.59,3.23-8.2,5.68A23.84,23.84,0,0,0,73.77,39.75Z" fill="#00d3a9"/><path d="M25,111.62c6.83-8.64,13.34-17.57,22.55-24,17-11.79,35.36-19.45,56.47-16.49,17,2.38,29.29,11.65,35.43,28,2.63,7,3.46,14.31.37,21.58a6.48,6.48,0,0,1-.75,1.39,16.26,16.26,0,0,1,9.61,3.46,6.5,6.5,0,0,1-.18-.73c-.16-.89-.16-1.81-.23-2.71a73.92,73.92,0,0,0-4.29-21c-5.46-14.38-14.81-25.79-26.34-35.72-17-14.64-37-20.92-59-21.76a111.06,111.06,0,0,0-18.76.52c-4.32.56-4.64.61-5.57,4.84q-6,27.51-12.1,55c-1.05,4.78-2.07,9.56-3.25,15C21.68,116.63,23.13,114,25,111.62Z" fill="#00b39f"/><path d="M276.17,128.93c-11.41-17.76-22.7-35.61-34.1-53.39-1.51-2.36-2.72-5-5.25-7.61.73,6.2,1.25,11.6,2,17,1.59,11.2,1.58,22.29-1.38,33.31-4.65,17.3-12.39,32.68-27,43.85a44.47,44.47,0,0,1-27.12,9.06,40.63,40.63,0,0,1-19.72-5.22c-5.36-2.88-9.93-6.62-12.63-12.25-.85-1.77-1.21-2.85-.94-3.57a16.22,16.22,0,0,1-9.73,4.64,25.28,25.28,0,0,1,2.73,2c5.1,4.15,10.19,8.3,16.19,11.15,16.71,7.94,34.36,9.63,52.33,6.79,27.1-4.27,47.64-19.48,64.48-40.39C277.64,132.4,277.46,130.93,276.17,128.93Z" fill="#00d3a9"/><path d="M240.25,180.15c-16.81,16.88-36.93,26.31-61.16,26.38-16.9.05-34.8-11.05-40.81-27.35-2.48-6.74-4.13-13.58-1.57-20.69a13.57,13.57,0,0,1,1.65-3.67,16.3,16.3,0,0,1-10.08-3.67,10.48,10.48,0,0,1,.56,2.81c.53,5.21.81,10.5,2.37,15.53,8.32,26.83,26.21,45.19,51.49,56.31,16.15,7.11,33.34,9.28,51,7.44,7.89-.82,7.94-.68,9.51-7.59,4.34-19.1,8.7-38.19,12.9-57.31.71-3.22,2-6.4,1.93-10.55-1,1.34-1.53,2-2,2.76C251.1,167.38,246.15,174.22,240.25,180.15Z" fill="#00b39f"/><path d="M92.16,235.27a87.58,87.58,0,0,1-17-29.48c-3.66-10.36-5.79-21-4-32.12,2.53-16.13,10.72-28.18,25.79-34.92,7.32-3.27,15-4.82,23-1.77a11.42,11.42,0,0,1,2.48,1.17,16.28,16.28,0,0,1,3.42-9.66,13.6,13.6,0,0,1-2,.26,99.68,99.68,0,0,0-12.88,1.64c-14.72,3.12-26.92,10.82-37.67,21a90.64,90.64,0,0,0-27.38,49.27A130.85,130.85,0,0,0,44,236.13c.34,4.61,2.25,6.25,6.86,7.19,19.28,3.92,38.44,8.48,57.66,12.68,3.28.71,6.49,1.93,10.83,2.06l-8.06-6.15C104.58,246.77,97.83,241.63,92.16,235.27Z" fill="#00b39f"/><path d="M207.13,236.87c-6.86,1.19-13.76,2-20.68,2.72a70.68,70.68,0,0,1-16.95,0,95.53,95.53,0,0,1-23.31-6.38c-11.62-4.89-22.16-11.29-30-21.44-9.44-12.25-12.62-25.9-8-40.79,2.63-8.43,7-15.95,15.5-20a6.65,6.65,0,0,1,3.3-1,16.26,16.26,0,0,1-4.64-9.5,18,18,0,0,1-1.2,1.57c-3.92,4.75-7.93,9.43-10.78,15-6.87,13.36-9.38,27.56-9,42.5a88,88,0,0,0,6.71,32.11c7.38,17.62,19.14,32,34,43.81,2.33,1.86,4,2,6.61.36,15-9.74,30.16-19.26,45.26-28.87,5-3.17,10-6.38,15-9.62A1.83,1.83,0,0,0,207.13,236.87Z" fill="#00d3a9"/><polygon points="643.62 110.79 643.62 114.23 643.62 130.41 643.62 150.14 643.62 178.94 720.3 178.94 720.3 162.76 659.8 162.76 659.8 150.14 659.8 146.58 706.28 146.58 706.28 130.41 659.8 130.41 659.8 114.23 720.3 114.23 720.3 98.05 643.62 98.05 643.62 110.79" fill="#3c494f"/><path d="M1015.94,157.8a20.38,20.38,0,0,1-1.67,8.2,20.89,20.89,0,0,1-4.59,6.73,22.08,22.08,0,0,1-6.74,4.53,20.56,20.56,0,0,1-8.25,1.68H919v-17h75.7a4.06,4.06,0,0,0,4.1-4.1v-6.58a4.06,4.06,0,0,0-4.1-4.1H940.23a20.13,20.13,0,0,1-8.19-1.67,21.41,21.41,0,0,1-11.38-11.38,20.13,20.13,0,0,1-1.67-8.19V119.3a20.52,20.52,0,0,1,1.67-8.25A21.64,21.64,0,0,1,932,99.72a20.3,20.3,0,0,1,8.19-1.67h75.71V115.2H940.23a4.06,4.06,0,0,0-4.1,4.1v6.58a4,4,0,0,0,4.1,4.09h54.46a20.73,20.73,0,0,1,8.25,1.67A21.87,21.87,0,0,1,1014.27,143a20.73,20.73,0,0,1,1.67,8.25Z" fill="#3c494f"/><path d="M741.69,113.48h41.49V130.3H749.76v15.42h7.66l29.34,33.22h20l-29.34-33.22h11.45a12.56,12.56,0,0,0,12.56-12.56V110.61a12.56,12.56,0,0,0-12.56-12.56h-63v80.89H742Z" fill="#3c494f"/><path d="M384,145.6h1.16a12.37,12.37,0,0,0,12.46-12.47V110.52a12.37,12.37,0,0,0-12.46-12.47h-63.2v80.89h16.23l-.29-65.52h41.46v16.52H346V145.6" fill="#3c494f"/><polygon points="428.9 98.05 396.54 178.94 415 178.94 436.99 122.32 452.67 162.76 427.18 162.76 421.14 178.94 477.44 178.94 445.08 98.05 428.9 98.05" fill="#3c494f"/><path d="M519.69,98.05h31.93V115.2H470.71V98.05h49" fill="#3c494f"/><rect x="502.59" y="122.38" width="17.15" height="56.56" fill="#3c494f"/><path d="M606.14,98.05h31.93V115.2H557.16V98.05h49" fill="#3c494f"/><rect x="589.04" y="122.38" width="17.15" height="56.56" fill="#3c494f"/><path d="M913.44,178.94H896.29v-59a4.58,4.58,0,0,0-.38-1.83,4.79,4.79,0,0,0-2.53-2.53,4.59,4.59,0,0,0-1.84-.38H812.28V98.05h79.26A21.11,21.11,0,0,1,900,99.78a21.68,21.68,0,0,1,11.7,11.7,21.09,21.09,0,0,1,1.73,8.46Zm-75.76,0H820.53V124.18h17.15Z" fill="#3c494f"/></svg>