<svg width="52" height="52" viewBox="0 0 52 52" fill="none" xmlns="http://www.w3.org/2000/svg">
<path d="M28.2922 16.1007C30.4075 13.9853 33.8372 13.9853 35.9525 16.1007C38.0678 18.216 38.0678 21.6456 35.9525 23.761C33.8372 25.8763 30.4075 25.8763 28.2922 23.761C26.1768 21.6456 26.1768 18.216 28.2922 16.1007ZM33.6544 18.3987C32.8083 17.5526 31.4364 17.5526 30.5903 18.3987C29.7441 19.2449 29.7441 20.6167 30.5903 21.4629C31.4364 22.309 32.8083 22.309 33.6544 21.4629C34.5005 20.6167 34.5005 19.2449 33.6544 18.3987ZM46.6035 9.36533C46.0212 7.49159 44.5537 6.02467 42.6797 5.44309L41.2453 4.99791C36.0593 3.38845 30.4085 4.7847 26.569 8.62428L24.4112 10.782C21.4434 8.55329 17.2118 8.78911 14.5115 11.4895L11.8193 14.1816C11.1847 14.8162 11.1847 15.8451 11.8193 16.4797L15.2664 19.9268L14.8768 20.3164C13.3961 21.7971 13.3961 24.1979 14.8768 25.6786L15.9501 26.7519L12.9264 28.4765C12.4862 28.7275 12.1884 29.1695 12.1209 29.6717C12.0535 30.1738 12.2241 30.6788 12.5824 31.0371L21.0088 39.4635C21.3668 39.8215 21.8713 39.9922 22.3732 39.9251C22.875 39.858 23.317 39.5608 23.5684 39.1213L25.2972 36.099L26.3744 37.1762C27.8551 38.6569 30.2559 38.6569 31.7366 37.1762L32.1197 36.7932L35.5638 40.2373C36.1984 40.8719 37.2273 40.8719 37.8619 40.2373L40.554 37.5451C43.2534 34.8458 43.49 30.6164 41.264 27.6488L43.4263 25.4866C47.2673 21.6455 48.663 15.992 47.0509 10.8047L46.6035 9.36533ZM41.7164 8.54705C42.5682 8.8114 43.2353 9.47818 43.5 10.3299L43.9473 11.7692C45.2012 15.8038 44.1156 20.201 41.1282 23.1885L29.4385 34.8781C29.227 35.0896 28.884 35.0896 28.6725 34.8781L17.1749 23.3805C16.9634 23.169 16.9634 22.826 17.1749 22.6145L28.8671 10.9224C31.8534 7.93604 36.2484 6.85007 40.282 8.10187L41.7164 8.54705ZM38.9238 29.989C39.9043 31.6481 39.6816 33.8213 38.2559 35.247L36.7128 36.7901L34.4178 34.4951L38.9238 29.989ZM16.8096 13.7876C18.2363 12.3608 20.4117 12.1389 22.0713 13.1219L17.5645 17.6287L15.2665 15.3307L16.8096 13.7876ZM22.9155 33.7173L21.8032 35.6617L16.3862 30.2446L18.3326 29.1344L22.9155 33.7173ZM14.4963 39.8547C15.1309 39.2201 15.1309 38.1913 14.4963 37.5567C13.8617 36.9221 12.8328 36.9221 12.1982 37.5567L6.83602 42.9189C6.20141 43.5535 6.20141 44.5824 6.83602 45.217C7.47062 45.8516 8.49951 45.8516 9.13411 45.217L14.4963 39.8547ZM10.2831 33.3435C10.9177 33.9781 10.9177 35.007 10.2831 35.6416L7.98499 37.9397C7.35038 38.5743 6.32149 38.5743 5.68689 37.9397C5.05229 37.3051 5.05229 36.2762 5.68689 35.6416L7.98499 33.3435C8.61959 32.7089 9.64848 32.7089 10.2831 33.3435ZM18.7051 44.0725C19.3397 43.4379 19.3397 42.409 18.7052 41.7744C18.0706 41.1398 17.0417 41.1397 16.4071 41.7743L14.1134 44.0679C13.4788 44.7025 13.4788 45.7314 14.1134 46.366C14.748 47.0006 15.7769 47.0006 16.4115 46.366L18.7051 44.0725Z" fill="#00B39F"/>
</svg>