<svg xmlns="http://www.w3.org/2000/svg" xmlns:xlink="http://www.w3.org/1999/xlink" id="Layer_1" x="0" y="0" version="1.1" viewBox="0 0 347.7 79.1" xml:space="preserve" style="enable-background:new 0 0 347.7 79.1"><style type="text/css">.st0{fill:#666}.st1{fill:#f99d1c}</style><g><g><g><path d="M9.1,79.1c-5.3,0-9-1.6-9-1.6v-4.6c0,0,5.6,1.8,8.9,1.8c2.9,0,5.8-0.5,5.8-4.1c0-2.7-2-3.3-4.5-4L8,66 c-3-0.9-8-2.1-8-8.2c0-6.8,5.5-8.5,11.2-8.5c5.1,0,8,1.7,8,1.7v4.5c0,0-3.8-1.8-8.2-1.8c-3.6,0-5.9,0.7-5.9,3.8 c0,2.7,2.1,3.3,4.6,4l2.8,0.8c3.3,0.9,7.5,2.8,7.5,8.2C20.1,77.3,15.1,79.1,9.1,79.1z" class="st0"/><path d="M39.4,79.1c-5.6,0-13.4-1.8-13.4-14.9c0-12.8,7.9-14.9,13.4-14.9c5.2,0,13.4,1.8,13.4,14.9 C52.8,77.5,44.7,79.1,39.4,79.1z M39.4,53.3c-3,0-8,0.9-8,10.9c0,10.1,5.8,10.8,8,10.8c2.7,0,8-1.1,8-10.8 C47.3,54.1,42.3,53.3,39.4,53.3z" class="st0"/><path d="M59.8,78.6V40.4h5.4v38.2H59.8z" class="st0"/><path d="M92,78.6l-0.5-3.7c0,0-3.3,4.3-9.4,4.3c-4.4,0-9.2-1.6-9.2-8.8c0-8,7.5-9.5,12.1-9.5h6.3v-2.5 c0-3.7-2.2-4.6-6-4.6c-4.6,0-10,2-10,2v-4.4c0,0,4.9-2,10.8-2c6.3,0,10.6,2.3,10.6,9.9v19.4H92z M91.3,64.1l-5.2,0.1 c-4.9,0.1-7.9,1.4-7.9,6c0,3.7,2.3,4.8,5.2,4.8c4,0,7.9-3.7,7.9-3.7V64.1z" class="st0"/><path d="M116.3,54.2c-3.2,0-5.7,3.5-5.7,3.5v20.9h-5.4V49.8h4.3l0.7,4c0,0,1.8-4.5,6.7-4.5c2.8,0,3.9,0.8,3.9,0.8V55 C120.8,55,119.1,54.2,116.3,54.2z" class="st0"/><path d="M163.6,78.6h-7.5l-4.5-15.3c-1.2-4.1-2.9-10.8-2.9-10.8s-1.8,6.8-3,10.7l-4.4,15.4h-7.5l-7.6-28.8h6.2 l3.5,16.5c0.8,3.8,1.7,9.8,1.7,9.8s1.1-6,2.3-9.8l4.9-16.5h7.8l4.9,16.5c1.1,3.7,2.3,9.8,2.3,9.8s0.9-5.5,1.8-9.8l3.5-16.5h6.1 L163.6,78.6z" class="st0"/><path d="M178,78.6V49.7h5.4v28.9H178z" class="st0"/><path d="M212,78.6V58.9c0-3.6-1.5-4.9-5.2-4.9c-4.8,0-9.5,3.6-9.5,3.6v21h-5.4V49.8h4.2l1.1,4.1 c0,0,4.8-4.6,10.9-4.6c5.3,0,9.3,2.3,9.3,9.7v19.6H212z" class="st0"/><path d="M245.6,78.6L245,75c0,0-3,4.2-9.3,4.2c-4.5,0-11.9-2-11.9-14.9c0-13.1,9.2-14.9,13-14.9 c5.2,0,7.6,2.9,7.6,2.9V40.4h5.4v38.2H245.6z M244.4,56.5c0,0-3-2.9-7.1-2.9c-4,0-8.1,1.6-8.1,10.6c0,9.5,4.2,10.6,7.6,10.6 c3.9,0,7.6-3.3,7.6-3.3V56.5z" class="st0"/><path d="M266.5,79.1c-5.3,0-9-1.6-9-1.6v-4.6c0,0,5.6,1.8,8.9,1.8c2.9,0,5.8-0.5,5.8-4.1c0-2.7-2-3.3-4.5-4l-2.3-0.6 c-3-0.9-8-2.1-8-8.2c0-6.8,5.5-8.5,11.2-8.5c5.1,0,8,1.7,8,1.7v4.5c0,0-3.8-1.8-8.2-1.8c-3.6,0-5.9,0.7-5.9,3.8 c0,2.7,2.1,3.3,4.6,4l2.8,0.8c3.3,0.9,7.5,2.8,7.5,8.2C277.5,77.3,272.6,79.1,266.5,79.1z" class="st0"/></g><g><path d="M302.8,32.3c0.3-0.1,0.5-0.1,0.7-0.2c5.5-1.6,10.8-3.7,16.2-5.9c5.2-2.2,10.3-4.8,14.9-8.5 C339.2,13.9,342.9,9,345,3c0.3-0.8,0.9-2.1,0.9-3c-7.2,9.9-35.9,10.9-35.9,10.9l6.8-6.2c-27.2,0.1-46.2,11.6-54.9,17.8 c11.1,1.2,21.2,5.9,29.1,13C294.9,34.3,298.9,33.4,302.8,32.3z" class="st1"/><path d="M347.7,31.3c0,0-26.4-2-53.9,6.8c3.6,3.8,6.7,8.2,9.1,12.9C317.3,43.1,337.4,32.8,347.7,31.3z" class="st1"/><path d="M304.7,55.2c1.7,4.3,2.8,8.9,3.3,13.7L333.2,43L304.7,55.2z" class="st1"/></g></g></g></svg>