<svg xmlns="http://www.w3.org/2000/svg" viewBox="0 0 62.362 62.362" width="62.362" height="62.362"><path d="M46.867 42.92H23.335a1 1 0 0 1-1-1c0-5.166 3.185-9.805 7.831-11.766a7.65 7.65 0 0 1-2.736-5.875c0-2.07.812-4.01 2.286-5.463s3.42-2.248 5.498-2.207c4.09.06 7.48 3.435 7.556 7.526a7.63 7.63 0 0 1-2.733 6.02c4.646 1.962 7.83 6.6 7.83 11.765a1 1 0 0 1-1 1m-22.154-2H45.49a.297.297 0 0 0 .295-.33c-.563-4.44-3.9-8.188-8.346-9.173a1 1 0 0 1-.168-1.9c.726-.302 1.4-.736 1.918-1.327 3.712-4.241.287-9.52-4.003-9.581a5.62 5.62 0 0 0-4.065 1.631c-1.836 1.81-2.282 4.643-.81 7.235.568.998 1.583 1.59 2.636 2.048a1 1 0 0 1-.183 1.894c-4.446.985-7.782 4.733-8.344 9.173a.297.297 0 0 0 .295.33Zm-2.904-6.375H17.42a2.93 2.93 0 0 1-2.925-2.926v-7.434a2.93 2.93 0 0 1 2.925-2.926h7.253a.625.625 0 1 1 0 1.25H17.42c-.924 0-1.675.752-1.675 1.675v7.435c0 .924.752 1.676 1.675 1.676h4.389a.625.625 0 0 1 0 1.25M20.55 37.98h-1.63a.625.625 0 0 1 0-1.25h1.63a.625.625 0 0 1 0 1.25" style="fill:#DA291C"/></svg>