<svg xmlns="http://www.w3.org/2000/svg" id="Ebene_2" version="1.1" viewBox="0 0 62.362 62.362" width="62.362" height="62.362"><defs><style>.st0{fill:#DA291C}</style></defs><path d="M42.268 44.132H20.095a5.07 5.07 0 0 1-5.066-5.066v-15.77a5.07 5.07 0 0 1 5.066-5.065h22.173a5.07 5.07 0 0 1 5.065 5.065v15.77a5.07 5.07 0 0 1-5.065 5.066M20.095 20.209a3.09 3.09 0 0 0-3.087 3.087v15.77a3.09 3.09 0 0 0 3.087 3.087h22.173a3.09 3.09 0 0 0 3.087-3.087v-15.77a3.09 3.09 0 0 0-3.087-3.087z" class="st0"/><path d="M21.09 29.094a.213.213 0 0 0 .3 0l2.691-2.691a.45.45 0 0 0 0-.632l-2.69-2.69a.21.21 0 0 0-.3 0l-.577.575a.21.21 0 0 0 0 .3l1.866 1.866a.375.375 0 0 1 0 .53l-1.866 1.866a.21.21 0 0 0 0 .3z" class="st0"/></svg>