<svg xmlns="http://www.w3.org/2000/svg" viewBox="0 0 62.362 62.362" width="62.362" height="62.362"><path d="M44.233 19.862c-.007-3.39-5.616-5.945-13.054-5.945s-13.048 2.555-13.055 5.945v20.349c0 3.866 6.726 5.952 13.055 5.952s13.054-2.086 13.054-5.952zm-24.11 9.857c1.712 1.094 5.075 2.5 11.056 2.5 5.99 0 9.35-1.411 11.054-2.506v5.237c-1.11.904-4.251 2.803-11.054 2.803-6.78 0-9.93-1.886-11.055-2.794zm22.11-1.553c-1.11.903-4.251 2.802-11.054 2.802-6.78 0-9.93-1.886-11.055-2.793v-5.062c2.27 1.651 6.28 2.707 11.055 2.707s8.785-1.056 11.054-2.707zM31.18 15.916c6.848 0 11.054 2.302 11.054 3.952S38.027 23.82 31.18 23.82s-11.055-2.302-11.055-3.952 4.205-3.952 11.055-3.952m0 28.247c-6.85 0-11.055-2.302-11.055-3.952v-3.707c1.711 1.093 5.074 2.499 11.055 2.499 5.99 0 9.35-1.41 11.054-2.505v3.713c0 1.65-4.206 3.952-11.054 3.952" style="fill:#DA291C"/></svg>