<svg xmlns="http://www.w3.org/2000/svg" id="Ebene_2" version="1.1" viewBox="0 0 62.362 62.362" width="62.362" height="62.362"><defs><style>.st0{fill:#DA291C}</style></defs><path d="M42.324 42.85H20.038a4.976 4.976 0 0 1-4.97-4.97V21.905c0-2.74 2.23-4.97 4.97-4.97h22.286c2.74 0 4.97 2.23 4.97 4.97V37.88c0 2.741-2.23 4.97-4.97 4.97M20.038 18.935a2.974 2.974 0 0 0-2.97 2.97V37.88a2.974 2.974 0 0 0 2.97 2.97h22.286a2.974 2.974 0 0 0 2.97-2.97V21.905a2.973 2.973 0 0 0-2.97-2.97zm16.248 27.91h-10.21a1 1 0 1 1 0-2h10.21a1 1 0 1 1 0 2" class="st0"/><g id="Shopping-E-Commerce__x2F__Shopping-Bags__x2F__shopping-bag-tag-1"><g id="Group_113"><g id="shopping-bag-tag-1"><path d="M23.684 37.16a2.03 2.03 0 0 1-1.477-.73 2 2 0 0 1-.439-1.558l1.808-10.707c.05-.952.865-1.753 1.886-1.796H36.9a1.973 1.973 0 0 1 1.895 1.864l1.798 10.622a2.03 2.03 0 0 1-.435 1.574c-.36.434-.886.7-1.445.73zm1.804-13.541a.72.72 0 0 0-.672.686l-1.813 10.759a.76.76 0 0 0 .714.847l14.962-.002a.76.76 0 0 0 .513-.275.77.77 0 0 0 .164-.588l-1.802-10.673c-.03-.44-.323-.733-.695-.754z" class="st0"/><path d="M31.186 29.21a4.03 4.03 0 0 1-3.942-3.268.624.624 0 1 1 1.228-.234 2.78 2.78 0 0 0 2.714 2.252 2.78 2.78 0 0 0 2.709-2.238.63.63 0 0 1 .733-.493c.339.067.56.395.493.734a4.034 4.034 0 0 1-3.935 3.247" class="st0"/></g></g></g></svg>