<svg xmlns="http://www.w3.org/2000/svg" viewBox="0 0 62.362 62.362"><path d="M31.315 62.362C13.483 62.362 0 47.59 0 31.315 0 12.633 15.557 0 31.08 0c18.602 0 31.282 15.34 31.282 30.947 0 19.05-15.657 31.415-31.047 31.415" style="fill:#da291c"/><path d="m52.362 26.9-2.782.007 3.32 3.269-6.817.018a17.2 17.2 0 0 0-4.17-10.304l4.785-4.785-.026 4.66 1.968-1.968-.02-6.031-6.027-.015-1.967 1.967 4.66-.026-4.768 4.767c-3.082-2.833-7.178-4.58-11.684-4.58-9.54 0-17.3 7.761-17.3 17.3s7.76 17.3 17.3 17.3c4.519 0 8.626-1.757 11.71-4.605l4.795 4.795-4.659-.026 1.967 1.968 6.032-.021.015-6.025-1.968-1.969.026 4.661-4.815-4.815a17.2 17.2 0 0 0 4.145-10.25l6.822-.019-3.306 3.285 2.783-.006 4.24-4.29zM28.834 46.48c-8.436 0-15.3-6.864-15.3-15.3s6.864-15.3 15.3-15.3 15.299 6.864 15.299 15.3-6.863 15.3-15.3 15.3" style="fill:#fff"/></svg>