<svg xmlns="http://www.w3.org/2000/svg" id="pfeile" version="1.1" viewBox="0 0 62.362 62.362" width="62.362" height="62.362"><defs><style>.st0{fill:#DA291C}</style></defs><path d="M31.181 15.117c8.858 0 16.064 7.206 16.064 16.064S40.039 47.245 31.18 47.245 15.117 40.039 15.117 31.18s7.206-16.064 16.064-16.064m0-2c-9.976 0-18.064 8.088-18.064 18.064s8.088 18.064 18.064 18.064 18.064-8.087 18.064-18.064-8.087-18.064-18.064-18.064" class="st0"/><circle cx="31.181" cy="31.181" r="1.63" class="st0"/><path d="m39.059 37.639 3.23 3.23-1.41 1.41-3.23-3.23.03 4.66-1.97-1.96.01-6.03 6.04-.02 1.96 1.97zM24.687 18.657l.03 4.66-3.23-3.23-1.41 1.41 3.23 3.23-4.66-.03 1.96 1.97 6.04-.02.01-6.03zm14.369 6.057 3.23-3.22-1.42-1.42-3.22 3.23.02-4.66-1.97 1.97.02 6.03 6.03.01 1.97-1.96zM24.692 43.719l.03-4.66-3.23 3.23-1.41-1.42 3.23-3.22-4.66.02 1.97-1.97 6.02.02.02 6.03z" class="st0"/></svg>