<svg xmlns="http://www.w3.org/2000/svg" id="Ebene_3_flach_x5F_pfad" version="1.1" viewBox="0 0 62.362 62.362"><defs><style>.st0{fill:#fff}</style></defs><path d="M31.315 62.362C13.483 62.362 0 47.59 0 31.315 0 12.633 15.557 0 31.08 0c18.602 0 31.282 15.34 31.282 30.947 0 19.05-15.657 31.415-31.047 31.415" style="fill:#da291c"/><path d="M31.181 38.415c-3.473 0-6.3-2.826-6.3-6.3s2.827-6.3 6.3-6.3 6.3 2.827 6.3 6.3-2.827 6.3-6.3 6.3m0-11.35c-2.785 0-5.05 2.265-5.05 5.05s2.265 5.05 5.05 5.05 5.05-2.266 5.05-5.05-2.265-5.05-5.05-5.05" class="st0"/><path d="M44.268 43.04H18.095a3.51 3.51 0 0 1-3.505-3.504V23.461a3.51 3.51 0 0 1 3.505-3.504h26.173a3.51 3.51 0 0 1 3.504 3.504v16.075a3.51 3.51 0 0 1-3.504 3.504M18.095 21.957c-.83 0-1.505.674-1.505 1.504v16.075c0 .83.675 1.504 1.505 1.504h26.173c.829 0 1.504-.675 1.504-1.504V23.461c0-.83-.675-1.504-1.504-1.504zm6.698-3h-4.12a1 1 0 0 1 0-2h4.12a1 1 0 0 1 0 2" class="st0"/><path d="M42.773 25.932h-4.119a1 1 0 1 1 0-2h4.12a1 1 0 1 1 0 2" class="st0"/></svg>