<svg xmlns="http://www.w3.org/2000/svg" viewBox="0 0 62.362 62.362"><path d="M31.315 62.362C13.483 62.362 0 47.59 0 31.315 0 12.633 15.557 0 31.08 0c18.602 0 31.282 15.34 31.282 30.947 0 19.05-15.657 31.415-31.047 31.415" style="fill:#da291c"/><path d="M45.756 19.312c0-4.85-11.156-5.227-14.575-5.227s-14.575.377-14.575 5.227c0 .18.02.353.05.521l3.583 23.213s.047.311.109.485c.046.134.095.235.131.302 1.385 2.73 7.94 3.027 10.702 3.027s9.317-.296 10.702-3.027a3.5 3.5 0 0 0 .244-.816c.074-.409 3.359-21.744 3.584-23.207.027-.16.045-.326.045-.498M31.18 16.085c7.87 0 12.575 1.641 12.575 3.227 0 .53-.537 1.065-1.53 1.544-1.716-1.022-5.668-2.02-11.041-2.02-5.52 0-9.217 1.083-10.899 2.09-1.09-.497-1.68-1.058-1.68-1.614 0-1.586 4.703-3.226 12.575-3.226m9.417 5.38c-2.164.637-5.367 1.073-9.417 1.073-3.955 0-7.108-.415-9.269-1.028 1.705-.69 4.767-1.425 9.272-1.425 4.42 0 7.647.697 9.414 1.38m-.425 21.27c-.024.1-.034.112-.072.188-.38.778-3.07 1.936-8.92 1.936s-8.817-1.325-8.944-1.98l-.022-.144-3.112-20.163c3.493 1.778 9.682 1.966 12.077 1.966 2.397 0 8.592-.188 12.085-1.969z" style="fill:#fff"/></svg>