<svg xmlns="http://www.w3.org/2000/svg" id="pfeile" version="1.1" viewBox="0 0 62.362 62.362"><defs><style>.st0{fill:#fff}</style></defs><path d="M31.315 62.362C13.483 62.362 0 47.59 0 31.315 0 12.633 15.557 0 31.08 0c18.603 0 31.282 15.34 31.282 30.947 0 19.05-15.657 31.415-31.047 31.415" style="fill:#da291c"/><path d="M31.181 13.67c8.858 0 16.064 7.205 16.064 16.063v3.898a1 1 0 1 0 2 0v-3.898c0-9.977-8.087-18.064-18.064-18.064s-18.064 8.087-18.064 18.064v3.897a1 1 0 1 0 2 0v-3.897c0-8.858 7.207-16.064 16.064-16.064" class="st0"/><path d="M18.747 28.156c-.896 0-1.625.729-1.625 1.625v9.693c0 .896.729 1.625 1.625 1.625s1.625-.73 1.625-1.625V29.78c0-.896-.73-1.625-1.625-1.625M45.24 29.78v9.69c0 .67-.41 1.25-.99 1.5-.33 4.85-4.37 8.69-9.3 8.69a1.62 1.62 0 0 1-1.5 1.01 1.63 1.63 0 0 1 0-3.26c.67 0 1.25.41 1.5 1 4.24 0 7.72-3.28 8.04-7.44-.59-.25-1-.83-1-1.5v-9.69c0-.9.73-1.62 1.63-1.62.89 0 1.62.72 1.62 1.62" class="st0"/></svg>