<svg xmlns="http://www.w3.org/2000/svg" viewBox="0 0 62.362 62.362"><path d="M31.315 62.362C13.483 62.362 0 47.59 0 31.315 0 12.633 15.557 0 31.08 0c18.602 0 31.282 15.34 31.282 30.947 0 19.05-15.657 31.415-31.047 31.415" style="fill:#da291c"/><path d="M19.182 39.144a1 1 0 0 1-1-1V24.488a1 1 0 0 1 2 0v13.656a1 1 0 0 1-1 1m4 0a1 1 0 0 1-1-1V22.949a1 1 0 0 1 2 0v15.195a1 1 0 0 1-1 1m4 0a1 1 0 0 1-1-1v-16.76a1 1 0 0 1 2 0v16.76a1 1 0 0 1-1 1m4 0a1 1 0 0 1-1-1v-15.19a1 1 0 0 1 2 0v15.19a1 1 0 0 1-1 1m4 0a1 1 0 0 1-1-1V24.488a1 1 0 1 1 2 0v13.656a1 1 0 0 1-1 1m4 0a1 1 0 0 1-1-1V25.927a1 1 0 1 1 2 0v12.217a1 1 0 0 1-1 1m4 0a1 1 0 0 1-1-1V24.488a1 1 0 1 1 2 0v13.656a1 1 0 0 1-1 1m4 0a1 1 0 0 1-1-1v-15.19a1 1 0 1 1 2 0v15.19a1 1 0 0 1-1 1m-32.002 0a1 1 0 0 1-1-1v-12.22a1 1 0 0 1 2 0v12.22a1 1 0 0 1-1 1" style="fill:#fff"/></svg>