<svg xmlns="http://www.w3.org/2000/svg" id="Ebene_2" version="1.1" viewBox="0 0 62.362 62.362" width="62.362" height="62.362"><defs><style>.st0{fill:#DA291C}</style></defs><path d="M24.006 46.738c-.203 0-.5-.025-.755-.145l-5.478-2.555c-.33-.154-.525-.438-.52-.76.004-.217.106-.623.74-.89.301-.127.66-.197 1.01-.197.202 0 .497.026.753.144l5.479 2.556c.331.155.525.44.519.761-.004.217-.105.623-.74.89a2.7 2.7 0 0 1-1.008.196" class="st0"/><path d="M31.876 31.887q.464 0 .884.196l14.2 6.621c.211.099.24.281.238.381a.39.39 0 0 1-.252.372L32.757 45.44a2.5 2.5 0 0 1-2.033-.038L16.69 38.857a.39.39 0 0 1-.238-.38.39.39 0 0 1 .252-.372l14.358-6.054q.39-.164.813-.164m0-1.25c-.442 0-.883.087-1.299.262L16.22 36.953c-1.328.56-1.363 2.428-.057 3.037l14.034 6.544a3.76 3.76 0 0 0 3.047.057l14.188-5.982c1.328-.56 1.363-2.429.057-3.038l-14.2-6.621a3.3 3.3 0 0 0-1.412-.313Z" class="st0"/><path d="M23.669 37.96c-.203 0-.498-.024-.754-.144l-5.48-2.555c-.33-.154-.525-.439-.518-.76.004-.219.105-.624.74-.891a2.7 2.7 0 0 1 1.008-.196c.202 0 .497.025.754.144l5.479 2.556c.33.154.525.438.519.76-.004.218-.106.623-.741.89a2.7 2.7 0 0 1-1.007.196" class="st0"/><path d="M31.539 23.11c.307 0 .605.065.884.195l14.2 6.622c.21.098.24.28.237.38a.39.39 0 0 1-.251.373l-14.19 5.982a2.5 2.5 0 0 1-2.032-.038L16.353 30.08a.39.39 0 0 1-.237-.381.39.39 0 0 1 .251-.372l14.359-6.053c.258-.11.532-.165.813-.165m0-1.25c-.442 0-.884.088-1.3.263l-14.357 6.053c-1.328.56-1.363 2.429-.057 3.038l14.033 6.544a3.76 3.76 0 0 0 3.047.056l14.19-5.982c1.327-.56 1.362-2.428.056-3.037l-14.2-6.622a3.3 3.3 0 0 0-1.413-.313" class="st0"/><path d="M23.33 29.183c-.201 0-.496-.025-.753-.144l-5.479-2.556c-.331-.154-.525-.44-.519-.76.004-.219.106-.623.74-.89a2.7 2.7 0 0 1 1.008-.197c.203 0 .499.026.755.145l5.478 2.555c.331.154.525.439.52.76-.005.218-.106.623-.74.89a2.7 2.7 0 0 1-1.01.197" class="st0"/><path d="M31.201 14.332q.464 0 .884.196l14.2 6.621c.212.099.24.281.238.381a.39.39 0 0 1-.252.372l-14.189 5.982a2.5 2.5 0 0 1-2.033-.038l-14.033-6.544a.39.39 0 0 1-.238-.38.39.39 0 0 1 .252-.373l14.358-6.053q.39-.164.813-.164m0-1.25c-.441 0-.883.087-1.298.262l-14.358 6.053c-1.328.56-1.363 2.43-.057 3.038L29.52 28.98a3.76 3.76 0 0 0 3.047.057l14.189-5.982c1.328-.56 1.363-2.429.057-3.038l-14.2-6.621a3.3 3.3 0 0 0-1.413-.314Z" class="st0"/></svg>