<svg xmlns="http://www.w3.org/2000/svg" viewBox="0 0 62.362 62.362"><path d="M31.315 62.362C13.483 62.362 0 47.59 0 31.315 0 12.633 15.557 0 31.08 0c18.602 0 31.282 15.34 31.282 30.947 0 19.05-15.657 31.415-31.047 31.415" style="fill:#da291c"/><path d="M31.136 12.393c-10.32 0-18.717 8.396-18.717 18.716s8.396 18.717 18.717 18.717S49.853 41.43 49.853 31.11s-8.397-18.716-18.717-18.716m0 2c4.28 0 8.175 1.63 11.135 4.284L18.703 42.245c-2.654-2.96-4.284-6.856-4.284-11.135 0-9.218 7.5-16.717 16.717-16.717Zm0 33.433c-4.22 0-8.068-1.584-11.013-4.172L43.68 20.097c2.589 2.945 4.173 6.793 4.173 11.012 0 9.218-7.5 16.717-16.717 16.717" style="fill:#fff"/></svg>