<svg width="399" height="88" viewBox="0 0 399 88" fill="none" xmlns="http://www.w3.org/2000/svg">
<g clip-path="url(#clip0_2_97)">
<path d="M43.4281 20.7459V41.7553L60.9004 31.2067L43.4281 20.7459Z" fill="#00D3A9"/>
<path d="M43.4281 46.1569V67.276L61.0583 56.7604L43.4281 46.1569Z" fill="#00D3A9"/>
<path d="M40.9126 41.6126V20.9215L23.6613 31.2286L40.9126 41.6126Z" fill="#00B39F"/>
<path d="M6.31529 67.1992C9.70327 72.8674 14.2767 77.6631 19.6932 81.2274V59.1204L6.31529 67.1992Z" fill="#00B39F"/>
<path d="M40.9126 67.1772V46.3106L23.6192 56.7494L40.9126 67.1772Z" fill="#00B39F"/>
<path d="M22.2088 79.9212L39.7232 69.4824L22.2088 58.9228V79.9212Z" fill="#00D3A9"/>
<path d="M62.2582 80.0419V59.0655L44.7649 69.4933L62.2582 80.0419Z" fill="#00B39F"/>
<path d="M79.3832 64.7624C82.378 58.9466 84.0728 52.4998 84.3407 45.9045L66.1106 56.7714L79.3832 64.7624Z" fill="#00B39F"/>
<path d="M64.7738 54.5541L82.3409 44.0713L64.7738 33.5337V54.5541Z" fill="#00D3A9"/>
<path d="M62.2582 29.0004V8.15567L44.8491 18.5616L62.2582 29.0004Z" fill="#00B39F"/>
<path d="M62.2582 54.4553V33.424L44.807 43.9616L62.2582 54.4553Z" fill="#00B39F"/>
<path d="M22.2088 33.3801V54.576L39.7863 43.9616L22.2088 33.3801Z" fill="#00D3A9"/>
<path d="M40.9125 0C34.4471 0.195638 28.1118 1.9422 22.3982 5.10415L40.9125 16.2125V0Z" fill="#00B39F"/>
<path d="M22.2088 8.02395V29.0772L39.7969 18.5616L22.2088 8.02395Z" fill="#00D3A9"/>
<path d="M19.6932 6.73968C14.2727 10.3082 9.69875 15.112 6.31529 20.7898L19.7037 28.8467L19.6932 6.73968Z" fill="#00B39F"/>
<path d="M62.1003 5.20294C56.3474 1.98209 49.9549 0.200848 43.4281 0V16.3882L62.1003 5.20294Z" fill="#00D3A9"/>
<path d="M0 45.5312C0.218538 52.3198 1.94435 58.9629 5.04171 64.938L18.5985 56.7494L0 45.5312Z" fill="#00D3A9"/>
<path d="M5.04171 23.051C1.96 28.9932 0.234668 35.5968 0 42.348L18.6196 31.2286L5.04171 23.051Z" fill="#00D3A9"/>
<path d="M22.3561 82.8629C28.0798 86.0397 34.4313 87.7905 40.9126 87.9781V71.7984L22.3561 82.8629Z" fill="#00B39F"/>
<path d="M78.0675 20.8557C74.708 15.1905 70.1634 10.391 64.7738 6.81651V28.8796L78.0675 20.8557Z" fill="#00D3A9"/>
<path d="M64.7738 81.2274C70.2004 77.6137 74.7678 72.7604 78.1307 67.0346L64.7738 58.9996V81.2274Z" fill="#00D3A9"/>
<path d="M84.3407 42.2382C84.0946 35.5488 82.3806 29.0073 79.3306 23.1169L65.9316 31.2067L84.3407 42.2382Z" fill="#00B39F"/>
<path d="M43.4281 87.978C49.8939 87.7941 56.231 86.0508 61.9425 82.8849L43.4281 71.7216V87.978Z" fill="#00D3A9"/>
<path d="M19.6932 54.3785V33.5996L2.38928 43.9506L19.6932 54.3785Z" fill="#00B39F"/>
<path d="M284.125 32.2604V33.907V41.6345V51.0745V64.8502H319.301V57.1116H291.545V51.0745V49.3731H312.87V41.6345H291.545V33.907H319.301V26.1684H284.125V32.2604Z" fill="#3C494F"/>
<path d="M148.841 32.2604V33.907V41.6345V51.0745V64.8502H184.017V57.1116H156.261V51.0745V49.3731H177.586V41.6345H156.261V33.907H184.017V26.1684H148.841V32.2604Z" fill="#3C494F"/>
<path d="M232.697 54.7407C232.708 56.0887 232.446 57.4239 231.929 58.6593C231.44 59.8704 230.724 60.9675 229.824 61.8865C228.937 62.8137 227.891 63.5585 226.74 64.0818C225.543 64.6177 224.253 64.8905 222.951 64.8831H188.217V56.7055H222.951C223.199 56.707 223.444 56.6571 223.673 56.5589C223.903 56.4607 224.111 56.316 224.286 56.1333C224.461 55.9505 224.6 55.7333 224.694 55.4943C224.788 55.2553 224.836 54.9991 224.835 54.7407V51.5904C224.838 51.3316 224.791 51.0749 224.697 50.8354C224.603 50.596 224.464 50.3786 224.288 50.1963C224.113 50.0131 223.904 49.869 223.674 49.7727C223.445 49.6765 223.198 49.6301 222.951 49.6365H197.974C196.681 49.6477 195.401 49.3747 194.216 48.8352C191.844 47.7898 189.956 45.8209 188.953 43.3469C188.441 42.1099 188.179 40.7757 188.185 39.4282V36.3218C188.183 34.9676 188.444 33.6269 188.953 32.3812C189.456 31.1779 190.17 30.0833 191.059 29.154C191.964 28.2149 193.037 27.4692 194.216 26.9587C195.403 26.428 196.682 26.1589 197.974 26.1684H232.708V34.368H197.974C197.727 34.3665 197.482 34.416 197.254 34.5135C197.025 34.6111 196.817 34.7548 196.642 34.9363C196.467 35.1179 196.328 35.3338 196.233 35.5716C196.139 35.8093 196.09 36.0643 196.09 36.3218V39.516C196.088 39.7745 196.136 40.0306 196.23 40.2697C196.325 40.5087 196.463 40.7259 196.638 40.9086C196.814 41.0914 197.022 41.236 197.251 41.3343C197.48 41.4325 197.726 41.4823 197.974 41.4809H222.951C224.252 41.4734 225.541 41.7423 226.74 42.2712C227.89 42.7966 228.936 43.5411 229.824 44.4665C230.716 45.3929 231.43 46.4882 231.929 47.6937C232.444 48.9374 232.706 50.2794 232.697 51.6343V54.7407Z" fill="#3C494F"/>
<path d="M279.494 64.8502H272.41V49.6365H244.823V64.8502H237.75V41.437H272.41V26.1684H279.494V64.8502ZM244.823 37.8037H237.75V26.1684H244.823V37.8037Z" fill="#3C494F"/>
<path d="M380.444 39.7026L371.171 26.1684H361.898L376.739 49.3731V64.8502H384.159V49.3731L399 26.1684H389.843L380.444 39.7026Z" fill="#3C494F"/>
<path d="M331.921 33.5447H350.941V41.5906H335.616V48.9669H339.131L352.604 64.8502H361.761L348.288 48.9669H353.551C354.308 48.9669 355.058 48.8114 355.758 48.5091C356.458 48.2068 357.094 47.7637 357.63 47.2051C358.165 46.6466 358.59 45.9834 358.88 45.2536C359.17 44.5238 359.319 43.7417 359.319 42.9517V32.1726C359.319 31.3832 359.17 30.6016 358.88 29.8724C358.59 29.1432 358.165 28.4808 357.629 27.9231C357.093 27.3654 356.457 26.9234 355.757 26.6223C355.058 26.3212 354.308 26.1669 353.551 26.1684H324.648V64.8502H332.068L331.921 33.5447Z" fill="#3C494F"/>
<path d="M143.147 64.8502H135.284V36.6401C135.288 36.3383 135.231 36.039 135.116 35.762C134.887 35.2168 134.47 34.7816 133.947 34.5436C133.682 34.4235 133.395 34.3636 133.105 34.368H96.7397V26.1684H133.095C134.43 26.1613 135.752 26.4415 136.979 26.9916C138.183 27.5092 139.278 28.2703 140.199 29.2311C141.121 30.1919 141.85 31.3334 142.347 32.5897C142.874 33.8689 143.143 35.2478 143.136 36.6401L143.147 64.8502ZM104.623 64.8502H96.7397V34.368L104.613 32.1726L104.623 64.8502ZM123.864 64.8502H115.991V38.6598H123.864V64.8502Z" fill="#3C494F"/>
<g clip-path="url(#clip1_2_97)">
<path d="M284.55 30.6852V32.5305V41.2672V51.9145V67.4445H319.528V58.7242H291.924V51.9145V49.9875H313.135V41.2672H291.924V32.5305H319.528V23.8102H284.55V30.6852Z" fill="white"/>
<path d="M149.966 30.6852V32.5305V41.2672V51.9145V67.4445H184.958V58.7242H157.354V51.9145V49.9875H178.551V41.2672H157.354V32.5305H184.958V23.8102H149.966V30.6852Z" fill="white"/>
<path d="M233.387 56.046C233.372 59.0712 232.345 61.9662 230.528 64.0968C229.64 65.1334 228.596 65.9643 227.449 66.5463C226.263 67.1501 224.984 67.456 223.693 67.4445H189.17V58.2506H223.693C223.939 58.255 224.183 58.201 224.411 58.0918C224.639 57.9825 224.846 57.8203 225.019 57.6147C225.193 57.4091 225.33 57.1643 225.423 56.8949C225.515 56.6254 225.561 56.3367 225.557 56.046V52.5024C225.567 52.201 225.525 51.9003 225.432 51.6193C225.339 51.3383 225.199 51.0829 225.019 50.8693C224.84 50.653 224.624 50.4843 224.386 50.3745C224.148 50.2647 223.893 50.2162 223.638 50.2325H198.781C197.495 50.2441 196.22 49.9382 195.039 49.3343C193.923 48.7531 192.907 47.9338 192.042 46.9174C191.154 45.8631 190.445 44.6154 189.957 43.2431C189.439 41.8486 189.176 40.3407 189.184 38.8177V35.2414C189.18 33.7083 189.443 32.1908 189.957 30.7832C190.959 28.0636 192.794 25.8932 195.094 24.7084C196.275 24.1045 197.55 23.7986 198.836 23.8102H233.359V33.0531H198.836C198.344 33.0531 197.872 33.2831 197.523 33.693C197.174 34.1029 196.976 34.6595 196.972 35.2414V38.8177C196.962 39.1191 197.005 39.4197 197.097 39.7007C197.19 39.9817 197.331 40.2371 197.511 40.4507C197.689 40.667 197.905 40.8357 198.143 40.9455C198.381 41.0554 198.636 41.1038 198.892 41.0876H223.748C225.039 41.0761 226.318 41.3819 227.504 41.9857C229.825 43.1618 231.674 45.3487 232.669 48.0932C233.184 49.5002 233.447 51.0181 233.442 52.5514L233.387 56.046Z" fill="white"/>
<path d="M279.924 67.4445H272.895V50.2814H245.442V67.4445H238.413V41.0386H272.936V23.8102H279.965L279.924 67.4445ZM245.442 36.8744H238.413V23.8102H245.442V36.8744Z" fill="white"/>
<path d="M380.357 39.0789L371.133 23.8102H361.908L376.67 49.9875V67.4445H384.044V49.9875L398.806 23.8102H389.706L380.357 39.0789Z" fill="white"/>
<path d="M332.081 32.1386H351.013V41.2019H335.823V49.5303H339.317L352.698 67.4935H361.812L348.431 49.5303H353.609C355.129 49.5303 356.587 48.8163 357.661 47.5453C358.736 46.2744 359.34 44.5506 359.34 42.7532V30.5872C359.34 28.7899 358.736 27.0661 357.661 25.7951C356.587 24.5242 355.129 23.8102 353.609 23.8102H324.859V67.4445H332.233L332.081 32.1386Z" fill="white"/>
<path d="M144.29 67.4444H136.474V35.6168C136.471 35.2793 136.41 34.9461 136.295 34.637C136.189 34.3284 136.029 34.05 135.825 33.8205C135.63 33.5886 135.401 33.4005 135.149 33.2653C134.881 33.1363 134.595 33.0697 134.306 33.0693H98.1404V23.8101H134.306C135.64 23.8004 136.962 24.1173 138.187 24.7409C139.368 25.3478 140.444 26.2057 141.363 27.2721C142.271 28.3653 142.997 29.6504 143.503 31.0607C144.03 32.4986 144.298 34.0501 144.29 35.6168V67.4444ZM105.97 67.4444H98.1404V33.151L105.97 30.5218V67.4444ZM125.11 67.4444H117.28V37.903H125.11V67.4444Z" fill="white"/>
</g>
</g>
<defs>
<clipPath id="clip0_2_97">
<rect width="399" height="88" fill="white"/>
</clipPath>
<clipPath id="clip1_2_97">
<rect width="315.875" height="55.3143" fill="white" transform="translate(90.9045 23.8857)"/>
</clipPath>
</defs>
</svg>
