<?xml version="1.0" encoding="utf-8"?>
<!-- Generator: Adobe Illustrator 22.0.1, SVG Export Plug-In . SVG Version: 6.00 Build 0)  -->
<svg version="1.1" id="Layer_1" xmlns="http://www.w3.org/2000/svg" xmlns:xlink="http://www.w3.org/1999/xlink" x="0px" y="0px"
	 viewBox="0 0 277 51" style="enable-background:new 0 0 277 51;" xml:space="preserve">
<style type="text/css">
	.st0{fill:#3C494F;}
	.st1{fill:#00B39F;}
	.st2{fill:#00D3A9;}
	.st3{fill:none;stroke:#3C494F;}
	.st4{font-family:'QanelasSoft-SemiBold';}
	.st5{font-size:24px;}
</style>
<path class="st0" d="M18.4,138.7h-5.5v26.9h25.9v-5.4H18.4V138.7z"/>
<path class="st0" d="M52.5,138.7l-10.9,26.9h6.2l7.4-18.8l5.3,13.5h-9.1l-2,5.4h19.5L58,138.7H52.5z"/>
<path class="st0" d="M76.7,148.1l-6.8-9.4H63l10.9,16.2v10.8h5.5v-10.8l10.9-16.2h-6.8L76.7,148.1z"/>
<path class="st0" d="M92.7,142.9v1.1v5.4v6.6v9.6h25.9v-5.4H98.2V156v-1.2h15.7v-5.4H98.2V144h20.5v-5.4H92.7V142.9z"/>
<path class="st0" d="M127.5,143.8h14v5.6H129l0.1,5.1h3.8l9.9,11.1h6.8l-9.9-11.1h3.9c0.6,0,1.1-0.1,1.6-0.3c0.5-0.2,1-0.5,1.4-0.9
	c0.4-0.4,0.7-0.8,0.9-1.4s0.3-1.1,0.3-1.6v-7.5c0-1.1-0.4-2.2-1.2-3c-0.8-0.8-1.9-1.2-3-1.2h-21.3v26.9h5.5L127.5,143.8z"/>
<path class="st1" d="M180.2,138.8h-10.8v5.1h10.8V138.8z"/>
<path class="st1" d="M181.2,156v-2.1c0-2.4-2.1-4.4-4.7-4.4h-17.4v-1.4h-6.4v6h22v1.9L181.2,156z"/>
<path class="st2" d="M159.2,146.4v-2.5h8.5v-5.1h-14.9v7.6H159.2z"/>
<path class="st2" d="M174.8,157.6v3h-8.5v5.1h10.5c1.1,0,2.2-0.4,3.1-1.2c0.8-0.8,1.3-1.8,1.3-3v-3.9H174.8z"/>
<path class="st1" d="M158.7,157.9v2.7h5.9v5.1H157c-1.1,0-2.2-0.4-3.1-1.2c-0.8-0.8-1.3-1.8-1.3-3v-3.6H158.7z"/>
<path class="st0" d="M231.1,105.5h-7.2V89.6c0-0.4-0.2-0.6-0.6-0.6h-2c-0.4,0-0.6,0.2-0.6,0.6V108c0,0.4,0.2,0.6,0.6,0.6h1.1h8.7
	c0.4,0,0.6-0.2,0.6-0.6v-1.8C231.8,105.7,231.5,105.5,231.1,105.5z M240.2,94.2c-4.4,0-7.3,3.2-7.3,7.4c0,4.2,2.9,7.4,7.4,7.4
	c2.9,0,5.2-1.4,6.2-3.6c0.2-0.4-0.1-0.7-0.5-0.7h-1.8c-0.3,0-0.5,0.1-0.8,0.4c-0.6,0.8-1.7,1.3-3.1,1.3c-2.1,0-3.8-1.2-4.3-3.5h8.1
	h2.4c0.4,0,0.6-0.2,0.7-0.6c0-0.2,0-0.4,0-0.7C247.1,97.6,244.3,94.2,240.2,94.2z M235.9,100.4c0.4-2.1,1.9-3.4,4.2-3.4
	c1.8,0,3.5,1,3.9,3.4H235.9z M255.1,94.2c-2.9,0-5.2,1.6-5.5,4.3c0,0.4,0.2,0.6,0.6,0.6h1.7c0.4,0,0.5-0.2,0.7-0.6
	c0.3-1,1.3-1.6,2.5-1.6c1.5,0,2.6,0.8,2.6,2.7v1.7c-0.9-0.8-2.2-1.4-4-1.4c-2.5,0-4.8,1.5-4.8,4.5s2.3,4.4,4.8,4.4
	c1.8,0,3.1-0.6,4-1.7v0.7c0,0.4,0.2,0.6,0.6,0.6h1.7c0.4,0,0.6-0.2,0.6-0.6v-8.3C260.7,96.1,258.2,94.2,255.1,94.2z M254.7,106.6
	c-1.9,0-2.7-0.9-2.7-2.1c0-1.2,0.9-2.1,2.7-2.1c1.8,0,3,0.8,3,2.1C257.7,105.7,256.5,106.6,254.7,106.6z M270.2,94.4
	c-1.4,0.1-2.7,0.8-3.4,2.3v-1.5c0-0.4-0.2-0.6-0.6-0.6h-1.8c-0.4,0-0.6,0.2-0.6,0.6V108c0,0.4,0.2,0.6,0.6,0.6h1.8
	c0.4,0,0.6-0.2,0.6-0.6v-6.6c0-2.7,1.7-3.8,3.6-3.8c0.3,0,0.5-0.2,0.5-0.6v-2C270.9,94.6,270.6,94.3,270.2,94.4z M280,94.2
	c-1.7,0-3.1,0.6-4,2v-1c0-0.4-0.2-0.6-0.6-0.6h-1.8c-0.4,0-0.6,0.2-0.6,0.6V108c0,0.4,0.2,0.6,0.6,0.6h1.8c0.4,0,0.6-0.2,0.6-0.6
	v-7.4c0-2.5,1.4-3.5,3-3.5c1.5,0,2.5,0.9,2.5,2.7v8.2c0,0.4,0.2,0.6,0.6,0.6h1.8c0.4,0,0.6-0.2,0.6-0.6v-8.4
	C284.7,96.2,282.6,94.2,280,94.2z"/>
<line class="st3" x1="195.5" y1="3" x2="195.5" y2="48"/>
<g>
	<polygon class="st2" points="34.4,17.4 34.4,25.7 41.5,21.6 	"/>
	<polygon class="st2" points="34.4,27.4 34.4,35.7 41.6,31.6 	"/>
	<polygon class="st1" points="33.3,25.7 33.3,17.5 26.3,21.6 	"/>
	<path class="st1" d="M19.1,35.7c1.4,2.2,3.3,4.1,5.5,5.5v-8.7L19.1,35.7z"/>
	<polygon class="st1" points="33.3,35.7 33.3,27.5 26.2,31.6 	"/>
	<polygon class="st2" points="25.7,40.7 32.8,36.6 25.7,32.5 	"/>
	<polygon class="st1" points="42.1,40.8 42.1,32.5 34.9,36.6 	"/>
	<path class="st1" d="M49.1,34.8c1.2-2.2,1.9-4.7,2-7.4l-7.5,4.3L49.1,34.8z"/>
	<polygon class="st2" points="43.1,30.7 50.3,26.6 43.1,22.5 	"/>
	<polygon class="st1" points="42.1,20.7 42.1,12.5 34.9,16.6 	"/>
	<polygon class="st1" points="42.1,30.7 42.1,22.4 34.9,26.6 	"/>
	<polygon class="st1" points="33.8,43.9 33.8,43.9 33.8,43.9 	"/>
	<polygon class="st2" points="25.7,22.4 25.7,30.7 32.9,26.6 	"/>
	<path class="st1" d="M33.3,9.3c-2.7,0.1-5.3,0.8-7.6,2l7.6,4.4V9.3z"/>
	<polygon class="st2" points="25.7,12.4 25.7,20.7 32.9,16.6 	"/>
	<path class="st1" d="M24.6,11.9c-2.2,1.4-4.1,3.3-5.5,5.5l5.5,3.2V11.9z"/>
	<path class="st2" d="M42,11.3c-2.3-1.2-4.9-2-7.7-2v6.4L42,11.3z"/>
	<path class="st2" d="M16.5,27.2c0.1,2.8,0.8,5.3,2.1,7.6l5.6-3.2L16.5,27.2z"/>
	<path class="st2" d="M18.6,18.4c-1.2,2.3-2,4.9-2.1,7.6l7.6-4.4L18.6,18.4z"/>
	<path class="st1" d="M25.7,41.9c2.3,1.2,4.9,1.9,7.6,2v-6.4L25.7,41.9z"/>
	<path class="st2" d="M48.6,17.5c-1.4-2.2-3.2-4.1-5.5-5.5v8.7L48.6,17.5z"/>
	<path class="st2" d="M43.1,41.2c2.2-1.4,4.1-3.3,5.5-5.6l-5.5-3.2V41.2z"/>
	<path class="st1" d="M51.1,25.9c-0.1-2.7-0.8-5.3-2.1-7.5l-5.5,3.2L51.1,25.9z"/>
	<path class="st2" d="M34.4,43.9c2.7-0.1,5.3-0.8,7.6-2l-7.6-4.4V43.9z"/>
	<polygon class="st1" points="24.6,30.7 24.6,22.5 17.5,26.6 	"/>
</g>
<g>
	<polygon class="st0" points="133.1,22 133.1,22.6 133.1,25.7 133.1,29.4 133.1,34.8 147.5,34.8 147.5,31.7 136.1,31.7 136.1,29.4 
		136.1,28.7 144.9,28.7 144.9,25.7 136.1,25.7 136.1,22.6 147.5,22.6 147.5,19.6 133.1,19.6 	"/>
	<polygon class="st0" points="77.6,22 77.6,22.6 77.6,25.7 77.6,29.4 77.6,34.8 92,34.8 92,31.7 80.6,31.7 80.6,29.4 80.6,28.7 
		89.4,28.7 89.4,25.7 80.6,25.7 80.6,22.6 92,22.6 92,19.6 77.6,19.6 	"/>
	<g>
		<path class="st0" d="M112,30.8c0,0.5-0.1,1.1-0.3,1.5c-0.2,0.5-0.5,0.9-0.9,1.3c-0.4,0.4-0.8,0.6-1.3,0.9c-0.5,0.2-1,0.3-1.6,0.3
			H93.8v-3.2H108c0.2,0,0.4-0.1,0.5-0.2c0.1-0.1,0.2-0.3,0.2-0.5v-1.2c0-0.2-0.1-0.4-0.2-0.5c-0.1-0.1-0.3-0.2-0.5-0.2H97.8
			c-0.5,0-1.1-0.1-1.5-0.3c-0.5-0.2-0.9-0.5-1.3-0.9c-0.4-0.4-0.7-0.8-0.9-1.3c-0.2-0.5-0.3-1-0.3-1.5v-1.2c0-0.5,0.1-1.1,0.3-1.6
			c0.2-0.5,0.5-0.9,0.9-1.3c0.4-0.4,0.8-0.7,1.3-0.9c0.5-0.2,1-0.3,1.5-0.3H112v3.2H97.8c-0.2,0-0.4,0.1-0.5,0.2
			c-0.1,0.1-0.2,0.3-0.2,0.5v1.2c0,0.2,0.1,0.4,0.2,0.5c0.1,0.1,0.3,0.2,0.5,0.2H108c0.5,0,1.1,0.1,1.6,0.3c0.5,0.2,0.9,0.5,1.3,0.9
			c0.4,0.4,0.7,0.8,0.9,1.3c0.2,0.5,0.3,1,0.3,1.6V30.8z"/>
	</g>
	<g>
		<path class="st0" d="M131.2,34.8h-2.9v-6H117v6h-2.9v-9.2h14.2v-6h2.9V34.8z M117,24.2h-2.9v-4.6h2.9V24.2z"/>
	</g>
	<polygon class="st0" points="172.6,24.9 168.8,19.6 165,19.6 171.1,28.7 171.1,34.8 174.1,34.8 174.1,28.7 180.2,19.6 176.5,19.6 	
		"/>
	<path class="st0" d="M152.7,22.5h7.8v1.1v1.1v1.1h-6.3v2.9h1.4l5.5,6.2h3.8l-5.5-6.2h2c0.1,0,0.1,0,0.2,0c1.3,0,2.4-1.1,2.4-2.4
		v-1.6v-1.1v-1.6c0-1.3-1.1-2.4-2.4-2.4c-0.1,0-0.1,0-0.2,0h-8.7h-0.1h-2.9v15.2h3L152.7,22.5z"/>
	<g>
		<path class="st0" d="M75.3,34.8H72V23.7c0-0.1,0-0.2-0.1-0.3c0-0.1-0.1-0.2-0.2-0.3c-0.1-0.1-0.2-0.1-0.3-0.2
			c-0.1,0-0.2-0.1-0.3-0.1H56.2v-3.2h14.9c0.6,0,1.1,0.1,1.6,0.3c0.5,0.2,0.9,0.5,1.3,0.9c0.4,0.4,0.7,0.8,0.9,1.3
			c0.2,0.5,0.3,1,0.3,1.6V34.8z M59.5,34.8h-3.2v-12l3.2-0.9V34.8z M67.3,34.8h-3.2V24.5h3.2V34.8z"/>
	</g>
</g>
<text transform="matrix(1 0 0 1 207.75 34.7584)" class="st0 st4 st5">Learn</text>
</svg>
