<svg width="201" height="55" viewBox="0 0 201 55" fill="none" xmlns="http://www.w3.org/2000/svg">
<path opacity="0.75" d="M7.53014 43.4994V34.7005H0.923676V50.0893H16.3223V43.4994H7.53014ZM40.5131 34.7499V43.4994H31.758L31.7209 43.45V50.0893H47.1072V34.7005H40.4637L40.5131 34.7499V34.7499ZM7.53014 19.2748V10.5253H16.2729L16.3223 10.5747V3.93542H0.923676V19.3242H7.57954L7.53014 19.2748ZM31.7209 3.93542V10.5253H40.5131V19.3242H47.1072V3.93542H31.7209Z" fill="white"/>
<path d="M25.0651 19.3242H30.9059L22.1014 10.5253H31.7209V3.93542H16.3223V10.5747L25.0651 19.3242ZM27.3372 39.0691L22.9658 34.7005H17.1373L24.4229 41.9938L25.9295 43.4994H16.3223V50.0893H31.7209V43.45L27.3372 39.0691V39.0691ZM40.5131 25.914V28.9251L39.0066 27.4196L31.7209 20.1386V25.9634L36.0923 30.332L40.4637 34.7005H47.1072V19.3242H40.5131V25.914ZM7.53014 25.0996L16.3223 33.8861V28.0613L7.57954 19.3242H0.923676V34.7005H7.53014V25.0996V25.0996Z" fill="white"/>
<path d="M86.8352 23.3125H79.3693C79.233 22.3466 78.9545 21.4886 78.5341 20.7386C78.1136 19.9773 77.5739 19.3295 76.9148 18.7955C76.2557 18.2614 75.4943 17.8523 74.6307 17.5682C73.7784 17.2841 72.8523 17.142 71.8523 17.142C70.0455 17.142 68.4716 17.5909 67.1307 18.4886C65.7898 19.375 64.75 20.6705 64.0114 22.375C63.2727 24.0682 62.9034 26.125 62.9034 28.5455C62.9034 31.0341 63.2727 33.125 64.0114 34.8182C64.7614 36.5114 65.8068 37.7898 67.1477 38.6534C68.4886 39.517 70.0398 39.9489 71.8011 39.9489C72.7898 39.9489 73.7045 39.8182 74.5455 39.5568C75.3977 39.2955 76.1534 38.9148 76.8125 38.4148C77.4716 37.9034 78.017 37.2841 78.4489 36.5568C78.892 35.8295 79.1989 35 79.3693 34.0682L86.8352 34.1023C86.642 35.7045 86.1591 37.25 85.3864 38.7386C84.625 40.2159 83.5966 41.5398 82.3011 42.7102C81.017 43.8693 79.483 44.7898 77.6989 45.4716C75.9261 46.142 73.9205 46.4773 71.6818 46.4773C68.5682 46.4773 65.7841 45.7727 63.3295 44.3636C60.8864 42.9545 58.9545 40.9148 57.5341 38.2443C56.125 35.5739 55.4205 32.3409 55.4205 28.5455C55.4205 24.7386 56.1364 21.5 57.5682 18.8295C59 16.1591 60.9432 14.125 63.3977 12.7273C65.8523 11.3182 68.6136 10.6136 71.6818 10.6136C73.7045 10.6136 75.5795 10.8977 77.3068 11.4659C79.0455 12.0341 80.5852 12.8636 81.9261 13.9545C83.267 15.0341 84.358 16.358 85.1989 17.9261C86.0511 19.4943 86.5966 21.2898 86.8352 23.3125ZM121.327 11.0909V46H114.952L99.7642 24.0284H99.5085V46H92.1278V11.0909H98.6051L113.673 33.0455H113.98V11.0909H121.327ZM158.226 23.3125H150.76C150.624 22.3466 150.345 21.4886 149.925 20.7386C149.504 19.9773 148.964 19.3295 148.305 18.7955C147.646 18.2614 146.885 17.8523 146.021 17.5682C145.169 17.2841 144.243 17.142 143.243 17.142C141.436 17.142 139.862 17.5909 138.521 18.4886C137.18 19.375 136.141 20.6705 135.402 22.375C134.663 24.0682 134.294 26.125 134.294 28.5455C134.294 31.0341 134.663 33.125 135.402 34.8182C136.152 36.5114 137.197 37.7898 138.538 38.6534C139.879 39.517 141.43 39.9489 143.192 39.9489C144.18 39.9489 145.095 39.8182 145.936 39.5568C146.788 39.2955 147.544 38.9148 148.203 38.4148C148.862 37.9034 149.408 37.2841 149.839 36.5568C150.283 35.8295 150.589 35 150.76 34.0682L158.226 34.1023C158.033 35.7045 157.55 37.25 156.777 38.7386C156.016 40.2159 154.987 41.5398 153.692 42.7102C152.408 43.8693 150.874 44.7898 149.089 45.4716C147.317 46.142 145.311 46.4773 143.072 46.4773C139.959 46.4773 137.175 45.7727 134.72 44.3636C132.277 42.9545 130.345 40.9148 128.925 38.2443C127.516 35.5739 126.811 32.3409 126.811 28.5455C126.811 24.7386 127.527 21.5 128.959 18.8295C130.391 16.1591 132.334 14.125 134.788 12.7273C137.243 11.3182 140.004 10.6136 143.072 10.6136C145.095 10.6136 146.97 10.8977 148.697 11.4659C150.436 12.0341 151.976 12.8636 153.317 13.9545C154.658 15.0341 155.749 16.358 156.589 17.9261C157.442 19.4943 157.987 21.2898 158.226 23.3125ZM163.518 46V11.0909H186.632V17.1761H170.899V25.4943H185.098V31.5795H170.899V46H163.518Z" fill="white"/>
</svg>
