<svg width="202" height="56" viewBox="0 0 202 56" fill="none" xmlns="http://www.w3.org/2000/svg">
<path opacity="0.81" d="M46.9359 9.82917H36.1297L28.5 2.33334L20.8703 9.82917H10.0641V20.4458L2.43437 27.9708L10.0641 35.4667V46.0833H20.8703L28.5 53.5792L36.1297 46.0833H46.9359V35.4667L54.5656 27.9708L46.9359 20.475V9.82917ZM47.1141 27.9708C47.1141 38.0625 38.7719 46.2583 28.5 46.2583C18.2281 46.2583 9.88593 38.0625 9.88593 27.9708C9.88593 17.8792 18.2281 9.68334 28.5 9.68334C38.7719 9.68334 47.1141 17.8792 47.1141 27.9708Z" fill="white"/>
<path opacity="0.91" d="M28.5 12.0167C19.5344 12.0167 12.2609 19.1625 12.2609 27.9708C12.2609 36.7792 19.5344 43.925 28.5 43.925C37.4656 43.925 44.7391 36.7792 44.7391 27.9708C44.7391 19.1625 37.4656 12.0167 28.5 12.0167ZM23.7203 22.05V24.675L19.4156 27.9708L23.7203 31.2667V33.8917L23.4234 33.6875L17.0406 28.7875L16.625 28.4667V27.475L17.0406 27.1542L23.4234 22.2833L23.7203 22.05ZM31.3797 20.5333L27.8469 35.875L27.8172 35.9917H25.6203L25.7391 35.4083L29.2719 20.0958L29.3016 19.9792H31.4984L31.3797 20.5333ZM40.375 28.4667L39.9594 28.7875L33.5469 33.6583L33.25 33.8625V31.2375L37.5547 27.9417L33.25 24.6458V22.0208L33.5469 22.225L39.9297 27.125L40.3453 27.4458V28.4667H40.375Z" fill="white"/>
<path d="M83.1818 22.375C82.9432 21.5455 82.608 20.8125 82.1761 20.1761C81.7443 19.5284 81.2159 18.983 80.5909 18.5398C79.9773 18.0852 79.2727 17.7386 78.4773 17.5C77.6932 17.2614 76.8239 17.142 75.8693 17.142C74.0852 17.142 72.517 17.5852 71.1648 18.4716C69.8239 19.358 68.7784 20.6477 68.0284 22.3409C67.2784 24.0227 66.9034 26.0795 66.9034 28.5114C66.9034 30.9432 67.2727 33.0114 68.0114 34.7159C68.75 36.4205 69.7955 37.7216 71.1477 38.6193C72.5 39.5057 74.0966 39.9489 75.9375 39.9489C77.608 39.9489 79.0341 39.6534 80.2159 39.0625C81.4091 38.4602 82.3182 37.6136 82.9432 36.5227C83.5795 35.4318 83.8977 34.142 83.8977 32.6534L85.3977 32.875H76.3977V27.3182H91.0057V31.7159C91.0057 34.7841 90.358 37.4205 89.0625 39.625C87.767 41.8182 85.983 43.5114 83.7102 44.7045C81.4375 45.8864 78.8352 46.4773 75.9034 46.4773C72.6307 46.4773 69.7557 45.7557 67.2784 44.3125C64.8011 42.858 62.8693 40.7955 61.483 38.125C60.108 35.4432 59.4205 32.2614 59.4205 28.5795C59.4205 25.75 59.8295 23.2273 60.6477 21.0114C61.4773 18.7841 62.6364 16.8977 64.125 15.3523C65.6136 13.8068 67.3466 12.6307 69.3239 11.8239C71.3011 11.017 73.4432 10.6136 75.75 10.6136C77.7273 10.6136 79.5682 10.9034 81.2727 11.483C82.9773 12.0511 84.4886 12.858 85.8068 13.9034C87.1364 14.9489 88.2216 16.1932 89.0625 17.6364C89.9034 19.0682 90.4432 20.6477 90.6818 22.375H83.1818ZM115.487 21.1307C115.351 19.7557 114.766 18.6875 113.732 17.9261C112.697 17.1648 111.294 16.7841 109.521 16.7841C108.317 16.7841 107.3 16.9545 106.47 17.2955C105.641 17.625 105.004 18.0852 104.561 18.6761C104.129 19.267 103.913 19.9375 103.913 20.6875C103.891 21.3125 104.021 21.858 104.305 22.3239C104.601 22.7898 105.004 23.1932 105.516 23.5341C106.027 23.8636 106.618 24.1534 107.288 24.4034C107.959 24.642 108.675 24.8466 109.436 25.017L112.572 25.767C114.095 26.108 115.493 26.5625 116.766 27.1307C118.038 27.6989 119.141 28.3977 120.072 29.2273C121.004 30.0568 121.726 31.0341 122.237 32.1591C122.76 33.2841 123.027 34.5739 123.038 36.0284C123.027 38.1648 122.482 40.017 121.402 41.5852C120.334 43.142 118.788 44.3523 116.766 45.2159C114.754 46.0682 112.328 46.4943 109.487 46.4943C106.669 46.4943 104.214 46.0625 102.124 45.1989C100.044 44.3352 98.419 43.0568 97.2486 41.3636C96.0895 39.6591 95.4815 37.5511 95.4247 35.0398H102.567C102.646 36.2102 102.982 37.1875 103.572 37.9716C104.175 38.7443 104.976 39.3295 105.976 39.7273C106.987 40.1136 108.129 40.3068 109.402 40.3068C110.652 40.3068 111.737 40.125 112.658 39.7614C113.589 39.3977 114.311 38.892 114.822 38.2443C115.334 37.5966 115.589 36.8523 115.589 36.0114C115.589 35.2273 115.357 34.5682 114.891 34.0341C114.436 33.5 113.766 33.0455 112.879 32.6705C112.004 32.2955 110.93 31.9545 109.658 31.6477L105.857 30.6932C102.913 29.9773 100.589 28.858 98.8849 27.3352C97.1804 25.8125 96.3338 23.7614 96.3452 21.1818C96.3338 19.0682 96.8963 17.2216 98.0327 15.642C99.1804 14.0625 100.754 12.8295 102.754 11.9432C104.754 11.0568 107.027 10.6136 109.572 10.6136C112.163 10.6136 114.425 11.0568 116.357 11.9432C118.3 12.8295 119.811 14.0625 120.891 15.642C121.97 17.2216 122.527 19.0511 122.561 21.1307H115.487ZM160.082 28.5455C160.082 32.3523 159.361 35.5909 157.918 38.2614C156.486 40.9318 154.531 42.9716 152.054 44.3807C149.588 45.7784 146.815 46.4773 143.736 46.4773C140.634 46.4773 137.849 45.7727 135.384 44.3636C132.918 42.9545 130.969 40.9148 129.537 38.2443C128.105 35.5739 127.389 32.3409 127.389 28.5455C127.389 24.7386 128.105 21.5 129.537 18.8295C130.969 16.1591 132.918 14.125 135.384 12.7273C137.849 11.3182 140.634 10.6136 143.736 10.6136C146.815 10.6136 149.588 11.3182 152.054 12.7273C154.531 14.125 156.486 16.1591 157.918 18.8295C159.361 21.5 160.082 24.7386 160.082 28.5455ZM152.599 28.5455C152.599 26.0795 152.23 24 151.491 22.3068C150.764 20.6136 149.736 19.3295 148.406 18.4545C147.077 17.5795 145.52 17.142 143.736 17.142C141.952 17.142 140.395 17.5795 139.065 18.4545C137.736 19.3295 136.702 20.6136 135.963 22.3068C135.236 24 134.872 26.0795 134.872 28.5455C134.872 31.0114 135.236 33.0909 135.963 34.7841C136.702 36.4773 137.736 37.7614 139.065 38.6364C140.395 39.5114 141.952 39.9489 143.736 39.9489C145.52 39.9489 147.077 39.5114 148.406 38.6364C149.736 37.7614 150.764 36.4773 151.491 34.7841C152.23 33.0909 152.599 31.0114 152.599 28.5455ZM196.351 23.3125H188.885C188.749 22.3466 188.47 21.4886 188.05 20.7386C187.629 19.9773 187.089 19.3295 186.43 18.7955C185.771 18.2614 185.01 17.8523 184.146 17.5682C183.294 17.2841 182.368 17.142 181.368 17.142C179.561 17.142 177.987 17.5909 176.646 18.4886C175.305 19.375 174.266 20.6705 173.527 22.375C172.788 24.0682 172.419 26.125 172.419 28.5455C172.419 31.0341 172.788 33.125 173.527 34.8182C174.277 36.5114 175.322 37.7898 176.663 38.6534C178.004 39.517 179.555 39.9489 181.317 39.9489C182.305 39.9489 183.22 39.8182 184.061 39.5568C184.913 39.2955 185.669 38.9148 186.328 38.4148C186.987 37.9034 187.533 37.2841 187.964 36.5568C188.408 35.8295 188.714 35 188.885 34.0682L196.351 34.1023C196.158 35.7045 195.675 37.25 194.902 38.7386C194.141 40.2159 193.112 41.5398 191.817 42.7102C190.533 43.8693 188.999 44.7898 187.214 45.4716C185.442 46.142 183.436 46.4773 181.197 46.4773C178.084 46.4773 175.3 45.7727 172.845 44.3636C170.402 42.9545 168.47 40.9148 167.05 38.2443C165.641 35.5739 164.936 32.3409 164.936 28.5455C164.936 24.7386 165.652 21.5 167.084 18.8295C168.516 16.1591 170.459 14.125 172.913 12.7273C175.368 11.3182 178.129 10.6136 181.197 10.6136C183.22 10.6136 185.095 10.8977 186.822 11.4659C188.561 12.0341 190.101 12.8636 191.442 13.9545C192.783 15.0341 193.874 16.358 194.714 17.9261C195.567 19.4943 196.112 21.2898 196.351 23.3125Z" fill="white"/>
</svg>
