<svg width="208" height="55" viewBox="0 0 208 55" fill="none" xmlns="http://www.w3.org/2000/svg">
<path d="M41.9627 38.76C41.9627 41.851 41.9627 44.942 41.9627 48.033C41.8961 48.1213 41.8073 48.1876 41.7407 48.2759C33.1927 48.2979 24.6448 48.2979 16.0968 48.2979C13.4769 48.2979 10.8348 48.2759 8.21492 48.2538C8.14831 48.1213 8.08171 48.1213 7.9929 48.2317C7.59325 47.8785 7.79307 47.4148 7.79307 47.0174C7.77087 45.1407 7.77087 43.2861 7.77087 41.4095C9.25844 41.2991 10.413 40.5705 11.3677 39.4665C15.8748 40.6809 20.4929 41.0783 25.1332 41.0783C30.7726 41.0783 36.3677 40.4159 41.7407 38.5613C41.8295 38.6276 41.8961 38.6938 41.9627 38.76Z" fill="white"/>
<path opacity="0.8" d="M41.7629 38.5613C36.3899 40.4159 30.7949 41.0783 25.1554 41.0783C20.5151 41.0783 15.897 40.6809 11.3899 39.4666C11.5897 38.76 12.0115 38.1418 12.0337 37.3912C17.5844 38.76 23.246 39.0471 28.9298 38.7159C33.4147 38.4509 37.8552 37.8107 42.0293 35.9561C43.6057 35.4041 45.0488 34.5872 46.2256 33.3729C47.5577 31.9599 47.5799 30.6131 46.2478 29.2001C45.0933 27.9857 43.6279 27.1909 42.0515 26.5948C42.0515 25.7779 42.0515 24.9831 42.0515 24.1662C44.0497 24.9389 45.9814 25.8662 47.5577 27.3675C50.111 29.8182 50.0666 32.8209 47.4911 35.2496C45.8925 36.7509 43.9165 37.5457 42.0071 38.4951C41.9183 38.5172 41.8295 38.5393 41.7629 38.5613Z" fill="white"/>
<path d="M12.0338 37.3912C12.0115 38.1418 11.5897 38.7821 11.3899 39.4666C10.4352 40.5484 9.28064 41.277 7.79307 41.3874C4.4849 40.8575 3.35258 39.4224 3.46359 35.8898C3.79663 35.2716 4.15187 34.6314 4.48491 34.0132C5.50622 33.417 6.52753 32.7547 7.79307 32.7547C10.1021 32.8651 12.1892 34.7859 12.0338 37.3912Z" fill="white"/>
<path d="M41.5409 16.8802C38.5435 16.8802 35.5462 16.9023 32.5488 16.9023C32.127 16.9023 31.7496 16.9244 31.7718 16.3062C31.794 13.0827 31.7718 9.85928 31.7718 6.30464C35.1909 9.88136 38.3659 13.2373 41.5631 16.5932C41.5631 16.6815 41.5409 16.7919 41.5409 16.8802Z" fill="white"/>
<path opacity="0.8" d="M4.50711 34.0352C4.17407 34.6534 3.81883 35.2937 3.4858 35.9119C-0.0221965 33.5054 -0.266424 29.8182 2.93073 27.1026C4.35169 25.8883 5.90587 24.8727 7.79308 24.4753C7.79308 25.2259 7.79308 25.9766 7.79308 26.7273C6.83837 27.1247 5.92807 27.6104 5.08438 28.2065C2.39787 30.1053 2.24246 31.6508 4.50711 34.0352Z" fill="white"/>
<path d="M41.9849 19.331C41.9183 19.2647 41.8517 19.1985 41.7851 19.1323C41.9183 19.1102 41.9849 19.1764 41.9849 19.331Z" fill="#BABABA"/>
<path d="M41.5409 16.8803C41.5409 16.7919 41.5631 16.6815 41.5631 16.5932C41.6075 16.6595 41.6741 16.7478 41.7185 16.814C41.6519 16.8361 41.6075 16.8582 41.5409 16.8803Z" fill="#BABABA"/>
<path d="M29.5293 6.74621C29.4627 6.67997 29.3961 6.61374 29.3295 6.52542C29.4849 6.52542 29.5515 6.59166 29.5293 6.74621Z" fill="#BABABA"/>
<path d="M8.23713 6.54751C8.17052 6.6579 8.10392 6.67998 8.03731 6.56959C8.08171 6.52543 8.17052 6.50335 8.23713 6.54751Z" fill="#BABABA"/>
<path d="M41.7629 38.5613C41.8295 38.5172 41.8961 38.5172 41.9849 38.5172C41.9849 38.5834 41.9849 38.6717 41.9627 38.738C41.8961 38.6938 41.8295 38.6276 41.7629 38.5613Z" fill="#BABABA"/>
<path d="M8.01511 48.2317C8.10392 48.0992 8.17052 48.1213 8.23713 48.2538C8.17052 48.2538 8.08171 48.2538 8.01511 48.2317Z" fill="#BABABA"/>
<path d="M41.7629 48.2759C41.8295 48.1876 41.9183 48.1213 41.9849 48.033C41.9849 48.1876 41.9183 48.2759 41.7629 48.2759Z" fill="#BABABA"/>
<path d="M41.9849 19.331C41.9183 19.2647 41.8517 19.1985 41.7851 19.1322C38.0551 19.1322 34.325 19.0881 30.6172 19.1322C29.7735 19.1322 29.5737 18.9115 29.5737 18.0946C29.6181 14.3191 29.5737 10.5437 29.5515 6.76829C29.4849 6.70205 29.4183 6.63581 29.3517 6.5475C22.3135 6.5475 15.2753 6.5475 8.25933 6.5475C8.19272 6.65789 8.12611 6.67997 8.05951 6.56958C7.63766 6.87868 7.85968 7.32025 7.85968 7.6735C7.79308 13.2594 7.79308 18.8673 7.77087 24.4752C7.77087 25.2259 7.77087 25.9766 7.77087 26.7273C7.77087 28.7585 7.77087 30.7676 7.77087 32.7988C10.0577 32.8872 12.167 34.808 12.0115 37.4132C17.5622 38.7821 23.2238 39.0691 28.9076 38.738C33.3925 38.473 37.833 37.8327 42.0071 36.0002C42.0071 32.8872 42.0293 29.752 42.0293 26.6389C42.0293 25.822 42.0293 25.0272 42.0293 24.2103C42.0071 22.5765 42.0071 20.9427 41.9849 19.331ZM20.2487 34.521C18.8943 33.4833 17.5844 32.4677 16.2522 31.4521C15.4529 30.8559 14.6758 30.2377 13.8988 29.6416C13.3215 29.2 13.1439 28.6039 13.7211 28.1624C15.8526 26.4402 18.0506 24.7843 20.2931 23.0622C20.6261 24.696 20.5151 25.9324 18.9831 26.7273C18.2726 27.1026 17.7176 27.7208 17.0515 28.1844C16.4076 28.626 16.2522 28.9572 17.0071 29.4429C17.6288 29.8403 18.1394 30.3923 18.7833 30.7455C20.2709 31.5624 20.7593 32.7547 20.2487 34.521ZM27.6421 22.1791C26.643 26.6389 25.6217 31.0988 24.6226 35.5807C24.4671 36.3093 24.2673 36.9717 23.2904 36.6847C22.3135 36.8613 22.1581 36.5522 22.3801 35.6028C23.4902 31.0105 24.556 26.3961 25.5329 21.7817C25.7993 20.5011 26.6874 20.9427 27.3313 20.9868C28.2194 21.0531 27.7309 21.7596 27.6421 22.1791ZM36.1234 29.5975C34.0364 31.2754 31.8828 32.8872 29.7069 34.543C29.1741 32.7547 29.7069 31.5624 31.1945 30.7455C31.6163 30.5248 31.9716 30.1715 32.349 29.8845C33.7256 28.8026 33.7256 28.8026 32.3046 27.6987C31.9494 27.4338 31.6385 27.1026 31.2389 26.9039C29.7291 26.1091 29.1963 24.9168 29.6847 23.1505C30.2398 23.57 30.8171 23.9674 31.3943 24.409C32.9041 25.5792 34.4139 26.7714 35.9458 27.9195C36.5897 28.4494 36.7451 29.0897 36.1234 29.5975Z" fill="white"/>
<path d="M81.1818 22.375C80.9432 21.5455 80.608 20.8125 80.1761 20.1761C79.7443 19.5284 79.2159 18.983 78.5909 18.5398C77.9773 18.0852 77.2727 17.7386 76.4773 17.5C75.6932 17.2614 74.8239 17.142 73.8693 17.142C72.0852 17.142 70.517 17.5852 69.1648 18.4716C67.8239 19.358 66.7784 20.6477 66.0284 22.3409C65.2784 24.0227 64.9034 26.0795 64.9034 28.5114C64.9034 30.9432 65.2727 33.0114 66.0114 34.7159C66.75 36.4205 67.7955 37.7216 69.1477 38.6193C70.5 39.5057 72.0966 39.9489 73.9375 39.9489C75.608 39.9489 77.0341 39.6534 78.2159 39.0625C79.4091 38.4602 80.3182 37.6136 80.9432 36.5227C81.5795 35.4318 81.8977 34.142 81.8977 32.6534L83.3977 32.875H74.3977V27.3182H89.0057V31.7159C89.0057 34.7841 88.358 37.4205 87.0625 39.625C85.767 41.8182 83.983 43.5114 81.7102 44.7045C79.4375 45.8864 76.8352 46.4773 73.9034 46.4773C70.6307 46.4773 67.7557 45.7557 65.2784 44.3125C62.8011 42.858 60.8693 40.7955 59.483 38.125C58.108 35.4432 57.4205 32.2614 57.4205 28.5795C57.4205 25.75 57.8295 23.2273 58.6477 21.0114C59.4773 18.7841 60.6364 16.8977 62.125 15.3523C63.6136 13.8068 65.3466 12.6307 67.3239 11.8239C69.3011 11.017 71.4432 10.6136 73.75 10.6136C75.7273 10.6136 77.5682 10.9034 79.2727 11.483C80.9773 12.0511 82.4886 12.858 83.8068 13.9034C85.1364 14.9489 86.2216 16.1932 87.0625 17.6364C87.9034 19.0682 88.4432 20.6477 88.6818 22.375H81.1818ZM113.487 21.1307C113.351 19.7557 112.766 18.6875 111.732 17.9261C110.697 17.1648 109.294 16.7841 107.521 16.7841C106.317 16.7841 105.3 16.9545 104.47 17.2955C103.641 17.625 103.004 18.0852 102.561 18.6761C102.129 19.267 101.913 19.9375 101.913 20.6875C101.891 21.3125 102.021 21.858 102.305 22.3239C102.601 22.7898 103.004 23.1932 103.516 23.5341C104.027 23.8636 104.618 24.1534 105.288 24.4034C105.959 24.642 106.675 24.8466 107.436 25.017L110.572 25.767C112.095 26.108 113.493 26.5625 114.766 27.1307C116.038 27.6989 117.141 28.3977 118.072 29.2273C119.004 30.0568 119.726 31.0341 120.237 32.1591C120.76 33.2841 121.027 34.5739 121.038 36.0284C121.027 38.1648 120.482 40.017 119.402 41.5852C118.334 43.142 116.788 44.3523 114.766 45.2159C112.754 46.0682 110.328 46.4943 107.487 46.4943C104.669 46.4943 102.214 46.0625 100.124 45.1989C98.044 44.3352 96.419 43.0568 95.2486 41.3636C94.0895 39.6591 93.4815 37.5511 93.4247 35.0398H100.567C100.646 36.2102 100.982 37.1875 101.572 37.9716C102.175 38.7443 102.976 39.3295 103.976 39.7273C104.987 40.1136 106.129 40.3068 107.402 40.3068C108.652 40.3068 109.737 40.125 110.658 39.7614C111.589 39.3977 112.311 38.892 112.822 38.2443C113.334 37.5966 113.589 36.8523 113.589 36.0114C113.589 35.2273 113.357 34.5682 112.891 34.0341C112.436 33.5 111.766 33.0455 110.879 32.6705C110.004 32.2955 108.93 31.9545 107.658 31.6477L103.857 30.6932C100.913 29.9773 98.5895 28.858 96.8849 27.3352C95.1804 25.8125 94.3338 23.7614 94.3452 21.1818C94.3338 19.0682 94.8963 17.2216 96.0327 15.642C97.1804 14.0625 98.7543 12.8295 100.754 11.9432C102.754 11.0568 105.027 10.6136 107.572 10.6136C110.163 10.6136 112.425 11.0568 114.357 11.9432C116.3 12.8295 117.811 14.0625 118.891 15.642C119.97 17.2216 120.527 19.0511 120.561 21.1307H113.487ZM158.082 28.5455C158.082 32.3523 157.361 35.5909 155.918 38.2614C154.486 40.9318 152.531 42.9716 150.054 44.3807C147.588 45.7784 144.815 46.4773 141.736 46.4773C138.634 46.4773 135.849 45.7727 133.384 44.3636C130.918 42.9545 128.969 40.9148 127.537 38.2443C126.105 35.5739 125.389 32.3409 125.389 28.5455C125.389 24.7386 126.105 21.5 127.537 18.8295C128.969 16.1591 130.918 14.125 133.384 12.7273C135.849 11.3182 138.634 10.6136 141.736 10.6136C144.815 10.6136 147.588 11.3182 150.054 12.7273C152.531 14.125 154.486 16.1591 155.918 18.8295C157.361 21.5 158.082 24.7386 158.082 28.5455ZM150.599 28.5455C150.599 26.0795 150.23 24 149.491 22.3068C148.764 20.6136 147.736 19.3295 146.406 18.4545C145.077 17.5795 143.52 17.142 141.736 17.142C139.952 17.142 138.395 17.5795 137.065 18.4545C135.736 19.3295 134.702 20.6136 133.963 22.3068C133.236 24 132.872 26.0795 132.872 28.5455C132.872 31.0114 133.236 33.0909 133.963 34.7841C134.702 36.4773 135.736 37.7614 137.065 38.6364C138.395 39.5114 139.952 39.9489 141.736 39.9489C143.52 39.9489 145.077 39.5114 146.406 38.6364C147.736 37.7614 148.764 36.4773 149.491 34.7841C150.23 33.0909 150.599 31.0114 150.599 28.5455ZM175.925 46H163.55V11.0909H176.027C179.538 11.0909 182.561 11.7898 185.095 13.1875C187.629 14.5739 189.578 16.5682 190.942 19.1705C192.317 21.7727 193.004 24.8864 193.004 28.5114C193.004 32.1477 192.317 35.2727 190.942 37.8864C189.578 40.5 187.618 42.5057 185.061 43.9034C182.516 45.3011 179.47 46 175.925 46ZM170.93 39.6761H175.618C177.8 39.6761 179.635 39.2898 181.124 38.517C182.624 37.733 183.749 36.5227 184.499 34.8864C185.26 33.2386 185.641 31.1136 185.641 28.5114C185.641 25.9318 185.26 23.8239 184.499 22.1875C183.749 20.5511 182.629 19.3466 181.141 18.5739C179.652 17.8011 177.817 17.4148 175.635 17.4148H170.93V39.6761Z" fill="white"/>
</svg>
