<svg xmlns="http://www.w3.org/2000/svg" width="25" height="25" fill="#3C494F" viewBox="0 0 16 16"><path d="M 2.488281 3.011719 C 1.664063 3.011719 0.988281 3.6875 0.988281 4.511719 L 0.988281 11.511719 C 0.988281 12.335938 1.664063 13.011719 2.488281 13.011719 L 13.488281 13.011719 C 14.308594 13.011719 14.988281 12.335938 14.988281 11.511719 L 14.988281 4.511719 C 14.988281 3.6875 14.3125 3.011719 13.488281 3.011719 Z M 2.488281 4.011719 L 13.488281 4.011719 C 13.769531 4.011719 13.988281 4.230469 13.988281 4.511719 L 13.988281 11.511719 C 13.988281 11.792969 13.769531 12.011719 13.488281 12.011719 L 2.488281 12.011719 C 2.207031 12.011719 1.988281 11.792969 1.988281 11.511719 L 1.988281 4.511719 C 1.988281 4.230469 2.207031 4.011719 2.488281 4.011719 Z M 6 4.992188 L 6 11.011719 L 11 8 Z M 7 6.757813 L 9.0625 8 L 7 9.242188 Z"/></svg>