<?xml version="1.0" encoding="UTF-8" standalone="no"?>
<svg width="343px" height="145px" viewBox="0 0 343 145" version="1.1" xmlns="http://www.w3.org/2000/svg" xmlns:xlink="http://www.w3.org/1999/xlink">
    <!-- Generator: Sketch 3.8.3 (29802) - http://www.bohemiancoding.com/sketch -->
    <title>mlh-logo-white</title>
    <desc>Created with Sketch.</desc>
    <defs></defs>
    <g id="Page-1" stroke="none" stroke-width="1" fill="none" fill-rule="evenodd">
        <g id="mlh-logo-white" fill="#FFFFFF">
            <g id="Layer_1_1_">
                <g>
                    <g id="Group" transform="translate(1.000000, 125.000000)">
                        <path d="M17.1,1.2 C17.5,1.4 17.8,1.6 18.1,1.8 C18.4,2.1 18.6,2.4 18.7,2.8 C18.8,3.2 18.9,3.6 18.9,4 L18.9,18.6 C18.9,18.7 18.9,18.9 18.8,18.9 C18.7,19 18.6,19 18.5,19 L14.9,19 C14.8,19 14.7,19 14.6,18.9 C14.5,18.8 14.5,18.7 14.5,18.6 L14.5,5.4 L11.6,5.4 L11.6,18.6 C11.6,18.7 11.6,18.9 11.5,18.9 C11.4,19 11.3,19 11.2,19 L7.9,19 C7.8,19 7.6,19 7.6,18.9 C7.5,18.8 7.5,18.7 7.5,18.6 L7.5,5.4 L4.6,5.4 L4.6,18.6 C4.6,18.9 4.4,19.1 4.1,19.1 L0.5,19.1 C0.2,19.1 -1.13686838e-13,18.9 -1.13686838e-13,18.6 L-1.13686838e-13,1.5 C-1.13686838e-13,1.2 0.2,1 0.5,1 L16.1,1 C16.4,0.9 16.8,1 17.1,1.2 L17.1,1.2 Z" id="Shape"></path>
                        <path d="M35.2,0.9 C35.6,0.9 36,1 36.4,1.1 C36.8,1.3 37.1,1.5 37.4,1.7 C37.7,2 37.9,2.3 38,2.7 C38.1,3.1 38.2,3.5 38.2,3.9 L38.2,18.5 C38.2,18.6 38.2,18.8 38.1,18.8 C38,18.9 37.9,18.9 37.8,18.9 L34.2,18.9 C34.1,18.9 33.9,18.9 33.9,18.8 C33.8,18.7 33.8,18.6 33.8,18.5 L33.8,13.9 C33.8,13.8 33.8,13.6 33.7,13.6 C33.6,13.5 33.5,13.5 33.4,13.5 L28.3,13.5 C28.2,13.5 28,13.5 28,13.6 C27.9,13.7 27.9,13.8 27.9,13.9 L27.9,18.5 C27.9,18.8 27.7,19 27.4,19 L23.8,19 C23.5,19 23.3,18.8 23.3,18.5 L23.3,3.9 C23.3,3.5 23.4,3.1 23.5,2.7 C23.7,2.3 23.9,2 24.1,1.7 C24.4,1.4 24.7,1.2 25.1,1.1 C25.5,0.9 25.9,0.9 26.3,0.9 L35.2,0.9 L35.2,0.9 Z M33.6,9.5 L33.6,5 L27.5,5 L27.5,9.5 L33.6,9.5 L33.6,9.5 Z" id="Shape"></path>
                        <path d="M54.5,1.1 C54.6,1.2 54.6,1.3 54.6,1.4 L54.6,16 C54.6,16.4 54.5,16.8 54.4,17.2 C54.2,17.6 54,17.9 53.8,18.2 C53.5,18.5 53.2,18.7 52.8,18.8 C52.4,19 52,19 51.6,19 L43.8,19 C43.4,19 43,18.9 42.6,18.8 C42.2,18.6 41.9,18.4 41.6,18.2 C41.3,17.9 41.1,17.6 41,17.2 C40.8,16.8 40.8,16.4 40.8,16 L40.8,10.5 C40.8,10.2 41,10 41.3,10 L44.9,10 C45.2,10 45.4,10.2 45.4,10.5 L45.4,14.2 C45.4,14.3 45.4,14.4 45.5,14.5 C45.6,14.6 45.7,14.6 45.8,14.6 L49.5,14.6 C49.6,14.6 49.8,14.6 49.8,14.5 C49.9,14.4 49.9,14.3 49.9,14.2 L49.9,1.5 C49.9,1.4 49.9,1.2 50,1.2 C50.1,1.1 50.2,1.1 50.3,1.1 L53.9,1.1 C54.2,0.9 54.4,1 54.5,1.1 L54.5,1.1 Z" id="Shape"></path>
                        <path d="M70.8,0.9 C71.2,0.9 71.6,1 72,1.1 C72.4,1.3 72.7,1.5 73,1.7 C73.3,2 73.5,2.3 73.6,2.7 C73.7,3.1 73.8,3.5 73.8,3.9 L73.8,15.9 C73.8,16.3 73.7,16.7 73.6,17.1 C73.4,17.5 73.2,17.8 73,18.1 C72.7,18.4 72.4,18.6 72,18.7 C71.6,18.9 71.2,18.9 70.8,18.9 L61.7,18.9 C61.3,18.9 60.9,18.8 60.5,18.7 C60.1,18.5 59.8,18.3 59.5,18.1 C59.2,17.8 59,17.5 58.9,17.1 C58.7,16.7 58.7,16.3 58.7,15.9 L58.7,3.9 C58.7,3.5 58.8,3.1 58.9,2.7 C59,2.3 59.3,2 59.5,1.7 C59.8,1.4 60.1,1.2 60.5,1.1 C60.9,0.9 61.3,0.9 61.7,0.9 L70.8,0.9 L70.8,0.9 Z M69.2,5.3 L63.1,5.3 L63.1,14.6 L69.2,14.6 L69.2,5.3 L69.2,5.3 Z" id="Shape"></path>
                        <path d="M93.6,18.6 C93.7,18.7 93.7,18.8 93.6,18.9 C93.5,19 93.5,19 93.3,19 L89.2,19 C89.1,19 88.9,19 88.8,18.9 L88.5,18.6 L85.8,13.7 C85.8,13.6 85.7,13.6 85.6,13.6 L82.5,13.6 C82.4,13.6 82.4,13.6 82.4,13.7 L82.4,18.5 C82.4,18.8 82.2,19 81.9,19 L78.3,19 C78,19 77.8,18.8 77.8,18.5 L77.8,1.4 C77.8,1.1 78,0.9 78.3,0.9 L90,0.9 C90.4,0.9 90.8,1 91.2,1.1 C91.6,1.3 91.9,1.5 92.2,1.7 C92.5,2 92.7,2.3 92.8,2.7 C93,3.1 93,3.5 93,3.9 L93,10.7 C93,11.4 92.8,11.9 92.4,12.5 C92,13 91.5,13.4 90.9,13.6 L90.8,13.6 C90.7,13.6 90.7,13.7 90.7,13.8 L90.7,13.9 L93.6,18.6 L93.6,18.6 Z M88.5,5.1 L82.3,5.1 L82.3,9.5 L88.5,9.5 L88.5,5.1 L88.5,5.1 Z" id="Shape"></path>
                        <path d="M117.9,14.6 C118,14.6 118.1,14.6 118.2,14.7 C118.3,14.8 118.3,14.9 118.3,15 L118.3,18.4 C118.3,18.5 118.3,18.7 118.2,18.7 C118.1,18.8 118,18.8 117.9,18.8 L106.8,18.8 C106.5,18.8 106.3,18.6 106.3,18.3 L106.3,1.2 C106.3,0.9 106.5,0.7 106.8,0.7 L110.4,0.7 C110.7,0.7 110.9,0.9 110.9,1.2 L110.9,13.9 C110.9,14 110.9,14.1 111,14.2 C111.1,14.3 111.2,14.3 111.3,14.3 L117.9,14.3 L117.9,14.6 L117.9,14.6 Z" id="Shape"></path>
                        <path d="M134.6,1.1 C134.7,1.2 134.7,1.3 134.7,1.4 L134.7,2.9 L134.7,3.7 L134.7,4.7 C134.7,4.8 134.7,4.9 134.6,5 C134.5,5.1 134.4,5.1 134.3,5.1 L132.5,5.1 L127.1,5.1 L125.7,5.1 C125.6,5.1 125.6,5.1 125.6,5.2 L125.6,8 C125.6,8.1 125.6,8.1 125.7,8.1 L133.1,8.1 C133.2,8.1 133.3,8.1 133.4,8.2 C133.5,8.3 133.5,8.4 133.5,8.5 L133.5,11.1 C133.5,11.2 133.5,11.4 133.4,11.4 C133.3,11.5 133.2,11.5 133.1,11.5 L125.7,11.5 C125.6,11.5 125.6,11.5 125.6,11.6 L125.6,12.9 L125.6,12.9 L125.6,14.4 C125.6,14.5 125.6,14.5 125.7,14.5 L126.8,14.5 L132.6,14.5 L134.3,14.5 C134.4,14.5 134.6,14.5 134.6,14.6 C134.7,14.7 134.7,14.8 134.7,14.9 L134.7,15.9 L134.7,17.2 L134.7,18.1 C134.7,18.2 134.7,18.4 134.6,18.4 C134.5,18.5 134.4,18.5 134.3,18.5 L132.8,18.5 L123,18.5 L121.5,18.5 C121.2,18.5 121,18.3 121,18 L121,17.1 L121,2.1 L121,0.9 C121,0.8 121,0.6 121.1,0.6 C121.2,0.5 121.3,0.5 121.4,0.5 L123.3,0.5 L133.4,0.5 L134.2,0.5 C134.4,0.9 134.5,1 134.6,1.1 L134.6,1.1 Z" id="Shape"></path>
                        <path d="M151,0.9 C151.4,0.9 151.8,1 152.2,1.1 C152.6,1.3 152.9,1.5 153.2,1.7 C153.5,2 153.7,2.3 153.8,2.7 C153.9,3.1 154,3.5 154,3.9 L154,18.5 C154,18.6 154,18.8 153.9,18.8 C153.8,18.9 153.7,18.9 153.6,18.9 L149.9,18.9 C149.8,18.9 149.6,18.9 149.6,18.8 C149.5,18.7 149.5,18.6 149.5,18.5 L149.5,13.9 C149.5,13.8 149.5,13.6 149.4,13.6 C149.3,13.5 149.2,13.5 149.1,13.5 L143.9,13.5 C143.8,13.5 143.6,13.5 143.6,13.6 C143.5,13.7 143.5,13.8 143.5,13.9 L143.5,18.5 C143.5,18.8 143.3,19 143,19 L139.4,19 C139.1,19 138.9,18.8 138.9,18.5 L138.9,3.9 C138.9,3.5 139,3.1 139.1,2.7 C139.3,2.3 139.5,2 139.7,1.7 C140,1.4 140.3,1.2 140.7,1.1 C141.1,0.9 141.5,0.9 141.9,0.9 L151,0.9 L151,0.9 Z M149.4,9.5 L149.4,5 L143.3,5 L143.3,9.5 L149.4,9.5 L149.4,9.5 Z" id="Shape"></path>
                        <path d="M173.1,9.3 C173.2,9.4 173.2,9.5 173.2,9.6 L173.2,16 C173.2,16.4 173.1,16.8 173,17.2 C172.8,17.6 172.6,17.9 172.4,18.2 C172.1,18.5 171.8,18.7 171.4,18.8 C171,19 170.6,19 170.2,19 L161.1,19 C160.7,19 160.3,18.9 159.9,18.8 C159.5,18.6 159.2,18.4 158.9,18.2 C158.6,17.9 158.4,17.6 158.3,17.2 C158.1,16.8 158.1,16.4 158.1,16 L158.1,4 C158.1,3.6 158.2,3.2 158.3,2.8 C158.4,2.4 158.7,2.1 158.9,1.8 C159.2,1.5 159.5,1.3 159.9,1.2 C160.3,1 160.7,1 161.1,1 L171.8,1 C171.9,1 172.1,1 172.1,1.1 C172.2,1.2 172.2,1.3 172.2,1.4 L172.2,4.8 C172.2,4.9 172.2,5.1 172.1,5.1 C172,5.2 171.9,5.2 171.8,5.2 L163.2,5.2 C163.1,5.2 162.9,5.2 162.9,5.3 C162.8,5.4 162.8,5.5 162.8,5.6 L162.8,14 C162.8,14.1 162.8,14.2 162.9,14.3 C163,14.4 163.1,14.4 163.2,14.4 L168.3,14.4 C168.4,14.4 168.5,14.4 168.6,14.3 C168.7,14.2 168.7,14.1 168.7,14 L168.7,9.5 C168.7,9.4 168.7,9.2 168.8,9.2 C168.9,9.1 169,9.1 169.1,9.1 L172.7,9.1 C172.8,9.1 173,9.2 173.1,9.3 L173.1,9.3 Z" id="Shape"></path>
                        <path d="M192.1,1.1 C192.2,1.2 192.2,1.3 192.2,1.4 L192.2,16 C192.2,16.4 192.1,16.8 192,17.2 C191.8,17.6 191.6,17.9 191.4,18.2 C191.1,18.5 190.8,18.7 190.4,18.8 C190,19 189.6,19 189.2,19 L180.1,19 C179.7,19 179.3,18.9 178.9,18.8 C178.5,18.6 178.2,18.4 177.9,18.2 C177.6,17.9 177.4,17.6 177.3,17.2 C177.1,16.8 177.1,16.4 177.1,16 L177.1,1.4 C177.1,1.1 177.3,0.9 177.6,0.9 L181.2,0.9 C181.5,0.9 181.7,1.1 181.7,1.4 L181.7,14.1 C181.7,14.2 181.7,14.3 181.8,14.4 C181.9,14.5 182,14.5 182.1,14.5 L187.2,14.5 C187.3,14.5 187.4,14.5 187.5,14.4 C187.6,14.3 187.6,14.2 187.6,14.1 L187.6,1.4 C187.6,1.3 187.6,1.1 187.7,1.1 C187.8,1 187.9,1 188,1 L191.6,1 C191.9,0.9 192,1 192.1,1.1 L192.1,1.1 Z" id="Shape"></path>
                        <path d="M210,1.1 C210.1,1.2 210.1,1.3 210.1,1.4 L210.1,2.9 L210.1,3.7 L210.1,4.7 C210.1,4.8 210.1,4.9 210,5 C209.9,5.1 209.8,5.1 209.7,5.1 L207.9,5.1 L202.5,5.1 L201.1,5.1 C201,5.1 201,5.1 201,5.2 L201,8 C201,8.1 201,8.1 201.1,8.1 L208.5,8.1 C208.6,8.1 208.7,8.1 208.8,8.2 C208.9,8.3 208.9,8.4 208.9,8.5 L208.9,11.1 C208.9,11.2 208.9,11.4 208.8,11.4 C208.7,11.5 208.6,11.5 208.5,11.5 L201.1,11.5 C201,11.5 201,11.5 201,11.6 L201,12.9 L201,12.9 L201,14.4 C201,14.5 201,14.5 201.1,14.5 L202.2,14.5 L208,14.5 L209.7,14.5 C209.8,14.5 210,14.5 210,14.6 C210.1,14.7 210.1,14.8 210.1,14.9 L210.1,15.9 L210.1,17.2 L210.1,18.1 C210.1,18.2 210.1,18.4 210,18.4 C209.9,18.5 209.8,18.5 209.7,18.5 L208.2,18.5 L198.4,18.5 L196.9,18.5 C196.6,18.5 196.4,18.3 196.4,18 L196.4,17.1 L196.4,2.1 L196.4,0.9 C196.4,0.8 196.4,0.6 196.5,0.6 C196.6,0.5 196.7,0.5 196.8,0.5 L198.7,0.5 L208.8,0.5 L209.6,0.5 C209.8,0.9 209.9,1 210,1.1 L210,1.1 Z" id="Shape"></path>
                        <path d="M237.7,0.9 C237.8,0.9 238,0.9 238,1 C238.1,1.1 238.1,1.2 238.1,1.3 L238.1,18.4 C238.1,18.5 238.1,18.7 238,18.7 C237.9,18.8 237.8,18.8 237.7,18.8 L234.1,18.8 C234,18.8 233.8,18.8 233.8,18.7 C233.7,18.6 233.7,18.5 233.7,18.4 L233.7,12.4 C233.7,12.3 233.7,12.2 233.6,12.1 C233.5,12 233.4,12 233.3,12 L228.2,12 C228.1,12 227.9,12 227.9,12.1 C227.8,12.2 227.8,12.3 227.8,12.4 L227.8,18.4 C227.8,18.7 227.6,18.9 227.3,18.9 L223.7,18.9 C223.4,18.9 223.2,18.7 223.2,18.4 L223.2,1.3 C223.2,1 223.4,0.8 223.7,0.8 L227.3,0.8 C227.6,0.8 227.8,1 227.8,1.3 L227.8,7.1 C227.8,7.4 228,7.6 228.3,7.6 L233.4,7.6 C233.5,7.6 233.6,7.6 233.7,7.5 C233.8,7.4 233.8,7.3 233.8,7.2 L233.8,1.4 C233.8,1.3 233.8,1.1 233.9,1.1 C234,1 234.1,1 234.2,1 L237.7,1 L237.7,0.9 L237.7,0.9 L237.7,0.9 Z" id="Shape"></path>
                        <path d="M254.4,0.9 C254.8,0.9 255.2,1 255.6,1.1 C256,1.3 256.3,1.5 256.6,1.7 C256.9,2 257.1,2.3 257.2,2.7 C257.3,3.1 257.4,3.5 257.4,3.9 L257.4,18.5 C257.4,18.6 257.4,18.8 257.3,18.8 C257.2,18.9 257.1,18.9 257,18.9 L253.4,18.9 C253.3,18.9 253.1,18.9 253.1,18.8 C253,18.7 253,18.6 253,18.5 L253,13.9 C253,13.8 253,13.6 252.9,13.6 C252.8,13.5 252.7,13.5 252.6,13.5 L247.5,13.5 C247.4,13.5 247.2,13.5 247.2,13.6 C247.1,13.7 247.1,13.8 247.1,13.9 L247.1,18.5 C247.1,18.8 246.9,19 246.6,19 L243,19 C242.7,19 242.5,18.8 242.5,18.5 L242.5,3.9 C242.5,3.5 242.6,3.1 242.7,2.7 C242.9,2.3 243.1,2 243.3,1.7 C243.6,1.4 243.9,1.2 244.3,1.1 C244.7,0.9 245.1,0.9 245.5,0.9 L254.4,0.9 L254.4,0.9 Z M252.9,9.5 L252.9,5 L246.8,5 L246.8,9.5 L252.9,9.5 L252.9,9.5 Z" id="Shape"></path>
                        <path d="M266.1,5.4 C266,5.5 266,5.6 266,5.7 L266,14.1 C266,14.2 266,14.3 266.1,14.4 C266.2,14.5 266.3,14.5 266.4,14.5 L274.7,14.5 C274.8,14.5 275,14.5 275,14.6 C275.1,14.7 275.1,14.8 275.1,14.9 L275.1,18.3 C275.1,18.4 275.1,18.6 275,18.6 C274.9,18.7 274.8,18.7 274.7,18.7 L269.3,18.7 L264.9,18.7 L264.4,18.7 C264,18.7 263.6,18.6 263.2,18.5 C262.8,18.3 262.5,18.1 262.2,17.9 C261.9,17.6 261.7,17.3 261.6,16.9 C261.4,16.5 261.4,16.1 261.4,15.7 L261.4,15.2 L261.4,13.3 L261.4,7.3 L261.4,5.6 L261.4,3.6 C261.4,3.2 261.5,2.8 261.6,2.4 C261.8,2 262,1.7 262.2,1.4 C262.5,1.1 262.8,0.9 263.2,0.8 C263.6,0.6 264,0.6 264.4,0.6 L264.9,0.6 L274.7,0.6 C274.8,0.6 275,0.6 275,0.7 C275.1,0.8 275.1,0.9 275.1,1 L275.1,4.4 C275.1,4.5 275.1,4.7 275,4.7 C274.9,4.8 274.8,4.8 274.7,4.8 L266.4,4.8 C266.3,5.3 266.2,5.4 266.1,5.4 L266.1,5.4 Z" id="Shape"></path>
                        <path d="M289.6,8.5 C289.5,8.6 289.5,8.6 289.6,8.7 L295.6,18.6 C295.7,18.7 295.7,18.8 295.6,18.9 C295.5,19 295.5,19 295.3,19 L291,19 C290.9,19 290.7,19 290.6,18.9 C290.5,18.8 290.4,18.7 290.3,18.6 L286.4,11.6 C286.3,11.5 286.3,11.5 286.3,11.6 L284.2,13.9 C284.1,14 284,14.1 284,14.3 C283.9,14.5 283.9,14.6 283.9,14.8 L283.9,18.6 C283.9,18.9 283.7,19.1 283.4,19.1 L279.9,19.1 C279.6,19.1 279.4,18.9 279.4,18.6 L279.4,1.5 C279.4,1.2 279.6,1 279.9,1 L283.5,1 C283.8,1 284,1.2 284,1.5 L284,9.2 L290.7,1.4 C290.8,1.3 290.9,1.2 291.1,1.1 C291.3,1 291.4,1 291.5,1 L295.8,1 C295.9,1 296,1 296,1.1 C296,1.2 296,1.3 295.9,1.4 L289.6,8.5 L289.6,8.5 Z" id="Shape"></path>
                        <path d="M303.5,18.5 C303.5,18.8 303.3,19 303,19 L299.4,19 C299.1,19 298.9,18.8 298.9,18.5 L298.9,1.4 C298.9,1.1 299.1,0.9 299.4,0.9 L303,0.9 C303.3,0.9 303.5,1.1 303.5,1.4 L303.5,18.5 L303.5,18.5 Z" id="Shape"></path>
                        <path d="M320.9,1.2 C321.3,1.4 321.6,1.6 321.9,1.8 C322.2,2.1 322.4,2.4 322.5,2.8 C322.7,3.2 322.7,3.6 322.7,4 L322.7,18.6 C322.7,18.7 322.7,18.9 322.6,18.9 C322.5,19 322.4,19 322.3,19 L318.7,19 C318.6,19 318.5,19 318.4,18.9 C318.3,18.8 318.3,18.7 318.3,18.6 L318.3,5.9 C318.3,5.8 318.3,5.7 318.2,5.6 C318.1,5.5 318,5.5 317.9,5.5 L312.8,5.5 C312.7,5.5 312.5,5.5 312.5,5.6 C312.5,5.7 312.4,5.8 312.4,5.9 L312.4,18.6 C312.4,18.9 312.2,19.1 311.9,19.1 L308.3,19.1 C308,19.1 307.8,18.9 307.8,18.6 L307.8,1.5 C307.8,1.2 308,1 308.3,1 L320,1 C320.2,0.9 320.6,1 320.9,1.2 L320.9,1.2 Z" id="Shape"></path>
                        <path d="M341.8,9.3 C341.9,9.4 341.9,9.5 341.9,9.6 L341.9,16 C341.9,16.4 341.8,16.8 341.7,17.2 C341.5,17.6 341.3,17.9 341.1,18.2 C340.8,18.5 340.5,18.7 340.1,18.8 C339.7,19 339.3,19 338.9,19 L329.8,19 C329.4,19 329,18.9 328.6,18.8 C328.2,18.6 327.9,18.4 327.6,18.2 C327.3,17.9 327.1,17.6 327,17.2 C326.8,16.8 326.8,16.4 326.8,16 L326.8,4 C326.8,3.6 326.9,3.2 327,2.8 C327.1,2.4 327.4,2.1 327.6,1.8 C327.9,1.5 328.2,1.3 328.6,1.2 C329,1 329.4,1 329.8,1 L340.5,1 C340.6,1 340.8,1 340.8,1.1 C340.9,1.2 340.9,1.3 340.9,1.4 L340.9,4.8 C340.9,4.9 340.9,5.1 340.8,5.1 C340.7,5.2 340.6,5.2 340.5,5.2 L331.9,5.2 C331.8,5.2 331.6,5.2 331.6,5.3 C331.5,5.4 331.5,5.5 331.5,5.6 L331.5,14 C331.5,14.1 331.5,14.2 331.6,14.3 C331.7,14.4 331.8,14.4 331.9,14.4 L337,14.4 C337.1,14.4 337.2,14.4 337.3,14.3 C337.4,14.2 337.4,14.1 337.4,14 L337.4,9.5 C337.4,9.4 337.4,9.2 337.5,9.2 C337.6,9.1 337.7,9.1 337.8,9.1 L341.4,9.1 C341.6,9.1 341.7,9.2 341.8,9.3 L341.8,9.3 Z" id="Shape"></path>
                    </g>
                    <path d="M109.8,1.5 C112.1,2.5 114.1,3.9 115.8,5.6 C117.5,7.3 118.8,9.3 119.9,11.6 C120.9,13.9 121.4,16.4 121.4,19 L121.4,113.8 C121.4,114.7 121.1,115.4 120.5,116 C119.9,116.6 119.2,116.9 118.3,116.9 L95.6,116.9 C94.7,116.9 94,116.6 93.5,116 C93,115.4 92.7,114.7 92.7,113.8 L92.7,27.6 L74.4,27.6 L74.4,113.8 C74.4,114.7 74.1,115.4 73.6,116 C73.1,116.6 72.3,116.9 71.5,116.9 L50.9,116.9 C50,116.9 49.3,116.6 48.7,116 C48.1,115.4 47.8,114.7 47.8,113.8 L47.8,27.6 L29.5,27.6 L29.5,113.8 C29.5,115.9 28.5,116.9 26.4,116.9 L3.9,116.9 C1.8,116.9 0.8,115.9 0.8,113.8 L0.8,3.1 C0.8,1 1.8,0 3.9,0 L102.3,0 C105,0 107.4,0.5 109.8,1.5 L109.8,1.5 Z" id="Shape"></path>
                    <path d="M220.3,88.5 C221.2,88.5 222,88.8 222.5,89.4 C223.1,90 223.4,90.8 223.4,91.7 L223.4,113.8 C223.4,114.7 223.1,115.4 222.5,116.1 C221.9,116.7 221.2,117 220.3,117 L142.6,117 C140.4,117 139.3,115.9 139.3,113.8 L139.3,3.2 C139.3,1.1 140.4,0 142.6,0 L166.4,0 C168.6,0 169.7,1.1 169.7,3.2 L169.7,85.6 C169.7,86.5 170,87.2 170.7,87.8 C171.3,88.4 172.1,88.6 173,88.6 L220.3,88.6 L220.3,88.5 L220.3,88.5 L220.3,88.5 Z" id="Shape"></path>
                    <path d="M339.7,0 C340.6,0 341.4,0.3 342,0.9 C342.6,1.5 343,2.3 343,3.2 L343,114.1 C343,115 342.7,115.7 342,116.4 C341.4,117 340.6,117.3 339.7,117.3 L315.5,117.3 C314.6,117.3 313.8,117 313.2,116.4 C312.6,115.8 312.2,115 312.2,114.1 L312.2,75.4 C312.2,74.5 311.9,73.8 311.3,73.2 C310.7,72.6 310,72.4 309,72.4 L275.1,72.4 C274.2,72.4 273.4,72.7 272.8,73.2 C272.2,73.8 271.8,74.5 271.8,75.4 L271.8,114.1 C271.8,116.2 270.7,117.3 268.5,117.3 L244.5,117.3 C242.3,117.3 241.2,116.2 241.2,114.1 L241.2,3.2 C241.2,1.1 242.3,0 244.5,0 L268.5,0 C270.7,0 271.8,1.1 271.8,3.2 L271.8,40.7 C271.8,42.8 272.9,43.9 275.1,43.9 L309,43.9 C309.9,43.9 310.7,43.6 311.3,43 C311.9,42.4 312.2,41.6 312.2,40.7 L312.2,3.2 C312.2,2.3 312.5,1.6 313.2,0.9 C313.8,0.3 314.6,0 315.5,0 L339.7,0 L339.7,0 Z" id="Shape"></path>
                </g>
            </g>
        </g>
    </g>
</svg>