<?xml version="1.0" encoding="UTF-8" standalone="no"?>
<svg
   viewBox="0 0 310.61405 330.81906"
   version="1.1"
   id="svg501"
   sodipodi:docname="mlh.svg"
   width="310.61404"
   height="330.81906"
   inkscape:version="1.1 (c4e8f9e, 2021-05-24)"
   xmlns:inkscape="http://www.inkscape.org/namespaces/inkscape"
   xmlns:sodipodi="http://sodipodi.sourceforge.net/DTD/sodipodi-0.dtd"
   xmlns="http://www.w3.org/2000/svg"
   xmlns:svg="http://www.w3.org/2000/svg"
   xmlns:rdf="http://www.w3.org/1999/02/22-rdf-syntax-ns#"
   xmlns:cc="http://creativecommons.org/ns#"
   xmlns:dc="http://purl.org/dc/elements/1.1/">
  <sodipodi:namedview
     id="namedview503"
     pagecolor="#ffffff"
     bordercolor="#666666"
     borderopacity="1.0"
     inkscape:pageshadow="2"
     inkscape:pageopacity="0.0"
     inkscape:pagecheckerboard="0"
     showgrid="false"
     fit-margin-top="100"
     fit-margin-left="0"
     fit-margin-right="0"
     fit-margin-bottom="100"
     lock-margins="false"
     inkscape:zoom="0.47056042"
     inkscape:cx="243.32688"
     inkscape:cy="607.78592"
     inkscape:window-width="1312"
     inkscape:window-height="872"
     inkscape:window-x="0"
     inkscape:window-y="0"
     inkscape:window-maximized="0"
     inkscape:current-layer="svg501" />
  <defs
     id="defs448">
    <style
       id="style446">.cls-1{fill:#242425}.cls-2{fill:#e73427}.cls-3{fill:#1d539f}.cls-4{fill:#f8b92a}</style>
  </defs>
  <title
     id="title450">mlh-logo-color-dark</title>
  <g
     id="Layer_2"
     data-name="Layer 2"
     transform="translate(0.02405851,100.0253)">
    <g
       id="Layer_1-2"
       data-name="Layer 1">
      <g
         id="mlh-logo-color-dark">
        <g
           id="Major_League_Hacking"
           data-name="Major League Hacking">
          <path
             d="m 15.65,114.54 a 2.79,2.79 0 0 1 1.68,2.51 v 13.22 a 0.45,0.45 0 0 1 -0.45,0.44 h -3.26 a 0.39,0.39 0 0 1 -0.3,-0.12 0.47,0.47 0 0 1 -0.12,-0.32 v -12 h -2.63 v 12 a 0.45,0.45 0 0 1 -0.12,0.31 0.34,0.34 0 0 1 -0.3,0.13 h -3 a 0.44,0.44 0 0 1 -0.44,-0.44 v 0 -12 H 4.13 v 12 A 0.39,0.39 0 0 1 3.8,130.71 H 0.45 A 0.4,0.4 0 0 1 0,130.4 v -15.64 a 0.39,0.39 0 0 1 0.33,-0.44 h 14.24 a 2.52,2.52 0 0 1 1.08,0.22 z"
             class="cls-1"
             id="path452" />
          <path
             d="m 32,114.32 a 2.75,2.75 0 0 1 2.55,1.68 2.56,2.56 0 0 1 0.23,1.06 v 13.22 a 0.42,0.42 0 0 1 -0.42,0.44 h -3.28 a 0.45,0.45 0 0 1 -0.45,-0.44 v 0 -4.2 a 0.44,0.44 0 0 0 -0.11,-0.31 0.38,0.38 0 0 0 -0.31,-0.13 h -4.64 a 0.45,0.45 0 0 0 -0.45,0.44 v 0 4.2 a 0.38,0.38 0 0 1 -0.32,0.44 H 21.45 A 0.38,0.38 0 0 1 21,130.4 v -13.34 a 2.75,2.75 0 0 1 0.21,-1.06 2.6,2.6 0 0 1 0.59,-0.91 2.91,2.91 0 0 1 0.91,-0.59 2.58,2.58 0 0 1 1.06,-0.22 z m -1.41,7.81 V 118 h -5.5 v 4.12 z"
             class="cls-1"
             id="path454" />
          <path
             d="m 49.52,114.45 a 0.37,0.37 0 0 1 0.13,0.31 V 128 a 2.58,2.58 0 0 1 -0.22,1.06 3,3 0 0 1 -0.59,0.91 2.47,2.47 0 0 1 -0.9,0.59 2.8,2.8 0 0 1 -1.07,0.21 h -7 A 2.8,2.8 0 0 1 38.8,130.56 2.74,2.74 0 0 1 37.12,128 v -5 a 0.4,0.4 0 0 1 0.33,-0.45 h 3.35 a 0.41,0.41 0 0 1 0.45,0.33 v 3.47 a 0.41,0.41 0 0 0 0.12,0.31 0.46,0.46 0 0 0 0.32,0.11 h 3.4 a 0.44,0.44 0 0 0 0.31,-0.11 0.38,0.38 0 0 0 0.13,-0.31 v -11.59 a 0.45,0.45 0 0 1 0.12,-0.31 0.37,0.37 0 0 1 0.31,-0.13 h 3.26 a 0.39,0.39 0 0 1 0.3,0.13 z"
             class="cls-1"
             id="path456" />
          <path
             d="m 64.35,114.32 a 2.58,2.58 0 0 1 1.06,0.22 2.64,2.64 0 0 1 1.45,1.46 2.56,2.56 0 0 1 0.23,1.06 v 10.89 a 2.64,2.64 0 0 1 -0.23,1.07 2.78,2.78 0 0 1 -0.58,0.9 2.51,2.51 0 0 1 -0.91,0.59 2.54,2.54 0 0 1 -1.06,0.21 H 56.05 A 2.61,2.61 0 0 1 55,130.5 2.71,2.71 0 0 1 53.32,128 v -10.89 a 2.8,2.8 0 0 1 0.21,-1.07 2.45,2.45 0 0 1 0.58,-0.9 2.91,2.91 0 0 1 0.91,-0.59 2.55,2.55 0 0 1 1.06,-0.22 z m -1.41,4 h -5.5 v 8.44 H 63 Z"
             class="cls-1"
             id="path458" />
          <path
             d="m 85.06,130.35 a 0.22,0.22 0 0 1 0,0.27 0.27,0.27 0 0 1 -0.25,0.11 h -3.72 a 0.7,0.7 0 0 1 -0.37,-0.11 0.75,0.75 0 0 1 -0.29,-0.27 L 78,125.9 a 0.17,0.17 0 0 0 -0.17,-0.09 H 75 a 0.1,0.1 0 0 0 -0.12,0.08 v 4.36 a 0.38,0.38 0 0 1 -0.34,0.43 h -3.33 a 0.39,0.39 0 0 1 -0.44,-0.32 0.24,0.24 0 0 1 0,-0.12 v -15.48 a 0.38,0.38 0 0 1 0.32,-0.44 h 10.72 a 2.62,2.62 0 0 1 1.06,0.22 2.78,2.78 0 0 1 1.45,1.46 2.58,2.58 0 0 1 0.22,1.06 v 6.16 a 2.66,2.66 0 0 1 -0.53,1.61 2.58,2.58 0 0 1 -1.35,1 h -0.07 c -0.11,0 -0.14,0.08 -0.08,0.14 v 0 z M 80.4,118.14 h -5.65 v 4 h 5.65 z"
             class="cls-1"
             id="path460" />
          <path
             d="m 107.12,126.74 a 0.39,0.39 0 0 1 0.31,0.12 0.47,0.47 0 0 1 0.12,0.32 v 3.1 a 0.45,0.45 0 0 1 -0.12,0.31 0.37,0.37 0 0 1 -0.31,0.13 H 97 a 0.4,0.4 0 0 1 -0.45,-0.32 v -15.64 a 0.39,0.39 0 0 1 0.33,-0.44 h 3.35 a 0.39,0.39 0 0 1 0.44,0.33 0.2,0.2 0 0 1 0,0.11 v 11.56 a 0.4,0.4 0 0 0 0.13,0.31 0.47,0.47 0 0 0 0.32,0.12 z"
             class="cls-1"
             id="path462" />
          <path
             d="m 122.28,114.45 a 0.4,0.4 0 0 1 0.13,0.31 v 2.95 a 0.37,0.37 0 0 1 -0.13,0.31 0.45,0.45 0 0 1 -0.31,0.12 h -7.86 a 0.09,0.09 0 0 0 -0.11,0.08 c 0,0 0,0 0,0 v 2.55 c 0,0.06 0,0.09 0.11,0.09 h 6.7 a 0.37,0.37 0 0 1 0.3,0.13 0.45,0.45 0 0 1 0.12,0.31 v 2.35 a 0.45,0.45 0 0 1 -0.12,0.31 0.37,0.37 0 0 1 -0.3,0.13 h -6.7 a 0.1,0.1 0 0 0 -0.11,0.08 v 2.53 a 0.09,0.09 0 0 0 0.07,0.12 H 122 a 0.44,0.44 0 0 1 0.44,0.43 v 3 a 0.43,0.43 0 0 1 -0.43,0.44 h -11.69 a 0.4,0.4 0 0 1 -0.45,-0.32 v -15.61 a 0.45,0.45 0 0 1 0.45,-0.44 H 122 a 0.42,0.42 0 0 1 0.28,0.13 z"
             class="cls-1"
             id="path464" />
          <path
             d="m 137.15,114.32 a 2.6,2.6 0 0 1 1.07,0.22 2.69,2.69 0 0 1 1.46,1.45 2.55,2.55 0 0 1 0.22,1.06 v 13.22 a 0.42,0.42 0 0 1 -0.42,0.44 h -3.31 a 0.44,0.44 0 0 1 -0.44,-0.44 v 0 -4.2 a 0.45,0.45 0 0 0 -0.12,-0.31 0.37,0.37 0 0 0 -0.31,-0.13 h -4.57 a 0.45,0.45 0 0 0 -0.45,0.44 v 0 4.2 a 0.39,0.39 0 0 1 -0.33,0.44 h -3.35 a 0.38,0.38 0 0 1 -0.44,-0.32 0.24,0.24 0 0 1 0,-0.12 v -13.21 a 2.75,2.75 0 0 1 0.21,-1.06 2.6,2.6 0 0 1 0.59,-0.91 2.91,2.91 0 0 1 0.91,-0.59 2.55,2.55 0 0 1 1.06,-0.22 z m -1.4,7.81 V 118 h -5.51 v 4.12 z"
             class="cls-1"
             id="path466" />
          <path
             d="m 157.2,121.9 a 0.41,0.41 0 0 1 0.12,0.32 V 128 a 2.58,2.58 0 0 1 -0.22,1.06 3.21,3.21 0 0 1 -0.58,0.91 2.6,2.6 0 0 1 -0.91,0.59 2.78,2.78 0 0 1 -1.06,0.21 h -8.3 a 2.73,2.73 0 0 1 -2.74,-2.74 v -10.9 a 2.78,2.78 0 0 1 0.21,-1.06 2.44,2.44 0 0 1 0.58,-0.91 3,3 0 0 1 0.9,-0.59 2.81,2.81 0 0 1 1.07,-0.22 H 156 a 0.45,0.45 0 0 1 0.45,0.45 v 0 3.09 a 0.45,0.45 0 0 1 -0.45,0.45 h -7.85 a 0.47,0.47 0 0 0 -0.32,0.12 0.44,0.44 0 0 0 -0.13,0.31 v 7.59 a 0.42,0.42 0 0 0 0.13,0.3 0.43,0.43 0 0 0 0.32,0.12 h 4.64 a 0.4,0.4 0 0 0 0.42,-0.38 v -4.14 a 0.42,0.42 0 0 1 0.42,-0.44 h 3.28 a 0.43,0.43 0 0 1 0.29,0.08 z"
             class="cls-1"
             id="path468" />
          <path
             d="m 174.49,114.45 a 0.44,0.44 0 0 1 0.13,0.31 V 128 a 2.59,2.59 0 0 1 -0.23,1.06 3,3 0 0 1 -0.58,0.91 2.6,2.6 0 0 1 -0.91,0.59 2.8,2.8 0 0 1 -1.07,0.21 h -8.3 a 2.78,2.78 0 0 1 -1.06,-0.21 2.75,2.75 0 0 1 -1.47,-1.46 2.8,2.8 0 0 1 -0.21,-1.07 v -13.27 a 0.39,0.39 0 0 1 0.33,-0.44 h 3.35 a 0.39,0.39 0 0 1 0.44,0.33 0.2,0.2 0 0 1 0,0.11 v 11.56 a 0.4,0.4 0 0 0 0.13,0.31 0.47,0.47 0 0 0 0.32,0.12 H 170 a 0.42,0.42 0 0 0 0.3,-0.12 0.37,0.37 0 0 0 0.12,-0.31 v -11.56 a 0.45,0.45 0 0 1 0.45,-0.44 h 3.26 a 0.39,0.39 0 0 1 0.36,0.13 z"
             class="cls-1"
             id="path470" />
          <path
             d="m 190.73,114.45 a 0.44,0.44 0 0 1 0.13,0.31 v 2.95 a 0.4,0.4 0 0 1 -0.13,0.31 0.47,0.47 0 0 1 -0.32,0.12 h -7.85 a 0.1,0.1 0 0 0 -0.12,0.08 v 2.59 c 0,0.06 0,0.09 0.12,0.09 h 6.7 a 0.39,0.39 0 0 1 0.3,0.13 0.45,0.45 0 0 1 0.12,0.31 v 2.35 a 0.45,0.45 0 0 1 -0.12,0.31 0.39,0.39 0 0 1 -0.3,0.13 h -6.7 a 0.11,0.11 0 0 0 -0.12,0.08 v 2.57 a 0.1,0.1 0 0 0 0.08,0.12 h 7.89 a 0.45,0.45 0 0 1 0.45,0.43 v 3 a 0.44,0.44 0 0 1 -0.43,0.44 h -11.66 a 0.39,0.39 0 0 1 -0.45,-0.32 0.24,0.24 0 0 1 0,-0.12 v -15.57 a 0.45,0.45 0 0 1 0.45,-0.44 h 11.64 a 0.42,0.42 0 0 1 0.32,0.13 z"
             class="cls-1"
             id="path472" />
          <path
             d="m 215.88,114.32 a 0.42,0.42 0 0 1 0.44,0.42 v 15.54 a 0.43,0.43 0 0 1 -0.43,0.44 h -3.27 a 0.45,0.45 0 0 1 -0.45,-0.44 v 0 -5.45 a 0.4,0.4 0 0 0 -0.38,-0.42 h -4.67 a 0.45,0.45 0 0 0 -0.32,0.12 0.37,0.37 0 0 0 -0.13,0.31 v 5.45 a 0.39,0.39 0 0 1 -0.33,0.44 0.21,0.21 0 0 1 -0.11,0 H 203 a 0.39,0.39 0 0 1 -0.44,-0.33 0.2,0.2 0 0 1 0,-0.11 v -15.53 a 0.39,0.39 0 0 1 0.33,-0.44 h 3.35 a 0.39,0.39 0 0 1 0.44,0.33 0.2,0.2 0 0 1 0,0.11 V 120 a 0.39,0.39 0 0 0 0.33,0.44 h 4.75 a 0.39,0.39 0 0 0 0.31,-0.12 0.47,0.47 0 0 0 0.12,-0.32 v -5.25 a 0.45,0.45 0 0 1 0.45,-0.44 h 3.25 z"
             class="cls-1"
             id="path474" />
          <path
             d="m 231.06,114.32 a 2.6,2.6 0 0 1 1.07,0.22 2.69,2.69 0 0 1 1.46,1.45 2.55,2.55 0 0 1 0.22,1.06 v 13.22 a 0.42,0.42 0 0 1 -0.42,0.44 h -3.28 a 0.44,0.44 0 0 1 -0.44,-0.44 v -4.2 a 0.45,0.45 0 0 0 -0.12,-0.31 0.37,0.37 0 0 0 -0.31,-0.13 h -4.65 a 0.44,0.44 0 0 0 -0.44,0.44 v 0 4.2 a 0.39,0.39 0 0 1 -0.33,0.44 h -3.35 a 0.39,0.39 0 0 1 -0.45,-0.32 v -13.33 a 2.75,2.75 0 0 1 0.21,-1.06 2.6,2.6 0 0 1 0.59,-0.91 3,3 0 0 1 0.91,-0.59 2.62,2.62 0 0 1 1.06,-0.22 z m -1.4,7.81 V 118 h -5.51 v 4.12 z"
             class="cls-1"
             id="path476" />
          <path
             d="m 241.68,118.42 a 0.39,0.39 0 0 0 -0.12,0.31 v 7.59 a 0.39,0.39 0 0 0 0.12,0.31 0.47,0.47 0 0 0 0.32,0.12 h 7.53 a 0.42,0.42 0 0 1 0.44,0.42 v 3.12 a 0.42,0.42 0 0 1 -0.42,0.44 h -9.37 a 2.71,2.71 0 0 1 -1.06,-0.21 2.6,2.6 0 0 1 -0.91,-0.59 2.92,2.92 0 0 1 -0.79,-2 v -10.86 a 2.71,2.71 0 0 1 0.21,-1.06 2.44,2.44 0 0 1 0.58,-0.91 2.91,2.91 0 0 1 0.91,-0.59 2.55,2.55 0 0 1 1.06,-0.22 h 9.35 a 0.44,0.44 0 0 1 0.44,0.43 v 3.11 a 0.44,0.44 0 0 1 -0.42,0.45 H 242 a 0.45,0.45 0 0 0 -0.32,0.14 z"
             class="cls-1"
             id="path478" />
          <path
             d="m 263,121.23 a 0.12,0.12 0 0 0 0,0.16 l 5.44,9 a 0.22,0.22 0 0 1 0,0.27 0.27,0.27 0 0 1 -0.25,0.11 h -3.9 a 0.7,0.7 0 0 1 -0.37,-0.11 0.66,0.66 0 0 1 -0.28,-0.27 L 260.13,124 c 0,-0.09 -0.09,-0.09 -0.12,0 l -1.94,2.13 a 0.9,0.9 0 0 0 -0.2,0.34 1.1,1.1 0 0 0 -0.08,0.4 v 3.47 a 0.41,0.41 0 0 1 -0.33,0.45 h -3.28 a 0.39,0.39 0 0 1 -0.44,-0.33 0.24,0.24 0 0 1 0,-0.12 v -15.58 a 0.39,0.39 0 0 1 0.33,-0.44 h 3.35 a 0.39,0.39 0 0 1 0.44,0.33 0.2,0.2 0 0 1 0,0.11 v 7 l 6.05,-7.08 a 1,1 0 0 1 0.26,-0.27 0.93,0.93 0 0 1 0.4,-0.09 h 3.89 c 0.13,0 0.2,0 0.23,0.09 0.03,0.09 0,0.15 -0.08,0.24 z"
             class="cls-1"
             id="path480" />
          <path
             d="m 275.65,130.28 a 0.38,0.38 0 0 1 -0.32,0.44 H 272 a 0.39,0.39 0 0 1 -0.45,-0.32 v -15.64 a 0.39,0.39 0 0 1 0.33,-0.44 h 3.35 a 0.39,0.39 0 0 1 0.44,0.33 0.2,0.2 0 0 1 0,0.11 z"
             class="cls-1"
             id="path482" />
          <path
             d="m 291.4,114.54 a 2.76,2.76 0 0 1 1.46,1.45 2.57,2.57 0 0 1 0.21,1.06 v 13.22 a 0.42,0.42 0 0 1 -0.42,0.44 h -3.24 a 0.39,0.39 0 0 1 -0.31,-0.12 0.47,0.47 0 0 1 -0.12,-0.32 v -11.55 a 0.37,0.37 0 0 0 -0.13,-0.31 0.45,0.45 0 0 0 -0.31,-0.12 h -4.64 a 0.47,0.47 0 0 0 -0.32,0.12 0.4,0.4 0 0 0 -0.13,0.31 v 11.56 a 0.39,0.39 0 0 1 -0.33,0.44 h -3.35 a 0.39,0.39 0 0 1 -0.44,-0.32 0.24,0.24 0 0 1 0,-0.12 v -15.52 a 0.39,0.39 0 0 1 0.33,-0.44 h 10.71 a 2.45,2.45 0 0 1 1.03,0.22 z"
             class="cls-1"
             id="path484" />
          <path
             d="m 310.41,121.9 a 0.42,0.42 0 0 1 0.13,0.32 V 128 a 2.59,2.59 0 0 1 -0.23,1.06 2.82,2.82 0 0 1 -0.58,0.91 2.51,2.51 0 0 1 -0.91,0.59 2.71,2.71 0 0 1 -1.06,0.21 h -8.3 A 2.78,2.78 0 0 1 298.4,130.56 2.74,2.74 0 0 1 296.76,128 V 117.11 A 2.8,2.8 0 0 1 297,116 a 2.45,2.45 0 0 1 0.58,-0.9 2.91,2.91 0 0 1 0.91,-0.59 2.55,2.55 0 0 1 1.06,-0.22 h 9.68 a 0.44,0.44 0 0 1 0.44,0.44 v 3.1 a 0.44,0.44 0 0 1 -0.44,0.44 h -7.86 a 0.45,0.45 0 0 0 -0.31,0.12 0.37,0.37 0 0 0 -0.13,0.31 v 7.59 a 0.37,0.37 0 0 0 0.13,0.31 0.4,0.4 0 0 0 0.31,0.11 h 4.59 a 0.4,0.4 0 0 0 0.42,-0.38 v -4.14 a 0.42,0.42 0 0 1 0.42,-0.44 h 3.28 a 0.43,0.43 0 0 1 0.33,0.15 z"
             class="cls-1"
             id="path486" />
        </g>
        <g
           id="M">
          <path
             d="m 98.85,1.41 a 17.32,17.32 0 0 1 9.15,9.16 16.51,16.51 0 0 1 1.41,6.68 v 86.06 a 2.78,2.78 0 0 1 -2.75,2.8 H 86 a 2.43,2.43 0 0 1 -1.92,-0.82 2.82,2.82 0 0 1 -0.74,-2 V 25.12 H 66.79 v 78.22 a 2.87,2.87 0 0 1 -0.74,2 2.52,2.52 0 0 1 -1.93,0.82 H 45.47 a 2.78,2.78 0 0 1 -2.82,-2.74 V 25.12 H 26.07 v 78.22 a 2.49,2.49 0 0 1 -2.82,2.81 H 2.82 A 2.49,2.49 0 0 1 0,103.34 V 2.81 A 2.49,2.49 0 0 1 2.82,0 h 89.29 a 16.46,16.46 0 0 1 6.74,1.41 z"
             class="cls-2"
             id="path489" />
        </g>
        <g
           id="L">
          <path
             d="m 199.19,80.38 a 2.69,2.69 0 0 1 2,0.83 2.89,2.89 0 0 1 0.78,2.05 v 20 a 2.83,2.83 0 0 1 -0.78,2 2.67,2.67 0 0 1 -2,0.84 h -70.5 c -2,0 -3,-1 -3,-2.88 V 2.88 c 0,-1.92 1,-2.88 3,-2.88 h 21.64 c 2,0 3,1 3,2.88 v 74.77 a 2.49,2.49 0 0 0 0.91,2 3.09,3.09 0 0 0 2.11,0.77 z"
             class="cls-3"
             id="path492" />
        </g>
        <g
           id="H">
          <path
             d="m 307.54,0 a 2.94,2.94 0 0 1 2.14,0.84 2.76,2.76 0 0 1 0.91,2.05 v 100.68 a 2.76,2.76 0 0 1 -0.91,2.05 2.94,2.94 0 0 1 -2.14,0.84 h -21.92 a 2.93,2.93 0 0 1 -2.13,-0.84 2.69,2.69 0 0 1 -0.91,-2.05 V 68.44 a 2.63,2.63 0 0 0 -0.79,-2 2.82,2.82 0 0 0 -2.05,-0.76 H 249 a 3.09,3.09 0 0 0 -2.13,0.76 2.5,2.5 0 0 0 -0.91,2 v 35.13 c 0,1.92 -1,2.89 -3,2.89 H 221.2 c -2,0 -3,-1 -3,-2.89 V 2.89 c 0,-1.93 1,-2.89 3,-2.89 H 243 c 2,0 3,1 3,2.89 V 37 c 0,1.92 1,2.88 3,2.88 h 30.81 a 2.74,2.74 0 0 0 2.06,-0.83 2.93,2.93 0 0 0 0.79,-2 V 2.89 a 2.71,2.71 0 0 1 0.9,-2.05 2.92,2.92 0 0 1 2.06,-0.84 z"
             class="cls-4"
             id="path495" />
        </g>
      </g>
    </g>
  </g>
  <metadata
     id="metadata591">
    <rdf:RDF>
      <cc:Work
         rdf:about="">
        <dc:title>mlh-logo-color-dark</dc:title>
      </cc:Work>
    </rdf:RDF>
  </metadata>
</svg>
