<?xml version="1.0" encoding="utf-8"?>
<!-- Generator: Adobe Illustrator 26.0.2, SVG Export Plug-In . SVG Version: 6.00 Build 0)  -->
<svg version="1.1" id="Layer_1" xmlns="http://www.w3.org/2000/svg" xmlns:xlink="http://www.w3.org/1999/xlink" x="0px" y="0px"
	 viewBox="0 0 440 58.9" style="enable-background:new 0 0 440 58.9;" xml:space="preserve">
<style type="text/css">
	.st0{display:none;}
	.st1{fill:#FFFFFF;}
</style>
<path class="st0" d="M-55.2-12.3c-4.4-0.1-8-3.6-7.9-7.9c0-4.2,3.7-7.7,8.1-7.7c4.7,0,8.3,3.7,8.1,8.2
	C-47.2-15.3-50.6-12.2-55.2-12.3z"/>
<path class="st0" d="M-5.9-22.9c0.1,4.2-3.4,7.9-7.7,8.2c-4.3,0.2-8.5-3.8-8.5-8c0.1-4.2,3.8-7.8,8.1-7.8C-9.6-30.6-6-27.2-5.9-22.9
	z"/>
<g>
	<path class="st1" d="M414.8,58.9c-3.7,0-9.7-0.8-14.7-4.8c-4.3-3.4-6.1-8.1-6.7-13.4c-0.1-1.4,0.4-1.8,1.7-1.7c0.3,0,0.7,0,1,0
		c1.7,0,3.7-0.4,5.2,0.2c1.7,0.6,1.2,2.9,1.8,4.4c1.5,3.6,4,6,7.9,6.9c4.7,1.2,9.4,1,14-0.4c3.2-1,5.9-2.8,6.3-6.6
		c0.3-3-1.7-6-5.4-7.7c-5.2-2.4-10.9-3.6-16.3-5.5c-2.4-0.9-4.9-1.6-7.2-2.7c-8.8-4.1-10.3-16.2-2.7-22.4c6.3-5.2,13.8-5.8,21.5-5
		c4.5,0.5,8.7,1.9,12.2,5.1c3,2.8,4.4,6.4,5.1,10.3c0.3,1.5,0,2.5-1.8,2.2c-0.2,0-0.3,0-0.5,0c-3.7,0.3-6.9,0.4-7.9-4.5
		c-0.5-2.6-3.1-4-5.6-4.9c-4.4-1.4-8.9-1.5-13.3-0.1c-2.9,0.9-5.3,2.5-5.5,6c-0.2,3.5,1,5.4,4.6,7.1c4.5,2.1,9.4,3.2,14.1,4.8
		c3.4,1.2,6.8,2.2,9.9,4c5.2,3,7.9,7.4,7.5,13.5c-0.4,5.6-3.1,9.4-8,12C427.4,58.3,422.4,58.9,414.8,58.9z"/>
	<path class="st1" d="M197.3,33.1c0-7.5,0-14.9,0-22.4c0-1.6-0.4-2.2-2.1-2.1c-4.9,0.1-9.8,0-14.7,0.1c-1.7,0-2.3-0.5-2.3-2.3
		c0.2-6.1-0.8-5.2,5.1-5.2c13.1,0,26.1,0,39.2-0.1c2.2,0,2.8,0.7,2.8,2.8c-0.1,4.7,0,4.7-4.7,4.7c-3.8,0-7.7,0.1-11.5,0
		c-2.3-0.1-3,0.6-3,2.9c0.1,14.5,0,29,0.1,43.5c0,2.3-0.6,3-2.9,2.9c-6-0.1-6,0-6-5.9C197.3,45.7,197.3,39.4,197.3,33.1z"/>
	<path class="st1" d="M232.1,29.6c0-8.6,0-17.2,0-25.9c0-1.7,0.3-2.5,2.3-2.5c6.5,0,6.5-0.1,6.5,6.5c0,13.2,0.1,26.4-0.1,39.5
		c0,2.7,0.8,3.1,3.2,3.1c8.6-0.1,17.3,0,26-0.1c1.9,0,2.4,0.5,2.4,2.3c-0.1,5.2,0,5.2-5.2,5.2c-10.9,0-21.8,0-32.7,0
		c-1.9,0-2.4-0.5-2.3-2.4C232.1,46.9,232.1,38.2,232.1,29.6z"/>
	<path class="st1" d="M332.9,57.8c-2.1,0-3.7,0-5.4,0c-4.1,0-4,0-5.5-3.9c-6.3-16.8-12.6-33.6-18.9-50.4c-0.8-2-0.2-2.2,1.6-2.2
		c6.5-0.1,6.4-0.1,8.7,5.8c6.2,16.1,12.5,32.2,18.7,48.3C332.4,56.1,332.6,56.8,332.9,57.8z"/>
	<path class="st1" d="M296.9,28.3c0.3,0,0.7,0,1,0c6.3,0,6.2,0,8,6.1c0.4,1.3-0.1,1.4-1.1,1.4c-2,0-4,0.1-6-0.1
		c-1.8-0.2-2.5,0.6-3,2.2c-2,5.8-4.3,11.6-6.3,17.5c-0.6,1.8-1.5,2.7-3.6,2.4c-2.2-0.3-4.4,0.4-6.6-0.4c0.7-2,1.4-4,2.2-6
		c2.6-6.9,5.4-13.7,7.9-20.6c0.7-1.9,1.5-2.9,3.7-2.6C294.4,28.5,295.7,28.3,296.9,28.3z"/>
	<path class="st1" d="M120.3,24.4c2.9,3.2,2.9,7.3,0.1,10.2c-2.7,2.8-7.3,3-10.2,0.5c-3.1-2.7-3.4-6.9-0.8-10.2
		c0.3-0.2,0,0.1,0.2-0.1C113.1,21.9,116.6,21.9,120.3,24.4z"/>
	<path class="st1" d="M124.7,34.3c3.1,0,5.5,2.4,5.4,5.5c0,2.9-2.6,5.4-5.5,5.3c-3.1-0.1-5.6-2.7-5.5-5.6
		C119.2,36.6,121.6,34.3,124.7,34.3z"/>
	<path class="st1" d="M105.4,13.9c3.1,0,5.4,2.5,5.4,5.6c0,2.9-2.5,5.3-5.5,5.3c-2.9-0.1-5.4-2.6-5.5-5.4
		C99.9,16.3,102.3,13.8,105.4,13.9z"/>
	<path class="st1" d="M136.9,47.1c0,2.6-1.5,4.2-3.9,4.2c-2.4,0-4.4-1.9-4.4-4.2c-0.1-2.4,1.8-4.3,4.2-4.3
		C135.4,42.9,136.9,44.5,136.9,47.1z"/>
	<path class="st1" d="M93.2,11.8c0-2.3,1.6-4.1,3.6-4.2c2.3-0.1,4.6,2.1,4.6,4.3c0.1,2.4-1.8,4.1-4.3,4.1
		C94.5,16,93.2,14.6,93.2,11.8z"/>
	<path class="st1" d="M92.2,7.3c0.1,2.1-1.9,4.1-4.1,4.2c-2.3,0.1-4.2-1.8-4.3-4.2c0-2.1,1.5-3.7,3.7-3.8
		C90.1,3.4,92.1,5.1,92.2,7.3z"/>
	<path class="st1" d="M142.3,55.4c-2.5,0-4.4-1.5-4.5-3.6c-0.1-2.1,2-4.3,4.3-4.3c2.2-0.1,3.9,1.7,4,4.1
		C146.2,53.9,144.8,55.4,142.3,55.4z"/>
	<path class="st1" d="M80.9,52.4c0,1.9-1.3,3.2-3.2,3.3c-2,0-3.8-1.6-3.8-3.4c0-1.8,1.7-3.4,3.5-3.5C79.5,48.7,80.9,50.2,80.9,52.4z
		"/>
	<path class="st1" d="M161.7,7.7c2,0.1,3.7,1.8,3.6,3.7c-0.1,1.9-1.5,3.2-3.7,3.1c-2,0-3.4-1.5-3.2-3.5C158.5,9.1,160,7.6,161.7,7.7
		z"/>
	<path class="st1" d="M155.8,51.7c0,1.8-1.8,3.4-3.6,3.3c-1.8-0.1-3.3-1.6-3.3-3.4c0-2.1,1.5-3.5,3.6-3.5
		C154.6,48.3,155.9,49.6,155.8,51.7z"/>
	<path class="st1" d="M168.1,15.8c2,0,3.6,1.7,3.6,3.7c0,1.8-1.6,3.3-3.4,3.3c-1.9,0-3.6-1.6-3.5-3.4
		C164.8,17.3,166.1,15.8,168.1,15.8z"/>
	<path class="st1" d="M62,16.3c1.9,0,3.4,1.4,3.5,3.4c0.1,1.8-1.5,3.5-3.4,3.6c-1.8,0.1-3.4-1.3-3.5-3.2C58.5,18.1,60,16.3,62,16.3z
		"/>
	<path class="st1" d="M170.5,32.7c-1.8,0-3.6-1.6-3.7-3.4c-0.1-1.8,1.8-3.7,3.7-3.7c1.8,0,3.2,1.5,3.3,3.4
		C173.8,31.1,172.4,32.7,170.5,32.7z"/>
	<path class="st1" d="M65.4,39.6c0,2-1.7,3.8-3.6,3.7c-1.7-0.1-3.3-1.8-3.4-3.7c0-1.9,1.3-3.3,3.3-3.3
		C63.8,36.3,65.4,37.7,65.4,39.6z"/>
	<path class="st1" d="M71.9,11.7c0,2-1.4,3.5-3.4,3.5c-2,0-3.6-1.5-3.6-3.3c0-1.9,1.7-3.5,3.7-3.5C70.5,8.4,71.8,9.7,71.9,11.7z"/>
	<path class="st1" d="M160.7,50.5c-1.5-0.1-2.4-1.4-2.5-3.2c-0.1-2,1.5-3.6,3.3-3.6c1.8,0,3.7,1.7,3.7,3.4
		C165.2,49,163.5,50.5,160.7,50.5z"/>
	<path class="st1" d="M68.4,44.3c1.9,0.1,3.4,1.7,3.4,3.6c-0.1,1.9-1.5,3.3-3.4,3.3c-2.1,0-3.7-1.6-3.6-3.6
		C64.8,45.6,66.4,44.2,68.4,44.3z"/>
	<path class="st1" d="M59.5,33.2c-1.8,0-3.2-1.4-3.1-3.4c0-2.1,1.3-3.6,3.3-3.5c1.9,0,3.5,1.6,3.6,3.4
		C63.3,31.5,61.4,33.2,59.5,33.2z"/>
	<path class="st1" d="M74.3,7.2c0-1.9,1.6-3.2,3.6-3.2c2,0,3.2,1.2,3.1,3.3c0,2.1-1.4,3.6-3.3,3.6C75.8,10.9,74.2,9.3,74.3,7.2z"/>
	<path class="st1" d="M164.7,39c0-2,1.5-3.3,3.6-3.2c2,0,3.2,1.3,3.2,3.3c0,1.9-1.6,3.6-3.3,3.7C166.2,42.8,164.6,41,164.7,39z"/>
	<path class="st1" d="M152.6,10.2c-1.9,0-3.3-1.5-3.4-3.5c0-2,1.1-3.2,3.2-3.3c2-0.1,3.9,1.6,3.8,3.4
		C156.1,8.5,154.3,10.2,152.6,10.2z"/>
	<path class="st1" d="M0.5,1.6c0.1,7-1.5,6.8,7,6.3c5.7-0.3,11.4-0.1,17.1-0.4c1.9-0.1,3.7,0.4,5.3,1.6C21.6,8,13.2,8.6,4.9,8.8
		c-5.1,0.1-4.9,1-4.8-4.9C0.1,3.1-0.3,2.2,0.5,1.6z"/>
	<path class="st1" d="M141.5,9c-0.9-0.1-1.8-0.9-1.7-2.4c0.1-1.5,1.1-2.5,2.6-2.4c1.4,0.1,2.4,1,2.3,2.5
		C144.6,8.3,143.7,9.1,141.5,9z"/>
	<path class="st1" d="M97.8,48.9c-0.1,1.3-0.7,2.2-2.1,2.3c-1.3,0-2.1-0.8-2.2-1.9c-0.1-1.4,0.8-2.3,2.3-2.4
		C97.1,46.8,97.6,47.8,97.8,48.9z"/>
	<path class="st1" d="M85.8,51.1c1.1-1.4,2.4-1.3,3.5-0.2c1,1,0.7,2-0.2,3c-1.2,1.3-2.2,1-3.3-0.2C85.4,52.8,85.6,52,85.8,51.1z"/>
	<path class="st1" d="M130.2,14.4c0,1.4-0.7,2.2-2.1,2.2c-1.3,0-2.1-0.7-2.2-1.9c-0.1-1.3,0.7-2.2,2-2.3
		C129.3,12.3,130,13.1,130.2,14.4z"/>
	<path class="st1" d="M109.3,39.3c-0.2,1.3-0.9,2.1-2.3,2c-1.4,0-2.1-0.9-2-2.2c0.1-1.3,0.9-1.9,2.1-1.9
		C108.4,37.2,109.1,38,109.3,39.3z"/>
	<path class="st1" d="M134.2,12c-1.1-0.1-2-0.8-1.9-2.2c0.1-1.4,1-2.1,2.3-2.1c1.2,0,2,0.9,2,2.1C136.6,11.2,135.8,12,134.2,12z"/>
	<path class="st1" d="M104.3,44.3c-0.3,1.4-1,2.1-2.4,2.1c-1.3,0-2-0.8-2.1-2c-0.1-1.3,0.7-2.2,2.1-2.2
		C103.3,42.2,104,43.2,104.3,44.3z"/>
	<path class="st1" d="M124.8,20.4c-1,1-2,2.5-3.5,0.6c-0.3-0.9-0.3-1.7,0-2.6c0.9-0.9,2-0.5,3-0.3C124.9,18.7,125.4,19.4,124.8,20.4
		z"/>
	<path class="st1" d="M120.3,24.4c-0.7,0.4-1.2,0.1-1.8-0.3c-2.4-1.7-4.8-1.6-7.1,0.2c-0.5,0.4-1.1,1.2-1.9,0.6
		C111.4,21.8,117.1,20.7,120.3,24.4z"/>
	<path class="st1" d="M43.9,14.9c-1.1-1.8-1.8-3.8-1.5-6C43.7,10.7,44,12.8,43.9,14.9z"/>
	<path class="st1" d="M37.4,28.9c-0.8,0-1.7,0.1-1.8-0.8c-0.1-0.8,0.7-0.6,1.3-0.7C36.1,28.2,37.1,28.4,37.4,28.9z"/>
	<path class="st1" d="M39.8,29.9c-0.9,0-1.8-0.3-2.4-1C38.4,28.8,39.2,29.1,39.8,29.9z"/>
	<path class="st1" d="M124.8,20.4c-0.2-0.8-0.3-1.6-0.5-2.4C125.4,18.6,125.7,19.4,124.8,20.4z"/>
	<path class="st1" d="M121.3,18.4c0,0.9,0,1.7,0,2.6C120.6,20.1,120.6,19.2,121.3,18.4z"/>
	<path class="st1" d="M85.8,51.1c0,0.9,0.1,1.7,0.1,2.6C85.1,52.9,85.1,52,85.8,51.1z"/>
	<path class="st1" d="M39.8,29.9c-0.7-0.5-1.7-0.6-2.4-1l0,0c-0.5-0.4-2.2-0.4-0.5-1.5c5.2-2.6,7.3-6.8,7-12.4c-0.6-2-0.9-4-1.5-6
		c-0.6-1.5-1.6-2.7-2.8-3.7c-3.5-3-7.7-4-12.2-4.1c-8.3-0.1-16.6,0-24.8,0c-0.7,0-1.5-0.3-2.1,0.4c-0.6,1.5-0.1,3.1-0.3,4.7
		C0.1,7.7,1,8.4,2.3,8.4c1.8,0.1,3.7,0.2,5.5,0c6-0.9,11.9-0.3,17.9-0.4c1.4,0,2.9,0.4,4.2,1.1c2.3,0.9,4.4,2.2,4.9,4.8
		c1,5.6-0.5,10.6-8,10.9C18.9,25.1,11,25.1,3.1,25c-2.3,0-3,0.6-3,2.9c0.1,7.8,0,15.6,0,23.4c0,6.6,0,6.7,6.6,6.5
		c9-0.2,18,0.7,26.9-0.6c7.3-1.1,12-5.9,12.7-13.2C47,37.2,44.7,32.2,39.8,29.9z M37.4,42.6c-0.2,4.5-3.8,7.4-9.2,7.7
		c-2.9,0.2-5.8,0-8.7,0c0,0,0,0,0,0.1c-2.9,0-5.8,0-8.7,0c-1.3,0-1.8-0.5-1.7-1.7c0-4.9,0-9.8,0-14.7c0-0.8,0-1.6,1.1-1.6
		c6.6,0.2,13.1-0.7,19.6,0.4C36,33.8,37.6,37.4,37.4,42.6z"/>
	<path class="st1" d="M382.5,31.9c-1.8-1.8-4.1-2.7-6.8-3.7c1.7-1.2,3.3-1.9,4.4-3.1c4-4.3,4.7-9.3,2.9-14.6
		c-2-5.8-6.8-8.7-12.6-8.9c-9.5-0.4-19.1-0.2-28.7-0.2c-0.8,0-1.6,0-1.6,1.1c0,1.7,0,3.3,0,5c0,1,0.7,1.1,1.5,1.1
		c2.4,0,4.8-0.1,7.2-0.1c6.7,0.1,13.5-0.7,20.1,0.5c2.2,0.4,4,1.5,5.1,3.6c2.9,5.6-0.5,11.8-6.8,12.4c-8.2,0.8-16.4,0.2-24.7,0.3
		c-1.9,0-2.6,0.4-2.6,2.4c0.1,9.3,0.1,18.6,0,27.8c0,1.8,0.5,2.4,2.3,2.4c8.1-0.1,16.1,0,24.2-0.1c3.7,0,7.4-0.5,11-1.9
		C386.6,52.3,389.4,38.8,382.5,31.9z M375.9,46.6c-1.8,2.6-4.6,3.5-7.6,3.7c-2.9,0.2-5.8,0-8.7,0c0,0,0,0.1,0,0.1c-3,0-6,0-9,0
		c-1.4,0-1.9-0.5-1.9-1.9c0.1-4.8,0.1-9.6,0-14.4c0-1.2,0.4-1.8,1.7-1.8c5.9,0.1,11.8-0.1,17.7,0.1c3.5,0.1,6.8,1.3,8.3,4.9
		C377.8,40.5,377.9,43.7,375.9,46.6z"/>
</g>
</svg>
