<?xml version="1.0" encoding="utf-8"?><!-- Uploaded to: SVG Repo, www.svgrepo.com, Generator: SVG Repo Mixer Tools -->
<svg width="800px" height="800px" viewBox="0 0 16 16" fill="none" xmlns="http://www.w3.org/2000/svg">
<path d="M4.11984 0H13V3H6.88024L6.70068 5.15468C7.11748 5.05361 7.55269 5 8.00004 5C11.0376 5 13.5 7.46243 13.5 10.5C13.5 13.5376 11.0376 16 8.00004 16C5.68948 16 3.71518 14.5757 2.90039 12.5628L5.6812 11.4372C6.05319 12.3561 6.95322 13 8.00004 13C9.38075 13 10.5 11.8807 10.5 10.5C10.5 9.11929 9.38075 8 8.00004 8C7.36498 8 6.78843 8.23483 6.34681 8.62461L5.9215 9H3.36984L4.11984 0Z" fill="#000000"/>
</svg>