<?xml version="1.0" encoding="utf-8"?><!-- Uploaded to: SVG Repo, www.svgrepo.com, Generator: SVG Repo Mixer Tools -->
<svg fill="#000000" width="800px" height="800px" viewBox="-2 0 19 19" xmlns="http://www.w3.org/2000/svg" class="cf-icon-svg"><path d="M14.443 4.445a1.615 1.615 0 0 1-1.613 1.614h-.506v8.396a1.615 1.615 0 0 1-1.613 1.613H2.17a1.613 1.613 0 1 1 0-3.227h.505V4.445A1.615 1.615 0 0 1 4.289 2.83h8.54a1.615 1.615 0 0 1 1.614 1.614zM2.17 14.96h7.007a1.612 1.612 0 0 1 0-1.01H2.172a.505.505 0 0 0 0 1.01zm9.045-10.515a1.62 1.62 0 0 1 .08-.505H4.29a.5.5 0 0 0-.31.107l-.002.001a.5.5 0 0 0-.193.397v8.396h6.337a.61.61 0 0 1 .6.467.632.632 0 0 1-.251.702.505.505 0 1 0 .746.445zm-.86 1.438h-5.76V6.99h5.76zm0 2.26h-5.76V9.25h5.76zm0 2.26h-5.76v1.108h5.76zm2.979-5.958a.506.506 0 0 0-.505-.505.496.496 0 0 0-.31.107h-.002a.501.501 0 0 0-.194.398v.505h.506a.506.506 0 0 0 .505-.505z"/></svg>