<svg version="1.1" id="Layer_1" xmlns="http://www.w3.org/2000/svg" xmlns:xlink="http://www.w3.org/1999/xlink" x="0px" y="0px"
	 width="100%" viewBox="0 0 1360 1416" enable-background="new 0 0 1360 1416" xml:space="preserve">
<path fill="#000000" opacity="1.000000" stroke="none" 
	d="
M899.000000,1417.000000 
	C600.833374,1417.000000 303.166779,1416.991699 5.500192,1417.093140 
	C1.751369,1417.094360 0.906309,1416.249512 0.907094,1412.500122 
	C1.005250,943.500244 1.005239,474.500305 0.907195,5.500432 
	C0.906411,1.752390 1.749514,0.906202 5.499606,0.907022 
	C455.832855,1.005460 906.166138,1.005445 1356.499390,0.907212 
	C1360.246826,0.906395 1361.093750,1.748744 1361.093018,5.499362 
	C1360.994751,474.499268 1360.994751,943.499207 1361.092651,1412.499146 
	C1361.093506,1416.246094 1360.252319,1417.096680 1356.500732,1417.093994 
	C1204.167236,1416.983765 1051.833618,1417.000000 899.000000,1417.000000 
z"/>
<path fill="#FFFFFF" opacity="1.000000" stroke="none" 
	d="
M1057.229248,1383.590088 
	C1040.751343,1386.216187 1024.778809,1383.913940 1008.831909,1381.046753 
	C1007.373352,1380.784546 1005.846497,1380.901611 1004.154663,1380.478760 
	C1002.291260,1378.165649 1002.691162,1375.776489 1002.577576,1373.507446 
	C1002.470215,1371.360840 1002.087402,1369.495728 999.331421,1369.560181 
	C996.837402,1369.618408 996.526428,1371.383667 996.408203,1373.307007 
	C996.317566,1374.781860 996.314514,1376.278442 995.236328,1377.861938 
	C983.467285,1376.274170 972.560486,1372.342163 961.773132,1368.237061 
	C934.441345,1357.836182 908.950500,1343.875977 885.126648,1326.955078 
	C874.396973,1319.334229 864.003174,1311.260986 853.998108,1302.651611 
	C842.823608,1293.036011 832.072876,1283.002075 821.945923,1272.329346 
	C813.927734,1263.878906 806.222229,1255.104126 798.839600,1246.095093 
	C796.568848,1243.324097 795.225037,1244.451782 793.712585,1245.886597 
	C785.885925,1253.311890 777.212585,1259.703125 768.452515,1265.887695 
	C750.557800,1278.521240 731.706726,1289.506836 711.540344,1298.292603 
	C699.312195,1303.619995 686.962646,1308.491943 674.212097,1312.297607 
	C659.683411,1316.634033 644.982910,1320.139282 629.877319,1322.142578 
	C616.482300,1323.919067 603.124207,1324.870972 589.618713,1325.110718 
	C565.436768,1325.540161 541.651550,1323.224121 517.984436,1318.150879 
	C493.687439,1312.942505 470.379730,1305.051270 447.752686,1294.959473 
	C442.479462,1292.607300 437.207184,1290.215576 432.123901,1287.488892 
	C428.920135,1285.770264 426.200836,1285.748779 422.979187,1287.429443 
	C377.095459,1311.366211 330.621002,1334.131958 284.323883,1357.249390 
	C283.312439,1357.754395 282.397308,1358.546875 281.336731,1358.834351 
	C280.094604,1359.170898 278.906677,1359.491211 279.372009,1357.071045 
	C283.337189,1336.446289 287.439270,1315.839600 290.869110,1295.122925 
	C293.696747,1278.043579 296.906586,1261.041138 300.008606,1244.015869 
	C302.615143,1229.709717 305.389191,1215.433594 307.900665,1201.111206 
	C308.399445,1198.266602 308.124969,1195.595215 305.697144,1192.989380 
	C287.615265,1173.582642 271.424744,1152.756470 257.897064,1129.834106 
	C245.431747,1108.711914 235.243744,1086.639282 227.747314,1063.317749 
	C222.859833,1048.112793 219.171066,1032.628784 216.940079,1016.782227 
	C215.478485,1006.400452 214.553833,996.006287 213.742920,985.556458 
	C213.125854,977.604858 212.729416,969.667175 213.124222,961.789856 
	C214.192429,940.476807 216.274536,919.242065 221.252045,898.415466 
	C225.058701,882.487915 229.648224,866.796509 235.775940,851.579468 
	C238.346786,845.195251 240.595337,838.677490 243.867859,832.595276 
	C244.739395,830.975525 244.348816,829.909119 242.639542,829.235291 
	C211.964844,817.142578 183.831833,800.421936 156.676270,781.936768 
	C154.396805,780.385071 152.354568,778.484802 150.076843,776.427124 
	C149.637909,775.367859 150.028503,774.906860 150.556793,774.456848 
	C155.024872,770.650330 154.856186,769.421265 149.461243,766.982361 
	C148.523666,766.558533 147.651337,766.106445 147.245728,765.153992 
	C146.351654,763.054504 144.899353,762.072754 142.579437,762.512817 
	C140.139496,762.975647 140.527847,765.176941 139.913971,766.764771 
	C139.795547,767.071228 139.659576,767.369568 139.223984,767.884888 
	C125.801941,757.868530 113.539429,746.610901 102.092728,734.511719 
	C86.417656,717.942993 72.490425,700.001770 61.019291,680.227539 
	C51.228676,663.350220 43.235889,645.653687 38.470028,626.724792 
	C36.184345,617.646545 34.847626,608.310913 33.760948,598.922852 
	C32.589108,588.799011 33.181389,578.864807 34.120815,568.901855 
	C34.599155,563.828857 34.945267,558.616699 36.987961,553.369019 
	C42.641838,550.007568 42.938606,548.994812 39.412628,544.247925 
	C46.046669,522.398438 57.524086,503.694000 73.139626,487.168457 
	C93.990501,465.102417 119.089508,449.808228 146.585480,437.672272 
	C171.086731,426.858124 196.673172,419.551880 222.566162,413.349701 
	C237.632202,409.740936 252.924850,406.930267 268.349396,404.858124 
	C282.412384,402.968933 296.445312,401.090820 310.594086,399.872192 
	C321.763397,398.910187 332.966522,398.693420 344.098907,397.791595 
	C361.712250,396.364868 379.298248,396.975311 396.870483,397.174286 
	C413.303009,397.360291 429.755768,398.603699 446.131897,400.115326 
	C462.175110,401.596191 478.196289,403.599884 494.111633,406.107300 
	C512.610901,409.021851 531.019897,412.492798 549.322998,416.579590 
	C566.908936,420.506226 584.249756,425.293365 601.588257,430.109894 
	C604.641052,430.957977 605.827148,430.237305 607.084167,427.625000 
	C612.843262,415.656281 620.205505,404.605591 628.455688,394.306885 
	C637.863525,382.563110 648.526428,371.836945 660.271912,362.381134 
	C674.634460,350.818481 690.246521,341.087402 707.068909,333.510010 
	C724.982544,325.441162 743.589172,319.412048 762.994446,315.978058 
	C774.413269,313.957336 785.892639,312.762054 797.451965,311.753448 
	C807.082764,310.913055 816.659241,311.604553 826.222717,310.905426 
	C828.856018,310.712921 831.771484,313.631226 833.498718,311.302429 
	C834.247742,310.292572 833.197327,306.773529 832.970215,304.388489 
	C831.059814,284.325653 831.817078,264.202911 832.223083,244.135437 
	C832.459290,232.459549 834.170532,220.762604 835.729492,209.098343 
	C837.750366,193.978012 840.723389,179.075714 844.175354,164.295593 
	C847.601135,149.628052 852.256592,135.229019 857.489868,121.083786 
	C864.455322,102.256851 872.501648,83.870857 882.048340,66.198090 
	C885.715210,59.410118 888.972717,52.420841 894.616638,46.706818 
	C909.342957,31.797457 934.872925,32.079365 949.132935,47.771198 
	C960.377197,60.144535 962.213928,77.850769 953.595337,93.158363 
	C946.667053,105.463852 940.566833,118.269341 934.979126,131.289505 
	C926.024963,152.153961 919.548950,173.791489 914.607300,195.899872 
	C912.558655,205.065689 911.298035,214.387024 909.893494,223.684326 
	C906.869202,243.703262 906.459290,263.833191 907.165161,283.949219 
	C907.633911,297.310181 909.624756,310.621643 911.070129,323.940552 
	C911.311890,326.168518 913.080261,327.324768 915.253052,328.016571 
	C946.894287,338.090546 975.919800,353.493256 1003.223083,372.133942 
	C1014.369507,379.743927 1024.809204,388.377960 1035.004761,397.313263 
	C1045.018921,406.089752 1054.010254,415.848389 1063.508789,425.113159 
	C1066.752563,428.277222 1069.774048,431.850952 1072.123291,435.708740 
	C1075.878906,441.876343 1081.358154,439.771606 1086.128174,438.848480 
	C1112.355713,433.772675 1137.967529,426.351532 1162.464966,415.707001 
	C1187.326782,404.904175 1210.695801,391.352875 1232.499268,375.106781 
	C1249.672852,362.310425 1265.401855,347.969025 1280.675903,333.002106 
	C1293.585449,320.352051 1318.644043,321.037231 1330.922485,333.122620 
	C1338.839233,340.914764 1343.488647,349.893677 1343.656982,360.505524 
	C1343.811768,370.267365 1340.627686,379.539124 1333.571289,386.945282 
	C1308.864868,412.876160 1281.209229,435.283722 1250.966919,454.336334 
	C1230.582397,467.178467 1209.163574,478.161896 1186.714355,487.224762 
	C1165.527954,495.777832 1144.040894,503.087463 1121.765991,508.115509 
	C1120.869751,508.317841 1120.075317,508.972015 1119.205566,509.430328 
	C1129.446899,530.315796 1136.001709,552.480103 1140.874268,575.103271 
	C1145.944946,598.646301 1146.255371,622.709961 1144.716553,646.541626 
	C1143.153809,670.744568 1136.992310,694.188049 1126.953735,716.464783 
	C1118.268433,735.738647 1107.208374,753.425537 1093.296997,769.409424 
	C1089.378784,773.911438 1085.179932,778.088501 1081.070435,782.372864 
	C1079.267334,784.252625 1078.607788,785.310486 1080.381836,788.102356 
	C1093.664917,809.007263 1106.323975,830.278748 1117.797363,852.263611 
	C1134.000854,883.312561 1147.906128,915.313293 1160.152832,948.124207 
	C1170.719849,976.434692 1179.513672,1005.256104 1186.656738,1034.552246 
	C1190.975342,1052.263916 1194.525024,1070.191528 1197.105347,1088.299316 
	C1199.130981,1102.515015 1201.044067,1116.705322 1202.227783,1131.029419 
	C1202.677490,1136.470093 1202.934570,1141.883057 1202.952881,1147.303345 
	C1203.007324,1163.397095 1204.311035,1179.446899 1204.088257,1195.561157 
	C1203.673462,1225.536621 1199.159058,1254.786865 1188.865234,1282.931396 
	C1182.141357,1301.315552 1172.716309,1318.302124 1160.121826,1333.548218 
	C1147.538818,1348.780273 1132.494995,1360.799805 1114.915405,1369.410522 
	C1099.820190,1376.804077 1083.777100,1381.630371 1066.432861,1382.910645 
	C1062.198486,1377.744141 1060.048340,1377.873413 1057.229248,1383.590088 
z"/>
<path fill="#FFFFFF" opacity="1.000000" stroke="none" 
	d="
M139.095261,768.434937 
	C139.057846,760.982727 140.099030,759.898315 145.691940,761.021667 
	C146.513535,761.186707 147.655365,761.257996 147.659180,762.130432 
	C147.675629,765.904785 150.045349,765.984619 152.925766,766.146057 
	C156.015579,766.319153 154.634476,769.081909 155.004303,770.811646 
	C155.825943,774.654602 153.054764,774.988037 150.205292,775.806274 
	C145.586472,774.809875 143.226837,770.588623 139.095261,768.434937 
z"/>
<path fill="#FFFFFF" opacity="1.000000" stroke="none" 
	d="
M995.141724,1378.470459 
	C994.973328,1376.291626 995.182190,1374.441895 994.959839,1372.645630 
	C994.486084,1368.818604 996.140015,1367.811890 999.780762,1367.892700 
	C1003.014343,1367.964478 1004.332825,1368.929688 1004.038086,1372.207397 
	C1003.830811,1374.512695 1003.988098,1376.850830 1003.970215,1379.644531 
	C1001.079773,1379.684448 998.201599,1379.254150 995.141724,1378.470459 
z"/>
<path fill="#FFFFFF" opacity="1.000000" stroke="none" 
	d="
M1057.427979,1383.910400 
	C1056.333618,1379.466919 1057.721069,1377.441895 1062.597900,1377.878784 
	C1065.688354,1378.155640 1066.213257,1379.508667 1065.999512,1382.413940 
	C1063.525391,1384.913086 1060.580444,1383.671753 1057.427979,1383.910400 
z"/>
<path fill="#FFFFFF" opacity="1.000000" stroke="none" 
	d="
M39.089233,544.393188 
	C43.978134,543.419617 42.805706,546.903870 43.017677,549.559875 
	C43.348942,553.710693 40.420040,552.928711 37.592461,553.000122 
	C36.417725,549.955994 39.093437,547.681030 39.089233,544.393188 
z"/>
<path fill="#000000" opacity="1.000000" stroke="none" 
	d="
M306.550659,876.233521 
	C309.523193,869.433960 312.240662,862.881348 315.816589,856.359802 
	C315.421600,854.548767 316.040924,853.552673 317.619141,852.822510 
	C326.694427,855.408630 335.629456,856.888855 344.593414,857.895630 
	C351.865631,858.712402 351.939941,858.677979 353.065887,865.944763 
	C355.607513,882.347961 358.953522,898.566895 363.915039,914.469788 
	C369.759338,933.202148 376.984222,951.345459 386.038849,968.712036 
	C395.969604,987.759033 407.549652,1005.746338 420.939972,1022.636353 
	C432.484619,1037.198242 445.205780,1050.632202 458.840881,1063.090332 
	C477.163940,1079.832031 497.155182,1094.493896 518.681824,1107.005737 
	C541.113708,1120.043579 564.599670,1130.589233 589.444458,1138.117188 
	C605.189941,1142.887939 621.167969,1146.410645 637.411438,1149.168945 
	C659.829590,1152.976074 682.359680,1153.645752 704.910156,1152.771606 
	C715.561890,1152.358643 726.400757,1151.795044 736.879761,1149.048462 
	C738.718262,1148.566650 739.933594,1149.239258 740.607056,1151.128296 
	C743.695435,1159.791260 748.471191,1167.659668 752.527588,1175.860840 
	C753.841248,1178.516724 753.755127,1179.937256 751.620239,1181.995483 
	C738.442322,1194.700073 723.765747,1205.432495 708.198853,1214.932861 
	C691.296692,1225.247925 673.345215,1233.369507 654.398193,1239.202515 
	C640.484131,1243.486084 626.367371,1246.576904 611.826050,1248.184570 
	C601.148132,1249.364868 590.510620,1250.380493 579.812317,1249.939941 
	C557.360291,1249.015747 535.315674,1245.404419 513.758545,1238.967651 
	C492.743164,1232.692627 472.880249,1223.685181 453.697327,1213.190796 
	C435.258636,1203.103516 418.009888,1191.223999 401.514038,1178.159790 
	C387.087158,1166.734131 373.766968,1154.134033 361.378510,1140.651733 
	C346.782684,1124.767212 333.839478,1107.506348 323.213196,1088.630859 
	C312.629822,1069.831787 303.662476,1050.346313 297.837189,1029.493652 
	C294.089203,1016.077332 291.489594,1002.491699 289.875122,988.632751 
	C288.309937,975.196899 288.600311,961.740051 289.251160,948.389160 
	C289.966034,933.725342 292.614563,919.152283 296.978638,905.012024 
	C298.959900,898.592773 300.980072,892.185486 302.907959,885.386108 
	C302.749207,881.660767 303.915100,878.825317 306.550659,876.233521 
z"/>
<path fill="#000000" opacity="1.000000" stroke="none" 
	d="
M270.798431,569.296204 
	C263.230865,563.276611 256.675781,556.672546 250.447525,549.826904 
	C235.988403,533.934509 224.742752,515.885498 215.716537,496.402496 
	C214.357727,493.469513 216.035263,493.554230 217.868393,492.955994 
	C229.659088,489.108215 241.794525,486.622070 253.893112,484.086212 
	C265.287567,481.697937 276.786652,479.693481 288.323853,478.148712 
	C294.291595,477.349640 300.304932,476.636749 306.307220,476.063995 
	C334.487610,473.374939 362.758606,472.095001 391.042053,473.139923 
	C408.567352,473.787415 426.091248,474.933075 443.575836,476.804443 
	C455.906372,478.124176 468.238800,479.508667 480.518372,481.143280 
	C493.649811,482.891266 506.702240,485.392914 519.682617,488.080109 
	C541.092773,492.512451 562.331116,497.703156 583.284912,503.992798 
	C607.568665,511.281982 631.391663,519.859192 654.114929,531.131775 
	C664.216003,536.142761 674.466431,541.455811 682.227783,549.893860 
	C692.014343,560.533691 698.305908,572.971802 697.958862,587.917542 
	C697.837097,593.160156 698.533997,598.397583 697.178589,603.682312 
	C696.554565,606.115234 695.532776,606.387146 693.912659,605.923828 
	C676.694214,601.000183 659.040161,598.036865 641.558594,594.321960 
	C631.275635,592.136719 620.839722,590.643616 610.443542,589.025879 
	C596.973450,586.929688 583.500488,584.813660 569.979431,583.094910 
	C559.440918,581.755432 548.790100,581.294800 538.255188,579.932861 
	C522.631836,577.913086 506.852966,577.957581 491.234833,576.008240 
	C490.906586,575.967285 490.568542,576.011780 490.235779,575.998718 
	C464.998138,575.008240 439.737305,574.433838 414.501862,575.170349 
	C401.173004,575.559387 387.795715,576.026978 374.501526,577.118835 
	C355.799683,578.654907 337.154755,580.918945 318.507507,583.063171 
	C312.896698,583.708435 307.384705,585.187256 301.779663,585.917419 
	C297.545471,586.469055 294.109680,584.018250 290.550568,582.092529 
	C283.728729,578.401367 277.456299,573.881775 270.798431,569.296204 
z"/>
<path fill="#000000" opacity="1.000000" stroke="none" 
	d="
M997.265747,1021.635193 
	C994.836243,1009.564819 991.251221,998.220642 988.041016,986.772827 
	C981.846741,964.683716 974.454712,942.979126 966.669617,921.426453 
	C959.760498,902.298889 951.982788,883.491028 944.027039,864.760071 
	C931.952148,836.331177 918.130493,808.751465 903.978394,781.332031 
	C898.453918,770.628540 892.821167,759.961487 886.343140,749.778198 
	C885.503601,748.458557 884.976196,747.480896 887.077209,746.312500 
	C906.688904,735.405823 934.252075,736.499878 951.897522,751.128967 
	C965.255493,762.203674 976.399475,775.067749 987.193054,788.458374 
	C996.760437,800.327881 1005.588379,812.704102 1013.884766,825.456970 
	C1025.198486,842.848328 1035.743286,860.695251 1045.609985,878.969055 
	C1053.181396,892.991882 1060.197021,907.276733 1066.881470,921.709351 
	C1076.644043,942.787842 1085.210693,964.377563 1093.029907,986.267517 
	C1101.027954,1008.657227 1107.648193,1031.430664 1113.229492,1054.531860 
	C1116.718384,1068.972778 1119.765137,1083.483765 1122.033203,1098.171021 
	C1124.926514,1116.907471 1127.471313,1135.642090 1128.246216,1154.641724 
	C1128.500488,1160.877808 1128.312622,1167.202393 1129.111938,1173.391357 
	C1129.855835,1179.149658 1126.197510,1178.473633 1123.123535,1177.888184 
	C1115.535889,1176.443115 1107.963379,1174.803589 1100.513794,1172.769775 
	C1076.914429,1166.326904 1054.793091,1156.580322 1035.323242,1141.596313 
	C1028.592163,1136.416016 1022.201416,1130.667603 1017.057007,1123.695312 
	C1014.976257,1120.875244 1015.560608,1117.558472 1015.300354,1114.797119 
	C1013.803162,1098.915283 1010.540710,1083.331787 1007.844055,1067.675293 
	C1005.442139,1053.729736 1001.749573,1040.006104 998.611755,1026.187988 
	C998.291809,1024.779053 997.869446,1023.393250 997.265747,1021.635193 
z"/>
<path fill="#000000" opacity="1.000000" stroke="none" 
	d="
M549.270508,615.980347 
	C560.487122,616.541504 571.075439,618.410706 581.729553,619.806885 
	C591.396545,621.073669 601.058533,622.320740 610.657043,624.015930 
	C620.836853,625.813904 630.972534,627.868530 641.166870,629.576355 
	C655.333008,631.949707 669.277100,635.387756 683.604431,638.378357 
	C680.726379,645.567627 675.897156,651.764832 671.348083,658.007202 
	C661.605225,671.376465 650.125183,683.296753 637.944458,694.416565 
	C621.151306,709.747070 602.877991,723.288086 583.314575,734.851074 
	C557.703796,749.988220 530.802612,762.503723 502.290863,771.251831 
	C483.797577,776.926025 465.034851,781.324951 445.829620,784.176147 
	C426.775421,787.004883 407.706940,786.978271 388.582489,786.991150 
	C384.974030,786.993591 381.526520,785.470703 377.828156,785.951416 
	C375.254913,786.285828 376.081512,784.122986 376.020691,782.832092 
	C375.290649,767.336914 377.145630,752.002014 380.165344,736.907288 
	C384.113220,717.172913 390.622345,698.193726 400.217804,680.401489 
	C411.486328,659.506897 426.004181,641.263855 444.332062,626.046387 
	C449.969330,621.365906 455.900757,617.163818 461.887695,612.987976 
	C468.740448,608.208191 476.348450,610.028503 483.723969,610.506165 
	C485.456329,610.618408 487.290100,610.980408 489.071014,610.972778 
	C505.221039,610.903931 521.222839,613.183960 537.292114,614.290894 
	C540.995544,614.546021 545.237671,613.775879 549.270508,615.980347 
z"/>
<path fill="#000000" opacity="1.000000" stroke="none" 
	d="
M811.838501,839.241577 
	C821.798584,817.948242 833.297913,797.937622 847.799622,779.744202 
	C850.148560,776.797363 852.739929,774.041199 855.265198,771.238281 
	C857.079834,769.224182 858.218140,769.605713 859.583374,772.022461 
	C871.373169,792.893433 882.667786,814.048645 892.842834,835.728638 
	C907.947266,867.911499 922.282166,900.448120 934.145935,934.025696 
	C936.810303,941.566528 938.652954,949.529419 942.394775,956.554871 
	C947.611084,966.348877 945.321533,975.369507 941.731567,984.717041 
	C934.575806,1003.349304 924.835388,1020.577698 912.292053,1035.994629 
	C901.087646,1049.765869 888.139160,1061.824463 873.569092,1072.238647 
	C853.732971,1086.416748 832.110168,1096.607544 809.051086,1104.158081 
	C806.127075,1105.115601 805.028442,1104.744629 804.006958,1102.197388 
	C796.829956,1084.299072 790.915222,1066.024902 786.964905,1047.116943 
	C783.503357,1030.548706 782.642273,1013.792358 781.676025,996.940186 
	C781.020874,985.512390 781.696045,974.178101 782.309265,962.946899 
	C783.652283,938.351929 787.990906,914.075073 794.344971,890.211670 
	C798.554993,874.400513 804.210144,859.085754 810.064026,843.426636 
	C809.914124,841.562012 810.506531,840.406555 811.838501,839.241577 
z"/>
<path fill="#000000" opacity="1.000000" stroke="none" 
	d="
M747.136536,799.766479 
	C739.678101,814.054260 734.162048,828.858826 729.099548,843.805847 
	C722.191895,864.200867 717.178894,885.132385 713.104004,906.258423 
	C711.264709,915.794312 710.347473,925.507996 709.089233,935.570312 
	C709.942017,937.037781 710.041016,938.139343 709.182129,939.629272 
	C706.802368,944.356812 707.572876,949.277222 707.325867,953.775330 
	C706.810425,963.164001 705.259644,972.552734 706.005798,982.005310 
	C706.211548,984.612183 705.415161,985.895264 702.448914,986.068359 
	C692.105957,986.672119 681.731934,986.961487 671.458740,985.889709 
	C656.680725,984.348022 642.443970,980.391663 628.479492,975.191589 
	C610.298096,968.421326 593.993469,958.419983 579.085205,946.359009 
	C561.830811,932.400085 547.417419,915.835876 536.509094,896.223267 
	C528.132446,881.162659 522.886902,865.168762 519.068848,848.518860 
	C518.229431,844.858093 520.830444,844.655029 522.637085,844.120667 
	C549.184204,836.268127 574.613892,825.587036 599.115112,812.866882 
	C622.164307,800.900635 644.265564,787.276489 664.583984,770.950317 
	C670.657288,766.070312 676.909790,761.410767 682.919312,756.455200 
	C684.801147,754.903442 685.945129,754.622864 687.941895,756.328796 
	C695.376038,762.679810 702.853699,768.995850 710.570923,774.995911 
	C721.899475,783.803467 733.571472,792.144104 746.591003,799.059326 
	C747.100647,799.267761 747.244080,799.421570 747.136536,799.766479 
z"/>
<path fill="#000000" opacity="1.000000" stroke="none" 
	d="
M984.412415,1140.634033 
	C985.103271,1151.397461 986.335510,1161.778931 986.884888,1172.196533 
	C987.340637,1180.837769 986.995544,1189.521484 986.999084,1198.186401 
	C987.003052,1207.991943 987.278992,1217.807007 986.938965,1227.600830 
	C986.325623,1245.268188 985.162354,1262.894165 982.127380,1280.366089 
	C981.437500,1284.337646 981.066162,1288.383545 980.278015,1292.369263 
	C979.760071,1294.988647 979.281616,1295.374634 976.485291,1294.254639 
	C962.821289,1288.781372 950.093994,1281.589478 937.993530,1273.365723 
	C925.049133,1264.568115 912.965942,1254.676392 901.357971,1244.085327 
	C876.448547,1221.357910 856.091003,1194.971802 837.640381,1167.005005 
	C831.899170,1158.302612 827.216125,1148.905396 821.953125,1139.882080 
	C820.572510,1137.514893 820.649292,1136.590332 823.642517,1135.622803 
	C836.463318,1131.478882 849.013428,1126.482178 860.991943,1120.366455 
	C877.382874,1111.998047 892.999695,1102.323853 907.172119,1090.404541 
	C924.412231,1075.905151 939.486938,1059.522461 951.794006,1040.649902 
	C955.345032,1035.204712 958.522644,1029.516113 962.397034,1023.063721 
	C964.739197,1032.744141 967.036316,1041.512085 968.958984,1050.361328 
	C971.595032,1062.494263 974.116211,1074.657959 976.367188,1086.867188 
	C978.159668,1096.589478 979.507874,1106.394897 980.985779,1116.173584 
	C981.737915,1121.150269 982.341248,1126.149536 983.089233,1131.569092 
	C985.157532,1134.486206 985.803406,1137.215332 984.412415,1140.634033 
z"/>
<path fill="#000000" opacity="1.000000" stroke="none" 
	d="
M211.418701,642.228882 
	C220.477295,640.379761 228.755737,637.206299 237.231537,634.793213 
	C253.975159,630.026245 270.947266,626.457458 287.963287,622.928711 
	C301.448547,620.132141 315.044373,617.936951 328.662659,616.208008 
	C339.831451,614.789978 351.081055,613.648499 362.352081,612.802124 
	C377.430084,611.669861 392.481110,610.311523 407.606567,610.001770 
	C408.226105,609.989075 408.846069,610.000183 410.138519,610.000183 
	C363.297791,657.719666 342.092621,715.094177 341.721069,781.168213 
	C264.879395,764.198853 198.819458,728.765564 145.634644,669.317200 
	C166.869202,658.140076 189.020370,650.423096 211.418701,642.228882 
z"/>
<path fill="#000000" opacity="1.000000" stroke="none" 
	d="
M1037.759277,1183.834595 
	C1057.216919,1195.731323 1078.250122,1202.803955 1099.981445,1207.937134 
	C1109.224731,1210.120605 1118.630371,1211.616455 1127.898560,1213.412354 
	C1126.915039,1219.471802 1126.053223,1225.385620 1124.983643,1231.261597 
	C1121.517944,1250.301636 1115.603271,1268.246094 1103.046387,1283.573242 
	C1090.988281,1298.291870 1075.438599,1305.616699 1056.857300,1308.133911 
	C1043.452271,1309.950073 1030.313477,1308.607910 1017.129822,1306.881104 
	C1014.675598,1306.559570 1012.462280,1306.115356 1013.447632,1301.584106 
	C1015.755127,1290.972168 1016.907288,1280.093872 1018.099792,1269.249390 
	C1020.029663,1251.700439 1020.181519,1234.069458 1021.399902,1216.519653 
	C1022.289185,1203.710083 1019.866943,1191.154053 1021.034546,1178.491211 
	C1021.141052,1177.336548 1020.130554,1175.727417 1021.967102,1175.075562 
	C1023.296204,1174.603638 1024.014038,1175.732178 1024.956421,1176.371826 
	C1027.335327,1177.986328 1029.803467,1179.469482 1032.598999,1181.062500 
	C1035.010132,1180.961670 1036.358032,1182.124878 1037.759277,1183.834595 
z"/>
<path fill="#000000" opacity="1.000000" stroke="none" 
	d="
M114.717484,618.355347 
	C111.600739,606.803772 108.325844,595.630127 108.982880,583.751343 
	C109.869087,567.729431 115.429100,553.703308 125.940239,541.481628 
	C140.482758,524.572510 159.469849,514.560181 179.403015,505.751740 
	C182.663010,504.311157 182.403412,506.714355 182.910400,507.818481 
	C189.969116,523.191223 198.263489,537.820496 207.921951,551.733276 
	C219.401825,568.269592 232.944214,582.797668 248.828629,595.886841 
	C244.292252,598.141846 239.223328,598.628906 234.466110,599.926025 
	C210.948029,606.338562 187.792206,613.786682 165.191162,622.955627 
	C152.856186,627.959900 140.601959,633.143860 128.711945,639.121704 
	C126.307785,640.330444 125.356583,640.053894 124.302383,637.795532 
	C121.867477,632.579041 119.290115,627.429077 116.441261,622.103760 
	C114.995026,621.159180 114.613251,620.020874 114.717484,618.355347 
z"/>
<path fill="#FFFFFF" opacity="1.000000" stroke="none" 
	d="
M267.215729,1123.350342 
	C272.810852,1120.963257 278.451782,1122.154785 283.994019,1122.177612 
	C287.012756,1122.190186 285.828247,1125.164795 285.946533,1126.932373 
	C286.061371,1128.648682 286.475189,1130.902832 283.635162,1130.941162 
	C278.824432,1131.006226 273.930176,1131.496216 269.224976,1130.786743 
	C265.063538,1130.159180 267.687103,1126.199219 267.215729,1123.350342 
z"/>
<path fill="#FFFFFF" opacity="1.000000" stroke="none" 
	d="
M813.147217,606.193909 
	C810.489502,609.114075 807.277832,608.502197 804.875732,607.299683 
	C802.955505,606.338501 803.899414,603.323669 804.117676,601.295898 
	C804.450623,598.201965 814.727173,594.357788 817.061584,596.434692 
	C818.890320,598.061646 817.824402,600.480591 817.950745,602.547302 
	C818.162964,606.016724 814.537048,604.247437 813.147217,606.193909 
z"/>
<path fill="#FFFFFF" opacity="1.000000" stroke="none" 
	d="
M1077.943726,875.114502 
	C1079.146973,876.327515 1079.121582,877.539551 1078.961060,878.647339 
	C1078.702515,880.432068 1080.121826,883.192566 1077.429199,883.717529 
	C1074.479370,884.292664 1070.859375,885.122192 1068.644897,882.293152 
	C1067.124756,880.351196 1067.109619,876.786255 1068.471680,875.282532 
	C1070.851685,872.654907 1074.455078,873.817810 1077.943726,875.114502 
z"/>
<path fill="#FFFFFF" opacity="1.000000" stroke="none" 
	d="
M709.190430,940.207886 
	C708.929382,938.896851 708.970703,937.838379 709.089355,936.389771 
	C710.814270,935.999756 712.490906,936.198120 714.104004,935.962402 
	C718.637207,935.299744 719.379089,937.715637 719.045105,941.457397 
	C718.867554,943.446960 718.732788,945.356445 716.168823,944.922180 
	C713.978149,944.551147 710.512390,946.827881 709.991089,942.337219 
	C709.917236,941.700928 709.663391,941.085510 709.190430,940.207886 
z"/>
<path fill="#FFFFFF" opacity="1.000000" stroke="none" 
	d="
M114.388611,618.000244 
	C115.445778,618.999878 116.323883,619.903015 116.059967,621.597290 
	C114.140610,623.209717 116.052902,627.356812 111.630013,627.135193 
	C106.496315,626.877869 104.573784,624.852356 106.038399,619.859375 
	C106.445770,618.470520 107.274315,618.044922 108.527557,618.028687 
	C110.332817,618.005249 112.138420,618.008301 114.388611,618.000244 
z"/>
<path fill="#FFFFFF" opacity="1.000000" stroke="none" 
	d="
M811.809387,838.792236 
	C811.658264,840.286926 811.204773,841.529114 810.435425,842.904602 
	C809.288025,843.025879 808.444946,843.097656 807.627014,842.985718 
	C805.310852,842.668823 801.668213,844.323792 802.061768,839.694336 
	C802.241638,837.578125 800.486328,834.316467 804.746704,834.006165 
	C808.210083,833.754028 811.512634,833.656860 811.809387,838.792236 
z"/>
<path fill="#FFFFFF" opacity="1.000000" stroke="none" 
	d="
M257.008667,834.847412 
	C256.214874,829.938721 258.169312,828.311829 262.491821,828.982361 
	C263.922150,829.204285 265.814789,828.771118 265.872345,830.914734 
	C265.932281,833.146057 266.917542,835.699768 265.066498,837.548401 
	C263.373169,839.239380 258.224304,837.648743 257.008667,834.847412 
z"/>
<path fill="#FFFFFF" opacity="1.000000" stroke="none" 
	d="
M938.991455,876.152588 
	C939.784912,881.061096 937.830566,882.688232 933.508057,882.017700 
	C932.077820,881.795776 930.185303,882.228821 930.127625,880.085205 
	C930.067627,877.853943 929.082458,875.300293 930.933716,873.451782 
	C932.627258,871.760742 937.775574,873.351135 938.991455,876.152588 
z"/>
<path fill="#FFFFFF" opacity="1.000000" stroke="none" 
	d="
M892.046753,131.738297 
	C892.647217,129.001495 890.119202,125.029068 895.105530,125.073166 
	C897.045898,125.090324 899.915100,123.772530 900.702820,126.568222 
	C901.327209,128.783997 902.191101,132.325073 899.920532,133.415695 
	C897.761047,134.453003 894.194458,135.572266 892.046753,131.738297 
z"/>
<path fill="#FFFFFF" opacity="1.000000" stroke="none" 
	d="
M961.953186,975.261597 
	C961.352600,977.998352 963.881042,981.970825 958.894714,981.926941 
	C956.954285,981.909912 954.085205,983.227417 953.297302,980.431885 
	C952.672729,978.216187 951.808899,974.675171 954.079346,973.584412 
	C956.238831,972.546875 959.805359,971.427856 961.953186,975.261597 
z"/>
<path fill="#FFFFFF" opacity="1.000000" stroke="none" 
	d="
M282.393250,838.201172 
	C285.316010,838.879944 289.551361,835.645996 289.999390,841.210327 
	C290.418640,846.416931 287.697266,848.955688 282.990509,846.762512 
	C279.307739,845.046448 280.733917,841.362610 282.393250,838.201172 
z"/>
<path fill="#FFFFFF" opacity="1.000000" stroke="none" 
	d="
M492.008240,944.156006 
	C492.512268,939.232483 495.989716,941.491699 498.200897,941.067078 
	C499.953979,940.730408 501.125641,941.715942 500.950256,943.611877 
	C500.761108,945.656494 502.108368,948.450989 499.867554,949.548340 
	C497.769684,950.575745 494.879852,950.740173 492.738739,949.299011 
	C491.266510,948.308044 492.191650,946.204102 492.008240,944.156006 
z"/>
<path fill="#FFFFFF" opacity="1.000000" stroke="none" 
	d="
M788.799255,858.620972 
	C782.065735,861.287720 780.172607,860.468445 779.948914,855.596008 
	C779.797974,852.307312 780.648682,850.892273 784.310669,850.875183 
	C788.044067,850.857849 789.555664,852.014526 789.012817,855.715576 
	C788.893494,856.529419 788.948364,857.368774 788.799255,858.620972 
z"/>
<path fill="#FFFFFF" opacity="1.000000" stroke="none" 
	d="
M385.346558,938.367188 
	C383.716461,938.785156 382.395020,938.830200 381.092224,939.010193 
	C377.161224,939.553345 377.008179,937.190857 376.920166,934.189941 
	C376.824066,930.912415 377.981171,929.841919 381.219910,929.918823 
	C384.256683,929.990967 386.554413,930.227783 386.009766,934.122437 
	C385.827698,935.424316 385.775391,936.744263 385.346558,938.367188 
z"/>
<path fill="#FFFFFF" opacity="1.000000" stroke="none" 
	d="
M236.950439,924.998596 
	C233.101990,925.475098 231.605087,924.149109 231.955307,920.596558 
	C232.183014,918.286987 231.615311,915.559814 235.299118,916.047974 
	C237.409241,916.327576 240.902817,914.487793 240.896729,918.706848 
	C240.893112,921.208679 242.740723,925.262451 236.950439,924.998596 
z"/>
<path fill="#FFFFFF" opacity="1.000000" stroke="none" 
	d="
M738.953247,1222.261963 
	C738.353088,1224.998901 740.880310,1228.971191 735.894226,1228.927002 
	C733.954041,1228.909790 731.084595,1230.228027 730.297119,1227.431641 
	C729.673035,1225.215820 728.808655,1221.674927 731.079590,1220.584106 
	C733.239258,1219.546875 736.805786,1218.427368 738.953247,1222.261963 
z"/>
<path fill="#FFFFFF" opacity="1.000000" stroke="none" 
	d="
M1027.847290,1362.991211 
	C1022.938232,1363.785400 1021.312195,1361.830200 1021.982483,1357.507935 
	C1022.204285,1356.077637 1021.771179,1354.185303 1023.914856,1354.127563 
	C1026.146240,1354.067627 1028.699829,1353.082520 1030.548340,1354.933594 
	C1032.239624,1356.627441 1030.648926,1361.775879 1027.847290,1362.991211 
z"/>
<path fill="#FFFFFF" opacity="1.000000" stroke="none" 
	d="
M1127.955444,1340.736450 
	C1125.811401,1344.577026 1122.243896,1343.450562 1120.083496,1342.416870 
	C1117.807007,1341.327637 1118.674683,1337.787109 1119.296143,1335.571289 
	C1120.081299,1332.771729 1122.939331,1334.295410 1124.896362,1334.047607 
	C1126.483154,1333.846802 1127.929077,1334.231689 1127.955688,1336.316650 
	C1127.972534,1337.640869 1127.976685,1338.965454 1127.955444,1340.736450 
z"/>
<path fill="#FFFFFF" opacity="1.000000" stroke="none" 
	d="
M958.950439,1307.998535 
	C955.101868,1308.475220 953.605042,1307.148926 953.955200,1303.596558 
	C954.182861,1301.286987 953.615295,1298.559692 957.299133,1299.047852 
	C959.409302,1299.327393 962.902893,1297.487793 962.896790,1301.706909 
	C962.893188,1304.208862 964.740845,1308.262573 958.950439,1307.998535 
z"/>
<path fill="#FFFFFF" opacity="1.000000" stroke="none" 
	d="
M1000.001404,1295.053711 
	C999.733154,1289.263428 1003.785400,1291.107422 1006.288818,1291.102295 
	C1010.509033,1291.093506 1008.672363,1294.585693 1008.952698,1296.696167 
	C1009.441284,1300.376099 1006.722046,1299.819214 1004.408203,1300.045166 
	C1000.862305,1300.391357 999.522949,1298.908936 1000.001404,1295.053711 
z"/>
<path fill="#FFFFFF" opacity="1.000000" stroke="none" 
	d="
M371.621094,1284.200684 
	C374.287598,1290.934326 373.468353,1292.827637 368.596191,1293.051147 
	C365.307617,1293.202026 363.892395,1292.351562 363.875183,1288.689453 
	C363.857605,1284.955688 365.015015,1283.444702 368.715668,1283.986938 
	C369.529541,1284.106201 370.368866,1284.051636 371.621094,1284.200684 
z"/>
<path fill="#FFFFFF" opacity="1.000000" stroke="none" 
	d="
M1170.263550,1280.955444 
	C1166.422974,1278.811401 1167.549438,1275.243896 1168.583130,1273.083496 
	C1169.672241,1270.806885 1173.212891,1271.674805 1175.428711,1272.296265 
	C1178.228271,1273.081299 1176.704590,1275.939331 1176.952393,1277.896362 
	C1177.153198,1279.483154 1176.768311,1280.928955 1174.683350,1280.955688 
	C1173.359131,1280.972534 1172.034546,1280.976807 1170.263550,1280.955444 
z"/>
<path fill="#FFFFFF" opacity="1.000000" stroke="none" 
	d="
M864.008179,1260.155884 
	C864.512329,1255.232300 867.989563,1257.491455 870.200806,1257.067017 
	C871.953674,1256.730591 873.125671,1257.715698 872.950439,1259.611694 
	C872.761414,1261.656494 874.108032,1264.450684 871.867676,1265.548218 
	C869.769897,1266.575806 866.880127,1266.739868 864.739014,1265.298828 
	C863.266602,1264.307861 864.191650,1262.204102 864.008179,1260.155884 
z"/>
<path fill="#FFFFFF" opacity="1.000000" stroke="none" 
	d="
M1194.738281,1232.953369 
	C1192.001465,1232.352783 1188.029053,1234.880737 1188.072998,1229.894653 
	C1188.090088,1227.953979 1186.772827,1225.085083 1189.568237,1224.297241 
	C1191.783813,1223.672729 1195.324341,1222.809082 1196.415405,1225.079712 
	C1197.453247,1227.239380 1198.571533,1230.805420 1194.738281,1232.953369 
z"/>
<path fill="#FFFFFF" opacity="1.000000" stroke="none" 
	d="
M469.346436,1231.367188 
	C467.881958,1231.785400 466.731018,1231.862793 465.588135,1232.005127 
	C462.304535,1232.413940 460.894257,1231.338745 460.875366,1227.684937 
	C460.856049,1223.948975 462.022736,1222.874023 465.714874,1222.875610 
	C469.414459,1222.877319 470.397186,1224.375854 470.003448,1227.618286 
	C469.864655,1228.760986 469.775513,1229.909912 469.346436,1231.367188 
z"/>
<path fill="#FFFFFF" opacity="1.000000" stroke="none" 
	d="
M726.991760,995.844177 
	C726.487488,1000.767578 723.010132,998.508179 720.798889,998.932800 
	C719.045715,999.269531 717.874329,998.283630 718.049622,996.387939 
	C718.238708,994.343323 716.891602,991.548889 719.132629,990.451599 
	C721.230591,989.424438 724.120361,989.259888 726.261414,990.701050 
	C727.733582,991.692017 726.808350,993.796021 726.991760,995.844177 
z"/>
<path fill="#FFFFFF" opacity="1.000000" stroke="none" 
	d="
M823.008179,1185.155884 
	C823.512329,1180.232300 826.989624,1182.491577 829.200806,1182.067139 
	C830.953674,1181.730713 832.125732,1182.715698 831.950439,1184.611816 
	C831.761414,1186.656494 833.108032,1189.450684 830.867676,1190.548218 
	C828.769897,1191.575806 825.880066,1191.739868 823.738953,1190.298950 
	C822.266541,1189.307861 823.191650,1187.204102 823.008179,1185.155884 
z"/>
<path fill="#FFFFFF" opacity="1.000000" stroke="none" 
	d="
M1038.201294,1183.811035 
	C1035.834229,1184.418579 1035.202148,1181.743530 1033.096069,1181.436035 
	C1033.518433,1178.835571 1031.601318,1175.532715 1034.417969,1174.396118 
	C1036.556274,1173.533081 1039.849854,1172.717407 1041.693726,1175.346558 
	C1043.518799,1177.948608 1041.572388,1182.299194 1038.201294,1183.811035 
z"/>
<path fill="#FFFFFF" opacity="1.000000" stroke="none" 
	d="
M1189.632690,1163.346558 
	C1189.214722,1161.716431 1189.169556,1160.394897 1188.989624,1159.092163 
	C1188.447021,1155.161621 1190.808960,1155.007568 1193.810303,1154.919800 
	C1197.087769,1154.824219 1198.158203,1155.981445 1198.081177,1159.220093 
	C1198.008911,1162.256958 1197.771973,1164.554688 1193.877319,1164.009888 
	C1192.575562,1163.827759 1191.255493,1163.775391 1189.632690,1163.346558 
z"/>
<path fill="#FFFFFF" opacity="1.000000" stroke="none" 
	d="
M1192.008301,1145.156006 
	C1192.512207,1140.232544 1195.989502,1142.491333 1198.200806,1142.067017 
	C1199.953857,1141.730591 1201.125488,1142.716187 1200.950317,1144.612061 
	C1200.761230,1146.656616 1202.108398,1149.451050 1199.867554,1150.548462 
	C1197.769775,1151.575806 1194.879883,1151.740234 1192.738892,1150.299072 
	C1191.266602,1149.308228 1192.191284,1147.204346 1192.008301,1145.156006 
z"/>
<path fill="#FFFFFF" opacity="1.000000" stroke="none" 
	d="
M692.367310,1142.653320 
	C692.785278,1144.283569 692.830200,1145.604980 693.010193,1146.907837 
	C693.553162,1150.838623 691.190918,1150.991821 688.189819,1151.079834 
	C684.912231,1151.175903 683.841980,1150.018677 683.918762,1146.780029 
	C683.990845,1143.743164 684.227783,1141.445679 688.122437,1141.990234 
	C689.424316,1142.172363 690.744324,1142.224487 692.367310,1142.653320 
z"/>
<path fill="#FFFFFF" opacity="1.000000" stroke="none" 
	d="
M303.632660,1109.346680 
	C303.214569,1107.882080 303.137390,1106.731201 302.995087,1105.588257 
	C302.586304,1102.304688 303.660950,1100.894165 307.314911,1100.875244 
	C311.050873,1100.855957 312.126007,1102.022583 312.124390,1105.714844 
	C312.122803,1109.414551 310.623688,1110.396729 307.381561,1110.003662 
	C306.238739,1109.864868 305.089905,1109.775757 303.632660,1109.346680 
z"/>
<path fill="#FFFFFF" opacity="1.000000" stroke="none" 
	d="
M251.008301,1089.155884 
	C251.512405,1084.232300 254.989655,1086.491455 257.200836,1086.067017 
	C258.953705,1085.730591 260.125580,1086.715576 259.950226,1088.611694 
	C259.761139,1090.656494 261.108154,1093.450806 258.867645,1094.548218 
	C256.769928,1095.575806 253.880035,1095.739990 251.738861,1094.298950 
	C250.266327,1093.307861 251.191864,1091.204102 251.008301,1089.155884 
z"/>
<path fill="#FFFFFF" opacity="1.000000" stroke="none" 
	d="
M508.653442,991.632812 
	C510.283539,991.214844 511.604980,991.169800 512.907776,990.989868 
	C516.838501,990.446777 516.992004,992.808960 517.079956,995.810059 
	C517.175964,999.087524 516.018738,1000.157898 512.780090,1000.081116 
	C509.743286,1000.009094 507.445618,999.772156 507.990204,995.877441 
	C508.172272,994.575684 508.224609,993.255676 508.653442,991.632812 
z"/>
<path fill="#FFFFFF" opacity="1.000000" stroke="none" 
	d="
M289.953308,425.261658 
	C289.352570,427.998291 291.880920,431.971008 286.894531,431.926849 
	C284.954132,431.909698 282.084869,433.227448 281.297180,430.431763 
	C280.672852,428.216034 279.808868,424.674805 282.079468,423.584259 
	C284.238922,422.547119 287.805573,421.427521 289.953308,425.261658 
z"/>
<path fill="#FFFFFF" opacity="1.000000" stroke="none" 
	d="
M1169.799316,485.621094 
	C1163.065674,488.287598 1161.172485,487.468353 1160.948975,482.596191 
	C1160.798096,479.307617 1161.648438,477.892426 1165.310547,477.875244 
	C1169.044312,477.857635 1170.555176,479.015015 1170.012939,482.715668 
	C1169.893677,483.529510 1169.948242,484.368866 1169.799316,485.621094 
z"/>
<path fill="#FFFFFF" opacity="1.000000" stroke="none" 
	d="
M987.001404,473.950439 
	C986.524841,470.101959 987.850891,468.605194 991.403442,468.955261 
	C993.713196,469.182892 996.440002,468.615601 995.952026,472.299133 
	C995.672546,474.409271 997.512085,477.902771 993.293152,477.896790 
	C990.791260,477.893250 986.737671,479.740509 987.001404,473.950439 
z"/>
<path fill="#FFFFFF" opacity="1.000000" stroke="none" 
	d="
M222.393250,461.201080 
	C225.316040,461.879883 229.551376,458.646210 229.999420,464.210419 
	C230.418671,469.416992 227.697311,471.955719 222.990433,469.762543 
	C219.307556,468.046509 220.733994,464.362579 222.393250,461.201080 
z"/>
<path fill="#FFFFFF" opacity="1.000000" stroke="none" 
	d="
M757.632812,455.346558 
	C757.214783,453.716461 757.169739,452.395050 756.989746,451.092224 
	C756.446594,447.161224 758.809143,447.008209 761.810059,446.920197 
	C765.087585,446.824066 766.158081,447.981171 766.081177,451.219910 
	C766.009033,454.256683 765.772217,456.554443 761.877502,456.009796 
	C760.575684,455.827759 759.255737,455.775360 757.632812,455.346558 
z"/>
<path fill="#FFFFFF" opacity="1.000000" stroke="none" 
	d="
M929.946411,444.001465 
	C935.737183,443.733459 933.892212,447.785828 933.897339,450.289062 
	C933.906067,454.509399 930.413818,452.672272 928.303467,452.952576 
	C924.623230,453.441467 925.180908,450.721436 924.954834,448.408051 
	C924.608276,444.862061 926.091187,443.522888 929.946411,444.001465 
z"/>
<path fill="#FFFFFF" opacity="1.000000" stroke="none" 
	d="
M537.053589,444.998535 
	C531.262817,445.266541 533.107727,441.214172 533.102539,438.710938 
	C533.093872,434.490601 536.586182,436.327789 538.696533,436.047455 
	C542.376770,435.558594 541.819092,438.278564 542.045105,440.591949 
	C542.391724,444.137939 540.908813,445.477112 537.053589,444.998535 
z"/>
<path fill="#FFFFFF" opacity="1.000000" stroke="none" 
	d="
M1220.367188,435.653564 
	C1220.785400,437.118042 1220.862793,438.268982 1221.005127,439.411865 
	C1221.413696,442.695465 1220.338745,444.105713 1216.684937,444.124603 
	C1212.948975,444.143951 1211.874023,442.977264 1211.875610,439.285126 
	C1211.877197,435.585541 1213.375854,434.602783 1216.618286,434.996552 
	C1217.761108,435.135315 1218.909912,435.224548 1220.367188,435.653564 
z"/>
<path fill="#FFFFFF" opacity="1.000000" stroke="none" 
	d="
M977.053589,436.998535 
	C971.262817,437.266541 973.107727,433.214172 973.102600,430.710938 
	C973.093933,426.490601 976.586182,428.327789 978.696533,428.047424 
	C982.376770,427.558594 981.819092,430.278564 982.045227,432.591949 
	C982.391724,436.137939 980.908813,437.477112 977.053589,436.998535 
z"/>
<path fill="#FFFFFF" opacity="1.000000" stroke="none" 
	d="
M396.799286,431.620972 
	C390.065735,434.287750 388.172546,433.468506 387.948975,428.596069 
	C387.798065,425.307465 388.648560,423.892273 392.310638,423.875214 
	C396.044098,423.857880 397.555664,425.014526 397.012848,428.715637 
	C396.893524,429.529449 396.948425,430.368866 396.799286,431.620972 
z"/>
<path fill="#FFFFFF" opacity="1.000000" stroke="none" 
	d="
M1025.953369,804.261597 
	C1025.353027,806.998474 1027.880371,810.970825 1022.894470,810.926941 
	C1020.954102,810.909851 1018.085022,812.227356 1017.297241,809.431702 
	C1016.672974,807.216003 1015.808777,803.675110 1018.079651,802.584534 
	C1020.239136,801.547363 1023.805603,800.427307 1025.953369,804.261597 
z"/>
<path fill="#FFFFFF" opacity="1.000000" stroke="none" 
	d="
M475.955231,425.736450 
	C473.811127,429.576477 470.243774,428.450745 468.083374,427.416779 
	C465.807037,426.327332 466.674774,422.786804 467.296295,420.571014 
	C468.081543,417.771606 470.939667,419.295441 472.896515,419.047516 
	C474.483215,418.846497 475.929474,419.231293 475.955688,421.316650 
	C475.972351,422.640961 475.976562,423.965393 475.955231,425.736450 
z"/>
<path fill="#FFFFFF" opacity="1.000000" stroke="none" 
	d="
M724.991760,416.844116 
	C724.487549,421.767700 721.010193,419.508179 718.799011,419.932739 
	C717.045959,420.269318 715.874146,419.283905 716.049561,417.387970 
	C716.238647,415.343384 714.891602,412.548859 717.132507,411.451630 
	C719.230408,410.424408 722.120239,410.259827 724.261353,411.701050 
	C725.733765,412.692139 724.808228,414.795990 724.991760,416.844116 
z"/>
<path fill="#FFFFFF" opacity="1.000000" stroke="none" 
	d="
M725.049561,386.001495 
	C728.898071,385.524841 730.394897,386.850983 730.044739,390.403442 
	C729.817078,392.713104 730.384521,395.440186 726.700867,394.952026 
	C724.590698,394.672424 721.097229,396.512085 721.103149,392.293121 
	C721.106689,389.791229 719.259338,385.737549 725.049561,386.001495 
z"/>
<path fill="#FFFFFF" opacity="1.000000" stroke="none" 
	d="
M736.998596,338.946411 
	C737.266724,344.737213 733.214111,342.892212 730.710999,342.897491 
	C726.490723,342.906403 728.327637,339.414001 728.047363,337.303680 
	C727.558472,333.623596 730.278381,334.180969 732.591858,333.954895 
	C736.137634,333.608429 737.477234,335.090942 736.998596,338.946411 
z"/>
<path fill="#FFFFFF" opacity="1.000000" stroke="none" 
	d="
M799.998596,319.049561 
	C800.475159,322.898041 799.149109,324.394806 795.596558,324.044739 
	C793.286804,323.817108 790.559875,324.384399 791.047852,320.700867 
	C791.327332,318.590729 789.487915,315.097260 793.706848,315.103241 
	C796.208740,315.106781 800.262329,313.259491 799.998596,319.049561 
z"/>
<path fill="#FFFFFF" opacity="1.000000" stroke="none" 
	d="
M845.620972,312.200684 
	C848.287781,318.934326 847.468567,320.827515 842.596130,321.051025 
	C839.307678,321.201904 837.892090,320.351715 837.875122,316.689392 
	C837.857849,312.955994 839.014343,311.444336 842.715576,311.987183 
	C843.529419,312.106537 844.368774,312.051605 845.620972,312.200684 
z"/>
<path fill="#FFFFFF" opacity="1.000000" stroke="none" 
	d="
M872.044800,212.263550 
	C874.188843,208.423386 877.756226,209.549377 879.916565,210.583237 
	C882.192993,211.672623 881.325256,215.213104 880.703613,217.428909 
	C879.918274,220.228256 877.060364,218.704575 875.103516,218.952438 
	C873.516785,219.153442 872.070618,218.768707 872.044434,216.683350 
	C872.027771,215.359055 872.023438,214.034576 872.044800,212.263550 
z"/>
<path fill="#FFFFFF" opacity="1.000000" stroke="none" 
	d="
M847.632812,212.346512 
	C847.214783,210.716446 847.169678,209.395020 846.989746,208.092224 
	C846.446655,204.161392 848.809021,204.008163 851.810059,203.920166 
	C855.087708,203.824066 856.157898,204.981323 856.081116,208.219894 
	C856.009155,211.256699 855.772156,213.554413 851.877502,213.009735 
	C850.575684,212.827698 849.255676,212.775314 847.632812,212.346512 
z"/>
<path fill="#FFFFFF" opacity="1.000000" stroke="none" 
	d="
M1018.799194,674.620972 
	C1012.065796,677.287720 1010.172546,676.468445 1009.948914,671.596008 
	C1009.797913,668.307312 1010.648682,666.892212 1014.310669,666.875183 
	C1018.044067,666.857849 1019.555603,668.014526 1019.012817,671.715576 
	C1018.893433,672.529419 1018.948303,673.368774 1018.799194,674.620972 
z"/>
<path fill="#FFFFFF" opacity="1.000000" stroke="none" 
	d="
M370.046722,800.738342 
	C370.647491,798.001709 368.118958,794.028992 373.105377,794.073059 
	C375.045776,794.090210 377.914978,792.772461 378.702789,795.568176 
	C379.327148,797.783997 380.191040,801.325073 377.920532,802.415649 
	C375.761108,803.452881 372.194489,804.572510 370.046722,800.738342 
z"/>
<path fill="#FFFFFF" opacity="1.000000" stroke="none" 
	d="
M747.347778,799.970337 
	C746.885498,799.957581 746.970703,799.539978 746.963928,799.327026 
	C746.972229,797.616577 746.975708,796.118835 747.005493,794.621704 
	C747.038696,792.957397 746.842712,790.947327 749.318970,791.094299 
	C751.488159,791.223022 754.480835,789.702637 755.611694,792.352600 
	C756.512634,794.463684 757.069580,797.678894 755.080200,799.380188 
	C753.215210,800.975037 750.270996,799.804138 747.347778,799.970337 
z"/>
<path fill="#FFFFFF" opacity="1.000000" stroke="none" 
	d="
M897.798889,791.393250 
	C897.120117,794.316040 900.353638,798.551331 894.789673,798.999512 
	C889.583130,799.418823 887.044250,796.697205 889.237427,791.990479 
	C890.953552,788.307495 894.637390,789.734192 897.798889,791.393250 
z"/>
<path fill="#FFFFFF" opacity="1.000000" stroke="none" 
	d="
M774.946411,759.001404 
	C780.737061,758.733398 778.892334,762.785706 778.897522,765.288940 
	C778.906250,769.509033 775.414001,767.672424 773.303589,767.952637 
	C769.623657,768.441223 770.180908,765.721497 769.954895,763.408020 
	C769.608337,759.862061 771.091309,758.523010 774.946411,759.001404 
z"/>
<path fill="#FFFFFF" opacity="1.000000" stroke="none" 
	d="
M668.953186,749.261597 
	C668.352600,751.998352 670.881042,755.970764 665.894714,755.926880 
	C663.954285,755.909790 661.085205,757.227417 660.297241,754.431946 
	C659.672729,752.216125 658.808899,748.675171 661.079346,747.584412 
	C663.238892,746.546997 666.805359,745.427856 668.953186,749.261597 
z"/>
<path fill="#FFFFFF" opacity="1.000000" stroke="none" 
	d="
M1111.152710,672.008545 
	C1116.061646,671.214966 1117.688354,673.169861 1117.017578,677.492188 
	C1116.795776,678.922363 1117.229004,680.814819 1115.085083,680.872314 
	C1112.853638,680.932312 1110.299805,681.917480 1108.451416,680.066406 
	C1106.760376,678.372986 1108.351318,673.224121 1111.152710,672.008545 
z"/>
<path fill="#FFFFFF" opacity="1.000000" stroke="none" 
	d="
M1046.378906,657.799255 
	C1043.712158,651.065552 1044.531372,649.172546 1049.403931,648.948914 
	C1052.692749,648.797852 1054.107666,649.648804 1054.124756,653.310669 
	C1054.142334,657.044250 1052.985107,658.555603 1049.284180,658.012878 
	C1048.470337,657.893494 1047.631104,657.948364 1046.378906,657.799255 
z"/>
<path fill="#FFFFFF" opacity="1.000000" stroke="none" 
	d="
M410.736481,632.044861 
	C414.576508,634.188904 413.450745,637.756348 412.416840,639.916626 
	C411.327423,642.192993 407.786896,641.325317 405.571075,640.703674 
	C402.771790,639.918335 404.295410,637.060303 404.047516,635.103394 
	C403.846466,633.516602 404.231445,632.070496 406.316711,632.044312 
	C407.641022,632.027710 408.965454,632.023499 410.736481,632.044861 
z"/>
<path fill="#FFFFFF" opacity="1.000000" stroke="none" 
	d="
M1141.346680,621.367310 
	C1139.716431,621.785278 1138.395020,621.830261 1137.092163,622.010193 
	C1133.161377,622.553162 1133.007935,620.190918 1132.920044,617.189819 
	C1132.823975,613.912231 1133.981323,612.842102 1137.219971,612.918823 
	C1140.256836,612.990845 1142.554321,613.227783 1142.009766,617.122437 
	C1141.827637,618.424316 1141.775391,619.744324 1141.346680,621.367310 
z"/>
<path fill="#FFFFFF" opacity="1.000000" stroke="none" 
	d="
M735.008240,602.155823 
	C735.512512,597.232422 738.989868,599.491821 741.201111,599.067200 
	C742.954285,598.730469 744.125610,599.716370 743.950378,601.612061 
	C743.761353,603.656677 745.108398,606.451050 742.867371,607.548340 
	C740.769470,608.575623 737.879639,608.740112 735.738647,607.298889 
	C734.266479,606.307922 735.191650,604.203979 735.008240,602.155823 
z"/>
<path fill="#FFFFFF" opacity="1.000000" stroke="none" 
	d="
M1020.632690,577.346436 
	C1020.214722,575.716370 1020.169739,574.394836 1019.989807,573.092041 
	C1019.446777,569.160950 1021.809448,569.008118 1024.810425,568.920105 
	C1028.088135,568.823914 1029.158081,569.981628 1029.081177,573.220032 
	C1029.009033,576.256714 1028.772217,578.554565 1024.877441,578.009827 
	C1023.575623,577.827759 1022.255615,577.775330 1020.632690,577.346436 
z"/>
<path fill="#FFFFFF" opacity="1.000000" stroke="none" 
	d="
M501.201080,829.606812 
	C501.879883,826.683960 498.646271,822.448669 504.210358,822.000549 
	C509.416870,821.581299 511.955597,824.302551 509.762512,829.009399 
	C508.046448,832.692566 504.362579,831.265747 501.201080,829.606812 
z"/>
<path fill="#FFFFFF" opacity="1.000000" stroke="none" 
	d="
M804.008545,546.847412 
	C803.215088,541.938904 805.169434,540.311829 809.491943,540.982361 
	C810.922180,541.204285 812.814697,540.771179 812.872314,542.914795 
	C812.932373,545.146057 813.917603,547.699768 812.066345,549.548218 
	C810.372742,551.239319 805.224365,549.648865 804.008545,546.847412 
z"/>
<path fill="#FFFFFF" opacity="1.000000" stroke="none" 
	d="
M101.950432,543.998596 
	C98.101913,544.475220 96.605194,543.149048 96.955284,539.596558 
	C97.182915,537.286865 96.615601,534.559814 100.299141,535.047791 
	C102.409279,535.327332 105.902756,533.487915 105.896744,537.706848 
	C105.893181,540.208679 107.740555,544.262329 101.950432,543.998596 
z"/>
<path fill="#FFFFFF" opacity="1.000000" stroke="none" 
	d="
M1111.346680,498.367340 
	C1109.882080,498.785431 1108.731201,498.862610 1107.588257,499.004913 
	C1104.304688,499.413696 1102.894165,498.339050 1102.875244,494.685089 
	C1102.855957,490.949127 1104.022583,489.874023 1107.714844,489.875610 
	C1111.414551,489.877197 1112.396729,491.376312 1112.003418,494.618439 
	C1111.864868,495.761230 1111.775635,496.910065 1111.346680,498.367340 
z"/>
<path fill="#FFFFFF" opacity="1.000000" stroke="none" 
	d="
M1332.118042,349.889038 
	C1332.888794,353.001923 1334.616699,356.306915 1330.587891,357.776947 
	C1328.859985,358.407501 1326.469360,358.698151 1324.929565,357.065674 
	C1323.275269,355.312012 1323.718506,352.901978 1324.312500,350.904724 
	C1325.061768,348.385284 1327.513550,349.050354 1329.434082,349.043915 
	C1330.228271,349.041260 1331.023682,349.396179 1332.118042,349.889038 
z"/>
<path fill="#FFFFFF" opacity="1.000000" stroke="none" 
	d="
M317.999664,852.407104 
	C317.365784,853.681152 316.732086,854.528870 315.965881,855.688049 
	C313.329895,855.228943 308.815186,858.222595 309.014954,852.399597 
	C309.099823,849.926025 308.022949,846.943481 312.550171,846.897217 
	C316.390686,846.857971 318.771362,847.489136 317.999664,852.407104 
z"/>
<path fill="#FFFFFF" opacity="1.000000" stroke="none" 
	d="
M947.119019,1331.372559 
	C948.763489,1327.971558 951.485046,1329.038940 953.831482,1329.218140 
	C955.358154,1329.334595 955.937683,1330.679321 955.964966,1332.145264 
	C956.017822,1334.985474 956.522400,1337.833130 952.075684,1338.079468 
	C947.025330,1338.359375 946.663940,1335.525146 947.119019,1331.372559 
z"/>
<path fill="#FFFFFF" opacity="1.000000" stroke="none" 
	d="
M306.388641,875.999695 
	C305.601532,878.774658 304.369720,881.549927 302.985657,884.662354 
	C298.753204,885.684937 297.895172,883.737793 297.872894,879.957642 
	C297.848572,875.828308 300.101227,875.829590 302.956787,875.991089 
	C303.949493,876.047241 304.948059,876.000000 306.388641,875.999695 
z"/>
<path fill="#FFFFFF" opacity="1.000000" stroke="none" 
	d="
M984.586182,1141.000000 
	C984.013672,1138.242310 983.986694,1135.466431 983.089417,1132.411987 
	C987.533325,1131.333618 989.558228,1132.720825 989.121399,1137.598389 
	C988.844604,1140.689453 987.490967,1141.212891 984.586182,1141.000000 
z"/>
</svg>