<svg width="308" height="464" viewBox="0 0 308 464" fill="none" xmlns="http://www.w3.org/2000/svg">
<path d="M157.037 217.665C154.071 233.409 153.524 249.318 154.002 265.308L153.065 265.466C152.766 264.66 152.555 263.823 152.437 262.97C152.059 250.55 152.436 238.169 154.216 225.85C154.604 223.215 154.969 220.579 155.372 217.76C154.901 217.658 154.42 217.62 153.938 217.646C137.024 221.223 120.085 224.699 103.221 228.505C99.9963 229.238 97.3375 229.086 94.4213 227.62C87.1988 223.954 81.1396 218.734 75.4642 213.14C69.4229 207.186 63.9365 200.67 58.1159 194.489C57.747 194.155 57.3135 193.902 56.8432 193.744C56.3729 193.586 55.8758 193.527 55.3816 193.571C49.7241 194.431 45.2558 192.213 41.7798 188.022C39.121 184.818 40.6353 181.367 44.7964 181.07C50.0005 180.691 54.2253 183.264 57.8017 186.759C58.2064 187.243 58.4937 187.815 58.6429 188.431C58.791 189.045 58.795 189.687 58.6558 190.304C58.0274 192.162 58.8447 193.148 59.832 194.38C67.5944 204.014 76.6892 212.236 86.2313 220.01C87.2932 220.876 88.4556 221.616 89.5244 222.475C94.9363 226.83 100.486 227.961 107.602 226.122C121.173 222.601 135.044 220.199 148.854 217.69C153.586 216.831 157.138 215.46 157.56 210.017C157.643 209.531 157.793 209.059 158.005 208.614C153.567 206.624 149.08 204.974 144.95 202.667C137.144 198.312 130.852 192.263 128.702 183.257C125.107 168.22 128.992 150.902 140.953 140.461C146.227 135.86 153.046 134.583 159.401 132.333C159.878 132.169 160.368 132.036 160.853 131.871C160.922 131.871 160.96 131.745 161.104 131.568C157.961 125.596 153.304 122.189 146.113 122.991C148.721 121.096 151.45 121.506 154.089 122.359C157.923 123.624 160.294 126.569 162.041 130.013C162.669 131.278 163.405 131.789 164.794 131.726C166.919 131.625 169.049 131.726 171.318 131.726C171.64 130.281 171.573 128.776 171.125 127.365C170.676 125.954 169.862 124.689 168.766 123.7C166.824 121.804 164.234 120.634 161.997 119.193C167.025 118.277 172.651 122.985 172.757 128.756C172.808 131.417 173.745 132.27 176.102 133.104C195.587 139.994 206.788 159.201 202.299 178.611C198.566 194.722 184.913 209.714 163.021 208.431C160.368 208.273 159.005 208.911 158.621 211.547C158.502 212.402 158.269 213.237 157.93 214.031C157.301 215.472 157.855 216.319 159.136 216.9C161.651 218.045 164.109 219.22 166.61 220.319C181.262 226.779 195.901 233.257 210.609 239.623C212.246 240.309 214.018 240.61 215.788 240.501C229.032 239.591 242.263 238.446 255.507 237.555C260.453 237.221 265.445 237.183 270.403 237.347C274.636 237.556 278.686 239.142 281.944 241.866C283.477 243.074 285.25 244.476 284.181 246.796C283.068 249.23 280.831 248.547 278.99 248.003C273.586 246.508 268.568 243.859 264.275 240.235C263.727 239.717 263.075 239.324 262.362 239.084C261.649 238.844 260.893 238.763 260.145 238.845C248.111 239.793 236.069 240.716 224.023 241.613C223.167 241.683 222.312 241.727 221.458 241.809C215.411 242.359 209.691 241.67 204.028 238.971C188.722 231.696 173.229 224.814 157.804 217.779C157.553 217.717 157.296 217.679 157.037 217.665ZM157.144 136.043C155.749 136.226 154.831 136.378 153.907 136.461C148.477 136.915 143.674 138.988 140.079 143.04C130.022 154.467 127.056 167.873 130.77 182.492C134.145 195.765 152.568 209.203 172.343 205.947C189.942 203.039 203.77 186.74 200.628 165.427C197.737 145.688 178.528 129.4 156.226 134.488C156.101 134.52 156.019 134.723 155.887 134.868L157.144 136.043ZM46.2361 182.48C42.3644 182.448 41.2071 183.743 42.6975 185.88C45.4318 189.836 49.2598 192.112 54.1368 192.055C55.1489 192.055 56.8711 191.246 56.9963 190.563C57.0858 189.921 57.0381 189.269 56.8561 188.647C56.6732 188.026 56.362 187.45 55.9404 186.961C53.2976 184.414 49.8792 182.835 46.2361 182.48ZM265.733 238.915C269.875 242.839 278.795 246.777 282.604 246.36C281.893 241.815 271.095 237.076 265.733 238.915Z" fill="#15272F"/>
<path d="M166.708 461.67C164.992 461.948 163.565 462.441 162.169 462.365C156.984 462.062 151.799 461.613 146.626 461.101C145.997 461.038 144.859 460.254 144.904 459.938C144.969 459.536 145.115 459.152 145.331 458.806C145.547 458.461 145.828 458.162 146.16 457.928C149.63 455.887 153.451 456.228 157.154 456.911C159.7 457.372 162.132 458.485 164.79 459.363C163.314 453.914 161.617 448.618 160.46 443.164C157.851 430.959 155.017 418.78 153.27 406.442C152.327 399.812 153.2 392.86 153.684 386.084C154.847 369.764 155.802 353.407 157.764 337.177C158.926 327.519 157.342 318.38 155.909 309.032C154.615 300.62 154.023 292.1 153.156 283.617C153.1 283.029 153.64 282.353 153.904 281.721C154.244 282.391 154.803 283.036 154.891 283.731C156.337 295.513 157.33 307.369 159.291 319.062C160.372 325.528 163.206 331.703 164.947 338.062C175.841 378.158 190.65 416.846 206.57 455.135C207.262 456.797 207.96 458.46 208.456 459.717C212.636 459.281 216.627 458.744 220.663 458.497C222.366 458.467 224.064 458.71 225.691 459.218C226.546 459.452 227.232 460.305 227.998 460.88C227.225 461.575 226.534 462.776 225.672 462.89C222.309 463.454 218.915 463.818 215.509 463.983C210.009 464.242 206.86 461.676 204.698 456.329C188.468 416.302 173.138 375.978 162.207 334.098C161.697 331.968 160.918 329.912 159.889 327.98C159.492 331.501 158.99 335.008 158.719 338.529C157.219 358.451 155.752 378.373 154.319 398.295C153.728 406.417 155.727 414.248 157.368 422.048C160.027 434.688 163.263 447.159 166.249 459.704C166.387 460.229 166.495 460.728 166.708 461.67ZM146.003 459.553C151.975 460.633 157.48 461.765 163.509 460.899C157.927 457.201 150.02 456.532 146.003 459.553ZM226.917 460.728C221.015 459.009 215.603 458.958 209.619 461.032C215.735 463.218 222.97 463.111 226.917 460.728Z" fill="#15272F"/>
<path d="M64.6172 231.577C66.2896 229.959 67.6657 229.99 69.4136 231.577H64.6172Z" fill="#15272F"/>
<path d="M107.674 271.43C112.959 272.958 118.182 274.754 123.545 275.942C128.978 277.112 134.472 277.985 140 278.559C145.594 279.191 151.239 279.324 156.971 280.253C156.28 280.524 155.558 280.709 154.821 280.803C139.064 280.885 123.564 279.368 108.893 272.977C108.399 272.73 107.918 272.456 107.453 272.157L107.674 271.43Z" fill="#15272F"/>
<path d="M167.832 7.30078C169.09 7.41461 170.403 7.48409 171.679 7.64848C184.527 9.3107 196.821 12.553 207.77 19.9354C211.133 22.2044 214.056 24.8273 215.589 28.6892C202.591 14.9043 185.337 10.9919 167.682 8.04665L167.832 7.30078Z" fill="#15272F"/>
<path d="M163.16 25.2337C164.046 25.2337 164.939 25.1957 165.825 25.2337C178.396 25.8657 190.64 28.0842 202.174 33.3996C203.81 34.15 205.373 35.0491 206.844 36.0858C207.646 36.7795 208.236 37.6864 208.547 38.7025C201.772 34.1897 194.267 31.5224 186.568 29.7654C178.868 28.0083 170.979 27.0855 163.172 25.8025L163.16 25.2337Z" fill="#15272F"/>
<path d="M53.3145 83.0464C54.0184 68.895 78.9849 40.0678 92.7757 37.4766C73.1962 47.0458 61.0898 63.1184 53.3145 83.0464Z" fill="#15272F"/>
<path d="M124.053 262.002C135.416 265.845 147.309 266.149 159.038 267.438C147.001 268.19 135.146 267.545 124.053 262.002Z" fill="#15272F"/>
<path d="M97.6697 46.0059C90.6421 51.5102 82.5844 55.9533 77.3485 63.494C72.2319 70.8505 67.6313 78.5745 62.7285 86.0581C70.4034 69.2647 80.403 54.4556 97.6697 46.0059Z" fill="#15272F"/>
<path d="M298.5 176.947V137.128L298.726 137.002C298.99 138.006 299.48 139.011 299.486 140.022C299.543 152.361 299.524 164.673 299.524 177.035L298.5 176.947Z" fill="#15272F"/>
<path d="M254.156 52.8379C260.87 52.9901 277.413 73.3606 278.281 82.6383C272.63 70.4462 264.949 60.4667 254.156 52.8379Z" fill="#15272F"/>
<path d="M275.941 136.725C278.123 140.991 279.858 165.432 277.96 172.858C277.281 160.445 276.621 148.682 275.941 136.725Z" fill="#15272F"/>
<path d="M263.585 87.4952L241.768 57.3594C250.856 66.0624 257.884 76.2952 263.585 87.4952Z" fill="#15272F"/>
<path d="M48.5394 172.035C44.4101 162.492 46.34 151.746 47.1066 141.002C47.5968 151.664 48.087 162.296 48.5394 172.035Z" fill="#15272F"/>
<path d="M34.5266 171.873C31.0635 162.115 32.012 151.863 32.2069 141.674L32.9298 141.617C33.4647 151.749 33.9986 161.862 34.5266 171.873Z" fill="#15272F"/>
<path d="M257.413 242.654C250.656 251.256 241.832 257.488 232.535 263.177L257.413 242.654Z" fill="#15272F"/>
<path d="M48.4056 236.245C44.9107 232.345 40.3032 218.264 40.8629 212.961C43.4391 220.836 45.9348 228.579 48.4056 236.245Z" fill="#15272F"/>
<path d="M101.203 37.4492C102.813 44.1934 105.93 49.9571 111.631 54.5143C106.132 53.2128 100.82 44.5028 101.203 37.4492Z" fill="#15272F"/>
<path d="M33.8115 190.125C35.98 196.205 38.6139 201.11 45.207 202.766C39.5635 204.08 33.1453 197.039 33.8115 190.125Z" fill="#15272F"/>
<path d="M226.211 256.135L242.799 242.584C238.335 248.354 232.698 252.697 226.211 256.135Z" fill="#15272F"/>
<path d="M285.442 87.0515L263.732 90.4395C263.681 90.1171 263.632 89.8077 263.588 89.4723L285.31 86.1855L285.442 87.0515Z" fill="#15272F"/>
<path d="M202.993 47.2344C202.634 52.2912 203.998 56.7153 208.404 60.3685C202.898 58.6616 200.704 53.0871 202.993 47.2344Z" fill="#15272F"/>
<path d="M235.54 277.16C238.356 279.461 237.162 289.03 233.133 294.693C234.019 291.477 235.075 288.74 235.458 285.914C235.841 283.089 235.54 280.22 235.54 277.16Z" fill="#15272F"/>
<path d="M247.656 95.8496L240.547 108.971C240.967 103.712 243.588 99.3827 247.656 95.8496Z" fill="#15272F"/>
<path d="M37.2726 249.906C35.4371 254.849 33.9984 259.754 36.4493 265.297C32.8102 261.543 33.2626 254.565 37.2726 249.906Z" fill="#15272F"/>
<path d="M108.116 258.566C107.847 253.51 107.231 249.256 102.566 247.07L103.27 246.172C104.154 246.518 104.997 246.961 105.785 247.493C108.745 249.945 109.7 254.022 108.116 258.566Z" fill="#15272F"/>
<path d="M82.73 94.7739C82.1016 90.4249 84.1509 85.2929 79.248 81.8359C80.2284 82.3035 81.4603 82.5367 82.1523 83.2826C83.9749 85.2419 84.2324 92.2009 82.73 94.7739Z" fill="#15272F"/>
<path d="M1.75363 107.037C-0.615758 103.454 -0.553118 96.4952 1.75363 93.2715V107.037Z" fill="#15272F"/>
<path d="M154.066 268.943C154.254 271.877 154.43 274.12 154.473 276.364C154.473 276.541 153.33 277.047 153.091 276.875C152.185 276.212 152.513 270.606 154.066 268.943Z" fill="#15272F"/>
<path d="M257.428 185.878C260.068 181.347 262.921 177.087 268.792 176.543C263.594 177.965 260.716 182.155 257.428 185.878Z" fill="#15272F"/>
<path d="M51.6035 213.648C53.0661 217.166 54.5326 220.69 56.0032 224.217L55.337 224.513L50.5098 214.085L51.6035 213.648Z" fill="#15272F"/>
<path d="M81.0891 201.257C78.2942 199.151 75.4953 197.03 72.6914 194.893L73.2074 194.197C76.7521 195.291 78.8898 198.337 81.0891 201.257Z" fill="#15272F"/>
<path d="M268.287 23.3984C270.268 25.7243 270.399 30.591 268.834 33.1193C268.664 30.0664 268.482 26.862 268.287 23.3984Z" fill="#15272F"/>
<path d="M164.838 250.51C166.334 247.242 169.2 245.391 172.443 243.949L164.838 250.51Z" fill="#15272F"/>
<path d="M46.2371 182.477C49.8831 182.832 53.3035 184.409 55.9483 186.958C56.3689 187.448 56.6811 188.024 56.863 188.644C57.045 189.266 57.0937 189.919 57.0042 190.56C56.879 191.243 55.1568 192.039 54.1447 192.052C49.2667 192.109 45.4387 189.834 42.7044 185.877C41.202 183.716 42.3653 182.445 46.2371 182.477Z" fill="#00B39F"/>
<path d="M265.734 238.915C271.096 237.019 281.894 241.816 282.604 246.36C278.795 246.778 269.877 242.84 265.734 238.915Z" fill="#00B39F"/>
<path d="M146 459.554C150.016 456.545 157.942 457.215 163.505 460.899C157.477 461.753 151.971 460.622 146 459.554Z" fill="#00B39F"/>
<path d="M226.914 460.729C222.954 463.112 215.719 463.219 209.615 461.032C215.6 458.959 221.024 459.01 226.914 460.729Z" fill="#00B39F"/>
<path d="M191.616 168.237C189.768 169.502 188.026 171.051 186.041 172.068C179.736 175.23 172.864 177.09 165.833 177.535C158.215 178.098 150.559 178.079 143.092 176.202C140.219 175.475 137.485 174.153 134.75 172.959C133.9 172.458 133.178 171.763 132.645 170.93C152.702 178.357 172.244 178.363 191.163 167.6L191.616 168.237Z" fill="#15272F"/>
<path d="M171.092 146.308C170.57 149.568 169.439 151.995 167.113 153.715C166.27 154.347 164.694 154.764 163.907 154.347C163.122 153.929 162.619 152.268 162.832 151.351C163.323 149.12 164.162 146.98 165.316 145.011C165.982 143.918 167.786 142.724 168.836 142.92C169.716 143.09 170.344 145.106 171.092 146.308Z" fill="#15272F"/>
<path d="M155.091 145.675C154.658 149.657 153.363 152.565 150.277 154.277C149.843 154.495 149.368 154.617 148.883 154.635C148.399 154.652 147.916 154.565 147.467 154.378C146.927 154.074 146.676 152.729 146.763 151.894C146.876 150.397 147.3 148.941 148.006 147.617C148.712 146.293 149.684 145.132 150.862 144.209C151.26 143.937 151.714 143.757 152.189 143.68C152.665 143.603 153.151 143.633 153.615 143.767C154.368 144.07 154.771 145.22 155.091 145.675Z" fill="#15272F"/>
<path d="M168.951 138.261C172.528 137.66 175.727 140.157 176.431 144.127L168.951 138.261Z" fill="#15272F"/>
<path d="M144.781 144.336C146.617 141.1 149.496 139.444 152.821 138.508L153.204 139.102L144.781 144.336Z" fill="#15272F"/>
<path d="M193.602 260.586V271.729L203.375 266.148L193.602 260.586Z" fill="#00D3A9"/>
<path d="M193.602 274.062V285.293L203.483 279.688L193.602 274.062Z" fill="#00D3A9"/>
<path d="M192.17 271.666V260.676L182.49 266.149L192.17 271.666Z" fill="#00B39F"/>
<path d="M172.727 285.23C174.645 288.264 177.224 290.818 180.269 292.701V280.945L172.727 285.23Z" fill="#00B39F"/>
<path d="M192.164 285.228V274.148L182.459 279.692L192.164 285.228Z" fill="#00B39F"/>
<path d="M181.66 291.998L191.485 286.455L181.66 280.855V291.998Z" fill="#00D3A9"/>
<path d="M204.157 292.064V280.914L194.332 286.457L204.157 292.064Z" fill="#00B39F"/>
<path d="M213.772 283.947C215.453 280.87 216.405 277.447 216.557 273.941L206.318 279.718L213.772 283.947Z" fill="#00B39F"/>
<path d="M205.545 278.525L215.425 272.95L205.545 267.414V278.525Z" fill="#00D3A9"/>
<path d="M204.151 264.961V253.906L194.383 259.418L204.151 264.961Z" fill="#00B39F"/>
<path d="M204.146 278.467V267.324L194.348 272.893L204.146 278.467Z" fill="#00B39F"/>
<path d="M181.66 267.293V278.556L191.541 272.867L181.66 267.293Z" fill="#00D3A9"/>
<path d="M192.169 249.559C188.537 249.644 184.973 250.563 181.748 252.245L192.169 258.141V249.559Z" fill="#00B39F"/>
<path d="M181.66 253.816V265.016L191.541 259.416L181.66 253.816Z" fill="#00D3A9"/>
<path d="M180.246 253.148C177.196 255.022 174.615 257.576 172.703 260.613L180.246 264.904V253.148Z" fill="#00B39F"/>
<path d="M204.085 252.333C200.847 250.618 197.261 249.669 193.602 249.559V258.25L204.085 252.333Z" fill="#00D3A9"/>
<path d="M169.168 273.734C169.288 277.345 170.263 280.874 172.009 284.03L179.614 279.688L169.168 273.734Z" fill="#00D3A9"/>
<path d="M172.009 261.806C170.278 264.959 169.305 268.477 169.168 272.077L179.614 266.148L171.977 261.799L172.009 261.806Z" fill="#00D3A9"/>
<path d="M181.748 293.546C184.971 295.238 188.535 296.165 192.169 296.258V287.637L181.748 293.495V293.546Z" fill="#00B39F"/>
<path d="M213.024 260.642C211.12 257.628 208.563 255.085 205.545 253.203V264.883L213.024 260.642Z" fill="#00D3A9"/>
<path d="M205.545 292.696C208.601 290.806 211.183 288.232 213.088 285.174L205.545 280.914V292.696Z" fill="#00D3A9"/>
<path d="M216.577 271.989C216.435 268.433 215.473 264.957 213.767 261.838L206.225 266.13L216.577 271.989Z" fill="#00B39F"/>
<path d="M193.602 296.289C197.235 296.198 200.798 295.268 204.017 293.572L193.602 287.637V296.289Z" fill="#00D3A9"/>
<path d="M180.243 278.437V267.414L170.539 272.893L180.243 278.437Z" fill="#00B39F"/>
<path d="M283.328 193.191V205.156L293.844 199.152L283.328 193.191Z" fill="#00D3A9"/>
<path d="M283.328 207.658V219.711L293.938 213.688L283.328 207.658Z" fill="#00D3A9"/>
<path d="M281.808 205.092V193.285L271.424 199.151L281.808 205.092Z" fill="#00B39F"/>
<path d="M260.945 219.648C263.003 222.899 265.768 225.639 269.029 227.662V215.021L260.945 219.648Z" fill="#00B39F"/>
<path d="M281.81 219.651V207.756L271.395 213.691L281.81 219.651Z" fill="#00B39F"/>
<path d="M270.523 226.909L281.071 220.961L270.523 214.951V226.909Z" fill="#00D3A9"/>
<path d="M294.674 226.963V215.018L284.113 220.964L294.674 226.963Z" fill="#00B39F"/>
<path d="M304.994 218.27C306.8 214.968 307.821 211.29 307.98 207.525L296.992 213.726L304.994 218.27Z" fill="#00B39F"/>
<path d="M296.193 212.423L306.796 206.444L296.193 200.465V212.423Z" fill="#00D3A9"/>
<path d="M294.666 197.887V186.023L284.188 191.939L294.666 197.887Z" fill="#00B39F"/>
<path d="M294.666 212.385V200.414L284.156 206.394L294.666 212.385Z" fill="#00B39F"/>
<path d="M270.523 200.414V212.499L281.133 206.425L270.523 200.414Z" fill="#00D3A9"/>
<path d="M281.808 181.357C277.91 181.457 274.087 182.454 270.633 184.272L281.808 190.592V181.357Z" fill="#00B39F"/>
<path d="M270.523 185.93V197.939L281.133 191.928L270.523 185.93Z" fill="#00D3A9"/>
<path d="M269.028 185.208C265.763 187.225 263.003 189.966 260.957 193.223L269.028 197.83V185.189V185.208Z" fill="#00B39F"/>
<path d="M294.604 184.335C291.12 182.492 287.264 181.474 283.328 181.357V190.686L294.604 184.335Z" fill="#00D3A9"/>
<path d="M257.129 207.311C257.259 211.186 258.304 214.975 260.177 218.365L268.348 213.701L257.129 207.311Z" fill="#00D3A9"/>
<path d="M260.177 194.505C258.318 197.889 257.274 201.665 257.129 205.528L268.341 199.151L260.17 194.486L260.177 194.505Z" fill="#00D3A9"/>
<path d="M270.633 228.564C274.086 230.385 277.91 231.382 281.808 231.478V222.244L270.633 228.532V228.564Z" fill="#00B39F"/>
<path d="M304.226 193.252C302.179 190.011 299.434 187.273 296.193 185.244V197.803L304.226 193.252Z" fill="#00D3A9"/>
<path d="M296.193 227.633C299.447 225.604 302.195 222.851 304.226 219.587L296.193 215.018V227.658V227.633Z" fill="#00D3A9"/>
<path d="M308.001 205.434C307.851 201.615 306.818 197.884 304.984 194.537L296.889 199.151L308.001 205.434Z" fill="#00B39F"/>
<path d="M283.328 231.511C287.229 231.416 291.055 230.418 294.51 228.597L283.328 222.213V231.511Z" fill="#00D3A9"/>
<path d="M269.029 212.357V200.525L258.607 206.409L269.029 212.357Z" fill="#00B39F"/>
<path d="M285.139 100.914V111.071L294.064 105.964L285.139 100.914Z" fill="#00D3A9"/>
<path d="M285.139 113.193V123.432L294.172 118.325L285.139 113.193Z" fill="#00D3A9"/>
<path d="M283.844 111.02V100.996L275.045 105.995L283.844 111.02Z" fill="#00B39F"/>
<path d="M266.131 123.383C267.874 126.142 270.216 128.468 272.983 130.184V119.471L266.131 123.383Z" fill="#00B39F"/>
<path d="M283.844 123.384V113.271L274.994 118.327L283.844 123.384Z" fill="#00B39F"/>
<path d="M274.264 129.554L283.214 124.497L274.264 119.396V129.554Z" fill="#00D3A9"/>
<path d="M294.799 129.629V119.447L285.842 124.503L294.799 129.629Z" fill="#00B39F"/>
<path d="M303.537 122.212C305.06 119.407 305.921 116.285 306.051 113.092L296.717 118.357L303.537 122.212Z" fill="#00B39F"/>
<path d="M296.057 117.263L305.064 112.206L296.057 107.15V117.263Z" fill="#00D3A9"/>
<path d="M294.8 104.903V94.8281L285.9 99.8529L294.8 104.903Z" fill="#00B39F"/>
<path d="M294.801 117.213V107.057L285.869 112.113L294.801 117.213Z" fill="#00B39F"/>
<path d="M274.264 107.029V117.287L283.271 112.13L274.264 107.029Z" fill="#00D3A9"/>
<path d="M283.844 90.8633C280.534 90.9464 277.288 91.7924 274.354 93.3341L283.844 98.7063V90.8633Z" fill="#00B39F"/>
<path d="M274.264 94.7461V104.979L283.271 99.872L274.264 94.7461Z" fill="#00D3A9"/>
<path d="M272.983 94.1315C270.211 95.8445 267.868 98.1732 266.131 100.938L272.983 104.851V94.1055V94.1315Z" fill="#00B39F"/>
<path d="M294.712 93.3912C291.754 91.8264 288.479 90.9624 285.139 90.8633V98.7894L294.712 93.3912Z" fill="#00D3A9"/>
<path d="M262.889 112.904C262.999 116.195 263.886 119.412 265.478 122.29L272.392 118.327L262.889 112.904Z" fill="#00D3A9"/>
<path d="M265.478 102.031C263.899 104.903 263.012 108.107 262.889 111.386L272.411 105.994L265.446 102.031H265.478Z" fill="#00D3A9"/>
<path d="M274.354 130.958C277.288 132.501 280.534 133.346 283.844 133.43V125.586L274.354 130.927V130.958Z" fill="#00B39F"/>
<path d="M302.858 100.969C301.127 98.2222 298.802 95.9045 296.057 94.1875V104.85L302.858 100.969Z" fill="#00D3A9"/>
<path d="M296.057 130.161C298.827 128.436 301.162 126.091 302.882 123.309L296.057 119.447V130.192V130.161Z" fill="#00D3A9"/>
<path d="M306.113 111.296C305.983 108.053 305.105 104.885 303.549 102.043L296.686 105.961L306.113 111.296Z" fill="#00B39F"/>
<path d="M285.139 133.457C288.45 133.375 291.697 132.53 294.63 130.986L285.139 125.562V133.457Z" fill="#00D3A9"/>
<path d="M272.98 117.186V107.131L264.131 112.131L272.98 117.186Z" fill="#00B39F"/>
<path d="M232.822 29.0254V37.7476L240.491 33.3612L232.822 29.0254Z" fill="#00D3A9"/>
<path d="M232.822 39.5723V48.3634L240.56 43.9774L232.822 39.5723Z" fill="#00D3A9"/>
<path d="M231.716 37.7041V29.0957L224.143 33.3873L231.716 37.7041Z" fill="#00B39F"/>
<path d="M216.498 48.3175C217.997 50.6862 220.008 52.6845 222.381 54.1632V44.9355L216.498 48.3175Z" fill="#00B39F"/>
<path d="M231.718 48.3146V39.6426L224.119 43.9786L231.718 48.3146Z" fill="#00B39F"/>
<path d="M223.482 53.6125L231.175 49.2765L223.482 44.8965V53.6125Z" fill="#00D3A9"/>
<path d="M241.102 53.6646V44.9355L233.408 49.2716L241.102 53.6646Z" fill="#00B39F"/>
<path d="M248.625 47.3096C249.944 44.9048 250.689 42.2237 250.799 39.4785L242.785 44.0037L248.625 47.3096Z" fill="#00B39F"/>
<path d="M242.209 43.0699L249.947 38.7088L242.209 34.3477V43.0699Z" fill="#00D3A9"/>
<path d="M241.094 32.4496V23.7969L233.451 28.1074L241.094 32.4496Z" fill="#00B39F"/>
<path d="M241.096 43.0377V34.2969L233.428 38.658L241.096 43.0377Z" fill="#00B39F"/>
<path d="M223.482 34.2773V43.0881L231.22 38.6637L223.482 34.2773Z" fill="#00D3A9"/>
<path d="M231.718 20.3906C228.868 20.46 226.073 21.1865 223.547 22.5143L231.718 27.1282V20.3906Z" fill="#00B39F"/>
<path d="M223.482 23.7266V32.493L231.22 28.1066L223.482 23.7266Z" fill="#00D3A9"/>
<path d="M222.381 23.2031C220.003 24.6749 217.99 26.6748 216.498 29.0495L222.381 32.4056V23.2031Z" fill="#00B39F"/>
<path d="M241.044 22.5648C238.505 21.218 235.692 20.4742 232.822 20.3906V27.1978L241.044 22.5648Z" fill="#00D3A9"/>
<path d="M213.717 39.3184C213.814 42.1436 214.577 44.9058 215.942 47.3767L221.889 43.9767L213.717 39.3184Z" fill="#00D3A9"/>
<path d="M215.942 29.9844C214.59 32.4516 213.827 35.2023 213.717 38.0176L221.889 33.3847L215.911 29.9844H215.942Z" fill="#00D3A9"/>
<path d="M223.566 54.8243C226.091 56.1548 228.887 56.8816 231.737 56.9487V50.2109L223.566 54.7992V54.8243Z" fill="#00B39F"/>
<path d="M248.041 29.0711C246.557 26.7145 244.563 24.7248 242.209 23.25V32.4083L248.041 29.0711Z" fill="#00D3A9"/>
<path d="M242.209 54.1452C244.581 52.6625 246.585 50.6541 248.066 48.2734L242.209 44.9355V54.1382V54.1452Z" fill="#00D3A9"/>
<path d="M250.801 37.9799C250.692 35.1956 249.94 32.4752 248.601 30.0352L242.699 33.3912L250.801 37.9799Z" fill="#00B39F"/>
<path d="M232.822 56.9732C235.672 56.9042 238.468 56.1773 240.993 54.8498L232.822 50.1914V56.9732Z" fill="#00D3A9"/>
<path d="M222.382 42.9964V34.3633L214.789 38.6548L222.382 42.9964Z" fill="#00B39F"/>
<path d="M133.383 11.4863V23.0906L143.584 17.2569L133.383 11.4863Z" fill="#00D3A9"/>
<path d="M133.383 25.5176V37.2167L143.678 31.383L133.383 25.5176Z" fill="#00D3A9"/>
<path d="M131.905 23.0288V11.5762L121.848 17.2645L131.905 23.0288Z" fill="#00B39F"/>
<path d="M111.662 37.1516C113.655 40.3044 116.329 42.9645 119.487 44.9318V32.6895L111.662 37.1516Z" fill="#00B39F"/>
<path d="M131.904 37.1525V25.6113L121.797 31.3819L131.904 37.1525Z" fill="#00B39F"/>
<path d="M120.953 44.2L131.185 38.4294L120.953 32.5957V44.2Z" fill="#00D3A9"/>
<path d="M144.39 44.2624V32.6582L134.158 38.4288L144.39 44.2624Z" fill="#00B39F"/>
<path d="M154.413 35.8189C156.162 32.615 157.152 29.0482 157.305 25.3965L146.619 31.4135L154.413 35.8189Z" fill="#00B39F"/>
<path d="M145.865 30.1687L156.161 24.3667L145.865 18.5645V30.1687Z" fill="#00D3A9"/>
<path d="M144.387 16.0451V4.5293L134.217 10.2745L144.387 16.0451Z" fill="#00B39F"/>
<path d="M144.387 30.1063V18.502L134.186 24.3042L144.387 30.1063Z" fill="#00B39F"/>
<path d="M120.953 18.4707V30.2014L131.248 24.3045L120.953 18.4707Z" fill="#00D3A9"/>
<path d="M131.911 0C128.127 0.0906046 124.414 1.05732 121.062 2.82516L131.911 8.96235V0Z" fill="#00B39F"/>
<path d="M120.953 4.43945V16.1006L131.248 10.2732L120.953 4.43945Z" fill="#00D3A9"/>
<path d="M119.487 3.73438C116.322 5.69324 113.646 8.35471 111.662 11.5149L119.487 15.9771V3.73438Z" fill="#00B39F"/>
<path d="M144.326 2.88843C140.945 1.09817 137.202 0.110027 133.383 0V9.05085L144.326 2.88843Z" fill="#00D3A9"/>
<path d="M107.953 25.1816C108.08 28.9484 109.095 32.631 110.914 35.9263L118.834 31.4009L107.953 25.1816Z" fill="#00D3A9"/>
<path d="M110.914 12.7617C109.112 16.0413 108.098 19.6992 107.953 23.4433L118.834 17.2808L110.882 12.7617H110.914Z" fill="#00D3A9"/>
<path d="M121.062 45.8109C124.414 47.579 128.127 48.5451 131.911 48.6362V39.6738L121.062 45.7789V45.8109Z" fill="#00B39F"/>
<path d="M153.635 11.5432C151.655 8.4094 148.999 5.76335 145.865 3.80078V15.9802L153.635 11.5432Z" fill="#00D3A9"/>
<path d="M145.865 44.9313C149.029 42.955 151.698 40.2739 153.665 37.0942L145.865 32.6699V44.9313Z" fill="#00D3A9"/>
<path d="M157.327 23.3632C157.177 19.6582 156.174 16.0386 154.398 12.7891L146.541 17.2576L157.327 23.3632Z" fill="#00B39F"/>
<path d="M133.383 48.668C137.166 48.5769 140.879 47.6098 144.231 45.8427L133.383 39.6426V48.668Z" fill="#00D3A9"/>
<path d="M119.49 30.0736V18.5957L109.383 24.2841L119.49 30.0736Z" fill="#00B39F"/>
<path d="M38.0156 94.6562V106.242L48.217 100.408L38.0156 94.6562Z" fill="#00D3A9"/>
<path d="M38.0156 108.691V120.384L48.3114 114.55L38.0156 108.691Z" fill="#00D3A9"/>
<path d="M36.5377 106.203V94.75L26.4805 100.439L36.5377 106.203Z" fill="#00B39F"/>
<path d="M16.3008 120.322C18.2884 123.478 20.965 126.138 24.1258 128.102V115.859L16.3008 120.322Z" fill="#00B39F"/>
<path d="M36.538 120.323V108.77L26.4062 114.552L36.538 120.323Z" fill="#00B39F"/>
<path d="M25.5918 127.378L35.8379 121.601L25.6047 115.773L25.5918 127.378Z" fill="#00D3A9"/>
<path d="M49.034 127.433V115.828L38.8008 121.599L49.034 127.433Z" fill="#00B39F"/>
<path d="M59.0392 118.988C60.7941 115.787 61.7864 112.219 61.9376 108.566L51.252 114.583L59.0392 118.988Z" fill="#00B39F"/>
<path d="M50.498 113.339L60.7939 107.537L50.498 101.734V113.339Z" fill="#00D3A9"/>
<path d="M49.0328 99.2145V87.6992L38.8633 93.4449L49.0328 99.2145Z" fill="#00B39F"/>
<path d="M49.0346 113.276V101.672L38.8203 107.506L49.0346 113.276Z" fill="#00B39F"/>
<path d="M25.5918 101.645V113.369L35.8876 107.503L25.5918 101.645Z" fill="#00D3A9"/>
<path d="M36.544 83.1699C32.7587 83.269 29.0471 84.2422 25.6953 86.0142L36.544 92.1513V83.1699Z" fill="#00B39F"/>
<path d="M25.5918 87.6094V99.2889L35.8876 93.4551L25.5918 87.6094Z" fill="#00D3A9"/>
<path d="M24.1258 86.9082C20.96 88.8655 18.2824 91.5265 16.3008 94.6882L24.1258 99.1503V86.9082Z" fill="#00B39F"/>
<path d="M48.9587 86.0583C45.5782 84.2682 41.8357 83.28 38.0156 83.1699V92.2264L48.9587 86.0583Z" fill="#00D3A9"/>
<path d="M12.5801 108.359C12.7054 112.126 13.7205 115.809 15.5411 119.104L23.4606 114.579L12.5801 108.359Z" fill="#00D3A9"/>
<path d="M15.554 95.9316C13.7474 99.2144 12.7292 102.877 12.5801 106.626L23.4606 100.457L15.5092 95.9316H15.554Z" fill="#00D3A9"/>
<path d="M25.6953 128.997C29.0471 130.765 32.7597 131.731 36.544 131.822V122.854L25.6953 128.959V128.997Z" fill="#00B39F"/>
<path d="M58.2674 94.7197C56.2878 91.584 53.633 88.936 50.498 86.9707V99.1498L58.2674 94.7197Z" fill="#00D3A9"/>
<path d="M50.498 128.07C53.6579 126.103 56.3266 123.433 58.2982 120.265L50.498 115.84V128.083V128.07Z" fill="#00D3A9"/>
<path d="M61.9619 106.534C61.8128 102.831 60.8105 99.2135 59.0327 95.9668L51.1699 100.429L61.9619 106.534Z" fill="#00B39F"/>
<path d="M38.0156 131.841C41.8019 131.744 45.5135 130.77 48.8653 128.997L38.0156 122.803V131.841Z" fill="#00D3A9"/>
<path d="M24.1245 113.25V101.766L14.0176 107.454L24.1245 113.25Z" fill="#00B39F"/>
<path d="M73.5508 249.209V263.328L85.9645 256.231L73.5508 249.209Z" fill="#00D3A9"/>
<path d="M73.5508 266.287V280.521L86.1216 273.422L73.5508 266.287Z" fill="#00D3A9"/>
<path d="M71.7714 263.258V249.314L59.502 256.266L71.7714 263.258Z" fill="#00B39F"/>
<path d="M47.1465 280.446C49.5686 284.291 52.8268 287.533 56.6757 289.927V274.998L47.1465 280.446Z" fill="#00B39F"/>
<path d="M71.7632 280.445V266.4L59.4629 273.423L71.7632 280.445Z" fill="#00B39F"/>
<path d="M58.4609 289.022L70.9183 282L58.4609 274.902V289.022Z" fill="#00D3A9"/>
<path d="M86.9612 289.099V274.998L74.5098 282.02L86.9612 289.099Z" fill="#00B39F"/>
<path d="M99.1498 278.819C101.28 274.924 102.486 270.587 102.677 266.146L89.7031 273.459L99.1498 278.819Z" fill="#00B39F"/>
<path d="M88.752 271.945L101.279 264.884L88.752 257.824V271.945Z" fill="#00D3A9"/>
<path d="M86.956 254.769V240.738L74.5801 247.728L86.956 254.769Z" fill="#00B39F"/>
<path d="M86.9547 271.872V257.746L74.541 264.806L86.9547 271.872Z" fill="#00B39F"/>
<path d="M58.4609 257.711V271.982L70.9939 264.809L58.4609 257.711Z" fill="#00D3A9"/>
<path d="M71.7705 235.236C67.1669 235.351 62.6509 236.528 58.5703 238.675L71.7705 246.14V235.236Z" fill="#00B39F"/>
<path d="M58.4609 240.633V254.828L70.9939 247.73L58.4609 240.633Z" fill="#00D3A9"/>
<path d="M56.6601 239.781C52.8042 242.166 49.544 245.41 47.1309 249.261L56.6601 254.696V239.781Z" fill="#00B39F"/>
<path d="M86.8822 238.75C82.7629 236.572 78.203 235.369 73.5508 235.236V246.253L86.8822 238.75Z" fill="#00D3A9"/>
<path d="M42.623 265.881C42.7791 270.456 44.014 274.93 46.2253 278.932L55.861 273.421L42.623 265.881Z" fill="#00D3A9"/>
<path d="M46.2253 250.758C44.0309 254.754 42.798 259.211 42.623 263.772L55.861 256.269L46.1876 250.758H46.2253Z" fill="#00D3A9"/>
<path d="M58.5625 290.987C62.6431 293.131 67.1581 294.307 71.7617 294.425V283.516L58.5625 290.949V290.987Z" fill="#00B39F"/>
<path d="M98.2081 249.285C95.8079 245.471 92.5854 242.248 88.7793 239.855V254.684L98.2081 249.285Z" fill="#00D3A9"/>
<path d="M88.752 289.876C92.5949 287.487 95.8422 284.245 98.2424 280.396L88.752 274.998V289.895V289.876Z" fill="#00D3A9"/>
<path d="M102.699 263.666C102.52 259.156 101.3 254.75 99.1343 250.797L89.5742 256.233L102.699 263.666Z" fill="#00B39F"/>
<path d="M73.5508 294.458C78.1543 294.347 82.6714 293.171 86.7499 291.02L73.5508 283.48V294.458Z" fill="#00D3A9"/>
<path d="M56.6607 271.835V257.859L44.3594 264.812L56.6607 271.835Z" fill="#00B39F"/>
</svg>
