<svg width="292" height="352" viewBox="0 0 292 352" fill="none" xmlns="http://www.w3.org/2000/svg">
<path d="M87.522 232.34L85.4531 235.644L89.4022 235.822L87.522 232.34Z" fill="#00D3A9"/>
<path d="M85.0226 236.357L82.9355 239.685L86.9084 239.881L85.0226 236.357Z" fill="#00D3A9"/>
<path d="M85.0435 235.382L87.0831 232.114L83.1934 231.93L85.0435 235.382Z" fill="#00B39F"/>
<path d="M76.7559 235.758C76.7614 237.014 77.0507 238.253 77.6013 239.382L79.8057 235.906L76.7559 235.758Z" fill="#00B39F"/>
<path d="M82.5279 239.406L84.585 236.114L80.6777 235.936L82.5279 239.406Z" fill="#00B39F"/>
<path d="M78.1465 239.474L82.0956 239.67L80.2154 236.164L78.1465 239.474Z" fill="#00D3A9"/>
<path d="M84.8154 243.678L86.8849 240.374L82.9414 240.172L84.8154 243.678Z" fill="#00B39F"/>
<path d="M89.1767 243.078C90.2478 242.481 91.1666 241.643 91.8604 240.63L87.7227 240.422L89.1767 243.078Z" fill="#00B39F"/>
<path d="M87.752 239.929L91.7186 240.131L89.8153 236.625L87.752 239.929Z" fill="#00D3A9"/>
<path d="M89.8559 235.638L91.9136 232.359L87.9883 232.162L89.8559 235.638Z" fill="#00B39F"/>
<path d="M87.3388 239.647L89.4077 236.343L85.4648 236.158L87.3388 239.647Z" fill="#00B39F"/>
<path d="M82.7648 232.109L80.6777 235.449L84.6618 235.627L82.7648 232.109Z" fill="#00D3A9"/>
<path d="M89.1515 228.824C88.058 228.166 86.8276 227.772 85.5566 227.672L87.555 231.374L89.1515 228.824Z" fill="#00B39F"/>
<path d="M85.239 228.111L83.1582 231.434L87.1304 231.629L85.239 228.111Z" fill="#00D3A9"/>
<path d="M84.9461 227.647C83.6947 227.636 82.4572 227.913 81.3281 228.455L82.7647 231.153L84.9398 227.676L84.9461 227.647Z" fill="#00B39F"/>
<path d="M92.1721 231.877C91.5251 230.759 90.6336 229.804 89.5652 229.084L87.9512 231.663L92.1721 231.877Z" fill="#00D3A9"/>
<path d="M77.8317 231.68C77.2036 232.768 76.8388 233.99 76.7676 235.245L79.83 235.382L77.8317 231.68Z" fill="#00D3A9"/>
<path d="M80.8952 228.674C79.7948 229.283 78.8529 230.144 78.1465 231.188L82.3437 231.39L80.8833 228.668L80.8952 228.674Z" fill="#00D3A9"/>
<path d="M77.8926 239.916C78.534 241.022 79.4199 241.966 80.4813 242.674L82.0779 240.125L77.8982 239.904L77.8926 239.916Z" fill="#00B39F"/>
<path d="M93.2867 236.025C93.2804 234.775 92.9954 233.542 92.4532 232.418L90.2773 235.906L93.2867 236.025Z" fill="#00D3A9"/>
<path d="M85.1274 244.125C86.3795 244.134 87.6169 243.856 88.7453 243.311L87.3088 240.637L85.1211 244.137L85.1274 244.125Z" fill="#00D3A9"/>
<path d="M92.2221 240.065C92.8481 238.977 93.2086 237.756 93.2743 236.5L90.2363 236.357L92.2221 240.065Z" fill="#00B39F"/>
<path d="M80.8945 242.948C81.9873 243.607 83.2177 244.002 84.4887 244.101L82.5022 240.381L80.8945 242.948Z" fill="#00D3A9"/>
<path d="M80.2525 235.154L82.2984 231.88L78.4023 231.689L80.2525 235.154Z" fill="#00B39F"/>
<path d="M138.924 266.212L138.687 266.58L137.665 268.22L136.411 270.223L134.555 273.194L142.47 278.209L143.517 276.539L137.245 272.576L138.061 271.28L138.273 270.942L143.062 273.996L144.108 272.327L139.278 269.272L140.301 267.638L146.609 271.601L147.649 269.932L139.722 264.922L138.924 266.212Z" fill="#3C494E"/>
<path d="M108.298 246.877L108.068 247.251L107.045 248.885L105.815 250.894L103.965 253.865L111.922 258.898L112.968 257.229L106.696 253.265L107.512 251.97L107.725 251.631L112.549 254.679L113.595 253.015L108.765 249.961L109.788 248.327L116.06 252.291L117.1 250.621L109.144 245.588L108.298 246.877Z" fill="#3C494E"/>
<path d="M124.25 263.68C124.079 263.981 123.84 264.238 123.553 264.429C123.28 264.611 122.975 264.74 122.654 264.809C122.332 264.867 122.004 264.877 121.679 264.839C121.338 264.788 121.01 264.669 120.715 264.488L112.883 259.533L113.964 257.804L121.78 262.73C121.835 262.769 121.9 262.796 121.967 262.808C122.034 262.82 122.103 262.818 122.169 262.801C122.236 262.789 122.299 262.763 122.355 262.724C122.41 262.685 122.456 262.634 122.489 262.575L122.914 261.892C122.951 261.834 122.975 261.77 122.986 261.703C122.997 261.636 122.995 261.567 122.979 261.501C122.962 261.436 122.933 261.373 122.893 261.319C122.853 261.265 122.802 261.219 122.743 261.184L117.104 257.619C116.808 257.438 116.559 257.189 116.376 256.894C116.186 256.624 116.049 256.32 115.975 255.997C115.908 255.677 115.892 255.347 115.927 255.022C115.961 254.681 116.077 254.353 116.264 254.065L116.689 253.388C116.863 253.095 117.107 252.85 117.399 252.675C117.675 252.502 117.976 252.374 118.292 252.295C118.615 252.231 118.946 252.221 119.273 252.265C119.617 252.305 119.947 252.425 120.237 252.616L128.069 257.566L126.97 259.348L119.131 254.393C119.075 254.353 119.011 254.326 118.944 254.313C118.877 254.3 118.808 254.301 118.741 254.315C118.674 254.328 118.611 254.355 118.556 254.395C118.5 254.435 118.454 254.487 118.422 254.547L117.996 255.224C117.958 255.281 117.932 255.345 117.921 255.414C117.909 255.481 117.913 255.55 117.931 255.616C117.946 255.684 117.974 255.747 118.015 255.802C118.056 255.858 118.108 255.904 118.168 255.937L123.807 259.503C124.102 259.684 124.353 259.93 124.54 260.222C124.718 260.501 124.852 260.806 124.936 261.125C125.003 261.445 125.019 261.774 124.984 262.099C124.943 262.438 124.828 262.763 124.646 263.051L124.25 263.68Z" fill="#3C494E"/>
<path d="M133.46 272.523L131.858 271.512L133.886 268.268L127.649 264.328L125.621 267.567L124.025 266.557L127.153 261.554L134.991 266.509L137.037 263.235L138.639 264.245L133.46 272.523ZM129.234 261.797L127.638 260.781L129.186 258.314L130.783 259.325L129.234 261.797Z" fill="#3C494E"/>
<path d="M159.612 281.572L159.333 277.341L157.251 276.016L157.495 283.105L155.42 286.409L157.111 287.484L159.186 284.181L165.642 281.328L163.581 280.021L159.612 281.572Z" fill="#3C494E"/>
<path d="M149.498 273.345L153.79 276.06L153.424 276.654L153.057 277.249L152.691 277.843L149.244 275.662L148.257 277.237L149.043 277.73L149.953 283.048L152.022 284.362L151.106 279.013L152.176 279.691L152.3 279.768C152.644 279.99 153.06 280.065 153.459 279.979C153.858 279.891 154.207 279.649 154.428 279.305L154.966 278.438L155.333 277.843L155.879 276.975C156.089 276.626 156.151 276.207 156.061 275.808C155.963 275.41 155.718 275.065 155.374 274.848L155.244 274.771L150.45 271.734H150.421L148.854 270.742L143.693 278.99L145.354 280.041L149.498 273.345Z" fill="#3C494E"/>
<path d="M106.804 246.051C106.88 245.53 106.801 244.997 106.578 244.52C106.356 244.043 105.999 243.641 105.552 243.366L97.3403 238.178L96.2405 239.961L92.1621 246.497L93.9354 247.632L98.032 241.096C100.48 242.64 104.57 245.184 104.629 245.309C105.368 245.517 100.911 251.661 100.905 251.958L102.678 253.087C102.957 252.415 106.917 246.645 106.804 246.051Z" fill="#3C494E"/>
<path d="M101.824 244.719L100.051 243.59L96.5508 249.182L98.3241 250.311L101.824 244.719Z" fill="#3C494E"/>
<path d="M171.92 311.065L165.415 307.678C165.415 307.678 163.053 309.46 163.41 310.132C163.41 310.132 163.151 318.933 182.799 320.121C182.799 320.121 184.734 319.437 179.655 314.517L171.934 311.065" fill="#3C494E"/>
<path d="M33.466 229.249C33.466 229.249 31.7576 231.18 33.3709 234.003C33.3709 234.003 37.1663 244.045 47.6771 246.939C47.6771 246.939 53.3521 243.641 52.879 240.831C52.879 240.831 41.2923 238.816 35.3637 227.895C35.3637 227.9 33.3178 228.548 33.466 229.249Z" fill="#3C494E"/>
<path d="M161.658 312.234C161.658 312.234 159.003 313.227 158.367 317.327C158.367 317.327 158.793 327.096 177.798 327.601C177.798 327.601 182.424 325.063 181.299 322.063C174.095 320.475 167.388 317.163 161.735 312.407" fill="#3C494E"/>
<path d="M43.2049 227.143L36.702 224.207C36.702 224.207 35.1648 227.012 38.9428 230.149C39.791 232.259 41.106 234.146 42.7878 235.669C44.4696 237.192 46.4742 238.31 48.6493 238.938C48.6493 238.938 51.7467 240.127 54.1587 238.659C54.1587 238.659 55.3409 236.816 52.7752 234.386C52.7871 234.374 45.1676 226.715 43.2049 227.143Z" fill="#3C494E"/>
<path d="M179.835 283.529C179.835 283.529 176.048 284.861 176.879 289.525C176.879 289.525 178.654 297.844 193.173 300.726C193.173 300.726 196.513 299.817 199.126 295.254C199.231 295.103 199.273 294.919 199.252 294.738C199.224 294.557 199.126 294.393 198.986 294.279C198.986 294.279 188.401 295.254 179.835 283.529Z" fill="#3C494E"/>
<path d="M181.683 279.374C181.683 279.374 179.468 283.099 185.491 288.329C185.491 288.329 192.373 296.054 198.683 293.219C198.683 293.219 202.575 290.118 195.217 284.116C195.217 284.116 183.898 277.532 181.683 279.374Z" fill="#3C494E"/>
<path d="M50.5241 197.926C49.6807 198.721 49.1623 199.803 49.0694 200.962C49.0694 200.962 46.2319 211.29 65.9587 215.705C65.9587 215.705 67.957 216.893 71.2794 211.414L50.5241 197.926Z" fill="#3C494E"/>
<path d="M29.8021 234.718C23.4948 229.531 17.4768 224.141 14.1726 216.386C11.4413 209.969 9.35424 203.444 10.0816 196.332C11.9611 177.828 28.005 164.647 45.0481 165.854C48.4299 166.098 51.0305 167.749 53.4725 169.877C54.3766 170.673 55.0034 171.321 56.4868 170.21C58.2608 168.89 60.5421 169.556 62.3986 170.643C63.9714 171.576 64.4144 171.345 64.4319 169.532C64.5506 157.457 65.6148 145.436 66.2471 133.391C66.5483 127.598 67.0394 121.81 67.4293 116.022C67.4293 115.832 67.4706 115.636 67.5006 115.428C67.713 114.24 67.6893 112.499 69.0965 112.457C70.2193 112.397 70.19 114.145 70.5212 115.136C76.9172 134.247 83.5263 153.28 90.6497 172.134C90.7322 172.549 90.8992 172.941 91.1403 173.287C91.382 173.633 91.6915 173.924 92.0507 174.143C90.3779 147.867 98.6836 124.317 109.366 101.268C108.373 100.971 107.752 101.547 107.114 101.862C96.266 106.931 85.6483 112.487 74.9077 117.781C74.3578 118.055 73.6011 119.177 72.9799 118.12C72.3595 117.062 73.4236 116.509 74.216 116.112C83.4613 111.429 92.5419 106.432 102 102.23C108.461 99.3599 113.356 95.5097 116.282 88.9139C118.055 84.9145 118.458 85.0454 115.325 81.9436C109.206 75.8941 104.317 69.0963 102.568 60.4681C101.013 52.8325 101.84 45.3096 103.939 37.8878C107.698 24.5772 115.047 13.905 126.68 6.34639C129.515 4.50402 132.687 3.24759 136.009 2.65032C141.814 1.54511 147.613 0.107046 153.501 0.00010889C166.255 -0.201939 178.65 1.4916 190.046 8.01022C196.74 11.8311 203.678 15.2122 210.281 19.1935C210.581 19.3777 211.07 19.4252 211.029 20.168C208.66 19.6705 206.375 18.8466 204.237 17.7199C196.922 14.101 189.655 10.393 182.36 6.78019C180.055 5.56896 177.616 4.62975 175.094 3.98137C175.296 4.92621 175.967 5.00344 176.428 5.28278C179.314 7.03603 182.053 9.01082 184.638 11.1893C185.057 11.6006 185.511 11.9707 186.001 12.2946C195.203 17.4465 202.944 24.7198 211.909 30.2164C213.09 30.9294 214.236 31.6246 215.389 32.3556C215.829 32.6289 216.36 32.9498 216.157 33.544C215.913 34.2571 215.235 34.1383 214.662 34.0134C213.46 33.7271 212.314 33.2367 211.28 32.5636C205.676 29.2923 200.394 25.4855 195.517 21.1961C195.279 20.9715 195.035 20.7612 194.776 20.5662C194.385 20.3047 194.057 19.5441 193.533 20.0552C193.016 20.5662 193.714 20.9821 193.98 21.3565C201.281 31.8921 203.93 43.6277 202.476 56.2434C201.191 67.4503 195.741 76.5953 187.768 84.3858C171.9 99.9069 146.827 102.617 126.994 90.833C124.931 89.6088 122.921 88.2958 120.94 86.9406C120.142 86.3943 119.758 86.5133 119.309 87.3214C117.867 89.9417 116.418 92.5564 114.905 95.1351C114.318 96.0757 113.997 97.1591 113.978 98.2687C113.958 99.3789 114.24 100.473 114.792 101.434C118.34 108.523 121.295 115.891 124.251 123.254C131.576 141.586 137.091 160.482 142.234 179.521C143.694 184.923 143.647 190.151 143.192 195.565C142.471 204.205 141.666 212.833 140.685 221.449C140.497 222.936 140.66 224.446 141.158 225.858C141.914 227.962 141.873 230.22 141.803 232.436C141.753 232.815 141.812 233.199 141.974 233.545C142.135 233.89 142.392 234.182 142.712 234.386C154.241 242.479 166.157 249.96 178.385 256.936C178.853 257.204 179.356 257.834 179.929 257.418C180.355 257.109 180.159 256.443 180.117 255.932C178.14 231.182 179.146 206.392 179.076 181.612C179.076 177.619 179.076 177.697 175.254 178.439C165.577 180.323 155.746 181.357 146.023 182.783C144.841 182.949 144.38 182.355 144.25 181.505C144.09 180.448 145.107 180.763 145.645 180.68C154.991 179.23 164.347 177.821 173.696 176.377C175.359 176.122 177.015 175.783 178.664 175.426C180.306 175.07 180.704 175.635 180.753 177.21C181.082 188.096 181.019 198.988 181.026 209.891C181.026 224.046 181.124 238.194 182.269 252.319C182.381 253.615 182.619 254.916 182.605 256.211C182.57 258.701 183.534 260.371 185.91 261.321C186.406 261.579 186.965 261.701 187.531 261.675C188.09 261.649 188.635 261.476 189.11 261.173C193.554 258.931 198.605 258.224 203.489 259.164C206.319 259.675 207.151 263.324 205.222 265.582C203.888 267.133 202.043 267.959 200.394 269.106C200.562 269.861 201.163 270.033 201.624 270.324C209.135 275.143 215.982 280.83 222.529 286.867C229.083 292.905 229.719 298.312 224.15 305.508C217.806 313.767 209.163 319.947 199.325 323.264C194.679 324.874 190.032 326.051 184.994 325.83C185.197 324.469 186.098 324.048 187.265 323.906C199.793 322.248 210.386 316.775 219.224 307.695C221.887 304.917 223.85 301.535 224.94 297.836C225.219 296.891 225.268 295.891 225.08 294.923C224.898 293.955 224.479 293.046 223.864 292.275C221.677 289.275 219.141 286.545 216.318 284.14C207.849 276.908 198.515 270.966 188.775 265.57C176.868 258.981 165.088 252.159 153.602 244.838C149.712 242.354 146.224 239.318 142.37 236.792C141.371 236.139 140.739 235.889 139.704 237.066C136.748 240.399 131.25 240.809 128.401 237.541C126.716 235.604 125.474 232.68 126.627 229.929C127.508 227.861 126.769 227.089 125.214 226.138C118.12 221.806 110.962 217.616 104.081 212.988C87.7117 201.965 71.396 190.847 57.0786 177.091C54.501 174.619 51.7166 172.337 49.0385 169.989C48.2168 169.245 47.2099 168.737 46.1241 168.522C42.5125 167.827 38.8295 167.649 35.3297 168.747C23.0574 172.622 15.5141 180.834 12.7891 193.657C11.0158 201.976 13.5396 209.363 16.8801 216.648C19.0629 221.474 22.3336 225.724 26.433 229.061C28.2182 230.517 29.6254 232.234 29.8021 234.718ZM104.524 48.7261C104.164 55.4056 105.187 61.7219 108.39 67.4327C116.075 81.141 127.396 90.5 142.754 94.0003C160.267 97.9878 175.855 94.5945 188.39 80.5947C198.927 68.8351 201.931 55.186 198.661 40.0804C194.651 21.5883 177.106 0.534937 148.234 1.86599C147.962 1.86599 147.548 1.74715 147.554 2.2225C147.761 2.6028 148.146 2.50776 148.423 2.59688C149.014 2.77514 149.99 2.66221 149.883 3.45252C149.777 4.24284 148.79 4.14181 148.11 4.124C147.912 4.10879 147.714 4.08106 147.519 4.04086C137.983 2.46017 129.666 5.22928 122.519 11.5161C113.279 19.6689 107.74 29.9846 105.5 42.1247C105.168 43.9072 104.477 45.4525 106.274 47.3659C108.325 49.5526 110.312 51.7272 112.777 53.4626C120.686 59.0953 129.637 61.1876 139.178 61.3122C144.09 61.3657 149.032 61.8289 153.838 60.2308C154.329 60.0703 155.103 59.7317 155.446 60.3315C155.788 60.932 155.145 61.3952 154.683 61.7163C153.435 62.5519 152.025 63.113 150.546 63.3622C145.326 64.3366 140.064 64.0571 134.833 63.653C122.856 62.7202 112.262 58.8285 104.524 48.7261ZM69.5339 121.156L69.1139 121.269C69.0727 121.572 69.0196 121.863 69.0022 122.184C68.1504 137.545 67.0157 152.893 66.637 168.278C66.5664 171.166 66.3715 173.989 68.6528 176.276C69.2858 176.918 69.4333 177.911 69.5514 178.82C69.6114 179.307 69.559 179.801 69.3969 180.264C69.2348 180.727 68.9679 181.146 68.6179 181.488C68.3873 181.731 68.1448 181.975 67.7962 181.898C67.2637 181.779 67.4056 181.303 67.3881 180.953C67.1275 176.794 61.9137 171.844 57.8527 171.939C57.5509 171.939 57.1198 171.998 56.9836 172.194C56.688 172.616 57.1666 172.883 57.3916 173.163C57.6159 173.442 58.0421 173.799 58.367 174.12C65.6714 181.144 73.3838 187.728 81.463 193.836C96.041 205.055 111.393 215.103 127.142 224.557C128.052 225.103 128.85 225.638 129.902 224.706C131.753 223.065 134.041 222.549 136.405 222.68C138.025 222.768 138.474 222.121 138.658 220.588C139.538 213.148 140.307 205.691 140.827 198.215C141.2 192.76 141.838 187.484 140.36 181.833C134.54 159.354 127.305 137.27 118.7 115.713C116.708 110.751 114.314 105.986 111.813 100.857C109.177 106.206 106.96 111.322 104.932 116.521C98.2636 133.629 93.5522 151.129 94.2914 169.746C94.5101 175.676 95.5589 181.545 97.407 187.18C97.7256 188.149 97.9625 189.076 99.5053 188.791C109.189 187.008 118.889 185.291 128.59 183.597C131.593 183.075 134.608 182.652 137.623 182.219C138.161 182.141 138.841 181.993 139.012 182.849C139.184 183.704 138.581 184.001 137.93 184.162C137.179 184.358 136.411 184.489 135.648 184.626C123.4 186.812 111.155 188.991 98.9141 191.161C96.201 191.655 96.1535 191.643 95.0363 189.147C87.4105 172.176 81.345 154.599 75.1502 137.075C73.2699 131.783 71.398 126.477 69.5339 121.156ZM139.733 230.559C139.999 228.669 139.142 226.821 137.197 225.591C135.666 224.635 132.125 225.324 130.86 226.673C129.087 228.58 127.999 232.882 128.916 234.398C130.541 237.131 135.282 238.194 137.782 236.388C139.633 235.069 139.721 233.061 139.733 230.559ZM188.802 262.712C189.11 263.025 189.445 263.312 189.802 263.568C191.569 264.537 193.386 265.35 195.056 266.462C198.494 268.714 200.45 267.145 203.28 264.786C204.649 263.645 204.258 261.946 202.644 261.15C202.008 260.837 201.309 260.653 200.604 260.608C196.614 260.401 192.82 261.298 188.802 262.724V262.712ZM192.988 19.1519C192.89 19.1793 192.806 19.2192 192.722 19.2708C192.764 19.3183 192.82 19.4015 192.848 19.3955M174.674 3.89823L174.43 4.02896C174.472 4.07057 174.521 4.14779 174.556 4.14181C174.646 4.11435 174.73 4.07648 174.814 4.02896L174.674 3.89823Z" fill="#15272F"/>
<path d="M49.4551 248.912C51.2291 247.504 52.4763 248.527 53.771 249.37C121.044 293.158 146.724 309.862 98.5803 278.535C116.563 290.235 135.043 301.115 153.138 312.643C153.794 313.059 154.432 313.499 155.077 313.939C155.626 314.307 156.262 314.646 155.549 315.424C155.065 315.965 154.728 316.149 153.953 315.661C136.502 304.835 118.821 294.389 101.554 283.27C85.4801 272.919 69.4956 262.425 53.4874 251.949C52.1039 251.069 50.8385 249.97 49.4551 248.912Z" fill="#15272F"/>
<path d="M40.0868 231.919C41.8189 234.889 44.5383 236.672 47.5057 238.134C48.9905 238.964 50.6919 239.319 52.3828 239.15C54.2924 238.877 54.8423 237.605 53.7956 235.971C53.6901 235.807 53.5755 235.648 53.4525 235.496C52.5232 234.235 51.4025 233.131 50.1301 232.221C48.0375 230.855 48.1262 234.105 46.436 233.915C46.0455 233.255 46.5423 232.649 46.8909 232.133C49.8465 227.622 52.8027 223.076 56.1482 218.845C56.4738 218.435 56.8343 217.58 57.4611 217.995C58.0871 218.412 57.4611 219.066 57.1592 219.494C55.3859 222.286 53.6125 225.085 51.6855 227.812C50.81 229.048 50.3789 229.916 52.0397 230.813C52.8027 231.307 53.491 231.907 54.0856 232.596C57.4373 235.924 56.7868 238.134 54.0856 240.612C55.8177 241.206 54.2742 242.103 53.4232 243.078C52.649 243.951 51.9098 244.861 51.1055 245.711C48.2213 248.735 47.1571 249.121 43.4211 247.261C37.5093 244.331 33.0815 239.965 31.0657 233.422C30.8267 232.745 30.7624 232.018 30.8784 231.31C30.9937 230.601 31.2865 229.934 31.7281 229.369C32.7922 227.866 34.0925 226.565 34.2518 224.455C34.3406 223.148 35.6472 222.536 37.0362 222.518C38.9284 222.518 40.5836 223.278 42.1794 224.11C43.3617 224.705 44.1184 224.568 44.8926 223.403C46.4919 220.954 48.2827 218.638 50.2489 216.475C50.636 216.005 51.1265 215.632 51.6813 215.385C52.236 215.137 52.8405 215.022 53.447 215.049C53.6712 215.821 53.1926 216.338 52.8558 216.831C50.3908 220.729 47.4939 224.342 45.2419 228.389C44.8604 228.995 44.4035 229.55 43.8822 230.041C43.551 230.385 43.208 231.081 42.6525 230.635C42.1913 230.29 42.4219 229.625 42.735 229.203C43.7753 227.794 42.948 227.135 41.7595 226.606C40.3998 226.012 39.0402 225.388 37.6693 224.824C37.3968 224.705 36.9594 224.592 36.7819 224.729C36.4039 225.007 36.6344 225.423 36.8175 225.774C37.9096 227.83 39.0066 229.884 40.1106 231.936C38.3659 231.41 36.8385 230.327 35.7597 228.853C34.9198 227.818 34.4705 228.02 33.7494 228.995C33.3093 229.508 33.0123 230.129 32.888 230.794C32.7629 231.46 32.816 232.147 33.0403 232.786C34.4056 237.171 37.5267 240.184 40.7604 243.114C42.2297 244.498 44.0017 245.515 45.933 246.085C47.5882 246.542 48.8892 246.626 49.8171 244.807C50.3726 243.744 51.4074 242.935 52.1816 241.996C52.4184 241.723 52.9145 241.533 52.7727 241.105C52.5896 240.457 52.0104 240.802 51.5904 240.802C46.9202 240.802 43.3142 238.478 40.0987 235.454C39.4719 234.86 35.3341 229.94 36.2383 229.131C36.8476 228.704 38.8158 231.574 40.0868 231.919Z" fill="#15272F"/>
<path d="M64.8981 121.158C65.3243 122.608 64.6088 123.35 63.7159 123.909C46.7029 134.225 33.3365 148.813 18.989 162.225C18.6872 162.46 18.4566 162.776 18.3232 163.136C18.189 163.496 18.1582 163.886 18.233 164.263C18.4363 165.555 18.363 166.877 18.0171 168.138C17.6713 169.4 17.062 170.573 16.2284 171.578C13.5873 175.13 10.5639 178.378 7.21358 181.264C6.2752 182.067 5.22295 182.726 4.09243 183.219C1.46177 184.324 -0.341607 182.969 0.0545643 180.111C0.40462 177.716 1.38632 175.458 2.89834 173.575C5.81268 169.914 8.90449 166.444 13.2372 164.287C15.4899 163.169 17.3757 161.411 19.149 159.634C30.6136 148.288 42.5686 137.493 55.0141 127.249C58.057 124.832 61.3752 122.787 64.8981 121.158ZM16.329 165.196C10.376 167.228 5.0972 172.119 2.73274 177.675C2.49658 178.208 2.32607 178.769 2.22406 179.345C2.12973 179.658 2.13602 179.994 2.24223 180.305C2.34843 180.615 2.54897 180.884 2.81518 181.074C3.08139 181.196 3.37694 181.24 3.66691 181.2C3.95688 181.159 4.22937 181.038 4.45296 180.848C4.90643 180.597 5.34105 180.313 5.75329 179.998C9.2811 177.014 12.4071 173.58 15.0525 169.783C15.972 168.439 16.4213 166.825 16.329 165.196Z" fill="#15272F"/>
<path d="M186.767 300.867C186.348 299.946 185.355 299.916 184.622 299.512C181.869 297.997 179.304 296.25 177.362 293.736C174.309 289.796 174.372 287.021 177.677 283.313C178.445 282.535 179.018 281.586 179.346 280.545C179.654 279.644 180.22 278.858 180.981 278.29C181.736 277.724 182.651 277.403 183.595 277.372C184.831 277.326 186.068 277.528 187.221 277.966C191.56 279.55 195.487 282.105 198.701 285.435C199.281 286.046 199.798 286.718 200.238 287.437C202.425 291.003 200.769 294.646 196.626 294.948C192.273 295.269 188.779 293.166 185.761 290.195C185.453 289.898 185.083 289.399 185.432 289.006C185.907 288.448 186.417 288.971 186.774 289.268C188.989 291.116 191.364 292.684 194.215 293.29C195.843 293.635 197.765 294.277 198.882 292.596C200 290.914 198.882 289.173 197.751 287.841C194.208 283.717 189.443 280.839 184.154 279.629C183.266 279.41 182.281 279.296 181.624 280.111C180.967 280.925 181.582 281.745 181.946 282.488C182.903 284.401 184.503 287.289 186.005 288.947C185.949 292.156 182.463 286.707 181.17 285.696C180.471 285.156 180.101 283.717 179.332 284.015C178.808 284.281 178.347 284.661 177.984 285.127C177.628 285.594 177.369 286.136 177.243 286.712C176.789 288.626 176.782 290.641 178.354 292.192C182.05 295.874 186.571 298.616 191.532 300.19C192.168 300.45 192.86 300.503 193.523 300.341C194.187 300.178 194.781 299.809 195.221 299.286C196.423 297.832 197.737 296.482 199.162 295.252C199.665 296.743 198.952 297.628 198.372 298.568C198.303 298.678 198.226 298.785 198.149 298.888C195.081 303.119 194.096 303.398 189.24 301.562C188.437 301.259 187.696 300.677 186.76 300.825L186.767 300.867Z" fill="#15272F"/>
<path d="M248.877 165.046C246.655 164.26 244.58 163.092 242.756 161.594C225.016 147.861 207.988 133.326 190.646 119.148C190.101 118.702 189.137 118.238 189.843 117.282C190.541 116.326 191.324 116.991 191.883 117.431C195.824 120.514 199.743 123.616 203.614 126.784C216.89 137.638 230.138 148.515 243.371 159.413C245.418 161.082 247.501 162.74 248.877 165.046Z" fill="#15272F"/>
<path d="M220.086 74.3145L220.911 74.9086C237.463 87.2174 254.016 99.5275 270.568 111.84C274.886 115.054 279.135 118.376 283.411 121.639C284.019 122.124 284.599 122.644 285.151 123.195C285.528 123.563 285.933 124.015 285.423 124.527C284.906 125.038 284.634 124.42 284.298 124.188C263.826 109.992 244.241 94.5777 224.132 79.8824C222.616 78.7771 221.023 77.7373 219.828 76.2519C219.639 76.0716 219.506 75.8379 219.45 75.5809C219.394 75.3247 219.416 75.0572 219.513 74.8136C219.611 74.6291 219.87 74.5045 220.086 74.3145Z" fill="#15272F"/>
<path d="M160.427 313.033L159.114 315.939C158.352 317.566 158.582 319.017 160.022 320.098C164.717 323.812 170.237 326.325 176.106 327.419C178.293 327.805 181.067 325.25 181.291 322.927C181.368 322.184 180.816 322.207 180.473 322.106C178.922 321.655 177.35 321.269 175.785 320.87C170.88 319.572 166.38 317.071 162.677 313.592C160.497 311.618 161.112 308.611 163.809 307.441C164.214 307.269 164.668 306.924 165.046 307.376C165.423 307.827 164.892 308.16 164.612 308.457C163.152 310.043 163.061 310.834 164.57 312.177C169.336 316.408 174.716 319.343 181.165 319.901C181.759 319.955 182.562 320.3 182.94 319.528C183.24 318.856 182.73 318.274 182.353 317.775C181.668 316.907 180.934 316.081 180.201 315.261C179.663 314.667 179.369 314.155 180.082 313.478C180.788 312.801 181.375 313.276 181.85 313.775C182.639 314.551 183.359 315.387 184.016 316.277C185.036 317.745 185.231 319.278 183.932 320.734C183.429 321.293 182.933 321.839 183.736 322.695C184.323 322.855 184.204 321.578 185.001 321.69C185.057 321.856 185.176 322.047 185.148 322.207C184.288 326.29 179.125 329.831 175.016 329.13C169.832 328.245 165.206 326.034 160.804 323.188C158.694 321.833 158.072 319.623 157.101 317.638C156.507 316.503 158.541 313.751 160.427 313.033Z" fill="#15272F"/>
<path d="M202.663 235.592C203.201 235.913 203.711 236.186 204.172 236.519C221.444 249.092 238.695 261.69 255.206 275.269C255.611 275.601 256.492 275.91 256.003 276.552C255.506 277.193 254.934 276.451 254.465 276.184C247.003 271.917 240.393 266.438 233.581 261.25C223.708 253.746 213.905 246.139 204.088 238.569C203.424 238.043 202.795 237.48 202.202 236.882C201.978 236.668 201.733 236.346 201.992 236.02C202.195 235.843 202.418 235.699 202.663 235.592Z" fill="#15272F"/>
<path d="M170.942 301.269C171.194 302.285 171.194 302.285 173.548 304.133C175.288 301.572 177.259 299.248 180.123 297.816C178.265 301.298 174.946 303.818 173.751 307.704C173.695 307.859 173.555 308.108 173.597 308.144C173.835 308.358 173.996 308.198 174.1 307.96C176.19 305.66 178.244 303.355 180.375 301.084C180.78 300.645 181.318 299.736 181.884 300.193C182.583 300.787 181.716 301.477 181.36 301.976C179.488 304.716 177.119 307.039 175.016 309.588C174.52 310.189 174.065 310.818 173.646 311.472C173.562 311.568 173.493 311.684 173.458 311.811C173.416 311.936 173.409 312.069 173.43 312.199C173.451 312.329 173.5 312.453 173.569 312.562C173.646 312.67 173.744 312.76 173.856 312.826C174.352 313.159 174.862 313.51 175.407 312.969C176.141 312.238 176.881 311.501 177.545 310.711C179.711 308.132 181.856 305.529 184.001 302.932C184.714 301.944 185.699 301.187 186.831 300.758L186.789 300.716C186.964 303.29 186.139 305.832 184.497 307.811C184.148 308.263 183.205 308.542 183.736 309.439H183.764C182.185 309.439 181.961 311.139 180.885 311.775C180.368 312.072 179.662 313.302 179.571 311.495C179.55 311.416 179.515 311.341 179.46 311.28C179.404 311.219 179.334 311.172 179.257 311.145C178.663 311.038 176.825 313.742 177.077 314.36C177.671 315.821 177.238 316.427 175.652 316.255C174.107 316.013 172.661 315.342 171.48 314.318C171.18 314.104 170.984 313.782 170.914 313.422C170.851 313.062 170.928 312.691 171.138 312.387C171.564 311.59 172.06 310.83 172.542 310.063C172.878 309.54 173.723 309.035 172.444 308.583C172.305 308.53 172.193 307.93 172.298 307.692C173.017 306.1 172.214 305.381 170.907 304.632C169.838 303.908 168.846 303.068 167.952 302.124C167.651 301.845 167.162 301.471 167.512 300.977C167.861 300.485 168.336 300.847 168.769 300.806C169.566 300.734 170.027 302.053 170.956 301.298L170.942 301.269ZM183.205 307.27C183.163 307.208 183.1 307.158 183.03 307.125C182.96 307.092 182.883 307.077 182.806 307.081C182.73 307.086 182.66 307.11 182.59 307.151C182.527 307.193 182.478 307.25 182.436 307.318C181.681 307.873 181.053 308.582 180.584 309.398L180.033 309.951C179.76 310.265 179.117 310.657 179.508 310.973C180.005 311.377 180.137 310.657 180.319 310.295L180.913 309.701C181.612 309.079 182.199 308.344 182.66 307.526L183.247 307.265L183.128 307.158C183.254 307.009 183.233 306.961 183.051 307.009L183.205 307.27Z" fill="#15272F"/>
<path d="M54.9783 192.362C57.1834 192.213 59.1636 193.396 61.1025 194.471C64.7498 196.462 68.0443 199.046 70.8503 202.119C71.2772 202.604 71.672 203.116 72.0332 203.652C73.1617 205.269 73.8715 207.015 72.8549 208.929C71.8376 210.842 69.8281 211.377 67.8416 211.151C65.5128 210.93 63.2532 210.238 61.1989 209.114C59.144 207.99 57.3378 206.46 55.8887 204.615C54.4403 202.737 52.8738 200.877 51.4491 198.946C50.5561 197.727 49.6758 196.468 50.5387 194.84C50.9153 194.002 51.5511 193.308 52.3504 192.862C53.1497 192.416 54.0714 192.24 54.9783 192.362ZM67.8654 209.416C69.3488 209.208 70.5017 209.648 71.0578 208.554C71.6133 207.461 70.9509 206.54 70.4129 205.661C70.0433 205.048 69.6136 204.475 69.1301 203.949C65.6623 200.254 61.5043 197.282 56.8935 195.202C56.0704 194.826 55.1921 194.588 54.2921 194.495C52.9918 194.37 52.2589 194.941 52.7969 196.373C53.1826 197.473 53.6431 198.545 54.1741 199.582C55.5205 202.194 57.465 204.448 59.8476 206.158C62.2296 207.867 64.9818 208.984 67.8773 209.416H67.8654Z" fill="#15272F"/>
<path d="M238.125 42.5039C238.348 42.6187 238.565 42.7517 238.767 42.9024C250.31 54.1093 263.754 62.9868 276.009 73.356C277.546 74.6577 279.069 75.965 280.572 77.3195C280.949 77.6581 281.683 78.0798 281.159 78.7099C280.635 79.34 280.117 78.7099 279.691 78.3537C276.072 75.5074 272.432 72.6724 268.847 69.779C260.456 63.0164 251.589 56.8606 243.61 49.5756C241.793 47.9986 240.151 46.2231 238.726 44.2808C238.495 44.0499 238.327 43.7697 238.223 43.4621C238.118 43.1544 238.083 42.827 238.125 42.5039Z" fill="#15272F"/>
<path d="M48.7852 260.621C55.1987 263.337 88.5106 288.817 92.3703 293.963C90.1065 293.214 88.4687 291.865 86.8435 290.552C79.1583 284.354 71.4732 278.175 63.3862 272.548C59.2484 269.665 55.0037 266.885 51.2083 263.515C50.3216 262.731 49.3343 261.994 48.7852 260.621Z" fill="#15272F"/>
<path d="M247.375 303.832C247.844 304.052 248.298 304.304 248.738 304.587C260.35 313.233 272.906 320.411 285.085 328.171C285.364 328.332 285.637 328.515 285.889 328.718C286.182 328.968 286.51 329.282 286.217 329.693C285.986 329.995 285.623 329.853 285.316 329.734C285.022 329.607 284.729 329.465 284.449 329.306C273.088 322.93 261.797 316.465 251.344 308.621C249.856 307.575 248.486 306.368 247.257 305.02C247.075 304.768 246.956 304.474 246.914 304.165C246.907 304.1 247.18 303.969 247.375 303.832Z" fill="#15272F"/>
<path d="M65.1334 217.184C62.5028 217.374 59.9315 216.145 57.449 214.689C54.8623 213.194 52.4594 211.4 50.2899 209.34C48.2622 207.374 47.4343 204.896 47.1862 202.169C47.0947 201.251 47.3155 200.329 47.813 199.554C48.0848 199.132 48.4041 198.532 48.9952 198.728C49.5863 198.924 49.4089 199.608 49.2789 200.088C48.6165 202.531 49.3914 204.652 50.9341 206.429C54.7302 210.926 59.812 214.137 65.4884 215.628C65.9083 215.785 66.3681 215.798 66.7957 215.664C67.2233 215.531 67.595 215.259 67.8528 214.891C68.8282 213.768 69.928 212.746 70.9977 211.706C71.2521 211.462 71.5889 211.112 71.985 211.433C72.2568 211.664 72.1681 212.027 72.0737 212.347C71.3883 214.516 67.6935 217.244 65.1334 217.184Z" fill="#15272F"/>
<path d="M292.03 197.739C291.38 198.209 291.128 197.811 290.849 197.602C282.744 192.094 274.925 186.174 267.414 179.865C266.233 178.867 264.948 177.976 263.732 177.001C263.375 176.715 263.033 176.27 263.32 175.812C263.606 175.355 264.144 175.545 264.535 175.783C265.388 176.249 266.212 176.772 266.995 177.345C274.841 183.549 282.667 189.768 290.486 196.004C291.135 196.451 291.659 197.046 292.03 197.739Z" fill="#15272F"/>
<path d="M234.245 351.992C232.924 352.075 232.219 351.481 231.471 351.053C223.219 346.335 214.981 341.597 206.757 336.839C205.835 336.304 203.956 335.734 204.528 334.676C205.164 333.487 206.583 334.878 207.484 335.347C215.38 339.382 223.023 343.899 230.367 348.872C231.66 349.734 232.799 350.815 234.245 351.992Z" fill="#15272F"/>
<path d="M206.311 326.525C211.195 325.931 215.233 324.302 219.195 322.425C224.414 319.919 228.949 316.169 232.394 311.503C233.295 310.315 234.168 309.084 234.315 307.522C234.357 307.159 234.273 306.66 234.846 306.672C235.419 306.683 235.573 307.111 235.58 307.611C235.531 308.656 235.188 309.666 234.602 310.529C233.099 313.121 231.192 315.452 228.949 317.427C223.038 322.716 216.26 326.073 208.33 326.935C207.98 327.015 207.624 327.02 207.275 326.949C206.932 326.878 206.604 326.733 206.311 326.525Z" fill="#15272F"/>
<path d="M243.744 333.494C252.094 337.178 259.71 342.086 267.074 347.351L266.578 348.159C258.655 343.782 251.025 338.883 243.744 333.494Z" fill="#15272F"/>
<path d="M70.5677 222.168C70.3427 223.356 69.5923 224.188 68.983 225.061C67.5052 227.195 65.9687 229.292 64.4784 231.42C64.1723 231.839 63.918 232.293 63.7217 232.774C62.7582 235.366 62.7526 235.389 60.4887 233.654C59.4127 232.822 58.3954 231.907 57.4088 230.98C56.9944 230.594 56.5039 230.041 56.9826 229.459C57.4619 228.876 57.9405 229.459 58.3604 229.679C59.2904 230.13 60.1841 230.655 61.0323 231.247C62.0077 231.978 62.522 231.711 63.1543 230.772C65.0478 227.892 67.1587 225.163 69.4679 222.607C69.5881 222.433 69.7565 222.299 69.9521 222.22C70.1471 222.142 70.3616 222.124 70.5677 222.168Z" fill="#15272F"/>
<path d="M39.7222 217.089C39.3792 216.75 37.7889 217.636 38.6637 216.15C40.7451 212.626 43.0264 209.245 46.1658 206.554C46.2839 206.447 46.497 206.452 46.7569 206.369C46.7925 207.462 46.1064 208.105 45.5747 208.794C43.6532 211.325 41.7087 213.833 39.7872 216.358C39.6279 216.566 39.2373 216.798 39.6572 217.13L39.7222 217.089Z" fill="#15272F"/>
<path d="M183.729 309.486C184.532 309.634 185.503 309.539 186.097 309.979C187.998 311.423 188.983 310.365 190.08 308.904C190.869 307.864 191.652 306.723 193.175 306.438C191.903 308.848 190.192 310.997 188.13 312.772C187.292 313.503 184.036 310.954 183.763 309.462L183.729 309.486Z" fill="#15272F"/>
<path d="M189.587 283.344C190.537 283.344 194.058 286.137 194.24 286.956C194.506 288.192 193.646 289.06 192.465 288.572C190.844 287.883 189.803 286.403 188.476 285.31C188.308 285.15 188.21 284.934 188.189 284.703C188.175 284.473 188.245 284.244 188.385 284.063C188.518 283.856 188.692 283.684 188.902 283.559C189.112 283.435 189.342 283.361 189.587 283.344Z" fill="#15272F"/>
<path d="M174.093 292.016C171.99 295.007 169.572 297.76 166.882 300.228C166.589 300.496 166.156 300.953 165.702 300.579C165.247 300.204 165.729 299.741 165.967 299.432C167.812 296.92 169.908 294.603 172.22 292.515C172.43 292.233 172.731 292.029 173.073 291.939C173.415 291.849 173.772 291.876 174.093 292.016Z" fill="#15272F"/>
<path d="M58.526 220.596C58.656 223.133 54.5119 229.289 52.0762 230.139C53.9431 226.774 56.1015 223.581 58.526 220.596Z" fill="#15272F"/>
<path d="M39.6836 217.127C41.6463 217.49 43.071 218.768 44.5075 220.022C44.5977 220.088 44.6731 220.172 44.729 220.269C44.7856 220.366 44.8213 220.474 44.8345 220.585C44.8478 220.696 44.8387 220.809 44.8066 220.916C44.7744 221.024 44.7213 221.124 44.6494 221.21C44.5257 221.361 44.358 221.468 44.1701 221.517C43.9821 221.566 43.7837 221.554 43.6027 221.483C42.178 221.145 39.9617 218.643 39.7192 217.068L39.6836 217.127Z" fill="#15272F"/>
<path d="M70.3477 220.024C70.442 219.287 70.3476 218.378 71.4355 218.324C71.9617 218.324 72.5821 218.49 72.4878 219.144C72.4494 219.596 72.2831 220.028 72.0085 220.388C71.7339 220.748 71.3629 221.021 70.9387 221.176C70.2351 221.354 70.4713 220.457 70.3477 220.024Z" fill="#15272F"/>
<path d="M62.4011 228.217C62.3067 229.037 62.1942 229.81 61.2188 229.703C60.6277 229.637 60.0366 229.233 60.1666 228.574C60.2309 228.186 60.409 227.826 60.6773 227.54C60.9457 227.255 61.2929 227.056 61.6744 226.969C62.4192 226.88 62.2592 227.777 62.4011 228.217Z" fill="#15272F"/>
<path d="M170.955 301.316C171.018 301.251 171.053 301.165 171.053 301.075C171.053 300.986 171.018 300.899 170.955 300.835C170.193 299.86 170.759 299.272 171.626 298.897C172.066 298.707 172.737 298.476 172.89 299.236C173.079 300.127 172.618 300.71 171.737 300.977C171.472 301.061 171.081 300.828 170.955 301.286V301.316Z" fill="#15272F"/>
<path d="M44.3656 216.493C44.3076 216.81 44.1336 217.095 43.8772 217.289C43.6215 217.484 43.3014 217.575 42.9821 217.544C42.5566 217.544 41.9536 217.645 41.9711 216.992C41.9767 216.637 42.1129 216.297 42.3533 216.037C42.5929 215.777 42.9199 215.616 43.2714 215.584C43.8395 215.506 44.1231 216.029 44.3656 216.493Z" fill="#15272F"/>
<path d="M187.214 308.909C186.725 308.833 186.403 308.571 186.536 308.018C186.585 307.701 186.753 307.413 186.997 307.207C187.242 307.001 187.556 306.893 187.87 306.901C188.339 306.901 188.52 307.27 188.464 307.697C188.443 308.018 188.304 308.319 188.073 308.543C187.843 308.766 187.535 308.897 187.214 308.909Z" fill="#15272F"/>
<path d="M67.9855 220.642C67.7011 221.152 67.3231 221.599 66.8026 221.563C66.2827 221.527 66.0759 221.04 66.3065 220.553C66.537 220.065 66.7376 219.537 67.4118 219.816C67.7605 219.958 68.0735 220.214 67.9855 220.642Z" fill="#15272F"/>
<path d="M139.734 230.557C139.734 233.047 139.633 235.055 137.759 236.416C135.282 238.199 130.541 237.159 128.892 234.425C127.975 232.88 129.057 228.578 130.836 226.7C132.102 225.351 135.643 224.662 137.174 225.619C139.154 226.831 139.999 228.679 139.734 230.557Z" fill="#00B39F"/>
<path d="M188.795 262.726C192.82 261.301 196.614 260.403 200.624 260.623C201.33 260.668 202.022 260.852 202.657 261.163C204.272 261.96 204.663 263.66 203.3 264.8C200.47 267.177 198.507 268.728 195.069 266.476C193.407 265.383 191.562 264.551 189.815 263.582C189.452 263.327 189.109 263.04 188.795 262.726Z" fill="#00B39F"/>
<path d="M192.849 19.4065C192.821 19.4065 192.765 19.329 192.723 19.2813C192.807 19.2296 192.891 19.1895 192.982 19.1621" fill="#00B39F"/>
<path d="M16.3273 165.195C16.4314 166.832 15.9885 168.457 15.0682 169.812C12.4222 173.602 9.29618 177.03 5.76976 180.009C5.35752 180.324 4.92292 180.608 4.46875 180.859C4.24586 181.049 3.97267 181.17 3.6827 181.211C3.39273 181.251 3.09786 181.207 2.83165 181.085C2.56474 180.895 2.36422 180.626 2.25802 180.316C2.15181 180.005 2.14621 179.67 2.24053 179.356C2.33346 178.777 2.49629 178.212 2.72546 177.674C5.07804 172.1 10.375 167.209 16.3273 165.195Z" fill="#00B39F"/>
<path d="M67.8774 209.416C64.9841 208.982 62.2346 207.864 59.8548 206.155C57.475 204.446 55.5318 202.193 54.1868 199.582C53.6551 198.545 53.1953 197.473 52.8089 196.373C52.2709 194.941 53.0045 194.37 54.3049 194.495C55.2041 194.588 56.0824 194.826 56.9055 195.202C61.5247 197.28 65.6911 200.252 69.1665 203.949C69.65 204.475 70.0798 205.048 70.4494 205.661C70.9874 206.54 71.6316 207.49 71.0936 208.554C70.5556 209.618 69.3615 209.208 67.8774 209.416ZM63.4797 204.953C64.3957 204.846 65.3473 204.49 65.448 203.207C65.5423 202.018 62.9005 199.956 61.357 199.879C60.2579 199.831 59.8792 200.419 59.8673 201.423C59.9134 202.363 60.3117 203.248 60.9825 203.903C61.6525 204.558 62.5448 204.934 63.4797 204.953Z" fill="#3C494E"/>
<path d="M144.833 28.2969C144.467 31.9633 143.408 35.1602 140.293 37.2697C138.862 38.2383 137.337 38.5175 135.735 37.65C134.133 36.7824 134.257 35.3206 134.334 33.9004C134.429 30.7496 135.636 27.7355 137.739 25.3971C139.064 23.9531 140.772 23.3886 142.675 24.2087C144.579 25.0287 144.703 26.6747 144.833 28.2969Z" fill="#15272F"/>
<path d="M118.717 28.7463C118.717 24.2302 121.371 20.5519 125.042 19.6784C127.596 19.0841 129.228 20.3677 129.263 22.9942C129.352 24.7297 128.973 26.4571 128.166 27.9945C127.36 29.5317 126.157 30.822 124.682 31.7293C123.328 32.6146 121.921 33.2386 120.325 32.3947C118.729 31.551 118.759 29.9941 118.717 28.7463Z" fill="#15272F"/>
<path d="M153.53 26.9734C153.53 27.5023 153.53 28.0549 152.938 28.2629C152.347 28.4709 152.064 28.0668 151.857 27.6687C149.929 23.9272 147.701 20.35 145.195 16.9727C145.113 16.892 145.049 16.7957 145.005 16.6896C144.96 16.5835 144.938 16.4697 144.938 16.3547C144.938 16.2397 144.96 16.1258 145.005 16.0197C145.049 15.9136 145.113 15.8174 145.195 15.7367C145.55 15.398 145.922 15.5406 146.229 15.8199C149.457 18.791 152.2 22.1127 153.488 26.4268C153.516 26.6077 153.53 26.7905 153.53 26.9734Z" fill="#15272F"/>
<path d="M131.489 14.2589C131.406 14.7938 130.98 14.8888 130.637 14.9898C127.682 15.8395 124.496 15.6672 121.534 16.6893C120.783 16.9507 120.724 16.1901 121.096 15.7148C121.416 15.3073 121.838 14.9934 122.32 14.8057C124.948 13.904 127.721 13.5011 130.496 13.6172C130.71 13.5868 130.929 13.6349 131.111 13.7527C131.293 13.8705 131.428 14.0501 131.489 14.2589Z" fill="#15272F"/>
<path d="M63.4827 204.952C62.5485 204.932 61.6563 204.557 60.9855 203.902C60.3155 203.247 59.9172 202.361 59.8711 201.422C59.8711 200.418 60.2609 199.83 61.3607 199.878C62.9035 199.955 65.5461 202.028 65.4517 203.206C65.3511 204.489 64.3994 204.845 63.4827 204.952Z" fill="#15272F"/>
</svg>
