<svg width="300" height="336" viewBox="0 0 300 336" fill="none" xmlns="http://www.w3.org/2000/svg">
<g clip-path="url(#clip0_27168_25677)">
<path d="M185.75 6.9082V8.52982V16.1406V25.4379V39.0055H220.442V31.3839H193.068V25.4379V23.7623H214.099V16.1406H193.068V8.52982H220.442V0.908203H185.75V6.9082Z" fill="#3C494E"/>
<path d="M52.3281 6.9082V8.52982V16.1406V25.4379V39.0055H87.0201V31.3839H59.6465V25.4379V23.7623H80.6776V16.1406H59.6465V8.52982H87.0201V0.908203H52.3281V6.9082Z" fill="#3C494E"/>
<path d="M135.031 29.049C135.041 30.3766 134.783 31.6917 134.273 32.9084C133.791 34.1012 133.085 35.1817 132.197 36.0868C131.322 37 130.29 37.7335 129.155 38.249C127.975 38.7768 126.703 39.0455 125.418 39.0382H91.1621V30.9841H125.418C125.663 30.9856 125.905 30.9365 126.131 30.8397C126.357 30.743 126.562 30.6005 126.735 30.4205C126.908 30.2405 127.045 30.0266 127.138 29.7912C127.231 29.5558 127.278 29.3035 127.276 29.049V25.9463C127.279 25.6914 127.233 25.4386 127.14 25.2027C127.047 24.9669 126.91 24.7528 126.736 24.5733C126.564 24.3929 126.359 24.2509 126.132 24.1561C125.905 24.0613 125.662 24.0157 125.418 24.022H100.785C99.5101 24.033 98.2474 23.7641 97.0791 23.2328C94.7394 22.2032 92.8774 20.264 91.8887 17.8274C91.3833 16.6091 91.1253 15.295 91.131 13.9679V10.9084C91.1286 9.57466 91.3864 8.25427 91.8887 7.02736C92.3843 5.84226 93.0884 4.76423 93.9649 3.84898C94.8579 2.92402 95.9158 2.18956 97.0791 1.68682C98.2496 1.1641 99.5113 0.899099 100.785 0.908442H135.041V8.98412H100.785C100.541 8.98269 100.3 9.03142 100.075 9.12748C99.8493 9.22355 99.6443 9.36507 99.4717 9.5439C99.299 9.72273 99.162 9.93535 99.0684 10.1695C98.9749 10.4037 98.9268 10.6548 98.9268 10.9084V14.0544C98.9254 14.3089 98.9725 14.5612 99.0654 14.7966C99.1583 15.0321 99.2951 15.246 99.468 15.4259C99.6408 15.6059 99.8462 15.7484 100.072 15.8451C100.298 15.9419 100.541 15.991 100.785 15.9895H125.418C126.702 15.9822 127.973 16.247 129.155 16.7679C130.289 17.2854 131.321 18.0186 132.197 18.9301C133.076 19.8425 133.781 20.9212 134.273 22.1084C134.781 23.3334 135.039 24.6551 135.031 25.9895V29.049Z" fill="#3C494E"/>
<path d="M181.183 39.0055H174.197V24.0217H146.989V39.0055H140.014V15.946H174.197V0.908203H181.183V39.0055ZM146.989 12.3677H140.014V0.908203H146.989V12.3677Z" fill="#3C494E"/>
<path d="M280.744 14.2379L271.598 0.908203H262.453L277.09 23.7623V39.0055H284.408V23.7623L299.045 0.908203H290.014L280.744 14.2379Z" fill="#3C494E"/>
<path d="M232.89 8.17308H251.648V16.0974H236.533V23.3623H240.001L253.288 39.0055H262.319L249.032 23.3623H254.222C254.969 23.3623 255.709 23.209 256.399 22.9113C257.089 22.6136 257.716 22.1772 258.244 21.6271C258.773 21.0769 259.192 20.4239 259.478 19.7051C259.763 18.9863 259.911 18.2159 259.911 17.4379V6.82173C259.911 6.04424 259.763 5.27439 259.477 4.55622C259.191 3.83806 258.772 3.18568 258.244 2.63641C257.715 2.08715 257.088 1.65179 256.398 1.35525C255.708 1.0587 254.969 0.906792 254.222 0.908213H225.717V39.0055H233.035L232.89 8.17308Z" fill="#3C494E"/>
<path d="M46.7135 39.0056H38.9592V11.2218C38.9633 10.9246 38.9067 10.6298 38.7931 10.357C38.5679 9.82004 38.1564 9.39144 37.6408 9.15698C37.3789 9.03867 37.0958 8.97971 36.8104 8.98401H0.945312V0.908334H36.8C38.1168 0.901305 39.4208 1.17733 40.6304 1.71914C41.8186 2.22889 42.8981 2.97851 43.8067 3.92479C44.7153 4.87107 45.4351 5.9953 45.9246 7.23266C46.4448 8.49245 46.7099 9.8505 46.7031 11.2218L46.7135 39.0056ZM8.7204 39.0056H0.945312V8.98401L8.71002 6.82185L8.7204 39.0056ZM27.6962 39.0056H19.9315V13.211H27.6962V39.0056Z" fill="#3C494E"/>
</g>
<g clip-path="url(#clip1_27168_25677)">
<path d="M136.004 120.936V170.521L179.246 145.643L136.004 120.936Z" fill="#00D3A9"/>
<path d="M136.004 180.893V230.718L179.638 205.92L136.004 180.893Z" fill="#00D3A9"/>
<path d="M129.787 170.18V121.355L87.0781 145.683L129.787 170.18Z" fill="#00B39F"/>
<path d="M44.1289 230.548C52.5115 243.938 63.838 255.265 77.2571 263.678V211.482L44.1289 230.548Z" fill="#00B39F"/>
<path d="M129.786 230.489V181.254L86.9766 205.891L129.786 230.489Z" fill="#00B39F"/>
<path d="M83.4766 260.566L126.829 235.929L83.4766 211.021V260.566Z" fill="#00D3A9"/>
<path d="M182.609 260.836V211.361L139.316 235.959L182.609 260.836Z" fill="#00B39F"/>
<path d="M225.013 224.796C232.419 211.073 236.602 195.862 237.25 180.303L192.137 205.94L225.013 224.796Z" fill="#00B39F"/>
<path d="M188.828 200.698L232.332 175.971L188.828 151.113V200.698Z" fill="#00D3A9"/>
<path d="M182.606 140.421V91.2559L139.516 115.803L182.606 140.421Z" fill="#00B39F"/>
<path d="M182.609 200.479V150.854L139.418 175.711L182.609 200.479Z" fill="#00B39F"/>
<path d="M83.4766 150.764V200.749L126.98 175.721L83.4766 150.764Z" fill="#00D3A9"/>
<path d="M129.816 72C113.797 72.4312 98.0945 76.5395 83.9375 84.0036L129.816 110.242V72Z" fill="#00B39F"/>
<path d="M83.4766 90.916V140.601L127.02 115.794L83.4766 90.916Z" fill="#00D3A9"/>
<path d="M77.2555 87.8945C63.8357 96.3063 52.5064 107.629 44.1172 121.015L77.2555 140.02V87.8945Z" fill="#00B39F"/>
<path d="M182.315 84.2837C168.05 76.6626 152.192 72.4564 136.004 72V110.672L182.315 84.2837Z" fill="#00D3A9"/>
<path d="M28.5 179.432C29.0376 195.444 33.3166 211.111 40.9986 225.196L74.5495 205.89L28.5 179.432Z" fill="#00D3A9"/>
<path d="M40.9862 126.387C33.3474 140.408 29.0765 155.996 28.5078 171.931L74.5975 145.673L40.9862 126.387Z" fill="#00D3A9"/>
<path d="M83.8477 267.489C98.0255 274.995 113.76 279.134 129.817 279.582V241.381L83.8477 267.489Z" fill="#00B39F"/>
<path d="M221.755 121.174C213.424 107.82 202.169 96.5054 188.828 88.0742V140.09L221.755 121.174Z" fill="#00D3A9"/>
<path d="M188.828 263.498C202.252 255.023 213.563 243.626 221.906 230.168L188.828 211.162V263.498Z" fill="#00D3A9"/>
<path d="M237.271 171.661C236.665 155.872 232.423 140.432 224.873 126.527L191.664 145.623L237.271 171.661Z" fill="#00B39F"/>
<path d="M136.004 279.584C152.007 279.149 167.692 275.041 181.832 267.58L136.004 241.252V279.584Z" fill="#00D3A9"/>
<path d="M77.2572 200.298V151.283L34.418 175.691L77.2572 200.298Z" fill="#00B39F"/>
<path d="M173.592 307.221V308.672V315.504V323.836V336H206.167V329.168H180.465V323.836V322.336H200.209V315.504H180.465V308.672H206.167V301.84H173.592V307.221Z" fill="#3C494E"/>
<path d="M48.2637 307.221V308.672V315.504V323.836V336H80.8485V329.168H55.1369V323.836V322.336H74.891V315.504H55.1369V308.672H80.8485V301.84H48.2637V307.221Z" fill="#3C494E"/>
<path d="M125.942 327.078C125.953 328.267 125.713 329.446 125.238 330.539C124.784 331.608 124.12 332.578 123.285 333.389C122.457 334.193 121.488 334.84 120.427 335.3C119.318 335.773 118.123 336.015 116.915 336.01H84.7129V328.808H116.915C117.145 328.811 117.372 328.768 117.585 328.682C117.797 328.596 117.99 328.468 118.152 328.307C118.315 328.146 118.443 327.954 118.529 327.743C118.616 327.532 118.659 327.306 118.656 327.078V324.297C118.658 324.069 118.613 323.843 118.526 323.633C118.439 323.422 118.311 323.231 118.149 323.07C117.987 322.909 117.795 322.782 117.583 322.695C117.371 322.609 117.144 322.565 116.915 322.566H93.7698C92.5728 322.577 91.3867 322.338 90.2879 321.866C88.1142 320.942 86.3811 319.223 85.4475 317.065C84.9734 315.969 84.7335 314.787 84.7431 313.594V310.823C84.7353 309.623 84.9751 308.435 85.4475 307.332C85.9113 306.27 86.5738 305.306 87.3998 304.491C88.227 303.664 89.2079 303.005 90.2879 302.55C91.3867 302.078 92.5728 301.839 93.7698 301.85H125.972V309.072H93.7698C93.5398 309.065 93.3109 309.106 93.0977 309.192C92.8846 309.278 92.6919 309.408 92.532 309.572C92.368 309.732 92.2387 309.924 92.1522 310.136C92.0656 310.347 92.0237 310.574 92.0289 310.803V313.573C92.0237 313.802 92.0656 314.029 92.1522 314.241C92.2387 314.452 92.368 314.644 92.532 314.804C92.6919 314.968 92.8846 315.098 93.0977 315.184C93.3109 315.27 93.5398 315.311 93.7698 315.304H116.915C118.123 315.3 119.318 315.541 120.427 316.014C121.494 316.478 122.463 317.136 123.285 317.955C124.111 318.77 124.774 319.734 125.238 320.796C125.71 321.896 125.95 323.081 125.942 324.277V327.078Z" fill="#3C494E"/>
<path d="M169.294 336H162.743V322.556H137.182V336H130.631V315.314H162.743V301.84H169.294V336ZM137.182 312.073H130.631V301.84H137.182V312.073Z" fill="#3C494E"/>
<path d="M262.823 313.793L254.229 301.84H245.635L259.381 322.336V336H266.254V322.336L280.001 301.84H271.517L262.823 313.793Z" fill="#3C494E"/>
<path d="M217.859 308.352H235.48V315.454H221.291V321.966H224.541L237.01 335.97H245.543L233.075 321.966H237.946C238.646 321.966 239.339 321.829 239.987 321.562C240.634 321.296 241.222 320.905 241.717 320.413C242.212 319.921 242.605 319.336 242.873 318.693C243.141 318.05 243.279 317.361 243.279 316.664V307.141C243.279 306.445 243.141 305.756 242.873 305.113C242.605 304.469 242.212 303.885 241.717 303.393C241.222 302.9 240.634 302.51 239.987 302.243C239.339 301.977 238.646 301.84 237.946 301.84H211.127V336H218L217.859 308.352Z" fill="#3C494E"/>
<path d="M42.9802 336.001H35.6944V311.073C35.6975 310.808 35.6425 310.545 35.5334 310.303C35.4346 310.062 35.2874 309.844 35.1006 309.663C34.916 309.479 34.6973 309.333 34.4566 309.233C34.213 309.124 33.9486 309.069 33.6817 309.072H0V301.83H33.6817C34.9174 301.822 36.141 302.071 37.2743 302.561C38.4 303.029 39.4248 303.709 40.2933 304.561C41.1531 305.423 41.8366 306.442 42.3059 307.562C42.7985 308.688 43.0487 309.905 43.0405 311.133L42.9802 336.001ZM7.2858 336.001H0V309.072L7.2858 307.072V336.001ZM25.1078 336.001H17.822V312.874H25.1581L25.1078 336.001Z" fill="#3C494E"/>
</g>
<defs>
<clipPath id="clip0_27168_25677">
<rect width="300" height="40" fill="white"/>
</clipPath>
<clipPath id="clip1_27168_25677">
<rect width="280" height="264" fill="white" transform="translate(0 72)"/>
</clipPath>
</defs>
</svg>
