<svg width="300" height="384" viewBox="0 0 300 384" fill="none" xmlns="http://www.w3.org/2000/svg">
<g clip-path="url(#clip0_26975_9167)">
<path d="M185.75 6.9082V8.52982V16.1406V25.4379V39.0055H220.442V31.3839H193.068V25.4379V23.7623H214.099V16.1406H193.068V8.52982H220.442V0.908203H185.75V6.9082Z" fill="#D2D8DA"/>
<path d="M52.3281 6.9082V8.52982V16.1406V25.4379V39.0055H87.0201V31.3839H59.6465V25.4379V23.7623H80.6776V16.1406H59.6465V8.52982H87.0201V0.908203H52.3281V6.9082Z" fill="#D2D8DA"/>
<path d="M135.031 29.049C135.041 30.3766 134.783 31.6917 134.273 32.9084C133.791 34.1012 133.085 35.1817 132.197 36.0868C131.322 37 130.29 37.7335 129.155 38.249C127.975 38.7768 126.703 39.0455 125.418 39.0382H91.1621V30.9841H125.418C125.663 30.9856 125.905 30.9365 126.131 30.8397C126.357 30.743 126.562 30.6005 126.735 30.4205C126.908 30.2405 127.045 30.0266 127.138 29.7912C127.231 29.5558 127.278 29.3035 127.276 29.049V25.9463C127.279 25.6914 127.233 25.4386 127.14 25.2027C127.047 24.9669 126.91 24.7528 126.736 24.5733C126.564 24.3929 126.359 24.2509 126.132 24.1561C125.905 24.0613 125.662 24.0157 125.418 24.022H100.785C99.5101 24.033 98.2474 23.7641 97.0791 23.2328C94.7394 22.2032 92.8774 20.264 91.8887 17.8274C91.3833 16.6091 91.1253 15.295 91.131 13.9679V10.9084C91.1286 9.57466 91.3864 8.25427 91.8887 7.02736C92.3843 5.84226 93.0884 4.76423 93.9649 3.84898C94.8579 2.92402 95.9158 2.18956 97.0791 1.68682C98.2496 1.1641 99.5113 0.899099 100.785 0.908442H135.041V8.98412H100.785C100.541 8.98269 100.3 9.03142 100.075 9.12748C99.8493 9.22355 99.6443 9.36507 99.4717 9.5439C99.299 9.72273 99.162 9.93535 99.0684 10.1695C98.9749 10.4037 98.9268 10.6548 98.9268 10.9084V14.0544C98.9254 14.3089 98.9725 14.5612 99.0654 14.7966C99.1583 15.0321 99.2951 15.246 99.468 15.4259C99.6408 15.6059 99.8462 15.7484 100.072 15.8451C100.298 15.9419 100.541 15.991 100.785 15.9895H125.418C126.702 15.9822 127.973 16.247 129.155 16.7679C130.289 17.2854 131.321 18.0186 132.197 18.9301C133.076 19.8425 133.781 20.9212 134.273 22.1084C134.781 23.3334 135.039 24.6551 135.031 25.9895V29.049Z" fill="#D2D8DA"/>
<path d="M181.183 39.0055H174.197V24.0217H146.989V39.0055H140.014V15.946H174.197V0.908203H181.183V39.0055ZM146.989 12.3677H140.014V0.908203H146.989V12.3677Z" fill="#D2D8DA"/>
<path d="M280.744 14.2379L271.598 0.908203H262.453L277.09 23.7623V39.0055H284.408V23.7623L299.045 0.908203H290.014L280.744 14.2379Z" fill="#D2D8DA"/>
<path d="M232.89 8.17308H251.648V16.0974H236.533V23.3623H240.001L253.288 39.0055H262.319L249.032 23.3623H254.222C254.969 23.3623 255.709 23.209 256.399 22.9113C257.089 22.6136 257.716 22.1772 258.244 21.6271C258.773 21.0769 259.192 20.4239 259.478 19.7051C259.763 18.9863 259.911 18.2159 259.911 17.4379V6.82173C259.911 6.04424 259.763 5.27439 259.477 4.55622C259.191 3.83806 258.772 3.18568 258.244 2.63641C257.715 2.08715 257.088 1.65179 256.398 1.35525C255.708 1.0587 254.969 0.906792 254.222 0.908213H225.717V39.0055H233.035L232.89 8.17308Z" fill="#D2D8DA"/>
<path d="M46.7135 39.0056H38.9592V11.2218C38.9633 10.9246 38.9067 10.6298 38.7931 10.357C38.5679 9.82004 38.1564 9.39144 37.6408 9.15698C37.3789 9.03867 37.0958 8.97971 36.8104 8.98401H0.945312V0.908334H36.8C38.1168 0.901305 39.4208 1.17733 40.6304 1.71914C41.8186 2.22889 42.8981 2.97851 43.8067 3.92479C44.7153 4.87107 45.4351 5.9953 45.9246 7.23266C46.4448 8.49245 46.7099 9.8505 46.7031 11.2218L46.7135 39.0056ZM8.7204 39.0056H0.945312V8.98401L8.71002 6.82185L8.7204 39.0056ZM27.6962 39.0056H19.9315V13.211H27.6962V39.0056Z" fill="#D2D8DA"/>
</g>
<g clip-path="url(#clip1_26975_9167)">
<path d="M136.004 168.936V218.521L179.246 193.643L136.004 168.936Z" fill="#00D3A9"/>
<path d="M136.004 228.893V278.718L179.638 253.92L136.004 228.893Z" fill="#00D3A9"/>
<path d="M129.787 218.18V169.355L87.0781 193.683L129.787 218.18Z" fill="#00B39F"/>
<path d="M44.1289 278.548C52.5115 291.938 63.838 303.265 77.2571 311.678V259.482L44.1289 278.548Z" fill="#00B39F"/>
<path d="M129.786 278.489V229.254L86.9766 253.891L129.786 278.489Z" fill="#00B39F"/>
<path d="M83.4766 308.566L126.829 283.929L83.4766 259.021V308.566Z" fill="#00D3A9"/>
<path d="M182.609 308.836V259.361L139.316 283.959L182.609 308.836Z" fill="#00B39F"/>
<path d="M225.013 272.796C232.419 259.073 236.602 243.862 237.25 228.303L192.137 253.94L225.013 272.796Z" fill="#00B39F"/>
<path d="M188.828 248.698L232.332 223.971L188.828 199.113V248.698Z" fill="#00D3A9"/>
<path d="M182.606 188.421V139.256L139.516 163.803L182.606 188.421Z" fill="#00B39F"/>
<path d="M182.609 248.479V198.854L139.418 223.711L182.609 248.479Z" fill="#00B39F"/>
<path d="M83.4766 198.764V248.749L126.98 223.721L83.4766 198.764Z" fill="#00D3A9"/>
<path d="M129.816 120C113.797 120.431 98.0945 124.539 83.9375 132.004L129.816 158.242V120Z" fill="#00B39F"/>
<path d="M83.4766 138.916V188.601L127.02 163.794L83.4766 138.916Z" fill="#00D3A9"/>
<path d="M77.2555 135.895C63.8357 144.306 52.5064 155.629 44.1172 169.015L77.2555 188.02V135.895Z" fill="#00B39F"/>
<path d="M182.315 132.284C168.05 124.663 152.192 120.456 136.004 120V158.672L182.315 132.284Z" fill="#00D3A9"/>
<path d="M28.5 227.432C29.0376 243.444 33.3166 259.111 40.9986 273.196L74.5495 253.89L28.5 227.432Z" fill="#00D3A9"/>
<path d="M40.9862 174.387C33.3474 188.408 29.0765 203.996 28.5078 219.931L74.5975 193.673L40.9862 174.387Z" fill="#00D3A9"/>
<path d="M83.8477 315.489C98.0255 322.995 113.76 327.134 129.817 327.582V289.381L83.8477 315.489Z" fill="#00B39F"/>
<path d="M221.755 169.174C213.424 155.82 202.169 144.505 188.828 136.074V188.09L221.755 169.174Z" fill="#00D3A9"/>
<path d="M188.828 311.498C202.252 303.023 213.563 291.626 221.906 278.168L188.828 259.162V311.498Z" fill="#00D3A9"/>
<path d="M237.271 219.661C236.665 203.872 232.423 188.432 224.873 174.527L191.664 193.623L237.271 219.661Z" fill="#00B39F"/>
<path d="M136.004 327.584C152.007 327.149 167.692 323.041 181.832 315.58L136.004 289.252V327.584Z" fill="#00D3A9"/>
<path d="M77.2572 248.298V199.283L34.418 223.691L77.2572 248.298Z" fill="#00B39F"/>
<path d="M173.592 355.221V356.672V363.504V371.836V384H206.167V377.168H180.465V371.836V370.336H200.209V363.504H180.465V356.672H206.167V349.84H173.592V355.221Z" fill="#D2D8DA"/>
<path d="M48.2637 355.221V356.672V363.504V371.836V384H80.8485V377.168H55.1369V371.836V370.336H74.891V363.504H55.1369V356.672H80.8485V349.84H48.2637V355.221Z" fill="#D2D8DA"/>
<path d="M125.942 375.078C125.953 376.267 125.713 377.446 125.238 378.539C124.784 379.608 124.12 380.578 123.285 381.389C122.457 382.193 121.488 382.84 120.427 383.3C119.318 383.773 118.123 384.015 116.915 384.01H84.7129V376.808H116.915C117.145 376.811 117.372 376.768 117.585 376.682C117.797 376.596 117.99 376.468 118.152 376.307C118.315 376.146 118.443 375.954 118.529 375.743C118.616 375.532 118.659 375.306 118.656 375.078V372.297C118.658 372.069 118.613 371.843 118.526 371.633C118.439 371.422 118.311 371.231 118.149 371.07C117.987 370.909 117.795 370.782 117.583 370.695C117.371 370.609 117.144 370.565 116.915 370.566H93.7698C92.5728 370.577 91.3867 370.338 90.2879 369.866C88.1142 368.942 86.3811 367.223 85.4475 365.065C84.9734 363.969 84.7335 362.787 84.7431 361.594V358.823C84.7353 357.623 84.9751 356.435 85.4475 355.332C85.9113 354.27 86.5738 353.306 87.3998 352.491C88.227 351.664 89.2079 351.005 90.2879 350.55C91.3867 350.078 92.5728 349.839 93.7698 349.85H125.972V357.072H93.7698C93.5398 357.065 93.3109 357.106 93.0977 357.192C92.8846 357.278 92.6919 357.408 92.532 357.572C92.368 357.732 92.2387 357.924 92.1522 358.136C92.0656 358.347 92.0237 358.574 92.0289 358.803V361.573C92.0237 361.802 92.0656 362.029 92.1522 362.241C92.2387 362.452 92.368 362.644 92.532 362.804C92.6919 362.968 92.8846 363.098 93.0977 363.184C93.3109 363.27 93.5398 363.311 93.7698 363.304H116.915C118.123 363.3 119.318 363.541 120.427 364.014C121.494 364.478 122.463 365.136 123.285 365.955C124.111 366.77 124.774 367.734 125.238 368.796C125.71 369.896 125.95 371.081 125.942 372.277V375.078Z" fill="#D2D8DA"/>
<path d="M169.294 384H162.743V370.556H137.182V384H130.631V363.314H162.743V349.84H169.294V384ZM137.182 360.073H130.631V349.84H137.182V360.073Z" fill="#D2D8DA"/>
<path d="M262.823 361.793L254.229 349.84H245.635L259.381 370.336V384H266.254V370.336L280.001 349.84H271.517L262.823 361.793Z" fill="#D2D8DA"/>
<path d="M217.859 356.352H235.48V363.454H221.291V369.966H224.541L237.01 383.97H245.543L233.075 369.966H237.946C238.646 369.966 239.339 369.829 239.987 369.562C240.634 369.296 241.222 368.905 241.717 368.413C242.212 367.921 242.605 367.336 242.873 366.693C243.141 366.05 243.279 365.361 243.279 364.664V355.141C243.279 354.445 243.141 353.756 242.873 353.113C242.605 352.469 242.212 351.885 241.717 351.393C241.222 350.9 240.634 350.51 239.987 350.243C239.339 349.977 238.646 349.84 237.946 349.84H211.127V384H218L217.859 356.352Z" fill="#D2D8DA"/>
<path d="M42.9802 384.001H35.6944V359.073C35.6975 358.808 35.6425 358.545 35.5334 358.303C35.4346 358.062 35.2874 357.844 35.1006 357.663C34.916 357.479 34.6973 357.333 34.4566 357.233C34.213 357.124 33.9486 357.069 33.6817 357.072H0V349.83H33.6817C34.9174 349.822 36.141 350.071 37.2743 350.561C38.4 351.029 39.4248 351.709 40.2933 352.561C41.1531 353.423 41.8366 354.442 42.3059 355.562C42.7985 356.688 43.0487 357.905 43.0405 359.133L42.9802 384.001ZM7.2858 384.001H0V357.072L7.2858 355.072V384.001ZM25.1078 384.001H17.822V360.874H25.1581L25.1078 384.001Z" fill="#D2D8DA"/>
</g>
<defs>
<clipPath id="clip0_26975_9167">
<rect width="300" height="40" fill="white"/>
</clipPath>
<clipPath id="clip1_26975_9167">
<rect width="280" height="264" fill="white" transform="translate(0 120)"/>
</clipPath>
</defs>
</svg>
