<?xml version="1.0" encoding="utf-8"?>

<!DOCTYPE svg PUBLIC "-//W3C//DTD SVG 1.1//EN" "http://www.w3.org/Graphics/SVG/1.1/DTD/svg11.dtd">
<!-- Uploaded to: SVG Repo, www.svgrepo.com, Generator: SVG Repo Mixer Tools -->
<svg height="800px" width="800px" version="1.1" id="_x32_" xmlns="http://www.w3.org/2000/svg" xmlns:xlink="http://www.w3.org/1999/xlink" 
	 viewBox="0 0 512 512"  xml:space="preserve">
<style type="text/css">
	.st0{fill:#000000;}
</style>
<g>
	<path class="st0" d="M485.22,80.604H26.78C12.013,80.604,0,92.615,0,107.382v297.229c0,14.767,12.013,26.786,26.78,26.786h458.44
		c14.767,0,26.78-12.019,26.78-26.786V107.382C512,92.615,499.987,80.604,485.22,80.604z M132.17,283.787v-4.472
		c0-2.298-0.38-4.566-1.359-7.174c-0.188-0.248-18.793-25.357-18.793-48.059c0-27.05,16.988-46.685,40.394-46.685
		s40.394,19.635,40.394,46.685c0,22.702-18.604,47.811-19.022,48.494c-0.751,2.166-1.132,4.433-1.132,6.739v4.472
		c0,6.18,3.628,11.84,9.307,14.449l30.316,12.384c6.584,3.028,11.285,9.084,12.558,16.048l1.431,18.416H78.56l1.407-18.253
		c1.294-7.128,5.998-13.184,12.518-16.18l30.442-12.446C128.542,295.627,132.17,289.967,132.17,283.787z M429.318,306.396v29.557
		H266.745v-29.557H429.318z M429.318,242.793v29.558H266.745v-29.558H429.318z M231.481,208.748v-29.557h197.836v29.557H231.481z"/>
</g>
</svg>