<svg width="396" height="324" viewBox="0 0 396 324" fill="none" xmlns="http://www.w3.org/2000/svg">
<path d="M0 9.9C0 4.43238 4.43238 0 9.9 0H386.1C391.568 0 396 4.43238 396 9.9V314.1C396 319.568 391.568 324 386.1 324H9.89999C4.43237 324 0 319.568 0 314.1V9.9Z" fill="url(#paint0_linear_27487_9286)"/>
<path d="M126.352 38.6074V45.2842L132.245 41.9283L126.352 38.6074Z" fill="#00D3A9"/>
<path d="M126.352 46.6816V53.4109L132.299 50.055L126.352 46.6816Z" fill="#00D3A9"/>
<path d="M125.5 45.2495V38.6602L119.678 41.9461L125.5 45.2495Z" fill="#00B39F"/>
<path d="M113.805 53.376C114.944 55.1763 116.493 56.7144 118.327 57.8505V50.8066L113.805 53.376Z" fill="#00B39F"/>
<path d="M125.5 53.3762V46.7344L119.66 50.0553L125.5 53.3762Z" fill="#00B39F"/>
<path d="M119.174 57.4307L125.085 54.1098L119.174 50.7539V57.4307Z" fill="#00D3A9"/>
<path d="M132.712 57.4658V50.7891L126.801 54.11L132.712 57.4658Z" fill="#00B39F"/>
<path d="M138.499 52.6064C139.514 50.7537 140.083 48.7087 140.172 46.6113L134.012 50.0721L138.499 52.6064Z" fill="#00B39F"/>
<path d="M133.562 49.3565L139.509 46.0181L133.562 42.6797V49.3565Z" fill="#00D3A9"/>
<path d="M132.71 41.2298V34.6055L126.834 37.9089L132.71 41.2298Z" fill="#00B39F"/>
<path d="M132.708 49.3213V42.6445L126.814 45.9829L132.708 49.3213Z" fill="#00B39F"/>
<path d="M119.174 42.627V49.3736L125.121 45.9828L119.174 42.627Z" fill="#00D3A9"/>
<path d="M125.5 32C123.31 32.0524 121.173 32.6117 119.232 33.6255L125.5 37.1561V32Z" fill="#00B39F"/>
<path d="M119.174 34.5527V41.2645L125.121 37.9086L119.174 34.5527Z" fill="#00D3A9"/>
<path d="M118.327 34.1504C116.493 35.2865 114.944 36.8071 113.805 38.6249L118.327 41.1942V34.1679V34.1504Z" fill="#00B39F"/>
<path d="M132.672 33.6605C130.732 32.6292 128.559 32.0699 126.352 32V37.2086L132.672 33.6605Z" fill="#00D3A9"/>
<path d="M111.664 46.4902C111.735 48.6576 112.323 50.755 113.373 52.6601L117.949 50.0558L111.664 46.4902Z" fill="#00D3A9"/>
<path d="M113.373 39.3398C112.323 41.2275 111.753 43.3424 111.664 45.4923L117.949 41.9441L113.356 39.3398H113.373Z" fill="#00D3A9"/>
<path d="M119.232 58.3568C121.173 59.3706 123.31 59.9299 125.5 59.9823V54.8262L119.232 58.3393V58.3568Z" fill="#00B39F"/>
<path d="M138.049 38.6406C136.91 36.8403 135.379 35.3197 133.562 34.1836V41.1925L138.049 38.6406Z" fill="#00D3A9"/>
<path d="M133.562 57.8329C135.396 56.6968 136.928 55.1587 138.067 53.3409L133.562 50.7891V57.8504V57.8329Z" fill="#00D3A9"/>
<path d="M140.185 45.4419C140.096 43.3095 139.526 41.2296 138.493 39.3594L133.953 41.9287L140.185 45.4419Z" fill="#00B39F"/>
<path d="M126.352 59.9997C128.542 59.9473 130.678 59.388 132.619 58.3742L126.352 54.8086V59.9997Z" fill="#00D3A9"/>
<path d="M118.328 49.3041V42.6973L112.488 45.9832L118.328 49.3041Z" fill="#00B39F"/>
<path d="M231.732 40.6095V41.3578V44.663V48.7166V54.7033H247.805V51.3358H235.099V48.7166V48.0306H244.883V44.663H235.099V41.3578H247.805V37.9902H231.732V40.6095Z" fill="#E7EFF3"/>
<path d="M169.729 40.6095V41.3578V44.663V48.7166V54.7033H185.865V51.3358H173.159V48.7166V48.0306H182.942V44.663H173.159V41.3578H185.865V37.9902H169.729V40.6095Z" fill="#E7EFF3"/>
<path d="M208.163 50.338C208.163 50.9616 208.036 51.5229 207.782 52.0218C207.528 52.583 207.21 53.0196 206.829 53.3937C206.448 53.7679 205.94 54.0797 205.431 54.3292C204.86 54.5786 204.288 54.7033 203.716 54.7033H187.834V51.2111H203.716C203.97 51.2111 204.161 51.1487 204.351 50.9616C204.542 50.7745 204.606 50.5874 204.606 50.338V48.966C204.606 48.7166 204.542 48.5295 204.351 48.3424C204.161 48.1553 203.97 48.0929 203.716 48.0929H192.281C191.646 48.0929 191.074 47.9682 190.566 47.7188C189.994 47.4693 189.549 47.1575 189.168 46.7833C188.787 46.4092 188.469 45.9103 188.215 45.4114C187.961 44.9125 187.834 44.3512 187.834 43.7276V42.3556C187.834 41.732 187.961 41.1707 188.215 40.6718C188.469 40.1729 188.787 39.674 189.168 39.2998C189.549 38.9257 190.057 38.6139 190.566 38.3644C191.074 38.115 191.646 37.9902 192.281 37.9902H208.163V41.5449H192.281C192.027 41.5449 191.836 41.6073 191.646 41.7943C191.455 41.9814 191.392 42.1685 191.392 42.418V43.7899C191.392 44.0394 191.455 44.2265 191.646 44.4136C191.836 44.6006 192.027 44.663 192.281 44.663H203.716C204.351 44.663 204.923 44.7877 205.431 45.0372C205.94 45.2866 206.448 45.5984 206.829 45.9726C207.21 46.3468 207.528 46.8457 207.782 47.3446C208.036 47.9058 208.163 48.4671 208.163 49.0284V50.338Z" fill="#E7EFF3"/>
<path d="M229.573 54.7033H226.333V48.1553H213.691V54.7033H210.451V44.6006H226.333V37.9902H229.573V54.7033ZM213.691 43.0416H210.451V38.0526H213.691V43.0416Z" fill="#E7EFF3"/>
<path d="M275.821 43.8523L271.565 37.9902H267.309L274.106 48.0306V54.7033H277.537V48.0306L284.334 37.9902H280.141L275.821 43.8523Z" fill="#E7EFF3"/>
<path d="M253.587 41.1707H262.29V42.3556V43.5405V44.7254H255.302V47.9058H256.89L263.052 54.7657H267.245L261.083 47.9058H263.243C263.307 47.9058 263.37 47.9058 263.497 47.9058C264.958 47.9058 266.165 46.721 266.165 45.2866V43.5405V42.3556V40.6095C266.165 39.1751 264.958 37.9902 263.497 37.9902C263.434 37.9902 263.37 37.9902 263.243 37.9902H253.523H253.46H250.283V54.641H253.65L253.587 41.1707Z" fill="#E7EFF3"/>
<path d="M166.807 40.7971C166.108 39.1757 164.393 37.9908 162.551 38.0531H145.906V41.6078V54.7662H149.527V41.5454C154.483 41.5454 162.741 41.4831 162.932 41.6078C164.203 41.2336 163.313 54.205 163.567 54.6415H167.188C166.998 53.519 167.506 41.5454 166.807 40.7971Z" fill="#E7EFF3"/>
<path d="M158.359 43.416H154.738V54.7036H158.359V43.416Z" fill="#E7EFF3"/>
<g clip-path="url(#clip0_27487_9286)">
<mask id="mask0_27487_9286" style="mask-type:alpha" maskUnits="userSpaceOnUse" x="166" y="82" width="12" height="16">
<path d="M173.368 82H167.105C166.497 82 166 82.4841 166 83.0758V96.702C166 97.2937 166.497 97.7778 167.105 97.7778H176.684C177.292 97.7778 177.789 97.2937 177.789 96.702V86.303L173.368 82Z" fill="white"/>
</mask>
<g mask="url(#mask0_27487_9286)">
<path d="M173.368 82H167.105C166.497 82 166 82.4841 166 83.0758V96.702C166 97.2937 166.497 97.7778 167.105 97.7778H176.684C177.292 97.7778 177.789 97.2937 177.789 96.702V86.303L175.21 84.5101L173.368 82Z" fill="#F4B400"/>
</g>
<mask id="mask1_27487_9286" style="mask-type:alpha" maskUnits="userSpaceOnUse" x="166" y="82" width="12" height="16">
<path d="M173.368 82H167.105C166.497 82 166 82.4841 166 83.0758V96.702C166 97.2937 166.497 97.7778 167.105 97.7778H176.684C177.292 97.7778 177.789 97.2937 177.789 96.702V86.303L173.368 82Z" fill="white"/>
</mask>
<g mask="url(#mask1_27487_9286)">
<path d="M174.289 89.1719H169.5C169.196 89.1719 168.947 89.4139 168.947 89.7098V94.3714C168.947 94.6672 169.196 94.9093 169.5 94.9093H174.289C174.593 94.9093 174.842 94.6672 174.842 94.3714V89.7098C174.842 89.4139 174.593 89.1719 174.289 89.1719ZM174.105 93.2956H169.684V90.7855H174.105V93.2956Z" fill="#F1F1F1"/>
</g>
<mask id="mask2_27487_9286" style="mask-type:alpha" maskUnits="userSpaceOnUse" x="166" y="82" width="12" height="16">
<path d="M173.368 82H167.105C166.497 82 166 82.4841 166 83.0758V96.702C166 97.2937 166.497 97.7778 167.105 97.7778H176.684C177.292 97.7778 177.789 97.2937 177.789 96.702V86.303L173.368 82Z" fill="white"/>
</mask>
<g mask="url(#mask2_27487_9286)">
<path d="M173.691 85.9883L177.789 89.9758V86.3029L173.691 85.9883Z" fill="url(#paint1_linear_27487_9286)"/>
</g>
<mask id="mask3_27487_9286" style="mask-type:alpha" maskUnits="userSpaceOnUse" x="166" y="82" width="12" height="16">
<path d="M173.368 82H167.105C166.497 82 166 82.4841 166 83.0758V96.702C166 97.2937 166.497 97.7778 167.105 97.7778H176.684C177.292 97.7778 177.789 97.2937 177.789 96.702V86.303L173.368 82Z" fill="white"/>
</mask>
<g mask="url(#mask3_27487_9286)">
<path d="M173.369 82V85.2273C173.369 85.8216 173.864 86.303 174.474 86.303H177.79L173.369 82Z" fill="#FADA80"/>
</g>
<mask id="mask4_27487_9286" style="mask-type:alpha" maskUnits="userSpaceOnUse" x="166" y="82" width="12" height="16">
<path d="M173.368 82H167.105C166.497 82 166 82.4841 166 83.0758V96.702C166 97.2937 166.497 97.7778 167.105 97.7778H176.684C177.292 97.7778 177.789 97.2937 177.789 96.702V86.303L173.368 82Z" fill="white"/>
</mask>
<g mask="url(#mask4_27487_9286)">
<path d="M173.369 82V82.0896L177.698 86.303H177.79L173.369 82Z" fill="white" fill-opacity="0.1"/>
</g>
<mask id="mask5_27487_9286" style="mask-type:alpha" maskUnits="userSpaceOnUse" x="166" y="82" width="12" height="16">
<path d="M173.368 82H167.105C166.497 82 166 82.4841 166 83.0758V96.702C166 97.2937 166.497 97.7778 167.105 97.7778H176.684C177.292 97.7778 177.789 97.2937 177.789 96.702V86.303L173.368 82Z" fill="white"/>
</mask>
<g mask="url(#mask5_27487_9286)">
<path d="M167.105 82C166.497 82 166 82.4841 166 83.0758V83.1654C166 82.5737 166.497 82.0896 167.105 82.0896H173.368V82H167.105Z" fill="white" fill-opacity="0.2"/>
</g>
<mask id="mask6_27487_9286" style="mask-type:alpha" maskUnits="userSpaceOnUse" x="166" y="82" width="12" height="16">
<path d="M173.368 82H167.105C166.497 82 166 82.4841 166 83.0758V96.702C166 97.2937 166.497 97.7778 167.105 97.7778H176.684C177.292 97.7778 177.789 97.2937 177.789 96.702V86.303L173.368 82Z" fill="white"/>
</mask>
<g mask="url(#mask6_27487_9286)">
<path d="M176.684 97.689H167.105C166.497 97.689 166 97.205 166 96.6133V96.7029C166 97.2946 166.497 97.7787 167.105 97.7787H176.684C177.292 97.7787 177.789 97.2946 177.789 96.7029V96.6133C177.789 97.205 177.292 97.689 176.684 97.689Z" fill="#BF360C" fill-opacity="0.2"/>
</g>
<mask id="mask7_27487_9286" style="mask-type:alpha" maskUnits="userSpaceOnUse" x="166" y="82" width="12" height="16">
<path d="M173.368 82H167.105C166.497 82 166 82.4841 166 83.0758V96.702C166 97.2937 166.497 97.7778 167.105 97.7778H176.684C177.292 97.7778 177.789 97.2937 177.789 96.702V86.303L173.368 82Z" fill="white"/>
</mask>
<g mask="url(#mask7_27487_9286)">
<path d="M174.474 86.3023C173.864 86.3023 173.369 85.8209 173.369 85.2266V85.3162C173.369 85.9106 173.864 86.392 174.474 86.392H177.79V86.3023H174.474Z" fill="#BF360C" fill-opacity="0.1"/>
</g>
<path d="M173.368 82H167.105C166.497 82 166 82.4841 166 83.0758V96.702C166 97.2937 166.497 97.7778 167.105 97.7778H176.684C177.292 97.7778 177.789 97.2937 177.789 96.702V86.303L173.368 82Z" fill="url(#paint2_radial_27487_9286)"/>
</g>
<path d="M190.48 96.224C188.4 96.224 186.592 95.184 186.416 92.944C186.4 92.688 186.544 92.56 186.784 92.56H188.224C188.464 92.56 188.576 92.672 188.624 92.928C188.752 93.68 189.392 94.08 190.48 94.08C191.6 94.08 192.128 93.6 192.128 92.944C192.128 92.144 191.232 91.808 190.176 91.424C188.56 90.864 186.592 90.224 186.592 87.84C186.592 85.696 188.368 84.592 190.24 84.592C192.08 84.592 193.808 85.6 194 87.808C194.016 88.064 193.872 88.192 193.616 88.192H192.176C191.952 88.192 191.824 88.08 191.792 87.84C191.648 87.088 191.104 86.736 190.24 86.736C189.328 86.736 188.8 87.2 188.8 87.84C188.8 88.672 189.568 89.024 190.592 89.408C192.224 90 194.336 90.576 194.336 92.944C194.336 95.088 192.56 96.224 190.48 96.224ZM196.046 96C195.806 96 195.662 95.872 195.662 95.632V84.864C195.662 84.624 195.806 84.48 196.046 84.48H197.358C197.598 84.48 197.726 84.624 197.726 84.864V95.632C197.726 95.872 197.598 96 197.358 96H196.046ZM200 86.88C199.76 86.88 199.616 86.752 199.616 86.512V85.184C199.616 84.944 199.76 84.8 200 84.8H201.312C201.552 84.8 201.68 84.944 201.68 85.184V86.512C201.68 86.752 201.552 86.88 201.312 86.88H200ZM200 96C199.76 96 199.616 95.872 199.616 95.632V88.384C199.616 88.144 199.76 88 200 88H201.312C201.552 88 201.68 88.144 201.68 88.384V95.632C201.68 95.872 201.552 96 201.312 96H200ZM211.329 84.8C211.585 84.8 211.713 84.944 211.713 85.184V95.632C211.713 95.872 211.585 96 211.329 96H210.033C209.793 96 209.649 95.872 209.649 95.632V95.056C209.073 95.792 208.225 96.224 207.057 96.224C204.913 96.224 203.153 94.384 203.153 92C203.153 89.632 204.913 87.792 207.057 87.792C208.225 87.792 209.073 88.224 209.649 88.96V85.184C209.649 84.944 209.793 84.8 210.033 84.8H211.329ZM207.441 94.256C208.705 94.256 209.649 93.344 209.649 92C209.649 90.656 208.705 89.744 207.441 89.744C206.161 89.744 205.217 90.656 205.217 92C205.217 93.344 206.161 94.256 207.441 94.256ZM217.408 87.792C219.776 87.792 221.408 89.648 221.408 92.016C221.408 92.192 221.392 92.352 221.376 92.512C221.36 92.752 221.2 92.864 220.976 92.864H219.328H215.312C215.6 94 216.464 94.512 217.488 94.512C218.096 94.512 218.624 94.272 218.944 93.936C219.088 93.792 219.216 93.712 219.408 93.712H220.688C220.976 93.712 221.12 93.888 221.008 94.128C220.4 95.472 219.088 96.224 217.456 96.224C214.848 96.224 213.168 94.4 213.168 92C213.168 89.632 214.896 87.792 217.408 87.792ZM215.312 91.232H219.344C219.104 90.096 218.256 89.648 217.392 89.648C216.304 89.648 215.552 90.24 215.312 91.232ZM224.627 90.336C224.627 91.728 228.947 90.592 228.947 93.68C228.947 95.392 227.475 96.224 225.699 96.224C224.067 96.224 222.675 95.456 222.499 93.856C222.467 93.6 222.627 93.456 222.867 93.456H224.147C224.371 93.456 224.451 93.584 224.547 93.792C224.691 94.208 225.123 94.4 225.699 94.4C226.467 94.4 226.883 94.144 226.883 93.68C226.883 92.304 222.563 93.408 222.563 90.336C222.563 88.64 224.035 87.792 225.699 87.792C227.203 87.792 228.563 88.544 228.755 90.16C228.787 90.416 228.627 90.56 228.387 90.56H227.107C226.883 90.56 226.787 90.432 226.691 90.208C226.579 89.808 226.179 89.6 225.699 89.6C225.043 89.6 224.627 89.872 224.627 90.336Z" fill="#FDFDFD"/>
<path d="M38.0703 130.668C38.0703 131.176 37.9453 131.613 37.6953 131.98C37.4492 132.348 37.0938 132.629 36.6289 132.824C36.168 133.02 35.6172 133.117 34.9766 133.117C34.6641 133.117 34.3652 133.1 34.0801 133.064C33.7949 133.029 33.5254 132.979 33.2715 132.912C33.0215 132.842 32.793 132.758 32.5859 132.66V131.336C32.9336 131.488 33.3223 131.627 33.752 131.752C34.1816 131.873 34.6191 131.934 35.0645 131.934C35.4277 131.934 35.7285 131.887 35.9668 131.793C36.209 131.695 36.3887 131.559 36.5059 131.383C36.623 131.203 36.6816 130.994 36.6816 130.756C36.6816 130.502 36.6133 130.287 36.4766 130.111C36.3398 129.936 36.1328 129.775 35.8555 129.631C35.582 129.482 35.2383 129.324 34.8242 129.156C34.543 129.043 34.2734 128.914 34.0156 128.77C33.7617 128.625 33.5352 128.455 33.3359 128.26C33.1367 128.064 32.9785 127.834 32.8613 127.568C32.748 127.299 32.6914 126.982 32.6914 126.619C32.6914 126.135 32.8066 125.721 33.0371 125.377C33.2715 125.033 33.5996 124.77 34.0215 124.586C34.4473 124.402 34.9434 124.311 35.5098 124.311C35.959 124.311 36.3809 124.357 36.7754 124.451C37.1738 124.545 37.5645 124.678 37.9473 124.85L37.502 125.98C37.1504 125.836 36.8086 125.721 36.4766 125.635C36.1484 125.549 35.8125 125.506 35.4688 125.506C35.1719 125.506 34.9199 125.551 34.7129 125.641C34.5059 125.73 34.3477 125.857 34.2383 126.021C34.1328 126.182 34.0801 126.373 34.0801 126.596C34.0801 126.846 34.1406 127.057 34.2617 127.229C34.3867 127.396 34.5781 127.551 34.8359 127.691C35.0977 127.832 35.4336 127.988 35.8438 128.16C36.3164 128.355 36.7168 128.561 37.0449 128.775C37.377 128.99 37.6309 129.248 37.8066 129.549C37.9824 129.846 38.0703 130.219 38.0703 130.668ZM41.9961 132.004C42.1758 132.004 42.3535 131.988 42.5293 131.957C42.7051 131.922 42.8652 131.881 43.0098 131.834V132.877C42.8574 132.943 42.6602 133 42.418 133.047C42.1758 133.094 41.9238 133.117 41.6621 133.117C41.2949 133.117 40.9648 133.057 40.6719 132.936C40.3789 132.811 40.1465 132.598 39.9746 132.297C39.8027 131.996 39.7168 131.58 39.7168 131.049V127.562H38.832V126.947L39.7812 126.461L40.2324 125.072H41.0996V126.514H42.957V127.562H41.0996V131.031C41.0996 131.359 41.1816 131.604 41.3457 131.764C41.5098 131.924 41.7266 132.004 41.9961 132.004ZM46.8711 126.391C47.6914 126.391 48.3105 126.572 48.7285 126.936C49.1504 127.299 49.3613 127.865 49.3613 128.635V133H48.3828L48.1191 132.08H48.0723C47.8887 132.314 47.6992 132.508 47.5039 132.66C47.3086 132.812 47.082 132.926 46.8242 133C46.5703 133.078 46.2598 133.117 45.8926 133.117C45.5059 133.117 45.1602 133.047 44.8555 132.906C44.5508 132.762 44.3105 132.543 44.1348 132.25C43.959 131.957 43.8711 131.586 43.8711 131.137C43.8711 130.469 44.1191 129.967 44.6152 129.631C45.1152 129.295 45.8691 129.109 46.877 129.074L48.002 129.033V128.693C48.002 128.244 47.8965 127.924 47.6855 127.732C47.4785 127.541 47.1855 127.445 46.8066 127.445C46.4824 127.445 46.168 127.492 45.8633 127.586C45.5586 127.68 45.2617 127.795 44.9727 127.932L44.5273 126.959C44.8438 126.791 45.2031 126.654 45.6055 126.549C46.0117 126.443 46.4336 126.391 46.8711 126.391ZM47.9961 129.9L47.1582 129.93C46.4707 129.953 45.9883 130.07 45.7109 130.281C45.4336 130.492 45.2949 130.781 45.2949 131.148C45.2949 131.469 45.3906 131.703 45.582 131.852C45.7734 131.996 46.0254 132.068 46.3379 132.068C46.8145 132.068 47.209 131.934 47.5215 131.664C47.8379 131.391 47.9961 130.99 47.9961 130.463V129.9ZM54.6699 126.391C55.4004 126.391 55.9688 126.58 56.375 126.959C56.7852 127.334 56.9902 127.938 56.9902 128.77V133H55.6133V129.027C55.6133 128.523 55.5098 128.146 55.3027 127.896C55.0957 127.643 54.7754 127.516 54.3418 127.516C53.7129 127.516 53.2754 127.709 53.0293 128.096C52.7871 128.482 52.666 129.043 52.666 129.777V133H51.2891V126.514H52.3613L52.5547 127.393H52.6309C52.7715 127.166 52.9453 126.98 53.1523 126.836C53.3633 126.688 53.5977 126.576 53.8555 126.502C54.1172 126.428 54.3887 126.391 54.6699 126.391ZM61.0977 133.117C60.3242 133.117 59.7031 132.836 59.2344 132.273C58.7695 131.707 58.5371 130.873 58.5371 129.771C58.5371 128.658 58.7734 127.816 59.2461 127.246C59.7227 126.676 60.3496 126.391 61.127 126.391C61.4551 126.391 61.7422 126.436 61.9883 126.525C62.2344 126.611 62.4453 126.729 62.6211 126.877C62.8008 127.025 62.9531 127.191 63.0781 127.375H63.1426C63.123 127.254 63.0996 127.08 63.0723 126.854C63.0488 126.623 63.0371 126.41 63.0371 126.215V123.883H64.4199V133H63.3418L63.0957 132.115H63.0371C62.9199 132.303 62.7715 132.473 62.5918 132.625C62.416 132.773 62.2051 132.893 61.959 132.982C61.7168 133.072 61.4297 133.117 61.0977 133.117ZM61.4844 131.998C62.0742 131.998 62.4902 131.828 62.7324 131.488C62.9746 131.148 63.0996 130.639 63.1074 129.959V129.777C63.1074 129.051 62.9902 128.494 62.7559 128.107C62.5215 127.717 62.0938 127.521 61.4727 127.521C60.9766 127.521 60.5977 127.723 60.3359 128.125C60.0781 128.523 59.9492 129.08 59.9492 129.795C59.9492 130.51 60.0781 131.057 60.3359 131.436C60.5977 131.811 60.9805 131.998 61.4844 131.998ZM75.2539 129.742C75.2539 130.281 75.1836 130.76 75.043 131.178C74.9023 131.596 74.6973 131.949 74.4277 132.238C74.1582 132.523 73.834 132.742 73.4551 132.895C73.0762 133.043 72.6484 133.117 72.1719 133.117C71.7266 133.117 71.3184 133.043 70.9473 132.895C70.5762 132.742 70.2539 132.523 69.9805 132.238C69.7109 131.949 69.502 131.596 69.3535 131.178C69.2051 130.76 69.1309 130.281 69.1309 129.742C69.1309 129.027 69.2539 128.422 69.5 127.926C69.75 127.426 70.1055 127.045 70.5664 126.783C71.0273 126.521 71.5762 126.391 72.2129 126.391C72.8105 126.391 73.3379 126.521 73.7949 126.783C74.252 127.045 74.6094 127.426 74.8672 127.926C75.125 128.426 75.2539 129.031 75.2539 129.742ZM70.5488 129.742C70.5488 130.215 70.6055 130.619 70.7188 130.955C70.8359 131.291 71.0156 131.549 71.2578 131.729C71.5 131.904 71.8125 131.992 72.1953 131.992C72.5781 131.992 72.8906 131.904 73.1328 131.729C73.375 131.549 73.5527 131.291 73.666 130.955C73.7793 130.619 73.8359 130.215 73.8359 129.742C73.8359 129.27 73.7793 128.869 73.666 128.541C73.5527 128.209 73.375 127.957 73.1328 127.785C72.8906 127.609 72.5762 127.521 72.1895 127.521C71.6191 127.521 71.2031 127.713 70.9414 128.096C70.6797 128.479 70.5488 129.027 70.5488 129.742ZM82.4902 126.514V133H81.4062L81.2188 132.127H81.1426C81.0059 132.35 80.832 132.535 80.6211 132.684C80.4102 132.828 80.1758 132.936 79.918 133.006C79.6602 133.08 79.3887 133.117 79.1035 133.117C78.6152 133.117 78.1973 133.035 77.8496 132.871C77.5059 132.703 77.2422 132.445 77.0586 132.098C76.875 131.75 76.7832 131.301 76.7832 130.75V126.514H78.166V130.492C78.166 130.996 78.2676 131.373 78.4707 131.623C78.6777 131.873 78.998 131.998 79.4316 131.998C79.8496 131.998 80.1816 131.912 80.4277 131.74C80.6738 131.568 80.8477 131.314 80.9492 130.979C81.0547 130.643 81.1074 130.23 81.1074 129.742V126.514H82.4902ZM86.8789 132.004C87.0586 132.004 87.2363 131.988 87.4121 131.957C87.5879 131.922 87.748 131.881 87.8926 131.834V132.877C87.7402 132.943 87.543 133 87.3008 133.047C87.0586 133.094 86.8066 133.117 86.5449 133.117C86.1777 133.117 85.8477 133.057 85.5547 132.936C85.2617 132.811 85.0293 132.598 84.8574 132.297C84.6855 131.996 84.5996 131.58 84.5996 131.049V127.562H83.7148V126.947L84.6641 126.461L85.1152 125.072H85.9824V126.514H87.8398V127.562H85.9824V131.031C85.9824 131.359 86.0645 131.604 86.2285 131.764C86.3926 131.924 86.6094 132.004 86.8789 132.004ZM94.5078 133.117C93.7344 133.117 93.1133 132.836 92.6445 132.273C92.1797 131.707 91.9473 130.873 91.9473 129.771C91.9473 128.658 92.1836 127.816 92.6562 127.246C93.1328 126.676 93.7598 126.391 94.5371 126.391C94.8652 126.391 95.1523 126.436 95.3984 126.525C95.6445 126.611 95.8555 126.729 96.0312 126.877C96.2109 127.025 96.3633 127.191 96.4883 127.375H96.5527C96.5332 127.254 96.5098 127.08 96.4824 126.854C96.459 126.623 96.4473 126.41 96.4473 126.215V123.883H97.8301V133H96.752L96.5059 132.115H96.4473C96.3301 132.303 96.1816 132.473 96.002 132.625C95.8262 132.773 95.6152 132.893 95.3691 132.982C95.127 133.072 94.8398 133.117 94.5078 133.117ZM94.8945 131.998C95.4844 131.998 95.9004 131.828 96.1426 131.488C96.3848 131.148 96.5098 130.639 96.5176 129.959V129.777C96.5176 129.051 96.4004 128.494 96.166 128.107C95.9316 127.717 95.5039 127.521 94.8828 127.521C94.3867 127.521 94.0078 127.723 93.7461 128.125C93.4883 128.523 93.3594 129.08 93.3594 129.795C93.3594 130.51 93.4883 131.057 93.7461 131.436C94.0078 131.811 94.3906 131.998 94.8945 131.998ZM105.459 126.514V133H104.375L104.188 132.127H104.111C103.975 132.35 103.801 132.535 103.59 132.684C103.379 132.828 103.145 132.936 102.887 133.006C102.629 133.08 102.357 133.117 102.072 133.117C101.584 133.117 101.166 133.035 100.818 132.871C100.475 132.703 100.211 132.445 100.027 132.098C99.8438 131.75 99.752 131.301 99.752 130.75V126.514H101.135V130.492C101.135 130.996 101.236 131.373 101.439 131.623C101.646 131.873 101.967 131.998 102.4 131.998C102.818 131.998 103.15 131.912 103.396 131.74C103.643 131.568 103.816 131.314 103.918 130.979C104.023 130.643 104.076 130.23 104.076 129.742V126.514H105.459ZM110.721 126.391C110.83 126.391 110.949 126.396 111.078 126.408C111.207 126.42 111.318 126.436 111.412 126.455L111.283 127.744C111.201 127.721 111.1 127.703 110.979 127.691C110.861 127.68 110.756 127.674 110.662 127.674C110.416 127.674 110.182 127.715 109.959 127.797C109.736 127.875 109.539 127.996 109.367 128.16C109.195 128.32 109.061 128.521 108.963 128.764C108.865 129.006 108.816 129.287 108.816 129.607V133H107.434V126.514H108.512L108.699 127.656H108.764C108.893 127.426 109.053 127.215 109.244 127.023C109.436 126.832 109.654 126.68 109.9 126.566C110.15 126.449 110.424 126.391 110.721 126.391ZM113.99 126.514V133H112.613V126.514H113.99ZM113.311 124.029C113.521 124.029 113.703 124.086 113.855 124.199C114.012 124.312 114.09 124.508 114.09 124.785C114.09 125.059 114.012 125.254 113.855 125.371C113.703 125.484 113.521 125.541 113.311 125.541C113.092 125.541 112.906 125.484 112.754 125.371C112.605 125.254 112.531 125.059 112.531 124.785C112.531 124.508 112.605 124.312 112.754 124.199C112.906 124.086 113.092 124.029 113.311 124.029ZM119.346 126.391C120.076 126.391 120.645 126.58 121.051 126.959C121.461 127.334 121.666 127.938 121.666 128.77V133H120.289V129.027C120.289 128.523 120.186 128.146 119.979 127.896C119.771 127.643 119.451 127.516 119.018 127.516C118.389 127.516 117.951 127.709 117.705 128.096C117.463 128.482 117.342 129.043 117.342 129.777V133H115.965V126.514H117.037L117.23 127.393H117.307C117.447 127.166 117.621 126.98 117.828 126.836C118.039 126.688 118.273 126.576 118.531 126.502C118.793 126.428 119.064 126.391 119.346 126.391ZM125.445 135.883C124.566 135.883 123.893 135.725 123.424 135.408C122.955 135.092 122.721 134.648 122.721 134.078C122.721 133.68 122.846 133.342 123.096 133.064C123.346 132.791 123.703 132.602 124.168 132.496C123.992 132.418 123.84 132.297 123.711 132.133C123.586 131.965 123.523 131.779 123.523 131.576C123.523 131.334 123.592 131.127 123.729 130.955C123.865 130.783 124.07 130.617 124.344 130.457C124.004 130.312 123.73 130.078 123.523 129.754C123.32 129.426 123.219 129.041 123.219 128.6C123.219 128.131 123.318 127.732 123.518 127.404C123.717 127.072 124.008 126.82 124.391 126.648C124.773 126.473 125.236 126.385 125.779 126.385C125.896 126.385 126.023 126.393 126.16 126.408C126.301 126.42 126.43 126.436 126.547 126.455C126.668 126.471 126.76 126.488 126.822 126.508H129.066V127.275L127.965 127.48C128.07 127.629 128.154 127.799 128.217 127.99C128.279 128.178 128.311 128.383 128.311 128.605C128.311 129.277 128.078 129.807 127.613 130.193C127.152 130.576 126.516 130.768 125.703 130.768C125.508 130.76 125.318 130.744 125.135 130.721C124.994 130.807 124.887 130.902 124.812 131.008C124.738 131.109 124.701 131.225 124.701 131.354C124.701 131.459 124.738 131.545 124.812 131.611C124.887 131.674 124.996 131.721 125.141 131.752C125.289 131.783 125.469 131.799 125.68 131.799H126.799C127.51 131.799 128.053 131.949 128.428 132.25C128.803 132.551 128.99 132.992 128.99 133.574C128.99 134.312 128.686 134.881 128.076 135.279C127.467 135.682 126.59 135.883 125.445 135.883ZM125.498 134.916C125.979 134.916 126.383 134.869 126.711 134.775C127.039 134.682 127.287 134.547 127.455 134.371C127.623 134.199 127.707 133.994 127.707 133.756C127.707 133.545 127.654 133.383 127.549 133.27C127.443 133.156 127.285 133.078 127.074 133.035C126.863 132.992 126.602 132.971 126.289 132.971H125.27C125.016 132.971 124.791 133.01 124.596 133.088C124.4 133.17 124.248 133.287 124.139 133.439C124.033 133.592 123.98 133.775 123.98 133.99C123.98 134.287 124.111 134.516 124.373 134.676C124.639 134.836 125.014 134.916 125.498 134.916ZM125.768 129.865C126.17 129.865 126.469 129.756 126.664 129.537C126.859 129.314 126.957 129.002 126.957 128.6C126.957 128.162 126.855 127.834 126.652 127.615C126.453 127.396 126.156 127.287 125.762 127.287C125.375 127.287 125.08 127.398 124.877 127.621C124.678 127.844 124.578 128.174 124.578 128.611C124.578 129.006 124.678 129.314 124.877 129.537C125.08 129.756 125.377 129.865 125.768 129.865ZM136.695 126.391C137.465 126.391 138.082 126.672 138.547 127.234C139.016 127.797 139.25 128.633 139.25 129.742C139.25 130.477 139.141 131.096 138.922 131.6C138.707 132.1 138.404 132.479 138.014 132.736C137.627 132.99 137.176 133.117 136.66 133.117C136.332 133.117 136.047 133.074 135.805 132.988C135.562 132.902 135.355 132.791 135.184 132.654C135.012 132.514 134.867 132.361 134.75 132.197H134.668C134.688 132.354 134.705 132.527 134.721 132.719C134.74 132.906 134.75 133.078 134.75 133.234V135.877H133.367V126.514H134.492L134.686 127.41H134.75C134.871 127.227 135.018 127.057 135.189 126.9C135.365 126.744 135.576 126.621 135.822 126.531C136.072 126.438 136.363 126.391 136.695 126.391ZM136.326 127.516C135.947 127.516 135.643 127.592 135.412 127.744C135.186 127.893 135.02 128.117 134.914 128.418C134.812 128.719 134.758 129.096 134.75 129.549V129.742C134.75 130.223 134.799 130.631 134.896 130.967C134.998 131.299 135.164 131.553 135.395 131.729C135.629 131.9 135.945 131.986 136.344 131.986C136.68 131.986 136.957 131.895 137.176 131.711C137.398 131.527 137.564 131.266 137.674 130.926C137.783 130.586 137.838 130.186 137.838 129.725C137.838 129.025 137.713 128.482 137.463 128.096C137.217 127.709 136.838 127.516 136.326 127.516ZM144.131 126.391C144.24 126.391 144.359 126.396 144.488 126.408C144.617 126.42 144.729 126.436 144.822 126.455L144.693 127.744C144.611 127.721 144.51 127.703 144.389 127.691C144.271 127.68 144.166 127.674 144.072 127.674C143.826 127.674 143.592 127.715 143.369 127.797C143.146 127.875 142.949 127.996 142.777 128.16C142.605 128.32 142.471 128.521 142.373 128.764C142.275 129.006 142.227 129.287 142.227 129.607V133H140.844V126.514H141.922L142.109 127.656H142.174C142.303 127.426 142.463 127.215 142.654 127.023C142.846 126.832 143.064 126.68 143.311 126.566C143.561 126.449 143.834 126.391 144.131 126.391ZM148.607 126.391C149.186 126.391 149.682 126.51 150.096 126.748C150.51 126.986 150.828 127.324 151.051 127.762C151.273 128.199 151.385 128.723 151.385 129.332V130.07H147.055C147.07 130.699 147.238 131.184 147.559 131.523C147.883 131.863 148.336 132.033 148.918 132.033C149.332 132.033 149.703 131.994 150.031 131.916C150.363 131.834 150.705 131.715 151.057 131.559V132.678C150.732 132.83 150.402 132.941 150.066 133.012C149.73 133.082 149.328 133.117 148.859 133.117C148.223 133.117 147.662 132.994 147.178 132.748C146.697 132.498 146.32 132.127 146.047 131.635C145.777 131.143 145.643 130.531 145.643 129.801C145.643 129.074 145.766 128.457 146.012 127.949C146.258 127.441 146.604 127.055 147.049 126.789C147.494 126.523 148.014 126.391 148.607 126.391ZM148.607 127.428C148.174 127.428 147.822 127.568 147.553 127.85C147.287 128.131 147.131 128.543 147.084 129.086H150.037C150.033 128.762 149.979 128.475 149.873 128.225C149.771 127.975 149.615 127.779 149.404 127.639C149.197 127.498 148.932 127.428 148.607 127.428ZM157.297 131.148C157.297 131.574 157.193 131.934 156.986 132.227C156.779 132.52 156.477 132.742 156.078 132.895C155.684 133.043 155.199 133.117 154.625 133.117C154.172 133.117 153.781 133.084 153.453 133.018C153.129 132.955 152.822 132.857 152.533 132.725V131.535C152.842 131.68 153.188 131.805 153.57 131.91C153.957 132.016 154.322 132.068 154.666 132.068C155.119 132.068 155.445 131.998 155.645 131.857C155.844 131.713 155.943 131.521 155.943 131.283C155.943 131.143 155.902 131.018 155.82 130.908C155.742 130.795 155.594 130.68 155.375 130.562C155.16 130.441 154.844 130.297 154.426 130.129C154.016 129.965 153.67 129.801 153.389 129.637C153.107 129.473 152.895 129.275 152.75 129.045C152.605 128.811 152.533 128.512 152.533 128.148C152.533 127.574 152.76 127.139 153.213 126.842C153.67 126.541 154.273 126.391 155.023 126.391C155.422 126.391 155.797 126.432 156.148 126.514C156.504 126.592 156.852 126.707 157.191 126.859L156.758 127.896C156.465 127.768 156.17 127.662 155.873 127.58C155.58 127.494 155.281 127.451 154.977 127.451C154.621 127.451 154.35 127.506 154.162 127.615C153.979 127.725 153.887 127.881 153.887 128.084C153.887 128.236 153.932 128.365 154.021 128.471C154.111 128.576 154.266 128.682 154.484 128.787C154.707 128.893 155.016 129.023 155.41 129.18C155.797 129.328 156.131 129.484 156.412 129.648C156.697 129.809 156.916 130.006 157.068 130.24C157.221 130.475 157.297 130.777 157.297 131.148ZM161.369 126.391C161.947 126.391 162.443 126.51 162.857 126.748C163.271 126.986 163.59 127.324 163.812 127.762C164.035 128.199 164.146 128.723 164.146 129.332V130.07H159.816C159.832 130.699 160 131.184 160.32 131.523C160.645 131.863 161.098 132.033 161.68 132.033C162.094 132.033 162.465 131.994 162.793 131.916C163.125 131.834 163.467 131.715 163.818 131.559V132.678C163.494 132.83 163.164 132.941 162.828 133.012C162.492 133.082 162.09 133.117 161.621 133.117C160.984 133.117 160.424 132.994 159.939 132.748C159.459 132.498 159.082 132.127 158.809 131.635C158.539 131.143 158.404 130.531 158.404 129.801C158.404 129.074 158.527 128.457 158.773 127.949C159.02 127.441 159.365 127.055 159.811 126.789C160.256 126.523 160.775 126.391 161.369 126.391ZM161.369 127.428C160.936 127.428 160.584 127.568 160.314 127.85C160.049 128.131 159.893 128.543 159.846 129.086H162.799C162.795 128.762 162.74 128.475 162.635 128.225C162.533 127.975 162.377 127.779 162.166 127.639C161.959 127.498 161.693 127.428 161.369 127.428ZM169.08 126.391C169.811 126.391 170.379 126.58 170.785 126.959C171.195 127.334 171.4 127.938 171.4 128.77V133H170.023V129.027C170.023 128.523 169.92 128.146 169.713 127.896C169.506 127.643 169.186 127.516 168.752 127.516C168.123 127.516 167.686 127.709 167.439 128.096C167.197 128.482 167.076 129.043 167.076 129.777V133H165.699V126.514H166.771L166.965 127.393H167.041C167.182 127.166 167.355 126.98 167.562 126.836C167.773 126.688 168.008 126.576 168.266 126.502C168.527 126.428 168.799 126.391 169.08 126.391ZM175.742 132.004C175.922 132.004 176.1 131.988 176.275 131.957C176.451 131.922 176.611 131.881 176.756 131.834V132.877C176.604 132.943 176.406 133 176.164 133.047C175.922 133.094 175.67 133.117 175.408 133.117C175.041 133.117 174.711 133.057 174.418 132.936C174.125 132.811 173.893 132.598 173.721 132.297C173.549 131.996 173.463 131.58 173.463 131.049V127.562H172.578V126.947L173.527 126.461L173.979 125.072H174.846V126.514H176.703V127.562H174.846V131.031C174.846 131.359 174.928 131.604 175.092 131.764C175.256 131.924 175.473 132.004 175.742 132.004ZM180.617 126.391C181.438 126.391 182.057 126.572 182.475 126.936C182.896 127.299 183.107 127.865 183.107 128.635V133H182.129L181.865 132.08H181.818C181.635 132.314 181.445 132.508 181.25 132.66C181.055 132.812 180.828 132.926 180.57 133C180.316 133.078 180.006 133.117 179.639 133.117C179.252 133.117 178.906 133.047 178.602 132.906C178.297 132.762 178.057 132.543 177.881 132.25C177.705 131.957 177.617 131.586 177.617 131.137C177.617 130.469 177.865 129.967 178.361 129.631C178.861 129.295 179.615 129.109 180.623 129.074L181.748 129.033V128.693C181.748 128.244 181.643 127.924 181.432 127.732C181.225 127.541 180.932 127.445 180.553 127.445C180.229 127.445 179.914 127.492 179.609 127.586C179.305 127.68 179.008 127.795 178.719 127.932L178.273 126.959C178.59 126.791 178.949 126.654 179.352 126.549C179.758 126.443 180.18 126.391 180.617 126.391ZM181.742 129.9L180.904 129.93C180.217 129.953 179.734 130.07 179.457 130.281C179.18 130.492 179.041 130.781 179.041 131.148C179.041 131.469 179.137 131.703 179.328 131.852C179.52 131.996 179.771 132.068 180.084 132.068C180.561 132.068 180.955 131.934 181.268 131.664C181.584 131.391 181.742 130.99 181.742 130.463V129.9ZM187.449 132.004C187.629 132.004 187.807 131.988 187.982 131.957C188.158 131.922 188.318 131.881 188.463 131.834V132.877C188.311 132.943 188.113 133 187.871 133.047C187.629 133.094 187.377 133.117 187.115 133.117C186.748 133.117 186.418 133.057 186.125 132.936C185.832 132.811 185.6 132.598 185.428 132.297C185.256 131.996 185.17 131.58 185.17 131.049V127.562H184.285V126.947L185.234 126.461L185.686 125.072H186.553V126.514H188.41V127.562H186.553V131.031C186.553 131.359 186.635 131.604 186.799 131.764C186.963 131.924 187.18 132.004 187.449 132.004ZM191.158 126.514V133H189.781V126.514H191.158ZM190.479 124.029C190.689 124.029 190.871 124.086 191.023 124.199C191.18 124.312 191.258 124.508 191.258 124.785C191.258 125.059 191.18 125.254 191.023 125.371C190.871 125.484 190.689 125.541 190.479 125.541C190.26 125.541 190.074 125.484 189.922 125.371C189.773 125.254 189.699 125.059 189.699 124.785C189.699 124.508 189.773 124.312 189.922 124.199C190.074 124.086 190.26 124.029 190.479 124.029ZM198.875 129.742C198.875 130.281 198.805 130.76 198.664 131.178C198.523 131.596 198.318 131.949 198.049 132.238C197.779 132.523 197.455 132.742 197.076 132.895C196.697 133.043 196.27 133.117 195.793 133.117C195.348 133.117 194.939 133.043 194.568 132.895C194.197 132.742 193.875 132.523 193.602 132.238C193.332 131.949 193.123 131.596 192.975 131.178C192.826 130.76 192.752 130.281 192.752 129.742C192.752 129.027 192.875 128.422 193.121 127.926C193.371 127.426 193.727 127.045 194.188 126.783C194.648 126.521 195.197 126.391 195.834 126.391C196.432 126.391 196.959 126.521 197.416 126.783C197.873 127.045 198.23 127.426 198.488 127.926C198.746 128.426 198.875 129.031 198.875 129.742ZM194.17 129.742C194.17 130.215 194.227 130.619 194.34 130.955C194.457 131.291 194.637 131.549 194.879 131.729C195.121 131.904 195.434 131.992 195.816 131.992C196.199 131.992 196.512 131.904 196.754 131.729C196.996 131.549 197.174 131.291 197.287 130.955C197.4 130.619 197.457 130.215 197.457 129.742C197.457 129.27 197.4 128.869 197.287 128.541C197.174 128.209 196.996 127.957 196.754 127.785C196.512 127.609 196.197 127.521 195.811 127.521C195.24 127.521 194.824 127.713 194.562 128.096C194.301 128.479 194.17 129.027 194.17 129.742ZM203.838 126.391C204.568 126.391 205.137 126.58 205.543 126.959C205.953 127.334 206.158 127.938 206.158 128.77V133H204.781V129.027C204.781 128.523 204.678 128.146 204.471 127.896C204.264 127.643 203.943 127.516 203.51 127.516C202.881 127.516 202.443 127.709 202.197 128.096C201.955 128.482 201.834 129.043 201.834 129.777V133H200.457V126.514H201.529L201.723 127.393H201.799C201.939 127.166 202.113 126.98 202.32 126.836C202.531 126.688 202.766 126.576 203.023 126.502C203.285 126.428 203.557 126.391 203.838 126.391ZM212.445 131.148C212.445 131.574 212.342 131.934 212.135 132.227C211.928 132.52 211.625 132.742 211.227 132.895C210.832 133.043 210.348 133.117 209.773 133.117C209.32 133.117 208.93 133.084 208.602 133.018C208.277 132.955 207.971 132.857 207.682 132.725V131.535C207.99 131.68 208.336 131.805 208.719 131.91C209.105 132.016 209.471 132.068 209.814 132.068C210.268 132.068 210.594 131.998 210.793 131.857C210.992 131.713 211.092 131.521 211.092 131.283C211.092 131.143 211.051 131.018 210.969 130.908C210.891 130.795 210.742 130.68 210.523 130.562C210.309 130.441 209.992 130.297 209.574 130.129C209.164 129.965 208.818 129.801 208.537 129.637C208.256 129.473 208.043 129.275 207.898 129.045C207.754 128.811 207.682 128.512 207.682 128.148C207.682 127.574 207.908 127.139 208.361 126.842C208.818 126.541 209.422 126.391 210.172 126.391C210.57 126.391 210.945 126.432 211.297 126.514C211.652 126.592 212 126.707 212.34 126.859L211.906 127.896C211.613 127.768 211.318 127.662 211.021 127.58C210.729 127.494 210.43 127.451 210.125 127.451C209.77 127.451 209.498 127.506 209.311 127.615C209.127 127.725 209.035 127.881 209.035 128.084C209.035 128.236 209.08 128.365 209.17 128.471C209.26 128.576 209.414 128.682 209.633 128.787C209.855 128.893 210.164 129.023 210.559 129.18C210.945 129.328 211.279 129.484 211.561 129.648C211.846 129.809 212.064 130.006 212.217 130.24C212.369 130.475 212.445 130.777 212.445 131.148ZM222.705 126.514V133H221.621L221.434 132.127H221.357C221.221 132.35 221.047 132.535 220.836 132.684C220.625 132.828 220.391 132.936 220.133 133.006C219.875 133.08 219.604 133.117 219.318 133.117C218.83 133.117 218.412 133.035 218.064 132.871C217.721 132.703 217.457 132.445 217.273 132.098C217.09 131.75 216.998 131.301 216.998 130.75V126.514H218.381V130.492C218.381 130.996 218.482 131.373 218.686 131.623C218.893 131.873 219.213 131.998 219.646 131.998C220.064 131.998 220.396 131.912 220.643 131.74C220.889 131.568 221.062 131.314 221.164 130.979C221.27 130.643 221.322 130.23 221.322 129.742V126.514H222.705ZM229.039 131.148C229.039 131.574 228.936 131.934 228.729 132.227C228.521 132.52 228.219 132.742 227.82 132.895C227.426 133.043 226.941 133.117 226.367 133.117C225.914 133.117 225.523 133.084 225.195 133.018C224.871 132.955 224.564 132.857 224.275 132.725V131.535C224.584 131.68 224.93 131.805 225.312 131.91C225.699 132.016 226.064 132.068 226.408 132.068C226.861 132.068 227.188 131.998 227.387 131.857C227.586 131.713 227.686 131.521 227.686 131.283C227.686 131.143 227.645 131.018 227.562 130.908C227.484 130.795 227.336 130.68 227.117 130.562C226.902 130.441 226.586 130.297 226.168 130.129C225.758 129.965 225.412 129.801 225.131 129.637C224.85 129.473 224.637 129.275 224.492 129.045C224.348 128.811 224.275 128.512 224.275 128.148C224.275 127.574 224.502 127.139 224.955 126.842C225.412 126.541 226.016 126.391 226.766 126.391C227.164 126.391 227.539 126.432 227.891 126.514C228.246 126.592 228.594 126.707 228.934 126.859L228.5 127.896C228.207 127.768 227.912 127.662 227.615 127.58C227.322 127.494 227.023 127.451 226.719 127.451C226.363 127.451 226.092 127.506 225.904 127.615C225.721 127.725 225.629 127.881 225.629 128.084C225.629 128.236 225.674 128.365 225.764 128.471C225.854 128.576 226.008 128.682 226.227 128.787C226.449 128.893 226.758 129.023 227.152 129.18C227.539 129.328 227.873 129.484 228.154 129.648C228.439 129.809 228.658 130.006 228.811 130.24C228.963 130.475 229.039 130.777 229.039 131.148ZM231.904 126.514V133H230.527V126.514H231.904ZM231.225 124.029C231.436 124.029 231.617 124.086 231.77 124.199C231.926 124.312 232.004 124.508 232.004 124.785C232.004 125.059 231.926 125.254 231.77 125.371C231.617 125.484 231.436 125.541 231.225 125.541C231.006 125.541 230.82 125.484 230.668 125.371C230.52 125.254 230.445 125.059 230.445 124.785C230.445 124.508 230.52 124.312 230.668 124.199C230.82 124.086 231.006 124.029 231.225 124.029ZM237.26 126.391C237.99 126.391 238.559 126.58 238.965 126.959C239.375 127.334 239.58 127.938 239.58 128.77V133H238.203V129.027C238.203 128.523 238.1 128.146 237.893 127.896C237.686 127.643 237.365 127.516 236.932 127.516C236.303 127.516 235.865 127.709 235.619 128.096C235.377 128.482 235.256 129.043 235.256 129.777V133H233.879V126.514H234.951L235.145 127.393H235.221C235.361 127.166 235.535 126.98 235.742 126.836C235.953 126.688 236.188 126.576 236.445 126.502C236.707 126.428 236.979 126.391 237.26 126.391ZM243.359 135.883C242.48 135.883 241.807 135.725 241.338 135.408C240.869 135.092 240.635 134.648 240.635 134.078C240.635 133.68 240.76 133.342 241.01 133.064C241.26 132.791 241.617 132.602 242.082 132.496C241.906 132.418 241.754 132.297 241.625 132.133C241.5 131.965 241.438 131.779 241.438 131.576C241.438 131.334 241.506 131.127 241.643 130.955C241.779 130.783 241.984 130.617 242.258 130.457C241.918 130.312 241.645 130.078 241.438 129.754C241.234 129.426 241.133 129.041 241.133 128.6C241.133 128.131 241.232 127.732 241.432 127.404C241.631 127.072 241.922 126.82 242.305 126.648C242.688 126.473 243.15 126.385 243.693 126.385C243.811 126.385 243.938 126.393 244.074 126.408C244.215 126.42 244.344 126.436 244.461 126.455C244.582 126.471 244.674 126.488 244.736 126.508H246.98V127.275L245.879 127.48C245.984 127.629 246.068 127.799 246.131 127.99C246.193 128.178 246.225 128.383 246.225 128.605C246.225 129.277 245.992 129.807 245.527 130.193C245.066 130.576 244.43 130.768 243.617 130.768C243.422 130.76 243.232 130.744 243.049 130.721C242.908 130.807 242.801 130.902 242.727 131.008C242.652 131.109 242.615 131.225 242.615 131.354C242.615 131.459 242.652 131.545 242.727 131.611C242.801 131.674 242.91 131.721 243.055 131.752C243.203 131.783 243.383 131.799 243.594 131.799H244.713C245.424 131.799 245.967 131.949 246.342 132.25C246.717 132.551 246.904 132.992 246.904 133.574C246.904 134.312 246.6 134.881 245.99 135.279C245.381 135.682 244.504 135.883 243.359 135.883ZM243.412 134.916C243.893 134.916 244.297 134.869 244.625 134.775C244.953 134.682 245.201 134.547 245.369 134.371C245.537 134.199 245.621 133.994 245.621 133.756C245.621 133.545 245.568 133.383 245.463 133.27C245.357 133.156 245.199 133.078 244.988 133.035C244.777 132.992 244.516 132.971 244.203 132.971H243.184C242.93 132.971 242.705 133.01 242.51 133.088C242.314 133.17 242.162 133.287 242.053 133.439C241.947 133.592 241.895 133.775 241.895 133.99C241.895 134.287 242.025 134.516 242.287 134.676C242.553 134.836 242.928 134.916 243.412 134.916ZM243.682 129.865C244.084 129.865 244.383 129.756 244.578 129.537C244.773 129.314 244.871 129.002 244.871 128.6C244.871 128.162 244.77 127.834 244.566 127.615C244.367 127.396 244.07 127.287 243.676 127.287C243.289 127.287 242.994 127.398 242.791 127.621C242.592 127.844 242.492 128.174 242.492 128.611C242.492 129.006 242.592 129.314 242.791 129.537C242.994 129.756 243.291 129.865 243.682 129.865ZM253.461 133.117C252.688 133.117 252.066 132.836 251.598 132.273C251.133 131.707 250.9 130.873 250.9 129.771C250.9 128.658 251.137 127.816 251.609 127.246C252.086 126.676 252.713 126.391 253.49 126.391C253.818 126.391 254.105 126.436 254.352 126.525C254.598 126.611 254.809 126.729 254.984 126.877C255.164 127.025 255.316 127.191 255.441 127.375H255.506C255.486 127.254 255.463 127.08 255.436 126.854C255.412 126.623 255.4 126.41 255.4 126.215V123.883H256.783V133H255.705L255.459 132.115H255.4C255.283 132.303 255.135 132.473 254.955 132.625C254.779 132.773 254.568 132.893 254.322 132.982C254.08 133.072 253.793 133.117 253.461 133.117ZM253.848 131.998C254.438 131.998 254.854 131.828 255.096 131.488C255.338 131.148 255.463 130.639 255.471 129.959V129.777C255.471 129.051 255.354 128.494 255.119 128.107C254.885 127.717 254.457 127.521 253.836 127.521C253.34 127.521 252.961 127.723 252.699 128.125C252.441 128.523 252.312 129.08 252.312 129.795C252.312 130.51 252.441 131.057 252.699 131.436C252.961 131.811 253.344 131.998 253.848 131.998ZM261.342 126.391C261.92 126.391 262.416 126.51 262.83 126.748C263.244 126.986 263.562 127.324 263.785 127.762C264.008 128.199 264.119 128.723 264.119 129.332V130.07H259.789C259.805 130.699 259.973 131.184 260.293 131.523C260.617 131.863 261.07 132.033 261.652 132.033C262.066 132.033 262.438 131.994 262.766 131.916C263.098 131.834 263.439 131.715 263.791 131.559V132.678C263.467 132.83 263.137 132.941 262.801 133.012C262.465 133.082 262.062 133.117 261.594 133.117C260.957 133.117 260.396 132.994 259.912 132.748C259.432 132.498 259.055 132.127 258.781 131.635C258.512 131.143 258.377 130.531 258.377 129.801C258.377 129.074 258.5 128.457 258.746 127.949C258.992 127.441 259.338 127.055 259.783 126.789C260.229 126.523 260.748 126.391 261.342 126.391ZM261.342 127.428C260.908 127.428 260.557 127.568 260.287 127.85C260.021 128.131 259.865 128.543 259.818 129.086H262.771C262.768 128.762 262.713 128.475 262.607 128.225C262.506 127.975 262.35 127.779 262.139 127.639C261.932 127.498 261.666 127.428 261.342 127.428ZM268.086 132.004C268.266 132.004 268.443 131.988 268.619 131.957C268.795 131.922 268.955 131.881 269.1 131.834V132.877C268.947 132.943 268.75 133 268.508 133.047C268.266 133.094 268.014 133.117 267.752 133.117C267.385 133.117 267.055 133.057 266.762 132.936C266.469 132.811 266.236 132.598 266.064 132.297C265.893 131.996 265.807 131.58 265.807 131.049V127.562H264.922V126.947L265.871 126.461L266.322 125.072H267.189V126.514H269.047V127.562H267.189V131.031C267.189 131.359 267.271 131.604 267.436 131.764C267.6 131.924 267.816 132.004 268.086 132.004ZM272.961 126.391C273.781 126.391 274.4 126.572 274.818 126.936C275.24 127.299 275.451 127.865 275.451 128.635V133H274.473L274.209 132.08H274.162C273.979 132.314 273.789 132.508 273.594 132.66C273.398 132.812 273.172 132.926 272.914 133C272.66 133.078 272.35 133.117 271.982 133.117C271.596 133.117 271.25 133.047 270.945 132.906C270.641 132.762 270.4 132.543 270.225 132.25C270.049 131.957 269.961 131.586 269.961 131.137C269.961 130.469 270.209 129.967 270.705 129.631C271.205 129.295 271.959 129.109 272.967 129.074L274.092 129.033V128.693C274.092 128.244 273.986 127.924 273.775 127.732C273.568 127.541 273.275 127.445 272.896 127.445C272.572 127.445 272.258 127.492 271.953 127.586C271.648 127.68 271.352 127.795 271.062 127.932L270.617 126.959C270.934 126.791 271.293 126.654 271.695 126.549C272.102 126.443 272.523 126.391 272.961 126.391ZM274.086 129.9L273.248 129.93C272.561 129.953 272.078 130.07 271.801 130.281C271.523 130.492 271.385 130.781 271.385 131.148C271.385 131.469 271.48 131.703 271.672 131.852C271.863 131.996 272.115 132.068 272.428 132.068C272.904 132.068 273.299 131.934 273.611 131.664C273.928 131.391 274.086 130.99 274.086 130.463V129.9ZM278.756 126.514V133H277.379V126.514H278.756ZM278.076 124.029C278.287 124.029 278.469 124.086 278.621 124.199C278.777 124.312 278.855 124.508 278.855 124.785C278.855 125.059 278.777 125.254 278.621 125.371C278.469 125.484 278.287 125.541 278.076 125.541C277.857 125.541 277.672 125.484 277.52 125.371C277.371 125.254 277.297 125.059 277.297 124.785C277.297 124.508 277.371 124.312 277.52 124.199C277.672 124.086 277.857 124.029 278.076 124.029ZM282.113 133H280.73V123.883H282.113V133ZM286.666 126.391C287.244 126.391 287.74 126.51 288.154 126.748C288.568 126.986 288.887 127.324 289.109 127.762C289.332 128.199 289.443 128.723 289.443 129.332V130.07H285.113C285.129 130.699 285.297 131.184 285.617 131.523C285.941 131.863 286.395 132.033 286.977 132.033C287.391 132.033 287.762 131.994 288.09 131.916C288.422 131.834 288.764 131.715 289.115 131.559V132.678C288.791 132.83 288.461 132.941 288.125 133.012C287.789 133.082 287.387 133.117 286.918 133.117C286.281 133.117 285.721 132.994 285.236 132.748C284.756 132.498 284.379 132.127 284.105 131.635C283.836 131.143 283.701 130.531 283.701 129.801C283.701 129.074 283.824 128.457 284.07 127.949C284.316 127.441 284.662 127.055 285.107 126.789C285.553 126.523 286.072 126.391 286.666 126.391ZM286.666 127.428C286.232 127.428 285.881 127.568 285.611 127.85C285.346 128.131 285.189 128.543 285.143 129.086H288.096C288.092 128.762 288.037 128.475 287.932 128.225C287.83 127.975 287.674 127.779 287.463 127.639C287.256 127.498 286.99 127.428 286.666 127.428ZM293.176 133.117C292.402 133.117 291.781 132.836 291.312 132.273C290.848 131.707 290.615 130.873 290.615 129.771C290.615 128.658 290.852 127.816 291.324 127.246C291.801 126.676 292.428 126.391 293.205 126.391C293.533 126.391 293.82 126.436 294.066 126.525C294.312 126.611 294.523 126.729 294.699 126.877C294.879 127.025 295.031 127.191 295.156 127.375H295.221C295.201 127.254 295.178 127.08 295.15 126.854C295.127 126.623 295.115 126.41 295.115 126.215V123.883H296.498V133H295.42L295.174 132.115H295.115C294.998 132.303 294.85 132.473 294.67 132.625C294.494 132.773 294.283 132.893 294.037 132.982C293.795 133.072 293.508 133.117 293.176 133.117ZM293.562 131.998C294.152 131.998 294.568 131.828 294.811 131.488C295.053 131.148 295.178 130.639 295.186 129.959V129.777C295.186 129.051 295.068 128.494 294.834 128.107C294.6 127.717 294.172 127.521 293.551 127.521C293.055 127.521 292.676 127.723 292.414 128.125C292.156 128.523 292.027 129.08 292.027 129.795C292.027 130.51 292.156 131.057 292.414 131.436C292.676 131.811 293.059 131.998 293.562 131.998ZM299.861 131.605L299.943 131.74C299.873 132.021 299.783 132.324 299.674 132.648C299.564 132.973 299.445 133.297 299.316 133.621C299.188 133.949 299.057 134.258 298.924 134.547H297.916C297.998 134.23 298.076 133.898 298.15 133.551C298.229 133.207 298.299 132.867 298.361 132.531C298.428 132.191 298.48 131.883 298.52 131.605H299.861ZM35.5977 149.117C34.9844 149.117 34.4531 148.998 34.0039 148.76C33.5547 148.521 33.209 148.156 32.9668 147.664C32.7246 147.172 32.6035 146.547 32.6035 145.789C32.6035 145 32.7363 144.355 33.002 143.855C33.2676 143.355 33.6348 142.986 34.1035 142.748C34.5762 142.51 35.1172 142.391 35.7266 142.391C36.1133 142.391 36.4629 142.43 36.7754 142.508C37.0918 142.582 37.3594 142.674 37.5781 142.783L37.168 143.885C36.9297 143.787 36.6855 143.705 36.4355 143.639C36.1855 143.572 35.9453 143.539 35.7148 143.539C35.3359 143.539 35.0195 143.623 34.7656 143.791C34.5156 143.959 34.3281 144.209 34.2031 144.541C34.082 144.873 34.0215 145.285 34.0215 145.777C34.0215 146.254 34.084 146.656 34.209 146.984C34.334 147.309 34.5195 147.555 34.7656 147.723C35.0117 147.887 35.3145 147.969 35.6738 147.969C36.0293 147.969 36.3477 147.926 36.6289 147.84C36.9102 147.754 37.1758 147.643 37.4258 147.506V148.701C37.1797 148.842 36.916 148.945 36.6348 149.012C36.3535 149.082 36.0078 149.117 35.5977 149.117ZM44.6035 142.514V149H43.5195L43.332 148.127H43.2559C43.1191 148.35 42.9453 148.535 42.7344 148.684C42.5234 148.828 42.2891 148.936 42.0312 149.006C41.7734 149.08 41.502 149.117 41.2168 149.117C40.7285 149.117 40.3105 149.035 39.9629 148.871C39.6191 148.703 39.3555 148.445 39.1719 148.098C38.9883 147.75 38.8965 147.301 38.8965 146.75V142.514H40.2793V146.492C40.2793 146.996 40.3809 147.373 40.584 147.623C40.791 147.873 41.1113 147.998 41.5449 147.998C41.9629 147.998 42.2949 147.912 42.541 147.74C42.7871 147.568 42.9609 147.314 43.0625 146.979C43.168 146.643 43.2207 146.23 43.2207 145.742V142.514H44.6035ZM50.9375 147.148C50.9375 147.574 50.834 147.934 50.627 148.227C50.4199 148.52 50.1172 148.742 49.7188 148.895C49.3242 149.043 48.8398 149.117 48.2656 149.117C47.8125 149.117 47.4219 149.084 47.0938 149.018C46.7695 148.955 46.4629 148.857 46.1738 148.725V147.535C46.4824 147.68 46.8281 147.805 47.2109 147.91C47.5977 148.016 47.9629 148.068 48.3066 148.068C48.7598 148.068 49.0859 147.998 49.2852 147.857C49.4844 147.713 49.584 147.521 49.584 147.283C49.584 147.143 49.543 147.018 49.4609 146.908C49.3828 146.795 49.2344 146.68 49.0156 146.562C48.8008 146.441 48.4844 146.297 48.0664 146.129C47.6562 145.965 47.3105 145.801 47.0293 145.637C46.748 145.473 46.5352 145.275 46.3906 145.045C46.2461 144.811 46.1738 144.512 46.1738 144.148C46.1738 143.574 46.4004 143.139 46.8535 142.842C47.3105 142.541 47.9141 142.391 48.6641 142.391C49.0625 142.391 49.4375 142.432 49.7891 142.514C50.1445 142.592 50.4922 142.707 50.832 142.859L50.3984 143.896C50.1055 143.768 49.8105 143.662 49.5137 143.58C49.2207 143.494 48.9219 143.451 48.6172 143.451C48.2617 143.451 47.9902 143.506 47.8027 143.615C47.6191 143.725 47.5273 143.881 47.5273 144.084C47.5273 144.236 47.5723 144.365 47.6621 144.471C47.752 144.576 47.9062 144.682 48.125 144.787C48.3477 144.893 48.6562 145.023 49.0508 145.18C49.4375 145.328 49.7715 145.484 50.0527 145.648C50.3379 145.809 50.5566 146.006 50.709 146.24C50.8613 146.475 50.9375 146.777 50.9375 147.148ZM54.8398 148.004C55.0195 148.004 55.1973 147.988 55.373 147.957C55.5488 147.922 55.709 147.881 55.8535 147.834V148.877C55.7012 148.943 55.5039 149 55.2617 149.047C55.0195 149.094 54.7676 149.117 54.5059 149.117C54.1387 149.117 53.8086 149.057 53.5156 148.936C53.2227 148.811 52.9902 148.598 52.8184 148.297C52.6465 147.996 52.5605 147.58 52.5605 147.049V143.562H51.6758V142.947L52.625 142.461L53.0762 141.072H53.9434V142.514H55.8008V143.562H53.9434V147.031C53.9434 147.359 54.0254 147.604 54.1895 147.764C54.3535 147.924 54.5703 148.004 54.8398 148.004ZM62.9141 145.742C62.9141 146.281 62.8438 146.76 62.7031 147.178C62.5625 147.596 62.3574 147.949 62.0879 148.238C61.8184 148.523 61.4941 148.742 61.1152 148.895C60.7363 149.043 60.3086 149.117 59.832 149.117C59.3867 149.117 58.9785 149.043 58.6074 148.895C58.2363 148.742 57.9141 148.523 57.6406 148.238C57.3711 147.949 57.1621 147.596 57.0137 147.178C56.8652 146.76 56.791 146.281 56.791 145.742C56.791 145.027 56.9141 144.422 57.1602 143.926C57.4102 143.426 57.7656 143.045 58.2266 142.783C58.6875 142.521 59.2363 142.391 59.873 142.391C60.4707 142.391 60.998 142.521 61.4551 142.783C61.9121 143.045 62.2695 143.426 62.5273 143.926C62.7852 144.426 62.9141 145.031 62.9141 145.742ZM58.209 145.742C58.209 146.215 58.2656 146.619 58.3789 146.955C58.4961 147.291 58.6758 147.549 58.918 147.729C59.1602 147.904 59.4727 147.992 59.8555 147.992C60.2383 147.992 60.5508 147.904 60.793 147.729C61.0352 147.549 61.2129 147.291 61.3262 146.955C61.4395 146.619 61.4961 146.215 61.4961 145.742C61.4961 145.27 61.4395 144.869 61.3262 144.541C61.2129 144.209 61.0352 143.957 60.793 143.785C60.5508 143.609 60.2363 143.521 59.8496 143.521C59.2793 143.521 58.8633 143.713 58.6016 144.096C58.3398 144.479 58.209 145.027 58.209 145.742ZM71.8262 142.391C72.5527 142.391 73.0996 142.578 73.4668 142.953C73.8379 143.328 74.0234 143.93 74.0234 144.758V149H72.6465V145.004C72.6465 144.512 72.5508 144.141 72.3594 143.891C72.168 143.641 71.877 143.516 71.4863 143.516C70.9395 143.516 70.5449 143.691 70.3027 144.043C70.0645 144.391 69.9453 144.896 69.9453 145.561V149H68.5684V145.004C68.5684 144.676 68.5254 144.402 68.4395 144.184C68.3574 143.961 68.2305 143.795 68.0586 143.686C67.8867 143.572 67.6699 143.516 67.4082 143.516C67.0293 143.516 66.7266 143.602 66.5 143.773C66.2773 143.945 66.1172 144.199 66.0195 144.535C65.9219 144.867 65.873 145.275 65.873 145.76V149H64.4961V142.514H65.5684L65.7617 143.387H65.8379C65.9707 143.16 66.1348 142.975 66.3301 142.83C66.5293 142.682 66.75 142.572 66.9922 142.502C67.2344 142.428 67.4863 142.391 67.748 142.391C68.2324 142.391 68.6406 142.477 68.9727 142.648C69.3047 142.816 69.5527 143.074 69.7168 143.422H69.8223C70.0254 143.07 70.3086 142.811 70.6719 142.643C71.0352 142.475 71.4199 142.391 71.8262 142.391ZM77.3223 142.514V149H75.9453V142.514H77.3223ZM76.6426 140.029C76.8535 140.029 77.0352 140.086 77.1875 140.199C77.3438 140.312 77.4219 140.508 77.4219 140.785C77.4219 141.059 77.3438 141.254 77.1875 141.371C77.0352 141.484 76.8535 141.541 76.6426 141.541C76.4238 141.541 76.2383 141.484 76.0859 141.371C75.9375 141.254 75.8633 141.059 75.8633 140.785C75.8633 140.508 75.9375 140.312 76.0859 140.199C76.2383 140.086 76.4238 140.029 76.6426 140.029ZM83.6387 149H78.7109V148.15L81.9863 143.574H78.9102V142.514H83.5449V143.451L80.334 147.939H83.6387V149ZM87.623 142.391C88.2012 142.391 88.6973 142.51 89.1113 142.748C89.5254 142.986 89.8438 143.324 90.0664 143.762C90.2891 144.199 90.4004 144.723 90.4004 145.332V146.07H86.0703C86.0859 146.699 86.2539 147.184 86.5742 147.523C86.8984 147.863 87.3516 148.033 87.9336 148.033C88.3477 148.033 88.7188 147.994 89.0469 147.916C89.3789 147.834 89.7207 147.715 90.0723 147.559V148.678C89.748 148.83 89.418 148.941 89.082 149.012C88.7461 149.082 88.3438 149.117 87.875 149.117C87.2383 149.117 86.6777 148.994 86.1934 148.748C85.7129 148.498 85.3359 148.127 85.0625 147.635C84.793 147.143 84.6582 146.531 84.6582 145.801C84.6582 145.074 84.7812 144.457 85.0273 143.949C85.2734 143.441 85.6191 143.055 86.0645 142.789C86.5098 142.523 87.0293 142.391 87.623 142.391ZM87.623 143.428C87.1895 143.428 86.8379 143.568 86.5684 143.85C86.3027 144.131 86.1465 144.543 86.0996 145.086H89.0527C89.0488 144.762 88.9941 144.475 88.8887 144.225C88.7871 143.975 88.6309 143.779 88.4199 143.639C88.2129 143.498 87.9473 143.428 87.623 143.428ZM94.1328 149.117C93.3594 149.117 92.7383 148.836 92.2695 148.273C91.8047 147.707 91.5723 146.873 91.5723 145.771C91.5723 144.658 91.8086 143.816 92.2812 143.246C92.7578 142.676 93.3848 142.391 94.1621 142.391C94.4902 142.391 94.7773 142.436 95.0234 142.525C95.2695 142.611 95.4805 142.729 95.6562 142.877C95.8359 143.025 95.9883 143.191 96.1133 143.375H96.1777C96.1582 143.254 96.1348 143.08 96.1074 142.854C96.084 142.623 96.0723 142.41 96.0723 142.215V139.883H97.4551V149H96.377L96.1309 148.115H96.0723C95.9551 148.303 95.8066 148.473 95.627 148.625C95.4512 148.773 95.2402 148.893 94.9941 148.982C94.752 149.072 94.4648 149.117 94.1328 149.117ZM94.5195 147.998C95.1094 147.998 95.5254 147.828 95.7676 147.488C96.0098 147.148 96.1348 146.639 96.1426 145.959V145.777C96.1426 145.051 96.0254 144.494 95.791 144.107C95.5566 143.717 95.1289 143.521 94.5078 143.521C94.0117 143.521 93.6328 143.723 93.3711 144.125C93.1133 144.523 92.9844 145.08 92.9844 145.795C92.9844 146.51 93.1133 147.057 93.3711 147.436C93.6328 147.811 94.0156 147.998 94.5195 147.998ZM106.906 147.148C106.906 147.574 106.803 147.934 106.596 148.227C106.389 148.52 106.086 148.742 105.688 148.895C105.293 149.043 104.809 149.117 104.234 149.117C103.781 149.117 103.391 149.084 103.062 149.018C102.738 148.955 102.432 148.857 102.143 148.725V147.535C102.451 147.68 102.797 147.805 103.18 147.91C103.566 148.016 103.932 148.068 104.275 148.068C104.729 148.068 105.055 147.998 105.254 147.857C105.453 147.713 105.553 147.521 105.553 147.283C105.553 147.143 105.512 147.018 105.43 146.908C105.352 146.795 105.203 146.68 104.984 146.562C104.77 146.441 104.453 146.297 104.035 146.129C103.625 145.965 103.279 145.801 102.998 145.637C102.717 145.473 102.504 145.275 102.359 145.045C102.215 144.811 102.143 144.512 102.143 144.148C102.143 143.574 102.369 143.139 102.822 142.842C103.279 142.541 103.883 142.391 104.633 142.391C105.031 142.391 105.406 142.432 105.758 142.514C106.113 142.592 106.461 142.707 106.801 142.859L106.367 143.896C106.074 143.768 105.779 143.662 105.482 143.58C105.189 143.494 104.891 143.451 104.586 143.451C104.23 143.451 103.959 143.506 103.771 143.615C103.588 143.725 103.496 143.881 103.496 144.084C103.496 144.236 103.541 144.365 103.631 144.471C103.721 144.576 103.875 144.682 104.094 144.787C104.316 144.893 104.625 145.023 105.02 145.18C105.406 145.328 105.74 145.484 106.021 145.648C106.307 145.809 106.525 146.006 106.678 146.24C106.83 146.475 106.906 146.777 106.906 147.148ZM109.777 149H108.395V139.883H109.777V149ZM113.123 142.514V149H111.746V142.514H113.123ZM112.443 140.029C112.654 140.029 112.836 140.086 112.988 140.199C113.145 140.312 113.223 140.508 113.223 140.785C113.223 141.059 113.145 141.254 112.988 141.371C112.836 141.484 112.654 141.541 112.443 141.541C112.225 141.541 112.039 141.484 111.887 141.371C111.738 141.254 111.664 141.059 111.664 140.785C111.664 140.508 111.738 140.312 111.887 140.199C112.039 140.086 112.225 140.029 112.443 140.029ZM117.277 149.117C116.504 149.117 115.883 148.836 115.414 148.273C114.949 147.707 114.717 146.873 114.717 145.771C114.717 144.658 114.953 143.816 115.426 143.246C115.902 142.676 116.529 142.391 117.307 142.391C117.635 142.391 117.922 142.436 118.168 142.525C118.414 142.611 118.625 142.729 118.801 142.877C118.98 143.025 119.133 143.191 119.258 143.375H119.322C119.303 143.254 119.279 143.08 119.252 142.854C119.229 142.623 119.217 142.41 119.217 142.215V139.883H120.6V149H119.521L119.275 148.115H119.217C119.1 148.303 118.951 148.473 118.771 148.625C118.596 148.773 118.385 148.893 118.139 148.982C117.896 149.072 117.609 149.117 117.277 149.117ZM117.664 147.998C118.254 147.998 118.67 147.828 118.912 147.488C119.154 147.148 119.279 146.639 119.287 145.959V145.777C119.287 145.051 119.17 144.494 118.936 144.107C118.701 143.717 118.273 143.521 117.652 143.521C117.156 143.521 116.777 143.723 116.516 144.125C116.258 144.523 116.129 145.08 116.129 145.795C116.129 146.51 116.258 147.057 116.516 147.436C116.777 147.811 117.16 147.998 117.664 147.998ZM125.158 142.391C125.736 142.391 126.232 142.51 126.646 142.748C127.061 142.986 127.379 143.324 127.602 143.762C127.824 144.199 127.936 144.723 127.936 145.332V146.07H123.605C123.621 146.699 123.789 147.184 124.109 147.523C124.434 147.863 124.887 148.033 125.469 148.033C125.883 148.033 126.254 147.994 126.582 147.916C126.914 147.834 127.256 147.715 127.607 147.559V148.678C127.283 148.83 126.953 148.941 126.617 149.012C126.281 149.082 125.879 149.117 125.41 149.117C124.773 149.117 124.213 148.994 123.729 148.748C123.248 148.498 122.871 148.127 122.598 147.635C122.328 147.143 122.193 146.531 122.193 145.801C122.193 145.074 122.316 144.457 122.562 143.949C122.809 143.441 123.154 143.055 123.6 142.789C124.045 142.523 124.564 142.391 125.158 142.391ZM125.158 143.428C124.725 143.428 124.373 143.568 124.104 143.85C123.838 144.131 123.682 144.543 123.635 145.086H126.588C126.584 144.762 126.529 144.475 126.424 144.225C126.322 143.975 126.166 143.779 125.955 143.639C125.748 143.498 125.482 143.428 125.158 143.428ZM133.848 147.148C133.848 147.574 133.744 147.934 133.537 148.227C133.33 148.52 133.027 148.742 132.629 148.895C132.234 149.043 131.75 149.117 131.176 149.117C130.723 149.117 130.332 149.084 130.004 149.018C129.68 148.955 129.373 148.857 129.084 148.725V147.535C129.393 147.68 129.738 147.805 130.121 147.91C130.508 148.016 130.873 148.068 131.217 148.068C131.67 148.068 131.996 147.998 132.195 147.857C132.395 147.713 132.494 147.521 132.494 147.283C132.494 147.143 132.453 147.018 132.371 146.908C132.293 146.795 132.145 146.68 131.926 146.562C131.711 146.441 131.395 146.297 130.977 146.129C130.566 145.965 130.221 145.801 129.939 145.637C129.658 145.473 129.445 145.275 129.301 145.045C129.156 144.811 129.084 144.512 129.084 144.148C129.084 143.574 129.311 143.139 129.764 142.842C130.221 142.541 130.824 142.391 131.574 142.391C131.973 142.391 132.348 142.432 132.699 142.514C133.055 142.592 133.402 142.707 133.742 142.859L133.309 143.896C133.016 143.768 132.721 143.662 132.424 143.58C132.131 143.494 131.832 143.451 131.527 143.451C131.172 143.451 130.9 143.506 130.713 143.615C130.529 143.725 130.438 143.881 130.438 144.084C130.438 144.236 130.482 144.365 130.572 144.471C130.662 144.576 130.816 144.682 131.035 144.787C131.258 144.893 131.566 145.023 131.961 145.18C132.348 145.328 132.682 145.484 132.963 145.648C133.248 145.809 133.467 146.006 133.619 146.24C133.771 146.475 133.848 146.777 133.848 147.148ZM135.137 148.273C135.137 147.953 135.219 147.729 135.383 147.6C135.551 147.467 135.754 147.4 135.992 147.4C136.23 147.4 136.434 147.467 136.602 147.6C136.773 147.729 136.859 147.953 136.859 148.273C136.859 148.586 136.773 148.812 136.602 148.953C136.434 149.09 136.23 149.158 135.992 149.158C135.754 149.158 135.551 149.09 135.383 148.953C135.219 148.812 135.137 148.586 135.137 148.273Z" fill="#D2D8DA"/>
<path d="M120 186.406C120 176.241 128.294 168 138.525 168H257.475C267.706 168 276 176.241 276 186.406V273.594C276 283.759 267.706 292 257.475 292H138.525C128.294 292 120 283.759 120 273.594V186.406ZM156.075 224.188C153.383 224.188 151.2 226.356 151.2 229.031C151.2 231.706 153.383 233.875 156.075 233.875H224.325C227.017 233.875 229.2 231.706 229.2 229.031C229.2 226.356 227.017 224.188 224.325 224.188H156.075ZM151.2 254.219C151.2 256.894 153.383 259.062 156.075 259.062H208.725C211.417 259.062 213.6 256.894 213.6 254.219C213.6 251.544 211.417 249.375 208.725 249.375H156.075C153.383 249.375 151.2 251.544 151.2 254.219ZM156.075 199C153.383 199 151.2 201.169 151.2 203.844C151.2 206.519 153.383 208.688 156.075 208.688H193.125C195.817 208.688 198 206.519 198 203.844C198 201.169 195.817 199 193.125 199H156.075Z" fill="#E7EFF3"/>
<defs>
<linearGradient id="paint0_linear_27487_9286" x1="-111.375" y1="161.999" x2="308.784" y2="450.86" gradientUnits="userSpaceOnUse">
<stop stop-color="#111111"/>
<stop offset="0.63" stop-color="#096258"/>
<stop offset="1" stop-color="#00B39F"/>
</linearGradient>
<linearGradient id="paint1_linear_27487_9286" x1="175.74" y1="86.3306" x2="175.74" y2="89.9763" gradientUnits="userSpaceOnUse">
<stop stop-color="#BF360C" stop-opacity="0.2"/>
<stop offset="1" stop-color="#BF360C" stop-opacity="0.02"/>
</linearGradient>
<radialGradient id="paint2_radial_27487_9286" cx="0" cy="0" r="1" gradientUnits="userSpaceOnUse" gradientTransform="translate(166.373 82.3136) scale(19.0098 18.5029)">
<stop stop-color="white" stop-opacity="0.1"/>
<stop offset="1" stop-color="white" stop-opacity="0"/>
</radialGradient>
<clipPath id="clip0_27487_9286">
<rect width="12" height="16" fill="white" transform="translate(166 82)"/>
</clipPath>
</defs>
</svg>
