<svg width="444" height="328" viewBox="0 0 444 328" fill="none" xmlns="http://www.w3.org/2000/svg">
<path d="M37.7676 16.9883V34.1568L52.9222 25.5276L37.7676 16.9883Z" fill="#00D3A9"/>
<path d="M37.7676 37.752V55.0553L53.0596 46.4261L37.7676 37.752Z" fill="#00D3A9"/>
<path d="M35.5789 34.0688V17.125L20.6074 25.5744L35.5789 34.0688Z" fill="#00B39F"/>
<path d="M5.50391 54.9661C8.43411 59.5953 12.4174 63.5504 17.1332 66.4717V48.3594L5.50391 54.9661Z" fill="#00B39F"/>
<path d="M35.5759 54.9673V37.8887L20.5586 46.428L35.5759 54.9673Z" fill="#00B39F"/>
<path d="M19.3105 65.3932L34.5109 56.8538L19.3105 48.2246V65.3932Z" fill="#00D3A9"/>
<path d="M54.1222 65.483V48.3145L38.9219 56.8538L54.1222 65.483Z" fill="#00B39F"/>
<path d="M69.0025 52.988C71.6122 48.2239 73.0773 42.9655 73.3062 37.5723L57.4648 46.4711L69.0025 52.988Z" fill="#00B39F"/>
<path d="M56.3105 44.6295L71.6025 36.0452L56.3105 27.4609V44.6295Z" fill="#00D3A9"/>
<path d="M54.1147 23.731V6.69727L39.0059 15.1916L54.1147 23.731Z" fill="#00B39F"/>
<path d="M54.1117 44.5396V27.3711L38.957 35.9554L54.1117 44.5396Z" fill="#00B39F"/>
<path d="M19.3105 27.3242V44.6725L34.6025 35.9534L19.3105 27.3242Z" fill="#00D3A9"/>
<path d="M35.577 0C29.9455 0.134831 24.4514 1.57304 19.4609 4.17978L35.577 13.2584V0Z" fill="#00B39F"/>
<path d="M19.3105 6.5625V23.8209L34.6025 15.1917L19.3105 6.5625Z" fill="#00D3A9"/>
<path d="M17.1332 5.52734C12.4174 8.44869 8.43411 12.3588 5.50391 17.033L17.1332 23.6397V5.57229V5.52734Z" fill="#00B39F"/>
<path d="M54.021 4.26966C49.0305 1.61797 43.4448 0.179775 37.7676 0V13.3933L54.021 4.26966Z" fill="#00D3A9"/>
<path d="M0 37.2578C0.183138 42.8308 1.69398 48.2241 4.39527 53.123L16.1619 46.4264L0 37.2578Z" fill="#00D3A9"/>
<path d="M4.39527 18.875C1.69398 23.7289 0.228922 29.1671 0 34.6952L16.1619 25.5716L4.34944 18.875H4.39527Z" fill="#00D3A9"/>
<path d="M19.4609 67.7759C24.4514 70.3827 29.9455 71.8209 35.577 71.9557V58.6973L19.4609 67.731V67.7759Z" fill="#00B39F"/>
<path d="M67.8482 17.0779C64.918 12.4486 60.9806 8.53854 56.3105 5.61719V23.6397L67.8482 17.0779Z" fill="#00D3A9"/>
<path d="M56.3105 66.4268C61.0263 63.5055 64.9638 59.5504 67.894 54.8762L56.3105 48.3145V66.4718V66.4268Z" fill="#00D3A9"/>
<path d="M73.337 34.5623C73.1081 29.0792 71.643 23.7309 68.9875 18.9219L57.3125 25.5286L73.337 34.5623Z" fill="#00B39F"/>
<path d="M37.7676 71.9987C43.3991 71.8639 48.8931 70.4257 53.8836 67.8189L37.7676 58.6504V71.9987Z" fill="#00D3A9"/>
<path d="M17.1345 44.4946V27.5059L2.11719 35.9553L17.1345 44.4946Z" fill="#00B39F"/>
<path d="M308.74 22.1315V24.0558V32.5547V42.978V58.3723H350.069V49.713H317.398V42.978V41.214H342.555V32.5547H317.398V24.0558H350.069V15.3965H308.74V22.1315Z" fill="#3C494E"/>
<path d="M149.305 22.1315V24.0558V32.5547V42.978V58.3723H190.797V49.713H158.126V42.978V41.214H183.283V32.5547H158.126V24.0558H190.797V15.3965H149.305V22.1315Z" fill="#3C494E"/>
<path d="M248.135 47.1473C248.135 48.7508 247.809 50.1941 247.155 51.4769C246.502 52.9201 245.685 54.0426 244.705 55.0048C243.725 55.9669 242.418 56.7687 241.111 57.4101C239.641 58.0516 238.171 58.3723 236.7 58.3723H195.861V49.3923H236.7C237.354 49.3923 237.844 49.2319 238.334 48.7508C238.824 48.2698 238.987 47.7887 238.987 47.1473V43.6194C238.987 42.978 238.824 42.4969 238.334 42.0158C237.844 41.5348 237.354 41.3744 236.7 41.3744H207.296C205.663 41.3744 204.193 41.0537 202.886 40.4123C201.415 39.7708 200.272 38.969 199.292 38.0069C198.312 37.0447 197.495 35.7619 196.841 34.479C196.188 33.1962 195.861 31.7529 195.861 30.1494V26.6215C195.861 25.0179 196.188 23.5747 196.841 22.2919C197.495 21.009 198.312 19.7261 199.292 18.764C200.272 17.8018 201.579 17.0001 202.886 16.3586C204.193 15.7172 205.663 15.3965 207.296 15.3965H248.135V24.5369H207.296C206.643 24.5369 206.153 24.6972 205.663 25.1783C205.173 25.6594 205.009 26.1404 205.009 26.7819V30.3097C205.009 30.9512 205.173 31.4322 205.663 31.9133C206.153 32.3944 206.643 32.5547 207.296 32.5547H236.7C238.334 32.5547 239.804 32.8755 241.111 33.5169C242.418 34.1583 243.725 34.9601 244.705 35.9222C245.685 36.8844 246.502 38.1672 247.155 39.4501C247.809 40.8933 248.135 42.3365 248.135 43.7798V47.1473Z" fill="#3C494E"/>
<path d="M303.188 58.3723H294.857V41.5348H262.349V58.3723H254.018V32.3944H294.857V15.3965H303.188V58.3723ZM262.349 28.3854H254.018V15.5568H262.349V28.3854Z" fill="#3C494E"/>
<path d="M422.112 30.4701L411.168 15.3965H400.223L417.702 41.214V58.3723H426.523V41.214L444.002 15.3965H433.221L422.112 30.4701Z" fill="#3C494E"/>
<path d="M364.936 23.5747H387.316V26.6215V29.6683V32.7151H369.347V40.8933H373.431L389.276 58.5326H400.058L384.212 40.8933H389.766C389.93 40.8933 390.093 40.8933 390.42 40.8933C394.177 40.8933 397.281 37.8465 397.281 34.1583V29.6683V26.6215V22.1315C397.281 18.4433 394.177 15.3965 390.42 15.3965C390.256 15.3965 390.093 15.3965 389.766 15.3965H364.773H364.609H356.441V58.2119H365.099L364.936 23.5747Z" fill="#3C494E"/>
<path d="M141.791 22.6126C139.994 18.4433 135.584 15.3965 130.846 15.5568H88.0469V24.6972V58.5326H97.3582V24.5368C110.1 24.5368 131.336 24.3765 131.826 24.6972C135.094 23.7351 132.807 57.0894 133.46 58.2119H142.771C142.281 55.3255 143.588 24.5368 141.791 22.6126Z" fill="#3C494E"/>
<path d="M120.067 29.3477H110.756V58.3724H120.067V29.3477Z" fill="#3C494E"/>
<g clip-path="url(#clip0_26975_10022)">
<path d="M225.148 168.92V218.49L268.118 193.62L225.148 168.92Z" fill="#00D3A9"/>
<path d="M225.148 228.859V278.669L268.508 253.879L225.148 228.859Z" fill="#00D3A9"/>
<path d="M218.971 218.15V169.34L176.531 193.66L218.971 218.15Z" fill="#00B39F"/>
<path d="M133.852 278.499C142.181 291.885 153.437 303.209 166.772 311.619V259.439L133.852 278.499Z" fill="#00B39F"/>
<path d="M218.97 278.441V229.221L176.43 253.851L218.97 278.441Z" fill="#00B39F"/>
<path d="M172.949 308.51L216.029 283.88L172.949 258.98V308.51Z" fill="#00D3A9"/>
<path d="M271.461 308.78V259.32L228.441 283.91L271.461 308.78Z" fill="#00B39F"/>
<path d="M313.6 272.75C320.959 259.031 325.116 243.824 325.76 228.27L280.93 253.9L313.6 272.75Z" fill="#00B39F"/>
<path d="M277.641 248.66L320.871 223.94L277.641 199.09V248.66Z" fill="#00D3A9"/>
<path d="M271.461 188.4V139.25L228.641 163.79L271.461 188.4Z" fill="#00B39F"/>
<path d="M271.459 248.44V198.83L228.539 223.68L271.459 248.44Z" fill="#00B39F"/>
<path d="M172.949 198.74V248.71L216.179 223.69L172.949 198.74Z" fill="#00D3A9"/>
<path d="M219 120C203.081 120.431 187.478 124.538 173.41 132L219 158.23V120Z" fill="#00B39F"/>
<path d="M172.949 138.91V188.58L216.219 163.78L172.949 138.91Z" fill="#00D3A9"/>
<path d="M166.77 135.891C153.434 144.3 142.176 155.62 133.84 169.001L166.77 188.001V135.891Z" fill="#00B39F"/>
<path d="M271.168 132.28C256.993 124.661 241.235 120.456 225.148 120V158.66L271.168 132.28Z" fill="#00D3A9"/>
<path d="M118.32 227.4C118.855 243.407 123.107 259.071 130.74 273.15L164.08 253.85L118.32 227.4Z" fill="#00D3A9"/>
<path d="M130.728 174.369C123.137 188.386 118.893 203.969 118.328 219.899L164.128 193.649L130.728 174.369Z" fill="#00D3A9"/>
<path d="M173.32 315.43C187.409 322.934 203.044 327.072 219 327.52V289.33L173.32 315.43Z" fill="#00B39F"/>
<path d="M310.361 169.16C302.082 155.81 290.897 144.499 277.641 136.07V188.07L310.361 169.16Z" fill="#00D3A9"/>
<path d="M277.641 311.439C290.98 302.966 302.22 291.573 310.511 278.119L277.641 259.119V311.439Z" fill="#00D3A9"/>
<path d="M325.781 219.63C325.179 203.846 320.964 188.41 313.461 174.51L280.461 193.6L325.781 219.63Z" fill="#00B39F"/>
<path d="M225.148 327.519C241.051 327.085 256.637 322.978 270.688 315.519L225.148 289.199V327.519Z" fill="#00D3A9"/>
<path d="M166.769 248.26V199.26L124.199 223.66L166.769 248.26Z" fill="#00B39F"/>
</g>
<defs>
<clipPath id="clip0_26975_10022">
<rect width="208" height="208" fill="white" transform="translate(118 120)"/>
</clipPath>
</defs>
</svg>
