<?xml version="1.0" encoding="iso-8859-1"?>
<!-- Uploaded to: SVG Repo, www.svgrepo.com, Generator: SVG Repo Mixer Tools -->
<!DOCTYPE svg PUBLIC "-//W3C//DTD SVG 1.1//EN" "http://www.w3.org/Graphics/SVG/1.1/DTD/svg11.dtd">
<svg fill="#000000" height="800px" width="800px" version="1.1" id="Capa_1" xmlns="http://www.w3.org/2000/svg" xmlns:xlink="http://www.w3.org/1999/xlink" 
	 viewBox="0 0 263.976 263.976" xml:space="preserve">
<g>
	<path d="M149.763,36.21c3.01-3.811,4.871-8.616,4.871-13.837C154.634,10.036,144.628,0,132.291,0s-22.358,10.036-22.358,22.373
		c0,5.222,1.597,10.026,4.605,13.837c-9.211,5.839-15.55,16.117-15.55,27.807v27.22c0,4.143,3.785,7.739,7.928,7.739h50.811
		c4.143,0,7.262-3.597,7.262-7.739v-27.22C164.988,52.327,158.976,42.048,149.763,36.21z"/>
	<path d="M81.988,124.539v-27.22c0-11.689-5.754-21.969-14.967-27.807c3.01-3.811,5-8.616,5-13.837
		c0-12.337-9.942-22.373-22.279-22.373S27.416,43.339,27.416,55.676c0,5.222,1.855,10.026,4.863,13.837
		c-9.212,5.839-15.292,16.117-15.292,27.807v27.22c0,4.143,3.301,7.437,7.443,7.437h50.811
		C79.384,131.976,81.988,128.682,81.988,124.539z"/>
	<path d="M232.034,69.513c3.008-3.811,5.006-8.616,5.006-13.837c0-12.337-9.939-22.373-22.276-22.373
		c-12.337,0-22.325,10.036-22.325,22.373c0,5.222,1.843,10.026,4.852,13.837c-9.212,5.839-15.304,16.117-15.304,27.807v27.22
		c0,4.143,3.326,7.437,7.469,7.437h50.811c4.143,0,6.721-3.294,6.721-7.437v-27.22C246.988,85.63,241.245,75.351,232.034,69.513z"/>
	<path d="M149.763,201.464c3.01-3.811,4.871-8.615,4.871-13.836c0-12.337-10.006-22.373-22.343-22.373s-22.358,10.036-22.358,22.373
		c0,5.221,1.597,10.026,4.605,13.837c-9.211,5.839-15.55,16.117-15.55,27.807v27.22c0,4.143,3.785,7.484,7.928,7.484h50.811
		c4.143,0,7.262-3.342,7.262-7.484v-27.22C164.988,217.581,158.976,207.304,149.763,201.464z M132.321,180.255
		c4.065,0,7.373,3.308,7.373,7.373c0,4.066-3.308,7.373-7.373,7.373s-7.373-3.308-7.373-7.373
		C124.948,183.563,128.255,180.255,132.321,180.255z M149.988,248.976h-36v-19.704c0-9.874,8.127-17.906,18.001-17.906
		c9.872,0,17.999,8.032,17.999,17.906V248.976z"/>
	<path d="M138.988,138.555v-24.854c0-4.143-3.357-7.5-7.5-7.5c-4.143,0-7.5,3.357-7.5,7.5v24.854c0,4.143,3.357,7.5,7.5,7.5
		C135.63,146.055,138.988,142.697,138.988,138.555z"/>
	<path d="M59.331,140.177c-3.009-2.847-7.753-2.718-10.604,0.289c-2.848,3.008-2.718,7.755,0.289,10.604l37.709,35.707
		c1.451,1.373,3.305,2.054,5.156,2.054c1.987,0,3.972-0.786,5.447-2.343c2.848-3.008,2.718-7.755-0.289-10.604L59.331,140.177z"/>
	<path d="M205.241,140.071l-37.606,35.789c-3.001,2.855-3.118,7.603-0.263,10.603c1.474,1.55,3.452,2.33,5.434,2.33
		c1.857,0,3.718-0.686,5.169-2.067l37.606-35.789c3.001-2.855,3.118-7.602,0.263-10.602
		C212.989,137.332,208.241,137.217,205.241,140.071z"/>
</g>
</svg>