<svg width="91" height="90" viewBox="0 0 91 90" fill="none" xmlns="http://www.w3.org/2000/svg">
<g clip-path="url(#clip0_5059_4434)">
<path d="M51.8601 61.2098C46.8619 61.22 41.9964 59.6017 38.0001 56.5998C37.4077 56.1609 37.0132 55.5054 36.9027 54.7765C36.7921 54.0477 36.9745 53.3046 37.4101 52.7098C37.4801 52.6098 40.6501 49.4198 40.6501 49.4198C41.0892 48.95 41.68 48.6502 42.3185 48.5734C42.957 48.4966 43.6021 48.6476 44.1401 48.9998C46.7049 50.831 49.8352 51.695 52.9762 51.4388C56.1172 51.1825 59.066 49.8225 61.3001 47.5998L76.3001 32.5998C80.8401 28.0598 81.9601 20.8298 78.3701 15.5098C74.2901 9.36983 65.3701 7.06983 58.3001 13.2798C57.5401 13.9498 49.4101 21.8798 49.4101 21.8798C49.1592 22.1323 48.8608 22.3327 48.5321 22.4694C48.2035 22.6061 47.851 22.6765 47.4951 22.6765C47.1391 22.6765 46.7867 22.6061 46.458 22.4694C46.1294 22.3327 45.831 22.1323 45.5801 21.8798L42.5801 18.8798C42.072 18.37 41.7867 17.6796 41.7867 16.9598C41.7867 16.2401 42.072 15.5497 42.5801 15.0398L50.3201 7.30983C58.7801 -1.17017 72.6001 -2.57017 81.8301 5.05983C86.5397 8.93197 89.5191 14.5157 90.1136 20.5836C90.708 26.6516 88.8687 32.7074 85.0001 37.4198C84.5201 37.9998 68.0801 54.4898 68.0801 54.4898C65.9508 56.621 63.4222 58.3114 60.639 59.4645C57.8559 60.6176 54.8727 61.2106 51.8601 61.2098Z" fill="black"/>
<path d="M39.1096 28.0002C44.1216 27.9812 49.0013 29.6078 52.9996 32.6302C53.5912 33.0673 53.9855 33.721 54.0961 34.4483C54.2067 35.1755 54.0246 35.917 53.5896 36.5102C53.5196 36.6202 50.3496 39.8102 50.3496 39.8102C49.9106 40.2733 49.3237 40.5686 48.6902 40.6453C48.0567 40.722 47.4164 40.5752 46.8796 40.2302C44.3155 38.3971 41.1847 37.5318 38.0432 37.7882C34.9017 38.0445 31.9526 39.4057 29.7196 41.6302L14.7196 56.6302C10.1296 61.1602 8.99956 68.3902 12.5996 73.7202C16.6696 79.8502 25.5996 82.1602 32.6696 75.9502C33.4296 75.2802 41.5596 67.3402 41.5596 67.3402C41.8105 67.0877 42.1089 66.8873 42.4375 66.7506C42.7662 66.6139 43.1186 66.5435 43.4746 66.5435C43.8305 66.5435 44.1829 66.6139 44.5116 66.7506C44.8403 66.8873 45.1386 67.0877 45.3896 67.3402L48.3896 70.3402C48.8934 70.8542 49.1757 71.5453 49.1757 72.2652C49.1757 72.985 48.8934 73.6761 48.3896 74.1902L40.6496 81.9202C32.1896 90.4002 18.3696 91.8002 9.13955 84.1702C4.42549 80.3023 1.44029 74.7208 0.840224 68.6526C0.240159 62.5845 2.07434 56.5264 5.93955 51.8102C6.41955 51.2202 22.8596 34.7402 22.8596 34.7402C24.9908 32.6019 27.5235 30.9057 30.3121 29.749C33.1008 28.5923 36.0905 27.998 39.1096 28.0002Z" fill="black"/>
</g>
<defs>
<clipPath id="clip0_5059_4434">
<rect width="91" height="90" fill="white"/>
</clipPath>
</defs>
</svg>
