<svg xmlns="http://www.w3.org/2000/svg" width="49" height="82" viewBox="0 0 49 82" fill="none">
  <g filter="url(#filter0_d_16599_40261)">
    <path d="M14.2969 1.78413C14.1777 0.964326 13.4164 0.396392 12.5966 0.515615C11.7768 0.634837 11.2089 1.39607 11.3281 2.21587L14.2969 1.78413ZM24.0866 59.1074L23.375 60.4278L23.4254 60.455L23.4777 60.4782L24.0866 59.1074ZM43.3815 68.8383C44.1546 68.5408 44.5402 67.6728 44.2426 66.8996L39.3936 54.3006C39.096 53.5274 38.228 53.1419 37.4549 53.4394C36.6818 53.737 36.2962 54.605 36.5938 55.3781L40.904 66.5773L29.7048 70.8875C28.9317 71.1851 28.5462 72.0531 28.8437 72.8262C29.1413 73.5994 30.0093 73.9849 30.7824 73.6873L43.3815 68.8383ZM12.8125 2C11.3281 2.21587 11.3281 2.21583 11.3281 2.21593C11.3282 2.21615 11.3282 2.2164 11.3283 2.21685C11.3284 2.21775 11.3286 2.21923 11.3289 2.22128C11.3295 2.22539 11.3304 2.23178 11.3316 2.24042C11.3341 2.2577 11.3379 2.28399 11.3428 2.31901C11.3527 2.38904 11.3674 2.49397 11.3861 2.63155C11.4237 2.90674 11.4778 3.31248 11.5433 3.83085C11.6744 4.86775 11.8512 6.35441 12.033 8.14757C12.3969 11.7376 12.7794 16.5394 12.8587 21.413C12.9383 26.3067 12.71 31.1844 11.8883 34.9634C11.4769 36.8552 10.9346 38.3847 10.268 39.485C9.60674 40.5763 8.89527 41.1343 8.15929 41.3351L8.94879 44.2294C10.6629 43.7618 11.9222 42.5441 12.8337 41.0396C13.7398 39.5441 14.3725 37.6578 14.8198 35.6009C15.7153 31.4826 15.9391 26.3319 15.8583 21.3642C15.7771 16.3764 15.3866 11.4839 15.0177 7.84498C14.833 6.02367 14.6534 4.51218 14.5196 3.45457C14.4528 2.92568 14.3974 2.51007 14.3586 2.22571C14.3391 2.08353 14.3239 1.97414 14.3134 1.8998C14.3081 1.86263 14.3041 1.83422 14.3013 1.81484C14.2999 1.80516 14.2989 1.79773 14.2981 1.7926C14.2977 1.79004 14.2975 1.78804 14.2972 1.78663C14.2971 1.78592 14.2971 1.7853 14.297 1.78494C14.2969 1.78446 14.2969 1.78413 12.8125 2ZM8.15929 41.3351C6.7713 41.7137 5.51492 42.4113 5.01005 43.7065C4.50932 44.9911 4.9813 46.2711 5.56128 47.2345C6.73055 49.1768 9.21146 51.2889 11.7579 53.1568C14.3673 55.0709 17.2737 56.8887 19.5146 58.2217C20.6379 58.8899 21.6 59.4398 22.2823 59.8232C22.6236 60.015 22.8951 60.1653 23.0821 60.268C23.1756 60.3194 23.248 60.3589 23.2974 60.3858C23.3221 60.3992 23.3411 60.4095 23.3541 60.4166C23.3606 60.4201 23.3656 60.4228 23.3691 60.4247C23.3709 60.4256 23.3722 60.4263 23.3732 60.4269C23.3737 60.4271 23.3741 60.4274 23.3744 60.4275C23.3747 60.4277 23.375 60.4278 24.0866 59.1074C24.7982 57.7869 24.7982 57.7869 24.7982 57.7869C24.7981 57.7868 24.7979 57.7868 24.7976 57.7866C24.7971 57.7863 24.7961 57.7858 24.7948 57.7851C24.7922 57.7837 24.788 57.7814 24.7824 57.7784C24.7711 57.7723 24.7539 57.7629 24.731 57.7505C24.6852 57.7255 24.6165 57.6881 24.5268 57.6388C24.3475 57.5403 24.0844 57.3946 23.752 57.2079C23.0872 56.8343 22.1468 56.2968 21.0483 55.6433C18.8455 54.3331 16.0312 52.5709 13.5323 50.7378C10.9705 48.8587 8.95578 47.0565 8.1315 45.6873C7.93804 45.3659 7.84897 45.1291 7.81589 44.9722C7.80018 44.8976 7.79914 44.8507 7.80044 44.8265C7.80165 44.8042 7.80496 44.7966 7.8052 44.796C7.80538 44.7956 7.80937 44.7843 7.82882 44.7608C7.84952 44.7358 7.89226 44.6919 7.97329 44.6352C8.14209 44.5171 8.4437 44.3671 8.94879 44.2294L8.15929 41.3351ZM23.4777 60.4782L42.2338 68.8093L43.4516 66.0676L24.6955 57.7365L23.4777 60.4782Z" fill="#EBC017"/>
  </g>
  <defs>
    <filter id="filter0_d_16599_40261" x="0.796875" y="0.499756" width="47.5469" height="81.2881" filterUnits="userSpaceOnUse" color-interpolation-filters="sRGB">
      <feFlood flood-opacity="0" result="BackgroundImageFix"/>
      <feColorMatrix in="SourceAlpha" type="matrix" values="0 0 0 0 0 0 0 0 0 0 0 0 0 0 0 0 0 0 127 0" result="hardAlpha"/>
      <feOffset dy="4"/>
      <feGaussianBlur stdDeviation="2"/>
      <feComposite in2="hardAlpha" operator="out"/>
      <feColorMatrix type="matrix" values="0 0 0 0 0 0 0 0 0 0 0 0 0 0 0 0 0 0 0.25 0"/>
      <feBlend mode="normal" in2="BackgroundImageFix" result="effect1_dropShadow_16599_40261"/>
      <feBlend mode="normal" in="SourceGraphic" in2="effect1_dropShadow_16599_40261" result="shape"/>
    </filter>
  </defs>
</svg>