<?xml version="1.0" encoding="utf-8"?>
<!-- Generator: Adobe Illustrator 26.0.2, SVG Export Plug-In . SVG Version: 6.00 Build 0)  -->
<svg version="1.1" id="Layer_1" xmlns="http://www.w3.org/2000/svg" xmlns:xlink="http://www.w3.org/1999/xlink" x="0px" y="0px"
	 viewBox="0 0 83.5 19" style="enable-background:new 0 0 83.5 19;" xml:space="preserve">
<style type="text/css">
	.st0{fill:#FFFFFF;}
	.st1{opacity:0.8;}
</style>
<g>
	<g>
		<path class="st0" d="M2.2,19C0.9,19,0,18.6,0,18.6v-1.1c0,0,1.4,0.4,2.1,0.4c0.7,0,1.4-0.1,1.4-1c0-0.7-0.5-0.8-1.1-1l-0.6-0.2
			c-0.7-0.2-1.9-0.5-1.9-2c0-1.6,1.3-2,2.7-2c1.2,0,1.9,0.4,1.9,0.4v1.1c0,0-0.9-0.4-2-0.4c-0.9,0-1.4,0.2-1.4,0.9
			c0,0.6,0.5,0.8,1.1,1L3,14.9c0.8,0.2,1.8,0.7,1.8,2C4.8,18.6,3.6,19,2.2,19 M9.5,19c1.3,0,3.2-0.4,3.2-3.6c0-3.2-2-3.6-3.2-3.6
			c-1.3,0-3.2,0.5-3.2,3.6C6.2,18.6,8.1,19,9.5,19 M9.5,12.8c0.7,0,1.9,0.2,1.9,2.6c0,2.3-1.3,2.6-1.9,2.6c-0.5,0-1.9-0.2-1.9-2.6
			C7.5,13,8.7,12.8,9.5,12.8 M14.4,18.9h1.3V9.7h-1.3V18.9z M23.2,18.9v-4.7c0-1.8-1-2.4-2.6-2.4c-1.4,0-2.6,0.5-2.6,0.5v1.1
			c0,0,1.3-0.5,2.4-0.5c0.9,0,1.4,0.2,1.4,1.1v0.6h-1.5c-1.1,0-2.9,0.4-2.9,2.3c0,1.7,1.2,2.1,2.2,2.1c1.5,0,2.3-1,2.3-1l0.1,0.9
			H23.2z M21.9,17.1c0,0-0.9,0.9-1.9,0.9c-0.7,0-1.2-0.3-1.2-1.1c0-1.1,0.7-1.4,1.9-1.4l1.2,0V17.1z M27.9,13c0.7,0,1.1,0.2,1.1,0.2
			V12c0,0-0.3-0.2-0.9-0.2c-1.2,0-1.6,1.1-1.6,1.1l-0.2-1h-1v6.9h1.3v-5C26.6,13.8,27.2,13,27.9,13 M41.1,12h-1.5l-0.8,4
			c-0.2,1-0.4,2.3-0.4,2.3s-0.3-1.4-0.6-2.3l-1.2-4h-1.9l-1.2,4c-0.3,0.9-0.5,2.3-0.5,2.3s-0.2-1.4-0.4-2.3l-0.8-4h-1.5l1.8,6.9h1.8
			l1.1-3.7c0.3-1,0.7-2.6,0.7-2.6s0.4,1.6,0.7,2.6l1.1,3.7h1.8L41.1,12z M42.8,18.9h1.3v-7h-1.3V18.9z M52.2,18.9v-4.7
			c0-1.8-1-2.3-2.2-2.3c-1.5,0-2.6,1.1-2.6,1.1l-0.3-1h-1v6.9h1.3v-5c0,0,1.1-0.9,2.3-0.9c0.9,0,1.2,0.3,1.2,1.2v4.7H52.2z M60,18.9
			V9.7h-1.3v2.8c0,0-0.6-0.7-1.8-0.7c-0.9,0-3.1,0.4-3.1,3.6c0,3.1,1.8,3.6,2.9,3.6c1.5,0,2.2-1,2.2-1l0.1,0.9H60z M58.7,17.2
			c0,0-0.9,0.8-1.8,0.8c-0.8,0-1.8-0.3-1.8-2.6c0-2.2,1-2.5,2-2.5c1,0,1.7,0.7,1.7,0.7V17.2z M64,19c1.4,0,2.6-0.4,2.6-2.1
			c0-1.3-1-1.8-1.8-2l-0.7-0.2c-0.6-0.2-1.1-0.3-1.1-1c0-0.7,0.5-0.9,1.4-0.9c1.1,0,2,0.4,2,0.4v-1.1c0,0-0.7-0.4-1.9-0.4
			c-1.4,0-2.7,0.4-2.7,2c0,1.5,1.2,1.8,1.9,2l0.6,0.2c0.6,0.2,1.1,0.3,1.1,1c0,0.8-0.7,1-1.4,1c-0.8,0-2.1-0.4-2.1-0.4v1.1
			C61.9,18.6,62.7,19,64,19"/>
	</g>
	<g class="st1">
		<path class="st0" d="M72.7,7.8c-0.9,0.3-1.9,0.5-2.8,0.8c-1.9-1.7-4.3-2.8-7-3.1c2.1-1.5,6.6-4.3,13.2-4.3l-1.6,1.5
			c0,0,6.9-0.2,8.6-2.6c0,0.2-0.2,0.5-0.2,0.7c-0.5,1.5-1.4,2.6-2.5,3.5c-1.1,0.9-2.3,1.5-3.6,2c-1.3,0.5-2.6,1.1-3.9,1.4
			C72.8,7.7,72.8,7.7,72.7,7.8 M83.5,7.5c0,0-6.4-0.5-12.9,1.6c0.9,0.9,1.6,2,2.2,3.1C76.2,10.3,81,7.9,83.5,7.5 M73.2,13.3
			c0.4,1,0.7,2.1,0.8,3.3l6-6.2L73.2,13.3z M76.4,16.5c0.3,0,0.5-0.2,0.5-0.5c0-0.3-0.3-0.5-0.5-0.5c-0.3,0-0.5,0.2-0.5,0.5
			C75.9,16.4,76.2,16.5,76.4,16.5 M76.4,15.6c0.2,0,0.4,0.1,0.4,0.4c0,0.3-0.2,0.4-0.4,0.4c-0.2,0-0.4-0.1-0.4-0.4
			C76,15.7,76.2,15.6,76.4,15.6 M76.7,16.3l0-0.1c0,0,0-0.1-0.1-0.1c0.1,0,0.1-0.1,0.1-0.1c0-0.1-0.1-0.2-0.2-0.2h-0.2v0.5h0.1v-0.2
			l0.1,0c0,0,0,0.1,0.1,0.1l0,0.1H76.7z"/>
	</g>
</g>
</svg>
