<svg width="43" height="43" viewBox="0 0 43 43" fill="none" xmlns="http://www.w3.org/2000/svg">
<path d="M5.375 32.25H18.8125V34.9375H5.375V32.25Z" fill="black"/>
<path d="M5.375 24.1875H18.8125V26.875H5.375V24.1875Z" fill="black"/>
<path d="M34.9375 18.8125H8.0625C7.34973 18.8125 6.66615 18.5294 6.16215 18.0253C5.65815 17.5213 5.375 16.8378 5.375 16.125V8.0625C5.375 7.34973 5.65815 6.66615 6.16215 6.16215C6.66615 5.65815 7.34973 5.375 8.0625 5.375H34.9375C35.6503 5.375 36.3338 5.65815 36.8378 6.16215C37.3419 6.66615 37.625 7.34973 37.625 8.0625V16.125C37.625 16.8378 37.3419 17.5213 36.8378 18.0253C36.3338 18.5294 35.6503 18.8125 34.9375 18.8125ZM8.0625 8.0625V16.125H34.9375V8.0625H8.0625Z" fill="black"/>
<path d="M34.9375 37.625H26.875C26.1622 37.625 25.4787 37.3419 24.9747 36.8378C24.4706 36.3338 24.1875 35.6503 24.1875 34.9375V26.875C24.1875 26.1622 24.4706 25.4787 24.9747 24.9747C25.4787 24.4706 26.1622 24.1875 26.875 24.1875H34.9375C35.6503 24.1875 36.3338 24.4706 36.8378 24.9747C37.3419 25.4787 37.625 26.1622 37.625 26.875V34.9375C37.625 35.6503 37.3419 36.3338 36.8378 36.8378C36.3338 37.3419 35.6503 37.625 34.9375 37.625ZM26.875 26.875V34.9375H34.9375V26.875H26.875Z" fill="black"/>
</svg>
