<svg width="74" height="25" viewBox="0 0 74 25" fill="none" xmlns="http://www.w3.org/2000/svg">
<path d="M72.6213 1.04057C71.1054 -0.334009 68.7417 -0.244083 67.1487 1.04057L55.2785 10.5341C53.8269 11.7032 52.0155 12.3327 50.1399 12.3327H34.9425C33.812 12.3327 32.8871 11.4077 32.8871 10.2772C32.8871 9.14672 33.812 8.22177 34.9425 8.22177H45.0013C47.0439 8.22177 48.9452 6.8215 49.2792 4.80459C49.7032 2.23529 47.7248 0 45.2197 0H24.6653C21.1967 0 17.8438 1.19472 15.146 3.37863L9.17241 8.22177H2.05544C0.924949 8.22177 0 9.14672 0 10.2772V22.6099C0 23.7404 0.924949 24.6653 2.05544 24.6653H47.8918C49.7545 24.6653 51.5659 24.0358 53.0304 22.8668L72.4543 7.32251C74.407 5.76808 74.5612 2.78769 72.6213 1.04057Z" fill="black"/>
</svg>
