<svg width="87" height="87" viewBox="0 0 87 87" fill="none" xmlns="http://www.w3.org/2000/svg">
<path d="M43.08 14.9598C43.08 6.97385 36.6063 0.5 28.6202 0.5H14.4598C6.47385 0.5 0 6.97385 0 14.9598C0 22.9456 6.47385 29.4194 14.4598 29.4194H17.232V36.4C17.232 36.4 43.08 32.9098 43.08 14.9598V14.9598Z" fill="#333333"/>
<path d="M29.9167 53.1533C29.9167 58.4426 25.6326 62.7267 20.3433 62.7267C15.0541 62.7267 10.77 58.4426 10.77 53.1533C10.77 47.8641 15.0541 43.58 20.3433 43.58C25.6326 43.58 29.9167 47.8641 29.9167 53.1533Z" fill="#333333"/>
<path d="M20.3433 67.5133C13.5537 67.5133 0 70.9341 0 77.725V86.66H40.6867V77.725C40.6867 70.9341 27.133 67.5133 20.3433 67.5133Z" fill="#333333"/>
<path d="M65.8167 62.7267C71.1059 62.7267 75.39 58.4426 75.39 53.1533C75.39 47.8641 71.1059 43.58 65.8167 43.58C60.5274 43.58 56.2433 47.8641 56.2433 53.1533C56.2433 58.4426 60.5274 62.7267 65.8167 62.7267Z" fill="#333333"/>
<path d="M65.8167 67.5133C59.027 67.5133 45.4733 70.9341 45.4733 77.725V86.66H86.16V77.725C86.16 70.9341 72.6063 67.5133 65.8167 67.5133Z" fill="#333333"/>
<path d="M62.3265 2.89333C54.3404 2.89333 47.8667 9.36718 47.8667 17.3531C47.8667 35.3031 70.8427 38.7933 70.8427 38.7933V31.8127H71.7002C79.6863 31.8127 86.16 25.339 86.16 17.3531C86.16 9.36718 79.6863 2.89333 71.7002 2.89333H62.3265Z" fill="#333333"/>
</svg>