<svg width="41" height="41" viewBox="0 0 41 41" fill="none" xmlns="http://www.w3.org/2000/svg">
<path d="M10.25 5.125V10.25H5.125V5.125H10.25ZM12.8125 2.5625H2.5625V12.8125H12.8125V2.5625ZM23.0625 5.125V10.25H17.9375V5.125H23.0625ZM25.625 2.5625H15.375V12.8125H25.625V2.5625ZM35.875 5.125V10.25H30.75V5.125H35.875ZM38.4375 2.5625H28.1875V12.8125H38.4375V2.5625ZM10.25 17.9375V23.0625H5.125V17.9375H10.25ZM12.8125 15.375H2.5625V25.625H12.8125V15.375ZM23.0625 17.9375V23.0625H17.9375V17.9375H23.0625ZM25.625 15.375H15.375V25.625H25.625V15.375ZM35.875 17.9375V23.0625H30.75V17.9375H35.875ZM38.4375 15.375H28.1875V25.625H38.4375V15.375ZM10.25 30.75V35.875H5.125V30.75H10.25ZM12.8125 28.1875H2.5625V38.4375H12.8125V28.1875ZM23.0625 30.75V35.875H17.9375V30.75H23.0625ZM25.625 28.1875H15.375V38.4375H25.625V28.1875ZM35.875 30.75V35.875H30.75V30.75H35.875ZM38.4375 28.1875H28.1875V38.4375H38.4375V28.1875Z" fill="black"/>
</svg>
