<svg xmlns="http://www.w3.org/2000/svg" width="100" height="100" viewBox="0 0 100 100" fill="none"><span xmlns="" id="lwys-ctv-port"/>
<path d="M54.745 5C55.128 5 55.511 5 55.894 5C55.906 5.009 55.917 5.024 55.93 5.026C57.019 5.175 57.91 5.719 58.73 6.412C59.586 7.136 60.342 7.962 61.089 8.792C62.44 10.294 64.057 11.319 66.042 11.772C67.092 12.012 68.134 12.295 69.163 12.626C71.296 13.313 72.592 14.716 73.004 16.939C73.211 18.054 73.349 19.177 73.496 20.3C73.72 22.006 74.272 23.569 75.363 24.922C76.079 25.809 76.8 26.694 77.495 27.599C78.167 28.474 78.726 29.41 78.906 30.527C78.932 30.691 78.894 30.864 78.972 31.02C78.972 31.097 78.972 31.174 78.972 31.25C78.959 31.284 78.936 31.319 78.936 31.354C78.914 32.077 78.706 32.755 78.439 33.419C77.999 34.517 77.416 35.545 76.817 36.559C75.734 38.393 75.398 40.358 75.587 42.456C75.693 43.629 75.762 44.807 75.671 45.989C75.542 47.666 74.811 48.976 73.405 49.914C72.418 50.571 71.34 51.048 70.278 51.558C69.338 52.01 68.405 52.473 67.593 53.141C66.727 53.851 66.119 54.773 65.517 55.699C65.45 55.803 65.5 55.888 65.53 55.981C66.174 57.944 66.818 59.908 67.462 61.871C69.204 67.178 70.945 72.486 72.687 77.793C73.632 80.672 74.579 83.551 75.524 86.43C75.615 86.707 75.676 86.99 75.662 87.286C75.638 87.765 75.323 88.012 74.859 87.904C74.777 87.885 74.696 87.86 74.617 87.831C71.763 86.791 68.902 85.768 66.059 84.699C65.073 84.328 64.055 84.849 63.645 85.645C62.078 88.695 60.499 91.74 58.928 94.788C58.791 95.054 58.618 95.275 58.329 95.384C58.299 95.384 58.268 95.384 58.237 95.384C57.923 95.281 57.739 95.044 57.609 94.758C57.565 94.661 57.528 94.56 57.494 94.458C55.902 89.609 54.309 84.76 52.718 79.911C51.744 76.944 50.77 73.978 49.796 71.012C49.654 70.579 49.509 70.148 49.351 69.671C49.316 69.774 49.296 69.824 49.283 69.876C48.896 71.333 48.51 72.791 48.123 74.247C46.374 80.829 44.623 87.41 42.873 93.991C42.802 94.259 42.706 94.517 42.521 94.732C42.291 95 41.998 95.019 41.738 94.784C41.617 94.674 41.526 94.544 41.444 94.404C40.324 92.505 39.202 90.605 38.081 88.707C37.466 87.665 36.843 86.628 36.236 85.581C35.777 84.787 34.745 84.297 33.745 84.756C32.166 85.482 30.558 86.142 28.962 86.828C27.746 87.351 26.531 87.877 25.313 88.395C24.711 88.651 24.319 88.384 24.307 87.728C24.302 87.472 24.346 87.225 24.411 86.98C26.054 80.805 27.698 74.631 29.341 68.457C30.52 64.028 31.696 59.599 32.881 55.17C32.932 54.98 32.889 54.92 32.704 54.876C32.064 54.723 31.43 54.548 30.807 54.333C30.292 54.155 29.795 53.938 29.321 53.668C28.032 52.937 27.363 51.776 27.022 50.381C26.714 49.12 26.606 47.828 26.427 46.548C26.2 44.934 25.684 43.444 24.668 42.146C24.201 41.548 23.723 40.96 23.244 40.372C22.566 39.54 21.897 38.703 21.436 37.723C21.229 37.285 21.12 36.819 21 36.355C21 35.987 21 35.62 21 35.251C21.014 35.217 21.037 35.185 21.042 35.15C21.106 34.685 21.234 34.237 21.396 33.798C21.811 32.671 22.432 31.648 22.999 30.598C23.469 29.729 23.927 28.853 24.171 27.887C24.466 26.719 24.404 25.533 24.338 24.347C24.277 23.262 24.187 22.18 24.256 21.089C24.367 19.341 25.108 17.974 26.584 17.008C27.646 16.312 28.794 15.784 29.946 15.268C31.792 14.44 33.26 13.212 34.297 11.46C34.834 10.551 35.398 9.655 36.041 8.814C36.662 8.002 37.363 7.281 38.306 6.843C39.358 6.355 40.467 6.327 41.593 6.45C42.766 6.579 43.914 6.857 45.076 7.049C45.924 7.19 46.776 7.279 47.636 7.179C48.649 7.06 49.598 6.712 50.542 6.351C51.671 5.92 52.779 5.428 53.964 5.161C54.224 5.103 54.485 5.054 54.745 5ZM68.924 33.499C68.917 23.119 60.644 14.608 50.163 14.533C39.532 14.456 31.019 22.911 31.024 33.466C31.029 43.885 39.331 52.361 49.864 52.425C60.414 52.489 68.924 43.985 68.924 33.499Z" fill="black"/>
</svg>

