<svg id="Layer_1" data-name="Layer 1" xmlns="http://www.w3.org/2000/svg" viewBox="0 0 371.13 236.88"><title>meshery-logo-light-text-pad</title><polygon points="188.19 51.29 188.19 93.21 224.52 72.18 188.19 51.29" style="fill:#00d3a9"/><polygon points="188.19 101.98 188.19 144.1 224.85 123.14 188.19 101.98" style="fill:#00d3a9"/><polygon points="182.96 92.92 182.96 51.65 147.07 72.22 182.96 92.92" style="fill:#00b39f"/><path d="M111,144a88.3,88.3,0,0,0,27.83,28V127.84Z" style="fill:#00b39f"/><polygon points="182.96 143.91 182.96 102.28 146.98 123.11 182.96 143.91" style="fill:#00b39f"/><polygon points="144.04 169.34 180.47 148.51 144.04 127.45 144.04 169.34" style="fill:#00d3a9"/><polygon points="227.34 169.56 227.34 127.74 190.97 148.54 227.34 169.56" style="fill:#00b39f"/><path d="M263,139.1a87.26,87.26,0,0,0,10.3-37.62l-37.92,21.68Z" style="fill:#00b39f"/><polygon points="232.57 118.72 269.13 97.82 232.57 76.81 232.57 118.72" style="fill:#00d3a9"/><polygon points="227.34 67.77 227.34 26.2 191.14 46.96 227.34 67.77" style="fill:#00b39f"/><polygon points="227.34 118.54 227.34 76.59 191.05 97.6 227.34 118.54" style="fill:#00b39f"/><polygon points="185.57 185.45 185.58 185.45 185.56 185.45 185.57 185.45" style="fill:#00b39f"/><polygon points="144.04 76.51 144.04 118.77 180.6 97.6 144.04 76.51" style="fill:#00d3a9"/><path d="M183,9.92a87.35,87.35,0,0,0-38.52,10.19L183,42.25Z" style="fill:#00b39f"/><polygon points="144.04 25.92 144.04 67.92 180.63 46.95 144.04 25.92" style="fill:#00d3a9"/><path d="M138.81,23.36a88.29,88.29,0,0,0-27.84,28l27.84,16.06Z" style="fill:#00b39f"/><path d="M227.1,20.31A87.54,87.54,0,0,0,188.19,9.92v32.7Z" style="fill:#00d3a9"/><path d="M97.85,100.75a87.35,87.35,0,0,0,10.49,38.69l28.2-16.33Z" style="fill:#00d3a9"/><path d="M108.34,55.91A87.34,87.34,0,0,0,97.85,94.4l38.73-22.2Z" style="fill:#00d3a9"/><path d="M144.36,175.19A87.34,87.34,0,0,0,183,185.41V153.12Z" style="fill:#00b39f"/><path d="M260.24,51.5a88.12,88.12,0,0,0-27.67-28v44Z" style="fill:#00d3a9"/><path d="M232.57,171.81a88.23,88.23,0,0,0,27.8-28.18l-27.8-16Z" style="fill:#00d3a9"/><path d="M273.28,94.17A87.36,87.36,0,0,0,262.86,56L235,72.16Z" style="fill:#00b39f"/><path d="M188.19,185.41a87.34,87.34,0,0,0,38.51-10.18L188.19,153Z" style="fill:#00d3a9"/><polygon points="138.81 118.39 138.81 76.95 102.82 97.58 138.81 118.39" style="fill:#00b39f"/><polygon points="218.94 202.4 218.94 203.86 218.94 210.69 218.94 219.02 218.94 231.18 251.31 231.18 251.31 224.35 225.77 224.35 225.77 219.02 225.77 217.52 245.39 217.52 245.39 210.69 225.77 210.69 225.77 203.86 251.31 203.86 251.31 197.03 218.94 197.03 218.94 202.4" style="fill:#3c494f"/><polygon points="94.41 202.4 94.41 203.86 94.41 210.69 94.41 219.02 94.41 231.18 126.78 231.18 126.78 224.35 101.24 224.35 101.24 219.02 101.24 217.52 120.86 217.52 120.86 210.69 101.24 210.69 101.24 203.86 126.78 203.86 126.78 197.03 94.41 197.03 94.41 202.4" style="fill:#3c494f"/><path d="M171.59,222.25a8.56,8.56,0,0,1-.7,3.46,9,9,0,0,1-1.94,2.85,9.52,9.52,0,0,1-2.84,1.91,8.78,8.78,0,0,1-3.49.71h-32V224h32a1.67,1.67,0,0,0,1.23-.5,1.64,1.64,0,0,0,.5-1.23v-2.78a1.71,1.71,0,0,0-1.73-1.73h-23a8.56,8.56,0,0,1-3.46-.7,9.15,9.15,0,0,1-2.87-1.94,9,9,0,0,1-1.93-2.87,8.53,8.53,0,0,1-.71-3.46V206a8.75,8.75,0,0,1,.71-3.49,9.14,9.14,0,0,1,4.8-4.78,8.56,8.56,0,0,1,3.46-.7h32v7.23h-32a1.64,1.64,0,0,0-1.23.51,1.67,1.67,0,0,0-.5,1.23v2.77a1.67,1.67,0,0,0,.5,1.23,1.64,1.64,0,0,0,1.23.5h23a8.78,8.78,0,0,1,3.49.71,9.4,9.4,0,0,1,2.84,1.93,9.18,9.18,0,0,1,1.94,2.85,8.69,8.69,0,0,1,.7,3.48Z" style="fill:#3c494f"/><path d="M214.67,231.18h-6.51V217.74h-25.4v13.44h-6.51V210.5h31.91V197h6.51ZM182.76,207.3h-6.51V197h6.51Z" style="fill:#3c494f"/><polygon points="307.61 208.98 299.07 197.03 290.53 197.03 304.19 217.52 304.19 231.18 311.02 231.18 311.02 217.52 324.68 197.03 316.25 197.03 307.61 208.98" style="fill:#3c494f"/><path d="M262.93,203.54h17.52v7.1H266.34v6.51h3.23l12.39,14h8.43l-12.38-14h4.83a5.3,5.3,0,0,0,5.3-5.3v-9.52a5.3,5.3,0,0,0-5.3-5.3h-26.6v34.15h6.83Z" style="fill:#3c494f"/><path d="M89.15,231.18H81.91V206.27a1.91,1.91,0,0,0-.16-.78,2,2,0,0,0-.43-.63,1.92,1.92,0,0,0-.64-.44,2,2,0,0,0-.77-.15H46.44V197H79.91a9,9,0,0,1,3.57.72,9.73,9.73,0,0,1,3,2,9.49,9.49,0,0,1,2,3,8.89,8.89,0,0,1,.73,3.58Zm-35.47,0H46.44V204.27l7.24-2Zm17.71,0H64.15V208.06h7.24Z" style="fill:#3c494f"/></svg>