<?xml version="1.0" standalone="no"?>
<!DOCTYPE svg PUBLIC "-//W3C//DTD SVG 20010904//EN"
 "http://www.w3.org/TR/2001/REC-SVG-20010904/DTD/svg10.dtd">
<svg version="1.0" xmlns="http://www.w3.org/2000/svg"
 width="294.000000pt" height="294.000000pt" viewBox="0 0 294.000000 294.000000"
 preserveAspectRatio="xMidYMid meet">

<g transform="translate(0.000000,294.000000) scale(0.100000,-0.100000)"
fill="#000000" stroke="none">
<path d="M1876 2918 c-35 -53 -88 -183 -108 -265 -14 -61 -21 -122 -22 -198
l-1 -110 -69 -2 c-182 -6 -356 -111 -430 -260 -1 -1 -32 7 -69 17 -129 36
-276 54 -437 54 -368 0 -635 -103 -720 -278 -19 -40 -21 -59 -18 -149 3 -88 7
-109 31 -157 66 -128 195 -251 344 -326 54 -28 73 -42 69 -54 -46 -136 -57
-191 -57 -285 0 -171 48 -307 159 -447 l46 -59 -31 -172 c-17 -95 -30 -173
-28 -175 2 -2 74 32 161 76 l159 79 54 -24 c231 -103 492 -75 701 74 l55 39
70 -71 c80 -81 186 -154 277 -192 52 -22 83 -27 176 -31 137 -5 180 8 250 76
93 92 127 209 119 412 -11 251 -96 525 -234 752 l-41 66 28 27 c36 35 89 133
106 199 26 96 18 187 -31 361 -5 18 5 23 84 48 104 33 208 92 303 171 102 85
120 140 61 186 -41 32 -64 25 -154 -50 -95 -80 -229 -151 -328 -174 l-65 -15
-69 65 c-77 73 -151 124 -236 161 -31 14 -59 30 -63 36 -13 20 -8 209 7 280 8
38 31 105 51 150 46 103 51 130 30 162 -14 21 -24 25 -66 25 -40 0 -52 -4 -64
-22z m-831 -958 c275 -55 405 -129 405 -228 0 -32 -2 -34 -27 -28 -225 49
-484 71 -669 57 -71 -6 -143 -13 -160 -17 -26 -5 -39 1 -85 38 -46 37 -119
135 -119 159 0 7 105 33 175 43 76 11 383 -4 480 -24z m-703 -98 c15 -26 45
-68 67 -94 l40 -45 -92 -33 c-50 -18 -109 -41 -130 -52 l-38 -19 -16 38 c-24
58 -21 125 7 166 24 35 93 85 120 86 8 1 27 -21 42 -47z m439 -207 c-57 -65
-100 -173 -116 -287 -3 -27 -8 -48 -10 -48 -2 0 -29 7 -60 15 -113 29 -241
103 -319 183 -45 47 -49 43 84 90 123 43 254 67 434 81 15 1 13 -5 -13 -34z
m379 14 c85 -10 242 -38 249 -45 10 -10 -88 -120 -142 -161 -134 -98 -276
-151 -431 -160 l-99 -6 6 59 c14 132 61 225 147 293 58 46 50 45 270 20z m847
-289 c106 -82 256 -343 326 -567 39 -122 79 -373 60 -373 -23 0 -113 30 -148
48 -83 43 -94 59 -110 157 -34 199 -110 421 -217 632 -56 112 -57 114 -35 123
33 14 93 5 124 -20z m-525 -56 c35 -25 64 -47 66 -49 2 -2 -10 -43 -26 -92
-28 -84 -49 -191 -55 -278 l-2 -40 -63 2 c-122 3 -254 91 -311 205 -43 85 -41
102 12 117 62 19 204 95 262 140 28 22 51 40 52 40 2 1 31 -20 65 -45z m391
-131 c36 -76 78 -174 93 -219 l28 -80 -31 -65 c-40 -82 -121 -160 -208 -200
-35 -16 -67 -29 -69 -29 -13 0 -48 145 -53 220 -10 160 43 359 123 465 19 25
39 45 43 45 4 0 37 -62 74 -137z m-1168 -130 c86 -336 388 -568 734 -562 104
2 104 1 118 -26 8 -14 12 -32 10 -39 -3 -7 -33 -32 -66 -54 -192 -128 -402
-128 -619 -1 -86 51 -220 190 -264 274 -80 154 -89 308 -26 456 19 45 20 46
56 40 36 -6 37 -7 57 -88z m1351 -408 c14 -66 18 -138 19 -272 0 -100 -3 -184
-7 -188 -4 -4 -34 8 -67 25 -73 39 -202 170 -248 252 l-31 57 66 31 c86 40
158 97 202 158 21 30 38 45 42 38 3 -6 15 -52 24 -101z m147 -235 c19 -11 66
-28 105 -38 40 -10 74 -21 77 -24 3 -3 0 -29 -6 -58 -21 -100 -110 -162 -206
-144 -31 6 -34 9 -29 33 3 14 9 77 12 139 4 61 8 112 10 112 2 0 18 -9 37 -20z"/>
<path d="M2933 1050 c0 -30 2 -43 4 -27 2 15 2 39 0 55 -2 15 -4 2 -4 -28z"/>
</g>
</svg>
