<svg xmlns="http://www.w3.org/2000/svg" viewBox="0 0 62.362 62.362"><defs><style>.st0{fill:#fff}</style></defs><g id="Ebene_3_flach_x5F_pfad"><path d="M31.315 62.362C13.483 62.362 0 47.59 0 31.315 0 12.633 15.557 0 31.08 0c18.602 0 31.282 15.34 31.282 30.947 0 19.05-15.657 31.415-31.047 31.415" style="fill:#da291c"/><path d="M31.181 13.118c-9.96 0-18.063 8.103-18.063 18.063S21.22 49.244 31.18 49.244s18.063-8.102 18.063-18.063-8.102-18.063-18.063-18.063m0 34.126c-.095 0-.187-.012-.282-.014-1.142-1.197-2.831-3.36-4.203-6.261h8.97c-1.371 2.902-3.06 5.065-4.202 6.26-.095.002-.187.015-.283.015m-5.333-8.275a22.7 22.7 0 0 1-1.38-6.787h13.427a22.7 22.7 0 0 1-1.38 6.787zm-10.68-6.787h7.294a24.6 24.6 0 0 0 1.26 6.787h-6.58a15.94 15.94 0 0 1-1.974-6.787M31.18 15.118c.095 0 .187.012.282.014 1.142 1.196 2.832 3.36 4.204 6.262h-8.971c1.372-2.903 3.061-5.066 4.204-6.262.094-.002.186-.014.281-.014m5.333 8.276a22.7 22.7 0 0 1 1.38 6.787H24.468a22.7 22.7 0 0 1 1.38-6.787zM22.461 30.18h-7.293a15.9 15.9 0 0 1 1.975-6.787h6.582a24.6 24.6 0 0 0-1.263 6.787m17.439 2h7.293a15.94 15.94 0 0 1-1.974 6.788h-6.58a24.6 24.6 0 0 0 1.26-6.787m0-2a24.6 24.6 0 0 0-1.259-6.787h6.578a15.94 15.94 0 0 1 1.974 6.787zm3.989-8.787h-6.015a27.2 27.2 0 0 0-3.508-5.957c3.855.779 7.203 2.951 9.523 5.957m-15.9-5.956a27.3 27.3 0 0 0-3.507 5.956h-6.01c2.32-3.004 5.664-5.176 9.517-5.956m-9.516 25.53h6.014a27.2 27.2 0 0 0 3.509 5.957c-3.856-.78-7.203-2.951-9.523-5.956m15.896 5.956a27.2 27.2 0 0 0 3.508-5.955h6.012c-2.32 3.004-5.666 5.176-9.52 5.955" class="st0"/></g><path id="pfeile" d="m15.03 13.61 3.23 3.23-1.41 1.41-3.23-3.23.03 4.66-1.97-1.96.01-6.03 6.04-.02 1.96 1.97zm33.68 29.07.03 4.66-3.23-3.23-1.41 1.41 3.23 3.23-4.66-.03 1.96 1.97 6.04-.02.01-6.03zm-33.68 6.06 3.23-3.22-1.42-1.42-3.22 3.23.02-4.66-1.97 1.97.02 6.03 6.03.01 1.97-1.96zm33.69-29.05.03-4.66-3.23 3.23-1.41-1.42 3.23-3.22-4.66.02 1.97-1.97 6.02.02.02 6.03z" class="st0"/></svg>