<svg width="307" height="183" viewBox="0 0 307 183" fill="none" xmlns="http://www.w3.org/2000/svg">
<g id="spire-icon-color 1">
<path id="Vector" d="M283.847 3.63432C280.976 3.13917 278.203 4.9712 277.708 7.84302L271.469 42.3544H282.213L288.106 9.77407C288.65 6.90225 286.719 4.12946 283.847 3.63432ZM200.862 7.84302C200.317 4.9712 197.544 3.13917 194.672 3.63432C191.801 4.12946 189.919 6.90225 190.464 9.77407L196.306 42.3544H207.101L200.862 7.84302V7.84302ZM302.861 150.394L281.223 59.2882H292.611C295.236 59.2882 297.414 57.1591 297.414 54.4853C297.414 51.9106 295.285 49.732 292.611 49.732H250.673V59.8329H258.991L244.583 70.924V27.5992C244.583 24.6778 242.206 22.3507 239.285 22.3507C236.363 22.3507 234.036 24.7273 234.036 27.5992V70.924L219.578 59.8824H227.896V49.7815H185.958C183.334 49.7815 181.205 51.9106 181.205 54.5349C181.205 57.1591 183.334 59.3377 185.958 59.3377H197.396L175.709 150.543C175.015 153.365 176.798 156.237 179.62 156.93C180.016 157.029 180.412 157.029 180.858 157.029C183.235 157.029 185.413 155.395 185.958 152.969L197.544 104.445L234.036 131.282V173.715C234.036 176.637 236.413 178.964 239.285 178.964C242.206 178.964 244.583 176.587 244.583 173.715V131.282L281.025 104.445L292.562 152.87C293.156 155.296 295.335 156.93 297.711 156.93C298.107 156.93 298.553 156.881 298.949 156.782C301.772 156.088 303.505 153.217 302.861 150.394V150.394ZM233.987 118.161L210.319 100.732H227.847V90.185H200.911L207.2 63.794L233.987 84.2929V118.161V118.161ZM268.25 100.732L244.583 118.161V84.2433L271.37 63.7445L277.609 90.1355H250.673V100.682H268.25V100.732Z" fill="url(#paint0_linear_0_1)"/>
</g>
<g id="istio 1">
<g id="logo">
<path id="hull" d="M3.56866 155.235H117.765L46.3922 176.647L3.56866 155.235Z" fill="#466BB0"/>
<path id="mainsail" d="M3.56866 148.098L46.3922 140.961V62.451L3.56866 148.098Z" fill="#466BB0"/>
<path id="headsail" d="M53.5294 140.961L117.765 148.098L53.5294 5.35294V140.961Z" fill="#466BB0"/>
</g>
</g>
<defs>
<linearGradient id="paint0_linear_0_1" x1="192.922" y1="147.726" x2="290.112" y2="25.6731" gradientUnits="userSpaceOnUse">
<stop stop-color="#0CB0D1"/>
<stop offset="1" stop-color="#9ACA3E"/>
</linearGradient>
</defs>
</svg>
