<svg xmlns="http://www.w3.org/2000/svg" width="354" height="286" fill="none" viewBox="0 0 354 286"><g clip-path="url(#clip0_3374:5025)"><path stroke="#DFE300" stroke-linejoin="round" stroke-miterlimit="10" stroke-width="3" d="M142.486 199.081C131.415 199.081 125.88 197.847 120.344 196.609C114.809 195.374 109.274 194.136 98.2031 194.136"/><path stroke="#DFE300" stroke-linejoin="round" stroke-miterlimit="10" stroke-width="3" d="M197.448 217.037C186.377 217.037 180.842 215.348 175.307 213.654C169.771 211.965 164.236 210.271 153.166 210.271"/><path fill="#00B39F" d="M59.2944 62.4963C59.2944 51.8331 67.9165 43.2178 78.5881 43.2178C83.6766 43.2178 88.6237 45.2657 92.228 48.8672C95.8323 52.4686 97.8818 57.4118 97.8818 62.4963C97.8818 73.1595 89.2597 81.7748 78.5881 81.7748C67.9165 81.8454 59.2944 73.1595 59.2944 62.4963Z"/><path fill="#00B39F" d="M0 116.024C0 105.361 8.62208 96.7457 19.2937 96.7457C24.3821 96.7457 29.3292 98.7936 32.9335 102.395C36.5378 105.997 38.5873 110.94 38.5873 116.024C38.5873 126.687 29.9653 135.303 19.2937 135.303C8.62208 135.303 0 126.687 0 116.024Z"/><path stroke="#359AC0" stroke-linejoin="round" stroke-miterlimit="10" stroke-width="3" d="M59.2945 62.4963C39.2941 62.4963 19.2937 79.5856 19.2937 96.675"/><path fill="#00B39F" d="M326.438 68.7106C316.826 64.1205 312.798 52.6099 317.391 43.0059C319.582 38.4158 323.54 34.8849 328.346 33.1195C333.151 31.4247 338.452 31.7072 343.116 33.8963C352.728 38.4864 356.756 49.997 352.162 59.601C347.498 69.2049 335.978 73.3007 326.438 68.7106Z"/><path fill="#00B39F" d="M111.804 116.024C111.804 105.361 120.426 96.7457 131.098 96.7457C136.186 96.7457 141.134 98.7936 144.738 102.395C148.342 105.997 150.392 110.94 150.392 116.024C150.392 126.687 141.77 135.303 131.098 135.303C120.497 135.303 111.804 126.687 111.804 116.024Z"/><path fill="#DFE300" d="M58.6584 194.409C58.6584 183.746 67.2805 175.131 77.9521 175.131C83.0406 175.131 87.9877 177.179 91.592 180.78C95.1963 184.382 97.2458 189.325 97.2458 194.409C97.2458 205.073 88.6237 213.688 77.9521 213.688C67.2805 213.758 58.6584 205.073 58.6584 194.409Z"/><path stroke="#359AC0" stroke-linejoin="round" stroke-miterlimit="10" stroke-width="5" d="M131.169 135.303C131.169 145.189 118.024 150.132 104.808 155.076C91.6626 160.019 78.4468 164.962 78.4468 174.848"/><path stroke="#359AC0" stroke-linejoin="round" stroke-miterlimit="10" stroke-width="3" d="M316.543 57.6943C309.547 57.6943 305.942 60.1659 302.621 62.7082C299.299 65.1798 296.19 67.722 289.758 67.722"/><path stroke="#359AC0" stroke-linejoin="round" stroke-miterlimit="10" stroke-width="3" d="M78.3762 174.919C78.3762 165.033 63.6055 160.089 48.8349 155.146C34.0643 150.203 19.2937 145.26 19.2937 135.373"/><path stroke="#359AC0" stroke-linejoin="round" stroke-miterlimit="10" stroke-width="3" d="M131.169 96.675C131.169 79.5856 114.561 62.4963 97.9525 62.4963"/><path fill="#00B39F" d="M270.535 135.303C259.864 135.303 251.242 126.687 251.242 116.024C251.242 110.94 253.291 105.997 256.896 102.395C260.5 98.7936 265.447 96.7457 270.535 96.7457C281.207 96.7457 289.829 105.361 289.829 116.024C289.829 126.617 281.207 135.303 270.535 135.303Z"/><path fill="#00B39F" d="M217.743 86.9299C207.071 86.9299 198.449 78.3146 198.449 67.6514C198.449 62.5669 200.499 57.6237 204.103 54.0222C207.707 50.4208 212.654 48.3729 217.743 48.3729C228.415 48.3729 237.037 56.9882 237.037 67.6514C237.107 78.3146 228.415 86.9299 217.743 86.9299Z"/><path fill="#00B39F" d="M270.535 86.9299C259.864 86.9299 251.242 78.3146 251.242 67.6514C251.242 62.5669 253.291 57.6237 256.896 54.0222C260.5 50.4208 265.447 48.3729 270.535 48.3729C281.207 48.3729 289.829 56.9882 289.829 67.6514C289.829 78.3146 281.207 86.9299 270.535 86.9299Z"/><path stroke="#359AC0" stroke-linejoin="round" stroke-miterlimit="10" stroke-width="3" d="M251.171 115.954C247.637 115.954 245.871 103.878 244.104 91.8025C242.337 79.7269 240.57 67.6514 237.036 67.6514"/><path stroke="#359AC0" stroke-linejoin="round" stroke-miterlimit="10" stroke-width="3" d="M237.107 67.6514C240.641 67.6514 242.408 67.722 244.104 67.7926C245.871 67.8632 247.637 67.9338 251.171 67.9338"/><path stroke="#359AC0" stroke-linejoin="round" stroke-miterlimit="10" stroke-width="3" d="M270.535 96.675C270.535 94.2741 270.606 93.0029 270.677 91.8025C270.747 90.602 270.818 89.3309 270.818 86.9299"/><path stroke="#359AC0" stroke-linejoin="round" stroke-miterlimit="10" stroke-width="5" d="M198.449 67.6514C186.435 67.6514 180.428 79.7269 174.42 91.8025C168.413 103.878 162.406 115.954 150.392 115.954"/><path fill="#00B39F" d="M270.535 38.557C259.864 38.557 251.242 29.9417 251.242 19.2785C251.242 14.1941 253.291 9.25086 256.896 5.64938C260.5 2.0479 265.447 0 270.535 0C281.207 0 289.829 8.61531 289.829 19.2785C289.829 29.9417 281.207 38.557 270.535 38.557Z"/><path stroke="#359AC0" stroke-linejoin="round" stroke-miterlimit="10" stroke-width="3" d="M270.535 48.3729C270.535 45.9719 270.606 44.7008 270.677 43.5003C270.747 42.2998 270.818 41.0287 270.818 38.6277"/><path stroke="#359AC0" stroke-linejoin="round" stroke-miterlimit="10" stroke-width="5" d="M237.107 67.6513C240.641 67.6513 242.408 55.5758 244.174 43.5002C245.941 31.4247 247.708 19.3491 251.242 19.3491"/><path fill="#00B39F" d="M269.405 286C258.733 286 250.111 277.385 250.111 266.721C250.111 261.637 252.16 256.694 255.765 253.092C259.369 249.491 264.316 247.443 269.405 247.443C280.076 247.443 288.698 256.058 288.698 266.721C288.698 277.385 280.076 286 269.405 286Z"/><path fill="#00B39F" d="M216.683 237.627C206.011 237.627 197.389 229.012 197.389 218.349C197.389 213.264 199.439 208.321 203.043 204.72C206.647 201.118 211.594 199.07 216.683 199.07C227.354 199.07 235.976 207.685 235.976 218.349C235.976 229.012 227.354 237.627 216.683 237.627Z"/><path fill="#00B39F" d="M269.405 237.627C258.733 237.627 250.111 229.012 250.111 218.349C250.111 213.264 252.16 208.321 255.765 204.72C259.369 201.118 264.316 199.07 269.405 199.07C280.076 199.07 288.698 207.685 288.698 218.349C288.698 229.012 280.076 237.627 269.405 237.627Z"/><path stroke="#CD502F" stroke-linejoin="round" stroke-miterlimit="10" stroke-width="3" d="M250.111 266.722C246.577 266.722 244.811 254.646 243.114 242.57C241.348 230.495 239.581 218.419 236.047 218.419"/><path stroke="#CD502F" stroke-linejoin="round" stroke-miterlimit="10" stroke-width="3" d="M235.976 218.349C239.51 218.349 241.277 218.419 242.973 218.49C244.74 218.56 246.507 218.631 250.04 218.631"/><path stroke="#CD502F" stroke-linejoin="round" stroke-miterlimit="10" stroke-width="3" d="M269.405 247.443C269.405 245.042 269.475 243.771 269.546 242.57C269.617 241.37 269.687 240.099 269.687 237.698"/><path fill="#00B39F" d="M269.475 189.325C258.804 189.325 250.182 180.71 250.182 170.046C250.182 164.962 252.231 160.019 255.836 156.417C259.44 152.816 264.387 150.768 269.475 150.768C280.147 150.768 288.769 159.383 288.769 170.046C288.769 180.71 280.147 189.325 269.475 189.325Z"/><path stroke="#DFE300" stroke-linejoin="round" stroke-miterlimit="10" stroke-width="3" d="M269.405 199.07C269.405 196.669 269.475 195.398 269.546 194.198C269.617 192.997 269.687 191.726 269.687 189.325"/><path stroke="#DFE300" stroke-linejoin="round" stroke-miterlimit="10" stroke-width="3" d="M235.976 218.349C239.51 218.349 241.277 206.273 243.044 194.197C244.811 182.122 246.577 170.046 250.111 170.046"/><g filter="url(#filter0_d_3374:5025)"><ellipse cx="147.174" cy="204.286" stroke="#CD502F" stroke-width="5" rx="20.578" ry="20.559"/></g></g><defs><filter id="filter0_d_3374:5025" width="54.157" height="54.117" x="120.096" y="181.227" color-interpolation-filters="sRGB" filterUnits="userSpaceOnUse"><feFlood flood-opacity="0" result="BackgroundImageFix"/><feColorMatrix in="SourceAlpha" result="hardAlpha" type="matrix" values="0 0 0 0 0 0 0 0 0 0 0 0 0 0 0 0 0 0 127 0"/><feOffset dy="4"/><feGaussianBlur stdDeviation="2"/><feColorMatrix type="matrix" values="0 0 0 0 0 0 0 0 0 0 0 0 0 0 0 0 0 0 0.25 0"/><feBlend in2="BackgroundImageFix" mode="normal" result="effect1_dropShadow_3374:5025"/><feBlend in="SourceGraphic" in2="effect1_dropShadow_3374:5025" mode="normal" result="shape"/></filter><clipPath id="clip0_3374:5025"><rect width="354" height="286" fill="#fff"/></clipPath></defs></svg>