<svg width="616" height="410" viewBox="0 0 616 410" fill="none" xmlns="http://www.w3.org/2000/svg">
<g id=".">
<path id="Vector" d="M566.179 8.16841C559.832 7.05555 553.705 11.1731 552.61 17.6277L538.823 95.1941H562.568L575.59 21.9679C576.793 15.5133 572.526 9.28127 566.179 8.16841ZM382.784 17.6277C381.58 11.1731 375.452 7.05555 369.105 8.16841C362.759 9.28127 358.601 15.5133 359.804 21.9679L372.716 95.1941H396.571L382.784 17.6277V17.6277ZM608.198 338.02L560.38 133.254H585.547C591.347 133.254 596.161 128.469 596.161 122.459C596.161 116.672 591.456 111.776 585.547 111.776H492.865V134.478H511.248L479.405 159.406V62.0309C479.405 55.465 474.153 50.2345 467.697 50.2345C461.241 50.2345 456.098 55.5763 456.098 62.0309V159.406L424.146 134.589H442.529V111.887H349.847C344.047 111.887 339.342 116.672 339.342 122.57C339.342 128.469 344.047 133.365 349.847 133.365H375.124L327.196 338.354C325.664 344.697 329.603 351.152 335.84 352.71C336.716 352.933 337.591 352.932 338.576 352.932C343.828 352.932 348.643 349.26 349.847 343.807L375.452 234.747L456.098 295.064V390.436C456.098 397.002 461.35 402.232 467.697 402.232C474.153 402.232 479.405 396.89 479.405 390.436V295.064L559.942 234.747L585.438 343.584C586.751 349.037 591.565 352.71 596.818 352.71C597.693 352.71 598.678 352.599 599.553 352.376C605.791 350.818 609.621 344.363 608.198 338.02V338.02ZM455.989 265.573L403.684 226.4H442.42V202.696H382.893L396.79 143.381L455.989 189.453V265.573V265.573ZM531.71 226.4L479.405 265.573V189.342L538.604 143.27L552.392 202.585H492.865V226.289H531.71V226.4Z" fill="url(#paint0_linear_0_1)"/>
</g>
<g id="._2">
<g id="logo">
<path id="hull" d="M14.4135 358.75H244L100.508 410L14.4135 358.75Z" fill="#466BB0"/>
<path id="mainsail" d="M14.4135 341.667L100.508 324.583V136.667L14.4135 341.667Z" fill="#466BB0"/>
<path id="headsail" d="M114.858 324.583L244 341.667L114.858 0V324.583Z" fill="#466BB0"/>
</g>
</g>
<defs>
<linearGradient id="paint0_linear_0_1" x1="365.237" y1="332.023" x2="584.475" y2="61.3064" gradientUnits="userSpaceOnUse">
<stop stop-color="#0CB0D1"/>
<stop offset="1" stop-color="#9ACA3E"/>
</linearGradient>
</defs>
</svg>
