<svg xmlns="http://www.w3.org/2000/svg" width="246" height="65" fill="none" viewBox="0 0 246 65"><path fill="#fff" d="M22.7254 15.2665H15.7502V49.5834H48.8045V42.7222H22.7254V15.2665Z"/><path fill="#fff" d="M66.2573 15.2665L52.3106 49.5834H60.2637L69.745 25.5638L76.5008 42.7222H64.9114L62.3087 49.5834H87.1793L73.2289 15.2665H66.2573Z"/><path fill="#fff" d="M97.0213 27.28L88.3059 15.2665H79.5869L93.5337 35.8574V49.5834H100.509V35.8574L114.456 15.2665H105.848L97.0213 27.28Z"/><path fill="#fff" d="M117.464 20.6713V22.1314V28.9925V37.365V49.5834H150.518V42.7222H124.439V37.365V35.8574H144.476V28.9925H124.439V22.1314H150.518V15.2665H117.464V20.6713Z"/><path fill="#fff" d="M161.843 21.8094H179.731V28.9486H163.777L163.844 35.4951H168.629L181.271 49.587H189.878L177.237 35.4951H182.189C182.9 35.4956 183.605 35.3581 184.262 35.0906C184.919 34.8231 185.516 34.4307 186.02 33.9359C186.523 33.4411 186.922 32.8536 187.194 32.2069C187.466 31.5603 187.606 30.8672 187.606 30.1672V20.5981C187.606 19.1841 187.036 17.828 186.02 16.8281C185.004 15.8283 183.626 15.2665 182.189 15.2665H155.047V49.5834H162.022L161.843 21.8094Z"/><path fill="#00B39F" d="M229.001 15.4129H215.269V21.9228H229.001V15.4129Z"/><path fill="#00B39F" d="M230.25 37.3432V34.6463C230.25 31.5395 227.595 29.0219 224.301 29.0219H202.163V27.2472H194.05V34.9317H222.137V37.3359L230.25 37.3432Z"/><path fill="#00D3A9" d="M202.163 25.121V21.9228H213.027V15.4129H194.05V25.121H202.163Z"/><path fill="#00D3A9" d="M222.137 39.4361V43.2235H211.273V49.7333H224.658C226.111 49.7559 227.515 49.2104 228.56 48.2165C229.605 47.2226 230.208 45.8613 230.235 44.431V39.4361H222.137Z"/><path fill="#00B39F" d="M201.524 39.7874V43.2234H209.042V49.7333H199.374C197.921 49.7558 196.518 49.2104 195.472 48.2165C194.427 47.2226 193.825 45.8613 193.797 44.431V39.7874H201.524Z"/></svg>