<svg width="196" height="240" viewBox="0 0 196 240" fill="none" xmlns="http://www.w3.org/2000/svg">
<g clip-path="url(#clip0_28496_106006)">
<path d="M141.281 117.391C140.5 117.37 139.723 117.509 138.998 117.801C138.273 118.092 137.616 118.529 137.067 119.084C126.669 129.207 112.608 134.819 97.9956 134.819C83.3833 134.819 69.6178 129.187 58.9442 119.065C57.8216 117.942 56.128 117.371 54.7298 117.371C24.0873 119.636 -0.0761173 145.493 -0.0761173 176.411V203.666C-0.0844185 208.466 0.854811 213.22 2.68771 217.656C4.52061 222.092 7.21113 226.122 10.605 229.516C13.9988 232.91 18.0292 235.6 22.4651 237.433C26.901 239.266 31.655 240.205 36.4546 240.197H159.261C164.061 240.205 168.815 239.266 173.25 237.433C177.686 235.6 181.717 232.91 185.111 229.516C188.504 226.122 191.195 222.092 193.028 217.656C194.861 213.22 195.8 208.466 195.792 203.666V176.411C196.087 145.493 171.924 119.636 141.281 117.391Z" fill="#647881"/>
<path d="M98.0143 114.575C125.27 114.575 147.759 92.3811 147.759 64.8304C147.759 37.5752 125.27 15.3613 98.0143 15.3613C70.7591 15.3613 48.2695 37.5752 48.2695 65.1061C48.2695 92.3811 70.7394 114.575 98.0143 114.575ZM98.0143 26.6061C119.086 26.6061 136.514 43.7391 136.514 65.1061C136.514 86.1778 119.381 103.606 98.0143 103.606C76.9427 103.606 59.5143 86.4732 59.5143 65.1061C59.5143 43.7391 76.923 26.6061 98.0143 26.6061Z" fill="#647881"/>
<path d="M169.501 87.8515H159.162C158.535 87.8515 157.934 87.6025 157.491 87.1593C157.048 86.7161 156.799 86.1151 156.799 85.4883V56.244C156.799 55.6173 157.048 55.0162 157.491 54.573C157.934 54.1298 158.535 53.8809 159.162 53.8809H169.501C170.128 53.8809 170.729 54.1298 171.172 54.573C171.615 55.0162 171.864 55.6173 171.864 56.244V85.4883C171.864 86.1151 171.615 86.7161 171.172 87.1593C170.729 87.6025 170.128 87.8515 169.501 87.8515Z" fill="#647881"/>
<path d="M36.8095 88.1659H26.4706C25.8438 88.1659 25.2428 87.917 24.7996 87.4738C24.3564 87.0306 24.1074 86.4295 24.1074 85.8028V56.5585C24.1074 55.9317 24.3564 55.3306 24.7996 54.8875C25.2428 54.4443 25.8438 54.1953 26.4706 54.1953H36.8095C37.4362 54.1953 38.0373 54.4443 38.4805 54.8875C38.9237 55.3306 39.1727 55.9317 39.1727 56.5585V85.8028C39.1727 86.4295 38.9237 87.0306 38.4805 87.4738C38.0373 87.917 37.4362 88.1659 36.8095 88.1659Z" fill="#647881"/>
<path d="M164.598 48.5439H159.517C154.515 21.1507 128.973 0.197266 98.0156 0.197266C67.058 0.197266 41.2797 21.1507 36.4352 48.5439H31.3938C24.0679 48.5439 18.1994 54.1761 18.1797 60.6157V81.136C18.1797 87.8907 24.0876 93.5032 31.3938 93.5032H40.0981C42.6188 93.5032 44.5882 91.5339 44.5882 89.2889V58.7449C44.6045 58.6209 44.6111 58.4958 44.6078 58.3707C44.6078 31.1155 68.5153 8.90162 98.0156 8.90162C127.516 8.90162 151.404 31.1155 151.404 58.3707V83.5385C137.52 92.5186 119.639 95.0787 98.2913 91.7899C95.7509 91.5142 93.5059 93.2079 93.2301 95.4529C92.659 97.7176 94.3527 99.6672 96.5977 100.238C118.851 103.822 137.599 101.124 153.078 92.558C153.887 93.1746 154.876 93.5069 155.894 93.5032H164.618C171.924 93.5032 177.812 87.871 177.812 81.4314V60.9111C177.812 54.1564 171.904 48.5439 164.598 48.5439ZM35.5884 85.0943H31.6498C29.4048 85.0943 27.7112 83.4007 27.7112 81.4314V60.9308C27.7112 58.9615 29.4048 57.2679 31.6498 57.2679H35.5884V85.0943ZM168.281 81.1163C168.281 83.0856 166.587 84.7792 164.342 84.7792H160.403V56.9528H164.342C166.587 56.9528 168.281 58.6464 168.281 60.6157V81.1163Z" fill="#3C494E"/>
<path d="M72.5328 174.167C74.6061 170.354 77.5145 167.059 81.0407 164.529C84.5669 161.998 88.6195 160.298 92.8955 159.555L91.1625 149.59C79.2481 151.638 69.185 159.121 63.5527 169.303L72.5328 174.167Z" fill="#00D3A9"/>
<path d="M72.9662 203.076C70.2572 198.562 68.834 193.393 68.8503 188.129C68.8458 184.691 69.4664 181.281 70.6818 178.066L61.17 174.6C59.6007 178.945 58.7945 183.529 58.7871 188.148C58.7926 195.238 60.7039 202.197 64.3209 208.295L72.9662 203.076Z" fill="#00B39F"/>
<path d="M98.1731 217.177H97.8383C88.8386 217.177 80.8431 213.061 75.4078 206.562L67.6094 213.061C74.758 221.726 85.7073 227.358 97.8186 227.358H98.2519L98.1731 217.177Z" fill="#00D3A9"/>
<path d="M123.085 202.426C120.941 206.195 117.979 209.435 114.418 211.91C110.857 214.384 106.786 216.028 102.506 216.723L104.121 226.786C109.899 225.839 115.39 223.606 120.189 220.252C124.988 216.898 128.973 212.508 131.849 207.408L123.085 202.426Z" fill="#00B39F"/>
<path d="M122.869 173.518C125.446 177.955 126.792 182.999 126.768 188.13C126.792 191.689 126.13 195.219 124.819 198.528L134.35 202.21C136.038 197.747 136.918 193.019 136.95 188.248C136.957 181.322 135.122 174.518 131.633 168.535L122.869 173.518Z" fill="#00D3A9"/>
<path d="M115.385 168.121L113.219 165.935L118.378 160.775L113.219 155.616L115.385 153.43L122.731 160.775L115.385 168.121Z" fill="#20BDAB"/>
<path d="M100.694 168.121L98.5078 165.935L103.687 160.775L98.5078 155.616L100.694 153.43L108.039 160.775L100.694 168.121Z" fill="#20BDAB"/>
</g>
<defs>
<clipPath id="clip0_28496_106006">
<rect width="195.88" height="240" fill="white" transform="translate(0.121094)"/>
</clipPath>
</defs>
</svg>
