<svg width="208" height="208" viewBox="0 0 208 208" fill="none" xmlns="http://www.w3.org/2000/svg">
<g clip-path="url(#clip0_27712_2465)">
<path d="M107.148 48.9199V98.4899L150.118 73.6199L107.148 48.9199Z" fill="#00D3A9"/>
<path d="M107.148 108.859V158.669L150.508 133.879L107.148 108.859Z" fill="#00D3A9"/>
<path d="M100.971 98.1498V49.3398L58.5312 73.6598L100.971 98.1498Z" fill="#00B39F"/>
<path d="M15.8516 158.499C24.1815 171.885 35.4367 183.209 48.7716 191.619V139.439L15.8516 158.499Z" fill="#00B39F"/>
<path d="M100.97 158.441V109.221L58.4297 133.851L100.97 158.441Z" fill="#00B39F"/>
<path d="M54.9492 188.51L98.0292 163.88L54.9492 138.98V188.51Z" fill="#00D3A9"/>
<path d="M153.461 188.78V139.32L110.441 163.91L153.461 188.78Z" fill="#00B39F"/>
<path d="M195.6 152.75C202.959 139.031 207.116 123.824 207.76 108.27L162.93 133.9L195.6 152.75Z" fill="#00B39F"/>
<path d="M159.641 128.66L202.871 103.94L159.641 79.0898V128.66Z" fill="#00D3A9"/>
<path d="M153.461 68.4V19.25L110.641 43.79L153.461 68.4Z" fill="#00B39F"/>
<path d="M153.459 128.44V78.8301L110.539 103.68L153.459 128.44Z" fill="#00B39F"/>
<path d="M54.9492 78.7402V128.71L98.1792 103.69L54.9492 78.7402Z" fill="#00D3A9"/>
<path d="M101 0C85.0815 0.431098 69.4782 4.53812 55.4102 12L101 38.23V0Z" fill="#00B39F"/>
<path d="M54.9492 18.9102V68.5802L98.2192 43.7802L54.9492 18.9102Z" fill="#00D3A9"/>
<path d="M48.7698 15.8906C35.4344 24.2999 24.1763 35.6196 15.8398 49.0006L48.7698 68.0006V15.8906Z" fill="#00B39F"/>
<path d="M153.168 12.28C138.993 4.66119 123.235 0.456305 107.148 0V38.66L153.168 12.28Z" fill="#00D3A9"/>
<path d="M0.320312 107.4C0.854519 123.407 5.10668 139.071 12.7403 153.15L46.0803 133.85L0.320312 107.4Z" fill="#00D3A9"/>
<path d="M12.7281 54.3691C5.13731 68.3858 0.89325 83.969 0.328125 99.8991L46.1281 73.6491L12.7281 54.3691Z" fill="#00D3A9"/>
<path d="M55.3203 195.43C69.409 202.934 85.0443 207.072 101 207.52V169.33L55.3203 195.43Z" fill="#00B39F"/>
<path d="M192.361 49.1603C184.082 35.8097 172.897 24.4989 159.641 16.0703V68.0703L192.361 49.1603Z" fill="#00D3A9"/>
<path d="M159.641 191.439C172.98 182.966 184.22 171.573 192.511 158.119L159.641 139.119V191.439Z" fill="#00D3A9"/>
<path d="M207.781 99.6298C207.179 83.8455 202.964 68.4098 195.461 54.5098L162.461 73.5998L207.781 99.6298Z" fill="#00B39F"/>
<path d="M107.148 207.519C123.051 207.085 138.637 202.978 152.688 195.519L107.148 169.199V207.519Z" fill="#00D3A9"/>
<path d="M48.7692 128.26V79.2598L6.19922 103.66L48.7692 128.26Z" fill="#00B39F"/>
</g>
<defs>
<clipPath id="clip0_27712_2465">
<rect width="208" height="208" fill="white"/>
</clipPath>
</defs>
</svg>
