<svg width="208" height="208" viewBox="0 0 208 208" fill="none" xmlns="http://www.w3.org/2000/svg">
<g clip-path="url(#clip0_28496_105577)">
<path d="M36.5871 65.7604C42.106 55.5633 49.8428 46.7505 59.2206 39.9789C68.5984 33.2073 79.3753 28.6518 90.7478 26.6518L86.1384 0C70.7556 2.71541 56.1728 8.86048 43.4606 17.9841C30.7483 27.1077 20.2293 38.9782 12.6758 52.7242L36.5871 65.7604Z" fill="#FDFDFD"/>
<path d="M37.7396 143.109C30.538 131.035 26.7527 117.211 26.7922 103.132C26.7755 93.9258 28.4354 84.7947 31.6898 76.1901L6.33795 66.9199C2.16172 78.5319 0.0173679 90.7836 0 103.132C0.00571435 122.092 5.08031 140.703 14.6925 157.015L37.7396 143.109Z" fill="#B1B6B8"/>
<path d="M104.864 180.769H104C80.0884 180.769 58.7699 169.761 44.3654 152.379L23.623 169.761C33.3946 181.692 45.6658 191.306 59.5601 197.916C73.4544 204.526 88.6289 207.97 104 208H105.152L104.864 180.769Z" fill="#FDFDFD"/>
<path d="M171.126 141.371C165.419 151.45 157.541 160.115 148.069 166.733C138.598 173.35 127.773 177.75 116.389 179.611L120.71 206.552C136.084 204.027 150.697 198.054 163.463 189.078C176.23 180.101 186.824 168.351 194.461 154.697L171.126 141.371Z" fill="#B1B6B8"/>
<path d="M170.549 64.0232C177.398 75.9022 180.977 89.4009 180.92 103.132C180.982 112.651 179.222 122.093 175.734 130.942L201.086 140.792C205.591 128.85 207.932 116.193 208 103.422C208.013 84.9009 203.142 66.7081 193.884 50.6973L170.549 64.0232Z" fill="#FDFDFD"/>
<path d="M150.614 49.6242L144.795 43.7724L158.508 29.983L144.795 16.1936L150.614 10.3418L170.147 29.983L150.614 49.6242Z" fill="#FDFDFD"/>
<path d="M111.548 49.6242L105.729 43.7724L119.442 29.983L105.729 16.1936L111.548 10.3418L131.08 29.983L111.548 49.6242Z" fill="#FDFDFD"/>
</g>
<defs>
<clipPath id="clip0_28496_105577">
<rect width="208" height="208" fill="white"/>
</clipPath>
</defs>
</svg>
