<svg width="444" height="72" viewBox="0 0 444 72" fill="none" xmlns="http://www.w3.org/2000/svg">
<path d="M37.7656 16.9883V34.1568L52.9203 25.5276L37.7656 16.9883Z" fill="#00D3A9"/>
<path d="M37.7656 37.752V55.0553L53.0576 46.4261L37.7656 37.752Z" fill="#00D3A9"/>
<path d="M35.5769 34.0688V17.125L20.6055 25.5744L35.5769 34.0688Z" fill="#00B39F"/>
<path d="M5.50195 54.9661C8.43216 59.5953 12.4154 63.5504 17.1312 66.4717V48.3594L5.50195 54.9661Z" fill="#00B39F"/>
<path d="M35.5739 54.9673V37.8887L20.5566 46.428L35.5739 54.9673Z" fill="#00B39F"/>
<path d="M19.3086 65.3932L34.5089 56.8538L19.3086 48.2246V65.3932Z" fill="#00D3A9"/>
<path d="M54.1202 65.483V48.3145L38.9199 56.8538L54.1202 65.483Z" fill="#00B39F"/>
<path d="M69.0005 52.988C71.6102 48.2239 73.0753 42.9655 73.3043 37.5723L57.4629 46.4711L69.0005 52.988Z" fill="#00B39F"/>
<path d="M56.3086 44.6295L71.6006 36.0452L56.3086 27.4609V44.6295Z" fill="#00D3A9"/>
<path d="M54.1127 23.731V6.69727L39.0039 15.1916L54.1127 23.731Z" fill="#00B39F"/>
<path d="M54.1097 44.5396V27.3711L38.9551 35.9554L54.1097 44.5396Z" fill="#00B39F"/>
<path d="M19.3086 27.3242V44.6725L34.6006 35.9534L19.3086 27.3242Z" fill="#00D3A9"/>
<path d="M35.5751 0C29.9436 0.134831 24.4495 1.57304 19.459 4.17978L35.5751 13.2584V0Z" fill="#00B39F"/>
<path d="M19.3086 6.5625V23.8209L34.6006 15.1917L19.3086 6.5625Z" fill="#00D3A9"/>
<path d="M17.1312 5.52734C12.4154 8.44869 8.43216 12.3588 5.50195 17.033L17.1312 23.6397V5.57229V5.52734Z" fill="#00B39F"/>
<path d="M54.019 4.26966C49.0285 1.61797 43.4429 0.179775 37.7656 0V13.3933L54.019 4.26966Z" fill="#00D3A9"/>
<path d="M-0.00195312 37.2578C0.181185 42.8308 1.69203 48.2241 4.39331 53.123L16.1599 46.4264L-0.00195312 37.2578Z" fill="#00D3A9"/>
<path d="M4.39331 18.875C1.69203 23.7289 0.226969 29.1671 -0.00195312 34.6952L16.1599 25.5716L4.34748 18.875H4.39331Z" fill="#00D3A9"/>
<path d="M19.459 67.7759C24.4495 70.3827 29.9436 71.8209 35.5751 71.9557V58.6973L19.459 67.731V67.7759Z" fill="#00B39F"/>
<path d="M67.8462 17.0779C64.916 12.4486 60.9786 8.53854 56.3086 5.61719V23.6397L67.8462 17.0779Z" fill="#00D3A9"/>
<path d="M56.3086 66.4268C61.0244 63.5055 64.9618 59.5504 67.8921 54.8762L56.3086 48.3145V66.4718V66.4268Z" fill="#00D3A9"/>
<path d="M73.3351 34.5623C73.1062 29.0792 71.641 23.7309 68.9855 18.9219L57.3105 25.5286L73.3351 34.5623Z" fill="#00B39F"/>
<path d="M37.7656 71.9987C43.3971 71.8639 48.8912 70.4257 53.8817 67.8189L37.7656 58.6504V71.9987Z" fill="#00D3A9"/>
<path d="M17.1325 44.4946V27.5059L2.11523 35.9553L17.1325 44.4946Z" fill="#00B39F"/>
<path d="M308.738 22.1315V24.0558V32.5547V42.978V58.3723H350.068V49.713H317.396V42.978V41.214H342.553V32.5547H317.396V24.0558H350.068V15.3965H308.738V22.1315Z" fill="#3C494E"/>
<path d="M149.303 22.1315V24.0558V32.5547V42.978V58.3723H190.795V49.713H158.124V42.978V41.214H183.281V32.5547H158.124V24.0558H190.795V15.3965H149.303V22.1315Z" fill="#3C494E"/>
<path d="M248.133 47.1473C248.133 48.7508 247.807 50.1941 247.153 51.4769C246.5 52.9201 245.683 54.0426 244.703 55.0048C243.723 55.9669 242.416 56.7687 241.109 57.4101C239.639 58.0516 238.169 58.3723 236.699 58.3723H195.859V49.3923H236.699C237.352 49.3923 237.842 49.2319 238.332 48.7508C238.822 48.2698 238.986 47.7887 238.986 47.1473V43.6194C238.986 42.978 238.822 42.4969 238.332 42.0158C237.842 41.5348 237.352 41.3744 236.699 41.3744H207.294C205.661 41.3744 204.191 41.0537 202.884 40.4123C201.413 39.7708 200.27 38.969 199.29 38.0069C198.31 37.0447 197.493 35.7619 196.84 34.479C196.186 33.1962 195.859 31.7529 195.859 30.1494V26.6215C195.859 25.0179 196.186 23.5747 196.84 22.2919C197.493 21.009 198.31 19.7261 199.29 18.764C200.27 17.8018 201.577 17.0001 202.884 16.3586C204.191 15.7172 205.661 15.3965 207.294 15.3965H248.133V24.5369H207.294C206.641 24.5369 206.151 24.6972 205.661 25.1783C205.171 25.6594 205.007 26.1404 205.007 26.7819V30.3097C205.007 30.9512 205.171 31.4322 205.661 31.9133C206.151 32.3944 206.641 32.5547 207.294 32.5547H236.699C238.332 32.5547 239.802 32.8755 241.109 33.5169C242.416 34.1583 243.723 34.9601 244.703 35.9222C245.683 36.8844 246.5 38.1672 247.153 39.4501C247.807 40.8933 248.133 42.3365 248.133 43.7798V47.1473Z" fill="#3C494E"/>
<path d="M303.186 58.3723H294.855V41.5348H262.347V58.3723H254.016V32.3944H294.855V15.3965H303.186V58.3723ZM262.347 28.3854H254.016V15.5568H262.347V28.3854Z" fill="#3C494E"/>
<path d="M422.11 30.4701L411.166 15.3965H400.221L417.7 41.214V58.3723H426.521V41.214L444 15.3965H433.219L422.11 30.4701Z" fill="#3C494E"/>
<path d="M364.934 23.5747H387.314V26.6215V29.6683V32.7151H369.345V40.8933H373.429L389.274 58.5326H400.056L384.21 40.8933H389.764C389.928 40.8933 390.091 40.8933 390.418 40.8933C394.175 40.8933 397.279 37.8465 397.279 34.1583V29.6683V26.6215V22.1315C397.279 18.4433 394.175 15.3965 390.418 15.3965C390.254 15.3965 390.091 15.3965 389.764 15.3965H364.771H364.607H356.439V58.2119H365.097L364.934 23.5747Z" fill="#3C494E"/>
<path d="M141.789 22.6126C139.992 18.4433 135.582 15.3965 130.844 15.5568H88.0449V24.6972V58.5326H97.3562V24.5368C110.098 24.5368 131.334 24.3765 131.825 24.6972C135.092 23.7351 132.805 57.0894 133.458 58.2119H142.769C142.279 55.3255 143.586 24.5368 141.789 22.6126Z" fill="#3C494E"/>
<path d="M120.065 29.3477H110.754V58.3724H120.065V29.3477Z" fill="#3C494E"/>
</svg>
