<svg width="196" height="240" viewBox="0 0 196 240" fill="none" xmlns="http://www.w3.org/2000/svg">
<g clip-path="url(#clip0_28496_106023)">
<g opacity="0.6">
<path d="M141.357 117.391C140.576 117.37 139.799 117.509 139.074 117.801C138.35 118.092 137.692 118.529 137.143 119.084C126.745 129.207 112.684 134.819 98.0718 134.819C83.4595 134.819 69.694 129.187 59.0203 119.065C57.8978 117.942 56.2042 117.371 54.806 117.371C24.1635 119.636 5.45483e-05 145.493 5.45483e-05 176.411V203.666C-0.00824661 208.466 0.930983 213.22 2.76388 217.656C4.59678 222.092 7.2873 226.122 10.6811 229.516C14.075 232.91 18.1054 235.6 22.5413 237.433C26.9771 239.266 31.7312 240.205 36.5308 240.197H159.337C164.137 240.205 168.891 239.266 173.327 237.433C177.762 235.6 181.793 232.91 185.187 229.516C188.581 226.122 191.271 222.092 193.104 217.656C194.937 213.22 195.876 208.466 195.868 203.666V176.411C196.163 145.493 172 119.636 141.357 117.391Z" fill="white"/>
<g opacity="0.8">
<path d="M98.0905 114.575C125.346 114.575 147.835 92.3811 147.835 64.8304C147.835 37.5752 125.346 15.3613 98.0905 15.3613C70.8352 15.3613 48.3457 37.5752 48.3457 65.1061C48.3457 92.3811 70.8155 114.575 98.0905 114.575ZM98.0905 26.6061C119.162 26.6061 136.591 43.7391 136.591 65.1061C136.591 86.1778 119.458 103.606 98.0905 103.606C77.0189 103.606 59.5905 86.4732 59.5905 65.1061C59.5905 43.7391 76.9992 26.6061 98.0905 26.6061Z" fill="white"/>
</g>
</g>
<path opacity="0.8" d="M164.674 48.5439H159.593C154.591 21.1507 129.049 0.197266 98.0918 0.197266C67.1342 0.197266 41.3559 21.1507 36.5114 48.5439H31.4699C24.1441 48.5439 18.2756 54.1761 18.2559 60.6157V81.136C18.2559 87.8907 24.1638 93.5032 31.4699 93.5032H40.1743C42.695 93.5032 44.6643 91.5339 44.6643 89.2889V58.7449C44.6807 58.6209 44.6873 58.4958 44.684 58.3707C44.684 31.1155 68.5915 8.90162 98.0918 8.90162C127.592 8.90162 151.48 31.1155 151.48 58.3707V83.5385C137.596 92.5186 119.715 95.0787 98.3674 91.7899C95.827 91.5142 93.582 93.2079 93.3063 95.4529C92.7352 97.7176 94.4288 99.6672 96.6738 100.238C118.927 103.822 137.675 101.124 153.154 92.558C153.963 93.1746 154.953 93.5069 155.97 93.5032H164.694C172 93.5032 177.888 87.871 177.888 81.4314V60.9111C177.888 54.1564 171.98 48.5439 164.674 48.5439ZM35.6646 85.0943H31.726C29.4809 85.0943 27.7873 83.4007 27.7873 81.4314V60.9308C27.7873 58.9615 29.4809 57.2679 31.726 57.2679H35.6646V85.0943ZM168.357 81.1163C168.357 83.0856 166.663 84.7792 164.418 84.7792H160.48V56.9528H164.418C166.663 56.9528 168.357 58.6464 168.357 60.6157V81.1163Z" fill="white"/>
<g opacity="0.6">
<path d="M69.6629 172.459C71.5492 168.993 74.1935 165.998 77.3987 163.696C80.604 161.394 84.2874 159.846 88.1744 159.166L86.599 150.107C81.3413 151.03 76.3571 153.119 72.0121 156.22C67.6672 159.321 64.072 163.356 61.4902 168.028L69.6629 172.459Z" fill="white"/>
</g>
<path d="M70.0572 198.75C67.5958 194.646 66.302 189.947 66.3155 185.162C66.3098 182.033 66.8771 178.929 67.9894 176.004L59.3244 172.854C57.8971 176.8 57.1641 180.965 57.1582 185.162C57.1602 191.606 58.8946 197.932 62.1799 203.476L70.0572 198.75Z" fill="white"/>
<g opacity="0.6">
<path d="M92.9997 211.55H92.7043C84.5317 211.55 77.2452 207.808 72.3219 201.9L65.2324 207.808C68.5722 211.864 72.7664 215.131 77.5153 217.378C82.2642 219.625 87.4507 220.795 92.7043 220.806H93.0982L92.9997 211.55Z" fill="white"/>
</g>
<path d="M115.646 198.158C113.696 201.584 111.003 204.529 107.766 206.778C104.528 209.028 100.828 210.523 96.9375 211.156L98.4145 220.313C103.669 219.455 108.664 217.425 113.027 214.374C117.391 211.322 121.012 207.328 123.622 202.688L115.646 198.158Z" fill="white"/>
<g opacity="0.8">
<path d="M115.449 171.867C117.79 175.905 119.014 180.493 118.994 185.16C119.015 188.396 118.414 191.605 117.222 194.613L125.887 197.961C127.426 193.902 128.227 189.6 128.25 185.259C128.254 178.964 126.589 172.78 123.425 167.338L115.449 171.867Z" fill="white"/>
</g>
<path d="M108.634 166.975L106.646 164.986L111.333 160.299L106.646 155.61L108.634 153.623L115.311 160.299L108.634 166.975Z" fill="white"/>
<path d="M95.282 166.975L93.2949 164.986L97.9819 160.299L93.2949 155.61L95.282 153.623L101.96 160.299L95.282 166.975Z" fill="white"/>
</g>
<defs>
<clipPath id="clip0_28496_106023">
<rect width="195.88" height="240" fill="white"/>
</clipPath>
</defs>
</svg>
