<svg width="396" height="324" viewBox="0 0 396 324" fill="none" xmlns="http://www.w3.org/2000/svg">
<path d="M0 9.9C0 4.43238 4.43238 0 9.9 0H386.1C391.568 0 396 4.43238 396 9.9V314.1C396 319.568 391.568 324 386.1 324H9.89999C4.43237 324 0 319.568 0 314.1V9.9Z" fill="url(#paint0_linear_27509_125248)"/>
<path d="M126.352 38.6074V45.2842L132.245 41.9283L126.352 38.6074Z" fill="#00D3A9"/>
<path d="M126.352 46.6816V53.4109L132.299 50.055L126.352 46.6816Z" fill="#00D3A9"/>
<path d="M125.5 45.2495V38.6602L119.678 41.9461L125.5 45.2495Z" fill="#00B39F"/>
<path d="M113.805 53.376C114.944 55.1763 116.493 56.7144 118.327 57.8505V50.8066L113.805 53.376Z" fill="#00B39F"/>
<path d="M125.5 53.3762V46.7344L119.66 50.0553L125.5 53.3762Z" fill="#00B39F"/>
<path d="M119.174 57.4307L125.085 54.1098L119.174 50.7539V57.4307Z" fill="#00D3A9"/>
<path d="M132.712 57.4658V50.7891L126.801 54.11L132.712 57.4658Z" fill="#00B39F"/>
<path d="M138.499 52.6064C139.514 50.7537 140.083 48.7087 140.172 46.6113L134.012 50.0721L138.499 52.6064Z" fill="#00B39F"/>
<path d="M133.562 49.3565L139.509 46.0181L133.562 42.6797V49.3565Z" fill="#00D3A9"/>
<path d="M132.71 41.2298V34.6055L126.834 37.9089L132.71 41.2298Z" fill="#00B39F"/>
<path d="M132.708 49.3213V42.6445L126.814 45.9829L132.708 49.3213Z" fill="#00B39F"/>
<path d="M119.174 42.627V49.3736L125.121 45.9828L119.174 42.627Z" fill="#00D3A9"/>
<path d="M125.5 32C123.31 32.0524 121.173 32.6117 119.232 33.6255L125.5 37.1561V32Z" fill="#00B39F"/>
<path d="M119.174 34.5527V41.2645L125.121 37.9086L119.174 34.5527Z" fill="#00D3A9"/>
<path d="M118.327 34.1504C116.493 35.2865 114.944 36.8071 113.805 38.6249L118.327 41.1942V34.1679V34.1504Z" fill="#00B39F"/>
<path d="M132.672 33.6605C130.732 32.6292 128.559 32.0699 126.352 32V37.2086L132.672 33.6605Z" fill="#00D3A9"/>
<path d="M111.664 46.4902C111.735 48.6576 112.323 50.755 113.373 52.6601L117.949 50.0558L111.664 46.4902Z" fill="#00D3A9"/>
<path d="M113.373 39.3398C112.323 41.2275 111.753 43.3424 111.664 45.4923L117.949 41.9441L113.356 39.3398H113.373Z" fill="#00D3A9"/>
<path d="M119.232 58.3568C121.173 59.3706 123.31 59.9299 125.5 59.9823V54.8262L119.232 58.3393V58.3568Z" fill="#00B39F"/>
<path d="M138.049 38.6406C136.91 36.8403 135.379 35.3197 133.562 34.1836V41.1925L138.049 38.6406Z" fill="#00D3A9"/>
<path d="M133.562 57.8329C135.396 56.6968 136.928 55.1587 138.067 53.3409L133.562 50.7891V57.8504V57.8329Z" fill="#00D3A9"/>
<path d="M140.185 45.4419C140.096 43.3095 139.526 41.2296 138.493 39.3594L133.953 41.9287L140.185 45.4419Z" fill="#00B39F"/>
<path d="M126.352 59.9997C128.542 59.9473 130.678 59.388 132.619 58.3742L126.352 54.8086V59.9997Z" fill="#00D3A9"/>
<path d="M118.328 49.3041V42.6973L112.488 45.9832L118.328 49.3041Z" fill="#00B39F"/>
<path d="M231.732 40.6095V41.3578V44.663V48.7166V54.7033H247.805V51.3358H235.099V48.7166V48.0306H244.883V44.663H235.099V41.3578H247.805V37.9902H231.732V40.6095Z" fill="#E7EFF3"/>
<path d="M169.729 40.6095V41.3578V44.663V48.7166V54.7033H185.865V51.3358H173.159V48.7166V48.0306H182.942V44.663H173.159V41.3578H185.865V37.9902H169.729V40.6095Z" fill="#E7EFF3"/>
<path d="M208.163 50.338C208.163 50.9616 208.036 51.5229 207.782 52.0218C207.528 52.583 207.21 53.0196 206.829 53.3937C206.448 53.7679 205.94 54.0797 205.431 54.3292C204.86 54.5786 204.288 54.7033 203.716 54.7033H187.834V51.2111H203.716C203.97 51.2111 204.161 51.1487 204.351 50.9616C204.542 50.7745 204.606 50.5874 204.606 50.338V48.966C204.606 48.7166 204.542 48.5295 204.351 48.3424C204.161 48.1553 203.97 48.0929 203.716 48.0929H192.281C191.646 48.0929 191.074 47.9682 190.566 47.7188C189.994 47.4693 189.549 47.1575 189.168 46.7833C188.787 46.4092 188.469 45.9103 188.215 45.4114C187.961 44.9125 187.834 44.3512 187.834 43.7276V42.3556C187.834 41.732 187.961 41.1707 188.215 40.6718C188.469 40.1729 188.787 39.674 189.168 39.2998C189.549 38.9257 190.057 38.6139 190.566 38.3644C191.074 38.115 191.646 37.9902 192.281 37.9902H208.163V41.5449H192.281C192.027 41.5449 191.836 41.6073 191.646 41.7943C191.455 41.9814 191.392 42.1685 191.392 42.418V43.7899C191.392 44.0394 191.455 44.2265 191.646 44.4136C191.836 44.6006 192.027 44.663 192.281 44.663H203.716C204.351 44.663 204.923 44.7877 205.431 45.0372C205.94 45.2866 206.448 45.5984 206.829 45.9726C207.21 46.3468 207.528 46.8457 207.782 47.3446C208.036 47.9058 208.163 48.4671 208.163 49.0284V50.338Z" fill="#E7EFF3"/>
<path d="M229.573 54.7033H226.333V48.1553H213.691V54.7033H210.451V44.6006H226.333V37.9902H229.573V54.7033ZM213.691 43.0416H210.451V38.0526H213.691V43.0416Z" fill="#E7EFF3"/>
<path d="M275.821 43.8523L271.565 37.9902H267.309L274.106 48.0306V54.7033H277.537V48.0306L284.334 37.9902H280.141L275.821 43.8523Z" fill="#E7EFF3"/>
<path d="M253.587 41.1707H262.29V42.3556V43.5405V44.7254H255.302V47.9058H256.89L263.052 54.7657H267.245L261.083 47.9058H263.243C263.307 47.9058 263.37 47.9058 263.497 47.9058C264.958 47.9058 266.165 46.721 266.165 45.2866V43.5405V42.3556V40.6095C266.165 39.1751 264.958 37.9902 263.497 37.9902C263.434 37.9902 263.37 37.9902 263.243 37.9902H253.523H253.46H250.283V54.641H253.65L253.587 41.1707Z" fill="#E7EFF3"/>
<path d="M166.807 40.7971C166.108 39.1757 164.393 37.9908 162.551 38.0531H145.906V41.6078V54.7662H149.527V41.5454C154.483 41.5454 162.741 41.4831 162.932 41.6078C164.203 41.2336 163.313 54.205 163.567 54.6415H167.188C166.998 53.519 167.506 41.5454 166.807 40.7971Z" fill="#E7EFF3"/>
<path d="M158.359 43.416H154.738V54.7036H158.359V43.416Z" fill="#E7EFF3"/>
<path d="M164.267 80.7258C172.911 77.2664 181.441 86.4436 176.796 94.8038C174.686 98.6011 169.445 101.659 163.342 98.7668L159.1 99.9788C158.441 100.167 157.833 99.5611 158.018 98.9023C158.271 97.9993 158.871 95.8704 159.222 94.7166C156.591 90.0225 158.365 83.0879 164.267 80.7258ZM163.997 88.1253C163.997 88.4704 164.277 88.7503 164.622 88.7503H171.375C171.72 88.7503 172 88.4704 172 88.1253C172 87.7801 171.72 87.5003 171.375 87.5003H164.622C164.277 87.5003 163.997 87.7801 163.997 88.1253ZM164.625 91.2378C164.279 91.2378 164 91.5176 164 91.8628C164 92.2079 164.279 92.4878 164.625 92.4878H169.375C169.72 92.4878 170 92.2079 170 91.8628C170 91.5176 169.72 91.2378 169.375 91.2378H164.625Z" fill="#E7EFF3"/>
<path d="M192.48 96.224C190.4 96.224 188.592 95.184 188.416 92.944C188.4 92.688 188.544 92.56 188.784 92.56H190.224C190.464 92.56 190.576 92.672 190.624 92.928C190.752 93.68 191.392 94.08 192.48 94.08C193.6 94.08 194.128 93.6 194.128 92.944C194.128 92.144 193.232 91.808 192.176 91.424C190.56 90.864 188.592 90.224 188.592 87.84C188.592 85.696 190.368 84.592 192.24 84.592C194.08 84.592 195.808 85.6 196 87.808C196.016 88.064 195.872 88.192 195.616 88.192H194.176C193.952 88.192 193.824 88.08 193.792 87.84C193.648 87.088 193.104 86.736 192.24 86.736C191.328 86.736 190.8 87.2 190.8 87.84C190.8 88.672 191.568 89.024 192.592 89.408C194.224 90 196.336 90.576 196.336 92.944C196.336 95.088 194.56 96.224 192.48 96.224ZM201.486 96.224C199.134 96.224 197.246 94.384 197.246 92C197.246 89.632 199.134 87.792 201.486 87.792C203.822 87.792 205.71 89.632 205.71 92C205.71 94.384 203.822 96.224 201.486 96.224ZM201.486 94.208C202.702 94.208 203.646 93.296 203.646 92C203.646 90.704 202.702 89.792 201.486 89.792C200.254 89.792 199.31 90.704 199.31 92C199.31 93.296 200.254 94.208 201.486 94.208ZM214.538 93.088C214.81 93.088 214.954 93.248 214.858 93.52C214.346 95.12 212.81 96.224 210.986 96.224C208.554 96.224 206.746 94.384 206.746 92C206.746 89.632 208.554 87.792 210.986 87.792C212.81 87.792 214.346 88.896 214.858 90.496C214.954 90.752 214.81 90.928 214.538 90.928H213.114C212.906 90.928 212.762 90.832 212.65 90.656C212.314 90.128 211.706 89.824 210.986 89.824C209.754 89.824 208.81 90.736 208.81 92C208.81 93.28 209.754 94.192 210.986 94.192C211.706 94.192 212.314 93.872 212.65 93.36C212.762 93.184 212.89 93.088 213.114 93.088H214.538ZM216.609 86.88C216.369 86.88 216.225 86.752 216.225 86.512V85.184C216.225 84.944 216.369 84.8 216.609 84.8H217.921C218.161 84.8 218.289 84.944 218.289 85.184V86.512C218.289 86.752 218.161 86.88 217.921 86.88H216.609ZM216.609 96C216.369 96 216.225 95.872 216.225 95.632V88.384C216.225 88.144 216.369 88 216.609 88H217.921C218.161 88 218.289 88.144 218.289 88.384V95.632C218.289 95.872 218.161 96 217.921 96H216.609ZM223.394 87.792C225.154 87.792 226.642 88.848 226.642 90.928V95.632C226.642 95.872 226.514 96.016 226.258 96.016H225.01C224.77 96.016 224.626 95.872 224.626 95.632V95.312C224.162 95.872 223.474 96.224 222.466 96.224C221.042 96.224 219.762 95.392 219.762 93.712C219.762 92.032 221.042 91.184 222.466 91.184C223.474 91.184 224.162 91.488 224.626 91.904V91.04C224.626 90.096 224.146 89.696 223.394 89.696C222.786 89.696 222.338 89.952 222.21 90.384C222.114 90.608 222.034 90.72 221.81 90.72H220.53C220.29 90.72 220.13 90.592 220.146 90.336C220.354 88.688 221.746 87.792 223.394 87.792ZM223.154 94.704C224.066 94.704 224.626 94.288 224.626 93.712C224.626 93.088 224.066 92.72 223.154 92.72C222.258 92.72 221.826 93.136 221.826 93.712C221.826 94.288 222.258 94.704 223.154 94.704ZM228.703 96C228.463 96 228.319 95.872 228.319 95.632V84.864C228.319 84.624 228.463 84.48 228.703 84.48H230.015C230.255 84.48 230.383 84.624 230.383 84.864V95.632C230.383 95.872 230.255 96 230.015 96H228.703ZM234.096 90.336C234.096 91.728 238.416 90.592 238.416 93.68C238.416 95.392 236.944 96.224 235.168 96.224C233.536 96.224 232.144 95.456 231.968 93.856C231.936 93.6 232.096 93.456 232.336 93.456H233.616C233.84 93.456 233.92 93.584 234.016 93.792C234.16 94.208 234.592 94.4 235.168 94.4C235.936 94.4 236.352 94.144 236.352 93.68C236.352 92.304 232.032 93.408 232.032 90.336C232.032 88.64 233.504 87.792 235.168 87.792C236.672 87.792 238.032 88.544 238.224 90.16C238.256 90.416 238.096 90.56 237.856 90.56H236.576C236.352 90.56 236.256 90.432 236.16 90.208C236.048 89.808 235.648 89.6 235.168 89.6C234.512 89.6 234.096 89.872 234.096 90.336Z" fill="#FDFDFD"/>
<path d="M36.0957 133H34.6836V125.629H32.1758V124.434H38.5977V125.629H36.0957V133ZM42.3125 126.391C43.1328 126.391 43.752 126.572 44.1699 126.936C44.5918 127.299 44.8027 127.865 44.8027 128.635V133H43.8242L43.5605 132.08H43.5137C43.3301 132.314 43.1406 132.508 42.9453 132.66C42.75 132.812 42.5234 132.926 42.2656 133C42.0117 133.078 41.7012 133.117 41.334 133.117C40.9473 133.117 40.6016 133.047 40.2969 132.906C39.9922 132.762 39.752 132.543 39.5762 132.25C39.4004 131.957 39.3125 131.586 39.3125 131.137C39.3125 130.469 39.5605 129.967 40.0566 129.631C40.5566 129.295 41.3105 129.109 42.3184 129.074L43.4434 129.033V128.693C43.4434 128.244 43.3379 127.924 43.127 127.732C42.9199 127.541 42.627 127.445 42.248 127.445C41.9238 127.445 41.6094 127.492 41.3047 127.586C41 127.68 40.7031 127.795 40.4141 127.932L39.9688 126.959C40.2852 126.791 40.6445 126.654 41.0469 126.549C41.4531 126.443 41.875 126.391 42.3125 126.391ZM43.4375 129.9L42.5996 129.93C41.9121 129.953 41.4297 130.07 41.1523 130.281C40.875 130.492 40.7363 130.781 40.7363 131.148C40.7363 131.469 40.832 131.703 41.0234 131.852C41.2148 131.996 41.4668 132.068 41.7793 132.068C42.2559 132.068 42.6504 131.934 42.9629 131.664C43.2793 131.391 43.4375 130.99 43.4375 130.463V129.9ZM48.1074 123.883V128.289C48.1074 128.488 48.0996 128.707 48.084 128.945C48.0684 129.18 48.0527 129.4 48.0371 129.607H48.0664C48.168 129.471 48.2891 129.311 48.4297 129.127C48.5742 128.943 48.7109 128.783 48.8398 128.646L50.8203 126.514H52.4023L49.8066 129.303L52.5723 133H50.9551L48.8809 130.152L48.1074 130.814V133H46.7305V123.883H48.1074ZM56.1934 126.391C56.7715 126.391 57.2676 126.51 57.6816 126.748C58.0957 126.986 58.4141 127.324 58.6367 127.762C58.8594 128.199 58.9707 128.723 58.9707 129.332V130.07H54.6406C54.6562 130.699 54.8242 131.184 55.1445 131.523C55.4688 131.863 55.9219 132.033 56.5039 132.033C56.918 132.033 57.2891 131.994 57.6172 131.916C57.9492 131.834 58.291 131.715 58.6426 131.559V132.678C58.3184 132.83 57.9883 132.941 57.6523 133.012C57.3164 133.082 56.9141 133.117 56.4453 133.117C55.8086 133.117 55.248 132.994 54.7637 132.748C54.2832 132.498 53.9062 132.127 53.6328 131.635C53.3633 131.143 53.2285 130.531 53.2285 129.801C53.2285 129.074 53.3516 128.457 53.5977 127.949C53.8438 127.441 54.1895 127.055 54.6348 126.789C55.0801 126.523 55.5996 126.391 56.1934 126.391ZM56.1934 127.428C55.7598 127.428 55.4082 127.568 55.1387 127.85C54.873 128.131 54.7168 128.543 54.6699 129.086H57.623C57.6191 128.762 57.5645 128.475 57.459 128.225C57.3574 127.975 57.2012 127.779 56.9902 127.639C56.7832 127.498 56.5176 127.428 56.1934 127.428ZM66.0547 132.004C66.2344 132.004 66.4121 131.988 66.5879 131.957C66.7637 131.922 66.9238 131.881 67.0684 131.834V132.877C66.916 132.943 66.7188 133 66.4766 133.047C66.2344 133.094 65.9824 133.117 65.7207 133.117C65.3535 133.117 65.0234 133.057 64.7305 132.936C64.4375 132.811 64.2051 132.598 64.0332 132.297C63.8613 131.996 63.7754 131.58 63.7754 131.049V127.562H62.8906V126.947L63.8398 126.461L64.291 125.072H65.1582V126.514H67.0156V127.562H65.1582V131.031C65.1582 131.359 65.2402 131.604 65.4043 131.764C65.5684 131.924 65.7852 132.004 66.0547 132.004ZM69.7637 123.883V126.174C69.7637 126.412 69.7559 126.645 69.7402 126.871C69.7285 127.098 69.7148 127.273 69.6992 127.398H69.7754C69.9121 127.172 70.0801 126.986 70.2793 126.842C70.4785 126.693 70.7012 126.582 70.9473 126.508C71.1973 126.434 71.4629 126.396 71.7441 126.396C72.2402 126.396 72.6621 126.48 73.0098 126.648C73.3574 126.812 73.623 127.068 73.8066 127.416C73.9941 127.764 74.0879 128.215 74.0879 128.77V133H72.7109V129.027C72.7109 128.523 72.6074 128.146 72.4004 127.896C72.1934 127.643 71.873 127.516 71.4395 127.516C71.0215 127.516 70.6895 127.604 70.4434 127.779C70.2012 127.951 70.0273 128.207 69.9219 128.547C69.8164 128.883 69.7637 129.293 69.7637 129.777V133H68.3867V123.883H69.7637ZM78.5996 126.391C79.1777 126.391 79.6738 126.51 80.0879 126.748C80.502 126.986 80.8203 127.324 81.043 127.762C81.2656 128.199 81.377 128.723 81.377 129.332V130.07H77.0469C77.0625 130.699 77.2305 131.184 77.5508 131.523C77.875 131.863 78.3281 132.033 78.9102 132.033C79.3242 132.033 79.6953 131.994 80.0234 131.916C80.3555 131.834 80.6973 131.715 81.0488 131.559V132.678C80.7246 132.83 80.3945 132.941 80.0586 133.012C79.7227 133.082 79.3203 133.117 78.8516 133.117C78.2148 133.117 77.6543 132.994 77.1699 132.748C76.6895 132.498 76.3125 132.127 76.0391 131.635C75.7695 131.143 75.6348 130.531 75.6348 129.801C75.6348 129.074 75.7578 128.457 76.0039 127.949C76.25 127.441 76.5957 127.055 77.041 126.789C77.4863 126.523 78.0059 126.391 78.5996 126.391ZM78.5996 127.428C78.166 127.428 77.8145 127.568 77.5449 127.85C77.2793 128.131 77.123 128.543 77.0762 129.086H80.0293C80.0254 128.762 79.9707 128.475 79.8652 128.225C79.7637 127.975 79.6074 127.779 79.3965 127.639C79.1895 127.498 78.9238 127.428 78.5996 127.428ZM87.8984 135.883C87.0195 135.883 86.3457 135.725 85.877 135.408C85.4082 135.092 85.1738 134.648 85.1738 134.078C85.1738 133.68 85.2988 133.342 85.5488 133.064C85.7988 132.791 86.1562 132.602 86.6211 132.496C86.4453 132.418 86.293 132.297 86.1641 132.133C86.0391 131.965 85.9766 131.779 85.9766 131.576C85.9766 131.334 86.0449 131.127 86.1816 130.955C86.3184 130.783 86.5234 130.617 86.7969 130.457C86.457 130.312 86.1836 130.078 85.9766 129.754C85.7734 129.426 85.6719 129.041 85.6719 128.6C85.6719 128.131 85.7715 127.732 85.9707 127.404C86.1699 127.072 86.4609 126.82 86.8438 126.648C87.2266 126.473 87.6895 126.385 88.2324 126.385C88.3496 126.385 88.4766 126.393 88.6133 126.408C88.7539 126.42 88.8828 126.436 89 126.455C89.1211 126.471 89.2129 126.488 89.2754 126.508H91.5195V127.275L90.418 127.48C90.5234 127.629 90.6074 127.799 90.6699 127.99C90.7324 128.178 90.7637 128.383 90.7637 128.605C90.7637 129.277 90.5312 129.807 90.0664 130.193C89.6055 130.576 88.9688 130.768 88.1562 130.768C87.9609 130.76 87.7715 130.744 87.5879 130.721C87.4473 130.807 87.3398 130.902 87.2656 131.008C87.1914 131.109 87.1543 131.225 87.1543 131.354C87.1543 131.459 87.1914 131.545 87.2656 131.611C87.3398 131.674 87.4492 131.721 87.5938 131.752C87.7422 131.783 87.9219 131.799 88.1328 131.799H89.252C89.9629 131.799 90.5059 131.949 90.8809 132.25C91.2559 132.551 91.4434 132.992 91.4434 133.574C91.4434 134.312 91.1387 134.881 90.5293 135.279C89.9199 135.682 89.043 135.883 87.8984 135.883ZM87.9512 134.916C88.4316 134.916 88.8359 134.869 89.1641 134.775C89.4922 134.682 89.7402 134.547 89.9082 134.371C90.0762 134.199 90.1602 133.994 90.1602 133.756C90.1602 133.545 90.1074 133.383 90.002 133.27C89.8965 133.156 89.7383 133.078 89.5273 133.035C89.3164 132.992 89.0547 132.971 88.7422 132.971H87.7227C87.4688 132.971 87.2441 133.01 87.0488 133.088C86.8535 133.17 86.7012 133.287 86.5918 133.439C86.4863 133.592 86.4336 133.775 86.4336 133.99C86.4336 134.287 86.5645 134.516 86.8262 134.676C87.0918 134.836 87.4668 134.916 87.9512 134.916ZM88.2207 129.865C88.623 129.865 88.9219 129.756 89.1172 129.537C89.3125 129.314 89.4102 129.002 89.4102 128.6C89.4102 128.162 89.3086 127.834 89.1055 127.615C88.9062 127.396 88.6094 127.287 88.2148 127.287C87.8281 127.287 87.5332 127.398 87.3301 127.621C87.1309 127.844 87.0312 128.174 87.0312 128.611C87.0312 129.006 87.1309 129.314 87.3301 129.537C87.5332 129.756 87.8301 129.865 88.2207 129.865ZM98.4453 129.742C98.4453 130.281 98.375 130.76 98.2344 131.178C98.0938 131.596 97.8887 131.949 97.6191 132.238C97.3496 132.523 97.0254 132.742 96.6465 132.895C96.2676 133.043 95.8398 133.117 95.3633 133.117C94.918 133.117 94.5098 133.043 94.1387 132.895C93.7676 132.742 93.4453 132.523 93.1719 132.238C92.9023 131.949 92.6934 131.596 92.5449 131.178C92.3965 130.76 92.3223 130.281 92.3223 129.742C92.3223 129.027 92.4453 128.422 92.6914 127.926C92.9414 127.426 93.2969 127.045 93.7578 126.783C94.2188 126.521 94.7676 126.391 95.4043 126.391C96.002 126.391 96.5293 126.521 96.9863 126.783C97.4434 127.045 97.8008 127.426 98.0586 127.926C98.3164 128.426 98.4453 129.031 98.4453 129.742ZM93.7402 129.742C93.7402 130.215 93.7969 130.619 93.9102 130.955C94.0273 131.291 94.207 131.549 94.4492 131.729C94.6914 131.904 95.0039 131.992 95.3867 131.992C95.7695 131.992 96.082 131.904 96.3242 131.729C96.5664 131.549 96.7441 131.291 96.8574 130.955C96.9707 130.619 97.0273 130.215 97.0273 129.742C97.0273 129.27 96.9707 128.869 96.8574 128.541C96.7441 128.209 96.5664 127.957 96.3242 127.785C96.082 127.609 95.7676 127.521 95.3809 127.521C94.8105 127.521 94.3945 127.713 94.1328 128.096C93.8711 128.479 93.7402 129.027 93.7402 129.742ZM105.77 129.742C105.77 130.281 105.699 130.76 105.559 131.178C105.418 131.596 105.213 131.949 104.943 132.238C104.674 132.523 104.35 132.742 103.971 132.895C103.592 133.043 103.164 133.117 102.688 133.117C102.242 133.117 101.834 133.043 101.463 132.895C101.092 132.742 100.77 132.523 100.496 132.238C100.227 131.949 100.018 131.596 99.8691 131.178C99.7207 130.76 99.6465 130.281 99.6465 129.742C99.6465 129.027 99.7695 128.422 100.016 127.926C100.266 127.426 100.621 127.045 101.082 126.783C101.543 126.521 102.092 126.391 102.729 126.391C103.326 126.391 103.854 126.521 104.311 126.783C104.768 127.045 105.125 127.426 105.383 127.926C105.641 128.426 105.77 129.031 105.77 129.742ZM101.064 129.742C101.064 130.215 101.121 130.619 101.234 130.955C101.352 131.291 101.531 131.549 101.773 131.729C102.016 131.904 102.328 131.992 102.711 131.992C103.094 131.992 103.406 131.904 103.648 131.729C103.891 131.549 104.068 131.291 104.182 130.955C104.295 130.619 104.352 130.215 104.352 129.742C104.352 129.27 104.295 128.869 104.182 128.541C104.068 128.209 103.891 127.957 103.648 127.785C103.406 127.609 103.092 127.521 102.705 127.521C102.135 127.521 101.719 127.713 101.457 128.096C101.195 128.479 101.064 129.027 101.064 129.742ZM109.531 133.117C108.758 133.117 108.137 132.836 107.668 132.273C107.203 131.707 106.971 130.873 106.971 129.771C106.971 128.658 107.207 127.816 107.68 127.246C108.156 126.676 108.783 126.391 109.561 126.391C109.889 126.391 110.176 126.436 110.422 126.525C110.668 126.611 110.879 126.729 111.055 126.877C111.234 127.025 111.387 127.191 111.512 127.375H111.576C111.557 127.254 111.533 127.08 111.506 126.854C111.482 126.623 111.471 126.41 111.471 126.215V123.883H112.854V133H111.775L111.529 132.115H111.471C111.354 132.303 111.205 132.473 111.025 132.625C110.85 132.773 110.639 132.893 110.393 132.982C110.15 133.072 109.863 133.117 109.531 133.117ZM109.918 131.998C110.508 131.998 110.924 131.828 111.166 131.488C111.408 131.148 111.533 130.639 111.541 129.959V129.777C111.541 129.051 111.424 128.494 111.189 128.107C110.955 127.717 110.527 127.521 109.906 127.521C109.41 127.521 109.031 127.723 108.77 128.125C108.512 128.523 108.383 129.08 108.383 129.795C108.383 130.51 108.512 131.057 108.77 131.436C109.031 131.811 109.414 131.998 109.918 131.998ZM121.326 126.391C122.057 126.391 122.625 126.58 123.031 126.959C123.441 127.334 123.646 127.938 123.646 128.77V133H122.27V129.027C122.27 128.523 122.166 128.146 121.959 127.896C121.752 127.643 121.432 127.516 120.998 127.516C120.369 127.516 119.932 127.709 119.686 128.096C119.443 128.482 119.322 129.043 119.322 129.777V133H117.945V126.514H119.018L119.211 127.393H119.287C119.428 127.166 119.602 126.98 119.809 126.836C120.02 126.688 120.254 126.576 120.512 126.502C120.773 126.428 121.045 126.391 121.326 126.391ZM128.158 126.391C128.736 126.391 129.232 126.51 129.646 126.748C130.061 126.986 130.379 127.324 130.602 127.762C130.824 128.199 130.936 128.723 130.936 129.332V130.07H126.605C126.621 130.699 126.789 131.184 127.109 131.523C127.434 131.863 127.887 132.033 128.469 132.033C128.883 132.033 129.254 131.994 129.582 131.916C129.914 131.834 130.256 131.715 130.607 131.559V132.678C130.283 132.83 129.953 132.941 129.617 133.012C129.281 133.082 128.879 133.117 128.41 133.117C127.773 133.117 127.213 132.994 126.729 132.748C126.248 132.498 125.871 132.127 125.598 131.635C125.328 131.143 125.193 130.531 125.193 129.801C125.193 129.074 125.316 128.457 125.562 127.949C125.809 127.441 126.154 127.055 126.6 126.789C127.045 126.523 127.564 126.391 128.158 126.391ZM128.158 127.428C127.725 127.428 127.373 127.568 127.104 127.85C126.838 128.131 126.682 128.543 126.635 129.086H129.588C129.584 128.762 129.529 128.475 129.424 128.225C129.322 127.975 129.166 127.779 128.955 127.639C128.748 127.498 128.482 127.428 128.158 127.428ZM137.791 132.994L136.971 129.977C136.932 129.828 136.885 129.648 136.83 129.438C136.775 129.227 136.721 129.01 136.666 128.787C136.611 128.561 136.561 128.352 136.514 128.16C136.471 127.969 136.438 127.82 136.414 127.715H136.367C136.348 127.82 136.316 127.969 136.273 128.16C136.23 128.352 136.182 128.561 136.127 128.787C136.072 129.014 136.018 129.234 135.963 129.449C135.912 129.664 135.865 129.848 135.822 130L134.961 132.994H133.449L131.633 126.508H133.027L133.871 129.73C133.926 129.949 133.979 130.186 134.029 130.439C134.084 130.693 134.131 130.936 134.17 131.166C134.209 131.396 134.238 131.586 134.258 131.734H134.305C134.32 131.629 134.342 131.496 134.369 131.336C134.396 131.172 134.428 131.002 134.463 130.826C134.498 130.646 134.533 130.479 134.568 130.322C134.604 130.162 134.637 130.033 134.668 129.936L135.664 126.508H137.17L138.125 129.936C138.168 130.084 138.215 130.271 138.266 130.498C138.316 130.721 138.361 130.945 138.4 131.172C138.443 131.395 138.471 131.58 138.482 131.729H138.529C138.545 131.596 138.572 131.416 138.611 131.189C138.654 130.959 138.703 130.715 138.758 130.457C138.812 130.195 138.869 129.953 138.928 129.73L139.789 126.508H141.16L139.332 132.994H137.791ZM146.633 131.148C146.633 131.574 146.529 131.934 146.322 132.227C146.115 132.52 145.812 132.742 145.414 132.895C145.02 133.043 144.535 133.117 143.961 133.117C143.508 133.117 143.117 133.084 142.789 133.018C142.465 132.955 142.158 132.857 141.869 132.725V131.535C142.178 131.68 142.523 131.805 142.906 131.91C143.293 132.016 143.658 132.068 144.002 132.068C144.455 132.068 144.781 131.998 144.98 131.857C145.18 131.713 145.279 131.521 145.279 131.283C145.279 131.143 145.238 131.018 145.156 130.908C145.078 130.795 144.93 130.68 144.711 130.562C144.496 130.441 144.18 130.297 143.762 130.129C143.352 129.965 143.006 129.801 142.725 129.637C142.443 129.473 142.23 129.275 142.086 129.045C141.941 128.811 141.869 128.512 141.869 128.148C141.869 127.574 142.096 127.139 142.549 126.842C143.006 126.541 143.609 126.391 144.359 126.391C144.758 126.391 145.133 126.432 145.484 126.514C145.84 126.592 146.188 126.707 146.527 126.859L146.094 127.896C145.801 127.768 145.506 127.662 145.209 127.58C144.916 127.494 144.617 127.451 144.312 127.451C143.957 127.451 143.686 127.506 143.498 127.615C143.314 127.725 143.223 127.881 143.223 128.084C143.223 128.236 143.268 128.365 143.357 128.471C143.447 128.576 143.602 128.682 143.82 128.787C144.043 128.893 144.352 129.023 144.746 129.18C145.133 129.328 145.467 129.484 145.748 129.648C146.033 129.809 146.252 130.006 146.404 130.24C146.557 130.475 146.633 130.777 146.633 131.148ZM153.781 126.391C154.602 126.391 155.221 126.572 155.639 126.936C156.061 127.299 156.271 127.865 156.271 128.635V133H155.293L155.029 132.08H154.982C154.799 132.314 154.609 132.508 154.414 132.66C154.219 132.812 153.992 132.926 153.734 133C153.48 133.078 153.17 133.117 152.803 133.117C152.416 133.117 152.07 133.047 151.766 132.906C151.461 132.762 151.221 132.543 151.045 132.25C150.869 131.957 150.781 131.586 150.781 131.137C150.781 130.469 151.029 129.967 151.525 129.631C152.025 129.295 152.779 129.109 153.787 129.074L154.912 129.033V128.693C154.912 128.244 154.807 127.924 154.596 127.732C154.389 127.541 154.096 127.445 153.717 127.445C153.393 127.445 153.078 127.492 152.773 127.586C152.469 127.68 152.172 127.795 151.883 127.932L151.438 126.959C151.754 126.791 152.113 126.654 152.516 126.549C152.922 126.443 153.344 126.391 153.781 126.391ZM154.906 129.9L154.068 129.93C153.381 129.953 152.898 130.07 152.621 130.281C152.344 130.492 152.205 130.781 152.205 131.148C152.205 131.469 152.301 131.703 152.492 131.852C152.684 131.996 152.936 132.068 153.248 132.068C153.725 132.068 154.119 131.934 154.432 131.664C154.748 131.391 154.906 130.99 154.906 130.463V129.9ZM159.576 123.883V126.08C159.576 126.334 159.568 126.584 159.553 126.83C159.541 127.072 159.529 127.262 159.518 127.398H159.576C159.752 127.117 159.996 126.881 160.309 126.689C160.625 126.494 161.029 126.396 161.521 126.396C162.291 126.396 162.91 126.68 163.379 127.246C163.848 127.809 164.082 128.643 164.082 129.748C164.082 130.482 163.975 131.1 163.76 131.6C163.545 132.1 163.242 132.479 162.852 132.736C162.465 132.99 162.01 133.117 161.486 133.117C160.994 133.117 160.596 133.027 160.291 132.848C159.99 132.664 159.754 132.451 159.582 132.209H159.482L159.23 133H158.199V123.883H159.576ZM161.158 127.516C160.768 127.516 160.457 127.594 160.227 127.75C160 127.906 159.836 128.141 159.734 128.453C159.633 128.762 159.58 129.154 159.576 129.631V129.754C159.576 130.477 159.689 131.029 159.916 131.412C160.146 131.795 160.564 131.986 161.17 131.986C161.65 131.986 162.02 131.793 162.277 131.406C162.535 131.016 162.664 130.457 162.664 129.73C162.664 128.996 162.535 128.443 162.277 128.072C162.023 127.701 161.65 127.516 161.158 127.516ZM171.418 129.742C171.418 130.281 171.348 130.76 171.207 131.178C171.066 131.596 170.861 131.949 170.592 132.238C170.322 132.523 169.998 132.742 169.619 132.895C169.24 133.043 168.812 133.117 168.336 133.117C167.891 133.117 167.482 133.043 167.111 132.895C166.74 132.742 166.418 132.523 166.145 132.238C165.875 131.949 165.666 131.596 165.518 131.178C165.369 130.76 165.295 130.281 165.295 129.742C165.295 129.027 165.418 128.422 165.664 127.926C165.914 127.426 166.27 127.045 166.73 126.783C167.191 126.521 167.74 126.391 168.377 126.391C168.975 126.391 169.502 126.521 169.959 126.783C170.416 127.045 170.773 127.426 171.031 127.926C171.289 128.426 171.418 129.031 171.418 129.742ZM166.713 129.742C166.713 130.215 166.77 130.619 166.883 130.955C167 131.291 167.18 131.549 167.422 131.729C167.664 131.904 167.977 131.992 168.359 131.992C168.742 131.992 169.055 131.904 169.297 131.729C169.539 131.549 169.717 131.291 169.83 130.955C169.943 130.619 170 130.215 170 129.742C170 129.27 169.943 128.869 169.83 128.541C169.717 128.209 169.539 127.957 169.297 127.785C169.055 127.609 168.74 127.521 168.354 127.521C167.783 127.521 167.367 127.713 167.105 128.096C166.844 128.479 166.713 129.027 166.713 129.742ZM178.654 126.514V133H177.57L177.383 132.127H177.307C177.17 132.35 176.996 132.535 176.785 132.684C176.574 132.828 176.34 132.936 176.082 133.006C175.824 133.08 175.553 133.117 175.268 133.117C174.779 133.117 174.361 133.035 174.014 132.871C173.67 132.703 173.406 132.445 173.223 132.098C173.039 131.75 172.947 131.301 172.947 130.75V126.514H174.33V130.492C174.33 130.996 174.432 131.373 174.635 131.623C174.842 131.873 175.162 131.998 175.596 131.998C176.014 131.998 176.346 131.912 176.592 131.74C176.838 131.568 177.012 131.314 177.113 130.979C177.219 130.643 177.271 130.23 177.271 129.742V126.514H178.654ZM183.043 132.004C183.223 132.004 183.4 131.988 183.576 131.957C183.752 131.922 183.912 131.881 184.057 131.834V132.877C183.904 132.943 183.707 133 183.465 133.047C183.223 133.094 182.971 133.117 182.709 133.117C182.342 133.117 182.012 133.057 181.719 132.936C181.426 132.811 181.193 132.598 181.021 132.297C180.85 131.996 180.764 131.58 180.764 131.049V127.562H179.879V126.947L180.828 126.461L181.279 125.072H182.146V126.514H184.004V127.562H182.146V131.031C182.146 131.359 182.229 131.604 182.393 131.764C182.557 131.924 182.773 132.004 183.043 132.004ZM192.33 133L189.863 125.846H189.811C189.822 126.006 189.836 126.225 189.852 126.502C189.867 126.779 189.881 127.076 189.893 127.393C189.904 127.709 189.91 128.012 189.91 128.301V133H188.633V124.434H190.607L192.98 131.271H193.016L195.471 124.434H197.439V133H196.098V128.23C196.098 127.969 196.102 127.686 196.109 127.381C196.121 127.076 196.133 126.787 196.145 126.514C196.16 126.24 196.172 126.021 196.18 125.857H196.133L193.572 133H192.33ZM202.139 126.391C202.717 126.391 203.213 126.51 203.627 126.748C204.041 126.986 204.359 127.324 204.582 127.762C204.805 128.199 204.916 128.723 204.916 129.332V130.07H200.586C200.602 130.699 200.77 131.184 201.09 131.523C201.414 131.863 201.867 132.033 202.449 132.033C202.863 132.033 203.234 131.994 203.562 131.916C203.895 131.834 204.236 131.715 204.588 131.559V132.678C204.264 132.83 203.934 132.941 203.598 133.012C203.262 133.082 202.859 133.117 202.391 133.117C201.754 133.117 201.193 132.994 200.709 132.748C200.229 132.498 199.852 132.127 199.578 131.635C199.309 131.143 199.174 130.531 199.174 129.801C199.174 129.074 199.297 128.457 199.543 127.949C199.789 127.441 200.135 127.055 200.58 126.789C201.025 126.523 201.545 126.391 202.139 126.391ZM202.139 127.428C201.705 127.428 201.354 127.568 201.084 127.85C200.818 128.131 200.662 128.543 200.615 129.086H203.568C203.564 128.762 203.51 128.475 203.404 128.225C203.303 127.975 203.146 127.779 202.936 127.639C202.729 127.498 202.463 127.428 202.139 127.428ZM210.828 131.148C210.828 131.574 210.725 131.934 210.518 132.227C210.311 132.52 210.008 132.742 209.609 132.895C209.215 133.043 208.73 133.117 208.156 133.117C207.703 133.117 207.312 133.084 206.984 133.018C206.66 132.955 206.354 132.857 206.064 132.725V131.535C206.373 131.68 206.719 131.805 207.102 131.91C207.488 132.016 207.854 132.068 208.197 132.068C208.65 132.068 208.977 131.998 209.176 131.857C209.375 131.713 209.475 131.521 209.475 131.283C209.475 131.143 209.434 131.018 209.352 130.908C209.273 130.795 209.125 130.68 208.906 130.562C208.691 130.441 208.375 130.297 207.957 130.129C207.547 129.965 207.201 129.801 206.92 129.637C206.639 129.473 206.426 129.275 206.281 129.045C206.137 128.811 206.064 128.512 206.064 128.148C206.064 127.574 206.291 127.139 206.744 126.842C207.201 126.541 207.805 126.391 208.555 126.391C208.953 126.391 209.328 126.432 209.68 126.514C210.035 126.592 210.383 126.707 210.723 126.859L210.289 127.896C209.996 127.768 209.701 127.662 209.404 127.58C209.111 127.494 208.812 127.451 208.508 127.451C208.152 127.451 207.881 127.506 207.693 127.615C207.51 127.725 207.418 127.881 207.418 128.084C207.418 128.236 207.463 128.365 207.553 128.471C207.643 128.576 207.797 128.682 208.016 128.787C208.238 128.893 208.547 129.023 208.941 129.18C209.328 129.328 209.662 129.484 209.943 129.648C210.229 129.809 210.447 130.006 210.6 130.24C210.752 130.475 210.828 130.777 210.828 131.148ZM213.693 123.883V126.174C213.693 126.412 213.686 126.645 213.67 126.871C213.658 127.098 213.645 127.273 213.629 127.398H213.705C213.842 127.172 214.01 126.986 214.209 126.842C214.408 126.693 214.631 126.582 214.877 126.508C215.127 126.434 215.393 126.396 215.674 126.396C216.17 126.396 216.592 126.48 216.939 126.648C217.287 126.812 217.553 127.068 217.736 127.416C217.924 127.764 218.018 128.215 218.018 128.77V133H216.641V129.027C216.641 128.523 216.537 128.146 216.33 127.896C216.123 127.643 215.803 127.516 215.369 127.516C214.951 127.516 214.619 127.604 214.373 127.779C214.131 127.951 213.957 128.207 213.852 128.547C213.746 128.883 213.693 129.293 213.693 129.777V133H212.316V123.883H213.693ZM222.529 126.391C223.107 126.391 223.604 126.51 224.018 126.748C224.432 126.986 224.75 127.324 224.973 127.762C225.195 128.199 225.307 128.723 225.307 129.332V130.07H220.977C220.992 130.699 221.16 131.184 221.48 131.523C221.805 131.863 222.258 132.033 222.84 132.033C223.254 132.033 223.625 131.994 223.953 131.916C224.285 131.834 224.627 131.715 224.979 131.559V132.678C224.654 132.83 224.324 132.941 223.988 133.012C223.652 133.082 223.25 133.117 222.781 133.117C222.145 133.117 221.584 132.994 221.1 132.748C220.619 132.498 220.242 132.127 219.969 131.635C219.699 131.143 219.564 130.531 219.564 129.801C219.564 129.074 219.688 128.457 219.934 127.949C220.18 127.441 220.525 127.055 220.971 126.789C221.416 126.523 221.936 126.391 222.529 126.391ZM222.529 127.428C222.096 127.428 221.744 127.568 221.475 127.85C221.209 128.131 221.053 128.543 221.006 129.086H223.959C223.955 128.762 223.9 128.475 223.795 128.225C223.693 127.975 223.537 127.779 223.326 127.639C223.119 127.498 222.854 127.428 222.529 127.428ZM230.146 126.391C230.256 126.391 230.375 126.396 230.504 126.408C230.633 126.42 230.744 126.436 230.838 126.455L230.709 127.744C230.627 127.721 230.525 127.703 230.404 127.691C230.287 127.68 230.182 127.674 230.088 127.674C229.842 127.674 229.607 127.715 229.385 127.797C229.162 127.875 228.965 127.996 228.793 128.16C228.621 128.32 228.486 128.521 228.389 128.764C228.291 129.006 228.242 129.287 228.242 129.607V133H226.859V126.514H227.938L228.125 127.656H228.189C228.318 127.426 228.479 127.215 228.67 127.023C228.861 126.832 229.08 126.68 229.326 126.566C229.576 126.449 229.85 126.391 230.146 126.391ZM231.061 126.514H232.561L233.891 130.217C233.949 130.385 234.002 130.551 234.049 130.715C234.1 130.875 234.143 131.033 234.178 131.189C234.217 131.346 234.248 131.502 234.271 131.658H234.307C234.346 131.455 234.4 131.229 234.471 130.979C234.545 130.725 234.627 130.471 234.717 130.217L235.994 126.514H237.477L234.693 133.891C234.533 134.312 234.336 134.672 234.102 134.969C233.871 135.27 233.598 135.496 233.281 135.648C232.965 135.805 232.604 135.883 232.197 135.883C232.002 135.883 231.832 135.871 231.688 135.848C231.543 135.828 231.42 135.807 231.318 135.783V134.682C231.4 134.701 231.504 134.719 231.629 134.734C231.754 134.75 231.883 134.758 232.016 134.758C232.262 134.758 232.475 134.709 232.654 134.611C232.834 134.514 232.986 134.375 233.111 134.195C233.236 134.02 233.34 133.818 233.422 133.592L233.65 132.982L231.061 126.514ZM246.881 132.994L246.061 129.977C246.021 129.828 245.975 129.648 245.92 129.438C245.865 129.227 245.811 129.01 245.756 128.787C245.701 128.561 245.65 128.352 245.604 128.16C245.561 127.969 245.527 127.82 245.504 127.715H245.457C245.438 127.82 245.406 127.969 245.363 128.16C245.32 128.352 245.271 128.561 245.217 128.787C245.162 129.014 245.107 129.234 245.053 129.449C245.002 129.664 244.955 129.848 244.912 130L244.051 132.994H242.539L240.723 126.508H242.117L242.961 129.73C243.016 129.949 243.068 130.186 243.119 130.439C243.174 130.693 243.221 130.936 243.26 131.166C243.299 131.396 243.328 131.586 243.348 131.734H243.395C243.41 131.629 243.432 131.496 243.459 131.336C243.486 131.172 243.518 131.002 243.553 130.826C243.588 130.646 243.623 130.479 243.658 130.322C243.693 130.162 243.727 130.033 243.758 129.936L244.754 126.508H246.26L247.215 129.936C247.258 130.084 247.305 130.271 247.355 130.498C247.406 130.721 247.451 130.945 247.49 131.172C247.533 131.395 247.561 131.58 247.572 131.729H247.619C247.635 131.596 247.662 131.416 247.701 131.189C247.744 130.959 247.793 130.715 247.848 130.457C247.902 130.195 247.959 129.953 248.018 129.73L248.879 126.508H250.25L248.422 132.994H246.881ZM252.74 126.514V133H251.363V126.514H252.74ZM252.061 124.029C252.271 124.029 252.453 124.086 252.605 124.199C252.762 124.312 252.84 124.508 252.84 124.785C252.84 125.059 252.762 125.254 252.605 125.371C252.453 125.484 252.271 125.541 252.061 125.541C251.842 125.541 251.656 125.484 251.504 125.371C251.355 125.254 251.281 125.059 251.281 124.785C251.281 124.508 251.355 124.312 251.504 124.199C251.656 124.086 251.842 124.029 252.061 124.029ZM257.129 132.004C257.309 132.004 257.486 131.988 257.662 131.957C257.838 131.922 257.998 131.881 258.143 131.834V132.877C257.99 132.943 257.793 133 257.551 133.047C257.309 133.094 257.057 133.117 256.795 133.117C256.428 133.117 256.098 133.057 255.805 132.936C255.512 132.811 255.279 132.598 255.107 132.297C254.936 131.996 254.85 131.58 254.85 131.049V127.562H253.965V126.947L254.914 126.461L255.365 125.072H256.232V126.514H258.09V127.562H256.232V131.031C256.232 131.359 256.314 131.604 256.479 131.764C256.643 131.924 256.859 132.004 257.129 132.004ZM260.838 123.883V126.174C260.838 126.412 260.83 126.645 260.814 126.871C260.803 127.098 260.789 127.273 260.773 127.398H260.85C260.986 127.172 261.154 126.986 261.354 126.842C261.553 126.693 261.775 126.582 262.021 126.508C262.271 126.434 262.537 126.396 262.818 126.396C263.314 126.396 263.736 126.48 264.084 126.648C264.432 126.812 264.697 127.068 264.881 127.416C265.068 127.764 265.162 128.215 265.162 128.77V133H263.785V129.027C263.785 128.523 263.682 128.146 263.475 127.896C263.268 127.643 262.947 127.516 262.514 127.516C262.096 127.516 261.764 127.604 261.518 127.779C261.275 127.951 261.102 128.207 260.996 128.547C260.891 128.883 260.838 129.293 260.838 129.777V133H259.461V123.883H260.838ZM269.229 126.514H270.729L272.059 130.217C272.117 130.385 272.17 130.551 272.217 130.715C272.268 130.875 272.311 131.033 272.346 131.189C272.385 131.346 272.416 131.502 272.439 131.658H272.475C272.514 131.455 272.568 131.229 272.639 130.979C272.713 130.725 272.795 130.471 272.885 130.217L274.162 126.514H275.645L272.861 133.891C272.701 134.312 272.504 134.672 272.27 134.969C272.039 135.27 271.766 135.496 271.449 135.648C271.133 135.805 270.771 135.883 270.365 135.883C270.17 135.883 270 135.871 269.855 135.848C269.711 135.828 269.588 135.807 269.486 135.783V134.682C269.568 134.701 269.672 134.719 269.797 134.734C269.922 134.75 270.051 134.758 270.184 134.758C270.43 134.758 270.643 134.709 270.822 134.611C271.002 134.514 271.154 134.375 271.279 134.195C271.404 134.02 271.508 133.818 271.59 133.592L271.818 132.982L269.229 126.514ZM282.371 129.742C282.371 130.281 282.301 130.76 282.16 131.178C282.02 131.596 281.814 131.949 281.545 132.238C281.275 132.523 280.951 132.742 280.572 132.895C280.193 133.043 279.766 133.117 279.289 133.117C278.844 133.117 278.436 133.043 278.064 132.895C277.693 132.742 277.371 132.523 277.098 132.238C276.828 131.949 276.619 131.596 276.471 131.178C276.322 130.76 276.248 130.281 276.248 129.742C276.248 129.027 276.371 128.422 276.617 127.926C276.867 127.426 277.223 127.045 277.684 126.783C278.145 126.521 278.693 126.391 279.33 126.391C279.928 126.391 280.455 126.521 280.912 126.783C281.369 127.045 281.727 127.426 281.984 127.926C282.242 128.426 282.371 129.031 282.371 129.742ZM277.666 129.742C277.666 130.215 277.723 130.619 277.836 130.955C277.953 131.291 278.133 131.549 278.375 131.729C278.617 131.904 278.93 131.992 279.312 131.992C279.695 131.992 280.008 131.904 280.25 131.729C280.492 131.549 280.67 131.291 280.783 130.955C280.896 130.619 280.953 130.215 280.953 129.742C280.953 129.27 280.896 128.869 280.783 128.541C280.67 128.209 280.492 127.957 280.25 127.785C280.008 127.609 279.693 127.521 279.307 127.521C278.736 127.521 278.32 127.713 278.059 128.096C277.797 128.479 277.666 129.027 277.666 129.742ZM289.607 126.514V133H288.523L288.336 132.127H288.26C288.123 132.35 287.949 132.535 287.738 132.684C287.527 132.828 287.293 132.936 287.035 133.006C286.777 133.08 286.506 133.117 286.221 133.117C285.732 133.117 285.314 133.035 284.967 132.871C284.623 132.703 284.359 132.445 284.176 132.098C283.992 131.75 283.9 131.301 283.9 130.75V126.514H285.283V130.492C285.283 130.996 285.385 131.373 285.588 131.623C285.795 131.873 286.115 131.998 286.549 131.998C286.967 131.998 287.299 131.912 287.545 131.74C287.791 131.568 287.965 131.314 288.066 130.979C288.172 130.643 288.225 130.23 288.225 129.742V126.514H289.607ZM297.283 126.391C297.861 126.391 298.357 126.51 298.771 126.748C299.186 126.986 299.504 127.324 299.727 127.762C299.949 128.199 300.061 128.723 300.061 129.332V130.07H295.73C295.746 130.699 295.914 131.184 296.234 131.523C296.559 131.863 297.012 132.033 297.594 132.033C298.008 132.033 298.379 131.994 298.707 131.916C299.039 131.834 299.381 131.715 299.732 131.559V132.678C299.408 132.83 299.078 132.941 298.742 133.012C298.406 133.082 298.004 133.117 297.535 133.117C296.898 133.117 296.338 132.994 295.854 132.748C295.373 132.498 294.996 132.127 294.723 131.635C294.453 131.143 294.318 130.531 294.318 129.801C294.318 129.074 294.441 128.457 294.688 127.949C294.934 127.441 295.279 127.055 295.725 126.789C296.17 126.523 296.689 126.391 297.283 126.391ZM297.283 127.428C296.85 127.428 296.498 127.568 296.229 127.85C295.963 128.131 295.807 128.543 295.76 129.086H298.713C298.709 128.762 298.654 128.475 298.549 128.225C298.447 127.975 298.291 127.779 298.08 127.639C297.873 127.498 297.607 127.428 297.283 127.428ZM303.096 133L300.629 126.514H302.088L303.424 130.322C303.51 130.564 303.588 130.826 303.658 131.107C303.729 131.389 303.777 131.625 303.805 131.816H303.852C303.879 131.617 303.932 131.379 304.01 131.102C304.088 130.82 304.168 130.561 304.25 130.322L305.586 126.514H307.039L304.572 133H303.096ZM310.607 126.391C311.186 126.391 311.682 126.51 312.096 126.748C312.51 126.986 312.828 127.324 313.051 127.762C313.273 128.199 313.385 128.723 313.385 129.332V130.07H309.055C309.07 130.699 309.238 131.184 309.559 131.523C309.883 131.863 310.336 132.033 310.918 132.033C311.332 132.033 311.703 131.994 312.031 131.916C312.363 131.834 312.705 131.715 313.057 131.559V132.678C312.732 132.83 312.402 132.941 312.066 133.012C311.73 133.082 311.328 133.117 310.859 133.117C310.223 133.117 309.662 132.994 309.178 132.748C308.697 132.498 308.32 132.127 308.047 131.635C307.777 131.143 307.643 130.531 307.643 129.801C307.643 129.074 307.766 128.457 308.012 127.949C308.258 127.441 308.604 127.055 309.049 126.789C309.494 126.523 310.014 126.391 310.607 126.391ZM310.607 127.428C310.174 127.428 309.822 127.568 309.553 127.85C309.287 128.131 309.131 128.543 309.084 129.086H312.037C312.033 128.762 311.979 128.475 311.873 128.225C311.771 127.975 311.615 127.779 311.404 127.639C311.197 127.498 310.932 127.428 310.607 127.428ZM318.225 126.391C318.334 126.391 318.453 126.396 318.582 126.408C318.711 126.42 318.822 126.436 318.916 126.455L318.787 127.744C318.705 127.721 318.604 127.703 318.482 127.691C318.365 127.68 318.26 127.674 318.166 127.674C317.92 127.674 317.686 127.715 317.463 127.797C317.24 127.875 317.043 127.996 316.871 128.16C316.699 128.32 316.564 128.521 316.467 128.764C316.369 129.006 316.32 129.287 316.32 129.607V133H314.938V126.514H316.016L316.203 127.656H316.268C316.396 127.426 316.557 127.215 316.748 127.023C316.939 126.832 317.158 126.68 317.404 126.566C317.654 126.449 317.928 126.391 318.225 126.391ZM319.139 126.514H320.639L321.969 130.217C322.027 130.385 322.08 130.551 322.127 130.715C322.178 130.875 322.221 131.033 322.256 131.189C322.295 131.346 322.326 131.502 322.35 131.658H322.385C322.424 131.455 322.479 131.229 322.549 130.979C322.623 130.725 322.705 130.471 322.795 130.217L324.072 126.514H325.555L322.771 133.891C322.611 134.312 322.414 134.672 322.18 134.969C321.949 135.27 321.676 135.496 321.359 135.648C321.043 135.805 320.682 135.883 320.275 135.883C320.08 135.883 319.91 135.871 319.766 135.848C319.621 135.828 319.498 135.807 319.396 135.783V134.682C319.479 134.701 319.582 134.719 319.707 134.734C319.832 134.75 319.961 134.758 320.094 134.758C320.34 134.758 320.553 134.709 320.732 134.611C320.912 134.514 321.064 134.375 321.189 134.195C321.314 134.02 321.418 133.818 321.5 133.592L321.729 132.982L319.139 126.514ZM328.678 126.514H330.178L331.508 130.217C331.566 130.385 331.619 130.551 331.666 130.715C331.717 130.875 331.76 131.033 331.795 131.189C331.834 131.346 331.865 131.502 331.889 131.658H331.924C331.963 131.455 332.018 131.229 332.088 130.979C332.162 130.725 332.244 130.471 332.334 130.217L333.611 126.514H335.094L332.311 133.891C332.15 134.312 331.953 134.672 331.719 134.969C331.488 135.27 331.215 135.496 330.898 135.648C330.582 135.805 330.221 135.883 329.814 135.883C329.619 135.883 329.449 135.871 329.305 135.848C329.16 135.828 329.037 135.807 328.936 135.783V134.682C329.018 134.701 329.121 134.719 329.246 134.734C329.371 134.75 329.5 134.758 329.633 134.758C329.879 134.758 330.092 134.709 330.271 134.611C330.451 134.514 330.604 134.375 330.729 134.195C330.854 134.02 330.957 133.818 331.039 133.592L331.268 132.982L328.678 126.514ZM341.82 129.742C341.82 130.281 341.75 130.76 341.609 131.178C341.469 131.596 341.264 131.949 340.994 132.238C340.725 132.523 340.4 132.742 340.021 132.895C339.643 133.043 339.215 133.117 338.738 133.117C338.293 133.117 337.885 133.043 337.514 132.895C337.143 132.742 336.82 132.523 336.547 132.238C336.277 131.949 336.068 131.596 335.92 131.178C335.771 130.76 335.697 130.281 335.697 129.742C335.697 129.027 335.82 128.422 336.066 127.926C336.316 127.426 336.672 127.045 337.133 126.783C337.594 126.521 338.143 126.391 338.779 126.391C339.377 126.391 339.904 126.521 340.361 126.783C340.818 127.045 341.176 127.426 341.434 127.926C341.691 128.426 341.82 129.031 341.82 129.742ZM337.115 129.742C337.115 130.215 337.172 130.619 337.285 130.955C337.402 131.291 337.582 131.549 337.824 131.729C338.066 131.904 338.379 131.992 338.762 131.992C339.145 131.992 339.457 131.904 339.699 131.729C339.941 131.549 340.119 131.291 340.232 130.955C340.346 130.619 340.402 130.215 340.402 129.742C340.402 129.27 340.346 128.869 340.232 128.541C340.119 128.209 339.941 127.957 339.699 127.785C339.457 127.609 339.143 127.521 338.756 127.521C338.186 127.521 337.77 127.713 337.508 128.096C337.246 128.479 337.115 129.027 337.115 129.742ZM349.057 126.514V133H347.973L347.785 132.127H347.709C347.572 132.35 347.398 132.535 347.188 132.684C346.977 132.828 346.742 132.936 346.484 133.006C346.227 133.08 345.955 133.117 345.67 133.117C345.182 133.117 344.764 133.035 344.416 132.871C344.072 132.703 343.809 132.445 343.625 132.098C343.441 131.75 343.35 131.301 343.35 130.75V126.514H344.732V130.492C344.732 130.996 344.834 131.373 345.037 131.623C345.244 131.873 345.564 131.998 345.998 131.998C346.416 131.998 346.748 131.912 346.994 131.74C347.24 131.568 347.414 131.314 347.516 130.979C347.621 130.643 347.674 130.23 347.674 129.742V126.514H349.057ZM34.8359 151.883C33.957 151.883 33.2832 151.725 32.8145 151.408C32.3457 151.092 32.1113 150.648 32.1113 150.078C32.1113 149.68 32.2363 149.342 32.4863 149.064C32.7363 148.791 33.0938 148.602 33.5586 148.496C33.3828 148.418 33.2305 148.297 33.1016 148.133C32.9766 147.965 32.9141 147.779 32.9141 147.576C32.9141 147.334 32.9824 147.127 33.1191 146.955C33.2559 146.783 33.4609 146.617 33.7344 146.457C33.3945 146.312 33.1211 146.078 32.9141 145.754C32.7109 145.426 32.6094 145.041 32.6094 144.6C32.6094 144.131 32.709 143.732 32.9082 143.404C33.1074 143.072 33.3984 142.82 33.7812 142.648C34.1641 142.473 34.627 142.385 35.1699 142.385C35.2871 142.385 35.4141 142.393 35.5508 142.408C35.6914 142.42 35.8203 142.436 35.9375 142.455C36.0586 142.471 36.1504 142.488 36.2129 142.508H38.457V143.275L37.3555 143.48C37.4609 143.629 37.5449 143.799 37.6074 143.99C37.6699 144.178 37.7012 144.383 37.7012 144.605C37.7012 145.277 37.4688 145.807 37.0039 146.193C36.543 146.576 35.9062 146.768 35.0938 146.768C34.8984 146.76 34.709 146.744 34.5254 146.721C34.3848 146.807 34.2773 146.902 34.2031 147.008C34.1289 147.109 34.0918 147.225 34.0918 147.354C34.0918 147.459 34.1289 147.545 34.2031 147.611C34.2773 147.674 34.3867 147.721 34.5312 147.752C34.6797 147.783 34.8594 147.799 35.0703 147.799H36.1895C36.9004 147.799 37.4434 147.949 37.8184 148.25C38.1934 148.551 38.3809 148.992 38.3809 149.574C38.3809 150.312 38.0762 150.881 37.4668 151.279C36.8574 151.682 35.9805 151.883 34.8359 151.883ZM34.8887 150.916C35.3691 150.916 35.7734 150.869 36.1016 150.775C36.4297 150.682 36.6777 150.547 36.8457 150.371C37.0137 150.199 37.0977 149.994 37.0977 149.756C37.0977 149.545 37.0449 149.383 36.9395 149.27C36.834 149.156 36.6758 149.078 36.4648 149.035C36.2539 148.992 35.9922 148.971 35.6797 148.971H34.6602C34.4062 148.971 34.1816 149.01 33.9863 149.088C33.791 149.17 33.6387 149.287 33.5293 149.439C33.4238 149.592 33.3711 149.775 33.3711 149.99C33.3711 150.287 33.502 150.516 33.7637 150.676C34.0293 150.836 34.4043 150.916 34.8887 150.916ZM35.1582 145.865C35.5605 145.865 35.8594 145.756 36.0547 145.537C36.25 145.314 36.3477 145.002 36.3477 144.6C36.3477 144.162 36.2461 143.834 36.043 143.615C35.8438 143.396 35.5469 143.287 35.1523 143.287C34.7656 143.287 34.4707 143.398 34.2676 143.621C34.0684 143.844 33.9688 144.174 33.9688 144.611C33.9688 145.006 34.0684 145.314 34.2676 145.537C34.4707 145.756 34.7676 145.865 35.1582 145.865ZM45.3828 145.742C45.3828 146.281 45.3125 146.76 45.1719 147.178C45.0312 147.596 44.8262 147.949 44.5566 148.238C44.2871 148.523 43.9629 148.742 43.584 148.895C43.2051 149.043 42.7773 149.117 42.3008 149.117C41.8555 149.117 41.4473 149.043 41.0762 148.895C40.7051 148.742 40.3828 148.523 40.1094 148.238C39.8398 147.949 39.6309 147.596 39.4824 147.178C39.334 146.76 39.2598 146.281 39.2598 145.742C39.2598 145.027 39.3828 144.422 39.6289 143.926C39.8789 143.426 40.2344 143.045 40.6953 142.783C41.1562 142.521 41.7051 142.391 42.3418 142.391C42.9395 142.391 43.4668 142.521 43.9238 142.783C44.3809 143.045 44.7383 143.426 44.9961 143.926C45.2539 144.426 45.3828 145.031 45.3828 145.742ZM40.6777 145.742C40.6777 146.215 40.7344 146.619 40.8477 146.955C40.9648 147.291 41.1445 147.549 41.3867 147.729C41.6289 147.904 41.9414 147.992 42.3242 147.992C42.707 147.992 43.0195 147.904 43.2617 147.729C43.5039 147.549 43.6816 147.291 43.7949 146.955C43.9082 146.619 43.9648 146.215 43.9648 145.742C43.9648 145.27 43.9082 144.869 43.7949 144.541C43.6816 144.209 43.5039 143.957 43.2617 143.785C43.0195 143.609 42.7051 143.521 42.3184 143.521C41.748 143.521 41.332 143.713 41.0703 144.096C40.8086 144.479 40.6777 145.027 40.6777 145.742ZM48.1543 146.387H47.1172L46.8359 140.434H48.4355L48.1543 146.387ZM46.7656 148.273C46.7656 147.953 46.8477 147.729 47.0117 147.6C47.1797 147.467 47.3848 147.4 47.627 147.4C47.8652 147.4 48.0684 147.467 48.2363 147.6C48.4043 147.729 48.4883 147.953 48.4883 148.273C48.4883 148.586 48.4043 148.812 48.2363 148.953C48.0684 149.09 47.8652 149.158 47.627 149.158C47.3848 149.158 47.1797 149.09 47.0117 148.953C46.8477 148.812 46.7656 148.586 46.7656 148.273Z" fill="#D2D8DA"/>
<path d="M185.084 183.5C163.683 183.5 146.334 200.849 146.334 222.25C146.334 228.106 147.636 233.668 149.968 238.654C148.407 244.984 147.055 251.744 146.446 254.89C145.758 258.449 148.852 261.568 152.405 260.935C155.625 260.362 162.625 259.071 169.126 257.571C173.997 259.775 179.402 261 185.084 261C206.485 261 223.834 243.651 223.834 222.25C223.834 200.849 206.485 183.5 185.084 183.5ZM184.887 266.165C191.801 272.579 201.06 276.501 211.236 276.501C216.916 276.501 222.32 275.276 227.19 273.074C232.583 274.336 238.486 275.595 242.243 276.381C246.854 277.344 250.881 273.206 249.824 268.634C248.985 265 247.661 259.358 246.354 254.15C248.685 249.166 249.986 243.605 249.986 237.751C249.986 220.789 239.088 206.373 223.911 201.122C225.721 204.413 227.121 207.961 228.043 211.698C236.583 217.219 242.236 226.825 242.236 237.751C242.236 242.873 240.996 247.695 238.804 251.943L238.13 253.25L238.493 254.675C239.67 259.302 240.903 264.492 241.807 268.37C237.808 267.524 232.416 266.354 227.655 265.22L226.288 264.895L225.03 265.521C220.88 267.587 216.199 268.751 211.236 268.751C205.761 268.751 200.618 267.332 196.155 264.842C192.714 265.708 189.112 266.168 185.402 266.168C185.23 266.168 185.059 266.167 184.887 266.165Z" fill="#E7EFF3"/>
<defs>
<linearGradient id="paint0_linear_27509_125248" x1="-111.375" y1="161.999" x2="308.784" y2="450.86" gradientUnits="userSpaceOnUse">
<stop stop-color="#111111"/>
<stop offset="0.63" stop-color="#096258"/>
<stop offset="1" stop-color="#00B39F"/>
</linearGradient>
</defs>
</svg>
