<svg width="960" height="540" viewBox="0 0 960 540" fill="none" xmlns="http://www.w3.org/2000/svg">
<path d="M0 24C0 10.7452 10.7452 0 24 0H936C949.255 0 960 10.7452 960 24V516C960 529.255 949.255 540 936 540H24C10.7451 540 0 529.255 0 516V24Z" fill="url(#paint0_linear_27168_25252)"/>
<path d="M524 186.75C524 163.14 543.14 144 566.75 144H841.25C864.86 144 884 163.14 884 186.75V389.25C884 412.86 864.86 432 841.25 432H566.75C543.14 432 524 412.86 524 389.25V186.75ZM607.25 274.5C601.037 274.5 596 279.537 596 285.75C596 291.963 601.037 297 607.25 297H764.75C770.963 297 776 291.963 776 285.75C776 279.537 770.963 274.5 764.75 274.5H607.25ZM596 344.25C596 350.463 601.037 355.5 607.25 355.5H728.75C734.963 355.5 740 350.463 740 344.25C740 338.037 734.963 333 728.75 333H607.25C601.037 333 596 338.037 596 344.25ZM607.25 216C601.037 216 596 221.037 596 227.25C596 233.463 601.037 238.5 607.25 238.5H692.75C698.963 238.5 704 233.463 704 227.25C704 221.037 698.963 216 692.75 216H607.25Z" fill="#E7EFF3"/>
<path d="M101.768 80.9883V98.1568L116.922 89.5276L101.768 80.9883Z" fill="#00D3A9"/>
<path d="M101.768 101.752V119.055L117.06 110.426L101.768 101.752Z" fill="#00D3A9"/>
<path d="M99.5789 98.0688V81.125L84.6074 89.5744L99.5789 98.0688Z" fill="#00B39F"/>
<path d="M69.5039 118.966C72.4341 123.595 76.4174 127.55 81.1332 130.472V112.359L69.5039 118.966Z" fill="#00B39F"/>
<path d="M99.5759 118.967V101.889L84.5586 110.428L99.5759 118.967Z" fill="#00B39F"/>
<path d="M83.3105 129.393L98.5109 120.854L83.3105 112.225V129.393Z" fill="#00D3A9"/>
<path d="M118.122 129.483V112.314L102.922 120.854L118.122 129.483Z" fill="#00B39F"/>
<path d="M133.002 116.988C135.612 112.224 137.077 106.966 137.306 101.572L121.465 110.471L133.002 116.988Z" fill="#00B39F"/>
<path d="M120.311 108.629L135.603 100.045L120.311 91.4609V108.629Z" fill="#00D3A9"/>
<path d="M118.115 87.731V70.6973L103.006 79.1916L118.115 87.731Z" fill="#00B39F"/>
<path d="M118.112 108.54V91.3711L102.957 99.9554L118.112 108.54Z" fill="#00B39F"/>
<path d="M83.3105 91.3242V108.673L98.6025 99.9534L83.3105 91.3242Z" fill="#00D3A9"/>
<path d="M99.577 64C93.9455 64.1348 88.4514 65.573 83.4609 68.1798L99.577 77.2584V64Z" fill="#00B39F"/>
<path d="M83.3105 70.5625V87.8209L98.6025 79.1917L83.3105 70.5625Z" fill="#00D3A9"/>
<path d="M81.1332 69.5273C76.4174 72.4487 72.4341 76.3588 69.5039 81.033L81.1332 87.6397V69.5723V69.5273Z" fill="#00B39F"/>
<path d="M118.021 68.2697C113.03 65.618 107.445 64.1798 101.768 64V77.3933L118.021 68.2697Z" fill="#00D3A9"/>
<path d="M64 101.258C64.1831 106.831 65.694 112.224 68.3953 117.123L80.1619 110.426L64 101.258Z" fill="#00D3A9"/>
<path d="M68.3953 82.875C65.694 87.7289 64.2289 93.1671 64 98.6952L80.1619 89.5716L68.3494 82.875H68.3953Z" fill="#00D3A9"/>
<path d="M83.4609 131.776C88.4514 134.383 93.9455 135.821 99.577 135.956V122.697L83.4609 131.731V131.776Z" fill="#00B39F"/>
<path d="M131.848 81.0779C128.918 76.4486 124.981 72.5385 120.311 69.6172V87.6397L131.848 81.0779Z" fill="#00D3A9"/>
<path d="M120.311 130.427C125.026 127.505 128.964 123.55 131.894 118.876L120.311 112.314V130.472V130.427Z" fill="#00D3A9"/>
<path d="M137.337 98.5623C137.108 93.0792 135.643 87.7309 132.987 82.9219L121.312 89.5286L137.337 98.5623Z" fill="#00B39F"/>
<path d="M101.768 135.999C107.399 135.864 112.893 134.426 117.884 131.819L101.768 122.65V135.999Z" fill="#00D3A9"/>
<path d="M81.1345 108.495V91.5059L66.1172 99.9553L81.1345 108.495Z" fill="#00B39F"/>
<path d="M372.74 86.1315V88.0558V96.5547V106.978V122.372H414.069V113.713H381.398V106.978V105.214H406.555V96.5547H381.398V88.0558H414.069V79.3965H372.74V86.1315Z" fill="#E7EFF3"/>
<path d="M213.305 86.1315V88.0558V96.5547V106.978V122.372H254.797V113.713H222.126V106.978V105.214H247.283V96.5547H222.126V88.0558H254.797V79.3965H213.305V86.1315Z" fill="#E7EFF3"/>
<path d="M312.135 111.147C312.135 112.751 311.809 114.194 311.155 115.477C310.502 116.92 309.685 118.043 308.705 119.005C307.725 119.967 306.418 120.769 305.111 121.41C303.641 122.052 302.171 122.372 300.7 122.372H259.861V113.392H300.7C301.354 113.392 301.844 113.232 302.334 112.751C302.824 112.27 302.987 111.789 302.987 111.147V107.619C302.987 106.978 302.824 106.497 302.334 106.016C301.844 105.535 301.354 105.374 300.7 105.374H271.296C269.663 105.374 268.193 105.054 266.886 104.412C265.415 103.771 264.272 102.969 263.292 102.007C262.312 101.045 261.495 99.7619 260.841 98.479C260.188 97.1962 259.861 95.7529 259.861 94.1494V90.6215C259.861 89.0179 260.188 87.5747 260.841 86.2919C261.495 85.009 262.312 83.7261 263.292 82.764C264.272 81.8018 265.579 81.0001 266.886 80.3586C268.193 79.7172 269.663 79.3965 271.296 79.3965H312.135V88.5369H271.296C270.643 88.5369 270.153 88.6972 269.663 89.1783C269.173 89.6594 269.009 90.1404 269.009 90.7819V94.3097C269.009 94.9512 269.173 95.4322 269.663 95.9133C270.153 96.3944 270.643 96.5547 271.296 96.5547H300.7C302.334 96.5547 303.804 96.8755 305.111 97.5169C306.418 98.1583 307.725 98.9601 308.705 99.9222C309.685 100.884 310.502 102.167 311.155 103.45C311.809 104.893 312.135 106.337 312.135 107.78V111.147Z" fill="#E7EFF3"/>
<path d="M367.188 122.372H358.857V105.535H326.349V122.372H318.018V96.3944H358.857V79.3965H367.188V122.372ZM326.349 92.3854H318.018V79.5568H326.349V92.3854Z" fill="#E7EFF3"/>
<path d="M486.112 94.4701L475.168 79.3965H464.223L481.702 105.214V122.372H490.523V105.214L508.002 79.3965H497.221L486.112 94.4701Z" fill="#E7EFF3"/>
<path d="M428.936 87.5747H451.316V90.6215V93.6683V96.7151H433.347V104.893H437.431L453.276 122.533H464.058L448.212 104.893H453.766C453.93 104.893 454.093 104.893 454.42 104.893C458.177 104.893 461.281 101.847 461.281 98.1583V93.6683V90.6215V86.1315C461.281 82.4433 458.177 79.3965 454.42 79.3965C454.256 79.3965 454.093 79.3965 453.766 79.3965H428.773H428.609H420.441V122.212H429.099L428.936 87.5747Z" fill="#E7EFF3"/>
<path d="M205.791 86.6126C203.994 82.4433 199.584 79.3965 194.846 79.5568H152.047V88.6972V122.533H161.358V88.5368C174.1 88.5368 195.336 88.3765 195.826 88.6972C199.094 87.7351 196.807 121.089 197.46 122.212H206.771C206.281 119.325 207.588 88.5368 205.791 86.6126Z" fill="#E7EFF3"/>
<path d="M184.067 93.3477H174.756V122.372H184.067V93.3477Z" fill="#E7EFF3"/>
<g clip-path="url(#clip0_27168_25252)">
<mask id="mask0_27168_25252" style="mask-type:alpha" maskUnits="userSpaceOnUse" x="68" y="216" width="18" height="24">
<path d="M79.0523 216H69.6578C68.746 216 68 216.726 68 217.614V238.053C68 238.941 68.746 239.667 69.6578 239.667H84.0258C84.9377 239.667 85.6837 238.941 85.6837 238.053V222.455L79.0523 216Z" fill="white"/>
</mask>
<g mask="url(#mask0_27168_25252)">
<path d="M79.0523 216H69.6578C68.746 216 68 216.726 68 217.614V238.053C68 238.941 68.746 239.667 69.6578 239.667H84.0258C84.9377 239.667 85.6837 238.941 85.6837 238.053V222.455L81.8154 219.765L79.0523 216Z" fill="#F4B400"/>
</g>
<mask id="mask1_27168_25252" style="mask-type:alpha" maskUnits="userSpaceOnUse" x="68" y="216" width="18" height="24">
<path d="M79.0523 216H69.6578C68.746 216 68 216.726 68 217.614V238.053C68 238.941 68.746 239.667 69.6578 239.667H84.0258C84.9377 239.667 85.6837 238.941 85.6837 238.053V222.455L79.0523 216Z" fill="white"/>
</mask>
<g mask="url(#mask1_27168_25252)">
<path d="M80.4348 226.758H73.2508C72.7949 226.758 72.4219 227.121 72.4219 227.565V234.557C72.4219 235.001 72.7949 235.364 73.2508 235.364H80.4348C80.8907 235.364 81.2637 235.001 81.2637 234.557V227.565C81.2637 227.121 80.8907 226.758 80.4348 226.758ZM80.1585 232.943H73.5271V229.178H80.1585V232.943Z" fill="#F1F1F1"/>
</g>
<mask id="mask2_27168_25252" style="mask-type:alpha" maskUnits="userSpaceOnUse" x="68" y="216" width="18" height="24">
<path d="M79.0523 216H69.6578C68.746 216 68 216.726 68 217.614V238.053C68 238.941 68.746 239.667 69.6578 239.667H84.0258C84.9377 239.667 85.6837 238.941 85.6837 238.053V222.455L79.0523 216Z" fill="white"/>
</mask>
<g mask="url(#mask2_27168_25252)">
<path d="M79.5371 221.982L85.6836 227.964V222.454L79.5371 221.982Z" fill="url(#paint1_linear_27168_25252)"/>
</g>
<mask id="mask3_27168_25252" style="mask-type:alpha" maskUnits="userSpaceOnUse" x="68" y="216" width="18" height="24">
<path d="M79.0523 216H69.6578C68.746 216 68 216.726 68 217.614V238.053C68 238.941 68.746 239.667 69.6578 239.667H84.0258C84.9377 239.667 85.6837 238.941 85.6837 238.053V222.455L79.0523 216Z" fill="white"/>
</mask>
<g mask="url(#mask3_27168_25252)">
<path d="M79.0527 216V220.841C79.0527 221.732 79.7946 222.455 80.7106 222.455H85.6841L79.0527 216Z" fill="#FADA80"/>
</g>
<mask id="mask4_27168_25252" style="mask-type:alpha" maskUnits="userSpaceOnUse" x="68" y="216" width="18" height="24">
<path d="M79.0523 216H69.6578C68.746 216 68 216.726 68 217.614V238.053C68 238.941 68.746 239.667 69.6578 239.667H84.0258C84.9377 239.667 85.6837 238.941 85.6837 238.053V222.455L79.0523 216Z" fill="white"/>
</mask>
<g mask="url(#mask4_27168_25252)">
<path d="M79.0527 216V216.134L85.546 222.455H85.6841L79.0527 216Z" fill="white" fill-opacity="0.1"/>
</g>
<mask id="mask5_27168_25252" style="mask-type:alpha" maskUnits="userSpaceOnUse" x="68" y="216" width="18" height="24">
<path d="M79.0523 216H69.6578C68.746 216 68 216.726 68 217.614V238.053C68 238.941 68.746 239.667 69.6578 239.667H84.0258C84.9377 239.667 85.6837 238.941 85.6837 238.053V222.455L79.0523 216Z" fill="white"/>
</mask>
<g mask="url(#mask5_27168_25252)">
<path d="M69.6578 216C68.746 216 68 216.726 68 217.614V217.748C68 216.861 68.746 216.134 69.6578 216.134H79.0523V216H69.6578Z" fill="white" fill-opacity="0.2"/>
</g>
<mask id="mask6_27168_25252" style="mask-type:alpha" maskUnits="userSpaceOnUse" x="68" y="216" width="18" height="24">
<path d="M79.0523 216H69.6578C68.746 216 68 216.726 68 217.614V238.053C68 238.941 68.746 239.667 69.6578 239.667H84.0258C84.9377 239.667 85.6837 238.941 85.6837 238.053V222.455L79.0523 216Z" fill="white"/>
</mask>
<g mask="url(#mask6_27168_25252)">
<path d="M84.0258 239.532H69.6578C68.746 239.532 68 238.805 68 237.918V238.052C68 238.94 68.746 239.666 69.6578 239.666H84.0258C84.9377 239.666 85.6837 238.94 85.6837 238.052V237.918C85.6837 238.805 84.9377 239.532 84.0258 239.532Z" fill="#BF360C" fill-opacity="0.2"/>
</g>
<mask id="mask7_27168_25252" style="mask-type:alpha" maskUnits="userSpaceOnUse" x="68" y="216" width="18" height="24">
<path d="M79.0523 216H69.6578C68.746 216 68 216.726 68 217.614V238.053C68 238.941 68.746 239.667 69.6578 239.667H84.0258C84.9377 239.667 85.6837 238.941 85.6837 238.053V222.455L79.0523 216Z" fill="white"/>
</mask>
<g mask="url(#mask7_27168_25252)">
<path d="M80.7106 222.455C79.7946 222.455 79.0527 221.733 79.0527 220.842V220.976C79.0527 221.868 79.7946 222.59 80.7106 222.59H85.6841V222.455H80.7106Z" fill="#BF360C" fill-opacity="0.1"/>
</g>
<path d="M79.0523 216H69.6578C68.746 216 68 216.726 68 217.614V238.053C68 238.941 68.746 239.667 69.6578 239.667H84.0258C84.9377 239.667 85.6837 238.941 85.6837 238.053V222.455L79.0523 216Z" fill="url(#paint2_radial_27168_25252)"/>
</g>
<path d="M115.056 239.416C110.992 239.416 107.472 237.24 107.152 233.08C107.12 232.632 107.344 232.376 107.792 232.376H109.424C109.84 232.376 110.064 232.6 110.096 233.048C110.416 235.32 112.336 236.536 115.056 236.536C117.648 236.536 119.472 235.224 119.472 233.208C119.472 231.032 117.296 230.104 114.8 229.208C111.472 227.96 107.664 226.776 107.664 222.296C107.664 218.392 111.024 216.216 114.608 216.216C118.192 216.216 121.424 218.264 121.744 222.168C121.776 222.648 121.552 222.872 121.104 222.872H119.472C119.056 222.872 118.832 222.648 118.8 222.232C118.512 220.152 116.848 219.096 114.608 219.096C112.336 219.096 110.64 220.28 110.64 222.296C110.64 224.536 112.624 225.432 115.12 226.392C118.448 227.64 122.416 228.856 122.416 233.208C122.416 237.112 118.96 239.416 115.056 239.416ZM126.347 239C125.899 239 125.674 238.776 125.674 238.328V216.664C125.674 216.216 125.899 215.96 126.347 215.96H127.786C128.203 215.96 128.459 216.216 128.459 216.664V238.328C128.459 238.776 128.203 239 127.786 239H126.347ZM133.378 220.12C132.93 220.12 132.706 219.896 132.706 219.448V217.304C132.706 216.856 132.93 216.6 133.378 216.6H134.818C135.234 216.6 135.49 216.856 135.49 217.304V219.448C135.49 219.896 135.234 220.12 134.818 220.12H133.378ZM133.378 239C132.93 239 132.706 238.776 132.706 238.328V223.704C132.706 223.256 132.93 223 133.378 223H134.818C135.234 223 135.49 223.256 135.49 223.704V238.328C135.49 238.776 135.234 239 134.818 239H133.378ZM155.065 216.6C155.513 216.6 155.737 216.856 155.737 217.304V238.328C155.737 238.776 155.513 239 155.065 239H153.625C153.209 239 152.953 238.776 152.953 238.328V236.312C151.673 238.232 149.625 239.416 146.905 239.416C142.489 239.416 138.809 235.768 138.809 231C138.809 226.264 142.489 222.616 146.905 222.616C149.625 222.616 151.673 223.8 152.953 225.72V217.304C152.953 216.856 153.209 216.6 153.625 216.6H155.065ZM147.289 236.728C150.489 236.728 152.953 234.264 152.953 231C152.953 227.736 150.489 225.272 147.289 225.272C144.057 225.272 141.593 227.736 141.593 231C141.593 234.264 144.057 236.728 147.289 236.728ZM167.347 222.616C172.179 222.616 175.187 226.552 175.187 231.064C175.187 231.256 175.187 231.448 175.187 231.64C175.155 232.088 174.867 232.28 174.451 232.28H172.371H161.939C162.419 235.224 164.595 236.92 167.411 236.92C169.267 236.92 170.707 236.12 171.443 235C171.667 234.712 171.891 234.552 172.275 234.552H173.811C174.323 234.552 174.579 234.84 174.387 235.256C173.267 237.784 170.643 239.416 167.379 239.416C162.387 239.416 159.059 235.832 159.059 231C159.059 226.296 162.355 222.616 167.347 222.616ZM161.939 229.848H172.371C171.955 226.712 169.747 225.208 167.347 225.208C164.371 225.208 162.355 227.064 161.939 229.848ZM180.572 227.352C180.572 231 189.724 228.632 189.724 234.68C189.724 237.56 187.164 239.416 183.612 239.416C180.316 239.416 177.884 237.784 177.532 234.936C177.5 234.456 177.788 234.232 178.204 234.232H179.612C180.028 234.232 180.22 234.456 180.348 234.84C180.636 236.312 182.012 236.824 183.612 236.824C185.468 236.824 186.94 236.184 186.94 234.68C186.94 231.032 177.788 233.4 177.788 227.352C177.788 224.472 180.348 222.616 183.612 222.616C186.62 222.616 189.02 224.216 189.34 227.096C189.404 227.576 189.116 227.8 188.668 227.8H187.26C186.876 227.8 186.684 227.576 186.556 227.16C186.268 225.72 184.956 225.176 183.612 225.176C182.044 225.176 180.572 225.848 180.572 227.352Z" fill="#FDFDFD"/>
<path d="M72.0938 272.891C72.0938 273.568 71.9271 274.151 71.5938 274.641C71.2656 275.13 70.7917 275.505 70.1719 275.766C69.5573 276.026 68.8229 276.156 67.9688 276.156C67.5521 276.156 67.1536 276.133 66.7734 276.086C66.3932 276.039 66.0339 275.971 65.6953 275.883C65.362 275.789 65.0573 275.677 64.7812 275.547V273.781C65.2448 273.984 65.763 274.169 66.3359 274.336C66.9089 274.497 67.4922 274.578 68.0859 274.578C68.5703 274.578 68.9714 274.516 69.2891 274.391C69.612 274.26 69.8516 274.078 70.0078 273.844C70.1641 273.604 70.2422 273.326 70.2422 273.008C70.2422 272.669 70.151 272.383 69.9688 272.148C69.7865 271.914 69.5104 271.701 69.1406 271.508C68.776 271.31 68.3177 271.099 67.7656 270.875C67.3906 270.724 67.0312 270.552 66.6875 270.359C66.349 270.167 66.0469 269.94 65.7812 269.68C65.5156 269.419 65.3047 269.112 65.1484 268.758C64.9974 268.398 64.9219 267.977 64.9219 267.492C64.9219 266.846 65.0755 266.294 65.3828 265.836C65.6953 265.378 66.1328 265.026 66.6953 264.781C67.263 264.536 67.9245 264.414 68.6797 264.414C69.2786 264.414 69.8411 264.477 70.3672 264.602C70.8984 264.727 71.4193 264.904 71.9297 265.133L71.3359 266.641C70.8672 266.448 70.4115 266.294 69.9688 266.18C69.5312 266.065 69.0833 266.008 68.625 266.008C68.2292 266.008 67.8932 266.068 67.6172 266.188C67.3411 266.307 67.1302 266.477 66.9844 266.695C66.8438 266.909 66.7734 267.164 66.7734 267.461C66.7734 267.794 66.8542 268.076 67.0156 268.305C67.1823 268.529 67.4375 268.734 67.7812 268.922C68.1302 269.109 68.5781 269.318 69.125 269.547C69.7552 269.807 70.2891 270.081 70.7266 270.367C71.1693 270.654 71.5078 270.997 71.7422 271.398C71.9766 271.794 72.0938 272.292 72.0938 272.891ZM77.3281 274.672C77.5677 274.672 77.8047 274.651 78.0391 274.609C78.2734 274.562 78.487 274.508 78.6797 274.445V275.836C78.4766 275.924 78.2135 276 77.8906 276.062C77.5677 276.125 77.2318 276.156 76.8828 276.156C76.3932 276.156 75.9531 276.076 75.5625 275.914C75.1719 275.747 74.862 275.464 74.6328 275.062C74.4036 274.661 74.2891 274.107 74.2891 273.398V268.75H73.1094V267.93L74.375 267.281L74.9766 265.43H76.1328V267.352H78.6094V268.75H76.1328V273.375C76.1328 273.812 76.2422 274.138 76.4609 274.352C76.6797 274.565 76.9688 274.672 77.3281 274.672ZM83.8281 267.188C84.9219 267.188 85.7474 267.43 86.3047 267.914C86.8672 268.398 87.1484 269.154 87.1484 270.18V276H85.8438L85.4922 274.773H85.4297C85.1849 275.086 84.9323 275.344 84.6719 275.547C84.4115 275.75 84.1094 275.901 83.7656 276C83.4271 276.104 83.013 276.156 82.5234 276.156C82.0078 276.156 81.5469 276.062 81.1406 275.875C80.7344 275.682 80.4141 275.391 80.1797 275C79.9453 274.609 79.8281 274.115 79.8281 273.516C79.8281 272.625 80.1589 271.956 80.8203 271.508C81.487 271.06 82.4922 270.812 83.8359 270.766L85.3359 270.711V270.258C85.3359 269.659 85.1953 269.232 84.9141 268.977C84.638 268.721 84.2474 268.594 83.7422 268.594C83.3099 268.594 82.8906 268.656 82.4844 268.781C82.0781 268.906 81.6823 269.06 81.2969 269.242L80.7031 267.945C81.125 267.721 81.6042 267.539 82.1406 267.398C82.6823 267.258 83.2448 267.188 83.8281 267.188ZM85.3281 271.867L84.2109 271.906C83.2943 271.938 82.651 272.094 82.2812 272.375C81.9115 272.656 81.7266 273.042 81.7266 273.531C81.7266 273.958 81.8542 274.271 82.1094 274.469C82.3646 274.661 82.7005 274.758 83.1172 274.758C83.7526 274.758 84.2786 274.578 84.6953 274.219C85.1172 273.854 85.3281 273.32 85.3281 272.617V271.867ZM94.2266 267.188C95.2005 267.188 95.9583 267.44 96.5 267.945C97.0469 268.445 97.3203 269.25 97.3203 270.359V276H95.4844V270.703C95.4844 270.031 95.3464 269.529 95.0703 269.195C94.7943 268.857 94.3672 268.688 93.7891 268.688C92.9505 268.688 92.3672 268.945 92.0391 269.461C91.7161 269.977 91.5547 270.724 91.5547 271.703V276H89.7188V267.352H91.1484L91.4062 268.523H91.5078C91.6953 268.221 91.9271 267.974 92.2031 267.781C92.4844 267.583 92.7969 267.435 93.1406 267.336C93.4896 267.237 93.8516 267.188 94.2266 267.188ZM102.797 276.156C101.766 276.156 100.938 275.781 100.312 275.031C99.6927 274.276 99.3828 273.164 99.3828 271.695C99.3828 270.211 99.6979 269.089 100.328 268.328C100.964 267.568 101.799 267.188 102.836 267.188C103.273 267.188 103.656 267.247 103.984 267.367C104.312 267.482 104.594 267.638 104.828 267.836C105.068 268.034 105.271 268.255 105.438 268.5H105.523C105.497 268.339 105.466 268.107 105.43 267.805C105.398 267.497 105.383 267.214 105.383 266.953V263.844H107.227V276H105.789L105.461 274.82H105.383C105.227 275.07 105.029 275.297 104.789 275.5C104.555 275.698 104.273 275.857 103.945 275.977C103.622 276.096 103.24 276.156 102.797 276.156ZM103.312 274.664C104.099 274.664 104.654 274.438 104.977 273.984C105.299 273.531 105.466 272.852 105.477 271.945V271.703C105.477 270.734 105.32 269.992 105.008 269.477C104.695 268.956 104.125 268.695 103.297 268.695C102.635 268.695 102.13 268.964 101.781 269.5C101.438 270.031 101.266 270.773 101.266 271.727C101.266 272.68 101.438 273.409 101.781 273.914C102.13 274.414 102.641 274.664 103.312 274.664ZM121.672 271.656C121.672 272.375 121.578 273.013 121.391 273.57C121.203 274.128 120.93 274.599 120.57 274.984C120.211 275.365 119.779 275.656 119.273 275.859C118.768 276.057 118.198 276.156 117.562 276.156C116.969 276.156 116.424 276.057 115.93 275.859C115.435 275.656 115.005 275.365 114.641 274.984C114.281 274.599 114.003 274.128 113.805 273.57C113.607 273.013 113.508 272.375 113.508 271.656C113.508 270.703 113.672 269.896 114 269.234C114.333 268.568 114.807 268.06 115.422 267.711C116.036 267.362 116.768 267.188 117.617 267.188C118.414 267.188 119.117 267.362 119.727 267.711C120.336 268.06 120.812 268.568 121.156 269.234C121.5 269.901 121.672 270.708 121.672 271.656ZM115.398 271.656C115.398 272.286 115.474 272.826 115.625 273.273C115.781 273.721 116.021 274.065 116.344 274.305C116.667 274.539 117.083 274.656 117.594 274.656C118.104 274.656 118.521 274.539 118.844 274.305C119.167 274.065 119.404 273.721 119.555 273.273C119.706 272.826 119.781 272.286 119.781 271.656C119.781 271.026 119.706 270.492 119.555 270.055C119.404 269.612 119.167 269.276 118.844 269.047C118.521 268.812 118.102 268.695 117.586 268.695C116.826 268.695 116.271 268.951 115.922 269.461C115.573 269.971 115.398 270.703 115.398 271.656ZM131.32 267.352V276H129.875L129.625 274.836H129.523C129.341 275.133 129.109 275.38 128.828 275.578C128.547 275.771 128.234 275.914 127.891 276.008C127.547 276.107 127.185 276.156 126.805 276.156C126.154 276.156 125.596 276.047 125.133 275.828C124.674 275.604 124.323 275.26 124.078 274.797C123.833 274.333 123.711 273.734 123.711 273V267.352H125.555V272.656C125.555 273.328 125.69 273.831 125.961 274.164C126.237 274.497 126.664 274.664 127.242 274.664C127.799 274.664 128.242 274.549 128.57 274.32C128.898 274.091 129.13 273.753 129.266 273.305C129.406 272.857 129.477 272.307 129.477 271.656V267.352H131.32ZM137.172 274.672C137.411 274.672 137.648 274.651 137.883 274.609C138.117 274.562 138.331 274.508 138.523 274.445V275.836C138.32 275.924 138.057 276 137.734 276.062C137.411 276.125 137.076 276.156 136.727 276.156C136.237 276.156 135.797 276.076 135.406 275.914C135.016 275.747 134.706 275.464 134.477 275.062C134.247 274.661 134.133 274.107 134.133 273.398V268.75H132.953V267.93L134.219 267.281L134.82 265.43H135.977V267.352H138.453V268.75H135.977V273.375C135.977 273.812 136.086 274.138 136.305 274.352C136.523 274.565 136.812 274.672 137.172 274.672ZM147.344 276.156C146.312 276.156 145.484 275.781 144.859 275.031C144.24 274.276 143.93 273.164 143.93 271.695C143.93 270.211 144.245 269.089 144.875 268.328C145.51 267.568 146.346 267.188 147.383 267.188C147.82 267.188 148.203 267.247 148.531 267.367C148.859 267.482 149.141 267.638 149.375 267.836C149.615 268.034 149.818 268.255 149.984 268.5H150.07C150.044 268.339 150.013 268.107 149.977 267.805C149.945 267.497 149.93 267.214 149.93 266.953V263.844H151.773V276H150.336L150.008 274.82H149.93C149.773 275.07 149.576 275.297 149.336 275.5C149.102 275.698 148.82 275.857 148.492 275.977C148.169 276.096 147.786 276.156 147.344 276.156ZM147.859 274.664C148.646 274.664 149.201 274.438 149.523 273.984C149.846 273.531 150.013 272.852 150.023 271.945V271.703C150.023 270.734 149.867 269.992 149.555 269.477C149.242 268.956 148.672 268.695 147.844 268.695C147.182 268.695 146.677 268.964 146.328 269.5C145.984 270.031 145.812 270.773 145.812 271.727C145.812 272.68 145.984 273.409 146.328 273.914C146.677 274.414 147.188 274.664 147.859 274.664ZM161.945 267.352V276H160.5L160.25 274.836H160.148C159.966 275.133 159.734 275.38 159.453 275.578C159.172 275.771 158.859 275.914 158.516 276.008C158.172 276.107 157.81 276.156 157.43 276.156C156.779 276.156 156.221 276.047 155.758 275.828C155.299 275.604 154.948 275.26 154.703 274.797C154.458 274.333 154.336 273.734 154.336 273V267.352H156.18V272.656C156.18 273.328 156.315 273.831 156.586 274.164C156.862 274.497 157.289 274.664 157.867 274.664C158.424 274.664 158.867 274.549 159.195 274.32C159.523 274.091 159.755 273.753 159.891 273.305C160.031 272.857 160.102 272.307 160.102 271.656V267.352H161.945ZM168.961 267.188C169.107 267.188 169.266 267.195 169.438 267.211C169.609 267.227 169.758 267.247 169.883 267.273L169.711 268.992C169.602 268.961 169.466 268.938 169.305 268.922C169.148 268.906 169.008 268.898 168.883 268.898C168.555 268.898 168.242 268.953 167.945 269.062C167.648 269.167 167.385 269.328 167.156 269.547C166.927 269.76 166.747 270.029 166.617 270.352C166.487 270.674 166.422 271.049 166.422 271.477V276H164.578V267.352H166.016L166.266 268.875H166.352C166.523 268.568 166.737 268.286 166.992 268.031C167.247 267.776 167.539 267.573 167.867 267.422C168.201 267.266 168.565 267.188 168.961 267.188ZM173.32 267.352V276H171.484V267.352H173.32ZM172.414 264.039C172.695 264.039 172.938 264.115 173.141 264.266C173.349 264.417 173.453 264.677 173.453 265.047C173.453 265.411 173.349 265.672 173.141 265.828C172.938 265.979 172.695 266.055 172.414 266.055C172.122 266.055 171.875 265.979 171.672 265.828C171.474 265.672 171.375 265.411 171.375 265.047C171.375 264.677 171.474 264.417 171.672 264.266C171.875 264.115 172.122 264.039 172.414 264.039ZM180.461 267.188C181.435 267.188 182.193 267.44 182.734 267.945C183.281 268.445 183.555 269.25 183.555 270.359V276H181.719V270.703C181.719 270.031 181.581 269.529 181.305 269.195C181.029 268.857 180.602 268.688 180.023 268.688C179.185 268.688 178.602 268.945 178.273 269.461C177.951 269.977 177.789 270.724 177.789 271.703V276H175.953V267.352H177.383L177.641 268.523H177.742C177.93 268.221 178.161 267.974 178.438 267.781C178.719 267.583 179.031 267.435 179.375 267.336C179.724 267.237 180.086 267.188 180.461 267.188ZM188.594 279.844C187.422 279.844 186.523 279.633 185.898 279.211C185.273 278.789 184.961 278.198 184.961 277.438C184.961 276.906 185.128 276.456 185.461 276.086C185.794 275.721 186.271 275.469 186.891 275.328C186.656 275.224 186.453 275.062 186.281 274.844C186.115 274.62 186.031 274.372 186.031 274.102C186.031 273.779 186.122 273.503 186.305 273.273C186.487 273.044 186.76 272.823 187.125 272.609C186.672 272.417 186.307 272.104 186.031 271.672C185.76 271.234 185.625 270.721 185.625 270.133C185.625 269.508 185.758 268.977 186.023 268.539C186.289 268.096 186.677 267.76 187.188 267.531C187.698 267.297 188.315 267.18 189.039 267.18C189.195 267.18 189.365 267.19 189.547 267.211C189.734 267.227 189.906 267.247 190.062 267.273C190.224 267.294 190.346 267.318 190.43 267.344H193.422V268.367L191.953 268.641C192.094 268.839 192.206 269.065 192.289 269.32C192.372 269.57 192.414 269.844 192.414 270.141C192.414 271.036 192.104 271.742 191.484 272.258C190.87 272.768 190.021 273.023 188.938 273.023C188.677 273.013 188.424 272.992 188.18 272.961C187.992 273.076 187.849 273.203 187.75 273.344C187.651 273.479 187.602 273.633 187.602 273.805C187.602 273.945 187.651 274.06 187.75 274.148C187.849 274.232 187.995 274.294 188.188 274.336C188.385 274.378 188.625 274.398 188.906 274.398H190.398C191.346 274.398 192.07 274.599 192.57 275C193.07 275.401 193.32 275.99 193.32 276.766C193.32 277.75 192.914 278.508 192.102 279.039C191.289 279.576 190.12 279.844 188.594 279.844ZM188.664 278.555C189.305 278.555 189.844 278.492 190.281 278.367C190.719 278.242 191.049 278.062 191.273 277.828C191.497 277.599 191.609 277.326 191.609 277.008C191.609 276.727 191.539 276.51 191.398 276.359C191.258 276.208 191.047 276.104 190.766 276.047C190.484 275.99 190.135 275.961 189.719 275.961H188.359C188.021 275.961 187.721 276.013 187.461 276.117C187.201 276.227 186.997 276.383 186.852 276.586C186.711 276.789 186.641 277.034 186.641 277.32C186.641 277.716 186.815 278.021 187.164 278.234C187.518 278.448 188.018 278.555 188.664 278.555ZM189.023 271.82C189.56 271.82 189.958 271.674 190.219 271.383C190.479 271.086 190.609 270.669 190.609 270.133C190.609 269.549 190.474 269.112 190.203 268.82C189.938 268.529 189.542 268.383 189.016 268.383C188.5 268.383 188.107 268.531 187.836 268.828C187.57 269.125 187.438 269.565 187.438 270.148C187.438 270.674 187.57 271.086 187.836 271.383C188.107 271.674 188.503 271.82 189.023 271.82ZM203.594 267.188C204.62 267.188 205.443 267.562 206.062 268.312C206.688 269.062 207 270.177 207 271.656C207 272.635 206.854 273.461 206.562 274.133C206.276 274.799 205.872 275.305 205.352 275.648C204.836 275.987 204.234 276.156 203.547 276.156C203.109 276.156 202.729 276.099 202.406 275.984C202.083 275.87 201.807 275.721 201.578 275.539C201.349 275.352 201.156 275.148 201 274.93H200.891C200.917 275.138 200.94 275.37 200.961 275.625C200.987 275.875 201 276.104 201 276.312V279.836H199.156V267.352H200.656L200.914 268.547H201C201.161 268.302 201.357 268.076 201.586 267.867C201.82 267.659 202.102 267.495 202.43 267.375C202.763 267.25 203.151 267.188 203.594 267.188ZM203.102 268.688C202.596 268.688 202.19 268.789 201.883 268.992C201.581 269.19 201.359 269.49 201.219 269.891C201.083 270.292 201.01 270.794 201 271.398V271.656C201 272.297 201.065 272.841 201.195 273.289C201.331 273.732 201.552 274.07 201.859 274.305C202.172 274.534 202.594 274.648 203.125 274.648C203.573 274.648 203.943 274.526 204.234 274.281C204.531 274.036 204.753 273.688 204.898 273.234C205.044 272.781 205.117 272.247 205.117 271.633C205.117 270.701 204.951 269.977 204.617 269.461C204.289 268.945 203.784 268.688 203.102 268.688ZM213.508 267.188C213.654 267.188 213.812 267.195 213.984 267.211C214.156 267.227 214.305 267.247 214.43 267.273L214.258 268.992C214.148 268.961 214.013 268.938 213.852 268.922C213.695 268.906 213.555 268.898 213.43 268.898C213.102 268.898 212.789 268.953 212.492 269.062C212.195 269.167 211.932 269.328 211.703 269.547C211.474 269.76 211.294 270.029 211.164 270.352C211.034 270.674 210.969 271.049 210.969 271.477V276H209.125V267.352H210.562L210.812 268.875H210.898C211.07 268.568 211.284 268.286 211.539 268.031C211.794 267.776 212.086 267.573 212.414 267.422C212.747 267.266 213.112 267.188 213.508 267.188ZM219.477 267.188C220.247 267.188 220.909 267.346 221.461 267.664C222.013 267.982 222.438 268.432 222.734 269.016C223.031 269.599 223.18 270.297 223.18 271.109V272.094H217.406C217.427 272.932 217.651 273.578 218.078 274.031C218.51 274.484 219.115 274.711 219.891 274.711C220.443 274.711 220.938 274.659 221.375 274.555C221.818 274.445 222.273 274.286 222.742 274.078V275.57C222.31 275.773 221.87 275.922 221.422 276.016C220.974 276.109 220.438 276.156 219.812 276.156C218.964 276.156 218.216 275.992 217.57 275.664C216.93 275.331 216.427 274.836 216.062 274.18C215.703 273.523 215.523 272.708 215.523 271.734C215.523 270.766 215.688 269.943 216.016 269.266C216.344 268.589 216.805 268.073 217.398 267.719C217.992 267.365 218.685 267.188 219.477 267.188ZM219.477 268.57C218.898 268.57 218.43 268.758 218.07 269.133C217.716 269.508 217.508 270.057 217.445 270.781H221.383C221.378 270.349 221.305 269.966 221.164 269.633C221.029 269.299 220.82 269.039 220.539 268.852C220.263 268.664 219.909 268.57 219.477 268.57ZM231.062 273.531C231.062 274.099 230.924 274.578 230.648 274.969C230.372 275.359 229.969 275.656 229.438 275.859C228.911 276.057 228.266 276.156 227.5 276.156C226.896 276.156 226.375 276.112 225.938 276.023C225.505 275.94 225.096 275.81 224.711 275.633V274.047C225.122 274.24 225.583 274.406 226.094 274.547C226.609 274.688 227.096 274.758 227.555 274.758C228.159 274.758 228.594 274.664 228.859 274.477C229.125 274.284 229.258 274.029 229.258 273.711C229.258 273.523 229.203 273.357 229.094 273.211C228.99 273.06 228.792 272.906 228.5 272.75C228.214 272.589 227.792 272.396 227.234 272.172C226.688 271.953 226.227 271.734 225.852 271.516C225.477 271.297 225.193 271.034 225 270.727C224.807 270.414 224.711 270.016 224.711 269.531C224.711 268.766 225.013 268.185 225.617 267.789C226.227 267.388 227.031 267.188 228.031 267.188C228.562 267.188 229.062 267.242 229.531 267.352C230.005 267.456 230.469 267.609 230.922 267.812L230.344 269.195C229.953 269.023 229.56 268.883 229.164 268.773C228.773 268.659 228.375 268.602 227.969 268.602C227.495 268.602 227.133 268.674 226.883 268.82C226.638 268.966 226.516 269.174 226.516 269.445C226.516 269.648 226.576 269.82 226.695 269.961C226.815 270.102 227.021 270.242 227.312 270.383C227.609 270.523 228.021 270.698 228.547 270.906C229.062 271.104 229.508 271.312 229.883 271.531C230.263 271.745 230.555 272.008 230.758 272.32C230.961 272.633 231.062 273.036 231.062 273.531ZM236.492 267.188C237.263 267.188 237.924 267.346 238.477 267.664C239.029 267.982 239.453 268.432 239.75 269.016C240.047 269.599 240.195 270.297 240.195 271.109V272.094H234.422C234.443 272.932 234.667 273.578 235.094 274.031C235.526 274.484 236.13 274.711 236.906 274.711C237.458 274.711 237.953 274.659 238.391 274.555C238.833 274.445 239.289 274.286 239.758 274.078V275.57C239.326 275.773 238.885 275.922 238.438 276.016C237.99 276.109 237.453 276.156 236.828 276.156C235.979 276.156 235.232 275.992 234.586 275.664C233.945 275.331 233.443 274.836 233.078 274.18C232.719 273.523 232.539 272.708 232.539 271.734C232.539 270.766 232.703 269.943 233.031 269.266C233.359 268.589 233.82 268.073 234.414 267.719C235.008 267.365 235.701 267.188 236.492 267.188ZM236.492 268.57C235.914 268.57 235.445 268.758 235.086 269.133C234.732 269.508 234.523 270.057 234.461 270.781H238.398C238.393 270.349 238.32 269.966 238.18 269.633C238.044 269.299 237.836 269.039 237.555 268.852C237.279 268.664 236.924 268.57 236.492 268.57ZM246.773 267.188C247.747 267.188 248.505 267.44 249.047 267.945C249.594 268.445 249.867 269.25 249.867 270.359V276H248.031V270.703C248.031 270.031 247.893 269.529 247.617 269.195C247.341 268.857 246.914 268.688 246.336 268.688C245.497 268.688 244.914 268.945 244.586 269.461C244.263 269.977 244.102 270.724 244.102 271.703V276H242.266V267.352H243.695L243.953 268.523H244.055C244.242 268.221 244.474 267.974 244.75 267.781C245.031 267.583 245.344 267.435 245.688 267.336C246.036 267.237 246.398 267.188 246.773 267.188ZM255.656 274.672C255.896 274.672 256.133 274.651 256.367 274.609C256.602 274.562 256.815 274.508 257.008 274.445V275.836C256.805 275.924 256.542 276 256.219 276.062C255.896 276.125 255.56 276.156 255.211 276.156C254.721 276.156 254.281 276.076 253.891 275.914C253.5 275.747 253.19 275.464 252.961 275.062C252.732 274.661 252.617 274.107 252.617 273.398V268.75H251.438V267.93L252.703 267.281L253.305 265.43H254.461V267.352H256.938V268.75H254.461V273.375C254.461 273.812 254.57 274.138 254.789 274.352C255.008 274.565 255.297 274.672 255.656 274.672ZM262.156 267.188C263.25 267.188 264.076 267.43 264.633 267.914C265.195 268.398 265.477 269.154 265.477 270.18V276H264.172L263.82 274.773H263.758C263.513 275.086 263.26 275.344 263 275.547C262.74 275.75 262.438 275.901 262.094 276C261.755 276.104 261.341 276.156 260.852 276.156C260.336 276.156 259.875 276.062 259.469 275.875C259.062 275.682 258.742 275.391 258.508 275C258.273 274.609 258.156 274.115 258.156 273.516C258.156 272.625 258.487 271.956 259.148 271.508C259.815 271.06 260.82 270.812 262.164 270.766L263.664 270.711V270.258C263.664 269.659 263.523 269.232 263.242 268.977C262.966 268.721 262.576 268.594 262.07 268.594C261.638 268.594 261.219 268.656 260.812 268.781C260.406 268.906 260.01 269.06 259.625 269.242L259.031 267.945C259.453 267.721 259.932 267.539 260.469 267.398C261.01 267.258 261.573 267.188 262.156 267.188ZM263.656 271.867L262.539 271.906C261.622 271.938 260.979 272.094 260.609 272.375C260.24 272.656 260.055 273.042 260.055 273.531C260.055 273.958 260.182 274.271 260.438 274.469C260.693 274.661 261.029 274.758 261.445 274.758C262.081 274.758 262.607 274.578 263.023 274.219C263.445 273.854 263.656 273.32 263.656 272.617V271.867ZM271.266 274.672C271.505 274.672 271.742 274.651 271.977 274.609C272.211 274.562 272.424 274.508 272.617 274.445V275.836C272.414 275.924 272.151 276 271.828 276.062C271.505 276.125 271.169 276.156 270.82 276.156C270.331 276.156 269.891 276.076 269.5 275.914C269.109 275.747 268.799 275.464 268.57 275.062C268.341 274.661 268.227 274.107 268.227 273.398V268.75H267.047V267.93L268.312 267.281L268.914 265.43H270.07V267.352H272.547V268.75H270.07V273.375C270.07 273.812 270.18 274.138 270.398 274.352C270.617 274.565 270.906 274.672 271.266 274.672ZM276.211 267.352V276H274.375V267.352H276.211ZM275.305 264.039C275.586 264.039 275.828 264.115 276.031 264.266C276.24 264.417 276.344 264.677 276.344 265.047C276.344 265.411 276.24 265.672 276.031 265.828C275.828 265.979 275.586 266.055 275.305 266.055C275.013 266.055 274.766 265.979 274.562 265.828C274.365 265.672 274.266 265.411 274.266 265.047C274.266 264.677 274.365 264.417 274.562 264.266C274.766 264.115 275.013 264.039 275.305 264.039ZM286.5 271.656C286.5 272.375 286.406 273.013 286.219 273.57C286.031 274.128 285.758 274.599 285.398 274.984C285.039 275.365 284.607 275.656 284.102 275.859C283.596 276.057 283.026 276.156 282.391 276.156C281.797 276.156 281.253 276.057 280.758 275.859C280.263 275.656 279.833 275.365 279.469 274.984C279.109 274.599 278.831 274.128 278.633 273.57C278.435 273.013 278.336 272.375 278.336 271.656C278.336 270.703 278.5 269.896 278.828 269.234C279.161 268.568 279.635 268.06 280.25 267.711C280.865 267.362 281.596 267.188 282.445 267.188C283.242 267.188 283.945 267.362 284.555 267.711C285.164 268.06 285.641 268.568 285.984 269.234C286.328 269.901 286.5 270.708 286.5 271.656ZM280.227 271.656C280.227 272.286 280.302 272.826 280.453 273.273C280.609 273.721 280.849 274.065 281.172 274.305C281.495 274.539 281.911 274.656 282.422 274.656C282.932 274.656 283.349 274.539 283.672 274.305C283.995 274.065 284.232 273.721 284.383 273.273C284.534 272.826 284.609 272.286 284.609 271.656C284.609 271.026 284.534 270.492 284.383 270.055C284.232 269.612 283.995 269.276 283.672 269.047C283.349 268.812 282.93 268.695 282.414 268.695C281.654 268.695 281.099 268.951 280.75 269.461C280.401 269.971 280.227 270.703 280.227 271.656ZM293.117 267.188C294.091 267.188 294.849 267.44 295.391 267.945C295.938 268.445 296.211 269.25 296.211 270.359V276H294.375V270.703C294.375 270.031 294.237 269.529 293.961 269.195C293.685 268.857 293.258 268.688 292.68 268.688C291.841 268.688 291.258 268.945 290.93 269.461C290.607 269.977 290.445 270.724 290.445 271.703V276H288.609V267.352H290.039L290.297 268.523H290.398C290.586 268.221 290.818 267.974 291.094 267.781C291.375 267.583 291.688 267.435 292.031 267.336C292.38 267.237 292.742 267.188 293.117 267.188ZM304.594 273.531C304.594 274.099 304.456 274.578 304.18 274.969C303.904 275.359 303.5 275.656 302.969 275.859C302.443 276.057 301.797 276.156 301.031 276.156C300.427 276.156 299.906 276.112 299.469 276.023C299.036 275.94 298.628 275.81 298.242 275.633V274.047C298.654 274.24 299.115 274.406 299.625 274.547C300.141 274.688 300.628 274.758 301.086 274.758C301.69 274.758 302.125 274.664 302.391 274.477C302.656 274.284 302.789 274.029 302.789 273.711C302.789 273.523 302.734 273.357 302.625 273.211C302.521 273.06 302.323 272.906 302.031 272.75C301.745 272.589 301.323 272.396 300.766 272.172C300.219 271.953 299.758 271.734 299.383 271.516C299.008 271.297 298.724 271.034 298.531 270.727C298.339 270.414 298.242 270.016 298.242 269.531C298.242 268.766 298.544 268.185 299.148 267.789C299.758 267.388 300.562 267.188 301.562 267.188C302.094 267.188 302.594 267.242 303.062 267.352C303.536 267.456 304 267.609 304.453 267.812L303.875 269.195C303.484 269.023 303.091 268.883 302.695 268.773C302.305 268.659 301.906 268.602 301.5 268.602C301.026 268.602 300.664 268.674 300.414 268.82C300.169 268.966 300.047 269.174 300.047 269.445C300.047 269.648 300.107 269.82 300.227 269.961C300.346 270.102 300.552 270.242 300.844 270.383C301.141 270.523 301.552 270.698 302.078 270.906C302.594 271.104 303.039 271.312 303.414 271.531C303.794 271.745 304.086 272.008 304.289 272.32C304.492 272.633 304.594 273.036 304.594 273.531ZM318.273 267.352V276H316.828L316.578 274.836H316.477C316.294 275.133 316.062 275.38 315.781 275.578C315.5 275.771 315.188 275.914 314.844 276.008C314.5 276.107 314.138 276.156 313.758 276.156C313.107 276.156 312.549 276.047 312.086 275.828C311.628 275.604 311.276 275.26 311.031 274.797C310.786 274.333 310.664 273.734 310.664 273V267.352H312.508V272.656C312.508 273.328 312.643 273.831 312.914 274.164C313.19 274.497 313.617 274.664 314.195 274.664C314.753 274.664 315.195 274.549 315.523 274.32C315.852 274.091 316.083 273.753 316.219 273.305C316.359 272.857 316.43 272.307 316.43 271.656V267.352H318.273ZM326.719 273.531C326.719 274.099 326.581 274.578 326.305 274.969C326.029 275.359 325.625 275.656 325.094 275.859C324.568 276.057 323.922 276.156 323.156 276.156C322.552 276.156 322.031 276.112 321.594 276.023C321.161 275.94 320.753 275.81 320.367 275.633V274.047C320.779 274.24 321.24 274.406 321.75 274.547C322.266 274.688 322.753 274.758 323.211 274.758C323.815 274.758 324.25 274.664 324.516 274.477C324.781 274.284 324.914 274.029 324.914 273.711C324.914 273.523 324.859 273.357 324.75 273.211C324.646 273.06 324.448 272.906 324.156 272.75C323.87 272.589 323.448 272.396 322.891 272.172C322.344 271.953 321.883 271.734 321.508 271.516C321.133 271.297 320.849 271.034 320.656 270.727C320.464 270.414 320.367 270.016 320.367 269.531C320.367 268.766 320.669 268.185 321.273 267.789C321.883 267.388 322.688 267.188 323.688 267.188C324.219 267.188 324.719 267.242 325.188 267.352C325.661 267.456 326.125 267.609 326.578 267.812L326 269.195C325.609 269.023 325.216 268.883 324.82 268.773C324.43 268.659 324.031 268.602 323.625 268.602C323.151 268.602 322.789 268.674 322.539 268.82C322.294 268.966 322.172 269.174 322.172 269.445C322.172 269.648 322.232 269.82 322.352 269.961C322.471 270.102 322.677 270.242 322.969 270.383C323.266 270.523 323.677 270.698 324.203 270.906C324.719 271.104 325.164 271.312 325.539 271.531C325.919 271.745 326.211 272.008 326.414 272.32C326.617 272.633 326.719 273.036 326.719 273.531ZM330.539 267.352V276H328.703V267.352H330.539ZM329.633 264.039C329.914 264.039 330.156 264.115 330.359 264.266C330.568 264.417 330.672 264.677 330.672 265.047C330.672 265.411 330.568 265.672 330.359 265.828C330.156 265.979 329.914 266.055 329.633 266.055C329.341 266.055 329.094 265.979 328.891 265.828C328.693 265.672 328.594 265.411 328.594 265.047C328.594 264.677 328.693 264.417 328.891 264.266C329.094 264.115 329.341 264.039 329.633 264.039ZM337.68 267.188C338.654 267.188 339.411 267.44 339.953 267.945C340.5 268.445 340.773 269.25 340.773 270.359V276H338.938V270.703C338.938 270.031 338.799 269.529 338.523 269.195C338.247 268.857 337.82 268.688 337.242 268.688C336.404 268.688 335.82 268.945 335.492 269.461C335.169 269.977 335.008 270.724 335.008 271.703V276H333.172V267.352H334.602L334.859 268.523H334.961C335.148 268.221 335.38 267.974 335.656 267.781C335.938 267.583 336.25 267.435 336.594 267.336C336.943 267.237 337.305 267.188 337.68 267.188ZM345.812 279.844C344.641 279.844 343.742 279.633 343.117 279.211C342.492 278.789 342.18 278.198 342.18 277.438C342.18 276.906 342.346 276.456 342.68 276.086C343.013 275.721 343.49 275.469 344.109 275.328C343.875 275.224 343.672 275.062 343.5 274.844C343.333 274.62 343.25 274.372 343.25 274.102C343.25 273.779 343.341 273.503 343.523 273.273C343.706 273.044 343.979 272.823 344.344 272.609C343.891 272.417 343.526 272.104 343.25 271.672C342.979 271.234 342.844 270.721 342.844 270.133C342.844 269.508 342.977 268.977 343.242 268.539C343.508 268.096 343.896 267.76 344.406 267.531C344.917 267.297 345.534 267.18 346.258 267.18C346.414 267.18 346.583 267.19 346.766 267.211C346.953 267.227 347.125 267.247 347.281 267.273C347.443 267.294 347.565 267.318 347.648 267.344H350.641V268.367L349.172 268.641C349.312 268.839 349.424 269.065 349.508 269.32C349.591 269.57 349.633 269.844 349.633 270.141C349.633 271.036 349.323 271.742 348.703 272.258C348.089 272.768 347.24 273.023 346.156 273.023C345.896 273.013 345.643 272.992 345.398 272.961C345.211 273.076 345.068 273.203 344.969 273.344C344.87 273.479 344.82 273.633 344.82 273.805C344.82 273.945 344.87 274.06 344.969 274.148C345.068 274.232 345.214 274.294 345.406 274.336C345.604 274.378 345.844 274.398 346.125 274.398H347.617C348.565 274.398 349.289 274.599 349.789 275C350.289 275.401 350.539 275.99 350.539 276.766C350.539 277.75 350.133 278.508 349.32 279.039C348.508 279.576 347.339 279.844 345.812 279.844ZM345.883 278.555C346.523 278.555 347.062 278.492 347.5 278.367C347.938 278.242 348.268 278.062 348.492 277.828C348.716 277.599 348.828 277.326 348.828 277.008C348.828 276.727 348.758 276.51 348.617 276.359C348.477 276.208 348.266 276.104 347.984 276.047C347.703 275.99 347.354 275.961 346.938 275.961H345.578C345.24 275.961 344.94 276.013 344.68 276.117C344.419 276.227 344.216 276.383 344.07 276.586C343.93 276.789 343.859 277.034 343.859 277.32C343.859 277.716 344.034 278.021 344.383 278.234C344.737 278.448 345.237 278.555 345.883 278.555ZM346.242 271.82C346.779 271.82 347.177 271.674 347.438 271.383C347.698 271.086 347.828 270.669 347.828 270.133C347.828 269.549 347.693 269.112 347.422 268.82C347.156 268.529 346.76 268.383 346.234 268.383C345.719 268.383 345.326 268.531 345.055 268.828C344.789 269.125 344.656 269.565 344.656 270.148C344.656 270.674 344.789 271.086 345.055 271.383C345.326 271.674 345.721 271.82 346.242 271.82ZM359.281 276.156C358.25 276.156 357.422 275.781 356.797 275.031C356.177 274.276 355.867 273.164 355.867 271.695C355.867 270.211 356.182 269.089 356.812 268.328C357.448 267.568 358.284 267.188 359.32 267.188C359.758 267.188 360.141 267.247 360.469 267.367C360.797 267.482 361.078 267.638 361.312 267.836C361.552 268.034 361.755 268.255 361.922 268.5H362.008C361.982 268.339 361.951 268.107 361.914 267.805C361.883 267.497 361.867 267.214 361.867 266.953V263.844H363.711V276H362.273L361.945 274.82H361.867C361.711 275.07 361.513 275.297 361.273 275.5C361.039 275.698 360.758 275.857 360.43 275.977C360.107 276.096 359.724 276.156 359.281 276.156ZM359.797 274.664C360.583 274.664 361.138 274.438 361.461 273.984C361.784 273.531 361.951 272.852 361.961 271.945V271.703C361.961 270.734 361.805 269.992 361.492 269.477C361.18 268.956 360.609 268.695 359.781 268.695C359.12 268.695 358.615 268.964 358.266 269.5C357.922 270.031 357.75 270.773 357.75 271.727C357.75 272.68 357.922 273.409 358.266 273.914C358.615 274.414 359.125 274.664 359.797 274.664ZM369.789 267.188C370.56 267.188 371.221 267.346 371.773 267.664C372.326 267.982 372.75 268.432 373.047 269.016C373.344 269.599 373.492 270.297 373.492 271.109V272.094H367.719C367.74 272.932 367.964 273.578 368.391 274.031C368.823 274.484 369.427 274.711 370.203 274.711C370.755 274.711 371.25 274.659 371.688 274.555C372.13 274.445 372.586 274.286 373.055 274.078V275.57C372.622 275.773 372.182 275.922 371.734 276.016C371.286 276.109 370.75 276.156 370.125 276.156C369.276 276.156 368.529 275.992 367.883 275.664C367.242 275.331 366.74 274.836 366.375 274.18C366.016 273.523 365.836 272.708 365.836 271.734C365.836 270.766 366 269.943 366.328 269.266C366.656 268.589 367.117 268.073 367.711 267.719C368.305 267.365 368.997 267.188 369.789 267.188ZM369.789 268.57C369.211 268.57 368.742 268.758 368.383 269.133C368.029 269.508 367.82 270.057 367.758 270.781H371.695C371.69 270.349 371.617 269.966 371.477 269.633C371.341 269.299 371.133 269.039 370.852 268.852C370.576 268.664 370.221 268.57 369.789 268.57ZM378.781 274.672C379.021 274.672 379.258 274.651 379.492 274.609C379.727 274.562 379.94 274.508 380.133 274.445V275.836C379.93 275.924 379.667 276 379.344 276.062C379.021 276.125 378.685 276.156 378.336 276.156C377.846 276.156 377.406 276.076 377.016 275.914C376.625 275.747 376.315 275.464 376.086 275.062C375.857 274.661 375.742 274.107 375.742 273.398V268.75H374.562V267.93L375.828 267.281L376.43 265.43H377.586V267.352H380.062V268.75H377.586V273.375C377.586 273.812 377.695 274.138 377.914 274.352C378.133 274.565 378.422 274.672 378.781 274.672ZM385.281 267.188C386.375 267.188 387.201 267.43 387.758 267.914C388.32 268.398 388.602 269.154 388.602 270.18V276H387.297L386.945 274.773H386.883C386.638 275.086 386.385 275.344 386.125 275.547C385.865 275.75 385.562 275.901 385.219 276C384.88 276.104 384.466 276.156 383.977 276.156C383.461 276.156 383 276.062 382.594 275.875C382.188 275.682 381.867 275.391 381.633 275C381.398 274.609 381.281 274.115 381.281 273.516C381.281 272.625 381.612 271.956 382.273 271.508C382.94 271.06 383.945 270.812 385.289 270.766L386.789 270.711V270.258C386.789 269.659 386.648 269.232 386.367 268.977C386.091 268.721 385.701 268.594 385.195 268.594C384.763 268.594 384.344 268.656 383.938 268.781C383.531 268.906 383.135 269.06 382.75 269.242L382.156 267.945C382.578 267.721 383.057 267.539 383.594 267.398C384.135 267.258 384.698 267.188 385.281 267.188ZM386.781 271.867L385.664 271.906C384.747 271.938 384.104 272.094 383.734 272.375C383.365 272.656 383.18 273.042 383.18 273.531C383.18 273.958 383.307 274.271 383.562 274.469C383.818 274.661 384.154 274.758 384.57 274.758C385.206 274.758 385.732 274.578 386.148 274.219C386.57 273.854 386.781 273.32 386.781 272.617V271.867ZM393.008 267.352V276H391.172V267.352H393.008ZM392.102 264.039C392.383 264.039 392.625 264.115 392.828 264.266C393.036 264.417 393.141 264.677 393.141 265.047C393.141 265.411 393.036 265.672 392.828 265.828C392.625 265.979 392.383 266.055 392.102 266.055C391.81 266.055 391.562 265.979 391.359 265.828C391.161 265.672 391.062 265.411 391.062 265.047C391.062 264.677 391.161 264.417 391.359 264.266C391.562 264.115 391.81 264.039 392.102 264.039ZM397.484 276H395.641V263.844H397.484V276ZM403.555 267.188C404.326 267.188 404.987 267.346 405.539 267.664C406.091 267.982 406.516 268.432 406.812 269.016C407.109 269.599 407.258 270.297 407.258 271.109V272.094H401.484C401.505 272.932 401.729 273.578 402.156 274.031C402.589 274.484 403.193 274.711 403.969 274.711C404.521 274.711 405.016 274.659 405.453 274.555C405.896 274.445 406.352 274.286 406.82 274.078V275.57C406.388 275.773 405.948 275.922 405.5 276.016C405.052 276.109 404.516 276.156 403.891 276.156C403.042 276.156 402.294 275.992 401.648 275.664C401.008 275.331 400.505 274.836 400.141 274.18C399.781 273.523 399.602 272.708 399.602 271.734C399.602 270.766 399.766 269.943 400.094 269.266C400.422 268.589 400.883 268.073 401.477 267.719C402.07 267.365 402.763 267.188 403.555 267.188ZM403.555 268.57C402.977 268.57 402.508 268.758 402.148 269.133C401.794 269.508 401.586 270.057 401.523 270.781H405.461C405.456 270.349 405.383 269.966 405.242 269.633C405.107 269.299 404.898 269.039 404.617 268.852C404.341 268.664 403.987 268.57 403.555 268.57ZM412.234 276.156C411.203 276.156 410.375 275.781 409.75 275.031C409.13 274.276 408.82 273.164 408.82 271.695C408.82 270.211 409.135 269.089 409.766 268.328C410.401 267.568 411.237 267.188 412.273 267.188C412.711 267.188 413.094 267.247 413.422 267.367C413.75 267.482 414.031 267.638 414.266 267.836C414.505 268.034 414.708 268.255 414.875 268.5H414.961C414.935 268.339 414.904 268.107 414.867 267.805C414.836 267.497 414.82 267.214 414.82 266.953V263.844H416.664V276H415.227L414.898 274.82H414.82C414.664 275.07 414.466 275.297 414.227 275.5C413.992 275.698 413.711 275.857 413.383 275.977C413.06 276.096 412.677 276.156 412.234 276.156ZM412.75 274.664C413.536 274.664 414.091 274.438 414.414 273.984C414.737 273.531 414.904 272.852 414.914 271.945V271.703C414.914 270.734 414.758 269.992 414.445 269.477C414.133 268.956 413.562 268.695 412.734 268.695C412.073 268.695 411.568 268.964 411.219 269.5C410.875 270.031 410.703 270.773 410.703 271.727C410.703 272.68 410.875 273.409 411.219 273.914C411.568 274.414 412.078 274.664 412.75 274.664ZM421.148 274.141L421.258 274.32C421.164 274.695 421.044 275.099 420.898 275.531C420.753 275.964 420.594 276.396 420.422 276.828C420.25 277.266 420.076 277.677 419.898 278.062H418.555C418.664 277.641 418.768 277.198 418.867 276.734C418.971 276.276 419.065 275.823 419.148 275.375C419.237 274.922 419.307 274.51 419.359 274.141H421.148ZM68.7969 304.156C67.9792 304.156 67.2708 303.997 66.6719 303.68C66.0729 303.362 65.612 302.875 65.2891 302.219C64.9661 301.562 64.8047 300.729 64.8047 299.719C64.8047 298.667 64.9818 297.807 65.3359 297.141C65.6901 296.474 66.1797 295.982 66.8047 295.664C67.4349 295.346 68.1562 295.188 68.9688 295.188C69.4844 295.188 69.9505 295.24 70.3672 295.344C70.7891 295.443 71.1458 295.565 71.4375 295.711L70.8906 297.18C70.5729 297.049 70.2474 296.94 69.9141 296.852C69.5807 296.763 69.2604 296.719 68.9531 296.719C68.4479 296.719 68.026 296.831 67.6875 297.055C67.3542 297.279 67.1042 297.612 66.9375 298.055C66.776 298.497 66.6953 299.047 66.6953 299.703C66.6953 300.339 66.7786 300.875 66.9453 301.312C67.112 301.745 67.3594 302.073 67.6875 302.297C68.0156 302.516 68.4193 302.625 68.8984 302.625C69.3724 302.625 69.7969 302.568 70.1719 302.453C70.5469 302.339 70.901 302.19 71.2344 302.008V303.602C70.9062 303.789 70.5547 303.927 70.1797 304.016C69.8047 304.109 69.3438 304.156 68.7969 304.156ZM80.8047 295.352V304H79.3594L79.1094 302.836H79.0078C78.8255 303.133 78.5938 303.38 78.3125 303.578C78.0312 303.771 77.7188 303.914 77.375 304.008C77.0312 304.107 76.6693 304.156 76.2891 304.156C75.638 304.156 75.0807 304.047 74.6172 303.828C74.1589 303.604 73.8073 303.26 73.5625 302.797C73.3177 302.333 73.1953 301.734 73.1953 301V295.352H75.0391V300.656C75.0391 301.328 75.1745 301.831 75.4453 302.164C75.7214 302.497 76.1484 302.664 76.7266 302.664C77.2839 302.664 77.7266 302.549 78.0547 302.32C78.3828 302.091 78.6146 301.753 78.75 301.305C78.8906 300.857 78.9609 300.307 78.9609 299.656V295.352H80.8047ZM89.25 301.531C89.25 302.099 89.112 302.578 88.8359 302.969C88.5599 303.359 88.1562 303.656 87.625 303.859C87.099 304.057 86.4531 304.156 85.6875 304.156C85.0833 304.156 84.5625 304.112 84.125 304.023C83.6927 303.94 83.2839 303.81 82.8984 303.633V302.047C83.3099 302.24 83.7708 302.406 84.2812 302.547C84.7969 302.688 85.2839 302.758 85.7422 302.758C86.3464 302.758 86.7812 302.664 87.0469 302.477C87.3125 302.284 87.4453 302.029 87.4453 301.711C87.4453 301.523 87.3906 301.357 87.2812 301.211C87.1771 301.06 86.9792 300.906 86.6875 300.75C86.401 300.589 85.9792 300.396 85.4219 300.172C84.875 299.953 84.4141 299.734 84.0391 299.516C83.6641 299.297 83.3802 299.034 83.1875 298.727C82.9948 298.414 82.8984 298.016 82.8984 297.531C82.8984 296.766 83.2005 296.185 83.8047 295.789C84.4141 295.388 85.2188 295.188 86.2188 295.188C86.75 295.188 87.25 295.242 87.7188 295.352C88.1927 295.456 88.6562 295.609 89.1094 295.812L88.5312 297.195C88.1406 297.023 87.7474 296.883 87.3516 296.773C86.9609 296.659 86.5625 296.602 86.1562 296.602C85.6823 296.602 85.3203 296.674 85.0703 296.82C84.8255 296.966 84.7031 297.174 84.7031 297.445C84.7031 297.648 84.763 297.82 84.8828 297.961C85.0026 298.102 85.2083 298.242 85.5 298.383C85.7969 298.523 86.2083 298.698 86.7344 298.906C87.25 299.104 87.6953 299.312 88.0703 299.531C88.4505 299.745 88.7422 300.008 88.9453 300.32C89.1484 300.633 89.25 301.036 89.25 301.531ZM94.4531 302.672C94.6927 302.672 94.9297 302.651 95.1641 302.609C95.3984 302.562 95.612 302.508 95.8047 302.445V303.836C95.6016 303.924 95.3385 304 95.0156 304.062C94.6927 304.125 94.3568 304.156 94.0078 304.156C93.5182 304.156 93.0781 304.076 92.6875 303.914C92.2969 303.747 91.987 303.464 91.7578 303.062C91.5286 302.661 91.4141 302.107 91.4141 301.398V296.75H90.2344V295.93L91.5 295.281L92.1016 293.43H93.2578V295.352H95.7344V296.75H93.2578V301.375C93.2578 301.812 93.3672 302.138 93.5859 302.352C93.8047 302.565 94.0938 302.672 94.4531 302.672ZM105.219 299.656C105.219 300.375 105.125 301.013 104.938 301.57C104.75 302.128 104.477 302.599 104.117 302.984C103.758 303.365 103.326 303.656 102.82 303.859C102.315 304.057 101.745 304.156 101.109 304.156C100.516 304.156 99.9714 304.057 99.4766 303.859C98.9818 303.656 98.5521 303.365 98.1875 302.984C97.8281 302.599 97.5495 302.128 97.3516 301.57C97.1536 301.013 97.0547 300.375 97.0547 299.656C97.0547 298.703 97.2188 297.896 97.5469 297.234C97.8802 296.568 98.3542 296.06 98.9688 295.711C99.5833 295.362 100.315 295.188 101.164 295.188C101.961 295.188 102.664 295.362 103.273 295.711C103.883 296.06 104.359 296.568 104.703 297.234C105.047 297.901 105.219 298.708 105.219 299.656ZM98.9453 299.656C98.9453 300.286 99.0208 300.826 99.1719 301.273C99.3281 301.721 99.5677 302.065 99.8906 302.305C100.214 302.539 100.63 302.656 101.141 302.656C101.651 302.656 102.068 302.539 102.391 302.305C102.714 302.065 102.951 301.721 103.102 301.273C103.253 300.826 103.328 300.286 103.328 299.656C103.328 299.026 103.253 298.492 103.102 298.055C102.951 297.612 102.714 297.276 102.391 297.047C102.068 296.812 101.648 296.695 101.133 296.695C100.372 296.695 99.8177 296.951 99.4688 297.461C99.1198 297.971 98.9453 298.703 98.9453 299.656ZM117.102 295.188C118.07 295.188 118.799 295.438 119.289 295.938C119.784 296.438 120.031 297.24 120.031 298.344V304H118.195V298.672C118.195 298.016 118.068 297.521 117.812 297.188C117.557 296.854 117.169 296.688 116.648 296.688C115.919 296.688 115.393 296.922 115.07 297.391C114.753 297.854 114.594 298.529 114.594 299.414V304H112.758V298.672C112.758 298.234 112.701 297.87 112.586 297.578C112.477 297.281 112.307 297.06 112.078 296.914C111.849 296.763 111.56 296.688 111.211 296.688C110.706 296.688 110.302 296.802 110 297.031C109.703 297.26 109.49 297.599 109.359 298.047C109.229 298.49 109.164 299.034 109.164 299.68V304H107.328V295.352H108.758L109.016 296.516H109.117C109.294 296.214 109.513 295.966 109.773 295.773C110.039 295.576 110.333 295.43 110.656 295.336C110.979 295.237 111.315 295.188 111.664 295.188C112.31 295.188 112.854 295.302 113.297 295.531C113.74 295.755 114.07 296.099 114.289 296.562H114.43C114.701 296.094 115.078 295.747 115.562 295.523C116.047 295.299 116.56 295.188 117.102 295.188ZM124.43 295.352V304H122.594V295.352H124.43ZM123.523 292.039C123.805 292.039 124.047 292.115 124.25 292.266C124.458 292.417 124.562 292.677 124.562 293.047C124.562 293.411 124.458 293.672 124.25 293.828C124.047 293.979 123.805 294.055 123.523 294.055C123.232 294.055 122.984 293.979 122.781 293.828C122.583 293.672 122.484 293.411 122.484 293.047C122.484 292.677 122.583 292.417 122.781 292.266C122.984 292.115 123.232 292.039 123.523 292.039ZM132.852 304H126.281V302.867L130.648 296.766H126.547V295.352H132.727V296.602L128.445 302.586H132.852V304ZM138.164 295.188C138.935 295.188 139.596 295.346 140.148 295.664C140.701 295.982 141.125 296.432 141.422 297.016C141.719 297.599 141.867 298.297 141.867 299.109V300.094H136.094C136.115 300.932 136.339 301.578 136.766 302.031C137.198 302.484 137.802 302.711 138.578 302.711C139.13 302.711 139.625 302.659 140.062 302.555C140.505 302.445 140.961 302.286 141.43 302.078V303.57C140.997 303.773 140.557 303.922 140.109 304.016C139.661 304.109 139.125 304.156 138.5 304.156C137.651 304.156 136.904 303.992 136.258 303.664C135.617 303.331 135.115 302.836 134.75 302.18C134.391 301.523 134.211 300.708 134.211 299.734C134.211 298.766 134.375 297.943 134.703 297.266C135.031 296.589 135.492 296.073 136.086 295.719C136.68 295.365 137.372 295.188 138.164 295.188ZM138.164 296.57C137.586 296.57 137.117 296.758 136.758 297.133C136.404 297.508 136.195 298.057 136.133 298.781H140.07C140.065 298.349 139.992 297.966 139.852 297.633C139.716 297.299 139.508 297.039 139.227 296.852C138.951 296.664 138.596 296.57 138.164 296.57ZM146.844 304.156C145.812 304.156 144.984 303.781 144.359 303.031C143.74 302.276 143.43 301.164 143.43 299.695C143.43 298.211 143.745 297.089 144.375 296.328C145.01 295.568 145.846 295.188 146.883 295.188C147.32 295.188 147.703 295.247 148.031 295.367C148.359 295.482 148.641 295.638 148.875 295.836C149.115 296.034 149.318 296.255 149.484 296.5H149.57C149.544 296.339 149.513 296.107 149.477 295.805C149.445 295.497 149.43 295.214 149.43 294.953V291.844H151.273V304H149.836L149.508 302.82H149.43C149.273 303.07 149.076 303.297 148.836 303.5C148.602 303.698 148.32 303.857 147.992 303.977C147.669 304.096 147.286 304.156 146.844 304.156ZM147.359 302.664C148.146 302.664 148.701 302.438 149.023 301.984C149.346 301.531 149.513 300.852 149.523 299.945V299.703C149.523 298.734 149.367 297.992 149.055 297.477C148.742 296.956 148.172 296.695 147.344 296.695C146.682 296.695 146.177 296.964 145.828 297.5C145.484 298.031 145.312 298.773 145.312 299.727C145.312 300.68 145.484 301.409 145.828 301.914C146.177 302.414 146.688 302.664 147.359 302.664ZM163.875 301.531C163.875 302.099 163.737 302.578 163.461 302.969C163.185 303.359 162.781 303.656 162.25 303.859C161.724 304.057 161.078 304.156 160.312 304.156C159.708 304.156 159.188 304.112 158.75 304.023C158.318 303.94 157.909 303.81 157.523 303.633V302.047C157.935 302.24 158.396 302.406 158.906 302.547C159.422 302.688 159.909 302.758 160.367 302.758C160.971 302.758 161.406 302.664 161.672 302.477C161.938 302.284 162.07 302.029 162.07 301.711C162.07 301.523 162.016 301.357 161.906 301.211C161.802 301.06 161.604 300.906 161.312 300.75C161.026 300.589 160.604 300.396 160.047 300.172C159.5 299.953 159.039 299.734 158.664 299.516C158.289 299.297 158.005 299.034 157.812 298.727C157.62 298.414 157.523 298.016 157.523 297.531C157.523 296.766 157.826 296.185 158.43 295.789C159.039 295.388 159.844 295.188 160.844 295.188C161.375 295.188 161.875 295.242 162.344 295.352C162.818 295.456 163.281 295.609 163.734 295.812L163.156 297.195C162.766 297.023 162.372 296.883 161.977 296.773C161.586 296.659 161.188 296.602 160.781 296.602C160.307 296.602 159.945 296.674 159.695 296.82C159.451 296.966 159.328 297.174 159.328 297.445C159.328 297.648 159.388 297.82 159.508 297.961C159.628 298.102 159.833 298.242 160.125 298.383C160.422 298.523 160.833 298.698 161.359 298.906C161.875 299.104 162.32 299.312 162.695 299.531C163.076 299.745 163.367 300.008 163.57 300.32C163.773 300.633 163.875 301.036 163.875 301.531ZM167.703 304H165.859V291.844H167.703V304ZM172.164 295.352V304H170.328V295.352H172.164ZM171.258 292.039C171.539 292.039 171.781 292.115 171.984 292.266C172.193 292.417 172.297 292.677 172.297 293.047C172.297 293.411 172.193 293.672 171.984 293.828C171.781 293.979 171.539 294.055 171.258 294.055C170.966 294.055 170.719 293.979 170.516 293.828C170.318 293.672 170.219 293.411 170.219 293.047C170.219 292.677 170.318 292.417 170.516 292.266C170.719 292.115 170.966 292.039 171.258 292.039ZM177.703 304.156C176.672 304.156 175.844 303.781 175.219 303.031C174.599 302.276 174.289 301.164 174.289 299.695C174.289 298.211 174.604 297.089 175.234 296.328C175.87 295.568 176.706 295.188 177.742 295.188C178.18 295.188 178.562 295.247 178.891 295.367C179.219 295.482 179.5 295.638 179.734 295.836C179.974 296.034 180.177 296.255 180.344 296.5H180.43C180.404 296.339 180.372 296.107 180.336 295.805C180.305 295.497 180.289 295.214 180.289 294.953V291.844H182.133V304H180.695L180.367 302.82H180.289C180.133 303.07 179.935 303.297 179.695 303.5C179.461 303.698 179.18 303.857 178.852 303.977C178.529 304.096 178.146 304.156 177.703 304.156ZM178.219 302.664C179.005 302.664 179.56 302.438 179.883 301.984C180.206 301.531 180.372 300.852 180.383 299.945V299.703C180.383 298.734 180.227 297.992 179.914 297.477C179.602 296.956 179.031 296.695 178.203 296.695C177.542 296.695 177.036 296.964 176.688 297.5C176.344 298.031 176.172 298.773 176.172 299.727C176.172 300.68 176.344 301.409 176.688 301.914C177.036 302.414 177.547 302.664 178.219 302.664ZM188.211 295.188C188.982 295.188 189.643 295.346 190.195 295.664C190.747 295.982 191.172 296.432 191.469 297.016C191.766 297.599 191.914 298.297 191.914 299.109V300.094H186.141C186.161 300.932 186.385 301.578 186.812 302.031C187.245 302.484 187.849 302.711 188.625 302.711C189.177 302.711 189.672 302.659 190.109 302.555C190.552 302.445 191.008 302.286 191.477 302.078V303.57C191.044 303.773 190.604 303.922 190.156 304.016C189.708 304.109 189.172 304.156 188.547 304.156C187.698 304.156 186.951 303.992 186.305 303.664C185.664 303.331 185.161 302.836 184.797 302.18C184.438 301.523 184.258 300.708 184.258 299.734C184.258 298.766 184.422 297.943 184.75 297.266C185.078 296.589 185.539 296.073 186.133 295.719C186.727 295.365 187.419 295.188 188.211 295.188ZM188.211 296.57C187.633 296.57 187.164 296.758 186.805 297.133C186.451 297.508 186.242 298.057 186.18 298.781H190.117C190.112 298.349 190.039 297.966 189.898 297.633C189.763 297.299 189.555 297.039 189.273 296.852C188.997 296.664 188.643 296.57 188.211 296.57ZM199.797 301.531C199.797 302.099 199.659 302.578 199.383 302.969C199.107 303.359 198.703 303.656 198.172 303.859C197.646 304.057 197 304.156 196.234 304.156C195.63 304.156 195.109 304.112 194.672 304.023C194.24 303.94 193.831 303.81 193.445 303.633V302.047C193.857 302.24 194.318 302.406 194.828 302.547C195.344 302.688 195.831 302.758 196.289 302.758C196.893 302.758 197.328 302.664 197.594 302.477C197.859 302.284 197.992 302.029 197.992 301.711C197.992 301.523 197.938 301.357 197.828 301.211C197.724 301.06 197.526 300.906 197.234 300.75C196.948 300.589 196.526 300.396 195.969 300.172C195.422 299.953 194.961 299.734 194.586 299.516C194.211 299.297 193.927 299.034 193.734 298.727C193.542 298.414 193.445 298.016 193.445 297.531C193.445 296.766 193.747 296.185 194.352 295.789C194.961 295.388 195.766 295.188 196.766 295.188C197.297 295.188 197.797 295.242 198.266 295.352C198.74 295.456 199.203 295.609 199.656 295.812L199.078 297.195C198.688 297.023 198.294 296.883 197.898 296.773C197.508 296.659 197.109 296.602 196.703 296.602C196.229 296.602 195.867 296.674 195.617 296.82C195.372 296.966 195.25 297.174 195.25 297.445C195.25 297.648 195.31 297.82 195.43 297.961C195.549 298.102 195.755 298.242 196.047 298.383C196.344 298.523 196.755 298.698 197.281 298.906C197.797 299.104 198.242 299.312 198.617 299.531C198.997 299.745 199.289 300.008 199.492 300.32C199.695 300.633 199.797 301.036 199.797 301.531ZM201.516 303.031C201.516 302.604 201.625 302.305 201.844 302.133C202.068 301.956 202.339 301.867 202.656 301.867C202.974 301.867 203.245 301.956 203.469 302.133C203.698 302.305 203.812 302.604 203.812 303.031C203.812 303.448 203.698 303.75 203.469 303.938C203.245 304.12 202.974 304.211 202.656 304.211C202.339 304.211 202.068 304.12 201.844 303.938C201.625 303.75 201.516 303.448 201.516 303.031Z" fill="#D2D8DA"/>
<defs>
<linearGradient id="paint0_linear_27168_25252" x1="-270" y1="269.999" x2="479.998" y2="1020" gradientUnits="userSpaceOnUse">
<stop stop-color="#111111"/>
<stop offset="0.63" stop-color="#096258"/>
<stop offset="1" stop-color="#00B39F"/>
</linearGradient>
<linearGradient id="paint1_linear_27168_25252" x1="82.6107" y1="222.496" x2="82.6107" y2="227.964" gradientUnits="userSpaceOnUse">
<stop stop-color="#BF360C" stop-opacity="0.2"/>
<stop offset="1" stop-color="#BF360C" stop-opacity="0.02"/>
</linearGradient>
<radialGradient id="paint2_radial_27168_25252" cx="0" cy="0" r="1" gradientUnits="userSpaceOnUse" gradientTransform="translate(68.5602 216.47) scale(28.5147 27.7543)">
<stop stop-color="white" stop-opacity="0.1"/>
<stop offset="1" stop-color="white" stop-opacity="0"/>
</radialGradient>
<clipPath id="clip0_27168_25252">
<rect width="18" height="24" fill="white" transform="translate(68 216)"/>
</clipPath>
</defs>
</svg>
