<svg width="960" height="540" viewBox="0 0 960 540" fill="none" xmlns="http://www.w3.org/2000/svg">
<path d="M0 24C0 10.7452 10.7452 0 24 0H936C949.255 0 960 10.7452 960 24V516C960 529.255 949.255 540 936 540H24C10.7451 540 0 529.255 0 516V24Z" fill="url(#paint0_linear_27498_125189)"/>
<path d="M657 142C582.442 142 522 202.442 522 277C522 297.403 526.535 316.779 534.661 334.148C529.222 356.201 524.512 379.753 522.391 390.712C519.992 403.113 530.772 413.978 543.149 411.774C554.368 409.777 578.757 405.28 601.406 400.054C618.374 407.731 637.205 412 657 412C731.558 412 792 351.558 792 277C792 202.442 731.558 142 657 142ZM656.314 429.993C680.402 452.34 712.66 466.003 748.109 466.003C767.9 466.003 786.726 461.736 803.692 454.063C822.48 458.46 843.045 462.848 856.133 465.584C872.198 468.942 886.227 454.524 882.547 438.594C879.622 425.934 875.01 406.279 870.455 388.136C878.577 370.771 883.109 351.4 883.109 331.003C883.109 271.91 845.141 221.685 792.27 203.392C798.575 214.858 803.453 227.221 806.664 240.239C836.417 259.473 856.109 292.938 856.109 331.003C856.109 348.849 851.791 365.647 844.155 380.446L841.806 385L843.069 389.965C847.17 406.083 851.467 424.165 854.616 437.675C840.683 434.728 821.899 430.652 805.311 426.703L800.55 425.57L796.168 427.751C781.709 434.949 765.402 439.003 748.109 439.003C729.037 439.003 711.12 434.06 695.569 425.384C683.582 428.401 671.033 430.003 658.109 430.003C657.51 430.003 656.912 430 656.314 429.993Z" fill="#E7EFF3"/>
<path d="M101.768 80.9883V98.1568L116.922 89.5276L101.768 80.9883Z" fill="#00D3A9"/>
<path d="M101.768 101.752V119.055L117.06 110.426L101.768 101.752Z" fill="#00D3A9"/>
<path d="M99.5789 98.0688V81.125L84.6074 89.5744L99.5789 98.0688Z" fill="#00B39F"/>
<path d="M69.5039 118.966C72.4341 123.595 76.4174 127.55 81.1332 130.472V112.359L69.5039 118.966Z" fill="#00B39F"/>
<path d="M99.5759 118.967V101.889L84.5586 110.428L99.5759 118.967Z" fill="#00B39F"/>
<path d="M83.3105 129.393L98.5109 120.854L83.3105 112.225V129.393Z" fill="#00D3A9"/>
<path d="M118.122 129.483V112.314L102.922 120.854L118.122 129.483Z" fill="#00B39F"/>
<path d="M133.002 116.988C135.612 112.224 137.077 106.966 137.306 101.572L121.465 110.471L133.002 116.988Z" fill="#00B39F"/>
<path d="M120.311 108.629L135.603 100.045L120.311 91.4609V108.629Z" fill="#00D3A9"/>
<path d="M118.115 87.731V70.6973L103.006 79.1916L118.115 87.731Z" fill="#00B39F"/>
<path d="M118.112 108.54V91.3711L102.957 99.9554L118.112 108.54Z" fill="#00B39F"/>
<path d="M83.3105 91.3242V108.673L98.6025 99.9534L83.3105 91.3242Z" fill="#00D3A9"/>
<path d="M99.577 64C93.9455 64.1348 88.4514 65.573 83.4609 68.1798L99.577 77.2584V64Z" fill="#00B39F"/>
<path d="M83.3105 70.5625V87.8209L98.6025 79.1917L83.3105 70.5625Z" fill="#00D3A9"/>
<path d="M81.1332 69.5273C76.4174 72.4487 72.4341 76.3588 69.5039 81.033L81.1332 87.6397V69.5723V69.5273Z" fill="#00B39F"/>
<path d="M118.021 68.2697C113.03 65.618 107.445 64.1798 101.768 64V77.3933L118.021 68.2697Z" fill="#00D3A9"/>
<path d="M64 101.258C64.1831 106.831 65.694 112.224 68.3953 117.123L80.1619 110.426L64 101.258Z" fill="#00D3A9"/>
<path d="M68.3953 82.875C65.694 87.7289 64.2289 93.1671 64 98.6952L80.1619 89.5716L68.3494 82.875H68.3953Z" fill="#00D3A9"/>
<path d="M83.4609 131.776C88.4514 134.383 93.9455 135.821 99.577 135.956V122.697L83.4609 131.731V131.776Z" fill="#00B39F"/>
<path d="M131.848 81.0779C128.918 76.4486 124.981 72.5385 120.311 69.6172V87.6397L131.848 81.0779Z" fill="#00D3A9"/>
<path d="M120.311 130.427C125.026 127.505 128.964 123.55 131.894 118.876L120.311 112.314V130.472V130.427Z" fill="#00D3A9"/>
<path d="M137.337 98.5623C137.108 93.0792 135.643 87.7309 132.987 82.9219L121.312 89.5286L137.337 98.5623Z" fill="#00B39F"/>
<path d="M101.768 135.999C107.399 135.864 112.893 134.426 117.884 131.819L101.768 122.65V135.999Z" fill="#00D3A9"/>
<path d="M81.1345 108.495V91.5059L66.1172 99.9553L81.1345 108.495Z" fill="#00B39F"/>
<path d="M372.74 86.1315V88.0558V96.5547V106.978V122.372H414.069V113.713H381.398V106.978V105.214H406.555V96.5547H381.398V88.0558H414.069V79.3965H372.74V86.1315Z" fill="#E7EFF3"/>
<path d="M213.305 86.1315V88.0558V96.5547V106.978V122.372H254.797V113.713H222.126V106.978V105.214H247.283V96.5547H222.126V88.0558H254.797V79.3965H213.305V86.1315Z" fill="#E7EFF3"/>
<path d="M312.135 111.147C312.135 112.751 311.809 114.194 311.155 115.477C310.502 116.92 309.685 118.043 308.705 119.005C307.725 119.967 306.418 120.769 305.111 121.41C303.641 122.052 302.171 122.372 300.7 122.372H259.861V113.392H300.7C301.354 113.392 301.844 113.232 302.334 112.751C302.824 112.27 302.987 111.789 302.987 111.147V107.619C302.987 106.978 302.824 106.497 302.334 106.016C301.844 105.535 301.354 105.374 300.7 105.374H271.296C269.663 105.374 268.193 105.054 266.886 104.412C265.415 103.771 264.272 102.969 263.292 102.007C262.312 101.045 261.495 99.7619 260.841 98.479C260.188 97.1962 259.861 95.7529 259.861 94.1494V90.6215C259.861 89.0179 260.188 87.5747 260.841 86.2919C261.495 85.009 262.312 83.7261 263.292 82.764C264.272 81.8018 265.579 81.0001 266.886 80.3586C268.193 79.7172 269.663 79.3965 271.296 79.3965H312.135V88.5369H271.296C270.643 88.5369 270.153 88.6972 269.663 89.1783C269.173 89.6594 269.009 90.1404 269.009 90.7819V94.3097C269.009 94.9512 269.173 95.4322 269.663 95.9133C270.153 96.3944 270.643 96.5547 271.296 96.5547H300.7C302.334 96.5547 303.804 96.8755 305.111 97.5169C306.418 98.1583 307.725 98.9601 308.705 99.9222C309.685 100.884 310.502 102.167 311.155 103.45C311.809 104.893 312.135 106.337 312.135 107.78V111.147Z" fill="#E7EFF3"/>
<path d="M367.188 122.372H358.857V105.535H326.349V122.372H318.018V96.3944H358.857V79.3965H367.188V122.372ZM326.349 92.3854H318.018V79.5568H326.349V92.3854Z" fill="#E7EFF3"/>
<path d="M486.112 94.4701L475.168 79.3965H464.223L481.702 105.214V122.372H490.523V105.214L508.002 79.3965H497.221L486.112 94.4701Z" fill="#E7EFF3"/>
<path d="M428.936 87.5747H451.316V90.6215V93.6683V96.7151H433.347V104.893H437.431L453.276 122.533H464.058L448.212 104.893H453.766C453.93 104.893 454.093 104.893 454.42 104.893C458.177 104.893 461.281 101.847 461.281 98.1583V93.6683V90.6215V86.1315C461.281 82.4433 458.177 79.3965 454.42 79.3965C454.256 79.3965 454.093 79.3965 453.766 79.3965H428.773H428.609H420.441V122.212H429.099L428.936 87.5747Z" fill="#E7EFF3"/>
<path d="M205.791 86.6126C203.994 82.4433 199.584 79.3965 194.846 79.5568H152.047V88.6972V122.533H161.358V88.5368C174.1 88.5368 195.336 88.3765 195.826 88.6972C199.094 87.7351 196.807 121.089 197.46 122.212H206.771C206.281 119.325 207.588 88.5368 205.791 86.6126Z" fill="#E7EFF3"/>
<path d="M184.067 93.3477H174.756V122.372H184.067V93.3477Z" fill="#E7EFF3"/>
<path d="M75.0239 215.634C86.5492 211.021 97.9213 223.258 91.7286 234.404C88.9158 239.467 81.9272 243.545 73.7898 239.688L68.1336 241.304C67.256 241.555 66.4449 240.747 66.6912 239.869C67.0288 238.665 67.8287 235.827 68.2964 234.288C64.7889 228.029 67.154 218.783 75.0239 215.634ZM74.6639 225.5C74.6639 225.96 75.037 226.333 75.4972 226.333H84.5002C84.9604 226.333 85.3335 225.96 85.3335 225.5C85.3335 225.039 84.9604 224.666 84.5002 224.666H75.4972C75.037 224.666 74.6639 225.039 74.6639 225.5ZM75.5002 229.65C75.0399 229.65 74.6668 230.023 74.6668 230.483C74.6668 230.943 75.0399 231.316 75.5002 231.316H81.8335C82.2937 231.316 82.6668 230.943 82.6668 230.483C82.6668 230.023 82.2937 229.65 81.8335 229.65H75.5002Z" fill="#E7EFF3"/>
<path d="M121.056 239.416C116.992 239.416 113.472 237.24 113.152 233.08C113.12 232.632 113.344 232.376 113.792 232.376H115.424C115.84 232.376 116.064 232.6 116.096 233.048C116.416 235.32 118.336 236.536 121.056 236.536C123.648 236.536 125.472 235.224 125.472 233.208C125.472 231.032 123.296 230.104 120.8 229.208C117.472 227.96 113.664 226.776 113.664 222.296C113.664 218.392 117.024 216.216 120.608 216.216C124.192 216.216 127.424 218.264 127.744 222.168C127.776 222.648 127.552 222.872 127.104 222.872H125.472C125.056 222.872 124.832 222.648 124.8 222.232C124.512 220.152 122.848 219.096 120.608 219.096C118.336 219.096 116.64 220.28 116.64 222.296C116.64 224.536 118.624 225.432 121.12 226.392C124.448 227.64 128.416 228.856 128.416 233.208C128.416 237.112 124.96 239.416 121.056 239.416ZM139.195 239.416C134.491 239.416 130.747 235.768 130.747 231C130.747 226.264 134.491 222.616 139.195 222.616C143.867 222.616 147.611 226.264 147.611 231C147.611 235.768 143.867 239.416 139.195 239.416ZM139.195 236.696C142.363 236.696 144.827 234.232 144.827 231C144.827 227.768 142.363 225.304 139.195 225.304C135.995 225.304 133.531 227.768 133.531 231C133.531 234.232 135.995 236.696 139.195 236.696ZM165.421 233.656C165.901 233.656 166.157 233.944 165.965 234.424C164.877 237.4 161.901 239.416 158.445 239.416C153.581 239.416 149.997 235.768 149.997 231C149.997 226.264 153.581 222.616 158.445 222.616C161.901 222.616 164.845 224.632 165.965 227.608C166.157 228.056 165.901 228.376 165.421 228.376H163.853C163.469 228.376 163.213 228.216 163.021 227.864C162.157 226.296 160.461 225.336 158.445 225.336C155.245 225.336 152.781 227.8 152.781 231C152.781 234.232 155.245 236.696 158.445 236.696C160.461 236.696 162.189 235.704 163.021 234.168C163.213 233.816 163.469 233.656 163.853 233.656H165.421ZM169.878 220.12C169.43 220.12 169.206 219.896 169.206 219.448V217.304C169.206 216.856 169.43 216.6 169.878 216.6H171.318C171.734 216.6 171.99 216.856 171.99 217.304V219.448C171.99 219.896 171.734 220.12 171.318 220.12H169.878ZM169.878 239C169.43 239 169.206 238.776 169.206 238.328V223.704C169.206 223.256 169.43 223 169.878 223H171.318C171.734 223 171.99 223.256 171.99 223.704V238.328C171.99 238.776 171.734 239 171.318 239H169.878ZM182.221 222.616C185.773 222.616 188.429 224.824 188.429 228.696V238.328C188.429 238.776 188.205 239 187.757 239H186.349C185.933 239 185.677 238.776 185.677 238.328V237.368C184.653 238.744 182.957 239.416 180.941 239.416C178.029 239.416 175.309 237.72 175.309 234.296C175.309 230.872 178.029 229.176 180.941 229.176C182.957 229.176 184.653 229.88 185.677 231.032V228.76C185.677 226.232 184.077 225.24 182.221 225.24C180.557 225.24 179.117 226.008 178.829 227.512C178.701 227.896 178.509 228.12 178.093 228.12H176.685C176.269 228.12 175.981 227.896 176.013 227.416C176.397 224.504 178.893 222.616 182.221 222.616ZM181.741 237.08C184.045 237.08 185.677 235.896 185.677 234.296C185.677 232.6 184.045 231.512 181.741 231.512C179.245 231.512 178.093 232.696 178.093 234.296C178.093 235.896 179.245 237.08 181.741 237.08ZM192.972 239C192.524 239 192.299 238.776 192.299 238.328V216.664C192.299 216.216 192.524 215.96 192.972 215.96H194.411C194.828 215.96 195.084 216.216 195.084 216.664V238.328C195.084 238.776 194.828 239 194.411 239H192.972ZM225.091 238.232C225.251 238.712 225.027 239 224.515 239H222.787C222.403 239 222.115 238.808 221.987 238.456L220.387 234.008H210.403L208.803 238.456C208.675 238.808 208.419 239 208.035 239H206.275C205.795 239 205.571 238.712 205.731 238.232L213.539 217.176C213.667 216.824 213.923 216.6 214.307 216.6H216.515C216.867 216.6 217.155 216.824 217.283 217.176L225.091 238.232ZM211.395 231.224H219.395L215.395 220.088L211.395 231.224ZM229.885 227.352C229.885 231 239.037 228.632 239.037 234.68C239.037 237.56 236.477 239.416 232.925 239.416C229.629 239.416 227.197 237.784 226.845 234.936C226.813 234.456 227.101 234.232 227.517 234.232H228.925C229.341 234.232 229.533 234.456 229.661 234.84C229.949 236.312 231.325 236.824 232.925 236.824C234.781 236.824 236.253 236.184 236.253 234.68C236.253 231.032 227.101 233.4 227.101 227.352C227.101 224.472 229.661 222.616 232.925 222.616C235.933 222.616 238.333 224.216 238.653 227.096C238.717 227.576 238.429 227.8 237.981 227.8H236.573C236.189 227.8 235.997 227.576 235.869 227.16C235.581 225.72 234.269 225.176 232.925 225.176C231.357 225.176 229.885 225.848 229.885 227.352ZM244.479 227.352C244.479 231 253.631 228.632 253.631 234.68C253.631 237.56 251.071 239.416 247.519 239.416C244.223 239.416 241.791 237.784 241.439 234.936C241.407 234.456 241.695 234.232 242.111 234.232H243.519C243.935 234.232 244.127 234.456 244.255 234.84C244.543 236.312 245.919 236.824 247.519 236.824C249.375 236.824 250.847 236.184 250.847 234.68C250.847 231.032 241.695 233.4 241.695 227.352C241.695 224.472 244.255 222.616 247.519 222.616C250.527 222.616 252.927 224.216 253.247 227.096C253.311 227.576 253.023 227.8 252.575 227.8H251.167C250.783 227.8 250.591 227.576 250.463 227.16C250.175 225.72 248.863 225.176 247.519 225.176C245.951 225.176 244.479 225.848 244.479 227.352ZM264.128 222.616C268.96 222.616 271.968 226.552 271.968 231.064C271.968 231.256 271.968 231.448 271.968 231.64C271.936 232.088 271.648 232.28 271.232 232.28H269.152H258.72C259.2 235.224 261.376 236.92 264.192 236.92C266.048 236.92 267.488 236.12 268.224 235C268.448 234.712 268.672 234.552 269.056 234.552H270.592C271.104 234.552 271.36 234.84 271.168 235.256C270.048 237.784 267.424 239.416 264.16 239.416C259.168 239.416 255.84 235.832 255.84 231C255.84 226.296 259.136 222.616 264.128 222.616ZM258.72 229.848H269.152C268.736 226.712 266.528 225.208 264.128 225.208C261.152 225.208 259.136 227.064 258.72 229.848ZM281.773 223C282.221 223 282.445 223.256 282.445 223.704V225.016C282.445 225.464 282.221 225.688 281.773 225.688H279.309V238.328C279.309 238.776 279.085 239 278.637 239H277.197C276.781 239 276.525 238.776 276.525 238.328V225.688H274.061C273.613 225.688 273.357 225.464 273.357 225.016V223.704C273.357 223.256 273.613 223 274.061 223H276.525V218.584C276.525 218.136 276.781 217.88 277.197 217.88H278.637C279.085 217.88 279.309 218.136 279.309 218.584V223H281.773ZM287.197 227.352C287.197 231 296.349 228.632 296.349 234.68C296.349 237.56 293.789 239.416 290.237 239.416C286.941 239.416 284.509 237.784 284.157 234.936C284.125 234.456 284.413 234.232 284.829 234.232H286.237C286.653 234.232 286.845 234.456 286.973 234.84C287.261 236.312 288.637 236.824 290.237 236.824C292.093 236.824 293.565 236.184 293.565 234.68C293.565 231.032 284.413 233.4 284.413 227.352C284.413 224.472 286.973 222.616 290.237 222.616C293.245 222.616 295.645 224.216 295.965 227.096C296.029 227.576 295.741 227.8 295.293 227.8H293.885C293.501 227.8 293.309 227.576 293.181 227.16C292.893 225.72 291.581 225.176 290.237 225.176C288.669 225.176 287.197 225.848 287.197 227.352Z" fill="#FDFDFD"/>
<path d="M69.4609 276H67.5781V266.172H64.2344V264.578H72.7969V266.172H69.4609V276ZM77.75 267.188C78.8438 267.188 79.6693 267.43 80.2266 267.914C80.7891 268.398 81.0703 269.154 81.0703 270.18V276H79.7656L79.4141 274.773H79.3516C79.1068 275.086 78.8542 275.344 78.5938 275.547C78.3333 275.75 78.0312 275.901 77.6875 276C77.349 276.104 76.9349 276.156 76.4453 276.156C75.9297 276.156 75.4688 276.062 75.0625 275.875C74.6562 275.682 74.3359 275.391 74.1016 275C73.8672 274.609 73.75 274.115 73.75 273.516C73.75 272.625 74.0807 271.956 74.7422 271.508C75.4089 271.06 76.4141 270.812 77.7578 270.766L79.2578 270.711V270.258C79.2578 269.659 79.1172 269.232 78.8359 268.977C78.5599 268.721 78.1693 268.594 77.6641 268.594C77.2318 268.594 76.8125 268.656 76.4062 268.781C76 268.906 75.6042 269.06 75.2188 269.242L74.625 267.945C75.0469 267.721 75.526 267.539 76.0625 267.398C76.6042 267.258 77.1667 267.188 77.75 267.188ZM79.25 271.867L78.1328 271.906C77.2161 271.938 76.5729 272.094 76.2031 272.375C75.8333 272.656 75.6484 273.042 75.6484 273.531C75.6484 273.958 75.776 274.271 76.0312 274.469C76.2865 274.661 76.6224 274.758 77.0391 274.758C77.6745 274.758 78.2005 274.578 78.6172 274.219C79.0391 273.854 79.25 273.32 79.25 272.617V271.867ZM85.4766 263.844V269.719C85.4766 269.984 85.4661 270.276 85.4453 270.594C85.4245 270.906 85.4036 271.201 85.3828 271.477H85.4219C85.5573 271.294 85.7188 271.081 85.9062 270.836C86.099 270.591 86.2812 270.378 86.4531 270.195L89.0938 267.352H91.2031L87.7422 271.07L91.4297 276H89.2734L86.5078 272.203L85.4766 273.086V276H83.6406V263.844H85.4766ZM96.2578 267.188C97.0286 267.188 97.6901 267.346 98.2422 267.664C98.7943 267.982 99.2188 268.432 99.5156 269.016C99.8125 269.599 99.9609 270.297 99.9609 271.109V272.094H94.1875C94.2083 272.932 94.4323 273.578 94.8594 274.031C95.2917 274.484 95.8958 274.711 96.6719 274.711C97.224 274.711 97.7188 274.659 98.1562 274.555C98.599 274.445 99.0547 274.286 99.5234 274.078V275.57C99.0911 275.773 98.651 275.922 98.2031 276.016C97.7552 276.109 97.2188 276.156 96.5938 276.156C95.7448 276.156 94.9974 275.992 94.3516 275.664C93.7109 275.331 93.2083 274.836 92.8438 274.18C92.4844 273.523 92.3047 272.708 92.3047 271.734C92.3047 270.766 92.4688 269.943 92.7969 269.266C93.125 268.589 93.5859 268.073 94.1797 267.719C94.7734 267.365 95.4661 267.188 96.2578 267.188ZM96.2578 268.57C95.6797 268.57 95.2109 268.758 94.8516 269.133C94.4974 269.508 94.2891 270.057 94.2266 270.781H98.1641C98.1589 270.349 98.0859 269.966 97.9453 269.633C97.8099 269.299 97.6016 269.039 97.3203 268.852C97.0443 268.664 96.6901 268.57 96.2578 268.57ZM109.406 274.672C109.646 274.672 109.883 274.651 110.117 274.609C110.352 274.562 110.565 274.508 110.758 274.445V275.836C110.555 275.924 110.292 276 109.969 276.062C109.646 276.125 109.31 276.156 108.961 276.156C108.471 276.156 108.031 276.076 107.641 275.914C107.25 275.747 106.94 275.464 106.711 275.062C106.482 274.661 106.367 274.107 106.367 273.398V268.75H105.188V267.93L106.453 267.281L107.055 265.43H108.211V267.352H110.688V268.75H108.211V273.375C108.211 273.812 108.32 274.138 108.539 274.352C108.758 274.565 109.047 274.672 109.406 274.672ZM114.352 263.844V266.898C114.352 267.216 114.341 267.526 114.32 267.828C114.305 268.13 114.286 268.365 114.266 268.531H114.367C114.549 268.229 114.773 267.982 115.039 267.789C115.305 267.591 115.602 267.443 115.93 267.344C116.263 267.245 116.617 267.195 116.992 267.195C117.654 267.195 118.216 267.307 118.68 267.531C119.143 267.75 119.497 268.091 119.742 268.555C119.992 269.018 120.117 269.62 120.117 270.359V276H118.281V270.703C118.281 270.031 118.143 269.529 117.867 269.195C117.591 268.857 117.164 268.688 116.586 268.688C116.029 268.688 115.586 268.805 115.258 269.039C114.935 269.268 114.703 269.609 114.562 270.062C114.422 270.51 114.352 271.057 114.352 271.703V276H112.516V263.844H114.352ZM126.133 267.188C126.904 267.188 127.565 267.346 128.117 267.664C128.669 267.982 129.094 268.432 129.391 269.016C129.688 269.599 129.836 270.297 129.836 271.109V272.094H124.062C124.083 272.932 124.307 273.578 124.734 274.031C125.167 274.484 125.771 274.711 126.547 274.711C127.099 274.711 127.594 274.659 128.031 274.555C128.474 274.445 128.93 274.286 129.398 274.078V275.57C128.966 275.773 128.526 275.922 128.078 276.016C127.63 276.109 127.094 276.156 126.469 276.156C125.62 276.156 124.872 275.992 124.227 275.664C123.586 275.331 123.083 274.836 122.719 274.18C122.359 273.523 122.18 272.708 122.18 271.734C122.18 270.766 122.344 269.943 122.672 269.266C123 268.589 123.461 268.073 124.055 267.719C124.648 267.365 125.341 267.188 126.133 267.188ZM126.133 268.57C125.555 268.57 125.086 268.758 124.727 269.133C124.372 269.508 124.164 270.057 124.102 270.781H128.039C128.034 270.349 127.961 269.966 127.82 269.633C127.685 269.299 127.477 269.039 127.195 268.852C126.919 268.664 126.565 268.57 126.133 268.57ZM138.531 279.844C137.359 279.844 136.461 279.633 135.836 279.211C135.211 278.789 134.898 278.198 134.898 277.438C134.898 276.906 135.065 276.456 135.398 276.086C135.732 275.721 136.208 275.469 136.828 275.328C136.594 275.224 136.391 275.062 136.219 274.844C136.052 274.62 135.969 274.372 135.969 274.102C135.969 273.779 136.06 273.503 136.242 273.273C136.424 273.044 136.698 272.823 137.062 272.609C136.609 272.417 136.245 272.104 135.969 271.672C135.698 271.234 135.562 270.721 135.562 270.133C135.562 269.508 135.695 268.977 135.961 268.539C136.227 268.096 136.615 267.76 137.125 267.531C137.635 267.297 138.253 267.18 138.977 267.18C139.133 267.18 139.302 267.19 139.484 267.211C139.672 267.227 139.844 267.247 140 267.273C140.161 267.294 140.284 267.318 140.367 267.344H143.359V268.367L141.891 268.641C142.031 268.839 142.143 269.065 142.227 269.32C142.31 269.57 142.352 269.844 142.352 270.141C142.352 271.036 142.042 271.742 141.422 272.258C140.807 272.768 139.958 273.023 138.875 273.023C138.615 273.013 138.362 272.992 138.117 272.961C137.93 273.076 137.786 273.203 137.688 273.344C137.589 273.479 137.539 273.633 137.539 273.805C137.539 273.945 137.589 274.06 137.688 274.148C137.786 274.232 137.932 274.294 138.125 274.336C138.323 274.378 138.562 274.398 138.844 274.398H140.336C141.284 274.398 142.008 274.599 142.508 275C143.008 275.401 143.258 275.99 143.258 276.766C143.258 277.75 142.852 278.508 142.039 279.039C141.227 279.576 140.057 279.844 138.531 279.844ZM138.602 278.555C139.242 278.555 139.781 278.492 140.219 278.367C140.656 278.242 140.987 278.062 141.211 277.828C141.435 277.599 141.547 277.326 141.547 277.008C141.547 276.727 141.477 276.51 141.336 276.359C141.195 276.208 140.984 276.104 140.703 276.047C140.422 275.99 140.073 275.961 139.656 275.961H138.297C137.958 275.961 137.659 276.013 137.398 276.117C137.138 276.227 136.935 276.383 136.789 276.586C136.648 276.789 136.578 277.034 136.578 277.32C136.578 277.716 136.753 278.021 137.102 278.234C137.456 278.448 137.956 278.555 138.602 278.555ZM138.961 271.82C139.497 271.82 139.896 271.674 140.156 271.383C140.417 271.086 140.547 270.669 140.547 270.133C140.547 269.549 140.411 269.112 140.141 268.82C139.875 268.529 139.479 268.383 138.953 268.383C138.438 268.383 138.044 268.531 137.773 268.828C137.508 269.125 137.375 269.565 137.375 270.148C137.375 270.674 137.508 271.086 137.773 271.383C138.044 271.674 138.44 271.82 138.961 271.82ZM152.594 271.656C152.594 272.375 152.5 273.013 152.312 273.57C152.125 274.128 151.852 274.599 151.492 274.984C151.133 275.365 150.701 275.656 150.195 275.859C149.69 276.057 149.12 276.156 148.484 276.156C147.891 276.156 147.346 276.057 146.852 275.859C146.357 275.656 145.927 275.365 145.562 274.984C145.203 274.599 144.924 274.128 144.727 273.57C144.529 273.013 144.43 272.375 144.43 271.656C144.43 270.703 144.594 269.896 144.922 269.234C145.255 268.568 145.729 268.06 146.344 267.711C146.958 267.362 147.69 267.188 148.539 267.188C149.336 267.188 150.039 267.362 150.648 267.711C151.258 268.06 151.734 268.568 152.078 269.234C152.422 269.901 152.594 270.708 152.594 271.656ZM146.32 271.656C146.32 272.286 146.396 272.826 146.547 273.273C146.703 273.721 146.943 274.065 147.266 274.305C147.589 274.539 148.005 274.656 148.516 274.656C149.026 274.656 149.443 274.539 149.766 274.305C150.089 274.065 150.326 273.721 150.477 273.273C150.628 272.826 150.703 272.286 150.703 271.656C150.703 271.026 150.628 270.492 150.477 270.055C150.326 269.612 150.089 269.276 149.766 269.047C149.443 268.812 149.023 268.695 148.508 268.695C147.747 268.695 147.193 268.951 146.844 269.461C146.495 269.971 146.32 270.703 146.32 271.656ZM162.359 271.656C162.359 272.375 162.266 273.013 162.078 273.57C161.891 274.128 161.617 274.599 161.258 274.984C160.898 275.365 160.466 275.656 159.961 275.859C159.456 276.057 158.885 276.156 158.25 276.156C157.656 276.156 157.112 276.057 156.617 275.859C156.122 275.656 155.693 275.365 155.328 274.984C154.969 274.599 154.69 274.128 154.492 273.57C154.294 273.013 154.195 272.375 154.195 271.656C154.195 270.703 154.359 269.896 154.688 269.234C155.021 268.568 155.495 268.06 156.109 267.711C156.724 267.362 157.456 267.188 158.305 267.188C159.102 267.188 159.805 267.362 160.414 267.711C161.023 268.06 161.5 268.568 161.844 269.234C162.188 269.901 162.359 270.708 162.359 271.656ZM156.086 271.656C156.086 272.286 156.161 272.826 156.312 273.273C156.469 273.721 156.708 274.065 157.031 274.305C157.354 274.539 157.771 274.656 158.281 274.656C158.792 274.656 159.208 274.539 159.531 274.305C159.854 274.065 160.091 273.721 160.242 273.273C160.393 272.826 160.469 272.286 160.469 271.656C160.469 271.026 160.393 270.492 160.242 270.055C160.091 269.612 159.854 269.276 159.531 269.047C159.208 268.812 158.789 268.695 158.273 268.695C157.513 268.695 156.958 268.951 156.609 269.461C156.26 269.971 156.086 270.703 156.086 271.656ZM167.375 276.156C166.344 276.156 165.516 275.781 164.891 275.031C164.271 274.276 163.961 273.164 163.961 271.695C163.961 270.211 164.276 269.089 164.906 268.328C165.542 267.568 166.378 267.188 167.414 267.188C167.852 267.188 168.234 267.247 168.562 267.367C168.891 267.482 169.172 267.638 169.406 267.836C169.646 268.034 169.849 268.255 170.016 268.5H170.102C170.076 268.339 170.044 268.107 170.008 267.805C169.977 267.497 169.961 267.214 169.961 266.953V263.844H171.805V276H170.367L170.039 274.82H169.961C169.805 275.07 169.607 275.297 169.367 275.5C169.133 275.698 168.852 275.857 168.523 275.977C168.201 276.096 167.818 276.156 167.375 276.156ZM167.891 274.664C168.677 274.664 169.232 274.438 169.555 273.984C169.878 273.531 170.044 272.852 170.055 271.945V271.703C170.055 270.734 169.898 269.992 169.586 269.477C169.273 268.956 168.703 268.695 167.875 268.695C167.214 268.695 166.708 268.964 166.359 269.5C166.016 270.031 165.844 270.773 165.844 271.727C165.844 272.68 166.016 273.409 166.359 273.914C166.708 274.414 167.219 274.664 167.891 274.664ZM183.102 267.188C184.076 267.188 184.833 267.44 185.375 267.945C185.922 268.445 186.195 269.25 186.195 270.359V276H184.359V270.703C184.359 270.031 184.221 269.529 183.945 269.195C183.669 268.857 183.242 268.688 182.664 268.688C181.826 268.688 181.242 268.945 180.914 269.461C180.591 269.977 180.43 270.724 180.43 271.703V276H178.594V267.352H180.023L180.281 268.523H180.383C180.57 268.221 180.802 267.974 181.078 267.781C181.359 267.583 181.672 267.435 182.016 267.336C182.365 267.237 182.727 267.188 183.102 267.188ZM192.211 267.188C192.982 267.188 193.643 267.346 194.195 267.664C194.747 267.982 195.172 268.432 195.469 269.016C195.766 269.599 195.914 270.297 195.914 271.109V272.094H190.141C190.161 272.932 190.385 273.578 190.812 274.031C191.245 274.484 191.849 274.711 192.625 274.711C193.177 274.711 193.672 274.659 194.109 274.555C194.552 274.445 195.008 274.286 195.477 274.078V275.57C195.044 275.773 194.604 275.922 194.156 276.016C193.708 276.109 193.172 276.156 192.547 276.156C191.698 276.156 190.951 275.992 190.305 275.664C189.664 275.331 189.161 274.836 188.797 274.18C188.438 273.523 188.258 272.708 188.258 271.734C188.258 270.766 188.422 269.943 188.75 269.266C189.078 268.589 189.539 268.073 190.133 267.719C190.727 267.365 191.419 267.188 192.211 267.188ZM192.211 268.57C191.633 268.57 191.164 268.758 190.805 269.133C190.451 269.508 190.242 270.057 190.18 270.781H194.117C194.112 270.349 194.039 269.966 193.898 269.633C193.763 269.299 193.555 269.039 193.273 268.852C192.997 268.664 192.643 268.57 192.211 268.57ZM205.055 275.992L203.961 271.969C203.909 271.771 203.846 271.531 203.773 271.25C203.701 270.969 203.628 270.68 203.555 270.383C203.482 270.081 203.414 269.802 203.352 269.547C203.294 269.292 203.25 269.094 203.219 268.953H203.156C203.13 269.094 203.089 269.292 203.031 269.547C202.974 269.802 202.909 270.081 202.836 270.383C202.763 270.685 202.69 270.979 202.617 271.266C202.549 271.552 202.487 271.797 202.43 272L201.281 275.992H199.266L196.844 267.344H198.703L199.828 271.641C199.901 271.932 199.971 272.247 200.039 272.586C200.112 272.924 200.174 273.247 200.227 273.555C200.279 273.862 200.318 274.115 200.344 274.312H200.406C200.427 274.172 200.456 273.995 200.492 273.781C200.529 273.562 200.57 273.336 200.617 273.102C200.664 272.862 200.711 272.638 200.758 272.43C200.805 272.216 200.849 272.044 200.891 271.914L202.219 267.344H204.227L205.5 271.914C205.557 272.112 205.62 272.362 205.688 272.664C205.755 272.961 205.815 273.26 205.867 273.562C205.924 273.859 205.961 274.107 205.977 274.305H206.039C206.06 274.128 206.096 273.888 206.148 273.586C206.206 273.279 206.271 272.953 206.344 272.609C206.417 272.26 206.492 271.938 206.57 271.641L207.719 267.344H209.547L207.109 275.992H205.055ZM216.844 273.531C216.844 274.099 216.706 274.578 216.43 274.969C216.154 275.359 215.75 275.656 215.219 275.859C214.693 276.057 214.047 276.156 213.281 276.156C212.677 276.156 212.156 276.112 211.719 276.023C211.286 275.94 210.878 275.81 210.492 275.633V274.047C210.904 274.24 211.365 274.406 211.875 274.547C212.391 274.688 212.878 274.758 213.336 274.758C213.94 274.758 214.375 274.664 214.641 274.477C214.906 274.284 215.039 274.029 215.039 273.711C215.039 273.523 214.984 273.357 214.875 273.211C214.771 273.06 214.573 272.906 214.281 272.75C213.995 272.589 213.573 272.396 213.016 272.172C212.469 271.953 212.008 271.734 211.633 271.516C211.258 271.297 210.974 271.034 210.781 270.727C210.589 270.414 210.492 270.016 210.492 269.531C210.492 268.766 210.794 268.185 211.398 267.789C212.008 267.388 212.812 267.188 213.812 267.188C214.344 267.188 214.844 267.242 215.312 267.352C215.786 267.456 216.25 267.609 216.703 267.812L216.125 269.195C215.734 269.023 215.341 268.883 214.945 268.773C214.555 268.659 214.156 268.602 213.75 268.602C213.276 268.602 212.914 268.674 212.664 268.82C212.419 268.966 212.297 269.174 212.297 269.445C212.297 269.648 212.357 269.82 212.477 269.961C212.596 270.102 212.802 270.242 213.094 270.383C213.391 270.523 213.802 270.698 214.328 270.906C214.844 271.104 215.289 271.312 215.664 271.531C216.044 271.745 216.336 272.008 216.539 272.32C216.742 272.633 216.844 273.036 216.844 273.531ZM226.375 267.188C227.469 267.188 228.294 267.43 228.852 267.914C229.414 268.398 229.695 269.154 229.695 270.18V276H228.391L228.039 274.773H227.977C227.732 275.086 227.479 275.344 227.219 275.547C226.958 275.75 226.656 275.901 226.312 276C225.974 276.104 225.56 276.156 225.07 276.156C224.555 276.156 224.094 276.062 223.688 275.875C223.281 275.682 222.961 275.391 222.727 275C222.492 274.609 222.375 274.115 222.375 273.516C222.375 272.625 222.706 271.956 223.367 271.508C224.034 271.06 225.039 270.812 226.383 270.766L227.883 270.711V270.258C227.883 269.659 227.742 269.232 227.461 268.977C227.185 268.721 226.794 268.594 226.289 268.594C225.857 268.594 225.438 268.656 225.031 268.781C224.625 268.906 224.229 269.06 223.844 269.242L223.25 267.945C223.672 267.721 224.151 267.539 224.688 267.398C225.229 267.258 225.792 267.188 226.375 267.188ZM227.875 271.867L226.758 271.906C225.841 271.938 225.198 272.094 224.828 272.375C224.458 272.656 224.273 273.042 224.273 273.531C224.273 273.958 224.401 274.271 224.656 274.469C224.911 274.661 225.247 274.758 225.664 274.758C226.299 274.758 226.826 274.578 227.242 274.219C227.664 273.854 227.875 273.32 227.875 272.617V271.867ZM234.102 263.844V266.773C234.102 267.112 234.091 267.445 234.07 267.773C234.055 268.096 234.039 268.349 234.023 268.531H234.102C234.336 268.156 234.661 267.841 235.078 267.586C235.5 267.326 236.039 267.195 236.695 267.195C237.721 267.195 238.547 267.573 239.172 268.328C239.797 269.078 240.109 270.19 240.109 271.664C240.109 272.643 239.966 273.466 239.68 274.133C239.393 274.799 238.99 275.305 238.469 275.648C237.953 275.987 237.346 276.156 236.648 276.156C235.992 276.156 235.461 276.036 235.055 275.797C234.654 275.552 234.339 275.268 234.109 274.945H233.977L233.641 276H232.266V263.844H234.102ZM236.211 268.688C235.69 268.688 235.276 268.792 234.969 269C234.667 269.208 234.448 269.521 234.312 269.938C234.177 270.349 234.107 270.872 234.102 271.508V271.672C234.102 272.635 234.253 273.372 234.555 273.883C234.862 274.393 235.419 274.648 236.227 274.648C236.867 274.648 237.359 274.391 237.703 273.875C238.047 273.354 238.219 272.609 238.219 271.641C238.219 270.661 238.047 269.924 237.703 269.43C237.365 268.935 236.867 268.688 236.211 268.688ZM249.891 271.656C249.891 272.375 249.797 273.013 249.609 273.57C249.422 274.128 249.148 274.599 248.789 274.984C248.43 275.365 247.997 275.656 247.492 275.859C246.987 276.057 246.417 276.156 245.781 276.156C245.188 276.156 244.643 276.057 244.148 275.859C243.654 275.656 243.224 275.365 242.859 274.984C242.5 274.599 242.221 274.128 242.023 273.57C241.826 273.013 241.727 272.375 241.727 271.656C241.727 270.703 241.891 269.896 242.219 269.234C242.552 268.568 243.026 268.06 243.641 267.711C244.255 267.362 244.987 267.188 245.836 267.188C246.633 267.188 247.336 267.362 247.945 267.711C248.555 268.06 249.031 268.568 249.375 269.234C249.719 269.901 249.891 270.708 249.891 271.656ZM243.617 271.656C243.617 272.286 243.693 272.826 243.844 273.273C244 273.721 244.24 274.065 244.562 274.305C244.885 274.539 245.302 274.656 245.812 274.656C246.323 274.656 246.74 274.539 247.062 274.305C247.385 274.065 247.622 273.721 247.773 273.273C247.924 272.826 248 272.286 248 271.656C248 271.026 247.924 270.492 247.773 270.055C247.622 269.612 247.385 269.276 247.062 269.047C246.74 268.812 246.32 268.695 245.805 268.695C245.044 268.695 244.49 268.951 244.141 269.461C243.792 269.971 243.617 270.703 243.617 271.656ZM259.539 267.352V276H258.094L257.844 274.836H257.742C257.56 275.133 257.328 275.38 257.047 275.578C256.766 275.771 256.453 275.914 256.109 276.008C255.766 276.107 255.404 276.156 255.023 276.156C254.372 276.156 253.815 276.047 253.352 275.828C252.893 275.604 252.542 275.26 252.297 274.797C252.052 274.333 251.93 273.734 251.93 273V267.352H253.773V272.656C253.773 273.328 253.909 273.831 254.18 274.164C254.456 274.497 254.883 274.664 255.461 274.664C256.018 274.664 256.461 274.549 256.789 274.32C257.117 274.091 257.349 273.753 257.484 273.305C257.625 272.857 257.695 272.307 257.695 271.656V267.352H259.539ZM265.391 274.672C265.63 274.672 265.867 274.651 266.102 274.609C266.336 274.562 266.549 274.508 266.742 274.445V275.836C266.539 275.924 266.276 276 265.953 276.062C265.63 276.125 265.294 276.156 264.945 276.156C264.456 276.156 264.016 276.076 263.625 275.914C263.234 275.747 262.924 275.464 262.695 275.062C262.466 274.661 262.352 274.107 262.352 273.398V268.75H261.172V267.93L262.438 267.281L263.039 265.43H264.195V267.352H266.672V268.75H264.195V273.375C264.195 273.812 264.305 274.138 264.523 274.352C264.742 274.565 265.031 274.672 265.391 274.672ZM277.773 276L274.484 266.461H274.414C274.43 266.674 274.448 266.966 274.469 267.336C274.49 267.706 274.508 268.102 274.523 268.523C274.539 268.945 274.547 269.349 274.547 269.734V276H272.844V264.578H275.477L278.641 273.695H278.688L281.961 264.578H284.586V276H282.797V269.641C282.797 269.292 282.802 268.914 282.812 268.508C282.828 268.102 282.844 267.716 282.859 267.352C282.88 266.987 282.896 266.695 282.906 266.477H282.844L279.43 276H277.773ZM290.852 267.188C291.622 267.188 292.284 267.346 292.836 267.664C293.388 267.982 293.812 268.432 294.109 269.016C294.406 269.599 294.555 270.297 294.555 271.109V272.094H288.781C288.802 272.932 289.026 273.578 289.453 274.031C289.885 274.484 290.49 274.711 291.266 274.711C291.818 274.711 292.312 274.659 292.75 274.555C293.193 274.445 293.648 274.286 294.117 274.078V275.57C293.685 275.773 293.245 275.922 292.797 276.016C292.349 276.109 291.812 276.156 291.188 276.156C290.339 276.156 289.591 275.992 288.945 275.664C288.305 275.331 287.802 274.836 287.438 274.18C287.078 273.523 286.898 272.708 286.898 271.734C286.898 270.766 287.062 269.943 287.391 269.266C287.719 268.589 288.18 268.073 288.773 267.719C289.367 267.365 290.06 267.188 290.852 267.188ZM290.852 268.57C290.273 268.57 289.805 268.758 289.445 269.133C289.091 269.508 288.883 270.057 288.82 270.781H292.758C292.753 270.349 292.68 269.966 292.539 269.633C292.404 269.299 292.195 269.039 291.914 268.852C291.638 268.664 291.284 268.57 290.852 268.57ZM302.438 273.531C302.438 274.099 302.299 274.578 302.023 274.969C301.747 275.359 301.344 275.656 300.812 275.859C300.286 276.057 299.641 276.156 298.875 276.156C298.271 276.156 297.75 276.112 297.312 276.023C296.88 275.94 296.471 275.81 296.086 275.633V274.047C296.497 274.24 296.958 274.406 297.469 274.547C297.984 274.688 298.471 274.758 298.93 274.758C299.534 274.758 299.969 274.664 300.234 274.477C300.5 274.284 300.633 274.029 300.633 273.711C300.633 273.523 300.578 273.357 300.469 273.211C300.365 273.06 300.167 272.906 299.875 272.75C299.589 272.589 299.167 272.396 298.609 272.172C298.062 271.953 297.602 271.734 297.227 271.516C296.852 271.297 296.568 271.034 296.375 270.727C296.182 270.414 296.086 270.016 296.086 269.531C296.086 268.766 296.388 268.185 296.992 267.789C297.602 267.388 298.406 267.188 299.406 267.188C299.938 267.188 300.438 267.242 300.906 267.352C301.38 267.456 301.844 267.609 302.297 267.812L301.719 269.195C301.328 269.023 300.935 268.883 300.539 268.773C300.148 268.659 299.75 268.602 299.344 268.602C298.87 268.602 298.508 268.674 298.258 268.82C298.013 268.966 297.891 269.174 297.891 269.445C297.891 269.648 297.951 269.82 298.07 269.961C298.19 270.102 298.396 270.242 298.688 270.383C298.984 270.523 299.396 270.698 299.922 270.906C300.438 271.104 300.883 271.312 301.258 271.531C301.638 271.745 301.93 272.008 302.133 272.32C302.336 272.633 302.438 273.036 302.438 273.531ZM306.258 263.844V266.898C306.258 267.216 306.247 267.526 306.227 267.828C306.211 268.13 306.193 268.365 306.172 268.531H306.273C306.456 268.229 306.68 267.982 306.945 267.789C307.211 267.591 307.508 267.443 307.836 267.344C308.169 267.245 308.523 267.195 308.898 267.195C309.56 267.195 310.122 267.307 310.586 267.531C311.049 267.75 311.404 268.091 311.648 268.555C311.898 269.018 312.023 269.62 312.023 270.359V276H310.188V270.703C310.188 270.031 310.049 269.529 309.773 269.195C309.497 268.857 309.07 268.688 308.492 268.688C307.935 268.688 307.492 268.805 307.164 269.039C306.841 269.268 306.609 269.609 306.469 270.062C306.328 270.51 306.258 271.057 306.258 271.703V276H304.422V263.844H306.258ZM318.039 267.188C318.81 267.188 319.471 267.346 320.023 267.664C320.576 267.982 321 268.432 321.297 269.016C321.594 269.599 321.742 270.297 321.742 271.109V272.094H315.969C315.99 272.932 316.214 273.578 316.641 274.031C317.073 274.484 317.677 274.711 318.453 274.711C319.005 274.711 319.5 274.659 319.938 274.555C320.38 274.445 320.836 274.286 321.305 274.078V275.57C320.872 275.773 320.432 275.922 319.984 276.016C319.536 276.109 319 276.156 318.375 276.156C317.526 276.156 316.779 275.992 316.133 275.664C315.492 275.331 314.99 274.836 314.625 274.18C314.266 273.523 314.086 272.708 314.086 271.734C314.086 270.766 314.25 269.943 314.578 269.266C314.906 268.589 315.367 268.073 315.961 267.719C316.555 267.365 317.247 267.188 318.039 267.188ZM318.039 268.57C317.461 268.57 316.992 268.758 316.633 269.133C316.279 269.508 316.07 270.057 316.008 270.781H319.945C319.94 270.349 319.867 269.966 319.727 269.633C319.591 269.299 319.383 269.039 319.102 268.852C318.826 268.664 318.471 268.57 318.039 268.57ZM328.195 267.188C328.341 267.188 328.5 267.195 328.672 267.211C328.844 267.227 328.992 267.247 329.117 267.273L328.945 268.992C328.836 268.961 328.701 268.938 328.539 268.922C328.383 268.906 328.242 268.898 328.117 268.898C327.789 268.898 327.477 268.953 327.18 269.062C326.883 269.167 326.62 269.328 326.391 269.547C326.161 269.76 325.982 270.029 325.852 270.352C325.721 270.674 325.656 271.049 325.656 271.477V276H323.812V267.352H325.25L325.5 268.875H325.586C325.758 268.568 325.971 268.286 326.227 268.031C326.482 267.776 326.773 267.573 327.102 267.422C327.435 267.266 327.799 267.188 328.195 267.188ZM329.414 267.352H331.414L333.188 272.289C333.266 272.513 333.336 272.734 333.398 272.953C333.466 273.167 333.523 273.378 333.57 273.586C333.622 273.794 333.664 274.003 333.695 274.211H333.742C333.794 273.94 333.867 273.638 333.961 273.305C334.06 272.966 334.169 272.628 334.289 272.289L335.992 267.352H337.969L334.258 277.188C334.044 277.75 333.781 278.229 333.469 278.625C333.161 279.026 332.797 279.328 332.375 279.531C331.953 279.74 331.471 279.844 330.93 279.844C330.669 279.844 330.443 279.828 330.25 279.797C330.057 279.771 329.893 279.742 329.758 279.711V278.242C329.867 278.268 330.005 278.292 330.172 278.312C330.339 278.333 330.51 278.344 330.688 278.344C331.016 278.344 331.299 278.279 331.539 278.148C331.779 278.018 331.982 277.833 332.148 277.594C332.315 277.359 332.453 277.091 332.562 276.789L332.867 275.977L329.414 267.352ZM350.508 275.992L349.414 271.969C349.362 271.771 349.299 271.531 349.227 271.25C349.154 270.969 349.081 270.68 349.008 270.383C348.935 270.081 348.867 269.802 348.805 269.547C348.747 269.292 348.703 269.094 348.672 268.953H348.609C348.583 269.094 348.542 269.292 348.484 269.547C348.427 269.802 348.362 270.081 348.289 270.383C348.216 270.685 348.143 270.979 348.07 271.266C348.003 271.552 347.94 271.797 347.883 272L346.734 275.992H344.719L342.297 267.344H344.156L345.281 271.641C345.354 271.932 345.424 272.247 345.492 272.586C345.565 272.924 345.628 273.247 345.68 273.555C345.732 273.862 345.771 274.115 345.797 274.312H345.859C345.88 274.172 345.909 273.995 345.945 273.781C345.982 273.562 346.023 273.336 346.07 273.102C346.117 272.862 346.164 272.638 346.211 272.43C346.258 272.216 346.302 272.044 346.344 271.914L347.672 267.344H349.68L350.953 271.914C351.01 272.112 351.073 272.362 351.141 272.664C351.208 272.961 351.268 273.26 351.32 273.562C351.378 273.859 351.414 274.107 351.43 274.305H351.492C351.513 274.128 351.549 273.888 351.602 273.586C351.659 273.279 351.724 272.953 351.797 272.609C351.87 272.26 351.945 271.938 352.023 271.641L353.172 267.344H355L352.562 275.992H350.508ZM358.32 267.352V276H356.484V267.352H358.32ZM357.414 264.039C357.695 264.039 357.938 264.115 358.141 264.266C358.349 264.417 358.453 264.677 358.453 265.047C358.453 265.411 358.349 265.672 358.141 265.828C357.938 265.979 357.695 266.055 357.414 266.055C357.122 266.055 356.875 265.979 356.672 265.828C356.474 265.672 356.375 265.411 356.375 265.047C356.375 264.677 356.474 264.417 356.672 264.266C356.875 264.115 357.122 264.039 357.414 264.039ZM364.172 274.672C364.411 274.672 364.648 274.651 364.883 274.609C365.117 274.562 365.331 274.508 365.523 274.445V275.836C365.32 275.924 365.057 276 364.734 276.062C364.411 276.125 364.076 276.156 363.727 276.156C363.237 276.156 362.797 276.076 362.406 275.914C362.016 275.747 361.706 275.464 361.477 275.062C361.247 274.661 361.133 274.107 361.133 273.398V268.75H359.953V267.93L361.219 267.281L361.82 265.43H362.977V267.352H365.453V268.75H362.977V273.375C362.977 273.812 363.086 274.138 363.305 274.352C363.523 274.565 363.812 274.672 364.172 274.672ZM369.117 263.844V266.898C369.117 267.216 369.107 267.526 369.086 267.828C369.07 268.13 369.052 268.365 369.031 268.531H369.133C369.315 268.229 369.539 267.982 369.805 267.789C370.07 267.591 370.367 267.443 370.695 267.344C371.029 267.245 371.383 267.195 371.758 267.195C372.419 267.195 372.982 267.307 373.445 267.531C373.909 267.75 374.263 268.091 374.508 268.555C374.758 269.018 374.883 269.62 374.883 270.359V276H373.047V270.703C373.047 270.031 372.909 269.529 372.633 269.195C372.357 268.857 371.93 268.688 371.352 268.688C370.794 268.688 370.352 268.805 370.023 269.039C369.701 269.268 369.469 269.609 369.328 270.062C369.188 270.51 369.117 271.057 369.117 271.703V276H367.281V263.844H369.117ZM380.305 267.352H382.305L384.078 272.289C384.156 272.513 384.227 272.734 384.289 272.953C384.357 273.167 384.414 273.378 384.461 273.586C384.513 273.794 384.555 274.003 384.586 274.211H384.633C384.685 273.94 384.758 273.638 384.852 273.305C384.951 272.966 385.06 272.628 385.18 272.289L386.883 267.352H388.859L385.148 277.188C384.935 277.75 384.672 278.229 384.359 278.625C384.052 279.026 383.688 279.328 383.266 279.531C382.844 279.74 382.362 279.844 381.82 279.844C381.56 279.844 381.333 279.828 381.141 279.797C380.948 279.771 380.784 279.742 380.648 279.711V278.242C380.758 278.268 380.896 278.292 381.062 278.312C381.229 278.333 381.401 278.344 381.578 278.344C381.906 278.344 382.19 278.279 382.43 278.148C382.669 278.018 382.872 277.833 383.039 277.594C383.206 277.359 383.344 277.091 383.453 276.789L383.758 275.977L380.305 267.352ZM397.828 271.656C397.828 272.375 397.734 273.013 397.547 273.57C397.359 274.128 397.086 274.599 396.727 274.984C396.367 275.365 395.935 275.656 395.43 275.859C394.924 276.057 394.354 276.156 393.719 276.156C393.125 276.156 392.581 276.057 392.086 275.859C391.591 275.656 391.161 275.365 390.797 274.984C390.438 274.599 390.159 274.128 389.961 273.57C389.763 273.013 389.664 272.375 389.664 271.656C389.664 270.703 389.828 269.896 390.156 269.234C390.49 268.568 390.964 268.06 391.578 267.711C392.193 267.362 392.924 267.188 393.773 267.188C394.57 267.188 395.273 267.362 395.883 267.711C396.492 268.06 396.969 268.568 397.312 269.234C397.656 269.901 397.828 270.708 397.828 271.656ZM391.555 271.656C391.555 272.286 391.63 272.826 391.781 273.273C391.938 273.721 392.177 274.065 392.5 274.305C392.823 274.539 393.24 274.656 393.75 274.656C394.26 274.656 394.677 274.539 395 274.305C395.323 274.065 395.56 273.721 395.711 273.273C395.862 272.826 395.938 272.286 395.938 271.656C395.938 271.026 395.862 270.492 395.711 270.055C395.56 269.612 395.323 269.276 395 269.047C394.677 268.812 394.258 268.695 393.742 268.695C392.982 268.695 392.427 268.951 392.078 269.461C391.729 269.971 391.555 270.703 391.555 271.656ZM407.477 267.352V276H406.031L405.781 274.836H405.68C405.497 275.133 405.266 275.38 404.984 275.578C404.703 275.771 404.391 275.914 404.047 276.008C403.703 276.107 403.341 276.156 402.961 276.156C402.31 276.156 401.753 276.047 401.289 275.828C400.831 275.604 400.479 275.26 400.234 274.797C399.99 274.333 399.867 273.734 399.867 273V267.352H401.711V272.656C401.711 273.328 401.846 273.831 402.117 274.164C402.393 274.497 402.82 274.664 403.398 274.664C403.956 274.664 404.398 274.549 404.727 274.32C405.055 274.091 405.286 273.753 405.422 273.305C405.562 272.857 405.633 272.307 405.633 271.656V267.352H407.477ZM68.7578 295.188C69.5286 295.188 70.1901 295.346 70.7422 295.664C71.2943 295.982 71.7188 296.432 72.0156 297.016C72.3125 297.599 72.4609 298.297 72.4609 299.109V300.094H66.6875C66.7083 300.932 66.9323 301.578 67.3594 302.031C67.7917 302.484 68.3958 302.711 69.1719 302.711C69.724 302.711 70.2188 302.659 70.6562 302.555C71.099 302.445 71.5547 302.286 72.0234 302.078V303.57C71.5911 303.773 71.151 303.922 70.7031 304.016C70.2552 304.109 69.7188 304.156 69.0938 304.156C68.2448 304.156 67.4974 303.992 66.8516 303.664C66.2109 303.331 65.7083 302.836 65.3438 302.18C64.9844 301.523 64.8047 300.708 64.8047 299.734C64.8047 298.766 64.9688 297.943 65.2969 297.266C65.625 296.589 66.0859 296.073 66.6797 295.719C67.2734 295.365 67.9661 295.188 68.7578 295.188ZM68.7578 296.57C68.1797 296.57 67.7109 296.758 67.3516 297.133C66.9974 297.508 66.7891 298.057 66.7266 298.781H70.6641C70.6589 298.349 70.5859 297.966 70.4453 297.633C70.3099 297.299 70.1016 297.039 69.8203 296.852C69.5443 296.664 69.1901 296.57 68.7578 296.57ZM76.5078 304L73.2188 295.352H75.1641L76.9453 300.43C77.0599 300.753 77.1641 301.102 77.2578 301.477C77.3516 301.852 77.4167 302.167 77.4531 302.422H77.5156C77.5521 302.156 77.6224 301.839 77.7266 301.469C77.8307 301.094 77.9375 300.747 78.0469 300.43L79.8281 295.352H81.7656L78.4766 304H76.5078ZM86.5234 295.188C87.2943 295.188 87.9557 295.346 88.5078 295.664C89.0599 295.982 89.4844 296.432 89.7812 297.016C90.0781 297.599 90.2266 298.297 90.2266 299.109V300.094H84.4531C84.474 300.932 84.6979 301.578 85.125 302.031C85.5573 302.484 86.1615 302.711 86.9375 302.711C87.4896 302.711 87.9844 302.659 88.4219 302.555C88.8646 302.445 89.3203 302.286 89.7891 302.078V303.57C89.3568 303.773 88.9167 303.922 88.4688 304.016C88.0208 304.109 87.4844 304.156 86.8594 304.156C86.0104 304.156 85.263 303.992 84.6172 303.664C83.9766 303.331 83.474 302.836 83.1094 302.18C82.75 301.523 82.5703 300.708 82.5703 299.734C82.5703 298.766 82.7344 297.943 83.0625 297.266C83.3906 296.589 83.8516 296.073 84.4453 295.719C85.0391 295.365 85.7318 295.188 86.5234 295.188ZM86.5234 296.57C85.9453 296.57 85.4766 296.758 85.1172 297.133C84.763 297.508 84.5547 298.057 84.4922 298.781H88.4297C88.4245 298.349 88.3516 297.966 88.2109 297.633C88.0755 297.299 87.8672 297.039 87.5859 296.852C87.3099 296.664 86.9557 296.57 86.5234 296.57ZM96.6797 295.188C96.8255 295.188 96.9844 295.195 97.1562 295.211C97.3281 295.227 97.4766 295.247 97.6016 295.273L97.4297 296.992C97.3203 296.961 97.1849 296.938 97.0234 296.922C96.8672 296.906 96.7266 296.898 96.6016 296.898C96.2734 296.898 95.9609 296.953 95.6641 297.062C95.3672 297.167 95.1042 297.328 94.875 297.547C94.6458 297.76 94.4661 298.029 94.3359 298.352C94.2057 298.674 94.1406 299.049 94.1406 299.477V304H92.2969V295.352H93.7344L93.9844 296.875H94.0703C94.2422 296.568 94.4557 296.286 94.7109 296.031C94.9661 295.776 95.2578 295.573 95.5859 295.422C95.9193 295.266 96.2839 295.188 96.6797 295.188ZM97.8984 295.352H99.8984L101.672 300.289C101.75 300.513 101.82 300.734 101.883 300.953C101.951 301.167 102.008 301.378 102.055 301.586C102.107 301.794 102.148 302.003 102.18 302.211H102.227C102.279 301.94 102.352 301.638 102.445 301.305C102.544 300.966 102.654 300.628 102.773 300.289L104.477 295.352H106.453L102.742 305.188C102.529 305.75 102.266 306.229 101.953 306.625C101.646 307.026 101.281 307.328 100.859 307.531C100.438 307.74 99.9557 307.844 99.4141 307.844C99.1536 307.844 98.9271 307.828 98.7344 307.797C98.5417 307.771 98.3776 307.742 98.2422 307.711V306.242C98.3516 306.268 98.4896 306.292 98.6562 306.312C98.8229 306.333 98.9948 306.344 99.1719 306.344C99.5 306.344 99.7839 306.279 100.023 306.148C100.263 306.018 100.466 305.833 100.633 305.594C100.799 305.359 100.938 305.091 101.047 304.789L101.352 303.977L97.8984 295.352ZM110.617 295.352H112.617L114.391 300.289C114.469 300.513 114.539 300.734 114.602 300.953C114.669 301.167 114.727 301.378 114.773 301.586C114.826 301.794 114.867 302.003 114.898 302.211H114.945C114.997 301.94 115.07 301.638 115.164 301.305C115.263 300.966 115.372 300.628 115.492 300.289L117.195 295.352H119.172L115.461 305.188C115.247 305.75 114.984 306.229 114.672 306.625C114.365 307.026 114 307.328 113.578 307.531C113.156 307.74 112.674 307.844 112.133 307.844C111.872 307.844 111.646 307.828 111.453 307.797C111.26 307.771 111.096 307.742 110.961 307.711V306.242C111.07 306.268 111.208 306.292 111.375 306.312C111.542 306.333 111.714 306.344 111.891 306.344C112.219 306.344 112.503 306.279 112.742 306.148C112.982 306.018 113.185 305.833 113.352 305.594C113.518 305.359 113.656 305.091 113.766 304.789L114.07 303.977L110.617 295.352ZM128.141 299.656C128.141 300.375 128.047 301.013 127.859 301.57C127.672 302.128 127.398 302.599 127.039 302.984C126.68 303.365 126.247 303.656 125.742 303.859C125.237 304.057 124.667 304.156 124.031 304.156C123.438 304.156 122.893 304.057 122.398 303.859C121.904 303.656 121.474 303.365 121.109 302.984C120.75 302.599 120.471 302.128 120.273 301.57C120.076 301.013 119.977 300.375 119.977 299.656C119.977 298.703 120.141 297.896 120.469 297.234C120.802 296.568 121.276 296.06 121.891 295.711C122.505 295.362 123.237 295.188 124.086 295.188C124.883 295.188 125.586 295.362 126.195 295.711C126.805 296.06 127.281 296.568 127.625 297.234C127.969 297.901 128.141 298.708 128.141 299.656ZM121.867 299.656C121.867 300.286 121.943 300.826 122.094 301.273C122.25 301.721 122.49 302.065 122.812 302.305C123.135 302.539 123.552 302.656 124.062 302.656C124.573 302.656 124.99 302.539 125.312 302.305C125.635 302.065 125.872 301.721 126.023 301.273C126.174 300.826 126.25 300.286 126.25 299.656C126.25 299.026 126.174 298.492 126.023 298.055C125.872 297.612 125.635 297.276 125.312 297.047C124.99 296.812 124.57 296.695 124.055 296.695C123.294 296.695 122.74 296.951 122.391 297.461C122.042 297.971 121.867 298.703 121.867 299.656ZM137.789 295.352V304H136.344L136.094 302.836H135.992C135.81 303.133 135.578 303.38 135.297 303.578C135.016 303.771 134.703 303.914 134.359 304.008C134.016 304.107 133.654 304.156 133.273 304.156C132.622 304.156 132.065 304.047 131.602 303.828C131.143 303.604 130.792 303.26 130.547 302.797C130.302 302.333 130.18 301.734 130.18 301V295.352H132.023V300.656C132.023 301.328 132.159 301.831 132.43 302.164C132.706 302.497 133.133 302.664 133.711 302.664C134.268 302.664 134.711 302.549 135.039 302.32C135.367 302.091 135.599 301.753 135.734 301.305C135.875 300.857 135.945 300.307 135.945 299.656V295.352H137.789ZM147.047 307.844C145.875 307.844 144.977 307.633 144.352 307.211C143.727 306.789 143.414 306.198 143.414 305.438C143.414 304.906 143.581 304.456 143.914 304.086C144.247 303.721 144.724 303.469 145.344 303.328C145.109 303.224 144.906 303.062 144.734 302.844C144.568 302.62 144.484 302.372 144.484 302.102C144.484 301.779 144.576 301.503 144.758 301.273C144.94 301.044 145.214 300.823 145.578 300.609C145.125 300.417 144.76 300.104 144.484 299.672C144.214 299.234 144.078 298.721 144.078 298.133C144.078 297.508 144.211 296.977 144.477 296.539C144.742 296.096 145.13 295.76 145.641 295.531C146.151 295.297 146.768 295.18 147.492 295.18C147.648 295.18 147.818 295.19 148 295.211C148.188 295.227 148.359 295.247 148.516 295.273C148.677 295.294 148.799 295.318 148.883 295.344H151.875V296.367L150.406 296.641C150.547 296.839 150.659 297.065 150.742 297.32C150.826 297.57 150.867 297.844 150.867 298.141C150.867 299.036 150.557 299.742 149.938 300.258C149.323 300.768 148.474 301.023 147.391 301.023C147.13 301.013 146.878 300.992 146.633 300.961C146.445 301.076 146.302 301.203 146.203 301.344C146.104 301.479 146.055 301.633 146.055 301.805C146.055 301.945 146.104 302.06 146.203 302.148C146.302 302.232 146.448 302.294 146.641 302.336C146.839 302.378 147.078 302.398 147.359 302.398H148.852C149.799 302.398 150.523 302.599 151.023 303C151.523 303.401 151.773 303.99 151.773 304.766C151.773 305.75 151.367 306.508 150.555 307.039C149.742 307.576 148.573 307.844 147.047 307.844ZM147.117 306.555C147.758 306.555 148.297 306.492 148.734 306.367C149.172 306.242 149.503 306.062 149.727 305.828C149.951 305.599 150.062 305.326 150.062 305.008C150.062 304.727 149.992 304.51 149.852 304.359C149.711 304.208 149.5 304.104 149.219 304.047C148.938 303.99 148.589 303.961 148.172 303.961H146.812C146.474 303.961 146.174 304.013 145.914 304.117C145.654 304.227 145.451 304.383 145.305 304.586C145.164 304.789 145.094 305.034 145.094 305.32C145.094 305.716 145.268 306.021 145.617 306.234C145.971 306.448 146.471 306.555 147.117 306.555ZM147.477 299.82C148.013 299.82 148.411 299.674 148.672 299.383C148.932 299.086 149.062 298.669 149.062 298.133C149.062 297.549 148.927 297.112 148.656 296.82C148.391 296.529 147.995 296.383 147.469 296.383C146.953 296.383 146.56 296.531 146.289 296.828C146.023 297.125 145.891 297.565 145.891 298.148C145.891 298.674 146.023 299.086 146.289 299.383C146.56 299.674 146.956 299.82 147.477 299.82ZM161.109 299.656C161.109 300.375 161.016 301.013 160.828 301.57C160.641 302.128 160.367 302.599 160.008 302.984C159.648 303.365 159.216 303.656 158.711 303.859C158.206 304.057 157.635 304.156 157 304.156C156.406 304.156 155.862 304.057 155.367 303.859C154.872 303.656 154.443 303.365 154.078 302.984C153.719 302.599 153.44 302.128 153.242 301.57C153.044 301.013 152.945 300.375 152.945 299.656C152.945 298.703 153.109 297.896 153.438 297.234C153.771 296.568 154.245 296.06 154.859 295.711C155.474 295.362 156.206 295.188 157.055 295.188C157.852 295.188 158.555 295.362 159.164 295.711C159.773 296.06 160.25 296.568 160.594 297.234C160.938 297.901 161.109 298.708 161.109 299.656ZM154.836 299.656C154.836 300.286 154.911 300.826 155.062 301.273C155.219 301.721 155.458 302.065 155.781 302.305C156.104 302.539 156.521 302.656 157.031 302.656C157.542 302.656 157.958 302.539 158.281 302.305C158.604 302.065 158.841 301.721 158.992 301.273C159.143 300.826 159.219 300.286 159.219 299.656C159.219 299.026 159.143 298.492 158.992 298.055C158.841 297.612 158.604 297.276 158.281 297.047C157.958 296.812 157.539 296.695 157.023 296.695C156.263 296.695 155.708 296.951 155.359 297.461C155.01 297.971 154.836 298.703 154.836 299.656ZM164.805 300.516H163.422L163.047 292.578H165.18L164.805 300.516ZM162.953 303.031C162.953 302.604 163.062 302.305 163.281 302.133C163.505 301.956 163.779 301.867 164.102 301.867C164.419 301.867 164.69 301.956 164.914 302.133C165.138 302.305 165.25 302.604 165.25 303.031C165.25 303.448 165.138 303.75 164.914 303.938C164.69 304.12 164.419 304.211 164.102 304.211C163.779 304.211 163.505 304.12 163.281 303.938C163.062 303.75 162.953 303.448 162.953 303.031Z" fill="#D2D8DA"/>
<defs>
<linearGradient id="paint0_linear_27498_125189" x1="-270" y1="269.999" x2="479.998" y2="1020" gradientUnits="userSpaceOnUse">
<stop stop-color="#111111"/>
<stop offset="0.63" stop-color="#096258"/>
<stop offset="1" stop-color="#00B39F"/>
</linearGradient>
</defs>
</svg>
