<svg width="396" height="324" viewBox="0 0 396 324" fill="none" xmlns="http://www.w3.org/2000/svg">
<path d="M0 9.9C0 4.43238 4.43238 0 9.9 0H386.1C391.568 0 396 4.43238 396 9.9V314.1C396 319.568 391.568 324 386.1 324H9.89999C4.43237 324 0 319.568 0 314.1V9.9Z" fill="url(#paint0_linear_27368_5280)"/>
<path d="M126.352 38.6074V45.2842L132.245 41.9283L126.352 38.6074Z" fill="#00D3A9"/>
<path d="M126.352 46.6816V53.4109L132.299 50.055L126.352 46.6816Z" fill="#00D3A9"/>
<path d="M125.5 45.2495V38.6602L119.678 41.9461L125.5 45.2495Z" fill="#00B39F"/>
<path d="M113.805 53.376C114.944 55.1763 116.493 56.7144 118.327 57.8505V50.8066L113.805 53.376Z" fill="#00B39F"/>
<path d="M125.5 53.3762V46.7344L119.66 50.0553L125.5 53.3762Z" fill="#00B39F"/>
<path d="M119.174 57.4307L125.085 54.1098L119.174 50.7539V57.4307Z" fill="#00D3A9"/>
<path d="M132.712 57.4658V50.7891L126.801 54.11L132.712 57.4658Z" fill="#00B39F"/>
<path d="M138.499 52.6064C139.514 50.7537 140.083 48.7087 140.172 46.6113L134.012 50.0721L138.499 52.6064Z" fill="#00B39F"/>
<path d="M133.562 49.3565L139.509 46.0181L133.562 42.6797V49.3565Z" fill="#00D3A9"/>
<path d="M132.71 41.2298V34.6055L126.834 37.9089L132.71 41.2298Z" fill="#00B39F"/>
<path d="M132.708 49.3213V42.6445L126.814 45.9829L132.708 49.3213Z" fill="#00B39F"/>
<path d="M119.174 42.627V49.3736L125.121 45.9828L119.174 42.627Z" fill="#00D3A9"/>
<path d="M125.5 32C123.31 32.0524 121.173 32.6117 119.232 33.6255L125.5 37.1561V32Z" fill="#00B39F"/>
<path d="M119.174 34.5527V41.2645L125.121 37.9086L119.174 34.5527Z" fill="#00D3A9"/>
<path d="M118.327 34.1504C116.493 35.2865 114.944 36.8071 113.805 38.6249L118.327 41.1942V34.1679V34.1504Z" fill="#00B39F"/>
<path d="M132.672 33.6605C130.732 32.6292 128.559 32.0699 126.352 32V37.2086L132.672 33.6605Z" fill="#00D3A9"/>
<path d="M111.664 46.4902C111.735 48.6576 112.323 50.755 113.373 52.6601L117.949 50.0558L111.664 46.4902Z" fill="#00D3A9"/>
<path d="M113.373 39.3398C112.323 41.2275 111.753 43.3424 111.664 45.4923L117.949 41.9441L113.356 39.3398H113.373Z" fill="#00D3A9"/>
<path d="M119.232 58.3568C121.173 59.3706 123.31 59.9299 125.5 59.9823V54.8262L119.232 58.3393V58.3568Z" fill="#00B39F"/>
<path d="M138.049 38.6406C136.91 36.8403 135.379 35.3197 133.562 34.1836V41.1925L138.049 38.6406Z" fill="#00D3A9"/>
<path d="M133.562 57.8329C135.396 56.6968 136.928 55.1587 138.067 53.3409L133.562 50.7891V57.8504V57.8329Z" fill="#00D3A9"/>
<path d="M140.185 45.4419C140.096 43.3095 139.526 41.2296 138.493 39.3594L133.953 41.9287L140.185 45.4419Z" fill="#00B39F"/>
<path d="M126.352 59.9997C128.542 59.9473 130.678 59.388 132.619 58.3742L126.352 54.8086V59.9997Z" fill="#00D3A9"/>
<path d="M118.328 49.3041V42.6973L112.488 45.9832L118.328 49.3041Z" fill="#00B39F"/>
<path d="M231.732 40.6095V41.3578V44.663V48.7166V54.7033H247.805V51.3358H235.099V48.7166V48.0306H244.883V44.663H235.099V41.3578H247.805V37.9902H231.732V40.6095Z" fill="#E7EFF3"/>
<path d="M169.729 40.6095V41.3578V44.663V48.7166V54.7033H185.865V51.3358H173.159V48.7166V48.0306H182.942V44.663H173.159V41.3578H185.865V37.9902H169.729V40.6095Z" fill="#E7EFF3"/>
<path d="M208.163 50.338C208.163 50.9616 208.036 51.5229 207.782 52.0218C207.528 52.583 207.21 53.0196 206.829 53.3937C206.448 53.7679 205.94 54.0797 205.431 54.3292C204.86 54.5786 204.288 54.7033 203.716 54.7033H187.834V51.2111H203.716C203.97 51.2111 204.161 51.1487 204.351 50.9616C204.542 50.7745 204.606 50.5874 204.606 50.338V48.966C204.606 48.7166 204.542 48.5295 204.351 48.3424C204.161 48.1553 203.97 48.0929 203.716 48.0929H192.281C191.646 48.0929 191.074 47.9682 190.566 47.7188C189.994 47.4693 189.549 47.1575 189.168 46.7833C188.787 46.4092 188.469 45.9103 188.215 45.4114C187.961 44.9125 187.834 44.3512 187.834 43.7276V42.3556C187.834 41.732 187.961 41.1707 188.215 40.6718C188.469 40.1729 188.787 39.674 189.168 39.2998C189.549 38.9257 190.057 38.6139 190.566 38.3644C191.074 38.115 191.646 37.9902 192.281 37.9902H208.163V41.5449H192.281C192.027 41.5449 191.836 41.6073 191.646 41.7943C191.455 41.9814 191.392 42.1685 191.392 42.418V43.7899C191.392 44.0394 191.455 44.2265 191.646 44.4136C191.836 44.6006 192.027 44.663 192.281 44.663H203.716C204.351 44.663 204.923 44.7877 205.431 45.0372C205.94 45.2866 206.448 45.5984 206.829 45.9726C207.21 46.3468 207.528 46.8457 207.782 47.3446C208.036 47.9058 208.163 48.4671 208.163 49.0284V50.338Z" fill="#E7EFF3"/>
<path d="M229.573 54.7033H226.333V48.1553H213.691V54.7033H210.451V44.6006H226.333V37.9902H229.573V54.7033ZM213.691 43.0416H210.451V38.0526H213.691V43.0416Z" fill="#E7EFF3"/>
<path d="M275.821 43.8523L271.565 37.9902H267.309L274.106 48.0306V54.7033H277.537V48.0306L284.334 37.9902H280.141L275.821 43.8523Z" fill="#E7EFF3"/>
<path d="M253.587 41.1707H262.29V42.3556V43.5405V44.7254H255.302V47.9058H256.89L263.052 54.7657H267.245L261.083 47.9058H263.243C263.307 47.9058 263.37 47.9058 263.497 47.9058C264.958 47.9058 266.165 46.721 266.165 45.2866V43.5405V42.3556V40.6095C266.165 39.1751 264.958 37.9902 263.497 37.9902C263.434 37.9902 263.37 37.9902 263.243 37.9902H253.523H253.46H250.283V54.641H253.65L253.587 41.1707Z" fill="#E7EFF3"/>
<path d="M166.807 40.7971C166.108 39.1757 164.393 37.9908 162.551 38.0531H145.906V41.6078V54.7662H149.527V41.5454C154.483 41.5454 162.741 41.4831 162.932 41.6078C164.203 41.2336 163.313 54.205 163.567 54.6415H167.188C166.998 53.519 167.506 41.5454 166.807 40.7971Z" fill="#E7EFF3"/>
<path d="M158.359 43.416H154.738V54.7036H158.359V43.416Z" fill="#E7EFF3"/>
<path d="M108 86C108 83.7909 109.791 82 112 82H120C122.209 82 124 83.7909 124 86V94C124 96.2091 122.209 98 120 98H112C109.791 98 108 96.2091 108 94V86Z" fill="url(#paint1_linear_27368_5280)"/>
<path fill-rule="evenodd" clip-rule="evenodd" d="M112.921 92.002H117.537V88.8592C117.537 88.3857 117.123 88.002 116.614 88.002H111.998V91.1448C111.998 91.6182 112.411 92.002 112.921 92.002ZM118.152 90.8593L119.998 92.002V88.002L118.152 89.1449L118.152 90.8593Z" fill="white"/>
<g clip-path="url(#clip0_27368_5280)">
<path d="M142.809 95.6734H133.64C133.034 95.6734 132.458 95.3514 132.179 94.8015C131.86 94.173 131.977 93.4189 132.466 92.9239L138.846 86.4745H134.277C133.018 86.4745 132 85.4454 132 84.1728H140.447C141.053 84.1728 141.628 84.4949 141.908 85.0448C142.227 85.6732 142.11 86.4274 141.621 86.9223L135.241 93.3717H140.533C141.791 93.3717 142.809 94.4008 142.809 95.6734ZM179.1 84C177.787 84 176.605 84.5735 175.797 85.4926C174.982 84.5735 173.8 84 172.495 84C170.055 84 168.065 86.1053 168.065 88.5641V95.6734C169.324 95.6734 170.342 94.6443 170.342 93.3717V88.5405C170.342 87.3543 171.251 86.3488 172.417 86.3017C173.645 86.2546 174.663 87.2522 174.663 88.4855V93.3717C174.663 94.6443 175.681 95.6734 176.94 95.6734V88.5405C176.94 87.3543 177.849 86.3488 179.014 86.3017C180.242 86.2546 181.26 87.2522 181.26 88.4855V93.3717C181.26 94.6443 182.279 95.6734 183.537 95.6734V88.5641C183.529 86.1053 181.54 84 179.1 84ZM154.295 89.9231C154.295 93.1911 151.668 95.8463 148.436 95.8463C145.203 95.8463 142.576 93.1911 142.576 89.9231C142.576 86.6552 145.211 84 148.436 84C151.661 84 154.295 86.6552 154.295 89.9231ZM152.018 89.9231C152.018 87.9278 150.41 86.3017 148.436 86.3017C146.462 86.3017 144.853 87.9278 144.853 89.9231C144.853 91.9185 146.462 93.5446 148.436 93.5446C150.41 93.5446 152.018 91.9185 152.018 89.9231ZM166.923 89.9231C166.923 93.1911 164.296 95.8463 161.064 95.8463C157.831 95.8463 155.204 93.1911 155.204 89.9231C155.204 86.6552 157.839 84 161.064 84C164.288 84 166.923 86.6552 166.923 89.9231ZM164.646 89.9231C164.646 87.9278 163.037 86.3017 161.064 86.3017C159.09 86.3017 157.481 87.9278 157.481 89.9231C157.481 91.9185 159.09 93.5446 161.064 93.5446C163.037 93.5446 164.646 91.9185 164.646 89.9231Z" fill="#0B5CFF"/>
</g>
<path d="M200.592 89.2C201.76 89.808 202.512 90.992 202.512 92.448C202.512 94.464 201.008 96 198.976 96H193.68H193.408C193.168 96 193.04 95.872 193.04 95.632V85.184C193.04 84.944 193.168 84.8 193.408 84.8H195.232H197.696C199.6 84.8 200.992 86.096 200.992 87.824C200.992 88.32 200.848 88.8 200.592 89.2ZM197.696 86.864H195.232V88.768H198.448C198.672 88.544 198.8 88.256 198.8 87.952C198.8 87.328 198.368 86.864 197.696 86.864ZM198.704 93.936C199.792 93.936 200.32 93.232 200.32 92.32C200.32 91.424 199.792 90.704 198.72 90.704H195.232V93.936H198.704ZM207.097 87.792C208.857 87.792 210.345 88.848 210.345 90.928V95.632C210.345 95.872 210.217 96.016 209.961 96.016H208.713C208.473 96.016 208.329 95.872 208.329 95.632V95.312C207.865 95.872 207.177 96.224 206.169 96.224C204.745 96.224 203.465 95.392 203.465 93.712C203.465 92.032 204.745 91.184 206.169 91.184C207.177 91.184 207.865 91.488 208.329 91.904V91.04C208.329 90.096 207.849 89.696 207.097 89.696C206.489 89.696 206.041 89.952 205.913 90.384C205.817 90.608 205.737 90.72 205.513 90.72H204.233C203.993 90.72 203.833 90.592 203.849 90.336C204.057 88.688 205.449 87.792 207.097 87.792ZM206.857 94.704C207.769 94.704 208.329 94.288 208.329 93.712C208.329 93.088 207.769 92.72 206.857 92.72C205.961 92.72 205.529 93.136 205.529 93.712C205.529 94.288 205.961 94.704 206.857 94.704ZM219.398 93.088C219.67 93.088 219.814 93.248 219.718 93.52C219.206 95.12 217.67 96.224 215.846 96.224C213.414 96.224 211.606 94.384 211.606 92C211.606 89.632 213.414 87.792 215.846 87.792C217.67 87.792 219.206 88.896 219.718 90.496C219.814 90.752 219.67 90.928 219.398 90.928H217.974C217.766 90.928 217.622 90.832 217.51 90.656C217.174 90.128 216.566 89.824 215.846 89.824C214.614 89.824 213.67 90.736 213.67 92C213.67 93.28 214.614 94.192 215.846 94.192C216.566 94.192 217.174 93.872 217.51 93.36C217.622 93.184 217.75 93.088 217.974 93.088H219.398ZM227.98 95.552C228.172 95.792 228.076 96 227.756 96H226.236C226.044 96 225.9 95.936 225.788 95.776L223.148 92.4V95.632C223.148 95.872 223.02 96 222.78 96H221.468C221.228 96 221.084 95.872 221.084 95.632V85.184C221.084 84.944 221.228 84.8 221.468 84.8H222.78C223.02 84.8 223.148 84.944 223.148 85.184V91.52L225.628 88.24C225.74 88.08 225.884 88 226.076 88H227.612C227.916 88 228.028 88.208 227.836 88.464L225.148 91.968L227.98 95.552ZM236.594 88C236.85 88 236.978 88.144 236.978 88.384V95.632C236.978 98.256 234.898 99.424 232.898 99.424C230.962 99.424 229.154 98.448 228.914 96.624C228.898 96.368 229.058 96.224 229.298 96.224H230.61C230.834 96.224 230.946 96.352 231.026 96.56C231.202 97.12 231.842 97.584 232.898 97.584C234.178 97.584 234.962 96.88 234.962 95.632V94.784C234.386 95.52 233.522 95.984 232.322 95.984C230.178 95.984 228.418 94.144 228.418 91.888C228.418 89.632 230.178 87.792 232.322 87.792C233.522 87.792 234.386 88.256 234.962 88.992V88.384C234.962 88.144 235.106 88 235.346 88H236.594ZM232.722 94.064C234.018 94.064 234.962 93.152 234.962 91.888C234.962 90.608 234.018 89.696 232.722 89.696C231.426 89.696 230.482 90.608 230.482 91.888C230.482 93.152 231.426 94.064 232.722 94.064ZM242.722 87.888C242.978 87.84 243.106 88 243.106 88.24V89.76C243.106 90 243.01 90.128 242.818 90.128C241.842 90.128 240.914 90.64 240.914 92.064V95.632C240.914 95.872 240.786 96 240.546 96H239.234C238.994 96 238.85 95.872 238.85 95.632V88.384C238.85 88.144 238.994 88 239.234 88H240.546C240.786 88 240.914 88.144 240.914 88.384V89.216C241.266 88.4 241.922 87.984 242.722 87.888ZM247.815 96.224C245.463 96.224 243.575 94.384 243.575 92C243.575 89.632 245.463 87.792 247.815 87.792C250.151 87.792 252.039 89.632 252.039 92C252.039 94.384 250.151 96.224 247.815 96.224ZM247.815 94.208C249.031 94.208 249.975 93.296 249.975 92C249.975 90.704 249.031 89.792 247.815 89.792C246.583 89.792 245.639 90.704 245.639 92C245.639 93.296 246.583 94.208 247.815 94.208ZM259.747 88C260.003 88 260.131 88.144 260.131 88.384V95.632C260.131 95.872 260.003 96 259.747 96H258.451C258.211 96 258.067 95.872 258.067 95.632V95.184C257.619 95.856 256.883 96.224 255.891 96.224C254.403 96.224 253.299 95.072 253.299 93.12V88.384C253.299 88.144 253.427 88 253.667 88H254.979C255.219 88 255.363 88.144 255.363 88.384V92.96C255.363 93.872 255.907 94.304 256.627 94.304C257.443 94.304 258.067 93.84 258.067 92.64V88.384C258.067 88.144 258.211 88 258.451 88H259.747ZM266.246 87.792C267.734 87.792 268.854 88.928 268.854 90.896V95.632C268.854 95.872 268.71 96 268.47 96H267.158C266.918 96 266.79 95.872 266.79 95.632V91.056C266.79 90.128 266.246 89.696 265.51 89.696C264.71 89.696 264.07 90.176 264.07 91.376V95.632C264.07 95.872 263.942 96 263.686 96H262.39C262.15 96 262.006 95.872 262.006 95.632V88.384C262.006 88.144 262.15 88 262.39 88H263.686C263.942 88 264.07 88.144 264.07 88.384V88.832C264.518 88.16 265.254 87.792 266.246 87.792ZM278.282 84.8C278.538 84.8 278.666 84.944 278.666 85.184V95.632C278.666 95.872 278.538 96 278.282 96H276.986C276.746 96 276.602 95.872 276.602 95.632V95.056C276.026 95.792 275.178 96.224 274.01 96.224C271.866 96.224 270.106 94.384 270.106 92C270.106 89.632 271.866 87.792 274.01 87.792C275.178 87.792 276.026 88.224 276.602 88.96V85.184C276.602 84.944 276.746 84.8 276.986 84.8H278.282ZM274.394 94.256C275.658 94.256 276.602 93.344 276.602 92C276.602 90.656 275.658 89.744 274.394 89.744C273.114 89.744 272.17 90.656 272.17 92C272.17 93.344 273.114 94.256 274.394 94.256ZM282.361 90.336C282.361 91.728 286.681 90.592 286.681 93.68C286.681 95.392 285.209 96.224 283.433 96.224C281.801 96.224 280.409 95.456 280.233 93.856C280.201 93.6 280.361 93.456 280.601 93.456H281.881C282.105 93.456 282.185 93.584 282.281 93.792C282.425 94.208 282.857 94.4 283.433 94.4C284.201 94.4 284.617 94.144 284.617 93.68C284.617 92.304 280.297 93.408 280.297 90.336C280.297 88.64 281.769 87.792 283.433 87.792C284.937 87.792 286.297 88.544 286.489 90.16C286.521 90.416 286.361 90.56 286.121 90.56H284.841C284.617 90.56 284.521 90.432 284.425 90.208C284.313 89.808 283.913 89.6 283.433 89.6C282.777 89.6 282.361 89.872 282.361 90.336Z" fill="#FDFDFD"/>
<path d="M32.0586 135.385C31.8438 135.385 31.6562 135.371 31.4961 135.344C31.332 135.32 31.1914 135.287 31.0742 135.244V134.066C31.1992 134.098 31.334 134.125 31.4785 134.148C31.623 134.172 31.7773 134.184 31.9414 134.184C32.1562 134.184 32.3516 134.143 32.5273 134.061C32.7031 133.979 32.8418 133.83 32.9434 133.615C33.0488 133.4 33.1016 133.098 33.1016 132.707V124.434H34.5078V132.66C34.5078 133.297 34.4062 133.814 34.2031 134.213C34 134.615 33.7148 134.91 33.3477 135.098C32.9805 135.289 32.5508 135.385 32.0586 135.385ZM42.3242 129.742C42.3242 130.281 42.2539 130.76 42.1133 131.178C41.9727 131.596 41.7676 131.949 41.498 132.238C41.2285 132.523 40.9043 132.742 40.5254 132.895C40.1465 133.043 39.7188 133.117 39.2422 133.117C38.7969 133.117 38.3887 133.043 38.0176 132.895C37.6465 132.742 37.3242 132.523 37.0508 132.238C36.7812 131.949 36.5723 131.596 36.4238 131.178C36.2754 130.76 36.2012 130.281 36.2012 129.742C36.2012 129.027 36.3242 128.422 36.5703 127.926C36.8203 127.426 37.1758 127.045 37.6367 126.783C38.0977 126.521 38.6465 126.391 39.2832 126.391C39.8809 126.391 40.4082 126.521 40.8652 126.783C41.3223 127.045 41.6797 127.426 41.9375 127.926C42.1953 128.426 42.3242 129.031 42.3242 129.742ZM37.6191 129.742C37.6191 130.215 37.6758 130.619 37.7891 130.955C37.9062 131.291 38.0859 131.549 38.3281 131.729C38.5703 131.904 38.8828 131.992 39.2656 131.992C39.6484 131.992 39.9609 131.904 40.2031 131.729C40.4453 131.549 40.623 131.291 40.7363 130.955C40.8496 130.619 40.9062 130.215 40.9062 129.742C40.9062 129.27 40.8496 128.869 40.7363 128.541C40.623 128.209 40.4453 127.957 40.2031 127.785C39.9609 127.609 39.6465 127.521 39.2598 127.521C38.6895 127.521 38.2734 127.713 38.0117 128.096C37.75 128.479 37.6191 129.027 37.6191 129.742ZM45.2832 126.514V133H43.9062V126.514H45.2832ZM44.6035 124.029C44.8145 124.029 44.9961 124.086 45.1484 124.199C45.3047 124.312 45.3828 124.508 45.3828 124.785C45.3828 125.059 45.3047 125.254 45.1484 125.371C44.9961 125.484 44.8145 125.541 44.6035 125.541C44.3848 125.541 44.1992 125.484 44.0469 125.371C43.8984 125.254 43.8242 125.059 43.8242 124.785C43.8242 124.508 43.8984 124.312 44.0469 124.199C44.1992 124.086 44.3848 124.029 44.6035 124.029ZM50.6387 126.391C51.3691 126.391 51.9375 126.58 52.3438 126.959C52.7539 127.334 52.959 127.938 52.959 128.77V133H51.582V129.027C51.582 128.523 51.4785 128.146 51.2715 127.896C51.0645 127.643 50.7441 127.516 50.3105 127.516C49.6816 127.516 49.2441 127.709 48.998 128.096C48.7559 128.482 48.6348 129.043 48.6348 129.777V133H47.2578V126.514H48.3301L48.5234 127.393H48.5996C48.7402 127.166 48.9141 126.98 49.1211 126.836C49.332 126.688 49.5664 126.576 49.8242 126.502C50.0859 126.428 50.3574 126.391 50.6387 126.391ZM63.3066 132.994L62.4863 129.977C62.4473 129.828 62.4004 129.648 62.3457 129.438C62.291 129.227 62.2363 129.01 62.1816 128.787C62.127 128.561 62.0762 128.352 62.0293 128.16C61.9863 127.969 61.9531 127.82 61.9297 127.715H61.8828C61.8633 127.82 61.832 127.969 61.7891 128.16C61.7461 128.352 61.6973 128.561 61.6426 128.787C61.5879 129.014 61.5332 129.234 61.4785 129.449C61.4277 129.664 61.3809 129.848 61.3379 130L60.4766 132.994H58.9648L57.1484 126.508H58.543L59.3867 129.73C59.4414 129.949 59.4941 130.186 59.5449 130.439C59.5996 130.693 59.6465 130.936 59.6855 131.166C59.7246 131.396 59.7539 131.586 59.7734 131.734H59.8203C59.8359 131.629 59.8574 131.496 59.8848 131.336C59.9121 131.172 59.9434 131.002 59.9785 130.826C60.0137 130.646 60.0488 130.479 60.084 130.322C60.1191 130.162 60.1523 130.033 60.1836 129.936L61.1797 126.508H62.6855L63.6406 129.936C63.6836 130.084 63.7305 130.271 63.7812 130.498C63.832 130.721 63.877 130.945 63.916 131.172C63.959 131.395 63.9863 131.58 63.998 131.729H64.0449C64.0605 131.596 64.0879 131.416 64.127 131.189C64.1699 130.959 64.2188 130.715 64.2734 130.457C64.3281 130.195 64.3848 129.953 64.4434 129.73L65.3047 126.508H66.6758L64.8477 132.994H63.3066ZM70.373 126.391C70.9512 126.391 71.4473 126.51 71.8613 126.748C72.2754 126.986 72.5938 127.324 72.8164 127.762C73.0391 128.199 73.1504 128.723 73.1504 129.332V130.07H68.8203C68.8359 130.699 69.0039 131.184 69.3242 131.523C69.6484 131.863 70.1016 132.033 70.6836 132.033C71.0977 132.033 71.4688 131.994 71.7969 131.916C72.1289 131.834 72.4707 131.715 72.8223 131.559V132.678C72.498 132.83 72.168 132.941 71.832 133.012C71.4961 133.082 71.0938 133.117 70.625 133.117C69.9883 133.117 69.4277 132.994 68.9434 132.748C68.4629 132.498 68.0859 132.127 67.8125 131.635C67.543 131.143 67.4082 130.531 67.4082 129.801C67.4082 129.074 67.5312 128.457 67.7773 127.949C68.0234 127.441 68.3691 127.055 68.8145 126.789C69.2598 126.523 69.7793 126.391 70.373 126.391ZM70.373 127.428C69.9395 127.428 69.5879 127.568 69.3184 127.85C69.0527 128.131 68.8965 128.543 68.8496 129.086H71.8027C71.7988 128.762 71.7441 128.475 71.6387 128.225C71.5371 127.975 71.3809 127.779 71.1699 127.639C70.9629 127.498 70.6973 127.428 70.373 127.428ZM77.2871 126.391C77.8652 126.391 78.3613 126.51 78.7754 126.748C79.1895 126.986 79.5078 127.324 79.7305 127.762C79.9531 128.199 80.0645 128.723 80.0645 129.332V130.07H75.7344C75.75 130.699 75.918 131.184 76.2383 131.523C76.5625 131.863 77.0156 132.033 77.5977 132.033C78.0117 132.033 78.3828 131.994 78.7109 131.916C79.043 131.834 79.3848 131.715 79.7363 131.559V132.678C79.4121 132.83 79.082 132.941 78.7461 133.012C78.4102 133.082 78.0078 133.117 77.5391 133.117C76.9023 133.117 76.3418 132.994 75.8574 132.748C75.377 132.498 75 132.127 74.7266 131.635C74.457 131.143 74.3223 130.531 74.3223 129.801C74.3223 129.074 74.4453 128.457 74.6914 127.949C74.9375 127.441 75.2832 127.055 75.7285 126.789C76.1738 126.523 76.6934 126.391 77.2871 126.391ZM77.2871 127.428C76.8535 127.428 76.502 127.568 76.2324 127.85C75.9668 128.131 75.8105 128.543 75.7637 129.086H78.7168C78.7129 128.762 78.6582 128.475 78.5527 128.225C78.4512 127.975 78.2949 127.779 78.084 127.639C77.877 127.498 77.6113 127.428 77.2871 127.428ZM82.9941 123.883V128.289C82.9941 128.488 82.9863 128.707 82.9707 128.945C82.9551 129.18 82.9395 129.4 82.9238 129.607H82.9531C83.0547 129.471 83.1758 129.311 83.3164 129.127C83.4609 128.943 83.5977 128.783 83.7266 128.646L85.707 126.514H87.2891L84.6934 129.303L87.459 133H85.8418L83.7676 130.152L82.9941 130.814V133H81.6172V123.883H82.9941ZM89.8789 133H88.4961V123.883H89.8789V133ZM90.8691 126.514H92.3691L93.6992 130.217C93.7578 130.385 93.8105 130.551 93.8574 130.715C93.9082 130.875 93.9512 131.033 93.9863 131.189C94.0254 131.346 94.0566 131.502 94.0801 131.658H94.1152C94.1543 131.455 94.209 131.229 94.2793 130.979C94.3535 130.725 94.4355 130.471 94.5254 130.217L95.8027 126.514H97.2852L94.502 133.891C94.3418 134.312 94.1445 134.672 93.9102 134.969C93.6797 135.27 93.4062 135.496 93.0898 135.648C92.7734 135.805 92.4121 135.883 92.0059 135.883C91.8105 135.883 91.6406 135.871 91.4961 135.848C91.3516 135.828 91.2285 135.807 91.127 135.783V134.682C91.209 134.701 91.3125 134.719 91.4375 134.734C91.5625 134.75 91.6914 134.758 91.8242 134.758C92.0703 134.758 92.2832 134.709 92.4629 134.611C92.6426 134.514 92.7949 134.375 92.9199 134.195C93.0449 134.02 93.1484 133.818 93.2305 133.592L93.459 132.982L90.8691 126.514ZM105.225 133L102.758 125.846H102.705C102.717 126.006 102.73 126.225 102.746 126.502C102.762 126.779 102.775 127.076 102.787 127.393C102.799 127.709 102.805 128.012 102.805 128.301V133H101.527V124.434H103.502L105.875 131.271H105.91L108.365 124.434H110.334V133H108.992V128.23C108.992 127.969 108.996 127.686 109.004 127.381C109.016 127.076 109.027 126.787 109.039 126.514C109.055 126.24 109.066 126.021 109.074 125.857H109.027L106.467 133H105.225ZM115.033 126.391C115.611 126.391 116.107 126.51 116.521 126.748C116.936 126.986 117.254 127.324 117.477 127.762C117.699 128.199 117.811 128.723 117.811 129.332V130.07H113.48C113.496 130.699 113.664 131.184 113.984 131.523C114.309 131.863 114.762 132.033 115.344 132.033C115.758 132.033 116.129 131.994 116.457 131.916C116.789 131.834 117.131 131.715 117.482 131.559V132.678C117.158 132.83 116.828 132.941 116.492 133.012C116.156 133.082 115.754 133.117 115.285 133.117C114.648 133.117 114.088 132.994 113.604 132.748C113.123 132.498 112.746 132.127 112.473 131.635C112.203 131.143 112.068 130.531 112.068 129.801C112.068 129.074 112.191 128.457 112.438 127.949C112.684 127.441 113.029 127.055 113.475 126.789C113.92 126.523 114.439 126.391 115.033 126.391ZM115.033 127.428C114.6 127.428 114.248 127.568 113.979 127.85C113.713 128.131 113.557 128.543 113.51 129.086H116.463C116.459 128.762 116.404 128.475 116.299 128.225C116.197 127.975 116.041 127.779 115.83 127.639C115.623 127.498 115.357 127.428 115.033 127.428ZM123.723 131.148C123.723 131.574 123.619 131.934 123.412 132.227C123.205 132.52 122.902 132.742 122.504 132.895C122.109 133.043 121.625 133.117 121.051 133.117C120.598 133.117 120.207 133.084 119.879 133.018C119.555 132.955 119.248 132.857 118.959 132.725V131.535C119.268 131.68 119.613 131.805 119.996 131.91C120.383 132.016 120.748 132.068 121.092 132.068C121.545 132.068 121.871 131.998 122.07 131.857C122.27 131.713 122.369 131.521 122.369 131.283C122.369 131.143 122.328 131.018 122.246 130.908C122.168 130.795 122.02 130.68 121.801 130.562C121.586 130.441 121.27 130.297 120.852 130.129C120.441 129.965 120.096 129.801 119.814 129.637C119.533 129.473 119.32 129.275 119.176 129.045C119.031 128.811 118.959 128.512 118.959 128.148C118.959 127.574 119.186 127.139 119.639 126.842C120.096 126.541 120.699 126.391 121.449 126.391C121.848 126.391 122.223 126.432 122.574 126.514C122.93 126.592 123.277 126.707 123.617 126.859L123.184 127.896C122.891 127.768 122.596 127.662 122.299 127.58C122.006 127.494 121.707 127.451 121.402 127.451C121.047 127.451 120.775 127.506 120.588 127.615C120.404 127.725 120.312 127.881 120.312 128.084C120.312 128.236 120.357 128.365 120.447 128.471C120.537 128.576 120.691 128.682 120.91 128.787C121.133 128.893 121.441 129.023 121.836 129.18C122.223 129.328 122.557 129.484 122.838 129.648C123.123 129.809 123.342 130.006 123.494 130.24C123.646 130.475 123.723 130.777 123.723 131.148ZM126.588 123.883V126.174C126.588 126.412 126.58 126.645 126.564 126.871C126.553 127.098 126.539 127.273 126.523 127.398H126.6C126.736 127.172 126.904 126.986 127.104 126.842C127.303 126.693 127.525 126.582 127.771 126.508C128.021 126.434 128.287 126.396 128.568 126.396C129.064 126.396 129.486 126.48 129.834 126.648C130.182 126.812 130.447 127.068 130.631 127.416C130.818 127.764 130.912 128.215 130.912 128.77V133H129.535V129.027C129.535 128.523 129.432 128.146 129.225 127.896C129.018 127.643 128.697 127.516 128.264 127.516C127.846 127.516 127.514 127.604 127.268 127.779C127.025 127.951 126.852 128.207 126.746 128.547C126.641 128.883 126.588 129.293 126.588 129.777V133H125.211V123.883H126.588ZM135.424 126.391C136.002 126.391 136.498 126.51 136.912 126.748C137.326 126.986 137.645 127.324 137.867 127.762C138.09 128.199 138.201 128.723 138.201 129.332V130.07H133.871C133.887 130.699 134.055 131.184 134.375 131.523C134.699 131.863 135.152 132.033 135.734 132.033C136.148 132.033 136.52 131.994 136.848 131.916C137.18 131.834 137.521 131.715 137.873 131.559V132.678C137.549 132.83 137.219 132.941 136.883 133.012C136.547 133.082 136.145 133.117 135.676 133.117C135.039 133.117 134.479 132.994 133.994 132.748C133.514 132.498 133.137 132.127 132.863 131.635C132.594 131.143 132.459 130.531 132.459 129.801C132.459 129.074 132.582 128.457 132.828 127.949C133.074 127.441 133.42 127.055 133.865 126.789C134.311 126.523 134.83 126.391 135.424 126.391ZM135.424 127.428C134.99 127.428 134.639 127.568 134.369 127.85C134.104 128.131 133.947 128.543 133.9 129.086H136.854C136.85 128.762 136.795 128.475 136.689 128.225C136.588 127.975 136.432 127.779 136.221 127.639C136.014 127.498 135.748 127.428 135.424 127.428ZM143.041 126.391C143.15 126.391 143.27 126.396 143.398 126.408C143.527 126.42 143.639 126.436 143.732 126.455L143.604 127.744C143.521 127.721 143.42 127.703 143.299 127.691C143.182 127.68 143.076 127.674 142.982 127.674C142.736 127.674 142.502 127.715 142.279 127.797C142.057 127.875 141.859 127.996 141.688 128.16C141.516 128.32 141.381 128.521 141.283 128.764C141.186 129.006 141.137 129.287 141.137 129.607V133H139.754V126.514H140.832L141.02 127.656H141.084C141.213 127.426 141.373 127.215 141.564 127.023C141.756 126.832 141.975 126.68 142.221 126.566C142.471 126.449 142.744 126.391 143.041 126.391ZM143.955 126.514H145.455L146.785 130.217C146.844 130.385 146.896 130.551 146.943 130.715C146.994 130.875 147.037 131.033 147.072 131.189C147.111 131.346 147.143 131.502 147.166 131.658H147.201C147.24 131.455 147.295 131.229 147.365 130.979C147.439 130.725 147.521 130.471 147.611 130.217L148.889 126.514H150.371L147.588 133.891C147.428 134.312 147.23 134.672 146.996 134.969C146.766 135.27 146.492 135.496 146.176 135.648C145.859 135.805 145.498 135.883 145.092 135.883C144.896 135.883 144.727 135.871 144.582 135.848C144.438 135.828 144.314 135.807 144.213 135.783V134.682C144.295 134.701 144.398 134.719 144.523 134.734C144.648 134.75 144.777 134.758 144.91 134.758C145.156 134.758 145.369 134.709 145.549 134.611C145.729 134.514 145.881 134.375 146.006 134.195C146.131 134.02 146.234 133.818 146.316 133.592L146.545 132.982L143.955 126.514ZM161.803 126.391C162.529 126.391 163.076 126.578 163.443 126.953C163.814 127.328 164 127.93 164 128.758V133H162.623V129.004C162.623 128.512 162.527 128.141 162.336 127.891C162.145 127.641 161.854 127.516 161.463 127.516C160.916 127.516 160.521 127.691 160.279 128.043C160.041 128.391 159.922 128.896 159.922 129.561V133H158.545V129.004C158.545 128.676 158.502 128.402 158.416 128.184C158.334 127.961 158.207 127.795 158.035 127.686C157.863 127.572 157.646 127.516 157.385 127.516C157.006 127.516 156.703 127.602 156.477 127.773C156.254 127.945 156.094 128.199 155.996 128.535C155.898 128.867 155.85 129.275 155.85 129.76V133H154.473V126.514H155.545L155.738 127.387H155.814C155.947 127.16 156.111 126.975 156.307 126.83C156.506 126.682 156.727 126.572 156.969 126.502C157.211 126.428 157.463 126.391 157.725 126.391C158.209 126.391 158.617 126.477 158.949 126.648C159.281 126.816 159.529 127.074 159.693 127.422H159.799C160.002 127.07 160.285 126.811 160.648 126.643C161.012 126.475 161.396 126.391 161.803 126.391ZM168.506 126.391C169.084 126.391 169.58 126.51 169.994 126.748C170.408 126.986 170.727 127.324 170.949 127.762C171.172 128.199 171.283 128.723 171.283 129.332V130.07H166.953C166.969 130.699 167.137 131.184 167.457 131.523C167.781 131.863 168.234 132.033 168.816 132.033C169.23 132.033 169.602 131.994 169.93 131.916C170.262 131.834 170.604 131.715 170.955 131.559V132.678C170.631 132.83 170.301 132.941 169.965 133.012C169.629 133.082 169.227 133.117 168.758 133.117C168.121 133.117 167.561 132.994 167.076 132.748C166.596 132.498 166.219 132.127 165.945 131.635C165.676 131.143 165.541 130.531 165.541 129.801C165.541 129.074 165.664 128.457 165.91 127.949C166.156 127.441 166.502 127.055 166.947 126.789C167.393 126.523 167.912 126.391 168.506 126.391ZM168.506 127.428C168.072 127.428 167.721 127.568 167.451 127.85C167.186 128.131 167.029 128.543 166.982 129.086H169.936C169.932 128.762 169.877 128.475 169.771 128.225C169.67 127.975 169.514 127.779 169.303 127.639C169.096 127.498 168.83 127.428 168.506 127.428ZM175.42 126.391C175.998 126.391 176.494 126.51 176.908 126.748C177.322 126.986 177.641 127.324 177.863 127.762C178.086 128.199 178.197 128.723 178.197 129.332V130.07H173.867C173.883 130.699 174.051 131.184 174.371 131.523C174.695 131.863 175.148 132.033 175.73 132.033C176.145 132.033 176.516 131.994 176.844 131.916C177.176 131.834 177.518 131.715 177.869 131.559V132.678C177.545 132.83 177.215 132.941 176.879 133.012C176.543 133.082 176.141 133.117 175.672 133.117C175.035 133.117 174.475 132.994 173.99 132.748C173.51 132.498 173.133 132.127 172.859 131.635C172.59 131.143 172.455 130.531 172.455 129.801C172.455 129.074 172.578 128.457 172.824 127.949C173.07 127.441 173.416 127.055 173.861 126.789C174.307 126.523 174.826 126.391 175.42 126.391ZM175.42 127.428C174.986 127.428 174.635 127.568 174.365 127.85C174.1 128.131 173.943 128.543 173.896 129.086H176.85C176.846 128.762 176.791 128.475 176.686 128.225C176.584 127.975 176.428 127.779 176.217 127.639C176.01 127.498 175.744 127.428 175.42 127.428ZM182.164 132.004C182.344 132.004 182.521 131.988 182.697 131.957C182.873 131.922 183.033 131.881 183.178 131.834V132.877C183.025 132.943 182.828 133 182.586 133.047C182.344 133.094 182.092 133.117 181.83 133.117C181.463 133.117 181.133 133.057 180.84 132.936C180.547 132.811 180.314 132.598 180.143 132.297C179.971 131.996 179.885 131.58 179.885 131.049V127.562H179V126.947L179.949 126.461L180.4 125.072H181.268V126.514H183.125V127.562H181.268V131.031C181.268 131.359 181.35 131.604 181.514 131.764C181.678 131.924 181.895 132.004 182.164 132.004ZM185.873 126.514V133H184.496V126.514H185.873ZM185.193 124.029C185.404 124.029 185.586 124.086 185.738 124.199C185.895 124.312 185.973 124.508 185.973 124.785C185.973 125.059 185.895 125.254 185.738 125.371C185.586 125.484 185.404 125.541 185.193 125.541C184.975 125.541 184.789 125.484 184.637 125.371C184.488 125.254 184.414 125.059 184.414 124.785C184.414 124.508 184.488 124.312 184.637 124.199C184.789 124.086 184.975 124.029 185.193 124.029ZM191.229 126.391C191.959 126.391 192.527 126.58 192.934 126.959C193.344 127.334 193.549 127.938 193.549 128.77V133H192.172V129.027C192.172 128.523 192.068 128.146 191.861 127.896C191.654 127.643 191.334 127.516 190.9 127.516C190.271 127.516 189.834 127.709 189.588 128.096C189.346 128.482 189.225 129.043 189.225 129.777V133H187.848V126.514H188.92L189.113 127.393H189.189C189.33 127.166 189.504 126.98 189.711 126.836C189.922 126.688 190.156 126.576 190.414 126.502C190.676 126.428 190.947 126.391 191.229 126.391ZM197.328 135.883C196.449 135.883 195.775 135.725 195.307 135.408C194.838 135.092 194.604 134.648 194.604 134.078C194.604 133.68 194.729 133.342 194.979 133.064C195.229 132.791 195.586 132.602 196.051 132.496C195.875 132.418 195.723 132.297 195.594 132.133C195.469 131.965 195.406 131.779 195.406 131.576C195.406 131.334 195.475 131.127 195.611 130.955C195.748 130.783 195.953 130.617 196.227 130.457C195.887 130.312 195.613 130.078 195.406 129.754C195.203 129.426 195.102 129.041 195.102 128.6C195.102 128.131 195.201 127.732 195.4 127.404C195.6 127.072 195.891 126.82 196.273 126.648C196.656 126.473 197.119 126.385 197.662 126.385C197.779 126.385 197.906 126.393 198.043 126.408C198.184 126.42 198.312 126.436 198.43 126.455C198.551 126.471 198.643 126.488 198.705 126.508H200.949V127.275L199.848 127.48C199.953 127.629 200.037 127.799 200.1 127.99C200.162 128.178 200.193 128.383 200.193 128.605C200.193 129.277 199.961 129.807 199.496 130.193C199.035 130.576 198.398 130.768 197.586 130.768C197.391 130.76 197.201 130.744 197.018 130.721C196.877 130.807 196.77 130.902 196.695 131.008C196.621 131.109 196.584 131.225 196.584 131.354C196.584 131.459 196.621 131.545 196.695 131.611C196.77 131.674 196.879 131.721 197.023 131.752C197.172 131.783 197.352 131.799 197.562 131.799H198.682C199.393 131.799 199.936 131.949 200.311 132.25C200.686 132.551 200.873 132.992 200.873 133.574C200.873 134.312 200.568 134.881 199.959 135.279C199.35 135.682 198.473 135.883 197.328 135.883ZM197.381 134.916C197.861 134.916 198.266 134.869 198.594 134.775C198.922 134.682 199.17 134.547 199.338 134.371C199.506 134.199 199.59 133.994 199.59 133.756C199.59 133.545 199.537 133.383 199.432 133.27C199.326 133.156 199.168 133.078 198.957 133.035C198.746 132.992 198.484 132.971 198.172 132.971H197.152C196.898 132.971 196.674 133.01 196.479 133.088C196.283 133.17 196.131 133.287 196.021 133.439C195.916 133.592 195.863 133.775 195.863 133.99C195.863 134.287 195.994 134.516 196.256 134.676C196.521 134.836 196.896 134.916 197.381 134.916ZM197.65 129.865C198.053 129.865 198.352 129.756 198.547 129.537C198.742 129.314 198.84 129.002 198.84 128.6C198.84 128.162 198.738 127.834 198.535 127.615C198.336 127.396 198.039 127.287 197.645 127.287C197.258 127.287 196.963 127.398 196.76 127.621C196.561 127.844 196.461 128.174 196.461 128.611C196.461 129.006 196.561 129.314 196.76 129.537C196.963 129.756 197.26 129.865 197.65 129.865ZM207.863 133.117C207.25 133.117 206.719 132.998 206.27 132.76C205.82 132.521 205.475 132.156 205.232 131.664C204.99 131.172 204.869 130.547 204.869 129.789C204.869 129 205.002 128.355 205.268 127.855C205.533 127.355 205.9 126.986 206.369 126.748C206.842 126.51 207.383 126.391 207.992 126.391C208.379 126.391 208.729 126.43 209.041 126.508C209.357 126.582 209.625 126.674 209.844 126.783L209.434 127.885C209.195 127.787 208.951 127.705 208.701 127.639C208.451 127.572 208.211 127.539 207.98 127.539C207.602 127.539 207.285 127.623 207.031 127.791C206.781 127.959 206.594 128.209 206.469 128.541C206.348 128.873 206.287 129.285 206.287 129.777C206.287 130.254 206.35 130.656 206.475 130.984C206.6 131.309 206.785 131.555 207.031 131.723C207.277 131.887 207.58 131.969 207.939 131.969C208.295 131.969 208.613 131.926 208.895 131.84C209.176 131.754 209.441 131.643 209.691 131.506V132.701C209.445 132.842 209.182 132.945 208.9 133.012C208.619 133.082 208.273 133.117 207.863 133.117ZM213.758 126.391C214.578 126.391 215.197 126.572 215.615 126.936C216.037 127.299 216.248 127.865 216.248 128.635V133H215.27L215.006 132.08H214.959C214.775 132.314 214.586 132.508 214.391 132.66C214.195 132.812 213.969 132.926 213.711 133C213.457 133.078 213.146 133.117 212.779 133.117C212.393 133.117 212.047 133.047 211.742 132.906C211.438 132.762 211.197 132.543 211.021 132.25C210.846 131.957 210.758 131.586 210.758 131.137C210.758 130.469 211.006 129.967 211.502 129.631C212.002 129.295 212.756 129.109 213.764 129.074L214.889 129.033V128.693C214.889 128.244 214.783 127.924 214.572 127.732C214.365 127.541 214.072 127.445 213.693 127.445C213.369 127.445 213.055 127.492 212.75 127.586C212.445 127.68 212.148 127.795 211.859 127.932L211.414 126.959C211.73 126.791 212.09 126.654 212.492 126.549C212.898 126.443 213.32 126.391 213.758 126.391ZM214.883 129.9L214.045 129.93C213.357 129.953 212.875 130.07 212.598 130.281C212.32 130.492 212.182 130.781 212.182 131.148C212.182 131.469 212.277 131.703 212.469 131.852C212.66 131.996 212.912 132.068 213.225 132.068C213.701 132.068 214.096 131.934 214.408 131.664C214.725 131.391 214.883 130.99 214.883 130.463V129.9ZM219.559 133H218.176V123.883H219.559V133ZM222.91 133H221.527V123.883H222.91V133ZM229.238 131.148C229.238 131.574 229.135 131.934 228.928 132.227C228.721 132.52 228.418 132.742 228.02 132.895C227.625 133.043 227.141 133.117 226.566 133.117C226.113 133.117 225.723 133.084 225.395 133.018C225.07 132.955 224.764 132.857 224.475 132.725V131.535C224.783 131.68 225.129 131.805 225.512 131.91C225.898 132.016 226.264 132.068 226.607 132.068C227.061 132.068 227.387 131.998 227.586 131.857C227.785 131.713 227.885 131.521 227.885 131.283C227.885 131.143 227.844 131.018 227.762 130.908C227.684 130.795 227.535 130.68 227.316 130.562C227.102 130.441 226.785 130.297 226.367 130.129C225.957 129.965 225.611 129.801 225.33 129.637C225.049 129.473 224.836 129.275 224.691 129.045C224.547 128.811 224.475 128.512 224.475 128.148C224.475 127.574 224.701 127.139 225.154 126.842C225.611 126.541 226.215 126.391 226.965 126.391C227.363 126.391 227.738 126.432 228.09 126.514C228.445 126.592 228.793 126.707 229.133 126.859L228.699 127.896C228.406 127.768 228.111 127.662 227.814 127.58C227.521 127.494 227.223 127.451 226.918 127.451C226.562 127.451 226.291 127.506 226.104 127.615C225.92 127.725 225.828 127.881 225.828 128.084C225.828 128.236 225.873 128.365 225.963 128.471C226.053 128.576 226.207 128.682 226.426 128.787C226.648 128.893 226.957 129.023 227.352 129.18C227.738 129.328 228.072 129.484 228.354 129.648C228.639 129.809 228.857 130.006 229.01 130.24C229.162 130.475 229.238 130.777 229.238 131.148ZM239.146 132.994L238.326 129.977C238.287 129.828 238.24 129.648 238.186 129.438C238.131 129.227 238.076 129.01 238.021 128.787C237.967 128.561 237.916 128.352 237.869 128.16C237.826 127.969 237.793 127.82 237.77 127.715H237.723C237.703 127.82 237.672 127.969 237.629 128.16C237.586 128.352 237.537 128.561 237.482 128.787C237.428 129.014 237.373 129.234 237.318 129.449C237.268 129.664 237.221 129.848 237.178 130L236.316 132.994H234.805L232.988 126.508H234.383L235.227 129.73C235.281 129.949 235.334 130.186 235.385 130.439C235.439 130.693 235.486 130.936 235.525 131.166C235.564 131.396 235.594 131.586 235.613 131.734H235.66C235.676 131.629 235.697 131.496 235.725 131.336C235.752 131.172 235.783 131.002 235.818 130.826C235.854 130.646 235.889 130.479 235.924 130.322C235.959 130.162 235.992 130.033 236.023 129.936L237.02 126.508H238.525L239.48 129.936C239.523 130.084 239.57 130.271 239.621 130.498C239.672 130.721 239.717 130.945 239.756 131.172C239.799 131.395 239.826 131.58 239.838 131.729H239.885C239.9 131.596 239.928 131.416 239.967 131.189C240.01 130.959 240.059 130.715 240.113 130.457C240.168 130.195 240.225 129.953 240.283 129.73L241.145 126.508H242.516L240.688 132.994H239.146ZM245.006 126.514V133H243.629V126.514H245.006ZM244.326 124.029C244.537 124.029 244.719 124.086 244.871 124.199C245.027 124.312 245.105 124.508 245.105 124.785C245.105 125.059 245.027 125.254 244.871 125.371C244.719 125.484 244.537 125.541 244.326 125.541C244.107 125.541 243.922 125.484 243.77 125.371C243.621 125.254 243.547 125.059 243.547 124.785C243.547 124.508 243.621 124.312 243.77 124.199C243.922 124.086 244.107 124.029 244.326 124.029ZM249.395 132.004C249.574 132.004 249.752 131.988 249.928 131.957C250.104 131.922 250.264 131.881 250.408 131.834V132.877C250.256 132.943 250.059 133 249.816 133.047C249.574 133.094 249.322 133.117 249.061 133.117C248.693 133.117 248.363 133.057 248.07 132.936C247.777 132.811 247.545 132.598 247.373 132.297C247.201 131.996 247.115 131.58 247.115 131.049V127.562H246.23V126.947L247.18 126.461L247.631 125.072H248.498V126.514H250.355V127.562H248.498V131.031C248.498 131.359 248.58 131.604 248.744 131.764C248.908 131.924 249.125 132.004 249.395 132.004ZM253.104 123.883V126.174C253.104 126.412 253.096 126.645 253.08 126.871C253.068 127.098 253.055 127.273 253.039 127.398H253.115C253.252 127.172 253.42 126.986 253.619 126.842C253.818 126.693 254.041 126.582 254.287 126.508C254.537 126.434 254.803 126.396 255.084 126.396C255.58 126.396 256.002 126.48 256.35 126.648C256.697 126.812 256.963 127.068 257.146 127.416C257.334 127.764 257.428 128.215 257.428 128.77V133H256.051V129.027C256.051 128.523 255.947 128.146 255.74 127.896C255.533 127.643 255.213 127.516 254.779 127.516C254.361 127.516 254.029 127.604 253.783 127.779C253.541 127.951 253.367 128.207 253.262 128.547C253.156 128.883 253.104 129.293 253.104 129.777V133H251.727V123.883H253.104ZM268.215 129.742C268.215 130.281 268.145 130.76 268.004 131.178C267.863 131.596 267.658 131.949 267.389 132.238C267.119 132.523 266.795 132.742 266.416 132.895C266.037 133.043 265.609 133.117 265.133 133.117C264.688 133.117 264.279 133.043 263.908 132.895C263.537 132.742 263.215 132.523 262.941 132.238C262.672 131.949 262.463 131.596 262.314 131.178C262.166 130.76 262.092 130.281 262.092 129.742C262.092 129.027 262.215 128.422 262.461 127.926C262.711 127.426 263.066 127.045 263.527 126.783C263.988 126.521 264.537 126.391 265.174 126.391C265.771 126.391 266.299 126.521 266.756 126.783C267.213 127.045 267.57 127.426 267.828 127.926C268.086 128.426 268.215 129.031 268.215 129.742ZM263.51 129.742C263.51 130.215 263.566 130.619 263.68 130.955C263.797 131.291 263.977 131.549 264.219 131.729C264.461 131.904 264.773 131.992 265.156 131.992C265.539 131.992 265.852 131.904 266.094 131.729C266.336 131.549 266.514 131.291 266.627 130.955C266.74 130.619 266.797 130.215 266.797 129.742C266.797 129.27 266.74 128.869 266.627 128.541C266.514 128.209 266.336 127.957 266.094 127.785C265.852 127.609 265.537 127.521 265.15 127.521C264.58 127.521 264.164 127.713 263.902 128.096C263.641 128.479 263.51 129.027 263.51 129.742ZM275.451 126.514V133H274.367L274.18 132.127H274.104C273.967 132.35 273.793 132.535 273.582 132.684C273.371 132.828 273.137 132.936 272.879 133.006C272.621 133.08 272.35 133.117 272.064 133.117C271.576 133.117 271.158 133.035 270.811 132.871C270.467 132.703 270.203 132.445 270.02 132.098C269.836 131.75 269.744 131.301 269.744 130.75V126.514H271.127V130.492C271.127 130.996 271.229 131.373 271.432 131.623C271.639 131.873 271.959 131.998 272.393 131.998C272.811 131.998 273.143 131.912 273.389 131.74C273.635 131.568 273.809 131.314 273.91 130.979C274.016 130.643 274.068 130.23 274.068 129.742V126.514H275.451ZM280.713 126.391C280.822 126.391 280.941 126.396 281.07 126.408C281.199 126.42 281.311 126.436 281.404 126.455L281.275 127.744C281.193 127.721 281.092 127.703 280.971 127.691C280.854 127.68 280.748 127.674 280.654 127.674C280.408 127.674 280.174 127.715 279.951 127.797C279.729 127.875 279.531 127.996 279.359 128.16C279.188 128.32 279.053 128.521 278.955 128.764C278.857 129.006 278.809 129.287 278.809 129.607V133H277.426V126.514H278.504L278.691 127.656H278.756C278.885 127.426 279.045 127.215 279.236 127.023C279.428 126.832 279.646 126.68 279.893 126.566C280.143 126.449 280.416 126.391 280.713 126.391ZM288.336 133.117C287.723 133.117 287.191 132.998 286.742 132.76C286.293 132.521 285.947 132.156 285.705 131.664C285.463 131.172 285.342 130.547 285.342 129.789C285.342 129 285.475 128.355 285.74 127.855C286.006 127.355 286.373 126.986 286.842 126.748C287.314 126.51 287.855 126.391 288.465 126.391C288.852 126.391 289.201 126.43 289.514 126.508C289.83 126.582 290.098 126.674 290.316 126.783L289.906 127.885C289.668 127.787 289.424 127.705 289.174 127.639C288.924 127.572 288.684 127.539 288.453 127.539C288.074 127.539 287.758 127.623 287.504 127.791C287.254 127.959 287.066 128.209 286.941 128.541C286.82 128.873 286.76 129.285 286.76 129.777C286.76 130.254 286.822 130.656 286.947 130.984C287.072 131.309 287.258 131.555 287.504 131.723C287.75 131.887 288.053 131.969 288.412 131.969C288.768 131.969 289.086 131.926 289.367 131.84C289.648 131.754 289.914 131.643 290.164 131.506V132.701C289.918 132.842 289.654 132.945 289.373 133.012C289.092 133.082 288.746 133.117 288.336 133.117ZM297.342 126.514V133H296.258L296.07 132.127H295.994C295.857 132.35 295.684 132.535 295.473 132.684C295.262 132.828 295.027 132.936 294.77 133.006C294.512 133.08 294.24 133.117 293.955 133.117C293.467 133.117 293.049 133.035 292.701 132.871C292.357 132.703 292.094 132.445 291.91 132.098C291.727 131.75 291.635 131.301 291.635 130.75V126.514H293.018V130.492C293.018 130.996 293.119 131.373 293.322 131.623C293.529 131.873 293.85 131.998 294.283 131.998C294.701 131.998 295.033 131.912 295.279 131.74C295.525 131.568 295.699 131.314 295.801 130.979C295.906 130.643 295.959 130.23 295.959 129.742V126.514H297.342ZM303.676 131.148C303.676 131.574 303.572 131.934 303.365 132.227C303.158 132.52 302.855 132.742 302.457 132.895C302.062 133.043 301.578 133.117 301.004 133.117C300.551 133.117 300.16 133.084 299.832 133.018C299.508 132.955 299.201 132.857 298.912 132.725V131.535C299.221 131.68 299.566 131.805 299.949 131.91C300.336 132.016 300.701 132.068 301.045 132.068C301.498 132.068 301.824 131.998 302.023 131.857C302.223 131.713 302.322 131.521 302.322 131.283C302.322 131.143 302.281 131.018 302.199 130.908C302.121 130.795 301.973 130.68 301.754 130.562C301.539 130.441 301.223 130.297 300.805 130.129C300.395 129.965 300.049 129.801 299.768 129.637C299.486 129.473 299.273 129.275 299.129 129.045C298.984 128.811 298.912 128.512 298.912 128.148C298.912 127.574 299.139 127.139 299.592 126.842C300.049 126.541 300.652 126.391 301.402 126.391C301.801 126.391 302.176 126.432 302.527 126.514C302.883 126.592 303.23 126.707 303.57 126.859L303.137 127.896C302.844 127.768 302.549 127.662 302.252 127.58C301.959 127.494 301.66 127.451 301.355 127.451C301 127.451 300.729 127.506 300.541 127.615C300.357 127.725 300.266 127.881 300.266 128.084C300.266 128.236 300.311 128.365 300.4 128.471C300.49 128.576 300.645 128.682 300.863 128.787C301.086 128.893 301.395 129.023 301.789 129.18C302.176 129.328 302.51 129.484 302.791 129.648C303.076 129.809 303.295 130.006 303.447 130.24C303.6 130.475 303.676 130.777 303.676 131.148ZM307.578 132.004C307.758 132.004 307.936 131.988 308.111 131.957C308.287 131.922 308.447 131.881 308.592 131.834V132.877C308.439 132.943 308.242 133 308 133.047C307.758 133.094 307.506 133.117 307.244 133.117C306.877 133.117 306.547 133.057 306.254 132.936C305.961 132.811 305.729 132.598 305.557 132.297C305.385 131.996 305.299 131.58 305.299 131.049V127.562H304.414V126.947L305.363 126.461L305.814 125.072H306.682V126.514H308.539V127.562H306.682V131.031C306.682 131.359 306.764 131.604 306.928 131.764C307.092 131.924 307.309 132.004 307.578 132.004ZM315.652 129.742C315.652 130.281 315.582 130.76 315.441 131.178C315.301 131.596 315.096 131.949 314.826 132.238C314.557 132.523 314.232 132.742 313.854 132.895C313.475 133.043 313.047 133.117 312.57 133.117C312.125 133.117 311.717 133.043 311.346 132.895C310.975 132.742 310.652 132.523 310.379 132.238C310.109 131.949 309.9 131.596 309.752 131.178C309.604 130.76 309.529 130.281 309.529 129.742C309.529 129.027 309.652 128.422 309.898 127.926C310.148 127.426 310.504 127.045 310.965 126.783C311.426 126.521 311.975 126.391 312.611 126.391C313.209 126.391 313.736 126.521 314.193 126.783C314.65 127.045 315.008 127.426 315.266 127.926C315.523 128.426 315.652 129.031 315.652 129.742ZM310.947 129.742C310.947 130.215 311.004 130.619 311.117 130.955C311.234 131.291 311.414 131.549 311.656 131.729C311.898 131.904 312.211 131.992 312.594 131.992C312.977 131.992 313.289 131.904 313.531 131.729C313.773 131.549 313.951 131.291 314.064 130.955C314.178 130.619 314.234 130.215 314.234 129.742C314.234 129.27 314.178 128.869 314.064 128.541C313.951 128.209 313.773 127.957 313.531 127.785C313.289 127.609 312.975 127.521 312.588 127.521C312.018 127.521 311.602 127.713 311.34 128.096C311.078 128.479 310.947 129.027 310.947 129.742ZM324.564 126.391C325.291 126.391 325.838 126.578 326.205 126.953C326.576 127.328 326.762 127.93 326.762 128.758V133H325.385V129.004C325.385 128.512 325.289 128.141 325.098 127.891C324.906 127.641 324.615 127.516 324.225 127.516C323.678 127.516 323.283 127.691 323.041 128.043C322.803 128.391 322.684 128.896 322.684 129.561V133H321.307V129.004C321.307 128.676 321.264 128.402 321.178 128.184C321.096 127.961 320.969 127.795 320.797 127.686C320.625 127.572 320.408 127.516 320.146 127.516C319.768 127.516 319.465 127.602 319.238 127.773C319.016 127.945 318.855 128.199 318.758 128.535C318.66 128.867 318.611 129.275 318.611 129.76V133H317.234V126.514H318.307L318.5 127.387H318.576C318.709 127.16 318.873 126.975 319.068 126.83C319.268 126.682 319.488 126.572 319.73 126.502C319.973 126.428 320.225 126.391 320.486 126.391C320.971 126.391 321.379 126.477 321.711 126.648C322.043 126.816 322.291 127.074 322.455 127.422H322.561C322.764 127.07 323.047 126.811 323.41 126.643C323.773 126.475 324.158 126.391 324.564 126.391ZM330.061 126.514V133H328.684V126.514H330.061ZM329.381 124.029C329.592 124.029 329.773 124.086 329.926 124.199C330.082 124.312 330.16 124.508 330.16 124.785C330.16 125.059 330.082 125.254 329.926 125.371C329.773 125.484 329.592 125.541 329.381 125.541C329.162 125.541 328.977 125.484 328.824 125.371C328.676 125.254 328.602 125.059 328.602 124.785C328.602 124.508 328.676 124.312 328.824 124.199C328.977 124.086 329.162 124.029 329.381 124.029ZM336.377 133H331.449V132.15L334.725 127.574H331.648V126.514H336.283V127.451L333.072 131.939H336.377V133ZM340.361 126.391C340.939 126.391 341.436 126.51 341.85 126.748C342.264 126.986 342.582 127.324 342.805 127.762C343.027 128.199 343.139 128.723 343.139 129.332V130.07H338.809C338.824 130.699 338.992 131.184 339.312 131.523C339.637 131.863 340.09 132.033 340.672 132.033C341.086 132.033 341.457 131.994 341.785 131.916C342.117 131.834 342.459 131.715 342.811 131.559V132.678C342.486 132.83 342.156 132.941 341.82 133.012C341.484 133.082 341.082 133.117 340.613 133.117C339.977 133.117 339.416 132.994 338.932 132.748C338.451 132.498 338.074 132.127 337.801 131.635C337.531 131.143 337.396 130.531 337.396 129.801C337.396 129.074 337.52 128.457 337.766 127.949C338.012 127.441 338.357 127.055 338.803 126.789C339.248 126.523 339.768 126.391 340.361 126.391ZM340.361 127.428C339.928 127.428 339.576 127.568 339.307 127.85C339.041 128.131 338.885 128.543 338.838 129.086H341.791C341.787 128.762 341.732 128.475 341.627 128.225C341.525 127.975 341.369 127.779 341.158 127.639C340.951 127.498 340.686 127.428 340.361 127.428ZM346.871 133.117C346.098 133.117 345.477 132.836 345.008 132.273C344.543 131.707 344.311 130.873 344.311 129.771C344.311 128.658 344.547 127.816 345.02 127.246C345.496 126.676 346.123 126.391 346.9 126.391C347.229 126.391 347.516 126.436 347.762 126.525C348.008 126.611 348.219 126.729 348.395 126.877C348.574 127.025 348.727 127.191 348.852 127.375H348.916C348.896 127.254 348.873 127.08 348.846 126.854C348.822 126.623 348.811 126.41 348.811 126.215V123.883H350.193V133H349.115L348.869 132.115H348.811C348.693 132.303 348.545 132.473 348.365 132.625C348.189 132.773 347.979 132.893 347.732 132.982C347.49 133.072 347.203 133.117 346.871 133.117ZM347.258 131.998C347.848 131.998 348.264 131.828 348.506 131.488C348.748 131.148 348.873 130.639 348.881 129.959V129.777C348.881 129.051 348.764 128.494 348.529 128.107C348.295 127.717 347.867 127.521 347.246 127.521C346.75 127.521 346.371 127.723 346.109 128.125C345.852 128.523 345.723 129.08 345.723 129.795C345.723 130.51 345.852 131.057 346.109 131.436C346.371 131.811 346.754 131.998 347.258 131.998ZM38.5332 149H32.375V148.033L36.7344 141.629H32.5098V140.434H38.416V141.395L34.0566 147.805H38.5332V149ZM45.6406 145.742C45.6406 146.281 45.5703 146.76 45.4297 147.178C45.2891 147.596 45.084 147.949 44.8145 148.238C44.5449 148.523 44.2207 148.742 43.8418 148.895C43.4629 149.043 43.0352 149.117 42.5586 149.117C42.1133 149.117 41.7051 149.043 41.334 148.895C40.9629 148.742 40.6406 148.523 40.3672 148.238C40.0977 147.949 39.8887 147.596 39.7402 147.178C39.5918 146.76 39.5176 146.281 39.5176 145.742C39.5176 145.027 39.6406 144.422 39.8867 143.926C40.1367 143.426 40.4922 143.045 40.9531 142.783C41.4141 142.521 41.9629 142.391 42.5996 142.391C43.1973 142.391 43.7246 142.521 44.1816 142.783C44.6387 143.045 44.9961 143.426 45.2539 143.926C45.5117 144.426 45.6406 145.031 45.6406 145.742ZM40.9355 145.742C40.9355 146.215 40.9922 146.619 41.1055 146.955C41.2227 147.291 41.4023 147.549 41.6445 147.729C41.8867 147.904 42.1992 147.992 42.582 147.992C42.9648 147.992 43.2773 147.904 43.5195 147.729C43.7617 147.549 43.9395 147.291 44.0527 146.955C44.166 146.619 44.2227 146.215 44.2227 145.742C44.2227 145.27 44.166 144.869 44.0527 144.541C43.9395 144.209 43.7617 143.957 43.5195 143.785C43.2773 143.609 42.9629 143.521 42.5762 143.521C42.0059 143.521 41.5898 143.713 41.3281 144.096C41.0664 144.479 40.9355 145.027 40.9355 145.742ZM52.9648 145.742C52.9648 146.281 52.8945 146.76 52.7539 147.178C52.6133 147.596 52.4082 147.949 52.1387 148.238C51.8691 148.523 51.5449 148.742 51.166 148.895C50.7871 149.043 50.3594 149.117 49.8828 149.117C49.4375 149.117 49.0293 149.043 48.6582 148.895C48.2871 148.742 47.9648 148.523 47.6914 148.238C47.4219 147.949 47.2129 147.596 47.0645 147.178C46.916 146.76 46.8418 146.281 46.8418 145.742C46.8418 145.027 46.9648 144.422 47.2109 143.926C47.4609 143.426 47.8164 143.045 48.2773 142.783C48.7383 142.521 49.2871 142.391 49.9238 142.391C50.5215 142.391 51.0488 142.521 51.5059 142.783C51.9629 143.045 52.3203 143.426 52.5781 143.926C52.8359 144.426 52.9648 145.031 52.9648 145.742ZM48.2598 145.742C48.2598 146.215 48.3164 146.619 48.4297 146.955C48.5469 147.291 48.7266 147.549 48.9688 147.729C49.2109 147.904 49.5234 147.992 49.9062 147.992C50.2891 147.992 50.6016 147.904 50.8438 147.729C51.0859 147.549 51.2637 147.291 51.377 146.955C51.4902 146.619 51.5469 146.215 51.5469 145.742C51.5469 145.27 51.4902 144.869 51.377 144.541C51.2637 144.209 51.0859 143.957 50.8438 143.785C50.6016 143.609 50.2871 143.521 49.9004 143.521C49.3301 143.521 48.9141 143.713 48.6523 144.096C48.3906 144.479 48.2598 145.027 48.2598 145.742ZM61.877 142.391C62.6035 142.391 63.1504 142.578 63.5176 142.953C63.8887 143.328 64.0742 143.93 64.0742 144.758V149H62.6973V145.004C62.6973 144.512 62.6016 144.141 62.4102 143.891C62.2188 143.641 61.9277 143.516 61.5371 143.516C60.9902 143.516 60.5957 143.691 60.3535 144.043C60.1152 144.391 59.9961 144.896 59.9961 145.561V149H58.6191V145.004C58.6191 144.676 58.5762 144.402 58.4902 144.184C58.4082 143.961 58.2812 143.795 58.1094 143.686C57.9375 143.572 57.7207 143.516 57.459 143.516C57.0801 143.516 56.7773 143.602 56.5508 143.773C56.3281 143.945 56.168 144.199 56.0703 144.535C55.9727 144.867 55.9238 145.275 55.9238 145.76V149H54.5469V142.514H55.6191L55.8125 143.387H55.8887C56.0215 143.16 56.1855 142.975 56.3809 142.83C56.5801 142.682 56.8008 142.572 57.043 142.502C57.2852 142.428 57.5371 142.391 57.7988 142.391C58.2832 142.391 58.6914 142.477 59.0234 142.648C59.3555 142.816 59.6035 143.074 59.7676 143.422H59.873C60.0762 143.07 60.3594 142.811 60.7227 142.643C61.0859 142.475 61.4707 142.391 61.877 142.391ZM76.4434 142.391C77.1699 142.391 77.7168 142.578 78.084 142.953C78.4551 143.328 78.6406 143.93 78.6406 144.758V149H77.2637V145.004C77.2637 144.512 77.168 144.141 76.9766 143.891C76.7852 143.641 76.4941 143.516 76.1035 143.516C75.5566 143.516 75.1621 143.691 74.9199 144.043C74.6816 144.391 74.5625 144.896 74.5625 145.561V149H73.1855V145.004C73.1855 144.676 73.1426 144.402 73.0566 144.184C72.9746 143.961 72.8477 143.795 72.6758 143.686C72.5039 143.572 72.2871 143.516 72.0254 143.516C71.6465 143.516 71.3438 143.602 71.1172 143.773C70.8945 143.945 70.7344 144.199 70.6367 144.535C70.5391 144.867 70.4902 145.275 70.4902 145.76V149H69.1133V142.514H70.1855L70.3789 143.387H70.4551C70.5879 143.16 70.752 142.975 70.9473 142.83C71.1465 142.682 71.3672 142.572 71.6094 142.502C71.8516 142.428 72.1035 142.391 72.3652 142.391C72.8496 142.391 73.2578 142.477 73.5898 142.648C73.9219 142.816 74.1699 143.074 74.334 143.422H74.4395C74.6426 143.07 74.9258 142.811 75.2891 142.643C75.6523 142.475 76.0371 142.391 76.4434 142.391ZM83.1465 142.391C83.7246 142.391 84.2207 142.51 84.6348 142.748C85.0488 142.986 85.3672 143.324 85.5898 143.762C85.8125 144.199 85.9238 144.723 85.9238 145.332V146.07H81.5938C81.6094 146.699 81.7773 147.184 82.0977 147.523C82.4219 147.863 82.875 148.033 83.457 148.033C83.8711 148.033 84.2422 147.994 84.5703 147.916C84.9023 147.834 85.2441 147.715 85.5957 147.559V148.678C85.2715 148.83 84.9414 148.941 84.6055 149.012C84.2695 149.082 83.8672 149.117 83.3984 149.117C82.7617 149.117 82.2012 148.994 81.7168 148.748C81.2363 148.498 80.8594 148.127 80.5859 147.635C80.3164 147.143 80.1816 146.531 80.1816 145.801C80.1816 145.074 80.3047 144.457 80.5508 143.949C80.7969 143.441 81.1426 143.055 81.5879 142.789C82.0332 142.523 82.5527 142.391 83.1465 142.391ZM83.1465 143.428C82.7129 143.428 82.3613 143.568 82.0918 143.85C81.8262 144.131 81.6699 144.543 81.623 145.086H84.5762C84.5723 144.762 84.5176 144.475 84.4121 144.225C84.3105 143.975 84.1543 143.779 83.9434 143.639C83.7363 143.498 83.4707 143.428 83.1465 143.428ZM90.0605 142.391C90.6387 142.391 91.1348 142.51 91.5488 142.748C91.9629 142.986 92.2812 143.324 92.5039 143.762C92.7266 144.199 92.8379 144.723 92.8379 145.332V146.07H88.5078C88.5234 146.699 88.6914 147.184 89.0117 147.523C89.3359 147.863 89.7891 148.033 90.3711 148.033C90.7852 148.033 91.1562 147.994 91.4844 147.916C91.8164 147.834 92.1582 147.715 92.5098 147.559V148.678C92.1855 148.83 91.8555 148.941 91.5195 149.012C91.1836 149.082 90.7812 149.117 90.3125 149.117C89.6758 149.117 89.1152 148.994 88.6309 148.748C88.1504 148.498 87.7734 148.127 87.5 147.635C87.2305 147.143 87.0957 146.531 87.0957 145.801C87.0957 145.074 87.2188 144.457 87.4648 143.949C87.7109 143.441 88.0566 143.055 88.502 142.789C88.9473 142.523 89.4668 142.391 90.0605 142.391ZM90.0605 143.428C89.627 143.428 89.2754 143.568 89.0059 143.85C88.7402 144.131 88.584 144.543 88.5371 145.086H91.4902C91.4863 144.762 91.4316 144.475 91.3262 144.225C91.2246 143.975 91.0684 143.779 90.8574 143.639C90.6504 143.498 90.3848 143.428 90.0605 143.428ZM96.8047 148.004C96.9844 148.004 97.1621 147.988 97.3379 147.957C97.5137 147.922 97.6738 147.881 97.8184 147.834V148.877C97.666 148.943 97.4688 149 97.2266 149.047C96.9844 149.094 96.7324 149.117 96.4707 149.117C96.1035 149.117 95.7734 149.057 95.4805 148.936C95.1875 148.811 94.9551 148.598 94.7832 148.297C94.6113 147.996 94.5254 147.58 94.5254 147.049V143.562H93.6406V142.947L94.5898 142.461L95.041 141.072H95.9082V142.514H97.7656V143.562H95.9082V147.031C95.9082 147.359 95.9902 147.604 96.1543 147.764C96.3184 147.924 96.5352 148.004 96.8047 148.004ZM100.514 142.514V149H99.1367V142.514H100.514ZM99.834 140.029C100.045 140.029 100.227 140.086 100.379 140.199C100.535 140.312 100.613 140.508 100.613 140.785C100.613 141.059 100.535 141.254 100.379 141.371C100.227 141.484 100.045 141.541 99.834 141.541C99.6152 141.541 99.4297 141.484 99.2773 141.371C99.1289 141.254 99.0547 141.059 99.0547 140.785C99.0547 140.508 99.1289 140.312 99.2773 140.199C99.4297 140.086 99.6152 140.029 99.834 140.029ZM105.869 142.391C106.6 142.391 107.168 142.58 107.574 142.959C107.984 143.334 108.189 143.938 108.189 144.77V149H106.812V145.027C106.812 144.523 106.709 144.146 106.502 143.896C106.295 143.643 105.975 143.516 105.541 143.516C104.912 143.516 104.475 143.709 104.229 144.096C103.986 144.482 103.865 145.043 103.865 145.777V149H102.488V142.514H103.561L103.754 143.393H103.83C103.971 143.166 104.145 142.98 104.352 142.836C104.562 142.688 104.797 142.576 105.055 142.502C105.316 142.428 105.588 142.391 105.869 142.391ZM111.969 151.883C111.09 151.883 110.416 151.725 109.947 151.408C109.479 151.092 109.244 150.648 109.244 150.078C109.244 149.68 109.369 149.342 109.619 149.064C109.869 148.791 110.227 148.602 110.691 148.496C110.516 148.418 110.363 148.297 110.234 148.133C110.109 147.965 110.047 147.779 110.047 147.576C110.047 147.334 110.115 147.127 110.252 146.955C110.389 146.783 110.594 146.617 110.867 146.457C110.527 146.312 110.254 146.078 110.047 145.754C109.844 145.426 109.742 145.041 109.742 144.6C109.742 144.131 109.842 143.732 110.041 143.404C110.24 143.072 110.531 142.82 110.914 142.648C111.297 142.473 111.76 142.385 112.303 142.385C112.42 142.385 112.547 142.393 112.684 142.408C112.824 142.42 112.953 142.436 113.07 142.455C113.191 142.471 113.283 142.488 113.346 142.508H115.59V143.275L114.488 143.48C114.594 143.629 114.678 143.799 114.74 143.99C114.803 144.178 114.834 144.383 114.834 144.605C114.834 145.277 114.602 145.807 114.137 146.193C113.676 146.576 113.039 146.768 112.227 146.768C112.031 146.76 111.842 146.744 111.658 146.721C111.518 146.807 111.41 146.902 111.336 147.008C111.262 147.109 111.225 147.225 111.225 147.354C111.225 147.459 111.262 147.545 111.336 147.611C111.41 147.674 111.52 147.721 111.664 147.752C111.812 147.783 111.992 147.799 112.203 147.799H113.322C114.033 147.799 114.576 147.949 114.951 148.25C115.326 148.551 115.514 148.992 115.514 149.574C115.514 150.312 115.209 150.881 114.6 151.279C113.99 151.682 113.113 151.883 111.969 151.883ZM112.021 150.916C112.502 150.916 112.906 150.869 113.234 150.775C113.562 150.682 113.811 150.547 113.979 150.371C114.146 150.199 114.23 149.994 114.23 149.756C114.23 149.545 114.178 149.383 114.072 149.27C113.967 149.156 113.809 149.078 113.598 149.035C113.387 148.992 113.125 148.971 112.812 148.971H111.793C111.539 148.971 111.314 149.01 111.119 149.088C110.924 149.17 110.771 149.287 110.662 149.439C110.557 149.592 110.504 149.775 110.504 149.99C110.504 150.287 110.635 150.516 110.896 150.676C111.162 150.836 111.537 150.916 112.021 150.916ZM112.291 145.865C112.693 145.865 112.992 145.756 113.188 145.537C113.383 145.314 113.48 145.002 113.48 144.6C113.48 144.162 113.379 143.834 113.176 143.615C112.977 143.396 112.68 143.287 112.285 143.287C111.898 143.287 111.604 143.398 111.4 143.621C111.201 143.844 111.102 144.174 111.102 144.611C111.102 145.006 111.201 145.314 111.4 145.537C111.604 145.756 111.9 145.865 112.291 145.865ZM121.268 139.883V142.08C121.268 142.334 121.26 142.584 121.244 142.83C121.232 143.072 121.221 143.262 121.209 143.398H121.268C121.443 143.117 121.688 142.881 122 142.689C122.316 142.494 122.721 142.396 123.213 142.396C123.982 142.396 124.602 142.68 125.07 143.246C125.539 143.809 125.773 144.643 125.773 145.748C125.773 146.482 125.666 147.1 125.451 147.6C125.236 148.1 124.934 148.479 124.543 148.736C124.156 148.99 123.701 149.117 123.178 149.117C122.686 149.117 122.287 149.027 121.982 148.848C121.682 148.664 121.445 148.451 121.273 148.209H121.174L120.922 149H119.891V139.883H121.268ZM122.85 143.516C122.459 143.516 122.148 143.594 121.918 143.75C121.691 143.906 121.527 144.141 121.426 144.453C121.324 144.762 121.271 145.154 121.268 145.631V145.754C121.268 146.477 121.381 147.029 121.607 147.412C121.838 147.795 122.256 147.986 122.861 147.986C123.342 147.986 123.711 147.793 123.969 147.406C124.227 147.016 124.355 146.457 124.355 145.73C124.355 144.996 124.227 144.443 123.969 144.072C123.715 143.701 123.342 143.516 122.85 143.516ZM129.91 142.391C130.73 142.391 131.35 142.572 131.768 142.936C132.189 143.299 132.4 143.865 132.4 144.635V149H131.422L131.158 148.08H131.111C130.928 148.314 130.738 148.508 130.543 148.66C130.348 148.812 130.121 148.926 129.863 149C129.609 149.078 129.299 149.117 128.932 149.117C128.545 149.117 128.199 149.047 127.895 148.906C127.59 148.762 127.35 148.543 127.174 148.25C126.998 147.957 126.91 147.586 126.91 147.137C126.91 146.469 127.158 145.967 127.654 145.631C128.154 145.295 128.908 145.109 129.916 145.074L131.041 145.033V144.693C131.041 144.244 130.936 143.924 130.725 143.732C130.518 143.541 130.225 143.445 129.846 143.445C129.521 143.445 129.207 143.492 128.902 143.586C128.598 143.68 128.301 143.795 128.012 143.932L127.566 142.959C127.883 142.791 128.242 142.654 128.645 142.549C129.051 142.443 129.473 142.391 129.91 142.391ZM131.035 145.9L130.197 145.93C129.51 145.953 129.027 146.07 128.75 146.281C128.473 146.492 128.334 146.781 128.334 147.148C128.334 147.469 128.43 147.703 128.621 147.852C128.812 147.996 129.064 148.068 129.377 148.068C129.854 148.068 130.248 147.934 130.561 147.664C130.877 147.391 131.035 146.99 131.035 146.463V145.9ZM136.941 149.117C136.328 149.117 135.797 148.998 135.348 148.76C134.898 148.521 134.553 148.156 134.311 147.664C134.068 147.172 133.947 146.547 133.947 145.789C133.947 145 134.08 144.355 134.346 143.855C134.611 143.355 134.979 142.986 135.447 142.748C135.92 142.51 136.461 142.391 137.07 142.391C137.457 142.391 137.807 142.43 138.119 142.508C138.436 142.582 138.703 142.674 138.922 142.783L138.512 143.885C138.273 143.787 138.029 143.705 137.779 143.639C137.529 143.572 137.289 143.539 137.059 143.539C136.68 143.539 136.363 143.623 136.109 143.791C135.859 143.959 135.672 144.209 135.547 144.541C135.426 144.873 135.365 145.285 135.365 145.777C135.365 146.254 135.428 146.656 135.553 146.984C135.678 147.309 135.863 147.555 136.109 147.723C136.355 147.887 136.658 147.969 137.018 147.969C137.373 147.969 137.691 147.926 137.973 147.84C138.254 147.754 138.52 147.643 138.77 147.506V148.701C138.523 148.842 138.26 148.945 137.979 149.012C137.697 149.082 137.352 149.117 136.941 149.117ZM141.67 139.883V144.289C141.67 144.488 141.662 144.707 141.646 144.945C141.631 145.18 141.615 145.4 141.6 145.607H141.629C141.73 145.471 141.852 145.311 141.992 145.127C142.137 144.943 142.273 144.783 142.402 144.646L144.383 142.514H145.965L143.369 145.303L146.135 149H144.518L142.443 146.152L141.67 146.814V149H140.293V139.883H141.67ZM149.023 151.883C148.145 151.883 147.471 151.725 147.002 151.408C146.533 151.092 146.299 150.648 146.299 150.078C146.299 149.68 146.424 149.342 146.674 149.064C146.924 148.791 147.281 148.602 147.746 148.496C147.57 148.418 147.418 148.297 147.289 148.133C147.164 147.965 147.102 147.779 147.102 147.576C147.102 147.334 147.17 147.127 147.307 146.955C147.443 146.783 147.648 146.617 147.922 146.457C147.582 146.312 147.309 146.078 147.102 145.754C146.898 145.426 146.797 145.041 146.797 144.6C146.797 144.131 146.896 143.732 147.096 143.404C147.295 143.072 147.586 142.82 147.969 142.648C148.352 142.473 148.814 142.385 149.357 142.385C149.475 142.385 149.602 142.393 149.738 142.408C149.879 142.42 150.008 142.436 150.125 142.455C150.246 142.471 150.338 142.488 150.4 142.508H152.645V143.275L151.543 143.48C151.648 143.629 151.732 143.799 151.795 143.99C151.857 144.178 151.889 144.383 151.889 144.605C151.889 145.277 151.656 145.807 151.191 146.193C150.73 146.576 150.094 146.768 149.281 146.768C149.086 146.76 148.896 146.744 148.713 146.721C148.572 146.807 148.465 146.902 148.391 147.008C148.316 147.109 148.279 147.225 148.279 147.354C148.279 147.459 148.316 147.545 148.391 147.611C148.465 147.674 148.574 147.721 148.719 147.752C148.867 147.783 149.047 147.799 149.258 147.799H150.377C151.088 147.799 151.631 147.949 152.006 148.25C152.381 148.551 152.568 148.992 152.568 149.574C152.568 150.312 152.264 150.881 151.654 151.279C151.045 151.682 150.168 151.883 149.023 151.883ZM149.076 150.916C149.557 150.916 149.961 150.869 150.289 150.775C150.617 150.682 150.865 150.547 151.033 150.371C151.201 150.199 151.285 149.994 151.285 149.756C151.285 149.545 151.232 149.383 151.127 149.27C151.021 149.156 150.863 149.078 150.652 149.035C150.441 148.992 150.18 148.971 149.867 148.971H148.848C148.594 148.971 148.369 149.01 148.174 149.088C147.979 149.17 147.826 149.287 147.717 149.439C147.611 149.592 147.559 149.775 147.559 149.99C147.559 150.287 147.689 150.516 147.951 150.676C148.217 150.836 148.592 150.916 149.076 150.916ZM149.346 145.865C149.748 145.865 150.047 145.756 150.242 145.537C150.438 145.314 150.535 145.002 150.535 144.6C150.535 144.162 150.434 143.834 150.23 143.615C150.031 143.396 149.734 143.287 149.34 143.287C148.953 143.287 148.658 143.398 148.455 143.621C148.256 143.844 148.156 144.174 148.156 144.611C148.156 145.006 148.256 145.314 148.455 145.537C148.658 145.756 148.955 145.865 149.346 145.865ZM157.115 142.391C157.225 142.391 157.344 142.396 157.473 142.408C157.602 142.42 157.713 142.436 157.807 142.455L157.678 143.744C157.596 143.721 157.494 143.703 157.373 143.691C157.256 143.68 157.15 143.674 157.057 143.674C156.811 143.674 156.576 143.715 156.354 143.797C156.131 143.875 155.934 143.996 155.762 144.16C155.59 144.32 155.455 144.521 155.357 144.764C155.26 145.006 155.211 145.287 155.211 145.607V149H153.828V142.514H154.906L155.094 143.656H155.158C155.287 143.426 155.447 143.215 155.639 143.023C155.83 142.832 156.049 142.68 156.295 142.566C156.545 142.449 156.818 142.391 157.115 142.391ZM164.75 145.742C164.75 146.281 164.68 146.76 164.539 147.178C164.398 147.596 164.193 147.949 163.924 148.238C163.654 148.523 163.33 148.742 162.951 148.895C162.572 149.043 162.145 149.117 161.668 149.117C161.223 149.117 160.814 149.043 160.443 148.895C160.072 148.742 159.75 148.523 159.477 148.238C159.207 147.949 158.998 147.596 158.85 147.178C158.701 146.76 158.627 146.281 158.627 145.742C158.627 145.027 158.75 144.422 158.996 143.926C159.246 143.426 159.602 143.045 160.062 142.783C160.523 142.521 161.072 142.391 161.709 142.391C162.307 142.391 162.834 142.521 163.291 142.783C163.748 143.045 164.105 143.426 164.363 143.926C164.621 144.426 164.75 145.031 164.75 145.742ZM160.045 145.742C160.045 146.215 160.102 146.619 160.215 146.955C160.332 147.291 160.512 147.549 160.754 147.729C160.996 147.904 161.309 147.992 161.691 147.992C162.074 147.992 162.387 147.904 162.629 147.729C162.871 147.549 163.049 147.291 163.162 146.955C163.275 146.619 163.332 146.215 163.332 145.742C163.332 145.27 163.275 144.869 163.162 144.541C163.049 144.209 162.871 143.957 162.629 143.785C162.387 143.609 162.072 143.521 161.686 143.521C161.115 143.521 160.699 143.713 160.438 144.096C160.176 144.479 160.045 145.027 160.045 145.742ZM171.986 142.514V149H170.902L170.715 148.127H170.639C170.502 148.35 170.328 148.535 170.117 148.684C169.906 148.828 169.672 148.936 169.414 149.006C169.156 149.08 168.885 149.117 168.6 149.117C168.111 149.117 167.693 149.035 167.346 148.871C167.002 148.703 166.738 148.445 166.555 148.098C166.371 147.75 166.279 147.301 166.279 146.75V142.514H167.662V146.492C167.662 146.996 167.764 147.373 167.967 147.623C168.174 147.873 168.494 147.998 168.928 147.998C169.346 147.998 169.678 147.912 169.924 147.74C170.17 147.568 170.344 147.314 170.445 146.979C170.551 146.643 170.604 146.23 170.604 145.742V142.514H171.986ZM177.342 142.391C178.072 142.391 178.641 142.58 179.047 142.959C179.457 143.334 179.662 143.938 179.662 144.77V149H178.285V145.027C178.285 144.523 178.182 144.146 177.975 143.896C177.768 143.643 177.447 143.516 177.014 143.516C176.385 143.516 175.947 143.709 175.701 144.096C175.459 144.482 175.338 145.043 175.338 145.777V149H173.961V142.514H175.033L175.227 143.393H175.303C175.443 143.166 175.617 142.98 175.824 142.836C176.035 142.688 176.27 142.576 176.527 142.502C176.789 142.428 177.061 142.391 177.342 142.391ZM183.77 149.117C182.996 149.117 182.375 148.836 181.906 148.273C181.441 147.707 181.209 146.873 181.209 145.771C181.209 144.658 181.445 143.816 181.918 143.246C182.395 142.676 183.021 142.391 183.799 142.391C184.127 142.391 184.414 142.436 184.66 142.525C184.906 142.611 185.117 142.729 185.293 142.877C185.473 143.025 185.625 143.191 185.75 143.375H185.814C185.795 143.254 185.771 143.08 185.744 142.854C185.721 142.623 185.709 142.41 185.709 142.215V139.883H187.092V149H186.014L185.768 148.115H185.709C185.592 148.303 185.443 148.473 185.264 148.625C185.088 148.773 184.877 148.893 184.631 148.982C184.389 149.072 184.102 149.117 183.77 149.117ZM184.156 147.998C184.746 147.998 185.162 147.828 185.404 147.488C185.646 147.148 185.771 146.639 185.779 145.959V145.777C185.779 145.051 185.662 144.494 185.428 144.107C185.193 143.717 184.766 143.521 184.145 143.521C183.648 143.521 183.27 143.723 183.008 144.125C182.75 144.523 182.621 145.08 182.621 145.795C182.621 146.51 182.75 147.057 183.008 147.436C183.27 147.811 183.652 147.998 184.156 147.998ZM193.426 147.148C193.426 147.574 193.322 147.934 193.115 148.227C192.908 148.52 192.605 148.742 192.207 148.895C191.812 149.043 191.328 149.117 190.754 149.117C190.301 149.117 189.91 149.084 189.582 149.018C189.258 148.955 188.951 148.857 188.662 148.725V147.535C188.971 147.68 189.316 147.805 189.699 147.91C190.086 148.016 190.451 148.068 190.795 148.068C191.248 148.068 191.574 147.998 191.773 147.857C191.973 147.713 192.072 147.521 192.072 147.283C192.072 147.143 192.031 147.018 191.949 146.908C191.871 146.795 191.723 146.68 191.504 146.562C191.289 146.441 190.973 146.297 190.555 146.129C190.145 145.965 189.799 145.801 189.518 145.637C189.236 145.473 189.023 145.275 188.879 145.045C188.734 144.811 188.662 144.512 188.662 144.148C188.662 143.574 188.889 143.139 189.342 142.842C189.799 142.541 190.402 142.391 191.152 142.391C191.551 142.391 191.926 142.432 192.277 142.514C192.633 142.592 192.98 142.707 193.32 142.859L192.887 143.896C192.594 143.768 192.299 143.662 192.002 143.58C191.709 143.494 191.41 143.451 191.105 143.451C190.75 143.451 190.479 143.506 190.291 143.615C190.107 143.725 190.016 143.881 190.016 144.084C190.016 144.236 190.061 144.365 190.15 144.471C190.24 144.576 190.395 144.682 190.613 144.787C190.836 144.893 191.145 145.023 191.539 145.18C191.926 145.328 192.26 145.484 192.541 145.648C192.826 145.809 193.045 146.006 193.197 146.24C193.35 146.475 193.426 146.777 193.426 147.148ZM194.715 148.273C194.715 147.953 194.797 147.729 194.961 147.6C195.129 147.467 195.332 147.4 195.57 147.4C195.809 147.4 196.012 147.467 196.18 147.6C196.352 147.729 196.438 147.953 196.438 148.273C196.438 148.586 196.352 148.812 196.18 148.953C196.012 149.09 195.809 149.158 195.57 149.158C195.332 149.158 195.129 149.09 194.961 148.953C194.797 148.812 194.715 148.586 194.715 148.273Z" fill="#D2D8DA"/>
<g clip-path="url(#clip1_27368_5280)">
<path d="M245.042 215.186C238.216 215.186 231.686 216.857 226.047 219.644C225.454 228.561 220.111 236.642 212.395 240.822C224.266 244.444 234.061 252.246 239.7 262.278H282.735C284.516 262.278 286 260.884 286 259.212V253.361C286 232.462 267.599 215.186 245.042 215.186Z" fill="#00B39F"/>
<path d="M150.958 215.186C128.401 215.186 110 232.462 110 253.639V259.491C110 261.163 111.484 262.556 113.265 262.556H156.597C162.236 252.525 172.03 244.723 183.902 241.1C175.889 236.642 170.546 228.839 169.953 219.644C164.017 216.857 157.784 215.186 150.958 215.186Z" fill="#00B39F"/>
<path d="M197.852 197.631C185.683 197.631 175.889 206.826 175.889 218.251C175.889 229.676 185.683 238.871 197.852 238.871C210.02 238.871 219.814 229.676 219.814 218.251C219.814 206.826 210.02 197.631 197.852 197.631Z" fill="#00D3A9"/>
<path d="M197.85 244.723C175.294 244.723 156.893 261.999 156.893 283.177V289.028C156.893 290.7 158.377 292.093 160.157 292.093H235.544C237.324 292.093 238.808 290.7 238.808 289.028V283.177C238.808 261.72 220.407 244.723 197.85 244.723Z" fill="#00D3A9"/>
<path d="M245.041 168.094C232.872 168.094 223.078 177.289 223.078 188.714C223.078 200.139 232.872 209.334 245.041 209.334C257.21 209.334 267.004 200.139 267.004 188.714C267.004 177.289 257.21 168.094 245.041 168.094Z" fill="#00B39F"/>
<path d="M150.957 168.094C138.788 168.094 128.994 177.289 128.994 188.714C128.994 200.139 138.788 209.334 150.957 209.334C163.126 209.334 172.92 200.139 172.92 188.714C172.92 177.289 162.829 168.094 150.957 168.094Z" fill="#00B39F"/>
</g>
<defs>
<linearGradient id="paint0_linear_27368_5280" x1="-111.375" y1="161.999" x2="308.784" y2="450.86" gradientUnits="userSpaceOnUse">
<stop stop-color="#111111"/>
<stop offset="0.63" stop-color="#096258"/>
<stop offset="1" stop-color="#00B39F"/>
</linearGradient>
<linearGradient id="paint1_linear_27368_5280" x1="110.667" y1="95.6667" x2="121.333" y2="84.6667" gradientUnits="userSpaceOnUse">
<stop stop-color="#0B5CFF"/>
<stop offset="1" stop-color="#2196F3"/>
</linearGradient>
<clipPath id="clip0_27368_5280">
<rect width="52" height="12" fill="white" transform="translate(132 84)"/>
</clipPath>
<clipPath id="clip1_27368_5280">
<rect width="176" height="124" fill="white" transform="translate(110 168)"/>
</clipPath>
</defs>
</svg>
