<svg width="960" height="540" viewBox="0 0 960 540" fill="none" xmlns="http://www.w3.org/2000/svg">
<path d="M0 24C0 10.7452 10.7452 0 24 0H936C949.255 0 960 10.7452 960 24V516C960 529.255 949.255 540 936 540H24C10.7451 540 0 529.255 0 516V24Z" fill="url(#paint0_linear_26975_9295)"/>
<g clip-path="url(#clip0_26975_9295)">
<path d="M819.467 251.68C802.711 251.68 786.684 255.779 772.843 262.61C771.386 284.471 758.273 304.282 739.332 314.529C768.472 323.41 792.512 342.538 806.354 367.131H911.986C916.357 367.131 920 363.716 920 359.617V345.271C920 294.035 874.833 251.68 819.467 251.68Z" fill="#00B39F"/>
<path d="M588.533 251.68C533.167 251.68 488 294.035 488 345.954V360.3C488 364.399 491.642 367.815 496.013 367.815H602.374C616.216 343.221 640.256 324.093 669.396 315.212C649.727 304.282 636.614 285.154 635.157 262.61C620.587 255.779 605.288 251.68 588.533 251.68Z" fill="#00B39F"/>
<path d="M703.635 208.641C673.767 208.641 649.727 231.184 649.727 259.193C649.727 287.202 673.767 309.746 703.635 309.746C733.504 309.746 757.544 287.202 757.544 259.193C757.544 231.184 733.504 208.641 703.635 208.641Z" fill="#00D3A9"/>
<path d="M703.636 324.094C648.27 324.094 603.104 366.449 603.104 418.368V432.714C603.104 436.813 606.746 440.229 611.117 440.229H796.156C800.527 440.229 804.169 436.813 804.169 432.714V418.368C804.169 365.766 759.002 324.094 703.636 324.094Z" fill="#00D3A9"/>
<path d="M819.468 136.229C789.599 136.229 765.559 158.772 765.559 186.781C765.559 214.79 789.599 237.334 819.468 237.334C849.336 237.334 873.376 214.79 873.376 186.781C873.376 158.772 849.336 136.229 819.468 136.229Z" fill="#00B39F"/>
<path d="M588.532 136.229C558.664 136.229 534.623 158.772 534.623 186.781C534.623 214.79 558.664 237.334 588.532 237.334C618.4 237.334 642.441 214.79 642.441 186.781C642.441 158.772 617.672 136.229 588.532 136.229Z" fill="#00B39F"/>
</g>
<path d="M101.768 80.9883V98.1568L116.922 89.5276L101.768 80.9883Z" fill="#00D3A9"/>
<path d="M101.768 101.752V119.055L117.06 110.426L101.768 101.752Z" fill="#00D3A9"/>
<path d="M99.5789 98.0688V81.125L84.6074 89.5744L99.5789 98.0688Z" fill="#00B39F"/>
<path d="M69.5039 118.966C72.4341 123.595 76.4174 127.55 81.1332 130.472V112.359L69.5039 118.966Z" fill="#00B39F"/>
<path d="M99.5759 118.967V101.889L84.5586 110.428L99.5759 118.967Z" fill="#00B39F"/>
<path d="M83.3105 129.393L98.5109 120.854L83.3105 112.225V129.393Z" fill="#00D3A9"/>
<path d="M118.122 129.483V112.314L102.922 120.854L118.122 129.483Z" fill="#00B39F"/>
<path d="M133.002 116.988C135.612 112.224 137.077 106.966 137.306 101.572L121.465 110.471L133.002 116.988Z" fill="#00B39F"/>
<path d="M120.311 108.629L135.603 100.045L120.311 91.4609V108.629Z" fill="#00D3A9"/>
<path d="M118.115 87.731V70.6973L103.006 79.1916L118.115 87.731Z" fill="#00B39F"/>
<path d="M118.112 108.54V91.3711L102.957 99.9554L118.112 108.54Z" fill="#00B39F"/>
<path d="M83.3105 91.3242V108.673L98.6025 99.9534L83.3105 91.3242Z" fill="#00D3A9"/>
<path d="M99.577 64C93.9455 64.1348 88.4514 65.573 83.4609 68.1798L99.577 77.2584V64Z" fill="#00B39F"/>
<path d="M83.3105 70.5625V87.8209L98.6025 79.1917L83.3105 70.5625Z" fill="#00D3A9"/>
<path d="M81.1332 69.5273C76.4174 72.4487 72.4341 76.3588 69.5039 81.033L81.1332 87.6397V69.5723V69.5273Z" fill="#00B39F"/>
<path d="M118.021 68.2697C113.03 65.618 107.445 64.1798 101.768 64V77.3933L118.021 68.2697Z" fill="#00D3A9"/>
<path d="M64 101.258C64.1831 106.831 65.694 112.224 68.3953 117.123L80.1619 110.426L64 101.258Z" fill="#00D3A9"/>
<path d="M68.3953 82.875C65.694 87.7289 64.2289 93.1671 64 98.6952L80.1619 89.5716L68.3494 82.875H68.3953Z" fill="#00D3A9"/>
<path d="M83.4609 131.776C88.4514 134.383 93.9455 135.821 99.577 135.956V122.697L83.4609 131.731V131.776Z" fill="#00B39F"/>
<path d="M131.848 81.0779C128.918 76.4486 124.981 72.5385 120.311 69.6172V87.6397L131.848 81.0779Z" fill="#00D3A9"/>
<path d="M120.311 130.427C125.026 127.505 128.964 123.55 131.894 118.876L120.311 112.314V130.472V130.427Z" fill="#00D3A9"/>
<path d="M137.337 98.5623C137.108 93.0792 135.643 87.7309 132.987 82.9219L121.312 89.5286L137.337 98.5623Z" fill="#00B39F"/>
<path d="M101.768 135.999C107.399 135.864 112.893 134.426 117.884 131.819L101.768 122.65V135.999Z" fill="#00D3A9"/>
<path d="M81.1345 108.495V91.5059L66.1172 99.9553L81.1345 108.495Z" fill="#00B39F"/>
<path d="M372.74 86.1315V88.0558V96.5547V106.978V122.372H414.069V113.713H381.398V106.978V105.214H406.555V96.5547H381.398V88.0558H414.069V79.3965H372.74V86.1315Z" fill="#E7EFF3"/>
<path d="M213.305 86.1315V88.0558V96.5547V106.978V122.372H254.797V113.713H222.126V106.978V105.214H247.283V96.5547H222.126V88.0558H254.797V79.3965H213.305V86.1315Z" fill="#E7EFF3"/>
<path d="M312.135 111.147C312.135 112.751 311.809 114.194 311.155 115.477C310.502 116.92 309.685 118.043 308.705 119.005C307.725 119.967 306.418 120.769 305.111 121.41C303.641 122.052 302.171 122.372 300.7 122.372H259.861V113.392H300.7C301.354 113.392 301.844 113.232 302.334 112.751C302.824 112.27 302.987 111.789 302.987 111.147V107.619C302.987 106.978 302.824 106.497 302.334 106.016C301.844 105.535 301.354 105.374 300.7 105.374H271.296C269.663 105.374 268.193 105.054 266.886 104.412C265.415 103.771 264.272 102.969 263.292 102.007C262.312 101.045 261.495 99.7619 260.841 98.479C260.188 97.1962 259.861 95.7529 259.861 94.1494V90.6215C259.861 89.0179 260.188 87.5747 260.841 86.2919C261.495 85.009 262.312 83.7261 263.292 82.764C264.272 81.8018 265.579 81.0001 266.886 80.3586C268.193 79.7172 269.663 79.3965 271.296 79.3965H312.135V88.5369H271.296C270.643 88.5369 270.153 88.6972 269.663 89.1783C269.173 89.6594 269.009 90.1404 269.009 90.7819V94.3097C269.009 94.9512 269.173 95.4322 269.663 95.9133C270.153 96.3944 270.643 96.5547 271.296 96.5547H300.7C302.334 96.5547 303.804 96.8755 305.111 97.5169C306.418 98.1583 307.725 98.9601 308.705 99.9222C309.685 100.884 310.502 102.167 311.155 103.45C311.809 104.893 312.135 106.337 312.135 107.78V111.147Z" fill="#E7EFF3"/>
<path d="M367.188 122.372H358.857V105.535H326.349V122.372H318.018V96.3944H358.857V79.3965H367.188V122.372ZM326.349 92.3854H318.018V79.5568H326.349V92.3854Z" fill="#E7EFF3"/>
<path d="M486.112 94.4701L475.168 79.3965H464.223L481.702 105.214V122.372H490.523V105.214L508.002 79.3965H497.221L486.112 94.4701Z" fill="#E7EFF3"/>
<path d="M428.936 87.5747H451.316V90.6215V93.6683V96.7151H433.347V104.893H437.431L453.276 122.533H464.058L448.212 104.893H453.766C453.93 104.893 454.093 104.893 454.42 104.893C458.177 104.893 461.281 101.847 461.281 98.1583V93.6683V90.6215V86.1315C461.281 82.4433 458.177 79.3965 454.42 79.3965C454.256 79.3965 454.093 79.3965 453.766 79.3965H428.773H428.609H420.441V122.212H429.099L428.936 87.5747Z" fill="#E7EFF3"/>
<path d="M205.791 86.6126C203.994 82.4433 199.584 79.3965 194.846 79.5568H152.047V88.6972V122.533H161.358V88.5368C174.1 88.5368 195.336 88.3765 195.826 88.6972C199.094 87.7351 196.807 121.089 197.46 122.212H206.771C206.281 119.325 207.588 88.5368 205.791 86.6126Z" fill="#E7EFF3"/>
<path d="M184.067 93.3477H174.756V122.372H184.067V93.3477Z" fill="#E7EFF3"/>
<path d="M64.0781 279.18C63.7917 279.18 63.5417 279.161 63.3281 279.125C63.1094 279.094 62.9219 279.049 62.7656 278.992V277.422C62.9323 277.464 63.112 277.5 63.3047 277.531C63.4974 277.562 63.7031 277.578 63.9219 277.578C64.2083 277.578 64.4688 277.523 64.7031 277.414C64.9375 277.305 65.1224 277.107 65.2578 276.82C65.3984 276.534 65.4688 276.13 65.4688 275.609V264.578H67.3438V275.547C67.3438 276.396 67.2083 277.086 66.9375 277.617C66.6667 278.154 66.2865 278.547 65.7969 278.797C65.3073 279.052 64.7344 279.18 64.0781 279.18ZM77.7656 271.656C77.7656 272.375 77.6719 273.013 77.4844 273.57C77.2969 274.128 77.0234 274.599 76.6641 274.984C76.3047 275.365 75.8724 275.656 75.3672 275.859C74.862 276.057 74.2917 276.156 73.6562 276.156C73.0625 276.156 72.5182 276.057 72.0234 275.859C71.5286 275.656 71.099 275.365 70.7344 274.984C70.375 274.599 70.0964 274.128 69.8984 273.57C69.7005 273.013 69.6016 272.375 69.6016 271.656C69.6016 270.703 69.7656 269.896 70.0938 269.234C70.4271 268.568 70.901 268.06 71.5156 267.711C72.1302 267.362 72.862 267.188 73.7109 267.188C74.5078 267.188 75.2109 267.362 75.8203 267.711C76.4297 268.06 76.9062 268.568 77.25 269.234C77.5938 269.901 77.7656 270.708 77.7656 271.656ZM71.4922 271.656C71.4922 272.286 71.5677 272.826 71.7188 273.273C71.875 273.721 72.1146 274.065 72.4375 274.305C72.7604 274.539 73.1771 274.656 73.6875 274.656C74.1979 274.656 74.6146 274.539 74.9375 274.305C75.2604 274.065 75.4974 273.721 75.6484 273.273C75.7995 272.826 75.875 272.286 75.875 271.656C75.875 271.026 75.7995 270.492 75.6484 270.055C75.4974 269.612 75.2604 269.276 74.9375 269.047C74.6146 268.812 74.1953 268.695 73.6797 268.695C72.9193 268.695 72.3646 268.951 72.0156 269.461C71.6667 269.971 71.4922 270.703 71.4922 271.656ZM81.7109 267.352V276H79.875V267.352H81.7109ZM80.8047 264.039C81.0859 264.039 81.3281 264.115 81.5312 264.266C81.7396 264.417 81.8438 264.677 81.8438 265.047C81.8438 265.411 81.7396 265.672 81.5312 265.828C81.3281 265.979 81.0859 266.055 80.8047 266.055C80.513 266.055 80.2656 265.979 80.0625 265.828C79.8646 265.672 79.7656 265.411 79.7656 265.047C79.7656 264.677 79.8646 264.417 80.0625 264.266C80.2656 264.115 80.513 264.039 80.8047 264.039ZM88.8516 267.188C89.8255 267.188 90.5833 267.44 91.125 267.945C91.6719 268.445 91.9453 269.25 91.9453 270.359V276H90.1094V270.703C90.1094 270.031 89.9714 269.529 89.6953 269.195C89.4193 268.857 88.9922 268.688 88.4141 268.688C87.5755 268.688 86.9922 268.945 86.6641 269.461C86.3411 269.977 86.1797 270.724 86.1797 271.703V276H84.3438V267.352H85.7734L86.0312 268.523H86.1328C86.3203 268.221 86.5521 267.974 86.8281 267.781C87.1094 267.583 87.4219 267.435 87.7656 267.336C88.1146 267.237 88.4766 267.188 88.8516 267.188ZM105.742 275.992L104.648 271.969C104.596 271.771 104.534 271.531 104.461 271.25C104.388 270.969 104.315 270.68 104.242 270.383C104.169 270.081 104.102 269.802 104.039 269.547C103.982 269.292 103.938 269.094 103.906 268.953H103.844C103.818 269.094 103.776 269.292 103.719 269.547C103.661 269.802 103.596 270.081 103.523 270.383C103.451 270.685 103.378 270.979 103.305 271.266C103.237 271.552 103.174 271.797 103.117 272L101.969 275.992H99.9531L97.5312 267.344H99.3906L100.516 271.641C100.589 271.932 100.659 272.247 100.727 272.586C100.799 272.924 100.862 273.247 100.914 273.555C100.966 273.862 101.005 274.115 101.031 274.312H101.094C101.115 274.172 101.143 273.995 101.18 273.781C101.216 273.562 101.258 273.336 101.305 273.102C101.352 272.862 101.398 272.638 101.445 272.43C101.492 272.216 101.536 272.044 101.578 271.914L102.906 267.344H104.914L106.188 271.914C106.245 272.112 106.307 272.362 106.375 272.664C106.443 272.961 106.503 273.26 106.555 273.562C106.612 273.859 106.648 274.107 106.664 274.305H106.727C106.747 274.128 106.784 273.888 106.836 273.586C106.893 273.279 106.958 272.953 107.031 272.609C107.104 272.26 107.18 271.938 107.258 271.641L108.406 267.344H110.234L107.797 275.992H105.742ZM115.164 267.188C115.935 267.188 116.596 267.346 117.148 267.664C117.701 267.982 118.125 268.432 118.422 269.016C118.719 269.599 118.867 270.297 118.867 271.109V272.094H113.094C113.115 272.932 113.339 273.578 113.766 274.031C114.198 274.484 114.802 274.711 115.578 274.711C116.13 274.711 116.625 274.659 117.062 274.555C117.505 274.445 117.961 274.286 118.43 274.078V275.57C117.997 275.773 117.557 275.922 117.109 276.016C116.661 276.109 116.125 276.156 115.5 276.156C114.651 276.156 113.904 275.992 113.258 275.664C112.617 275.331 112.115 274.836 111.75 274.18C111.391 273.523 111.211 272.708 111.211 271.734C111.211 270.766 111.375 269.943 111.703 269.266C112.031 268.589 112.492 268.073 113.086 267.719C113.68 267.365 114.372 267.188 115.164 267.188ZM115.164 268.57C114.586 268.57 114.117 268.758 113.758 269.133C113.404 269.508 113.195 270.057 113.133 270.781H117.07C117.065 270.349 116.992 269.966 116.852 269.633C116.716 269.299 116.508 269.039 116.227 268.852C115.951 268.664 115.596 268.57 115.164 268.57ZM124.383 267.188C125.154 267.188 125.815 267.346 126.367 267.664C126.919 267.982 127.344 268.432 127.641 269.016C127.938 269.599 128.086 270.297 128.086 271.109V272.094H122.312C122.333 272.932 122.557 273.578 122.984 274.031C123.417 274.484 124.021 274.711 124.797 274.711C125.349 274.711 125.844 274.659 126.281 274.555C126.724 274.445 127.18 274.286 127.648 274.078V275.57C127.216 275.773 126.776 275.922 126.328 276.016C125.88 276.109 125.344 276.156 124.719 276.156C123.87 276.156 123.122 275.992 122.477 275.664C121.836 275.331 121.333 274.836 120.969 274.18C120.609 273.523 120.43 272.708 120.43 271.734C120.43 270.766 120.594 269.943 120.922 269.266C121.25 268.589 121.711 268.073 122.305 267.719C122.898 267.365 123.591 267.188 124.383 267.188ZM124.383 268.57C123.805 268.57 123.336 268.758 122.977 269.133C122.622 269.508 122.414 270.057 122.352 270.781H126.289C126.284 270.349 126.211 269.966 126.07 269.633C125.935 269.299 125.727 269.039 125.445 268.852C125.169 268.664 124.815 268.57 124.383 268.57ZM131.992 263.844V269.719C131.992 269.984 131.982 270.276 131.961 270.594C131.94 270.906 131.919 271.201 131.898 271.477H131.938C132.073 271.294 132.234 271.081 132.422 270.836C132.615 270.591 132.797 270.378 132.969 270.195L135.609 267.352H137.719L134.258 271.07L137.945 276H135.789L133.023 272.203L131.992 273.086V276H130.156V263.844H131.992ZM141.172 276H139.328V263.844H141.172V276ZM142.492 267.352H144.492L146.266 272.289C146.344 272.513 146.414 272.734 146.477 272.953C146.544 273.167 146.602 273.378 146.648 273.586C146.701 273.794 146.742 274.003 146.773 274.211H146.82C146.872 273.94 146.945 273.638 147.039 273.305C147.138 272.966 147.247 272.628 147.367 272.289L149.07 267.352H151.047L147.336 277.188C147.122 277.75 146.859 278.229 146.547 278.625C146.24 279.026 145.875 279.328 145.453 279.531C145.031 279.74 144.549 279.844 144.008 279.844C143.747 279.844 143.521 279.828 143.328 279.797C143.135 279.771 142.971 279.742 142.836 279.711V278.242C142.945 278.268 143.083 278.292 143.25 278.312C143.417 278.333 143.589 278.344 143.766 278.344C144.094 278.344 144.378 278.279 144.617 278.148C144.857 278.018 145.06 277.833 145.227 277.594C145.393 277.359 145.531 277.091 145.641 276.789L145.945 275.977L142.492 267.352ZM161.633 276L158.344 266.461H158.273C158.289 266.674 158.307 266.966 158.328 267.336C158.349 267.706 158.367 268.102 158.383 268.523C158.398 268.945 158.406 269.349 158.406 269.734V276H156.703V264.578H159.336L162.5 273.695H162.547L165.82 264.578H168.445V276H166.656V269.641C166.656 269.292 166.661 268.914 166.672 268.508C166.688 268.102 166.703 267.716 166.719 267.352C166.74 266.987 166.755 266.695 166.766 266.477H166.703L163.289 276H161.633ZM174.711 267.188C175.482 267.188 176.143 267.346 176.695 267.664C177.247 267.982 177.672 268.432 177.969 269.016C178.266 269.599 178.414 270.297 178.414 271.109V272.094H172.641C172.661 272.932 172.885 273.578 173.312 274.031C173.745 274.484 174.349 274.711 175.125 274.711C175.677 274.711 176.172 274.659 176.609 274.555C177.052 274.445 177.508 274.286 177.977 274.078V275.57C177.544 275.773 177.104 275.922 176.656 276.016C176.208 276.109 175.672 276.156 175.047 276.156C174.198 276.156 173.451 275.992 172.805 275.664C172.164 275.331 171.661 274.836 171.297 274.18C170.938 273.523 170.758 272.708 170.758 271.734C170.758 270.766 170.922 269.943 171.25 269.266C171.578 268.589 172.039 268.073 172.633 267.719C173.227 267.365 173.919 267.188 174.711 267.188ZM174.711 268.57C174.133 268.57 173.664 268.758 173.305 269.133C172.951 269.508 172.742 270.057 172.68 270.781H176.617C176.612 270.349 176.539 269.966 176.398 269.633C176.263 269.299 176.055 269.039 175.773 268.852C175.497 268.664 175.143 268.57 174.711 268.57ZM186.297 273.531C186.297 274.099 186.159 274.578 185.883 274.969C185.607 275.359 185.203 275.656 184.672 275.859C184.146 276.057 183.5 276.156 182.734 276.156C182.13 276.156 181.609 276.112 181.172 276.023C180.74 275.94 180.331 275.81 179.945 275.633V274.047C180.357 274.24 180.818 274.406 181.328 274.547C181.844 274.688 182.331 274.758 182.789 274.758C183.393 274.758 183.828 274.664 184.094 274.477C184.359 274.284 184.492 274.029 184.492 273.711C184.492 273.523 184.438 273.357 184.328 273.211C184.224 273.06 184.026 272.906 183.734 272.75C183.448 272.589 183.026 272.396 182.469 272.172C181.922 271.953 181.461 271.734 181.086 271.516C180.711 271.297 180.427 271.034 180.234 270.727C180.042 270.414 179.945 270.016 179.945 269.531C179.945 268.766 180.247 268.185 180.852 267.789C181.461 267.388 182.266 267.188 183.266 267.188C183.797 267.188 184.297 267.242 184.766 267.352C185.24 267.456 185.703 267.609 186.156 267.812L185.578 269.195C185.188 269.023 184.794 268.883 184.398 268.773C184.008 268.659 183.609 268.602 183.203 268.602C182.729 268.602 182.367 268.674 182.117 268.82C181.872 268.966 181.75 269.174 181.75 269.445C181.75 269.648 181.81 269.82 181.93 269.961C182.049 270.102 182.255 270.242 182.547 270.383C182.844 270.523 183.255 270.698 183.781 270.906C184.297 271.104 184.742 271.312 185.117 271.531C185.497 271.745 185.789 272.008 185.992 272.32C186.195 272.633 186.297 273.036 186.297 273.531ZM190.117 263.844V266.898C190.117 267.216 190.107 267.526 190.086 267.828C190.07 268.13 190.052 268.365 190.031 268.531H190.133C190.315 268.229 190.539 267.982 190.805 267.789C191.07 267.591 191.367 267.443 191.695 267.344C192.029 267.245 192.383 267.195 192.758 267.195C193.419 267.195 193.982 267.307 194.445 267.531C194.909 267.75 195.263 268.091 195.508 268.555C195.758 269.018 195.883 269.62 195.883 270.359V276H194.047V270.703C194.047 270.031 193.909 269.529 193.633 269.195C193.357 268.857 192.93 268.688 192.352 268.688C191.794 268.688 191.352 268.805 191.023 269.039C190.701 269.268 190.469 269.609 190.328 270.062C190.188 270.51 190.117 271.057 190.117 271.703V276H188.281V263.844H190.117ZM201.898 267.188C202.669 267.188 203.331 267.346 203.883 267.664C204.435 267.982 204.859 268.432 205.156 269.016C205.453 269.599 205.602 270.297 205.602 271.109V272.094H199.828C199.849 272.932 200.073 273.578 200.5 274.031C200.932 274.484 201.536 274.711 202.312 274.711C202.865 274.711 203.359 274.659 203.797 274.555C204.24 274.445 204.695 274.286 205.164 274.078V275.57C204.732 275.773 204.292 275.922 203.844 276.016C203.396 276.109 202.859 276.156 202.234 276.156C201.385 276.156 200.638 275.992 199.992 275.664C199.352 275.331 198.849 274.836 198.484 274.18C198.125 273.523 197.945 272.708 197.945 271.734C197.945 270.766 198.109 269.943 198.438 269.266C198.766 268.589 199.227 268.073 199.82 267.719C200.414 267.365 201.107 267.188 201.898 267.188ZM201.898 268.57C201.32 268.57 200.852 268.758 200.492 269.133C200.138 269.508 199.93 270.057 199.867 270.781H203.805C203.799 270.349 203.727 269.966 203.586 269.633C203.451 269.299 203.242 269.039 202.961 268.852C202.685 268.664 202.331 268.57 201.898 268.57ZM212.055 267.188C212.201 267.188 212.359 267.195 212.531 267.211C212.703 267.227 212.852 267.247 212.977 267.273L212.805 268.992C212.695 268.961 212.56 268.938 212.398 268.922C212.242 268.906 212.102 268.898 211.977 268.898C211.648 268.898 211.336 268.953 211.039 269.062C210.742 269.167 210.479 269.328 210.25 269.547C210.021 269.76 209.841 270.029 209.711 270.352C209.581 270.674 209.516 271.049 209.516 271.477V276H207.672V267.352H209.109L209.359 268.875H209.445C209.617 268.568 209.831 268.286 210.086 268.031C210.341 267.776 210.633 267.573 210.961 267.422C211.294 267.266 211.659 267.188 212.055 267.188ZM213.273 267.352H215.273L217.047 272.289C217.125 272.513 217.195 272.734 217.258 272.953C217.326 273.167 217.383 273.378 217.43 273.586C217.482 273.794 217.523 274.003 217.555 274.211H217.602C217.654 273.94 217.727 273.638 217.82 273.305C217.919 272.966 218.029 272.628 218.148 272.289L219.852 267.352H221.828L218.117 277.188C217.904 277.75 217.641 278.229 217.328 278.625C217.021 279.026 216.656 279.328 216.234 279.531C215.812 279.74 215.331 279.844 214.789 279.844C214.529 279.844 214.302 279.828 214.109 279.797C213.917 279.771 213.753 279.742 213.617 279.711V278.242C213.727 278.268 213.865 278.292 214.031 278.312C214.198 278.333 214.37 278.344 214.547 278.344C214.875 278.344 215.159 278.279 215.398 278.148C215.638 278.018 215.841 277.833 216.008 277.594C216.174 277.359 216.312 277.091 216.422 276.789L216.727 275.977L213.273 267.352ZM237.07 267.188C238.039 267.188 238.768 267.438 239.258 267.938C239.753 268.438 240 269.24 240 270.344V276H238.164V270.672C238.164 270.016 238.036 269.521 237.781 269.188C237.526 268.854 237.138 268.688 236.617 268.688C235.888 268.688 235.362 268.922 235.039 269.391C234.721 269.854 234.562 270.529 234.562 271.414V276H232.727V270.672C232.727 270.234 232.669 269.87 232.555 269.578C232.445 269.281 232.276 269.06 232.047 268.914C231.818 268.763 231.529 268.688 231.18 268.688C230.674 268.688 230.271 268.802 229.969 269.031C229.672 269.26 229.458 269.599 229.328 270.047C229.198 270.49 229.133 271.034 229.133 271.68V276H227.297V267.352H228.727L228.984 268.516H229.086C229.263 268.214 229.482 267.966 229.742 267.773C230.008 267.576 230.302 267.43 230.625 267.336C230.948 267.237 231.284 267.188 231.633 267.188C232.279 267.188 232.823 267.302 233.266 267.531C233.708 267.755 234.039 268.099 234.258 268.562H234.398C234.669 268.094 235.047 267.747 235.531 267.523C236.016 267.299 236.529 267.188 237.07 267.188ZM246.008 267.188C246.779 267.188 247.44 267.346 247.992 267.664C248.544 267.982 248.969 268.432 249.266 269.016C249.562 269.599 249.711 270.297 249.711 271.109V272.094H243.938C243.958 272.932 244.182 273.578 244.609 274.031C245.042 274.484 245.646 274.711 246.422 274.711C246.974 274.711 247.469 274.659 247.906 274.555C248.349 274.445 248.805 274.286 249.273 274.078V275.57C248.841 275.773 248.401 275.922 247.953 276.016C247.505 276.109 246.969 276.156 246.344 276.156C245.495 276.156 244.747 275.992 244.102 275.664C243.461 275.331 242.958 274.836 242.594 274.18C242.234 273.523 242.055 272.708 242.055 271.734C242.055 270.766 242.219 269.943 242.547 269.266C242.875 268.589 243.336 268.073 243.93 267.719C244.523 267.365 245.216 267.188 246.008 267.188ZM246.008 268.57C245.43 268.57 244.961 268.758 244.602 269.133C244.247 269.508 244.039 270.057 243.977 270.781H247.914C247.909 270.349 247.836 269.966 247.695 269.633C247.56 269.299 247.352 269.039 247.07 268.852C246.794 268.664 246.44 268.57 246.008 268.57ZM255.227 267.188C255.997 267.188 256.659 267.346 257.211 267.664C257.763 267.982 258.188 268.432 258.484 269.016C258.781 269.599 258.93 270.297 258.93 271.109V272.094H253.156C253.177 272.932 253.401 273.578 253.828 274.031C254.26 274.484 254.865 274.711 255.641 274.711C256.193 274.711 256.688 274.659 257.125 274.555C257.568 274.445 258.023 274.286 258.492 274.078V275.57C258.06 275.773 257.62 275.922 257.172 276.016C256.724 276.109 256.188 276.156 255.562 276.156C254.714 276.156 253.966 275.992 253.32 275.664C252.68 275.331 252.177 274.836 251.812 274.18C251.453 273.523 251.273 272.708 251.273 271.734C251.273 270.766 251.438 269.943 251.766 269.266C252.094 268.589 252.555 268.073 253.148 267.719C253.742 267.365 254.435 267.188 255.227 267.188ZM255.227 268.57C254.648 268.57 254.18 268.758 253.82 269.133C253.466 269.508 253.258 270.057 253.195 270.781H257.133C257.128 270.349 257.055 269.966 256.914 269.633C256.779 269.299 256.57 269.039 256.289 268.852C256.013 268.664 255.659 268.57 255.227 268.57ZM264.219 274.672C264.458 274.672 264.695 274.651 264.93 274.609C265.164 274.562 265.378 274.508 265.57 274.445V275.836C265.367 275.924 265.104 276 264.781 276.062C264.458 276.125 264.122 276.156 263.773 276.156C263.284 276.156 262.844 276.076 262.453 275.914C262.062 275.747 261.753 275.464 261.523 275.062C261.294 274.661 261.18 274.107 261.18 273.398V268.75H260V267.93L261.266 267.281L261.867 265.43H263.023V267.352H265.5V268.75H263.023V273.375C263.023 273.812 263.133 274.138 263.352 274.352C263.57 274.565 263.859 274.672 264.219 274.672ZM269.164 267.352V276H267.328V267.352H269.164ZM268.258 264.039C268.539 264.039 268.781 264.115 268.984 264.266C269.193 264.417 269.297 264.677 269.297 265.047C269.297 265.411 269.193 265.672 268.984 265.828C268.781 265.979 268.539 266.055 268.258 266.055C267.966 266.055 267.719 265.979 267.516 265.828C267.318 265.672 267.219 265.411 267.219 265.047C267.219 264.677 267.318 264.417 267.516 264.266C267.719 264.115 267.966 264.039 268.258 264.039ZM276.305 267.188C277.279 267.188 278.036 267.44 278.578 267.945C279.125 268.445 279.398 269.25 279.398 270.359V276H277.562V270.703C277.562 270.031 277.424 269.529 277.148 269.195C276.872 268.857 276.445 268.688 275.867 268.688C275.029 268.688 274.445 268.945 274.117 269.461C273.794 269.977 273.633 270.724 273.633 271.703V276H271.797V267.352H273.227L273.484 268.523H273.586C273.773 268.221 274.005 267.974 274.281 267.781C274.562 267.583 274.875 267.435 275.219 267.336C275.568 267.237 275.93 267.188 276.305 267.188ZM284.438 279.844C283.266 279.844 282.367 279.633 281.742 279.211C281.117 278.789 280.805 278.198 280.805 277.438C280.805 276.906 280.971 276.456 281.305 276.086C281.638 275.721 282.115 275.469 282.734 275.328C282.5 275.224 282.297 275.062 282.125 274.844C281.958 274.62 281.875 274.372 281.875 274.102C281.875 273.779 281.966 273.503 282.148 273.273C282.331 273.044 282.604 272.823 282.969 272.609C282.516 272.417 282.151 272.104 281.875 271.672C281.604 271.234 281.469 270.721 281.469 270.133C281.469 269.508 281.602 268.977 281.867 268.539C282.133 268.096 282.521 267.76 283.031 267.531C283.542 267.297 284.159 267.18 284.883 267.18C285.039 267.18 285.208 267.19 285.391 267.211C285.578 267.227 285.75 267.247 285.906 267.273C286.068 267.294 286.19 267.318 286.273 267.344H289.266V268.367L287.797 268.641C287.938 268.839 288.049 269.065 288.133 269.32C288.216 269.57 288.258 269.844 288.258 270.141C288.258 271.036 287.948 271.742 287.328 272.258C286.714 272.768 285.865 273.023 284.781 273.023C284.521 273.013 284.268 272.992 284.023 272.961C283.836 273.076 283.693 273.203 283.594 273.344C283.495 273.479 283.445 273.633 283.445 273.805C283.445 273.945 283.495 274.06 283.594 274.148C283.693 274.232 283.839 274.294 284.031 274.336C284.229 274.378 284.469 274.398 284.75 274.398H286.242C287.19 274.398 287.914 274.599 288.414 275C288.914 275.401 289.164 275.99 289.164 276.766C289.164 277.75 288.758 278.508 287.945 279.039C287.133 279.576 285.964 279.844 284.438 279.844ZM284.508 278.555C285.148 278.555 285.688 278.492 286.125 278.367C286.562 278.242 286.893 278.062 287.117 277.828C287.341 277.599 287.453 277.326 287.453 277.008C287.453 276.727 287.383 276.51 287.242 276.359C287.102 276.208 286.891 276.104 286.609 276.047C286.328 275.99 285.979 275.961 285.562 275.961H284.203C283.865 275.961 283.565 276.013 283.305 276.117C283.044 276.227 282.841 276.383 282.695 276.586C282.555 276.789 282.484 277.034 282.484 277.32C282.484 277.716 282.659 278.021 283.008 278.234C283.362 278.448 283.862 278.555 284.508 278.555ZM284.867 271.82C285.404 271.82 285.802 271.674 286.062 271.383C286.323 271.086 286.453 270.669 286.453 270.133C286.453 269.549 286.318 269.112 286.047 268.82C285.781 268.529 285.385 268.383 284.859 268.383C284.344 268.383 283.951 268.531 283.68 268.828C283.414 269.125 283.281 269.565 283.281 270.148C283.281 270.674 283.414 271.086 283.68 271.383C283.951 271.674 284.346 271.82 284.867 271.82ZM298.484 276.156C297.667 276.156 296.958 275.997 296.359 275.68C295.76 275.362 295.299 274.875 294.977 274.219C294.654 273.562 294.492 272.729 294.492 271.719C294.492 270.667 294.669 269.807 295.023 269.141C295.378 268.474 295.867 267.982 296.492 267.664C297.122 267.346 297.844 267.188 298.656 267.188C299.172 267.188 299.638 267.24 300.055 267.344C300.477 267.443 300.833 267.565 301.125 267.711L300.578 269.18C300.26 269.049 299.935 268.94 299.602 268.852C299.268 268.763 298.948 268.719 298.641 268.719C298.135 268.719 297.714 268.831 297.375 269.055C297.042 269.279 296.792 269.612 296.625 270.055C296.464 270.497 296.383 271.047 296.383 271.703C296.383 272.339 296.466 272.875 296.633 273.312C296.799 273.745 297.047 274.073 297.375 274.297C297.703 274.516 298.107 274.625 298.586 274.625C299.06 274.625 299.484 274.568 299.859 274.453C300.234 274.339 300.589 274.19 300.922 274.008V275.602C300.594 275.789 300.242 275.927 299.867 276.016C299.492 276.109 299.031 276.156 298.484 276.156ZM306.344 267.188C307.438 267.188 308.263 267.43 308.82 267.914C309.383 268.398 309.664 269.154 309.664 270.18V276H308.359L308.008 274.773H307.945C307.701 275.086 307.448 275.344 307.188 275.547C306.927 275.75 306.625 275.901 306.281 276C305.943 276.104 305.529 276.156 305.039 276.156C304.523 276.156 304.062 276.062 303.656 275.875C303.25 275.682 302.93 275.391 302.695 275C302.461 274.609 302.344 274.115 302.344 273.516C302.344 272.625 302.674 271.956 303.336 271.508C304.003 271.06 305.008 270.812 306.352 270.766L307.852 270.711V270.258C307.852 269.659 307.711 269.232 307.43 268.977C307.154 268.721 306.763 268.594 306.258 268.594C305.826 268.594 305.406 268.656 305 268.781C304.594 268.906 304.198 269.06 303.812 269.242L303.219 267.945C303.641 267.721 304.12 267.539 304.656 267.398C305.198 267.258 305.76 267.188 306.344 267.188ZM307.844 271.867L306.727 271.906C305.81 271.938 305.167 272.094 304.797 272.375C304.427 272.656 304.242 273.042 304.242 273.531C304.242 273.958 304.37 274.271 304.625 274.469C304.88 274.661 305.216 274.758 305.633 274.758C306.268 274.758 306.794 274.578 307.211 274.219C307.633 273.854 307.844 273.32 307.844 272.617V271.867ZM314.078 276H312.234V263.844H314.078V276ZM318.547 276H316.703V263.844H318.547V276ZM326.984 273.531C326.984 274.099 326.846 274.578 326.57 274.969C326.294 275.359 325.891 275.656 325.359 275.859C324.833 276.057 324.188 276.156 323.422 276.156C322.818 276.156 322.297 276.112 321.859 276.023C321.427 275.94 321.018 275.81 320.633 275.633V274.047C321.044 274.24 321.505 274.406 322.016 274.547C322.531 274.688 323.018 274.758 323.477 274.758C324.081 274.758 324.516 274.664 324.781 274.477C325.047 274.284 325.18 274.029 325.18 273.711C325.18 273.523 325.125 273.357 325.016 273.211C324.911 273.06 324.714 272.906 324.422 272.75C324.135 272.589 323.714 272.396 323.156 272.172C322.609 271.953 322.148 271.734 321.773 271.516C321.398 271.297 321.115 271.034 320.922 270.727C320.729 270.414 320.633 270.016 320.633 269.531C320.633 268.766 320.935 268.185 321.539 267.789C322.148 267.388 322.953 267.188 323.953 267.188C324.484 267.188 324.984 267.242 325.453 267.352C325.927 267.456 326.391 267.609 326.844 267.812L326.266 269.195C325.875 269.023 325.482 268.883 325.086 268.773C324.695 268.659 324.297 268.602 323.891 268.602C323.417 268.602 323.055 268.674 322.805 268.82C322.56 268.966 322.438 269.174 322.438 269.445C322.438 269.648 322.497 269.82 322.617 269.961C322.737 270.102 322.943 270.242 323.234 270.383C323.531 270.523 323.943 270.698 324.469 270.906C324.984 271.104 325.43 271.312 325.805 271.531C326.185 271.745 326.477 272.008 326.68 272.32C326.883 272.633 326.984 273.036 326.984 273.531ZM340.195 275.992L339.102 271.969C339.049 271.771 338.987 271.531 338.914 271.25C338.841 270.969 338.768 270.68 338.695 270.383C338.622 270.081 338.555 269.802 338.492 269.547C338.435 269.292 338.391 269.094 338.359 268.953H338.297C338.271 269.094 338.229 269.292 338.172 269.547C338.115 269.802 338.049 270.081 337.977 270.383C337.904 270.685 337.831 270.979 337.758 271.266C337.69 271.552 337.628 271.797 337.57 272L336.422 275.992H334.406L331.984 267.344H333.844L334.969 271.641C335.042 271.932 335.112 272.247 335.18 272.586C335.253 272.924 335.315 273.247 335.367 273.555C335.419 273.862 335.458 274.115 335.484 274.312H335.547C335.568 274.172 335.596 273.995 335.633 273.781C335.669 273.562 335.711 273.336 335.758 273.102C335.805 272.862 335.852 272.638 335.898 272.43C335.945 272.216 335.99 272.044 336.031 271.914L337.359 267.344H339.367L340.641 271.914C340.698 272.112 340.76 272.362 340.828 272.664C340.896 272.961 340.956 273.26 341.008 273.562C341.065 273.859 341.102 274.107 341.117 274.305H341.18C341.201 274.128 341.237 273.888 341.289 273.586C341.346 273.279 341.411 272.953 341.484 272.609C341.557 272.26 341.633 271.938 341.711 271.641L342.859 267.344H344.688L342.25 275.992H340.195ZM348.008 267.352V276H346.172V267.352H348.008ZM347.102 264.039C347.383 264.039 347.625 264.115 347.828 264.266C348.036 264.417 348.141 264.677 348.141 265.047C348.141 265.411 348.036 265.672 347.828 265.828C347.625 265.979 347.383 266.055 347.102 266.055C346.81 266.055 346.562 265.979 346.359 265.828C346.161 265.672 346.062 265.411 346.062 265.047C346.062 264.677 346.161 264.417 346.359 264.266C346.562 264.115 346.81 264.039 347.102 264.039ZM353.859 274.672C354.099 274.672 354.336 274.651 354.57 274.609C354.805 274.562 355.018 274.508 355.211 274.445V275.836C355.008 275.924 354.745 276 354.422 276.062C354.099 276.125 353.763 276.156 353.414 276.156C352.924 276.156 352.484 276.076 352.094 275.914C351.703 275.747 351.393 275.464 351.164 275.062C350.935 274.661 350.82 274.107 350.82 273.398V268.75H349.641V267.93L350.906 267.281L351.508 265.43H352.664V267.352H355.141V268.75H352.664V273.375C352.664 273.812 352.773 274.138 352.992 274.352C353.211 274.565 353.5 274.672 353.859 274.672ZM358.805 263.844V266.898C358.805 267.216 358.794 267.526 358.773 267.828C358.758 268.13 358.74 268.365 358.719 268.531H358.82C359.003 268.229 359.227 267.982 359.492 267.789C359.758 267.591 360.055 267.443 360.383 267.344C360.716 267.245 361.07 267.195 361.445 267.195C362.107 267.195 362.669 267.307 363.133 267.531C363.596 267.75 363.951 268.091 364.195 268.555C364.445 269.018 364.57 269.62 364.57 270.359V276H362.734V270.703C362.734 270.031 362.596 269.529 362.32 269.195C362.044 268.857 361.617 268.688 361.039 268.688C360.482 268.688 360.039 268.805 359.711 269.039C359.388 269.268 359.156 269.609 359.016 270.062C358.875 270.51 358.805 271.057 358.805 271.703V276H356.969V263.844H358.805ZM378.953 271.656C378.953 272.375 378.859 273.013 378.672 273.57C378.484 274.128 378.211 274.599 377.852 274.984C377.492 275.365 377.06 275.656 376.555 275.859C376.049 276.057 375.479 276.156 374.844 276.156C374.25 276.156 373.706 276.057 373.211 275.859C372.716 275.656 372.286 275.365 371.922 274.984C371.562 274.599 371.284 274.128 371.086 273.57C370.888 273.013 370.789 272.375 370.789 271.656C370.789 270.703 370.953 269.896 371.281 269.234C371.615 268.568 372.089 268.06 372.703 267.711C373.318 267.362 374.049 267.188 374.898 267.188C375.695 267.188 376.398 267.362 377.008 267.711C377.617 268.06 378.094 268.568 378.438 269.234C378.781 269.901 378.953 270.708 378.953 271.656ZM372.68 271.656C372.68 272.286 372.755 272.826 372.906 273.273C373.062 273.721 373.302 274.065 373.625 274.305C373.948 274.539 374.365 274.656 374.875 274.656C375.385 274.656 375.802 274.539 376.125 274.305C376.448 274.065 376.685 273.721 376.836 273.273C376.987 272.826 377.062 272.286 377.062 271.656C377.062 271.026 376.987 270.492 376.836 270.055C376.685 269.612 376.448 269.276 376.125 269.047C375.802 268.812 375.383 268.695 374.867 268.695C374.107 268.695 373.552 268.951 373.203 269.461C372.854 269.971 372.68 270.703 372.68 271.656ZM388.602 267.352V276H387.156L386.906 274.836H386.805C386.622 275.133 386.391 275.38 386.109 275.578C385.828 275.771 385.516 275.914 385.172 276.008C384.828 276.107 384.466 276.156 384.086 276.156C383.435 276.156 382.878 276.047 382.414 275.828C381.956 275.604 381.604 275.26 381.359 274.797C381.115 274.333 380.992 273.734 380.992 273V267.352H382.836V272.656C382.836 273.328 382.971 273.831 383.242 274.164C383.518 274.497 383.945 274.664 384.523 274.664C385.081 274.664 385.523 274.549 385.852 274.32C386.18 274.091 386.411 273.753 386.547 273.305C386.688 272.857 386.758 272.307 386.758 271.656V267.352H388.602ZM395.617 267.188C395.763 267.188 395.922 267.195 396.094 267.211C396.266 267.227 396.414 267.247 396.539 267.273L396.367 268.992C396.258 268.961 396.122 268.938 395.961 268.922C395.805 268.906 395.664 268.898 395.539 268.898C395.211 268.898 394.898 268.953 394.602 269.062C394.305 269.167 394.042 269.328 393.812 269.547C393.583 269.76 393.404 270.029 393.273 270.352C393.143 270.674 393.078 271.049 393.078 271.477V276H391.234V267.352H392.672L392.922 268.875H393.008C393.18 268.568 393.393 268.286 393.648 268.031C393.904 267.776 394.195 267.573 394.523 267.422C394.857 267.266 395.221 267.188 395.617 267.188ZM68.7969 304.156C67.9792 304.156 67.2708 303.997 66.6719 303.68C66.0729 303.362 65.612 302.875 65.2891 302.219C64.9661 301.562 64.8047 300.729 64.8047 299.719C64.8047 298.667 64.9818 297.807 65.3359 297.141C65.6901 296.474 66.1797 295.982 66.8047 295.664C67.4349 295.346 68.1562 295.188 68.9688 295.188C69.4844 295.188 69.9505 295.24 70.3672 295.344C70.7891 295.443 71.1458 295.565 71.4375 295.711L70.8906 297.18C70.5729 297.049 70.2474 296.94 69.9141 296.852C69.5807 296.763 69.2604 296.719 68.9531 296.719C68.4479 296.719 68.026 296.831 67.6875 297.055C67.3542 297.279 67.1042 297.612 66.9375 298.055C66.776 298.497 66.6953 299.047 66.6953 299.703C66.6953 300.339 66.7786 300.875 66.9453 301.312C67.112 301.745 67.3594 302.073 67.6875 302.297C68.0156 302.516 68.4193 302.625 68.8984 302.625C69.3724 302.625 69.7969 302.568 70.1719 302.453C70.5469 302.339 70.901 302.19 71.2344 302.008V303.602C70.9062 303.789 70.5547 303.927 70.1797 304.016C69.8047 304.109 69.3438 304.156 68.7969 304.156ZM80.8047 295.352V304H79.3594L79.1094 302.836H79.0078C78.8255 303.133 78.5938 303.38 78.3125 303.578C78.0312 303.771 77.7188 303.914 77.375 304.008C77.0312 304.107 76.6693 304.156 76.2891 304.156C75.638 304.156 75.0807 304.047 74.6172 303.828C74.1589 303.604 73.8073 303.26 73.5625 302.797C73.3177 302.333 73.1953 301.734 73.1953 301V295.352H75.0391V300.656C75.0391 301.328 75.1745 301.831 75.4453 302.164C75.7214 302.497 76.1484 302.664 76.7266 302.664C77.2839 302.664 77.7266 302.549 78.0547 302.32C78.3828 302.091 78.6146 301.753 78.75 301.305C78.8906 300.857 78.9609 300.307 78.9609 299.656V295.352H80.8047ZM89.25 301.531C89.25 302.099 89.112 302.578 88.8359 302.969C88.5599 303.359 88.1562 303.656 87.625 303.859C87.099 304.057 86.4531 304.156 85.6875 304.156C85.0833 304.156 84.5625 304.112 84.125 304.023C83.6927 303.94 83.2839 303.81 82.8984 303.633V302.047C83.3099 302.24 83.7708 302.406 84.2812 302.547C84.7969 302.688 85.2839 302.758 85.7422 302.758C86.3464 302.758 86.7812 302.664 87.0469 302.477C87.3125 302.284 87.4453 302.029 87.4453 301.711C87.4453 301.523 87.3906 301.357 87.2812 301.211C87.1771 301.06 86.9792 300.906 86.6875 300.75C86.401 300.589 85.9792 300.396 85.4219 300.172C84.875 299.953 84.4141 299.734 84.0391 299.516C83.6641 299.297 83.3802 299.034 83.1875 298.727C82.9948 298.414 82.8984 298.016 82.8984 297.531C82.8984 296.766 83.2005 296.185 83.8047 295.789C84.4141 295.388 85.2188 295.188 86.2188 295.188C86.75 295.188 87.25 295.242 87.7188 295.352C88.1927 295.456 88.6562 295.609 89.1094 295.812L88.5312 297.195C88.1406 297.023 87.7474 296.883 87.3516 296.773C86.9609 296.659 86.5625 296.602 86.1562 296.602C85.6823 296.602 85.3203 296.674 85.0703 296.82C84.8255 296.966 84.7031 297.174 84.7031 297.445C84.7031 297.648 84.763 297.82 84.8828 297.961C85.0026 298.102 85.2083 298.242 85.5 298.383C85.7969 298.523 86.2083 298.698 86.7344 298.906C87.25 299.104 87.6953 299.312 88.0703 299.531C88.4505 299.745 88.7422 300.008 88.9453 300.32C89.1484 300.633 89.25 301.036 89.25 301.531ZM94.4531 302.672C94.6927 302.672 94.9297 302.651 95.1641 302.609C95.3984 302.562 95.612 302.508 95.8047 302.445V303.836C95.6016 303.924 95.3385 304 95.0156 304.062C94.6927 304.125 94.3568 304.156 94.0078 304.156C93.5182 304.156 93.0781 304.076 92.6875 303.914C92.2969 303.747 91.987 303.464 91.7578 303.062C91.5286 302.661 91.4141 302.107 91.4141 301.398V296.75H90.2344V295.93L91.5 295.281L92.1016 293.43H93.2578V295.352H95.7344V296.75H93.2578V301.375C93.2578 301.812 93.3672 302.138 93.5859 302.352C93.8047 302.565 94.0938 302.672 94.4531 302.672ZM105.219 299.656C105.219 300.375 105.125 301.013 104.938 301.57C104.75 302.128 104.477 302.599 104.117 302.984C103.758 303.365 103.326 303.656 102.82 303.859C102.315 304.057 101.745 304.156 101.109 304.156C100.516 304.156 99.9714 304.057 99.4766 303.859C98.9818 303.656 98.5521 303.365 98.1875 302.984C97.8281 302.599 97.5495 302.128 97.3516 301.57C97.1536 301.013 97.0547 300.375 97.0547 299.656C97.0547 298.703 97.2188 297.896 97.5469 297.234C97.8802 296.568 98.3542 296.06 98.9688 295.711C99.5833 295.362 100.315 295.188 101.164 295.188C101.961 295.188 102.664 295.362 103.273 295.711C103.883 296.06 104.359 296.568 104.703 297.234C105.047 297.901 105.219 298.708 105.219 299.656ZM98.9453 299.656C98.9453 300.286 99.0208 300.826 99.1719 301.273C99.3281 301.721 99.5677 302.065 99.8906 302.305C100.214 302.539 100.63 302.656 101.141 302.656C101.651 302.656 102.068 302.539 102.391 302.305C102.714 302.065 102.951 301.721 103.102 301.273C103.253 300.826 103.328 300.286 103.328 299.656C103.328 299.026 103.253 298.492 103.102 298.055C102.951 297.612 102.714 297.276 102.391 297.047C102.068 296.812 101.648 296.695 101.133 296.695C100.372 296.695 99.8177 296.951 99.4688 297.461C99.1198 297.971 98.9453 298.703 98.9453 299.656ZM117.102 295.188C118.07 295.188 118.799 295.438 119.289 295.938C119.784 296.438 120.031 297.24 120.031 298.344V304H118.195V298.672C118.195 298.016 118.068 297.521 117.812 297.188C117.557 296.854 117.169 296.688 116.648 296.688C115.919 296.688 115.393 296.922 115.07 297.391C114.753 297.854 114.594 298.529 114.594 299.414V304H112.758V298.672C112.758 298.234 112.701 297.87 112.586 297.578C112.477 297.281 112.307 297.06 112.078 296.914C111.849 296.763 111.56 296.688 111.211 296.688C110.706 296.688 110.302 296.802 110 297.031C109.703 297.26 109.49 297.599 109.359 298.047C109.229 298.49 109.164 299.034 109.164 299.68V304H107.328V295.352H108.758L109.016 296.516H109.117C109.294 296.214 109.513 295.966 109.773 295.773C110.039 295.576 110.333 295.43 110.656 295.336C110.979 295.237 111.315 295.188 111.664 295.188C112.31 295.188 112.854 295.302 113.297 295.531C113.74 295.755 114.07 296.099 114.289 296.562H114.43C114.701 296.094 115.078 295.747 115.562 295.523C116.047 295.299 116.56 295.188 117.102 295.188ZM124.43 295.352V304H122.594V295.352H124.43ZM123.523 292.039C123.805 292.039 124.047 292.115 124.25 292.266C124.458 292.417 124.562 292.677 124.562 293.047C124.562 293.411 124.458 293.672 124.25 293.828C124.047 293.979 123.805 294.055 123.523 294.055C123.232 294.055 122.984 293.979 122.781 293.828C122.583 293.672 122.484 293.411 122.484 293.047C122.484 292.677 122.583 292.417 122.781 292.266C122.984 292.115 123.232 292.039 123.523 292.039ZM132.852 304H126.281V302.867L130.648 296.766H126.547V295.352H132.727V296.602L128.445 302.586H132.852V304ZM138.164 295.188C138.935 295.188 139.596 295.346 140.148 295.664C140.701 295.982 141.125 296.432 141.422 297.016C141.719 297.599 141.867 298.297 141.867 299.109V300.094H136.094C136.115 300.932 136.339 301.578 136.766 302.031C137.198 302.484 137.802 302.711 138.578 302.711C139.13 302.711 139.625 302.659 140.062 302.555C140.505 302.445 140.961 302.286 141.43 302.078V303.57C140.997 303.773 140.557 303.922 140.109 304.016C139.661 304.109 139.125 304.156 138.5 304.156C137.651 304.156 136.904 303.992 136.258 303.664C135.617 303.331 135.115 302.836 134.75 302.18C134.391 301.523 134.211 300.708 134.211 299.734C134.211 298.766 134.375 297.943 134.703 297.266C135.031 296.589 135.492 296.073 136.086 295.719C136.68 295.365 137.372 295.188 138.164 295.188ZM138.164 296.57C137.586 296.57 137.117 296.758 136.758 297.133C136.404 297.508 136.195 298.057 136.133 298.781H140.07C140.065 298.349 139.992 297.966 139.852 297.633C139.716 297.299 139.508 297.039 139.227 296.852C138.951 296.664 138.596 296.57 138.164 296.57ZM146.844 304.156C145.812 304.156 144.984 303.781 144.359 303.031C143.74 302.276 143.43 301.164 143.43 299.695C143.43 298.211 143.745 297.089 144.375 296.328C145.01 295.568 145.846 295.188 146.883 295.188C147.32 295.188 147.703 295.247 148.031 295.367C148.359 295.482 148.641 295.638 148.875 295.836C149.115 296.034 149.318 296.255 149.484 296.5H149.57C149.544 296.339 149.513 296.107 149.477 295.805C149.445 295.497 149.43 295.214 149.43 294.953V291.844H151.273V304H149.836L149.508 302.82H149.43C149.273 303.07 149.076 303.297 148.836 303.5C148.602 303.698 148.32 303.857 147.992 303.977C147.669 304.096 147.286 304.156 146.844 304.156ZM147.359 302.664C148.146 302.664 148.701 302.438 149.023 301.984C149.346 301.531 149.513 300.852 149.523 299.945V299.703C149.523 298.734 149.367 297.992 149.055 297.477C148.742 296.956 148.172 296.695 147.344 296.695C146.682 296.695 146.177 296.964 145.828 297.5C145.484 298.031 145.312 298.773 145.312 299.727C145.312 300.68 145.484 301.409 145.828 301.914C146.177 302.414 146.688 302.664 147.359 302.664ZM165.461 304H157.25V302.711L163.062 294.172H157.43V292.578H165.305V293.859L159.492 302.406H165.461V304ZM174.938 299.656C174.938 300.375 174.844 301.013 174.656 301.57C174.469 302.128 174.195 302.599 173.836 302.984C173.477 303.365 173.044 303.656 172.539 303.859C172.034 304.057 171.464 304.156 170.828 304.156C170.234 304.156 169.69 304.057 169.195 303.859C168.701 303.656 168.271 303.365 167.906 302.984C167.547 302.599 167.268 302.128 167.07 301.57C166.872 301.013 166.773 300.375 166.773 299.656C166.773 298.703 166.938 297.896 167.266 297.234C167.599 296.568 168.073 296.06 168.688 295.711C169.302 295.362 170.034 295.188 170.883 295.188C171.68 295.188 172.383 295.362 172.992 295.711C173.602 296.06 174.078 296.568 174.422 297.234C174.766 297.901 174.938 298.708 174.938 299.656ZM168.664 299.656C168.664 300.286 168.74 300.826 168.891 301.273C169.047 301.721 169.286 302.065 169.609 302.305C169.932 302.539 170.349 302.656 170.859 302.656C171.37 302.656 171.786 302.539 172.109 302.305C172.432 302.065 172.669 301.721 172.82 301.273C172.971 300.826 173.047 300.286 173.047 299.656C173.047 299.026 172.971 298.492 172.82 298.055C172.669 297.612 172.432 297.276 172.109 297.047C171.786 296.812 171.367 296.695 170.852 296.695C170.091 296.695 169.536 296.951 169.188 297.461C168.839 297.971 168.664 298.703 168.664 299.656ZM184.703 299.656C184.703 300.375 184.609 301.013 184.422 301.57C184.234 302.128 183.961 302.599 183.602 302.984C183.242 303.365 182.81 303.656 182.305 303.859C181.799 304.057 181.229 304.156 180.594 304.156C180 304.156 179.456 304.057 178.961 303.859C178.466 303.656 178.036 303.365 177.672 302.984C177.312 302.599 177.034 302.128 176.836 301.57C176.638 301.013 176.539 300.375 176.539 299.656C176.539 298.703 176.703 297.896 177.031 297.234C177.365 296.568 177.839 296.06 178.453 295.711C179.068 295.362 179.799 295.188 180.648 295.188C181.445 295.188 182.148 295.362 182.758 295.711C183.367 296.06 183.844 296.568 184.188 297.234C184.531 297.901 184.703 298.708 184.703 299.656ZM178.43 299.656C178.43 300.286 178.505 300.826 178.656 301.273C178.812 301.721 179.052 302.065 179.375 302.305C179.698 302.539 180.115 302.656 180.625 302.656C181.135 302.656 181.552 302.539 181.875 302.305C182.198 302.065 182.435 301.721 182.586 301.273C182.737 300.826 182.812 300.286 182.812 299.656C182.812 299.026 182.737 298.492 182.586 298.055C182.435 297.612 182.198 297.276 181.875 297.047C181.552 296.812 181.133 296.695 180.617 296.695C179.857 296.695 179.302 296.951 178.953 297.461C178.604 297.971 178.43 298.703 178.43 299.656ZM196.586 295.188C197.555 295.188 198.284 295.438 198.773 295.938C199.268 296.438 199.516 297.24 199.516 298.344V304H197.68V298.672C197.68 298.016 197.552 297.521 197.297 297.188C197.042 296.854 196.654 296.688 196.133 296.688C195.404 296.688 194.878 296.922 194.555 297.391C194.237 297.854 194.078 298.529 194.078 299.414V304H192.242V298.672C192.242 298.234 192.185 297.87 192.07 297.578C191.961 297.281 191.792 297.06 191.562 296.914C191.333 296.763 191.044 296.688 190.695 296.688C190.19 296.688 189.786 296.802 189.484 297.031C189.188 297.26 188.974 297.599 188.844 298.047C188.714 298.49 188.648 299.034 188.648 299.68V304H186.812V295.352H188.242L188.5 296.516H188.602C188.779 296.214 188.997 295.966 189.258 295.773C189.523 295.576 189.818 295.43 190.141 295.336C190.464 295.237 190.799 295.188 191.148 295.188C191.794 295.188 192.339 295.302 192.781 295.531C193.224 295.755 193.555 296.099 193.773 296.562H193.914C194.185 296.094 194.562 295.747 195.047 295.523C195.531 295.299 196.044 295.188 196.586 295.188ZM216.008 295.188C216.977 295.188 217.706 295.438 218.195 295.938C218.69 296.438 218.938 297.24 218.938 298.344V304H217.102V298.672C217.102 298.016 216.974 297.521 216.719 297.188C216.464 296.854 216.076 296.688 215.555 296.688C214.826 296.688 214.299 296.922 213.977 297.391C213.659 297.854 213.5 298.529 213.5 299.414V304H211.664V298.672C211.664 298.234 211.607 297.87 211.492 297.578C211.383 297.281 211.214 297.06 210.984 296.914C210.755 296.763 210.466 296.688 210.117 296.688C209.612 296.688 209.208 296.802 208.906 297.031C208.609 297.26 208.396 297.599 208.266 298.047C208.135 298.49 208.07 299.034 208.07 299.68V304H206.234V295.352H207.664L207.922 296.516H208.023C208.201 296.214 208.419 295.966 208.68 295.773C208.945 295.576 209.24 295.43 209.562 295.336C209.885 295.237 210.221 295.188 210.57 295.188C211.216 295.188 211.76 295.302 212.203 295.531C212.646 295.755 212.977 296.099 213.195 296.562H213.336C213.607 296.094 213.984 295.747 214.469 295.523C214.953 295.299 215.466 295.188 216.008 295.188ZM224.945 295.188C225.716 295.188 226.378 295.346 226.93 295.664C227.482 295.982 227.906 296.432 228.203 297.016C228.5 297.599 228.648 298.297 228.648 299.109V300.094H222.875C222.896 300.932 223.12 301.578 223.547 302.031C223.979 302.484 224.583 302.711 225.359 302.711C225.911 302.711 226.406 302.659 226.844 302.555C227.286 302.445 227.742 302.286 228.211 302.078V303.57C227.779 303.773 227.339 303.922 226.891 304.016C226.443 304.109 225.906 304.156 225.281 304.156C224.432 304.156 223.685 303.992 223.039 303.664C222.398 303.331 221.896 302.836 221.531 302.18C221.172 301.523 220.992 300.708 220.992 299.734C220.992 298.766 221.156 297.943 221.484 297.266C221.812 296.589 222.273 296.073 222.867 295.719C223.461 295.365 224.154 295.188 224.945 295.188ZM224.945 296.57C224.367 296.57 223.898 296.758 223.539 297.133C223.185 297.508 222.977 298.057 222.914 298.781H226.852C226.846 298.349 226.773 297.966 226.633 297.633C226.497 297.299 226.289 297.039 226.008 296.852C225.732 296.664 225.378 296.57 224.945 296.57ZM234.164 295.188C234.935 295.188 235.596 295.346 236.148 295.664C236.701 295.982 237.125 296.432 237.422 297.016C237.719 297.599 237.867 298.297 237.867 299.109V300.094H232.094C232.115 300.932 232.339 301.578 232.766 302.031C233.198 302.484 233.802 302.711 234.578 302.711C235.13 302.711 235.625 302.659 236.062 302.555C236.505 302.445 236.961 302.286 237.43 302.078V303.57C236.997 303.773 236.557 303.922 236.109 304.016C235.661 304.109 235.125 304.156 234.5 304.156C233.651 304.156 232.904 303.992 232.258 303.664C231.617 303.331 231.115 302.836 230.75 302.18C230.391 301.523 230.211 300.708 230.211 299.734C230.211 298.766 230.375 297.943 230.703 297.266C231.031 296.589 231.492 296.073 232.086 295.719C232.68 295.365 233.372 295.188 234.164 295.188ZM234.164 296.57C233.586 296.57 233.117 296.758 232.758 297.133C232.404 297.508 232.195 298.057 232.133 298.781H236.07C236.065 298.349 235.992 297.966 235.852 297.633C235.716 297.299 235.508 297.039 235.227 296.852C234.951 296.664 234.596 296.57 234.164 296.57ZM243.156 302.672C243.396 302.672 243.633 302.651 243.867 302.609C244.102 302.562 244.315 302.508 244.508 302.445V303.836C244.305 303.924 244.042 304 243.719 304.062C243.396 304.125 243.06 304.156 242.711 304.156C242.221 304.156 241.781 304.076 241.391 303.914C241 303.747 240.69 303.464 240.461 303.062C240.232 302.661 240.117 302.107 240.117 301.398V296.75H238.938V295.93L240.203 295.281L240.805 293.43H241.961V295.352H244.438V296.75H241.961V301.375C241.961 301.812 242.07 302.138 242.289 302.352C242.508 302.565 242.797 302.672 243.156 302.672ZM248.102 295.352V304H246.266V295.352H248.102ZM247.195 292.039C247.477 292.039 247.719 292.115 247.922 292.266C248.13 292.417 248.234 292.677 248.234 293.047C248.234 293.411 248.13 293.672 247.922 293.828C247.719 293.979 247.477 294.055 247.195 294.055C246.904 294.055 246.656 293.979 246.453 293.828C246.255 293.672 246.156 293.411 246.156 293.047C246.156 292.677 246.255 292.417 246.453 292.266C246.656 292.115 246.904 292.039 247.195 292.039ZM255.242 295.188C256.216 295.188 256.974 295.44 257.516 295.945C258.062 296.445 258.336 297.25 258.336 298.359V304H256.5V298.703C256.5 298.031 256.362 297.529 256.086 297.195C255.81 296.857 255.383 296.688 254.805 296.688C253.966 296.688 253.383 296.945 253.055 297.461C252.732 297.977 252.57 298.724 252.57 299.703V304H250.734V295.352H252.164L252.422 296.523H252.523C252.711 296.221 252.943 295.974 253.219 295.781C253.5 295.583 253.812 295.435 254.156 295.336C254.505 295.237 254.867 295.188 255.242 295.188ZM263.375 307.844C262.203 307.844 261.305 307.633 260.68 307.211C260.055 306.789 259.742 306.198 259.742 305.438C259.742 304.906 259.909 304.456 260.242 304.086C260.576 303.721 261.052 303.469 261.672 303.328C261.438 303.224 261.234 303.062 261.062 302.844C260.896 302.62 260.812 302.372 260.812 302.102C260.812 301.779 260.904 301.503 261.086 301.273C261.268 301.044 261.542 300.823 261.906 300.609C261.453 300.417 261.089 300.104 260.812 299.672C260.542 299.234 260.406 298.721 260.406 298.133C260.406 297.508 260.539 296.977 260.805 296.539C261.07 296.096 261.458 295.76 261.969 295.531C262.479 295.297 263.096 295.18 263.82 295.18C263.977 295.18 264.146 295.19 264.328 295.211C264.516 295.227 264.688 295.247 264.844 295.273C265.005 295.294 265.128 295.318 265.211 295.344H268.203V296.367L266.734 296.641C266.875 296.839 266.987 297.065 267.07 297.32C267.154 297.57 267.195 297.844 267.195 298.141C267.195 299.036 266.885 299.742 266.266 300.258C265.651 300.768 264.802 301.023 263.719 301.023C263.458 301.013 263.206 300.992 262.961 300.961C262.773 301.076 262.63 301.203 262.531 301.344C262.432 301.479 262.383 301.633 262.383 301.805C262.383 301.945 262.432 302.06 262.531 302.148C262.63 302.232 262.776 302.294 262.969 302.336C263.167 302.378 263.406 302.398 263.688 302.398H265.18C266.128 302.398 266.852 302.599 267.352 303C267.852 303.401 268.102 303.99 268.102 304.766C268.102 305.75 267.695 306.508 266.883 307.039C266.07 307.576 264.901 307.844 263.375 307.844ZM263.445 306.555C264.086 306.555 264.625 306.492 265.062 306.367C265.5 306.242 265.831 306.062 266.055 305.828C266.279 305.599 266.391 305.326 266.391 305.008C266.391 304.727 266.32 304.51 266.18 304.359C266.039 304.208 265.828 304.104 265.547 304.047C265.266 303.99 264.917 303.961 264.5 303.961H263.141C262.802 303.961 262.503 304.013 262.242 304.117C261.982 304.227 261.779 304.383 261.633 304.586C261.492 304.789 261.422 305.034 261.422 305.32C261.422 305.716 261.596 306.021 261.945 306.234C262.299 306.448 262.799 306.555 263.445 306.555ZM263.805 299.82C264.341 299.82 264.74 299.674 265 299.383C265.26 299.086 265.391 298.669 265.391 298.133C265.391 297.549 265.255 297.112 264.984 296.82C264.719 296.529 264.323 296.383 263.797 296.383C263.281 296.383 262.888 296.531 262.617 296.828C262.352 297.125 262.219 297.565 262.219 298.148C262.219 298.674 262.352 299.086 262.617 299.383C262.888 299.674 263.284 299.82 263.805 299.82ZM275.773 291.844V294.773C275.773 295.112 275.763 295.445 275.742 295.773C275.727 296.096 275.711 296.349 275.695 296.531H275.773C276.008 296.156 276.333 295.841 276.75 295.586C277.172 295.326 277.711 295.195 278.367 295.195C279.393 295.195 280.219 295.573 280.844 296.328C281.469 297.078 281.781 298.19 281.781 299.664C281.781 300.643 281.638 301.466 281.352 302.133C281.065 302.799 280.661 303.305 280.141 303.648C279.625 303.987 279.018 304.156 278.32 304.156C277.664 304.156 277.133 304.036 276.727 303.797C276.326 303.552 276.01 303.268 275.781 302.945H275.648L275.312 304H273.938V291.844H275.773ZM277.883 296.688C277.362 296.688 276.948 296.792 276.641 297C276.339 297.208 276.12 297.521 275.984 297.938C275.849 298.349 275.779 298.872 275.773 299.508V299.672C275.773 300.635 275.924 301.372 276.227 301.883C276.534 302.393 277.091 302.648 277.898 302.648C278.539 302.648 279.031 302.391 279.375 301.875C279.719 301.354 279.891 300.609 279.891 299.641C279.891 298.661 279.719 297.924 279.375 297.43C279.036 296.935 278.539 296.688 277.883 296.688ZM287.297 295.188C288.391 295.188 289.216 295.43 289.773 295.914C290.336 296.398 290.617 297.154 290.617 298.18V304H289.312L288.961 302.773H288.898C288.654 303.086 288.401 303.344 288.141 303.547C287.88 303.75 287.578 303.901 287.234 304C286.896 304.104 286.482 304.156 285.992 304.156C285.477 304.156 285.016 304.062 284.609 303.875C284.203 303.682 283.883 303.391 283.648 303C283.414 302.609 283.297 302.115 283.297 301.516C283.297 300.625 283.628 299.956 284.289 299.508C284.956 299.06 285.961 298.812 287.305 298.766L288.805 298.711V298.258C288.805 297.659 288.664 297.232 288.383 296.977C288.107 296.721 287.716 296.594 287.211 296.594C286.779 296.594 286.359 296.656 285.953 296.781C285.547 296.906 285.151 297.06 284.766 297.242L284.172 295.945C284.594 295.721 285.073 295.539 285.609 295.398C286.151 295.258 286.714 295.188 287.297 295.188ZM288.797 299.867L287.68 299.906C286.763 299.938 286.12 300.094 285.75 300.375C285.38 300.656 285.195 301.042 285.195 301.531C285.195 301.958 285.323 302.271 285.578 302.469C285.833 302.661 286.169 302.758 286.586 302.758C287.221 302.758 287.747 302.578 288.164 302.219C288.586 301.854 288.797 301.32 288.797 300.617V299.867ZM296.672 304.156C295.854 304.156 295.146 303.997 294.547 303.68C293.948 303.362 293.487 302.875 293.164 302.219C292.841 301.562 292.68 300.729 292.68 299.719C292.68 298.667 292.857 297.807 293.211 297.141C293.565 296.474 294.055 295.982 294.68 295.664C295.31 295.346 296.031 295.188 296.844 295.188C297.359 295.188 297.826 295.24 298.242 295.344C298.664 295.443 299.021 295.565 299.312 295.711L298.766 297.18C298.448 297.049 298.122 296.94 297.789 296.852C297.456 296.763 297.135 296.719 296.828 296.719C296.323 296.719 295.901 296.831 295.562 297.055C295.229 297.279 294.979 297.612 294.812 298.055C294.651 298.497 294.57 299.047 294.57 299.703C294.57 300.339 294.654 300.875 294.82 301.312C294.987 301.745 295.234 302.073 295.562 302.297C295.891 302.516 296.294 302.625 296.773 302.625C297.247 302.625 297.672 302.568 298.047 302.453C298.422 302.339 298.776 302.19 299.109 302.008V303.602C298.781 303.789 298.43 303.927 298.055 304.016C297.68 304.109 297.219 304.156 296.672 304.156ZM302.977 291.844V297.719C302.977 297.984 302.966 298.276 302.945 298.594C302.924 298.906 302.904 299.201 302.883 299.477H302.922C303.057 299.294 303.219 299.081 303.406 298.836C303.599 298.591 303.781 298.378 303.953 298.195L306.594 295.352H308.703L305.242 299.07L308.93 304H306.773L304.008 300.203L302.977 301.086V304H301.141V291.844H302.977ZM312.781 307.844C311.609 307.844 310.711 307.633 310.086 307.211C309.461 306.789 309.148 306.198 309.148 305.438C309.148 304.906 309.315 304.456 309.648 304.086C309.982 303.721 310.458 303.469 311.078 303.328C310.844 303.224 310.641 303.062 310.469 302.844C310.302 302.62 310.219 302.372 310.219 302.102C310.219 301.779 310.31 301.503 310.492 301.273C310.674 301.044 310.948 300.823 311.312 300.609C310.859 300.417 310.495 300.104 310.219 299.672C309.948 299.234 309.812 298.721 309.812 298.133C309.812 297.508 309.945 296.977 310.211 296.539C310.477 296.096 310.865 295.76 311.375 295.531C311.885 295.297 312.503 295.18 313.227 295.18C313.383 295.18 313.552 295.19 313.734 295.211C313.922 295.227 314.094 295.247 314.25 295.273C314.411 295.294 314.534 295.318 314.617 295.344H317.609V296.367L316.141 296.641C316.281 296.839 316.393 297.065 316.477 297.32C316.56 297.57 316.602 297.844 316.602 298.141C316.602 299.036 316.292 299.742 315.672 300.258C315.057 300.768 314.208 301.023 313.125 301.023C312.865 301.013 312.612 300.992 312.367 300.961C312.18 301.076 312.036 301.203 311.938 301.344C311.839 301.479 311.789 301.633 311.789 301.805C311.789 301.945 311.839 302.06 311.938 302.148C312.036 302.232 312.182 302.294 312.375 302.336C312.573 302.378 312.812 302.398 313.094 302.398H314.586C315.534 302.398 316.258 302.599 316.758 303C317.258 303.401 317.508 303.99 317.508 304.766C317.508 305.75 317.102 306.508 316.289 307.039C315.477 307.576 314.307 307.844 312.781 307.844ZM312.852 306.555C313.492 306.555 314.031 306.492 314.469 306.367C314.906 306.242 315.237 306.062 315.461 305.828C315.685 305.599 315.797 305.326 315.797 305.008C315.797 304.727 315.727 304.51 315.586 304.359C315.445 304.208 315.234 304.104 314.953 304.047C314.672 303.99 314.323 303.961 313.906 303.961H312.547C312.208 303.961 311.909 304.013 311.648 304.117C311.388 304.227 311.185 304.383 311.039 304.586C310.898 304.789 310.828 305.034 310.828 305.32C310.828 305.716 311.003 306.021 311.352 306.234C311.706 306.448 312.206 306.555 312.852 306.555ZM313.211 299.82C313.747 299.82 314.146 299.674 314.406 299.383C314.667 299.086 314.797 298.669 314.797 298.133C314.797 297.549 314.661 297.112 314.391 296.82C314.125 296.529 313.729 296.383 313.203 296.383C312.688 296.383 312.294 296.531 312.023 296.828C311.758 297.125 311.625 297.565 311.625 298.148C311.625 298.674 311.758 299.086 312.023 299.383C312.294 299.674 312.69 299.82 313.211 299.82ZM323.57 295.188C323.716 295.188 323.875 295.195 324.047 295.211C324.219 295.227 324.367 295.247 324.492 295.273L324.32 296.992C324.211 296.961 324.076 296.938 323.914 296.922C323.758 296.906 323.617 296.898 323.492 296.898C323.164 296.898 322.852 296.953 322.555 297.062C322.258 297.167 321.995 297.328 321.766 297.547C321.536 297.76 321.357 298.029 321.227 298.352C321.096 298.674 321.031 299.049 321.031 299.477V304H319.188V295.352H320.625L320.875 296.875H320.961C321.133 296.568 321.346 296.286 321.602 296.031C321.857 295.776 322.148 295.573 322.477 295.422C322.81 295.266 323.174 295.188 323.57 295.188ZM333.75 299.656C333.75 300.375 333.656 301.013 333.469 301.57C333.281 302.128 333.008 302.599 332.648 302.984C332.289 303.365 331.857 303.656 331.352 303.859C330.846 304.057 330.276 304.156 329.641 304.156C329.047 304.156 328.503 304.057 328.008 303.859C327.513 303.656 327.083 303.365 326.719 302.984C326.359 302.599 326.081 302.128 325.883 301.57C325.685 301.013 325.586 300.375 325.586 299.656C325.586 298.703 325.75 297.896 326.078 297.234C326.411 296.568 326.885 296.06 327.5 295.711C328.115 295.362 328.846 295.188 329.695 295.188C330.492 295.188 331.195 295.362 331.805 295.711C332.414 296.06 332.891 296.568 333.234 297.234C333.578 297.901 333.75 298.708 333.75 299.656ZM327.477 299.656C327.477 300.286 327.552 300.826 327.703 301.273C327.859 301.721 328.099 302.065 328.422 302.305C328.745 302.539 329.161 302.656 329.672 302.656C330.182 302.656 330.599 302.539 330.922 302.305C331.245 302.065 331.482 301.721 331.633 301.273C331.784 300.826 331.859 300.286 331.859 299.656C331.859 299.026 331.784 298.492 331.633 298.055C331.482 297.612 331.245 297.276 330.922 297.047C330.599 296.812 330.18 296.695 329.664 296.695C328.904 296.695 328.349 296.951 328 297.461C327.651 297.971 327.477 298.703 327.477 299.656ZM343.398 295.352V304H341.953L341.703 302.836H341.602C341.419 303.133 341.188 303.38 340.906 303.578C340.625 303.771 340.312 303.914 339.969 304.008C339.625 304.107 339.263 304.156 338.883 304.156C338.232 304.156 337.674 304.047 337.211 303.828C336.753 303.604 336.401 303.26 336.156 302.797C335.911 302.333 335.789 301.734 335.789 301V295.352H337.633V300.656C337.633 301.328 337.768 301.831 338.039 302.164C338.315 302.497 338.742 302.664 339.32 302.664C339.878 302.664 340.32 302.549 340.648 302.32C340.977 302.091 341.208 301.753 341.344 301.305C341.484 300.857 341.555 300.307 341.555 299.656V295.352H343.398ZM350.539 295.188C351.513 295.188 352.271 295.44 352.812 295.945C353.359 296.445 353.633 297.25 353.633 298.359V304H351.797V298.703C351.797 298.031 351.659 297.529 351.383 297.195C351.107 296.857 350.68 296.688 350.102 296.688C349.263 296.688 348.68 296.945 348.352 297.461C348.029 297.977 347.867 298.724 347.867 299.703V304H346.031V295.352H347.461L347.719 296.523H347.82C348.008 296.221 348.24 295.974 348.516 295.781C348.797 295.583 349.109 295.435 349.453 295.336C349.802 295.237 350.164 295.188 350.539 295.188ZM359.109 304.156C358.078 304.156 357.25 303.781 356.625 303.031C356.005 302.276 355.695 301.164 355.695 299.695C355.695 298.211 356.01 297.089 356.641 296.328C357.276 295.568 358.112 295.188 359.148 295.188C359.586 295.188 359.969 295.247 360.297 295.367C360.625 295.482 360.906 295.638 361.141 295.836C361.38 296.034 361.583 296.255 361.75 296.5H361.836C361.81 296.339 361.779 296.107 361.742 295.805C361.711 295.497 361.695 295.214 361.695 294.953V291.844H363.539V304H362.102L361.773 302.82H361.695C361.539 303.07 361.341 303.297 361.102 303.5C360.867 303.698 360.586 303.857 360.258 303.977C359.935 304.096 359.552 304.156 359.109 304.156ZM359.625 302.664C360.411 302.664 360.966 302.438 361.289 301.984C361.612 301.531 361.779 300.852 361.789 299.945V299.703C361.789 298.734 361.633 297.992 361.32 297.477C361.008 296.956 360.438 296.695 359.609 296.695C358.948 296.695 358.443 296.964 358.094 297.5C357.75 298.031 357.578 298.773 357.578 299.727C357.578 300.68 357.75 301.409 358.094 301.914C358.443 302.414 358.953 302.664 359.625 302.664ZM371.984 301.531C371.984 302.099 371.846 302.578 371.57 302.969C371.294 303.359 370.891 303.656 370.359 303.859C369.833 304.057 369.188 304.156 368.422 304.156C367.818 304.156 367.297 304.112 366.859 304.023C366.427 303.94 366.018 303.81 365.633 303.633V302.047C366.044 302.24 366.505 302.406 367.016 302.547C367.531 302.688 368.018 302.758 368.477 302.758C369.081 302.758 369.516 302.664 369.781 302.477C370.047 302.284 370.18 302.029 370.18 301.711C370.18 301.523 370.125 301.357 370.016 301.211C369.911 301.06 369.714 300.906 369.422 300.75C369.135 300.589 368.714 300.396 368.156 300.172C367.609 299.953 367.148 299.734 366.773 299.516C366.398 299.297 366.115 299.034 365.922 298.727C365.729 298.414 365.633 298.016 365.633 297.531C365.633 296.766 365.935 296.185 366.539 295.789C367.148 295.388 367.953 295.188 368.953 295.188C369.484 295.188 369.984 295.242 370.453 295.352C370.927 295.456 371.391 295.609 371.844 295.812L371.266 297.195C370.875 297.023 370.482 296.883 370.086 296.773C369.695 296.659 369.297 296.602 368.891 296.602C368.417 296.602 368.055 296.674 367.805 296.82C367.56 296.966 367.438 297.174 367.438 297.445C367.438 297.648 367.497 297.82 367.617 297.961C367.737 298.102 367.943 298.242 368.234 298.383C368.531 298.523 368.943 298.698 369.469 298.906C369.984 299.104 370.43 299.312 370.805 299.531C371.185 299.745 371.477 300.008 371.68 300.32C371.883 300.633 371.984 301.036 371.984 301.531ZM373.703 303.031C373.703 302.604 373.812 302.305 374.031 302.133C374.255 301.956 374.526 301.867 374.844 301.867C375.161 301.867 375.432 301.956 375.656 302.133C375.885 302.305 376 302.604 376 303.031C376 303.448 375.885 303.75 375.656 303.938C375.432 304.12 375.161 304.211 374.844 304.211C374.526 304.211 374.255 304.12 374.031 303.938C373.812 303.75 373.703 303.448 373.703 303.031Z" fill="#D2D8DA"/>
<path d="M64 222C64 218.686 66.6863 216 70 216H82C85.3137 216 88 218.686 88 222V234C88 237.314 85.3137 240 82 240H70C66.6863 240 64 237.314 64 234V222Z" fill="url(#paint1_linear_26975_9295)"/>
<path fill-rule="evenodd" clip-rule="evenodd" d="M71.3847 231H78.308V226.286C78.308 225.576 77.6882 225 76.9233 225H70V229.714C70 230.424 70.6198 231 71.3847 231ZM79.2307 229.286L82 231V225L79.2311 226.714L79.2307 229.286Z" fill="white"/>
<g clip-path="url(#clip1_26975_9295)">
<path d="M110.583 235.565H98.2121C97.3944 235.565 96.6186 235.135 96.2411 234.402C95.8113 233.564 95.9685 232.559 96.629 231.899L105.236 223.299H99.0718C97.3734 223.299 96 221.927 96 220.23H107.396C108.214 220.23 108.99 220.66 109.367 221.393C109.797 222.231 109.64 223.237 108.979 223.896L100.372 232.496H107.511C109.21 232.496 110.583 233.868 110.583 235.565ZM159.543 220C157.772 220 156.178 220.765 155.087 221.99C153.987 220.765 152.393 220 150.632 220C147.34 220 144.656 222.807 144.656 226.085V235.565C146.354 235.565 147.728 234.192 147.728 232.496V226.054C147.728 224.472 148.954 223.132 150.527 223.069C152.184 223.006 153.557 224.336 153.557 225.981V232.496C153.557 234.192 154.93 235.565 156.629 235.565V226.054C156.629 224.472 157.855 223.132 159.428 223.069C161.084 223.006 162.458 224.336 162.458 225.981V232.496C162.458 234.192 163.831 235.565 165.529 235.565V226.085C165.519 222.807 162.835 220 159.543 220ZM126.078 227.897C126.078 232.255 122.535 235.795 118.174 235.795C113.812 235.795 110.269 232.255 110.269 227.897C110.269 223.54 113.823 220 118.174 220C122.524 220 126.078 223.54 126.078 227.897ZM123.007 227.897C123.007 225.237 120.836 223.069 118.174 223.069C115.511 223.069 113.34 225.237 113.34 227.897C113.34 230.558 115.511 232.726 118.174 232.726C120.836 232.726 123.007 230.558 123.007 227.897ZM143.115 227.897C143.115 232.255 139.571 235.795 135.21 235.795C130.848 235.795 127.305 232.255 127.305 227.897C127.305 223.54 130.859 220 135.21 220C139.561 220 143.115 223.54 143.115 227.897ZM140.043 227.897C140.043 225.237 137.873 223.069 135.21 223.069C132.547 223.069 130.377 225.237 130.377 227.897C130.377 230.558 132.547 232.726 135.21 232.726C137.873 232.726 140.043 230.558 140.043 227.897Z" fill="#0B5CFF"/>
</g>
<path d="M198.89 225.016C201.386 226.168 203.018 228.728 203.018 231.736C203.018 235.768 200.01 239.032 195.946 239.032H185.834H185.226C184.778 239.032 184.554 238.776 184.554 238.328V217.304C184.554 216.856 184.778 216.632 185.226 216.632H187.498H193.61C197.226 216.632 199.658 219.128 199.658 222.296C199.658 223.256 199.37 224.216 198.89 225.016ZM193.61 219.384H187.498V224.376H195.946C196.426 223.832 196.714 223.128 196.714 222.36C196.714 220.696 195.562 219.384 193.61 219.384ZM195.53 236.216C198.346 236.216 200.042 234.168 200.042 231.64C200.042 229.112 198.378 227.064 195.562 227.064H187.498V236.216H195.53ZM212.157 222.616C215.709 222.616 218.365 224.824 218.365 228.696V238.328C218.365 238.776 218.141 239 217.693 239H216.285C215.869 239 215.613 238.776 215.613 238.328V237.368C214.589 238.744 212.893 239.416 210.877 239.416C207.965 239.416 205.245 237.72 205.245 234.296C205.245 230.872 207.965 229.176 210.877 229.176C212.893 229.176 214.589 229.88 215.613 231.032V228.76C215.613 226.232 214.013 225.24 212.157 225.24C210.493 225.24 209.053 226.008 208.765 227.512C208.637 227.896 208.445 228.12 208.029 228.12H206.621C206.205 228.12 205.917 227.896 205.949 227.416C206.333 224.504 208.829 222.616 212.157 222.616ZM211.677 237.08C213.981 237.08 215.613 235.896 215.613 234.296C215.613 232.6 213.981 231.512 211.677 231.512C209.181 231.512 208.029 232.696 208.029 234.296C208.029 235.896 209.181 237.08 211.677 237.08ZM236.731 233.656C237.211 233.656 237.467 233.944 237.275 234.424C236.187 237.4 233.211 239.416 229.755 239.416C224.891 239.416 221.307 235.768 221.307 231C221.307 226.264 224.891 222.616 229.755 222.616C233.211 222.616 236.155 224.632 237.275 227.608C237.467 228.056 237.211 228.376 236.731 228.376H235.163C234.779 228.376 234.523 228.216 234.331 227.864C233.467 226.296 231.771 225.336 229.755 225.336C226.555 225.336 224.091 227.8 224.091 231C224.091 234.232 226.555 236.696 229.755 236.696C231.771 236.696 233.499 235.704 234.331 234.168C234.523 233.816 234.779 233.656 235.163 233.656H236.731ZM253.156 238.168C253.572 238.584 253.412 239 252.804 239H250.98C250.628 239 250.404 238.904 250.18 238.648L243.3 231.448V238.328C243.3 238.776 243.044 239 242.628 239H241.188C240.74 239 240.516 238.776 240.516 238.328V217.304C240.516 216.856 240.74 216.6 241.188 216.6H242.628C243.044 216.6 243.3 216.856 243.3 217.304V230.104L249.86 223.384C250.084 223.128 250.308 223 250.66 223H252.484C253.092 223 253.252 223.416 252.836 223.864L246.084 230.776L253.156 238.168ZM270.501 223C270.949 223 271.173 223.256 271.173 223.704V238.328C271.173 243.32 267.301 245.816 263.109 245.816C259.365 245.816 255.813 243.64 255.365 240.408C255.333 239.928 255.621 239.704 256.037 239.704H257.477C257.893 239.704 258.085 239.896 258.213 240.312C258.597 241.72 260.325 243.224 263.109 243.224C266.533 243.224 268.421 241.336 268.421 238.328V236.12C267.141 238.04 265.061 239.256 262.341 239.256C257.925 239.256 254.245 235.608 254.245 230.936C254.245 226.264 257.925 222.616 262.341 222.616C265.061 222.616 267.141 223.832 268.421 225.752V223.704C268.421 223.256 268.677 223 269.093 223H270.501ZM262.725 236.6C265.957 236.6 268.421 234.136 268.421 230.936C268.421 227.704 265.957 225.24 262.725 225.24C259.493 225.24 257.029 227.704 257.029 230.936C257.029 234.136 259.493 236.6 262.725 236.6ZM282.335 222.776C282.783 222.744 283.039 223 283.039 223.448V224.952C283.039 225.368 282.847 225.624 282.559 225.624C280.319 225.72 278.207 227 278.207 230.456V238.328C278.207 238.776 277.951 239.032 277.535 239.032H276.095C275.647 239.032 275.423 238.776 275.423 238.328V223.704C275.423 223.256 275.647 223.032 276.095 223.032H277.535C277.951 223.032 278.207 223.256 278.207 223.704V225.432C279.167 223.672 280.671 222.936 282.335 222.776ZM292.411 239.416C287.707 239.416 283.963 235.768 283.963 231C283.963 226.264 287.707 222.616 292.411 222.616C297.083 222.616 300.827 226.264 300.827 231C300.827 235.768 297.083 239.416 292.411 239.416ZM292.411 236.696C295.579 236.696 298.043 234.232 298.043 231C298.043 227.768 295.579 225.304 292.411 225.304C289.211 225.304 286.747 227.768 286.747 231C286.747 234.232 289.211 236.696 292.411 236.696ZM315.949 223C316.365 223 316.621 223.256 316.621 223.704V238.328C316.621 238.776 316.365 239 315.949 239H314.509C314.061 239 313.837 238.776 313.837 238.328V237.048C312.685 238.776 311.021 239.416 309.101 239.416C306.125 239.416 303.757 237.144 303.757 233.4V223.704C303.757 223.256 303.981 223 304.429 223H305.837C306.285 223 306.541 223.256 306.541 223.704V233.304C306.541 235.576 307.949 236.76 309.837 236.76C311.853 236.76 313.837 235.576 313.837 232.12V223.704C313.837 223.256 314.093 223 314.509 223H315.949ZM328.411 222.616C331.387 222.616 333.755 224.856 333.755 228.632V238.328C333.755 238.776 333.531 239 333.083 239H331.675C331.227 239 330.971 238.776 330.971 238.328V228.728C330.971 226.424 329.563 225.24 327.675 225.24C325.659 225.24 323.675 226.456 323.675 229.912V238.328C323.675 238.776 323.419 239 323.003 239H321.563C321.115 239 320.891 238.776 320.891 238.328V223.704C320.891 223.256 321.115 223 321.563 223H323.003C323.419 223 323.675 223.256 323.675 223.704V224.984C324.827 223.256 326.459 222.616 328.411 222.616ZM352.969 216.6C353.417 216.6 353.641 216.856 353.641 217.304V238.328C353.641 238.776 353.417 239 352.969 239H351.529C351.113 239 350.857 238.776 350.857 238.328V236.312C349.577 238.232 347.529 239.416 344.809 239.416C340.393 239.416 336.713 235.768 336.713 231C336.713 226.264 340.393 222.616 344.809 222.616C347.529 222.616 349.577 223.8 350.857 225.72V217.304C350.857 216.856 351.113 216.6 351.529 216.6H352.969ZM345.193 236.728C348.393 236.728 350.857 234.264 350.857 231C350.857 227.736 348.393 225.272 345.193 225.272C341.961 225.272 339.497 227.736 339.497 231C339.497 234.264 341.961 236.728 345.193 236.728ZM360.195 227.352C360.195 231 369.347 228.632 369.347 234.68C369.347 237.56 366.787 239.416 363.235 239.416C359.939 239.416 357.507 237.784 357.155 234.936C357.123 234.456 357.411 234.232 357.827 234.232H359.235C359.651 234.232 359.843 234.456 359.971 234.84C360.259 236.312 361.635 236.824 363.235 236.824C365.091 236.824 366.563 236.184 366.563 234.68C366.563 231.032 357.411 233.4 357.411 227.352C357.411 224.472 359.971 222.616 363.235 222.616C366.243 222.616 368.643 224.216 368.963 227.096C369.027 227.576 368.739 227.8 368.291 227.8H366.883C366.499 227.8 366.307 227.576 366.179 227.16C365.891 225.72 364.579 225.176 363.235 225.176C361.667 225.176 360.195 225.848 360.195 227.352Z" fill="#FDFDFD"/>
<defs>
<linearGradient id="paint0_linear_26975_9295" x1="-270" y1="269.999" x2="479.998" y2="1020" gradientUnits="userSpaceOnUse">
<stop stop-color="#111111"/>
<stop offset="0.63" stop-color="#096258"/>
<stop offset="1" stop-color="#00B39F"/>
</linearGradient>
<linearGradient id="paint1_linear_26975_9295" x1="68" y1="236.5" x2="84" y2="220" gradientUnits="userSpaceOnUse">
<stop stop-color="#0B5CFF"/>
<stop offset="1" stop-color="#2196F3"/>
</linearGradient>
<clipPath id="clip0_26975_9295">
<rect width="432" height="304" fill="white" transform="translate(488 136)"/>
</clipPath>
<clipPath id="clip1_26975_9295">
<rect width="70.1538" height="16" fill="white" transform="translate(96 220)"/>
</clipPath>
</defs>
</svg>
