<svg width="49" height="48" viewBox="0 0 49 48" fill="none" xmlns="http://www.w3.org/2000/svg">
  <g id="Bluesky">
    <path
      id="Vector"
      fill-rule="evenodd"
      clip-rule="evenodd"
      d="M40.3462 10.2424C42.081 10.7094 43.4488 12.0772 43.9158 13.812C44.7832 16.9812 44.7498 23.5866 44.7498 23.5866C44.7498 23.5866 44.7498 30.1587 43.9158 33.3279C43.4488 35.0627 42.081 36.4305 40.3462 36.8975C37.177 37.7316 24.4999 37.7316 24.4999 37.7316C24.4999 37.7316 11.8562 37.7316 8.65361 36.8642C6.91885 36.3971 5.55107 35.0293 5.08402 33.2946C4.25 30.1587 4.25 23.5533 4.25 23.5533C4.25 23.5533 4.25 16.9812 5.08402 13.812C5.55107 12.0772 6.95221 10.6761 8.65361 10.209C11.8229 9.375 24.4999 9.375 24.4999 9.375C24.4999 9.375 37.177 9.375 40.3462 10.2424ZM31.0052 23.3216L20.4632 29.3933V17.25L31.0052 23.3216Z"
      fill="#0085FF"
    />
  </g>
</svg>
