<svg width="49" height="48" viewBox="0 0 49 48" fill="none" xmlns="http://www.w3.org/2000/svg">
<g id="LinkedIn 1">
<path id="Vector" fill-rule="evenodd" clip-rule="evenodd" d="M9.91333 7C8.58048 7 7.5 8.08048 7.5 9.41333V38.5866C7.5 39.9194 8.58049 40.9999 9.91333 40.9999H39.0867C40.4195 40.9999 41.5 39.9194 41.5 38.5866V9.41333C41.5 8.08048 40.4195 7 39.0867 7H9.91333ZM15.1314 17.5587C16.7604 17.5587 18.0809 16.2382 18.0809 14.6092C18.0809 12.9803 16.7604 11.6597 15.1314 11.6597C13.5025 11.6597 12.1819 12.9803 12.1819 14.6092C12.1819 16.2382 13.5025 17.5587 15.1314 17.5587ZM20.7822 19.7385H25.6704V21.9778C25.6704 21.9778 26.9969 19.3248 30.6061 19.3248C33.8257 19.3248 36.4928 20.9109 36.4928 25.7452V35.9395H31.4271V26.9805C31.4271 24.1287 29.9046 23.815 28.7444 23.815C26.3367 23.815 25.9245 25.8919 25.9245 27.3525V35.9395H20.7822V19.7385ZM17.7026 19.7385H12.5603V35.9395H17.7026V19.7385Z" fill="white"/>
</g>
</svg>
