<svg width="478" height="440" viewBox="0 0 478 440" fill="none" xmlns="http://www.w3.org/2000/svg">
<g filter="url(#filter0_d_16508_41338)">
<path d="M181.895 300.628C174.556 302.155 169.664 298.184 165.799 291.464C159.611 280.602 153.324 269.777 146.659 259.196C143.124 253.6 142.831 248.676 146.169 242.873C158.241 221.87 169.97 200.683 181.882 179.595C185.943 172.411 188.536 172.264 193.098 179.094C198.968 187.805 198.467 196.309 193 205.216C185.356 217.691 178.421 230.593 170.899 243.093C167.597 248.603 168.037 253.368 171.376 258.671C177.626 268.58 183.485 278.721 189.416 288.825C195.752 299.675 195.348 300.261 181.895 300.628ZM308.749 228.199C296.738 228.199 284.716 228.272 272.706 228.199C264.658 228.125 263.313 225.755 266.97 218.424C271.568 209.248 279.2 205.791 289.253 206.01C303.392 206.316 317.555 205.937 331.681 206.365C339.643 206.609 344.486 203.542 348.082 196.395C353.475 185.704 359.762 175.453 365.804 165.092C369.791 158.262 372.005 158.445 376.493 164.811C382.364 173.144 383.195 180.694 376.848 189.626C370.766 198.388 365.447 207.655 360.948 217.324C356.998 225.559 350.993 228.321 342.419 228.089C331.216 227.808 319.988 228.015 308.785 228.015L308.749 228.199Z" fill="#00B39F"/>
<path d="M340.964 105.076C339.91 107.997 338.685 110.853 337.295 113.629C325.358 134.375 313.36 155.085 301.3 175.758C296.959 183.187 294.366 183.089 289.657 175.758C284.337 167.45 284.765 159.398 289.951 151.077C297.778 138.407 305.128 125.419 312.919 112.773C316.222 107.397 316.246 102.657 312.919 97.2198C306.229 86.3578 299.931 75.2271 293.632 64.133C289.657 57.1198 290.745 55.7269 298.622 54.7128C308.663 53.4055 315.219 56.8999 319.793 66.1612C324.832 76.3878 331.167 85.9913 336.781 95.9368C338.444 98.7837 339.594 101.997 340.964 105.076Z" fill="#00D3A9"/>
<path d="M159.418 76.657C161.864 60.6877 167.392 55.7149 181.433 55.4216C192.88 55.1895 204.34 54.9451 215.788 54.5053C223.126 54.2243 228.349 56.6557 232.25 63.3024C244.358 83.9513 256.931 104.344 269.284 124.858C270.262 126.666 271.14 128.526 271.914 130.43C262.875 137.871 250.339 135.317 243.197 124.321C238.683 117.429 234.99 109.964 230.819 102.877C215.201 76.1072 215.189 76.1439 183.928 76.6326C175.782 76.767 167.71 76.657 159.418 76.657Z" fill="#00B39F"/>
<path d="M283.679 300.126C248.822 300.444 257.334 303.682 240.407 275.861C231.149 260.625 222.257 245.157 213.342 229.701C209.464 223.006 210.736 220.904 218.393 220.11C229.571 218.888 236.359 224.704 241.435 233.843C248.394 246.403 255.769 258.744 262.716 271.328C265.786 276.9 270.054 279.026 276.377 278.83C289.427 278.427 302.489 278.439 315.515 278.598C322.572 278.684 323.097 280.48 320.627 286.931C316.676 297.231 309.363 300.933 298.82 300.151C293.83 299.809 288.742 300.114 283.679 300.126ZM108.93 200.378C96.1249 190.188 94.5227 182.832 101.335 170.394C106.912 160.229 112.465 150.063 117.858 139.849C121.283 133.3 126.077 129.903 133.88 129.842C158.146 129.634 182.411 128.877 206.688 128.388C208.771 128.438 210.849 128.601 212.913 128.877C214.895 140.557 206.285 150.246 193.063 150.992C184.734 151.456 176.357 150.992 167.991 150.992C136.571 151.187 136.595 151.224 121.283 178.886C117.296 186.082 113.113 193.157 108.93 200.378Z" fill="#00D3A9"/>
<path d="M85.4712 346.507V385.642H129.55V376.344H94.7664V367.058H121.49V357.772H94.7664V348.486H129.55V339.2H85.4712V346.507ZM190.58 373.497C190.588 375.115 190.259 376.717 189.613 378.201C189.003 379.653 188.109 380.97 186.984 382.074C185.863 383.173 184.549 384.056 183.107 384.677C181.607 385.318 179.993 385.646 178.361 385.642H134.833V375.867H178.361C178.672 375.872 178.981 375.813 179.269 375.696C179.557 375.578 179.818 375.404 180.037 375.183C180.258 374.965 180.431 374.703 180.547 374.416C180.662 374.128 180.718 373.819 180.71 373.509V369.721C180.716 369.412 180.66 369.103 180.545 368.816C180.429 368.528 180.256 368.267 180.037 368.048C179.817 367.829 179.556 367.656 179.268 367.54C178.98 367.425 178.672 367.369 178.361 367.375H147.052C145.428 367.383 143.821 367.054 142.331 366.41C139.381 365.169 137.037 362.822 135.8 359.873C135.15 358.391 134.82 356.788 134.833 355.169V351.394C134.823 349.764 135.152 348.149 135.8 346.653C136.425 345.209 137.317 343.895 138.429 342.78C139.55 341.664 140.874 340.772 142.331 340.153C143.822 339.513 145.429 339.189 147.052 339.2H190.58V349.036H147.052C146.741 349.033 146.432 349.091 146.144 349.209C145.856 349.326 145.595 349.5 145.375 349.719C145.155 349.939 144.982 350.2 144.864 350.488C144.747 350.775 144.688 351.083 144.691 351.394V355.169C144.688 355.48 144.747 355.788 144.864 356.076C144.982 356.363 145.155 356.625 145.375 356.844C145.595 357.064 145.856 357.237 146.144 357.355C146.432 357.472 146.741 357.531 147.052 357.528H178.361C179.992 357.519 181.607 357.843 183.107 358.481C184.553 359.11 185.868 360.005 186.984 361.12C188.098 362.228 188.99 363.539 189.613 364.981C190.255 366.479 190.584 368.092 190.58 369.721V373.497ZM249.225 385.642H240.358V367.375H205.782V385.642H196.915V357.54H240.358V339.212H249.225V385.642ZM205.782 353.166H196.915V339.188H205.782V353.166ZM78.3164 385.642H68.4587V351.761C68.4599 351.399 68.3849 351.041 68.2385 350.71C68.098 350.387 67.899 350.093 67.6515 349.842C67.3984 349.598 67.1046 349.399 66.7831 349.256C66.4518 349.11 66.0935 349.035 65.7313 349.036H20.1484V339.188H65.7068C67.3899 339.175 69.0567 339.517 70.599 340.19C72.0955 340.829 73.46 341.74 74.6228 342.878C75.7613 344.042 76.6773 345.404 77.3258 346.898C77.9908 348.441 78.3281 350.105 78.3164 351.785V385.642ZM30.0062 385.642H20.1484V348.987H30.0062V385.642ZM54.1368 385.642H44.2669V354.192H54.1368V385.642ZM314.119 385.642H304.262V351.761C304.263 351.399 304.188 351.041 304.042 350.71C303.762 350.056 303.24 349.535 302.586 349.256C302.255 349.11 301.896 349.035 301.534 349.036H255.964V339.188H301.534C303.217 339.174 304.884 339.516 306.426 340.19C307.925 340.826 309.29 341.738 310.45 342.878C311.593 344.039 312.509 345.402 313.153 346.898C313.818 348.441 314.156 350.105 314.144 351.785L314.119 385.642ZM265.821 385.642H255.964V348.987H265.821V385.642ZM289.94 385.642H280.082V354.192H289.94V385.642ZM338.641 339.2L320.039 385.642H330.643L343.289 353.129L352.303 376.344H336.844L333.37 385.642H366.539L347.937 339.2H338.641ZM414.519 346.507V385.642H458.61V376.344H423.826V367.058H450.538V357.772H423.826V348.486H458.61V339.2H414.519V346.507ZM392.101 339.188H410.446V349.036H363.971V339.188H392.101ZM382.267 353.166H392.125V385.642H382.267V353.166Z" fill="white"/>
</g>
<defs>
<filter id="filter0_d_16508_41338" x="-3.12109" y="0" width="485" height="448" filterUnits="userSpaceOnUse" color-interpolation-filters="sRGB">
<feFlood flood-opacity="0" result="BackgroundImageFix"/>
<feColorMatrix in="SourceAlpha" type="matrix" values="0 0 0 0 0 0 0 0 0 0 0 0 0 0 0 0 0 0 127 0" result="hardAlpha"/>
<feOffset dy="4"/>
<feGaussianBlur stdDeviation="2"/>
<feComposite in2="hardAlpha" operator="out"/>
<feColorMatrix type="matrix" values="0 0 0 0 0 0 0 0 0 0 0 0 0 0 0 0 0 0 0.25 0"/>
<feBlend mode="normal" in2="BackgroundImageFix" result="effect1_dropShadow_16508_41338"/>
<feBlend mode="normal" in="SourceGraphic" in2="effect1_dropShadow_16508_41338" result="shape"/>
</filter>
</defs>
</svg>
