<?xml version="1.0" standalone="no"?>
<!DOCTYPE svg PUBLIC "-//W3C//DTD SVG 20010904//EN"
 "http://www.w3.org/TR/2001/REC-SVG-20010904/DTD/svg10.dtd">
<svg version="1.0" xmlns="http://www.w3.org/2000/svg"
 width="478.000000pt" height="440.000000pt" viewBox="0 0 478.000000 440.000000"
 preserveAspectRatio="xMidYMid meet">

<g transform="translate(0.000000,440.000000) scale(0.100000,-0.100000)"
fill="#000000" stroke="none">
<path d="M202 778 l3 -233 45 0 45 0 3 183 2 182 183 0 c129 0 187 -4 195 -12
8 -8 12 -64 12 -186 l0 -173 43 3 42 3 3 186 c2 179 2 187 -21 220 -35 53 -64
58 -325 58 l-232 1 2 -232z"/>
<path d="M860 775 l0 -235 215 0 215 0 0 45 0 45 -170 0 -170 0 0 50 0 50 130
0 130 0 0 45 0 45 -130 0 -130 0 0 50 0 50 170 0 170 0 0 45 0 45 -215 0 -215
0 0 -235z"/>
<path d="M1430 997 c-97 -33 -111 -205 -20 -252 23 -12 67 -15 203 -15 191 0
201 -3 195 -57 l-3 -28 -228 -3 -228 -2 3 -48 3 -47 210 -3 c233 -3 270 2 309
49 22 26 26 40 26 95 0 56 -3 67 -29 96 l-29 33 -194 5 -193 5 -3 43 -3 42
225 0 226 0 0 50 0 50 -217 -1 c-142 0 -230 -4 -253 -12z"/>
<path d="M1970 941 l0 -71 45 0 46 0 -3 68 -3 67 -42 3 -43 3 0 -70z"/>
<path d="M2408 918 l-3 -93 -218 -3 -218 -2 3 -138 3 -137 40 0 40 0 3 93 3
92 168 0 168 0 7 -37 c3 -21 6 -64 6 -96 l0 -58 38 3 37 3 3 233 2 232 -39 0
-40 0 -3 -92z"/>
<path d="M2562 778 l3 -233 45 0 45 0 3 183 2 182 188 -2 187 -3 5 -180 5
-180 45 0 45 0 3 180 c3 198 -2 222 -52 258 -30 21 -41 22 -279 25 l-247 3 2
-233z"/>
<path d="M3377 978 c-185 -447 -183 -441 -107 -436 l35 3 60 152 c33 84 63
155 67 158 5 6 88 -196 88 -216 0 -5 -34 -9 -76 -9 l-75 0 -15 -36 c-13 -30
-13 -38 -2 -45 17 -11 279 -11 295 -1 10 6 -11 67 -78 235 l-91 227 -44 0
c-40 0 -45 -3 -57 -32z"/>
<path d="M3640 960 l0 -50 230 0 230 0 0 50 0 50 -230 0 -230 0 0 -50z"/>
<path d="M4150 775 l0 -235 215 0 215 0 0 45 0 45 -170 0 -170 0 0 50 0 50
130 0 130 0 0 45 0 45 -130 0 -130 0 0 50 0 50 170 0 170 0 0 45 0 45 -215 0
-215 0 0 -235z"/>
<path d="M3822 708 l3 -163 45 0 45 0 3 163 2 162 -50 0 -50 0 2 -162z"/>
<path d="M444 847 c-2 -7 -3 -78 -2 -157 l3 -145 45 0 45 0 3 158 3 157 -46 0
c-28 0 -48 -5 -51 -13z"/>
<path d="M2804 847 c-2 -7 -3 -78 -2 -157 l3 -145 45 0 45 0 3 158 3 157 -46
0 c-28 0 -48 -5 -51 -13z"/>
</g>
</svg>
