<svg width="49" height="48" viewBox="0 0 49 48" fill="none" xmlns="http://www.w3.org/2000/svg">
<g id="Twitter 1">
<path id="Vector" fill-rule="evenodd" clip-rule="evenodd" d="M40.0423 16.1778C40.0558 16.5275 40.0603 16.8772 40.0603 17.2269C40.0603 27.8313 32.6007 40.0735 18.9595 40.0735C14.7692 40.0735 10.8728 38.738 7.58984 36.4645C8.17016 36.528 8.75952 36.5758 9.35793 36.5758C12.8323 36.5758 16.0323 35.2878 18.5706 33.1256C15.3254 33.0779 12.5851 30.7408 11.64 27.561C12.0937 27.6564 12.5609 27.7043 13.0388 27.7043C13.7125 27.7043 14.3667 27.609 14.9937 27.4182C11.5978 26.6869 9.03989 23.4436 9.03989 19.5485C9.03989 19.5008 9.03989 19.4848 9.03989 19.453C10.0407 20.0412 11.1863 20.4067 12.4027 20.4544C10.41 19.0076 9.10015 16.5434 9.10015 13.7611C9.10015 12.2984 9.46491 10.9152 10.107 9.72281C13.7638 14.5878 19.2308 17.7835 25.3942 18.1173C25.2676 17.5291 25.2028 16.9092 25.2028 16.2892C25.2028 11.8534 28.5234 8.26025 32.6202 8.26025C34.7531 8.26025 36.6794 9.23021 38.0315 10.7883C39.7242 10.4385 41.3099 9.77081 42.7449 8.84869C42.1887 10.7247 41.0145 12.2984 39.48 13.2841C40.9813 13.0933 42.4133 12.6644 43.7412 12.0284C42.7449 13.6342 41.4908 15.0489 40.0423 16.1778Z" fill="#3C494F"/>
</g>
</svg>
